<?xml version="1.0" encoding="utf-8" standalone="no"?>
<!DOCTYPE svg PUBLIC "-//W3C//DTD SVG 1.1//EN"
  "http://www.w3.org/Graphics/SVG/1.1/DTD/svg11.dtd">
<svg xmlns:xlink="http://www.w3.org/1999/xlink" width="387.082462pt" height="209.075801pt" viewBox="0 0 387.082462 209.075801" xmlns="http://www.w3.org/2000/svg" version="1.1">
 <metadata>
  <rdf:RDF xmlns:dc="http://purl.org/dc/elements/1.1/" xmlns:cc="http://creativecommons.org/ns#" xmlns:rdf="http://www.w3.org/1999/02/22-rdf-syntax-ns#">
   <cc:Work>
    <dc:type rdf:resource="http://purl.org/dc/dcmitype/StillImage"/>
    <dc:date>2024-11-11T12:40:33.675209</dc:date>
    <dc:format>image/svg+xml</dc:format>
    <dc:creator>
     <cc:Agent>
      <dc:title>Matplotlib v3.9.2, https://matplotlib.org/</dc:title>
     </cc:Agent>
    </dc:creator>
   </cc:Work>
  </rdf:RDF>
 </metadata>
 <defs>
  <style type="text/css">*{stroke-linejoin: round; stroke-linecap: butt}</style>
 </defs>
 <g id="figure_1">
  <g id="patch_1">
   <path d="M 0 209.075801 
L 387.082462 209.075801 
L 387.082462 0 
L 0 0 
z
" style="fill: #ffffff"/>
  </g>
  <g id="axes_1">
   <g id="patch_2">
    <path d="M 52.282462 171.508862 
L 387.082462 171.508862 
L 387.082462 5.188862 
L 52.282462 5.188862 
z
" style="fill: #eaeaf2"/>
   </g>
   <g id="matplotlib.axis_1">
    <g id="xtick_1">
     <g id="line2d_1">
      <path d="M 67.500644 171.508862 
L 67.500644 5.188862 
" clip-path="url(#paeee4a515e)" style="fill: none; stroke: #ffffff; stroke-linecap: round"/>
     </g>
     <g id="line2d_2"/>
     <g id="text_1">
      <!-- $\mathdefault{0.0}$ -->
      <g style="fill: #262626" transform="translate(58.152118 188.886587) scale(0.15 -0.15)">
       <defs>
        <path id="CMR17-30" d="M 2688 2025 
C 2688 2416 2682 3080 2413 3591 
C 2176 4039 1798 4198 1466 4198 
C 1158 4198 768 4058 525 3597 
C 269 3118 243 2524 243 2025 
C 243 1661 250 1106 448 619 
C 723 -39 1216 -128 1466 -128 
C 1760 -128 2208 -7 2470 600 
C 2662 1042 2688 1559 2688 2025 
z
M 1466 -26 
C 1056 -26 813 325 723 812 
C 653 1188 653 1738 653 2096 
C 653 2588 653 2997 736 3387 
C 858 3929 1216 4096 1466 4096 
C 1728 4096 2067 3923 2189 3400 
C 2272 3036 2278 2607 2278 2096 
C 2278 1680 2278 1169 2202 792 
C 2067 95 1690 -26 1466 -26 
z
" transform="scale(0.015625)"/>
        <path id="CMMI12-3a" d="M 1178 307 
C 1178 492 1024 619 870 619 
C 685 619 557 466 557 313 
C 557 128 710 0 864 0 
C 1050 0 1178 153 1178 307 
z
" transform="scale(0.015625)"/>
       </defs>
       <use xlink:href="#CMR17-30" transform="scale(0.996264)"/>
       <use xlink:href="#CMMI12-3a" transform="translate(45.690477 0) scale(0.996264)"/>
       <use xlink:href="#CMR17-30" transform="translate(72.787654 0) scale(0.996264)"/>
      </g>
     </g>
    </g>
    <g id="xtick_2">
     <g id="line2d_3">
      <path d="M 128.373371 171.508862 
L 128.373371 5.188862 
" clip-path="url(#paeee4a515e)" style="fill: none; stroke: #ffffff; stroke-linecap: round"/>
     </g>
     <g id="line2d_4"/>
     <g id="text_2">
      <!-- $\mathdefault{0.2}$ -->
      <g style="fill: #262626" transform="translate(119.024845 188.886587) scale(0.15 -0.15)">
       <defs>
        <path id="CMR17-32" d="M 2669 989 
L 2554 989 
C 2490 536 2438 459 2413 420 
C 2381 369 1920 369 1830 369 
L 602 369 
C 832 619 1280 1072 1824 1597 
C 2214 1967 2669 2402 2669 3035 
C 2669 3790 2067 4224 1395 4224 
C 691 4224 262 3604 262 3030 
C 262 2780 448 2748 525 2748 
C 589 2748 781 2787 781 3010 
C 781 3207 614 3264 525 3264 
C 486 3264 448 3258 422 3245 
C 544 3790 915 4058 1306 4058 
C 1862 4058 2227 3617 2227 3035 
C 2227 2479 1901 2000 1536 1584 
L 262 146 
L 262 0 
L 2515 0 
L 2669 989 
z
" transform="scale(0.015625)"/>
       </defs>
       <use xlink:href="#CMR17-30" transform="scale(0.996264)"/>
       <use xlink:href="#CMMI12-3a" transform="translate(45.690477 0) scale(0.996264)"/>
       <use xlink:href="#CMR17-32" transform="translate(72.787654 0) scale(0.996264)"/>
      </g>
     </g>
    </g>
    <g id="xtick_3">
     <g id="line2d_5">
      <path d="M 189.246098 171.508862 
L 189.246098 5.188862 
" clip-path="url(#paeee4a515e)" style="fill: none; stroke: #ffffff; stroke-linecap: round"/>
     </g>
     <g id="line2d_6"/>
     <g id="text_3">
      <!-- $\mathdefault{0.4}$ -->
      <g style="fill: #262626" transform="translate(179.897572 188.886587) scale(0.15 -0.15)">
       <defs>
        <path id="CMR17-34" d="M 2150 4122 
C 2150 4256 2144 4256 2029 4256 
L 128 1254 
L 128 1088 
L 1779 1088 
L 1779 457 
C 1779 224 1766 160 1318 160 
L 1197 160 
L 1197 0 
C 1402 0 1747 0 1965 0 
C 2182 0 2528 0 2733 0 
L 2733 160 
L 2611 160 
C 2163 160 2150 224 2150 457 
L 2150 1088 
L 2803 1088 
L 2803 1254 
L 2150 1254 
L 2150 4122 
z
M 1798 3703 
L 1798 1254 
L 256 1254 
L 1798 3703 
z
" transform="scale(0.015625)"/>
       </defs>
       <use xlink:href="#CMR17-30" transform="scale(0.996264)"/>
       <use xlink:href="#CMMI12-3a" transform="translate(45.690477 0) scale(0.996264)"/>
       <use xlink:href="#CMR17-34" transform="translate(72.787654 0) scale(0.996264)"/>
      </g>
     </g>
    </g>
    <g id="xtick_4">
     <g id="line2d_7">
      <path d="M 250.118826 171.508862 
L 250.118826 5.188862 
" clip-path="url(#paeee4a515e)" style="fill: none; stroke: #ffffff; stroke-linecap: round"/>
     </g>
     <g id="line2d_8"/>
     <g id="text_4">
      <!-- $\mathdefault{0.6}$ -->
      <g style="fill: #262626" transform="translate(240.770299 188.886587) scale(0.15 -0.15)">
       <defs>
        <path id="CMR17-36" d="M 678 2176 
C 678 3690 1395 4032 1811 4032 
C 1946 4032 2272 4009 2400 3776 
C 2298 3776 2106 3776 2106 3553 
C 2106 3381 2246 3323 2336 3323 
C 2394 3323 2566 3348 2566 3560 
C 2566 3954 2246 4179 1805 4179 
C 1043 4179 243 3390 243 1984 
C 243 253 966 -128 1478 -128 
C 2099 -128 2688 427 2688 1283 
C 2688 2081 2170 2662 1517 2662 
C 1126 2662 838 2407 678 1960 
L 678 2176 
z
M 1478 25 
C 691 25 691 1200 691 1436 
C 691 1896 909 2560 1504 2560 
C 1613 2560 1926 2560 2138 2120 
C 2253 1870 2253 1609 2253 1289 
C 2253 944 2253 690 2118 434 
C 1978 171 1773 25 1478 25 
z
" transform="scale(0.015625)"/>
       </defs>
       <use xlink:href="#CMR17-30" transform="scale(0.996264)"/>
       <use xlink:href="#CMMI12-3a" transform="translate(45.690477 0) scale(0.996264)"/>
       <use xlink:href="#CMR17-36" transform="translate(72.787654 0) scale(0.996264)"/>
      </g>
     </g>
    </g>
    <g id="xtick_5">
     <g id="line2d_9">
      <path d="M 310.991553 171.508862 
L 310.991553 5.188862 
" clip-path="url(#paeee4a515e)" style="fill: none; stroke: #ffffff; stroke-linecap: round"/>
     </g>
     <g id="line2d_10"/>
     <g id="text_5">
      <!-- $\mathdefault{0.8}$ -->
      <g style="fill: #262626" transform="translate(301.643027 188.886587) scale(0.15 -0.15)">
       <defs>
        <path id="CMR17-38" d="M 1741 2264 
C 2144 2467 2554 2773 2554 3263 
C 2554 3841 1990 4179 1472 4179 
C 890 4179 378 3759 378 3180 
C 378 3021 416 2747 666 2505 
C 730 2442 998 2251 1171 2130 
C 883 1983 211 1634 211 934 
C 211 279 838 -128 1459 -128 
C 2144 -128 2720 362 2720 1010 
C 2720 1590 2330 1857 2074 2029 
L 1741 2264 
z
M 902 2822 
C 851 2854 595 3051 595 3351 
C 595 3739 998 4032 1459 4032 
C 1965 4032 2336 3676 2336 3262 
C 2336 2669 1670 2331 1638 2331 
C 1632 2331 1626 2331 1574 2370 
L 902 2822 
z
M 2080 1519 
C 2176 1449 2483 1240 2483 851 
C 2483 381 2010 25 1472 25 
C 890 25 448 438 448 940 
C 448 1443 838 1862 1280 2060 
L 2080 1519 
z
" transform="scale(0.015625)"/>
       </defs>
       <use xlink:href="#CMR17-30" transform="scale(0.996264)"/>
       <use xlink:href="#CMMI12-3a" transform="translate(45.690477 0) scale(0.996264)"/>
       <use xlink:href="#CMR17-38" transform="translate(72.787654 0) scale(0.996264)"/>
      </g>
     </g>
    </g>
    <g id="xtick_6">
     <g id="line2d_11">
      <path d="M 371.86428 171.508862 
L 371.86428 5.188862 
" clip-path="url(#paeee4a515e)" style="fill: none; stroke: #ffffff; stroke-linecap: round"/>
     </g>
     <g id="line2d_12"/>
     <g id="text_6">
      <!-- $\mathdefault{1.0}$ -->
      <g style="fill: #262626" transform="translate(362.515754 188.886587) scale(0.15 -0.15)">
       <defs>
        <path id="CMR17-31" d="M 1702 4058 
C 1702 4192 1696 4192 1606 4192 
C 1357 3916 979 3827 621 3827 
C 602 3827 570 3827 563 3808 
C 557 3795 557 3782 557 3648 
C 755 3648 1088 3686 1344 3839 
L 1344 461 
C 1344 236 1331 160 781 160 
L 589 160 
L 589 0 
C 896 0 1216 0 1523 0 
C 1830 0 2150 0 2458 0 
L 2458 160 
L 2266 160 
C 1715 160 1702 230 1702 458 
L 1702 4058 
z
" transform="scale(0.015625)"/>
       </defs>
       <use xlink:href="#CMR17-31" transform="scale(0.996264)"/>
       <use xlink:href="#CMMI12-3a" transform="translate(45.690477 0) scale(0.996264)"/>
       <use xlink:href="#CMR17-30" transform="translate(72.787654 0) scale(0.996264)"/>
      </g>
     </g>
    </g>
    <g id="text_7">
     <!-- $s_1$ -->
     <g style="fill: #262626" transform="translate(213.621025 206.170057) scale(0.15 -0.15)">
      <defs>
       <path id="CMMI12-73" d="M 1459 1280 
C 1568 1261 1741 1223 1779 1216 
C 1862 1192 2150 1090 2150 783 
C 2150 586 1971 70 1229 70 
C 1094 70 614 70 486 436 
C 742 404 870 603 870 745 
C 870 880 781 950 653 950 
C 512 950 326 841 326 552 
C 326 173 710 -64 1222 -64 
C 2195 -64 2483 651 2483 984 
C 2483 1079 2483 1258 2278 1462 
C 2118 1616 1965 1648 1619 1718 
C 1446 1756 1171 1814 1171 2101 
C 1171 2229 1286 2689 1894 2689 
C 2163 2689 2426 2589 2490 2368 
C 2208 2368 2195 2125 2195 2119 
C 2195 1984 2317 1946 2374 1946 
C 2464 1946 2643 2015 2643 2281 
C 2643 2545 2400 2816 1901 2816 
C 1062 2816 838 2160 838 1899 
C 838 1414 1312 1312 1459 1280 
z
" transform="scale(0.015625)"/>
      </defs>
      <use xlink:href="#CMMI12-73" transform="scale(0.996264)"/>
      <use xlink:href="#CMR17-31" transform="translate(45.950048 -14.943915) scale(0.697382)"/>
     </g>
    </g>
   </g>
   <g id="matplotlib.axis_2">
    <g id="ytick_1">
     <g id="line2d_13">
      <path d="M 52.282462 171.508862 
L 387.082462 171.508862 
" clip-path="url(#paeee4a515e)" style="fill: none; stroke: #ffffff; stroke-linecap: round"/>
     </g>
     <g id="line2d_14"/>
     <g id="text_8">
      <!-- $\mathdefault{10^{-2}}$ -->
      <g style="fill: #262626" transform="translate(17.283469 176.697725) scale(0.15 -0.15)">
       <defs>
        <path id="CMSY10-0" d="M 4218 1472 
C 4326 1472 4442 1472 4442 1600 
C 4442 1728 4326 1728 4218 1728 
L 755 1728 
C 646 1728 531 1728 531 1600 
C 531 1472 646 1472 755 1472 
L 4218 1472 
z
" transform="scale(0.015625)"/>
       </defs>
       <use xlink:href="#CMR17-31" transform="scale(0.996264)"/>
       <use xlink:href="#CMR17-30" transform="translate(45.690477 0) scale(0.996264)"/>
       <use xlink:href="#CMSY10-0" transform="translate(91.380954 36.153639) scale(0.697382)"/>
       <use xlink:href="#CMR17-32" transform="translate(145.621947 36.153639) scale(0.697382)"/>
      </g>
     </g>
    </g>
    <g id="ytick_2">
     <g id="line2d_15">
      <path d="M 52.282462 129.928862 
L 387.082462 129.928862 
" clip-path="url(#paeee4a515e)" style="fill: none; stroke: #ffffff; stroke-linecap: round"/>
     </g>
     <g id="line2d_16"/>
     <g id="text_9">
      <!-- $\mathdefault{10^{-1}}$ -->
      <g style="fill: #262626" transform="translate(17.283469 135.117725) scale(0.15 -0.15)">
       <use xlink:href="#CMR17-31" transform="scale(0.996264)"/>
       <use xlink:href="#CMR17-30" transform="translate(45.690477 0) scale(0.996264)"/>
       <use xlink:href="#CMSY10-0" transform="translate(91.380954 36.153639) scale(0.697382)"/>
       <use xlink:href="#CMR17-31" transform="translate(145.621947 36.153639) scale(0.697382)"/>
      </g>
     </g>
    </g>
    <g id="ytick_3">
     <g id="line2d_17">
      <path d="M 52.282462 88.348862 
L 387.082462 88.348862 
" clip-path="url(#paeee4a515e)" style="fill: none; stroke: #ffffff; stroke-linecap: round"/>
     </g>
     <g id="line2d_18"/>
     <g id="text_10">
      <!-- $\mathdefault{10^{0}}$ -->
      <g style="fill: #262626" transform="translate(25.419615 93.537725) scale(0.15 -0.15)">
       <use xlink:href="#CMR17-31" transform="scale(0.996264)"/>
       <use xlink:href="#CMR17-30" transform="translate(45.690477 0) scale(0.996264)"/>
       <use xlink:href="#CMR17-30" transform="translate(91.380954 36.153639) scale(0.697382)"/>
      </g>
     </g>
    </g>
    <g id="ytick_4">
     <g id="line2d_19">
      <path d="M 52.282462 46.768862 
L 387.082462 46.768862 
" clip-path="url(#paeee4a515e)" style="fill: none; stroke: #ffffff; stroke-linecap: round"/>
     </g>
     <g id="line2d_20"/>
     <g id="text_11">
      <!-- $\mathdefault{10^{1}}$ -->
      <g style="fill: #262626" transform="translate(25.419615 51.957725) scale(0.15 -0.15)">
       <use xlink:href="#CMR17-31" transform="scale(0.996264)"/>
       <use xlink:href="#CMR17-30" transform="translate(45.690477 0) scale(0.996264)"/>
       <use xlink:href="#CMR17-31" transform="translate(91.380954 36.153639) scale(0.697382)"/>
      </g>
     </g>
    </g>
    <g id="ytick_5">
     <g id="line2d_21">
      <path d="M 52.282462 5.188862 
L 387.082462 5.188862 
" clip-path="url(#paeee4a515e)" style="fill: none; stroke: #ffffff; stroke-linecap: round"/>
     </g>
     <g id="line2d_22"/>
     <g id="text_12">
      <!-- $\mathdefault{10^{2}}$ -->
      <g style="fill: #262626" transform="translate(25.419615 10.377725) scale(0.15 -0.15)">
       <use xlink:href="#CMR17-31" transform="scale(0.996264)"/>
       <use xlink:href="#CMR17-30" transform="translate(45.690477 0) scale(0.996264)"/>
       <use xlink:href="#CMR17-32" transform="translate(91.380954 36.153639) scale(0.697382)"/>
      </g>
     </g>
    </g>
    <g id="ytick_6">
     <g id="line2d_23"/>
    </g>
    <g id="ytick_7">
     <g id="line2d_24"/>
    </g>
    <g id="ytick_8">
     <g id="line2d_25"/>
    </g>
    <g id="ytick_9">
     <g id="line2d_26"/>
    </g>
    <g id="ytick_10">
     <g id="line2d_27"/>
    </g>
    <g id="ytick_11">
     <g id="line2d_28"/>
    </g>
    <g id="ytick_12">
     <g id="line2d_29"/>
    </g>
    <g id="ytick_13">
     <g id="line2d_30"/>
    </g>
    <g id="ytick_14">
     <g id="line2d_31"/>
    </g>
    <g id="ytick_15">
     <g id="line2d_32"/>
    </g>
    <g id="ytick_16">
     <g id="line2d_33"/>
    </g>
    <g id="ytick_17">
     <g id="line2d_34"/>
    </g>
    <g id="ytick_18">
     <g id="line2d_35"/>
    </g>
    <g id="ytick_19">
     <g id="line2d_36"/>
    </g>
    <g id="ytick_20">
     <g id="line2d_37"/>
    </g>
    <g id="ytick_21">
     <g id="line2d_38"/>
    </g>
    <g id="ytick_22">
     <g id="line2d_39"/>
    </g>
    <g id="ytick_23">
     <g id="line2d_40"/>
    </g>
    <g id="ytick_24">
     <g id="line2d_41"/>
    </g>
    <g id="ytick_25">
     <g id="line2d_42"/>
    </g>
    <g id="ytick_26">
     <g id="line2d_43"/>
    </g>
    <g id="ytick_27">
     <g id="line2d_44"/>
    </g>
    <g id="ytick_28">
     <g id="line2d_45"/>
    </g>
    <g id="ytick_29">
     <g id="line2d_46"/>
    </g>
    <g id="ytick_30">
     <g id="line2d_47"/>
    </g>
    <g id="ytick_31">
     <g id="line2d_48"/>
    </g>
    <g id="ytick_32">
     <g id="line2d_49"/>
    </g>
    <g id="ytick_33">
     <g id="line2d_50"/>
    </g>
    <g id="ytick_34">
     <g id="line2d_51"/>
    </g>
    <g id="ytick_35">
     <g id="line2d_52"/>
    </g>
    <g id="ytick_36">
     <g id="line2d_53"/>
    </g>
    <g id="ytick_37">
     <g id="line2d_54"/>
    </g>
    <g id="text_13">
     <!-- Density -->
     <g style="fill: #262626" transform="translate(10.377725 112.674048) rotate(-90) scale(0.15 -0.15)">
      <defs>
       <path id="CMR17-44" d="M 333 4352 
L 333 4186 
C 774 4186 845 4186 845 3900 
L 845 452 
C 845 166 774 166 333 166 
L 333 0 
L 2368 0 
C 3398 0 4224 943 4224 2141 
C 4224 3346 3411 4352 2368 4352 
L 333 4352 
z
M 1523 166 
C 1267 166 1254 197 1254 414 
L 1254 3938 
C 1254 4155 1267 4186 1523 4186 
L 2240 4186 
C 2771 4186 3750 3874 3750 2141 
C 3750 1242 3488 879 3366 707 
C 3213 510 2848 166 2240 166 
L 1523 166 
z
" transform="scale(0.015625)"/>
       <path id="CMR17-65" d="M 2438 1472 
C 2464 1498 2464 1511 2464 1576 
C 2464 2238 2118 2816 1389 2816 
C 710 2816 173 2169 173 1383 
C 173 551 781 -64 1459 -64 
C 2176 -64 2458 607 2458 740 
C 2458 784 2419 784 2406 784 
C 2362 784 2355 771 2330 696 
C 2189 265 1837 51 1504 51 
C 1229 51 954 203 781 480 
C 582 803 582 1176 582 1472 
L 2438 1472 
z
M 589 1568 
C 634 2505 1126 2714 1382 2714 
C 1818 2714 2112 2297 2118 1568 
L 589 1568 
z
" transform="scale(0.015625)"/>
       <path id="CMR17-6e" d="M 2656 1933 
C 2656 2259 2592 2790 1837 2790 
C 1331 2790 1069 2400 973 2144 
L 966 2144 
L 966 2790 
L 211 2720 
L 211 2554 
C 589 2554 646 2515 646 2208 
L 646 428 
C 646 184 621 153 211 153 
L 211 -13 
C 365 0 646 0 813 0 
C 979 0 1267 0 1421 -13 
L 1421 153 
C 1011 153 986 178 986 428 
L 986 1658 
C 986 2247 1344 2688 1792 2688 
C 2266 2688 2317 2266 2317 1958 
L 2317 428 
C 2317 184 2291 153 1882 153 
L 1882 -13 
C 2035 0 2317 0 2483 0 
C 2650 0 2938 0 3091 -13 
L 3091 153 
C 2682 153 2656 178 2656 428 
L 2656 1933 
z
" transform="scale(0.015625)"/>
       <path id="CMR17-73" d="M 1978 2697 
C 1978 2813 1971 2819 1933 2819 
C 1907 2819 1901 2813 1824 2717 
C 1805 2691 1747 2626 1728 2601 
C 1523 2819 1235 2819 1126 2819 
C 416 2819 160 2447 160 2076 
C 160 1498 813 1365 998 1325 
C 1402 1243 1542 1217 1677 1101 
C 1760 1025 1901 884 1901 654 
C 1901 384 1747 38 1158 38 
C 602 38 403 460 288 1021 
C 269 1110 269 1117 218 1117 
C 166 1117 160 1110 160 983 
L 160 63 
C 160 -51 166 -58 205 -58 
C 237 -58 243 -51 275 0 
C 314 57 410 211 448 276 
C 576 103 800 -64 1158 -64 
C 1792 -64 2131 283 2131 784 
C 2131 1112 1958 1285 1875 1362 
C 1683 1561 1459 1606 1190 1657 
C 838 1735 390 1825 390 2217 
C 390 2383 480 2737 1126 2737 
C 1811 2737 1850 2094 1862 1888 
C 1869 1856 1901 1849 1920 1849 
C 1978 1849 1978 1869 1978 1978 
L 1978 2697 
z
" transform="scale(0.015625)"/>
       <path id="CMR17-69" d="M 992 3909 
C 992 4049 877 4170 730 4170 
C 589 4170 467 4056 467 3909 
C 467 3769 582 3648 730 3648 
C 870 3648 992 3763 992 3909 
z
M 243 2706 
L 243 2541 
C 602 2541 653 2502 653 2197 
L 653 427 
C 653 184 627 153 218 153 
L 218 -13 
C 371 0 646 0 806 0 
C 960 0 1222 0 1370 -13 
L 1370 153 
C 992 153 979 191 979 420 
L 979 2776 
L 243 2706 
z
" transform="scale(0.015625)"/>
       <path id="CMR17-74" d="M 966 2560 
L 1862 2560 
L 1862 2725 
L 966 2725 
L 966 3904 
L 851 3904 
C 838 3245 614 2668 70 2668 
L 70 2560 
L 627 2560 
L 627 771 
C 627 650 627 -64 1370 -64 
C 1747 -64 1965 306 1965 777 
L 1965 1140 
L 1850 1140 
L 1850 783 
C 1850 344 1677 51 1408 51 
C 1222 51 966 178 966 758 
L 966 2560 
z
" transform="scale(0.015625)"/>
       <path id="CMR17-79" d="M 2496 2197 
C 2656 2586 2944 2586 3034 2586 
L 3034 2752 
C 2912 2752 2752 2752 2630 2752 
C 2496 2752 2285 2752 2157 2758 
L 2157 2592 
C 2400 2573 2406 2394 2406 2343 
C 2406 2280 2394 2248 2362 2171 
L 1664 449 
L 902 2306 
C 870 2382 870 2426 870 2433 
C 870 2573 1018 2586 1171 2586 
L 1171 2758 
C 1018 2752 742 2752 582 2752 
C 410 2752 205 2752 64 2758 
L 64 2586 
C 410 2586 448 2554 531 2350 
L 1485 15 
C 1197 -738 1030 -1178 627 -1178 
C 557 -1178 397 -1159 282 -1044 
C 429 -1031 493 -942 493 -833 
C 493 -725 416 -629 288 -629 
C 147 -629 77 -725 77 -840 
C 77 -1095 339 -1280 627 -1280 
C 998 -1280 1229 -922 1357 -604 
L 2496 2197 
z
" transform="scale(0.015625)"/>
      </defs>
      <use xlink:href="#CMR17-44" transform="scale(0.996264)"/>
      <use xlink:href="#CMR17-65" transform="translate(70.393556 0) scale(0.996264)"/>
      <use xlink:href="#CMR17-6e" transform="translate(110.879216 0) scale(0.996264)"/>
      <use xlink:href="#CMR17-73" transform="translate(161.774586 0) scale(0.996264)"/>
      <use xlink:href="#CMR17-69" transform="translate(197.575924 0) scale(0.996264)"/>
      <use xlink:href="#CMR17-74" transform="translate(222.446982 0) scale(0.996264)"/>
      <use xlink:href="#CMR17-79" transform="translate(255.125296 0) scale(0.996264)"/>
     </g>
    </g>
   </g>
   <g id="PolyCollection_1">
    <path d="M 66.880372 274.89807 
L 66.880372 41668.348862 
L 67.492805 41668.348862 
L 68.105239 41668.348862 
L 68.717672 41668.348862 
L 69.330105 41668.348862 
L 69.942538 41668.348862 
L 70.554972 41668.348862 
L 71.167405 41668.348862 
L 71.779838 41668.348862 
L 72.392271 41668.348862 
L 73.004704 41668.348862 
L 73.617138 41668.348862 
L 74.229571 41668.348862 
L 74.842004 41668.348862 
L 75.454437 41668.348862 
L 76.066871 41668.348862 
L 76.679304 41668.348862 
L 77.291737 41668.348862 
L 77.90417 41668.348862 
L 78.516603 41668.348862 
L 79.129037 41668.348862 
L 79.74147 41668.348862 
L 80.353903 41668.348862 
L 80.966336 41668.348862 
L 81.57877 41668.348862 
L 82.191203 41668.348862 
L 82.803636 41668.348862 
L 83.416069 41668.348862 
L 84.028502 41668.348862 
L 84.640936 41668.348862 
L 85.253369 41668.348862 
L 85.865802 41668.348862 
L 86.478235 41668.348862 
L 87.090669 41668.348862 
L 87.703102 41668.348862 
L 88.315535 41668.348862 
L 88.927968 41668.348862 
L 89.540402 41668.348862 
L 90.152835 41668.348862 
L 90.765268 41668.348862 
L 91.377701 41668.348862 
L 91.990134 41668.348862 
L 92.602568 41668.348862 
L 93.215001 41668.348862 
L 93.827434 41668.348862 
L 94.439867 41668.348862 
L 95.052301 41668.348862 
L 95.664734 41668.348862 
L 96.277167 41668.348862 
L 96.8896 41668.348862 
L 97.502033 41668.348862 
L 98.114467 41668.348862 
L 98.7269 41668.348862 
L 99.339333 41668.348862 
L 99.951766 41668.348862 
L 100.5642 41668.348862 
L 101.176633 41668.348862 
L 101.789066 41668.348862 
L 102.401499 41668.348862 
L 103.013932 41668.348862 
L 103.626366 41668.348862 
L 104.238799 41668.348862 
L 104.851232 41668.348862 
L 105.463665 41668.348862 
L 106.076099 41668.348862 
L 106.688532 41668.348862 
L 107.300965 41668.348862 
L 107.913398 41668.348862 
L 108.525831 41668.348862 
L 109.138265 41668.348862 
L 109.750698 41668.348862 
L 110.363131 41668.348862 
L 110.975564 41668.348862 
L 111.587998 41668.348862 
L 112.200431 41668.348862 
L 112.812864 41668.348862 
L 113.425297 41668.348862 
L 114.037731 41668.348862 
L 114.650164 41668.348862 
L 115.262597 41668.348862 
L 115.87503 41668.348862 
L 116.487463 41668.348862 
L 117.099897 41668.348862 
L 117.71233 41668.348862 
L 118.324763 41668.348862 
L 118.937196 41668.348862 
L 119.54963 41668.348862 
L 120.162063 41668.348862 
L 120.774496 41668.348862 
L 121.386929 41668.348862 
L 121.999362 41668.348862 
L 122.611796 41668.348862 
L 123.224229 41668.348862 
L 123.836662 41668.348862 
L 124.449095 41668.348862 
L 125.061529 41668.348862 
L 125.673962 41668.348862 
L 126.286395 41668.348862 
L 126.898828 41668.348862 
L 127.511261 41668.348862 
L 128.123695 41668.348862 
L 128.736128 41668.348862 
L 129.348561 41668.348862 
L 129.960994 41668.348862 
L 130.573428 41668.348862 
L 131.185861 41668.348862 
L 131.798294 41668.348862 
L 132.410727 41668.348862 
L 133.023161 41668.348862 
L 133.635594 41668.348862 
L 134.248027 41668.348862 
L 134.86046 41668.348862 
L 135.472893 41668.348862 
L 136.085327 41668.348862 
L 136.69776 41668.348862 
L 137.310193 41668.348862 
L 137.922626 41668.348862 
L 138.53506 41668.348862 
L 139.147493 41668.348862 
L 139.759926 41668.348862 
L 140.372359 41668.348862 
L 140.984792 41668.348862 
L 141.597226 41668.348862 
L 142.209659 41668.348862 
L 142.822092 41668.348862 
L 143.434525 41668.348862 
L 144.046959 41668.348862 
L 144.659392 41668.348862 
L 145.271825 41668.348862 
L 145.884258 41668.348862 
L 146.496691 41668.348862 
L 147.109125 41668.348862 
L 147.721558 41668.348862 
L 148.333991 41668.348862 
L 148.946424 41668.348862 
L 149.558858 41668.348862 
L 150.171291 41668.348862 
L 150.783724 41668.348862 
L 151.396157 41668.348862 
L 152.00859 41668.348862 
L 152.621024 41668.348862 
L 153.233457 41668.348862 
L 153.84589 41668.348862 
L 154.458323 41668.348862 
L 155.070757 41668.348862 
L 155.68319 41668.348862 
L 156.295623 41668.348862 
L 156.908056 41668.348862 
L 157.52049 41668.348862 
L 158.132923 41668.348862 
L 158.745356 41668.348862 
L 159.357789 41668.348862 
L 159.970222 41668.348862 
L 160.582656 41668.348862 
L 161.195089 41668.348862 
L 161.807522 41668.348862 
L 162.419955 41668.348862 
L 163.032389 41668.348862 
L 163.644822 41668.348862 
L 164.257255 41668.348862 
L 164.869688 41668.348862 
L 165.482121 41668.348862 
L 166.094555 41668.348862 
L 166.706988 41668.348862 
L 167.319421 41668.348862 
L 167.931854 41668.348862 
L 168.544288 41668.348862 
L 169.156721 41668.348862 
L 169.769154 41668.348862 
L 170.381587 41668.348862 
L 170.99402 41668.348862 
L 171.606454 41668.348862 
L 172.218887 41668.348862 
L 172.83132 41668.348862 
L 173.443753 41668.348862 
L 174.056187 41668.348862 
L 174.66862 41668.348862 
L 175.281053 41668.348862 
L 175.893486 41668.348862 
L 176.50592 41668.348862 
L 177.118353 41668.348862 
L 177.730786 41668.348862 
L 178.343219 41668.348862 
L 178.955652 41668.348862 
L 179.568086 41668.348862 
L 180.180519 41668.348862 
L 180.792952 41668.348862 
L 181.405385 41668.348862 
L 182.017819 41668.348862 
L 182.630252 41668.348862 
L 183.242685 41668.348862 
L 183.855118 41668.348862 
L 184.467551 41668.348862 
L 185.079985 41668.348862 
L 185.692418 41668.348862 
L 186.304851 41668.348862 
L 186.917284 41668.348862 
L 187.529718 41668.348862 
L 188.142151 41668.348862 
L 188.754584 41668.348862 
L 189.367017 41668.348862 
L 189.97945 41668.348862 
L 190.591884 41668.348862 
L 191.204317 41668.348862 
L 191.81675 41668.348862 
L 192.429183 41668.348862 
L 193.041617 41668.348862 
L 193.65405 41668.348862 
L 194.266483 41668.348862 
L 194.878916 41668.348862 
L 195.491349 41668.348862 
L 196.103783 41668.348862 
L 196.716216 41668.348862 
L 197.328649 41668.348862 
L 197.941082 41668.348862 
L 198.553516 41668.348862 
L 199.165949 41668.348862 
L 199.778382 41668.348862 
L 200.390815 41668.348862 
L 201.003249 41668.348862 
L 201.615682 41668.348862 
L 202.228115 41668.348862 
L 202.840548 41668.348862 
L 203.452981 41668.348862 
L 204.065415 41668.348862 
L 204.677848 41668.348862 
L 205.290281 41668.348862 
L 205.902714 41668.348862 
L 206.515148 41668.348862 
L 207.127581 41668.348862 
L 207.740014 41668.348862 
L 208.352447 41668.348862 
L 208.96488 41668.348862 
L 209.577314 41668.348862 
L 210.189747 41668.348862 
L 210.80218 41668.348862 
L 211.414613 41668.348862 
L 212.027047 41668.348862 
L 212.63948 41668.348862 
L 213.251913 41668.348862 
L 213.864346 41668.348862 
L 214.476779 41668.348862 
L 215.089213 41668.348862 
L 215.701646 41668.348862 
L 216.314079 41668.348862 
L 216.926512 41668.348862 
L 217.538946 41668.348862 
L 218.151379 41668.348862 
L 218.763812 41668.348862 
L 219.376245 41668.348862 
L 219.988678 41668.348862 
L 220.601112 41668.348862 
L 221.213545 41668.348862 
L 221.825978 41668.348862 
L 222.438411 41668.348862 
L 223.050845 41668.348862 
L 223.663278 41668.348862 
L 224.275711 41668.348862 
L 224.888144 41668.348862 
L 225.500578 41668.348862 
L 226.113011 41668.348862 
L 226.725444 41668.348862 
L 227.337877 41668.348862 
L 227.95031 41668.348862 
L 228.562744 41668.348862 
L 229.175177 41668.348862 
L 229.78761 41668.348862 
L 230.400043 41668.348862 
L 231.012477 41668.348862 
L 231.62491 41668.348862 
L 232.237343 41668.348862 
L 232.849776 41668.348862 
L 233.462209 41668.348862 
L 234.074643 41668.348862 
L 234.687076 41668.348862 
L 235.299509 41668.348862 
L 235.911942 41668.348862 
L 236.524376 41668.348862 
L 237.136809 41668.348862 
L 237.749242 41668.348862 
L 238.361675 41668.348862 
L 238.974108 41668.348862 
L 239.586542 41668.348862 
L 240.198975 41668.348862 
L 240.811408 41668.348862 
L 241.423841 41668.348862 
L 242.036275 41668.348862 
L 242.648708 41668.348862 
L 243.261141 41668.348862 
L 243.873574 41668.348862 
L 244.486008 41668.348862 
L 245.098441 41668.348862 
L 245.710874 41668.348862 
L 246.323307 41668.348862 
L 246.93574 41668.348862 
L 247.548174 41668.348862 
L 248.160607 41668.348862 
L 248.77304 41668.348862 
L 249.385473 41668.348862 
L 249.997907 41668.348862 
L 250.61034 41668.348862 
L 251.222773 41668.348862 
L 251.835206 41668.348862 
L 252.447639 41668.348862 
L 253.060073 41668.348862 
L 253.672506 41668.348862 
L 254.284939 41668.348862 
L 254.897372 41668.348862 
L 255.509806 41668.348862 
L 256.122239 41668.348862 
L 256.734672 41668.348862 
L 257.347105 41668.348862 
L 257.959538 41668.348862 
L 258.571972 41668.348862 
L 259.184405 41668.348862 
L 259.796838 41668.348862 
L 260.409271 41668.348862 
L 261.021705 41668.348862 
L 261.634138 41668.348862 
L 262.246571 41668.348862 
L 262.859004 41668.348862 
L 263.471437 41668.348862 
L 264.083871 41668.348862 
L 264.696304 41668.348862 
L 265.308737 41668.348862 
L 265.92117 41668.348862 
L 266.533604 41668.348862 
L 267.146037 41668.348862 
L 267.75847 41668.348862 
L 268.370903 41668.348862 
L 268.983337 41668.348862 
L 269.59577 41668.348862 
L 270.208203 41668.348862 
L 270.820636 41668.348862 
L 271.433069 41668.348862 
L 272.045503 41668.348862 
L 272.657936 41668.348862 
L 273.270369 41668.348862 
L 273.882802 41668.348862 
L 274.495236 41668.348862 
L 275.107669 41668.348862 
L 275.720102 41668.348862 
L 276.332535 41668.348862 
L 276.944968 41668.348862 
L 277.557402 41668.348862 
L 278.169835 41668.348862 
L 278.782268 41668.348862 
L 279.394701 41668.348862 
L 280.007135 41668.348862 
L 280.619568 41668.348862 
L 281.232001 41668.348862 
L 281.844434 41668.348862 
L 282.456867 41668.348862 
L 283.069301 41668.348862 
L 283.681734 41668.348862 
L 284.294167 41668.348862 
L 284.9066 41668.348862 
L 285.519034 41668.348862 
L 286.131467 41668.348862 
L 286.7439 41668.348862 
L 287.356333 41668.348862 
L 287.968767 41668.348862 
L 288.5812 41668.348862 
L 289.193633 41668.348862 
L 289.806066 41668.348862 
L 290.418499 41668.348862 
L 291.030933 41668.348862 
L 291.643366 41668.348862 
L 292.255799 41668.348862 
L 292.868232 41668.348862 
L 293.480666 41668.348862 
L 294.093099 41668.348862 
L 294.705532 41668.348862 
L 295.317965 41668.348862 
L 295.930398 41668.348862 
L 296.542832 41668.348862 
L 297.155265 41668.348862 
L 297.767698 41668.348862 
L 298.380131 41668.348862 
L 298.992565 41668.348862 
L 299.604998 41668.348862 
L 300.217431 41668.348862 
L 300.829864 41668.348862 
L 301.442297 41668.348862 
L 302.054731 41668.348862 
L 302.667164 41668.348862 
L 303.279597 41668.348862 
L 303.89203 41668.348862 
L 304.504464 41668.348862 
L 305.116897 41668.348862 
L 305.72933 41668.348862 
L 306.341763 41668.348862 
L 306.954196 41668.348862 
L 307.56663 41668.348862 
L 308.179063 41668.348862 
L 308.791496 41668.348862 
L 309.403929 41668.348862 
L 310.016363 41668.348862 
L 310.628796 41668.348862 
L 311.241229 41668.348862 
L 311.853662 41668.348862 
L 312.466096 41668.348862 
L 313.078529 41668.348862 
L 313.690962 41668.348862 
L 314.303395 41668.348862 
L 314.915828 41668.348862 
L 315.528262 41668.348862 
L 316.140695 41668.348862 
L 316.753128 41668.348862 
L 317.365561 41668.348862 
L 317.977995 41668.348862 
L 318.590428 41668.348862 
L 319.202861 41668.348862 
L 319.815294 41668.348862 
L 320.427727 41668.348862 
L 321.040161 41668.348862 
L 321.652594 41668.348862 
L 322.265027 41668.348862 
L 322.87746 41668.348862 
L 323.489894 41668.348862 
L 324.102327 41668.348862 
L 324.71476 41668.348862 
L 325.327193 41668.348862 
L 325.939626 41668.348862 
L 326.55206 41668.348862 
L 327.164493 41668.348862 
L 327.776926 41668.348862 
L 328.389359 41668.348862 
L 329.001793 41668.348862 
L 329.614226 41668.348862 
L 330.226659 41668.348862 
L 330.839092 41668.348862 
L 331.451525 41668.348862 
L 332.063959 41668.348862 
L 332.676392 41668.348862 
L 333.288825 41668.348862 
L 333.901258 41668.348862 
L 334.513692 41668.348862 
L 335.126125 41668.348862 
L 335.738558 41668.348862 
L 336.350991 41668.348862 
L 336.963425 41668.348862 
L 337.575858 41668.348862 
L 338.188291 41668.348862 
L 338.800724 41668.348862 
L 339.413157 41668.348862 
L 340.025591 41668.348862 
L 340.638024 41668.348862 
L 341.250457 41668.348862 
L 341.86289 41668.348862 
L 342.475324 41668.348862 
L 343.087757 41668.348862 
L 343.70019 41668.348862 
L 344.312623 41668.348862 
L 344.925056 41668.348862 
L 345.53749 41668.348862 
L 346.149923 41668.348862 
L 346.762356 41668.348862 
L 347.374789 41668.348862 
L 347.987223 41668.348862 
L 348.599656 41668.348862 
L 349.212089 41668.348862 
L 349.824522 41668.348862 
L 350.436955 41668.348862 
L 351.049389 41668.348862 
L 351.661822 41668.348862 
L 352.274255 41668.348862 
L 352.886688 41668.348862 
L 353.499122 41668.348862 
L 354.111555 41668.348862 
L 354.723988 41668.348862 
L 355.336421 41668.348862 
L 355.948855 41668.348862 
L 356.561288 41668.348862 
L 357.173721 41668.348862 
L 357.786154 41668.348862 
L 358.398587 41668.348862 
L 359.011021 41668.348862 
L 359.623454 41668.348862 
L 360.235887 41668.348862 
L 360.84832 41668.348862 
L 361.460754 41668.348862 
L 362.073187 41668.348862 
L 362.68562 41668.348862 
L 363.298053 41668.348862 
L 363.910486 41668.348862 
L 364.52292 41668.348862 
L 365.135353 41668.348862 
L 365.747786 41668.348862 
L 366.360219 41668.348862 
L 366.972653 41668.348862 
L 367.585086 41668.348862 
L 368.197519 41668.348862 
L 368.809952 41668.348862 
L 369.422385 41668.348862 
L 370.034819 41668.348862 
L 370.647252 41668.348862 
L 371.259685 41668.348862 
L 371.872118 41668.348862 
L 372.484552 41668.348862 
L 372.484552 274.89807 
L 372.484552 274.89807 
L 371.872118 193.650206 
L 371.259685 270.842441 
L 370.647252 506.474776 
L 370.034819 865.258501 
L 369.422385 484.962905 
L 368.809952 260.348562 
L 368.197519 194.174319 
L 367.585086 286.434023 
L 366.972653 229.700361 
L 366.360219 177.861913 
L 365.747786 183.852078 
L 365.135353 184.333313 
L 364.52292 202.09511 
L 363.910486 181.952591 
L 363.298053 191.31814 
L 362.68562 169.36755 
L 362.073187 166.753516 
L 361.460754 171.026513 
L 360.84832 175.354787 
L 360.235887 173.174072 
L 359.623454 179.392127 
L 359.011021 168.310539 
L 358.398587 173.307081 
L 357.786154 171.43673 
L 357.173721 153.828412 
L 356.561288 165.019046 
L 355.948855 163.02119 
L 355.336421 161.944013 
L 354.723988 178.056469 
L 354.111555 164.169516 
L 353.499122 151.184861 
L 352.886688 164.657184 
L 352.274255 163.532897 
L 351.661822 160.850044 
L 351.049389 166.199326 
L 350.436955 150.234091 
L 349.824522 154.430332 
L 349.212089 156.7877 
L 348.599656 153.373736 
L 347.987223 163.722703 
L 347.374789 157.442417 
L 346.762356 154.386783 
L 346.149923 167.878734 
L 345.53749 150.382428 
L 344.925056 154.53411 
L 344.312623 159.28668 
L 343.70019 154.070159 
L 343.087757 160.463184 
L 342.475324 155.848035 
L 341.86289 158.080138 
L 341.250457 160.577335 
L 340.638024 158.302494 
L 340.025591 161.400753 
L 339.413157 159.488131 
L 338.800724 153.952839 
L 338.188291 169.922281 
L 337.575858 152.463445 
L 336.963425 148.668033 
L 336.350991 164.967147 
L 335.738558 153.669223 
L 335.126125 159.038437 
L 334.513692 149.24738 
L 333.901258 148.554447 
L 333.288825 154.218872 
L 332.676392 149.597377 
L 332.063959 154.303364 
L 331.451525 157.210522 
L 330.839092 154.309927 
L 330.226659 158.180433 
L 329.614226 158.65993 
L 329.001793 152.831342 
L 328.389359 153.418517 
L 327.776926 161.325266 
L 327.164493 158.267121 
L 326.55206 153.734621 
L 325.939626 164.580682 
L 325.327193 150.603286 
L 324.71476 149.294936 
L 324.102327 153.190643 
L 323.489894 152.762969 
L 322.87746 159.484602 
L 322.265027 156.626159 
L 321.652594 158.193517 
L 321.040161 153.459055 
L 320.427727 153.598496 
L 319.815294 149.11785 
L 319.202861 157.519409 
L 318.590428 150.098632 
L 317.977995 151.096164 
L 317.365561 149.362891 
L 316.753128 156.482862 
L 316.140695 160.906162 
L 315.528262 154.235081 
L 314.915828 149.883134 
L 314.303395 147.642219 
L 313.690962 147.573756 
L 313.078529 151.41617 
L 312.466096 163.428173 
L 311.853662 152.676596 
L 311.241229 150.888485 
L 310.628796 162.955723 
L 310.016363 149.996416 
L 309.403929 152.605095 
L 308.791496 151.912151 
L 308.179063 152.07746 
L 307.56663 156.823845 
L 306.954196 151.233652 
L 306.341763 151.31612 
L 305.72933 149.822077 
L 305.116897 162.481785 
L 304.504464 148.036052 
L 303.89203 150.145492 
L 303.279597 154.97206 
L 302.667164 159.794117 
L 302.054731 148.244231 
L 301.442297 146.630754 
L 300.829864 146.573817 
L 300.217431 156.919517 
L 299.604998 149.899016 
L 298.992565 153.176254 
L 298.380131 148.188327 
L 297.767698 156.253811 
L 297.155265 162.48512 
L 296.542832 142.676402 
L 295.930398 145.431519 
L 295.317965 150.446014 
L 294.705532 152.643191 
L 294.093099 150.786669 
L 293.480666 143.369048 
L 292.868232 149.115848 
L 292.255799 148.776595 
L 291.643366 146.434574 
L 291.030933 145.134707 
L 290.418499 154.900042 
L 289.806066 145.24993 
L 289.193633 146.707073 
L 288.5812 146.630515 
L 287.968767 159.751781 
L 287.356333 153.987275 
L 286.7439 150.215212 
L 286.131467 145.870202 
L 285.519034 146.238228 
L 284.9066 149.338441 
L 284.294167 150.927494 
L 283.681734 148.230175 
L 283.069301 145.041159 
L 282.456867 148.000586 
L 281.844434 147.950228 
L 281.232001 139.763245 
L 280.619568 145.67473 
L 280.007135 141.537669 
L 279.394701 142.610738 
L 278.782268 140.803488 
L 278.169835 162.580774 
L 277.557402 146.198545 
L 276.944968 142.352885 
L 276.332535 148.5267 
L 275.720102 145.995458 
L 275.107669 148.793881 
L 274.495236 146.616473 
L 273.882802 142.484066 
L 273.270369 143.696243 
L 272.657936 143.032264 
L 272.045503 137.610844 
L 271.433069 145.996384 
L 270.820636 138.314738 
L 270.208203 146.409567 
L 269.59577 151.012841 
L 268.983337 141.553282 
L 268.370903 147.896267 
L 267.75847 143.671981 
L 267.146037 135.087141 
L 266.533604 140.737152 
L 265.92117 135.246289 
L 265.308737 136.981043 
L 264.696304 135.023723 
L 264.083871 143.931172 
L 263.471437 145.202633 
L 262.859004 143.536666 
L 262.246571 143.585714 
L 261.634138 140.949419 
L 261.021705 143.198624 
L 260.409271 144.329903 
L 259.796838 137.956615 
L 259.184405 140.940638 
L 258.571972 150.618585 
L 257.959538 144.934506 
L 257.347105 143.683784 
L 256.734672 144.664421 
L 256.122239 152.218109 
L 255.509806 143.604028 
L 254.897372 134.805777 
L 254.284939 137.029508 
L 253.672506 136.657194 
L 253.060073 136.71567 
L 252.447639 139.997135 
L 251.835206 133.975364 
L 251.222773 141.215274 
L 250.61034 134.526671 
L 249.997907 137.052284 
L 249.385473 137.657742 
L 248.77304 140.709543 
L 248.160607 142.265135 
L 247.548174 137.24106 
L 246.93574 148.609532 
L 246.323307 143.120194 
L 245.710874 139.935137 
L 245.098441 141.207046 
L 244.486008 136.819412 
L 243.873574 144.174951 
L 243.261141 138.961292 
L 242.648708 131.417283 
L 242.036275 141.596718 
L 241.423841 139.788437 
L 240.811408 134.003964 
L 240.198975 136.731297 
L 239.586542 133.446375 
L 238.974108 130.879692 
L 238.361675 131.667249 
L 237.749242 133.546151 
L 237.136809 131.895789 
L 236.524376 132.382966 
L 235.911942 133.095614 
L 235.299509 135.55826 
L 234.687076 135.596036 
L 234.074643 137.717969 
L 233.462209 137.220377 
L 232.849776 137.710139 
L 232.237343 141.585439 
L 231.62491 139.570462 
L 231.012477 136.553031 
L 230.400043 138.578808 
L 229.78761 141.044467 
L 229.175177 139.562431 
L 228.562744 137.502357 
L 227.95031 131.875168 
L 227.337877 129.625476 
L 226.725444 132.231489 
L 226.113011 130.710984 
L 225.500578 126.094468 
L 224.888144 129.346665 
L 224.275711 127.648875 
L 223.663278 125.321286 
L 223.050845 125.89658 
L 222.438411 128.042532 
L 221.825978 128.581004 
L 221.213545 124.590928 
L 220.601112 130.267358 
L 219.988678 133.95017 
L 219.376245 128.483016 
L 218.763812 130.636239 
L 218.151379 133.471588 
L 217.538946 135.375539 
L 216.926512 133.300466 
L 216.314079 136.935501 
L 215.701646 133.7833 
L 215.089213 135.053037 
L 214.476779 132.778456 
L 213.864346 133.024159 
L 213.251913 129.691661 
L 212.63948 127.50141 
L 212.027047 128.558824 
L 211.414613 130.432299 
L 210.80218 122.962628 
L 210.189747 122.084279 
L 209.577314 123.268131 
L 208.96488 121.501191 
L 208.352447 117.146255 
L 207.740014 119.628583 
L 207.127581 119.080249 
L 206.515148 118.973487 
L 205.902714 118.18277 
L 205.290281 122.275501 
L 204.677848 117.772355 
L 204.065415 119.15116 
L 203.452981 123.808448 
L 202.840548 123.818303 
L 202.228115 128.113909 
L 201.615682 125.463037 
L 201.003249 127.914053 
L 200.390815 134.418382 
L 199.778382 128.834557 
L 199.165949 131.162834 
L 198.553516 129.374376 
L 197.941082 130.279681 
L 197.328649 133.456505 
L 196.716216 130.841013 
L 196.103783 128.324002 
L 195.491349 124.047051 
L 194.878916 119.655353 
L 194.266483 115.848815 
L 193.65405 112.465495 
L 193.041617 110.426713 
L 192.429183 109.601173 
L 191.81675 106.388943 
L 191.204317 105.405346 
L 190.591884 101.624382 
L 189.97945 103.747797 
L 189.367017 104.615702 
L 188.754584 105.957169 
L 188.142151 105.931086 
L 187.529718 106.35669 
L 186.917284 109.490935 
L 186.304851 109.426895 
L 185.692418 112.335435 
L 185.079985 113.44635 
L 184.467551 112.626672 
L 183.855118 116.434654 
L 183.242685 117.295182 
L 182.630252 117.602392 
L 182.017819 117.029103 
L 181.405385 120.777833 
L 180.792952 121.650283 
L 180.180519 122.754338 
L 179.568086 124.094362 
L 178.955652 118.486254 
L 178.343219 117.662472 
L 177.730786 113.752748 
L 177.118353 113.069273 
L 176.50592 108.220143 
L 175.893486 102.14103 
L 175.281053 99.99316 
L 174.66862 96.444938 
L 174.056187 91.411553 
L 173.443753 87.804313 
L 172.83132 86.940069 
L 172.218887 83.759574 
L 171.606454 82.066638 
L 170.99402 81.226135 
L 170.381587 80.206384 
L 169.769154 80.523706 
L 169.156721 82.612232 
L 168.544288 83.103204 
L 167.931854 84.494527 
L 167.319421 85.490248 
L 166.706988 88.656668 
L 166.094555 89.951206 
L 165.482121 91.611649 
L 164.869688 95.31243 
L 164.257255 97.728706 
L 163.644822 95.554922 
L 163.032389 101.969372 
L 162.419955 102.261875 
L 161.807522 104.464983 
L 161.195089 106.221225 
L 160.582656 108.283306 
L 159.970222 108.724481 
L 159.357789 107.547322 
L 158.745356 105.170017 
L 158.132923 106.72792 
L 157.52049 103.925843 
L 156.908056 101.33611 
L 156.295623 97.248348 
L 155.68319 92.283413 
L 155.070757 88.435091 
L 154.458323 82.570555 
L 153.84589 77.679796 
L 153.233457 73.058848 
L 152.621024 68.894489 
L 152.00859 65.631597 
L 151.396157 61.976259 
L 150.783724 59.299048 
L 150.171291 57.848952 
L 149.558858 56.292866 
L 148.946424 54.814169 
L 148.333991 54.462965 
L 147.721558 54.469867 
L 147.109125 55.495324 
L 146.496691 56.450497 
L 145.884258 57.86214 
L 145.271825 59.804121 
L 144.659392 61.942857 
L 144.046959 64.981821 
L 143.434525 68.031572 
L 142.822092 70.809225 
L 142.209659 72.568798 
L 141.597226 75.342706 
L 140.984792 79.516329 
L 140.372359 80.967511 
L 139.759926 82.966631 
L 139.147493 85.70393 
L 138.53506 87.242337 
L 137.922626 88.590078 
L 137.310193 89.319704 
L 136.69776 89.564679 
L 136.085327 89.791124 
L 135.472893 89.983108 
L 134.86046 86.806183 
L 134.248027 84.321097 
L 133.635594 80.576172 
L 133.023161 76.793678 
L 132.410727 71.317641 
L 131.798294 64.555362 
L 131.185861 60.40422 
L 130.573428 56.018761 
L 129.960994 50.703994 
L 129.348561 46.289237 
L 128.736128 42.687558 
L 128.123695 39.585127 
L 127.511261 37.418982 
L 126.898828 35.283705 
L 126.286395 34.493928 
L 125.673962 33.487923 
L 125.061529 33.332464 
L 124.449095 33.694076 
L 123.836662 34.3827 
L 123.224229 35.771202 
L 122.611796 37.38696 
L 121.999362 39.762177 
L 121.386929 42.90979 
L 120.774496 45.152298 
L 120.162063 48.554533 
L 119.54963 51.623991 
L 118.937196 55.4386 
L 118.324763 59.135471 
L 117.71233 61.891402 
L 117.099897 64.665862 
L 116.487463 69.093283 
L 115.87503 71.200159 
L 115.262597 74.23622 
L 114.650164 76.38367 
L 114.037731 80.126357 
L 113.425297 81.808824 
L 112.812864 82.63199 
L 112.200431 85.522055 
L 111.587998 87.628263 
L 110.975564 90.277662 
L 110.363131 90.315859 
L 109.750698 92.332311 
L 109.138265 94.93795 
L 108.525831 96.151127 
L 107.913398 100.533053 
L 107.300965 100.349723 
L 106.688532 103.628932 
L 106.076099 105.348785 
L 105.463665 106.183821 
L 104.851232 107.491919 
L 104.238799 113.200459 
L 103.626366 112.643821 
L 103.013932 113.607395 
L 102.401499 116.495978 
L 101.789066 115.259945 
L 101.176633 117.695575 
L 100.5642 123.866932 
L 99.951766 122.050447 
L 99.339333 126.108999 
L 98.7269 128.528059 
L 98.114467 128.604955 
L 97.502033 128.164007 
L 96.8896 131.29572 
L 96.277167 131.94295 
L 95.664734 138.089107 
L 95.052301 139.849803 
L 94.439867 143.629109 
L 93.827434 147.915432 
L 93.215001 142.464254 
L 92.602568 138.281573 
L 91.990134 147.492901 
L 91.377701 156.56675 
L 90.765268 153.939241 
L 90.152835 151.845718 
L 89.540402 160.727896 
L 88.927968 170.879838 
L 88.315535 166.940162 
L 87.703102 177.747346 
L 87.090669 176.080755 
L 86.478235 198.989581 
L 85.865802 163.215853 
L 85.253369 178.396909 
L 84.640936 208.19388 
L 84.028502 189.123866 
L 83.416069 183.684192 
L 82.803636 193.198755 
L 82.191203 203.246856 
L 81.57877 255.303016 
L 80.966336 191.385185 
L 80.353903 200.23254 
L 79.74147 198.854604 
L 79.129037 205.299973 
L 78.516603 203.225167 
L 77.90417 227.303474 
L 77.291737 211.048361 
L 76.679304 184.507144 
L 76.066871 216.083217 
L 75.454437 385.746505 
L 74.842004 467.510127 
L 74.229571 252.137421 
L 73.617138 195.20479 
L 73.004704 296.712028 
L 72.392271 267.725824 
L 71.779838 193.723132 
L 71.167405 278.160536 
L 70.554972 521.03804 
L 69.942538 922.355643 
L 69.330105 900.547209 
L 68.717672 506.474776 
L 68.105239 270.842441 
L 67.492805 193.650206 
L 66.880372 274.89807 
z
" clip-path="url(#paeee4a515e)" style="fill: #4c72b0; fill-opacity: 0.25; stroke: #4c72b0; stroke-width: 0.3"/>
   </g>
   <g id="patch_3">
    <path d="M 52.282462 171.508862 
L 52.282462 5.188862 
" style="fill: none"/>
   </g>
   <g id="patch_4">
    <path d="M 387.082462 171.508862 
L 387.082462 5.188862 
" style="fill: none"/>
   </g>
   <g id="patch_5">
    <path d="M 52.282462 171.508862 
L 387.082462 171.508862 
" style="fill: none"/>
   </g>
   <g id="patch_6">
    <path d="M 52.282462 5.188862 
L 387.082462 5.188862 
" style="fill: none"/>
   </g>
   <g id="text_14">
    <!-- PCA 1D -->
    <g style="fill: #262626" transform="translate(300.262841 22.007411) scale(0.15 -0.15)">
     <defs>
      <path id="CMR17-50" d="M 1267 2042 
L 2291 2042 
C 3117 2042 3718 2578 3718 3184 
C 3718 3791 3130 4352 2291 4352 
L 333 4352 
L 333 4186 
C 774 4186 845 4186 845 3899 
L 845 446 
C 845 160 774 160 333 160 
L 333 0 
C 518 0 858 0 1056 0 
C 1254 0 1594 0 1779 0 
L 1779 160 
C 1338 160 1267 160 1267 446 
L 1267 2042 
z
M 1254 2176 
L 1254 3938 
C 1254 4155 1267 4186 1523 4186 
L 2170 4186 
C 2995 4186 3232 3714 3232 3184 
C 3232 2604 2950 2176 2170 2176 
L 1254 2176 
z
" transform="scale(0.015625)"/>
      <path id="CMR17-43" d="M 3974 4289 
C 3974 4403 3968 4410 3930 4410 
C 3904 4410 3898 4403 3853 4327 
L 3571 3792 
C 3258 4187 2874 4416 2381 4416 
C 1286 4416 294 3456 294 2148 
C 294 826 1286 -128 2387 -128 
C 3366 -128 3974 730 3974 1461 
C 3974 1524 3974 1550 3917 1550 
C 3866 1550 3866 1531 3859 1474 
C 3808 585 3168 38 2477 38 
C 1824 38 781 495 781 2147 
C 781 3805 1843 4250 2464 4250 
C 3187 4250 3712 3628 3834 2745 
C 3846 2668 3846 2655 3904 2655 
C 3974 2655 3974 2668 3974 2783 
L 3974 4289 
z
" transform="scale(0.015625)"/>
      <path id="CMR17-41" d="M 2323 4378 
C 2291 4461 2278 4480 2214 4480 
C 2150 4480 2138 4461 2106 4378 
L 749 566 
C 627 223 371 153 147 153 
L 147 -13 
C 262 0 518 0 640 0 
C 800 0 1056 0 1210 -13 
L 1210 153 
C 909 153 864 361 864 439 
C 864 497 877 530 890 569 
L 1229 1536 
L 2906 1536 
L 3290 442 
C 3322 365 3322 352 3322 327 
C 3322 153 3046 153 2925 153 
L 2925 0 
C 3110 0 3443 0 3642 0 
C 3808 0 4128 0 4282 -13 
L 4282 153 
C 3942 153 3827 153 3744 387 
L 2323 4378 
z
M 2067 3893 
L 2848 1702 
L 1286 1702 
L 2067 3893 
z
" transform="scale(0.015625)"/>
     </defs>
     <use xlink:href="#CMR17-50" transform="scale(0.996264)"/>
     <use xlink:href="#CMR17-43" transform="translate(62.586301 0) scale(0.996264)"/>
     <use xlink:href="#CMR17-41" transform="translate(129.096181 0) scale(0.996264)"/>
     <use xlink:href="#CMR17-31" transform="translate(228.244577 0) scale(0.996264)"/>
     <use xlink:href="#CMR17-44" transform="translate(273.935054 0) scale(0.996264)"/>
    </g>
   </g>
  </g>
 </g>
 <defs>
  <clipPath id="paeee4a515e">
   <rect x="52.282462" y="5.188862" width="334.8" height="166.32"/>
  </clipPath>
 </defs>
</svg>
