<?xml version="1.0" encoding="utf-8" standalone="no"?>
<!DOCTYPE svg PUBLIC "-//W3C//DTD SVG 1.1//EN"
  "http://www.w3.org/Graphics/SVG/1.1/DTD/svg11.dtd">
<svg xmlns:xlink="http://www.w3.org/1999/xlink" width="387.082462pt" height="181.355801pt" viewBox="0 0 387.082462 181.355801" xmlns="http://www.w3.org/2000/svg" version="1.1">
 <metadata>
  <rdf:RDF xmlns:dc="http://purl.org/dc/elements/1.1/" xmlns:cc="http://creativecommons.org/ns#" xmlns:rdf="http://www.w3.org/1999/02/22-rdf-syntax-ns#">
   <cc:Work>
    <dc:type rdf:resource="http://purl.org/dc/dcmitype/StillImage"/>
    <dc:date>2024-11-11T11:30:38.555182</dc:date>
    <dc:format>image/svg+xml</dc:format>
    <dc:creator>
     <cc:Agent>
      <dc:title>Matplotlib v3.9.2, https://matplotlib.org/</dc:title>
     </cc:Agent>
    </dc:creator>
   </cc:Work>
  </rdf:RDF>
 </metadata>
 <defs>
  <style type="text/css">*{stroke-linejoin: round; stroke-linecap: butt}</style>
 </defs>
 <g id="figure_1">
  <g id="patch_1">
   <path d="M 0 181.355801 
L 387.082462 181.355801 
L 387.082462 0 
L 0 0 
z
" style="fill: #ffffff"/>
  </g>
  <g id="axes_1">
   <g id="patch_2">
    <path d="M 52.282462 143.788862 
L 387.082462 143.788862 
L 387.082462 5.188862 
L 52.282462 5.188862 
z
" style="fill: #eaeaf2"/>
   </g>
   <g id="matplotlib.axis_1">
    <g id="xtick_1">
     <g id="line2d_1">
      <path d="M 67.500644 143.788862 
L 67.500644 5.188862 
" clip-path="url(#p3f6ac22759)" style="fill: none; stroke: #ffffff; stroke-linecap: round"/>
     </g>
     <g id="line2d_2"/>
     <g id="text_1">
      <!-- $\mathdefault{0.0}$ -->
      <g style="fill: #262626" transform="translate(58.152118 161.166587) scale(0.15 -0.15)">
       <defs>
        <path id="CMR17-30" d="M 2688 2025 
C 2688 2416 2682 3080 2413 3591 
C 2176 4039 1798 4198 1466 4198 
C 1158 4198 768 4058 525 3597 
C 269 3118 243 2524 243 2025 
C 243 1661 250 1106 448 619 
C 723 -39 1216 -128 1466 -128 
C 1760 -128 2208 -7 2470 600 
C 2662 1042 2688 1559 2688 2025 
z
M 1466 -26 
C 1056 -26 813 325 723 812 
C 653 1188 653 1738 653 2096 
C 653 2588 653 2997 736 3387 
C 858 3929 1216 4096 1466 4096 
C 1728 4096 2067 3923 2189 3400 
C 2272 3036 2278 2607 2278 2096 
C 2278 1680 2278 1169 2202 792 
C 2067 95 1690 -26 1466 -26 
z
" transform="scale(0.015625)"/>
        <path id="CMMI12-3a" d="M 1178 307 
C 1178 492 1024 619 870 619 
C 685 619 557 466 557 313 
C 557 128 710 0 864 0 
C 1050 0 1178 153 1178 307 
z
" transform="scale(0.015625)"/>
       </defs>
       <use xlink:href="#CMR17-30" transform="scale(0.996264)"/>
       <use xlink:href="#CMMI12-3a" transform="translate(45.690477 0) scale(0.996264)"/>
       <use xlink:href="#CMR17-30" transform="translate(72.787654 0) scale(0.996264)"/>
      </g>
     </g>
    </g>
    <g id="xtick_2">
     <g id="line2d_3">
      <path d="M 128.373371 143.788862 
L 128.373371 5.188862 
" clip-path="url(#p3f6ac22759)" style="fill: none; stroke: #ffffff; stroke-linecap: round"/>
     </g>
     <g id="line2d_4"/>
     <g id="text_2">
      <!-- $\mathdefault{0.2}$ -->
      <g style="fill: #262626" transform="translate(119.024845 161.166587) scale(0.15 -0.15)">
       <defs>
        <path id="CMR17-32" d="M 2669 989 
L 2554 989 
C 2490 536 2438 459 2413 420 
C 2381 369 1920 369 1830 369 
L 602 369 
C 832 619 1280 1072 1824 1597 
C 2214 1967 2669 2402 2669 3035 
C 2669 3790 2067 4224 1395 4224 
C 691 4224 262 3604 262 3030 
C 262 2780 448 2748 525 2748 
C 589 2748 781 2787 781 3010 
C 781 3207 614 3264 525 3264 
C 486 3264 448 3258 422 3245 
C 544 3790 915 4058 1306 4058 
C 1862 4058 2227 3617 2227 3035 
C 2227 2479 1901 2000 1536 1584 
L 262 146 
L 262 0 
L 2515 0 
L 2669 989 
z
" transform="scale(0.015625)"/>
       </defs>
       <use xlink:href="#CMR17-30" transform="scale(0.996264)"/>
       <use xlink:href="#CMMI12-3a" transform="translate(45.690477 0) scale(0.996264)"/>
       <use xlink:href="#CMR17-32" transform="translate(72.787654 0) scale(0.996264)"/>
      </g>
     </g>
    </g>
    <g id="xtick_3">
     <g id="line2d_5">
      <path d="M 189.246098 143.788862 
L 189.246098 5.188862 
" clip-path="url(#p3f6ac22759)" style="fill: none; stroke: #ffffff; stroke-linecap: round"/>
     </g>
     <g id="line2d_6"/>
     <g id="text_3">
      <!-- $\mathdefault{0.4}$ -->
      <g style="fill: #262626" transform="translate(179.897572 161.166587) scale(0.15 -0.15)">
       <defs>
        <path id="CMR17-34" d="M 2150 4122 
C 2150 4256 2144 4256 2029 4256 
L 128 1254 
L 128 1088 
L 1779 1088 
L 1779 457 
C 1779 224 1766 160 1318 160 
L 1197 160 
L 1197 0 
C 1402 0 1747 0 1965 0 
C 2182 0 2528 0 2733 0 
L 2733 160 
L 2611 160 
C 2163 160 2150 224 2150 457 
L 2150 1088 
L 2803 1088 
L 2803 1254 
L 2150 1254 
L 2150 4122 
z
M 1798 3703 
L 1798 1254 
L 256 1254 
L 1798 3703 
z
" transform="scale(0.015625)"/>
       </defs>
       <use xlink:href="#CMR17-30" transform="scale(0.996264)"/>
       <use xlink:href="#CMMI12-3a" transform="translate(45.690477 0) scale(0.996264)"/>
       <use xlink:href="#CMR17-34" transform="translate(72.787654 0) scale(0.996264)"/>
      </g>
     </g>
    </g>
    <g id="xtick_4">
     <g id="line2d_7">
      <path d="M 250.118826 143.788862 
L 250.118826 5.188862 
" clip-path="url(#p3f6ac22759)" style="fill: none; stroke: #ffffff; stroke-linecap: round"/>
     </g>
     <g id="line2d_8"/>
     <g id="text_4">
      <!-- $\mathdefault{0.6}$ -->
      <g style="fill: #262626" transform="translate(240.770299 161.166587) scale(0.15 -0.15)">
       <defs>
        <path id="CMR17-36" d="M 678 2176 
C 678 3690 1395 4032 1811 4032 
C 1946 4032 2272 4009 2400 3776 
C 2298 3776 2106 3776 2106 3553 
C 2106 3381 2246 3323 2336 3323 
C 2394 3323 2566 3348 2566 3560 
C 2566 3954 2246 4179 1805 4179 
C 1043 4179 243 3390 243 1984 
C 243 253 966 -128 1478 -128 
C 2099 -128 2688 427 2688 1283 
C 2688 2081 2170 2662 1517 2662 
C 1126 2662 838 2407 678 1960 
L 678 2176 
z
M 1478 25 
C 691 25 691 1200 691 1436 
C 691 1896 909 2560 1504 2560 
C 1613 2560 1926 2560 2138 2120 
C 2253 1870 2253 1609 2253 1289 
C 2253 944 2253 690 2118 434 
C 1978 171 1773 25 1478 25 
z
" transform="scale(0.015625)"/>
       </defs>
       <use xlink:href="#CMR17-30" transform="scale(0.996264)"/>
       <use xlink:href="#CMMI12-3a" transform="translate(45.690477 0) scale(0.996264)"/>
       <use xlink:href="#CMR17-36" transform="translate(72.787654 0) scale(0.996264)"/>
      </g>
     </g>
    </g>
    <g id="xtick_5">
     <g id="line2d_9">
      <path d="M 310.991553 143.788862 
L 310.991553 5.188862 
" clip-path="url(#p3f6ac22759)" style="fill: none; stroke: #ffffff; stroke-linecap: round"/>
     </g>
     <g id="line2d_10"/>
     <g id="text_5">
      <!-- $\mathdefault{0.8}$ -->
      <g style="fill: #262626" transform="translate(301.643027 161.166587) scale(0.15 -0.15)">
       <defs>
        <path id="CMR17-38" d="M 1741 2264 
C 2144 2467 2554 2773 2554 3263 
C 2554 3841 1990 4179 1472 4179 
C 890 4179 378 3759 378 3180 
C 378 3021 416 2747 666 2505 
C 730 2442 998 2251 1171 2130 
C 883 1983 211 1634 211 934 
C 211 279 838 -128 1459 -128 
C 2144 -128 2720 362 2720 1010 
C 2720 1590 2330 1857 2074 2029 
L 1741 2264 
z
M 902 2822 
C 851 2854 595 3051 595 3351 
C 595 3739 998 4032 1459 4032 
C 1965 4032 2336 3676 2336 3262 
C 2336 2669 1670 2331 1638 2331 
C 1632 2331 1626 2331 1574 2370 
L 902 2822 
z
M 2080 1519 
C 2176 1449 2483 1240 2483 851 
C 2483 381 2010 25 1472 25 
C 890 25 448 438 448 940 
C 448 1443 838 1862 1280 2060 
L 2080 1519 
z
" transform="scale(0.015625)"/>
       </defs>
       <use xlink:href="#CMR17-30" transform="scale(0.996264)"/>
       <use xlink:href="#CMMI12-3a" transform="translate(45.690477 0) scale(0.996264)"/>
       <use xlink:href="#CMR17-38" transform="translate(72.787654 0) scale(0.996264)"/>
      </g>
     </g>
    </g>
    <g id="xtick_6">
     <g id="line2d_11">
      <path d="M 371.86428 143.788862 
L 371.86428 5.188862 
" clip-path="url(#p3f6ac22759)" style="fill: none; stroke: #ffffff; stroke-linecap: round"/>
     </g>
     <g id="line2d_12"/>
     <g id="text_6">
      <!-- $\mathdefault{1.0}$ -->
      <g style="fill: #262626" transform="translate(362.515754 161.166587) scale(0.15 -0.15)">
       <defs>
        <path id="CMR17-31" d="M 1702 4058 
C 1702 4192 1696 4192 1606 4192 
C 1357 3916 979 3827 621 3827 
C 602 3827 570 3827 563 3808 
C 557 3795 557 3782 557 3648 
C 755 3648 1088 3686 1344 3839 
L 1344 461 
C 1344 236 1331 160 781 160 
L 589 160 
L 589 0 
C 896 0 1216 0 1523 0 
C 1830 0 2150 0 2458 0 
L 2458 160 
L 2266 160 
C 1715 160 1702 230 1702 458 
L 1702 4058 
z
" transform="scale(0.015625)"/>
       </defs>
       <use xlink:href="#CMR17-31" transform="scale(0.996264)"/>
       <use xlink:href="#CMMI12-3a" transform="translate(45.690477 0) scale(0.996264)"/>
       <use xlink:href="#CMR17-30" transform="translate(72.787654 0) scale(0.996264)"/>
      </g>
     </g>
    </g>
    <g id="text_7">
     <!-- $s_1$ -->
     <g style="fill: #262626" transform="translate(213.621025 178.450057) scale(0.15 -0.15)">
      <defs>
       <path id="CMMI12-73" d="M 1459 1280 
C 1568 1261 1741 1223 1779 1216 
C 1862 1192 2150 1090 2150 783 
C 2150 586 1971 70 1229 70 
C 1094 70 614 70 486 436 
C 742 404 870 603 870 745 
C 870 880 781 950 653 950 
C 512 950 326 841 326 552 
C 326 173 710 -64 1222 -64 
C 2195 -64 2483 651 2483 984 
C 2483 1079 2483 1258 2278 1462 
C 2118 1616 1965 1648 1619 1718 
C 1446 1756 1171 1814 1171 2101 
C 1171 2229 1286 2689 1894 2689 
C 2163 2689 2426 2589 2490 2368 
C 2208 2368 2195 2125 2195 2119 
C 2195 1984 2317 1946 2374 1946 
C 2464 1946 2643 2015 2643 2281 
C 2643 2545 2400 2816 1901 2816 
C 1062 2816 838 2160 838 1899 
C 838 1414 1312 1312 1459 1280 
z
" transform="scale(0.015625)"/>
      </defs>
      <use xlink:href="#CMMI12-73" transform="scale(0.996264)"/>
      <use xlink:href="#CMR17-31" transform="translate(45.950048 -14.943915) scale(0.697382)"/>
     </g>
    </g>
   </g>
   <g id="matplotlib.axis_2">
    <g id="ytick_1">
     <g id="line2d_13">
      <path d="M 52.282462 143.788862 
L 387.082462 143.788862 
" clip-path="url(#p3f6ac22759)" style="fill: none; stroke: #ffffff; stroke-linecap: round"/>
     </g>
     <g id="line2d_14"/>
     <g id="text_8">
      <!-- $\mathdefault{10^{-2}}$ -->
      <g style="fill: #262626" transform="translate(17.283469 148.977725) scale(0.15 -0.15)">
       <defs>
        <path id="CMSY10-0" d="M 4218 1472 
C 4326 1472 4442 1472 4442 1600 
C 4442 1728 4326 1728 4218 1728 
L 755 1728 
C 646 1728 531 1728 531 1600 
C 531 1472 646 1472 755 1472 
L 4218 1472 
z
" transform="scale(0.015625)"/>
       </defs>
       <use xlink:href="#CMR17-31" transform="scale(0.996264)"/>
       <use xlink:href="#CMR17-30" transform="translate(45.690477 0) scale(0.996264)"/>
       <use xlink:href="#CMSY10-0" transform="translate(91.380954 36.153639) scale(0.697382)"/>
       <use xlink:href="#CMR17-32" transform="translate(145.621947 36.153639) scale(0.697382)"/>
      </g>
     </g>
    </g>
    <g id="ytick_2">
     <g id="line2d_15">
      <path d="M 52.282462 109.138862 
L 387.082462 109.138862 
" clip-path="url(#p3f6ac22759)" style="fill: none; stroke: #ffffff; stroke-linecap: round"/>
     </g>
     <g id="line2d_16"/>
     <g id="text_9">
      <!-- $\mathdefault{10^{-1}}$ -->
      <g style="fill: #262626" transform="translate(17.283469 114.327725) scale(0.15 -0.15)">
       <use xlink:href="#CMR17-31" transform="scale(0.996264)"/>
       <use xlink:href="#CMR17-30" transform="translate(45.690477 0) scale(0.996264)"/>
       <use xlink:href="#CMSY10-0" transform="translate(91.380954 36.153639) scale(0.697382)"/>
       <use xlink:href="#CMR17-31" transform="translate(145.621947 36.153639) scale(0.697382)"/>
      </g>
     </g>
    </g>
    <g id="ytick_3">
     <g id="line2d_17">
      <path d="M 52.282462 74.488862 
L 387.082462 74.488862 
" clip-path="url(#p3f6ac22759)" style="fill: none; stroke: #ffffff; stroke-linecap: round"/>
     </g>
     <g id="line2d_18"/>
     <g id="text_10">
      <!-- $\mathdefault{10^{0}}$ -->
      <g style="fill: #262626" transform="translate(25.419615 79.677725) scale(0.15 -0.15)">
       <use xlink:href="#CMR17-31" transform="scale(0.996264)"/>
       <use xlink:href="#CMR17-30" transform="translate(45.690477 0) scale(0.996264)"/>
       <use xlink:href="#CMR17-30" transform="translate(91.380954 36.153639) scale(0.697382)"/>
      </g>
     </g>
    </g>
    <g id="ytick_4">
     <g id="line2d_19">
      <path d="M 52.282462 39.838862 
L 387.082462 39.838862 
" clip-path="url(#p3f6ac22759)" style="fill: none; stroke: #ffffff; stroke-linecap: round"/>
     </g>
     <g id="line2d_20"/>
     <g id="text_11">
      <!-- $\mathdefault{10^{1}}$ -->
      <g style="fill: #262626" transform="translate(25.419615 45.027725) scale(0.15 -0.15)">
       <use xlink:href="#CMR17-31" transform="scale(0.996264)"/>
       <use xlink:href="#CMR17-30" transform="translate(45.690477 0) scale(0.996264)"/>
       <use xlink:href="#CMR17-31" transform="translate(91.380954 36.153639) scale(0.697382)"/>
      </g>
     </g>
    </g>
    <g id="ytick_5">
     <g id="line2d_21">
      <path d="M 52.282462 5.188862 
L 387.082462 5.188862 
" clip-path="url(#p3f6ac22759)" style="fill: none; stroke: #ffffff; stroke-linecap: round"/>
     </g>
     <g id="line2d_22"/>
     <g id="text_12">
      <!-- $\mathdefault{10^{2}}$ -->
      <g style="fill: #262626" transform="translate(25.419615 10.377725) scale(0.15 -0.15)">
       <use xlink:href="#CMR17-31" transform="scale(0.996264)"/>
       <use xlink:href="#CMR17-30" transform="translate(45.690477 0) scale(0.996264)"/>
       <use xlink:href="#CMR17-32" transform="translate(91.380954 36.153639) scale(0.697382)"/>
      </g>
     </g>
    </g>
    <g id="ytick_6">
     <g id="line2d_23"/>
    </g>
    <g id="ytick_7">
     <g id="line2d_24"/>
    </g>
    <g id="ytick_8">
     <g id="line2d_25"/>
    </g>
    <g id="ytick_9">
     <g id="line2d_26"/>
    </g>
    <g id="ytick_10">
     <g id="line2d_27"/>
    </g>
    <g id="ytick_11">
     <g id="line2d_28"/>
    </g>
    <g id="ytick_12">
     <g id="line2d_29"/>
    </g>
    <g id="ytick_13">
     <g id="line2d_30"/>
    </g>
    <g id="ytick_14">
     <g id="line2d_31"/>
    </g>
    <g id="ytick_15">
     <g id="line2d_32"/>
    </g>
    <g id="ytick_16">
     <g id="line2d_33"/>
    </g>
    <g id="ytick_17">
     <g id="line2d_34"/>
    </g>
    <g id="ytick_18">
     <g id="line2d_35"/>
    </g>
    <g id="ytick_19">
     <g id="line2d_36"/>
    </g>
    <g id="ytick_20">
     <g id="line2d_37"/>
    </g>
    <g id="ytick_21">
     <g id="line2d_38"/>
    </g>
    <g id="ytick_22">
     <g id="line2d_39"/>
    </g>
    <g id="ytick_23">
     <g id="line2d_40"/>
    </g>
    <g id="ytick_24">
     <g id="line2d_41"/>
    </g>
    <g id="ytick_25">
     <g id="line2d_42"/>
    </g>
    <g id="ytick_26">
     <g id="line2d_43"/>
    </g>
    <g id="ytick_27">
     <g id="line2d_44"/>
    </g>
    <g id="ytick_28">
     <g id="line2d_45"/>
    </g>
    <g id="ytick_29">
     <g id="line2d_46"/>
    </g>
    <g id="ytick_30">
     <g id="line2d_47"/>
    </g>
    <g id="ytick_31">
     <g id="line2d_48"/>
    </g>
    <g id="ytick_32">
     <g id="line2d_49"/>
    </g>
    <g id="ytick_33">
     <g id="line2d_50"/>
    </g>
    <g id="ytick_34">
     <g id="line2d_51"/>
    </g>
    <g id="ytick_35">
     <g id="line2d_52"/>
    </g>
    <g id="ytick_36">
     <g id="line2d_53"/>
    </g>
    <g id="ytick_37">
     <g id="line2d_54"/>
    </g>
    <g id="text_13">
     <!-- Density -->
     <g style="fill: #262626" transform="translate(10.377725 98.814048) rotate(-90) scale(0.15 -0.15)">
      <defs>
       <path id="CMR17-44" d="M 333 4352 
L 333 4186 
C 774 4186 845 4186 845 3900 
L 845 452 
C 845 166 774 166 333 166 
L 333 0 
L 2368 0 
C 3398 0 4224 943 4224 2141 
C 4224 3346 3411 4352 2368 4352 
L 333 4352 
z
M 1523 166 
C 1267 166 1254 197 1254 414 
L 1254 3938 
C 1254 4155 1267 4186 1523 4186 
L 2240 4186 
C 2771 4186 3750 3874 3750 2141 
C 3750 1242 3488 879 3366 707 
C 3213 510 2848 166 2240 166 
L 1523 166 
z
" transform="scale(0.015625)"/>
       <path id="CMR17-65" d="M 2438 1472 
C 2464 1498 2464 1511 2464 1576 
C 2464 2238 2118 2816 1389 2816 
C 710 2816 173 2169 173 1383 
C 173 551 781 -64 1459 -64 
C 2176 -64 2458 607 2458 740 
C 2458 784 2419 784 2406 784 
C 2362 784 2355 771 2330 696 
C 2189 265 1837 51 1504 51 
C 1229 51 954 203 781 480 
C 582 803 582 1176 582 1472 
L 2438 1472 
z
M 589 1568 
C 634 2505 1126 2714 1382 2714 
C 1818 2714 2112 2297 2118 1568 
L 589 1568 
z
" transform="scale(0.015625)"/>
       <path id="CMR17-6e" d="M 2656 1933 
C 2656 2259 2592 2790 1837 2790 
C 1331 2790 1069 2400 973 2144 
L 966 2144 
L 966 2790 
L 211 2720 
L 211 2554 
C 589 2554 646 2515 646 2208 
L 646 428 
C 646 184 621 153 211 153 
L 211 -13 
C 365 0 646 0 813 0 
C 979 0 1267 0 1421 -13 
L 1421 153 
C 1011 153 986 178 986 428 
L 986 1658 
C 986 2247 1344 2688 1792 2688 
C 2266 2688 2317 2266 2317 1958 
L 2317 428 
C 2317 184 2291 153 1882 153 
L 1882 -13 
C 2035 0 2317 0 2483 0 
C 2650 0 2938 0 3091 -13 
L 3091 153 
C 2682 153 2656 178 2656 428 
L 2656 1933 
z
" transform="scale(0.015625)"/>
       <path id="CMR17-73" d="M 1978 2697 
C 1978 2813 1971 2819 1933 2819 
C 1907 2819 1901 2813 1824 2717 
C 1805 2691 1747 2626 1728 2601 
C 1523 2819 1235 2819 1126 2819 
C 416 2819 160 2447 160 2076 
C 160 1498 813 1365 998 1325 
C 1402 1243 1542 1217 1677 1101 
C 1760 1025 1901 884 1901 654 
C 1901 384 1747 38 1158 38 
C 602 38 403 460 288 1021 
C 269 1110 269 1117 218 1117 
C 166 1117 160 1110 160 983 
L 160 63 
C 160 -51 166 -58 205 -58 
C 237 -58 243 -51 275 0 
C 314 57 410 211 448 276 
C 576 103 800 -64 1158 -64 
C 1792 -64 2131 283 2131 784 
C 2131 1112 1958 1285 1875 1362 
C 1683 1561 1459 1606 1190 1657 
C 838 1735 390 1825 390 2217 
C 390 2383 480 2737 1126 2737 
C 1811 2737 1850 2094 1862 1888 
C 1869 1856 1901 1849 1920 1849 
C 1978 1849 1978 1869 1978 1978 
L 1978 2697 
z
" transform="scale(0.015625)"/>
       <path id="CMR17-69" d="M 992 3909 
C 992 4049 877 4170 730 4170 
C 589 4170 467 4056 467 3909 
C 467 3769 582 3648 730 3648 
C 870 3648 992 3763 992 3909 
z
M 243 2706 
L 243 2541 
C 602 2541 653 2502 653 2197 
L 653 427 
C 653 184 627 153 218 153 
L 218 -13 
C 371 0 646 0 806 0 
C 960 0 1222 0 1370 -13 
L 1370 153 
C 992 153 979 191 979 420 
L 979 2776 
L 243 2706 
z
" transform="scale(0.015625)"/>
       <path id="CMR17-74" d="M 966 2560 
L 1862 2560 
L 1862 2725 
L 966 2725 
L 966 3904 
L 851 3904 
C 838 3245 614 2668 70 2668 
L 70 2560 
L 627 2560 
L 627 771 
C 627 650 627 -64 1370 -64 
C 1747 -64 1965 306 1965 777 
L 1965 1140 
L 1850 1140 
L 1850 783 
C 1850 344 1677 51 1408 51 
C 1222 51 966 178 966 758 
L 966 2560 
z
" transform="scale(0.015625)"/>
       <path id="CMR17-79" d="M 2496 2197 
C 2656 2586 2944 2586 3034 2586 
L 3034 2752 
C 2912 2752 2752 2752 2630 2752 
C 2496 2752 2285 2752 2157 2758 
L 2157 2592 
C 2400 2573 2406 2394 2406 2343 
C 2406 2280 2394 2248 2362 2171 
L 1664 449 
L 902 2306 
C 870 2382 870 2426 870 2433 
C 870 2573 1018 2586 1171 2586 
L 1171 2758 
C 1018 2752 742 2752 582 2752 
C 410 2752 205 2752 64 2758 
L 64 2586 
C 410 2586 448 2554 531 2350 
L 1485 15 
C 1197 -738 1030 -1178 627 -1178 
C 557 -1178 397 -1159 282 -1044 
C 429 -1031 493 -942 493 -833 
C 493 -725 416 -629 288 -629 
C 147 -629 77 -725 77 -840 
C 77 -1095 339 -1280 627 -1280 
C 998 -1280 1229 -922 1357 -604 
L 2496 2197 
z
" transform="scale(0.015625)"/>
      </defs>
      <use xlink:href="#CMR17-44" transform="scale(0.996264)"/>
      <use xlink:href="#CMR17-65" transform="translate(70.393556 0) scale(0.996264)"/>
      <use xlink:href="#CMR17-6e" transform="translate(110.879216 0) scale(0.996264)"/>
      <use xlink:href="#CMR17-73" transform="translate(161.774586 0) scale(0.996264)"/>
      <use xlink:href="#CMR17-69" transform="translate(197.575924 0) scale(0.996264)"/>
      <use xlink:href="#CMR17-74" transform="translate(222.446982 0) scale(0.996264)"/>
      <use xlink:href="#CMR17-79" transform="translate(255.125296 0) scale(0.996264)"/>
     </g>
    </g>
   </g>
   <g id="PolyCollection_1">
    <path d="M 64.824913 112.968124 
L 64.824913 34724.488862 
L 65.445585 34724.488862 
L 66.066256 34724.488862 
L 66.686928 34724.488862 
L 67.307599 34724.488862 
L 67.928271 34724.488862 
L 68.548942 34724.488862 
L 69.169614 34724.488862 
L 69.790285 34724.488862 
L 70.410957 34724.488862 
L 71.031629 34724.488862 
L 71.6523 34724.488862 
L 72.272972 34724.488862 
L 72.893643 34724.488862 
L 73.514315 34724.488862 
L 74.134986 34724.488862 
L 74.755658 34724.488862 
L 75.376329 34724.488862 
L 75.997001 34724.488862 
L 76.617672 34724.488862 
L 77.238344 34724.488862 
L 77.859015 34724.488862 
L 78.479687 34724.488862 
L 79.100359 34724.488862 
L 79.72103 34724.488862 
L 80.341702 34724.488862 
L 80.962373 34724.488862 
L 81.583045 34724.488862 
L 82.203716 34724.488862 
L 82.824388 34724.488862 
L 83.445059 34724.488862 
L 84.065731 34724.488862 
L 84.686402 34724.488862 
L 85.307074 34724.488862 
L 85.927745 34724.488862 
L 86.548417 34724.488862 
L 87.169089 34724.488862 
L 87.78976 34724.488862 
L 88.410432 34724.488862 
L 89.031103 34724.488862 
L 89.651775 34724.488862 
L 90.272446 34724.488862 
L 90.893118 34724.488862 
L 91.513789 34724.488862 
L 92.134461 34724.488862 
L 92.755132 34724.488862 
L 93.375804 34724.488862 
L 93.996475 34724.488862 
L 94.617147 34724.488862 
L 95.237819 34724.488862 
L 95.85849 34724.488862 
L 96.479162 34724.488862 
L 97.099833 34724.488862 
L 97.720505 34724.488862 
L 98.341176 34724.488862 
L 98.961848 34724.488862 
L 99.582519 34724.488862 
L 100.203191 34724.488862 
L 100.823862 34724.488862 
L 101.444534 34724.488862 
L 102.065205 34724.488862 
L 102.685877 34724.488862 
L 103.306549 34724.488862 
L 103.92722 34724.488862 
L 104.547892 34724.488862 
L 105.168563 34724.488862 
L 105.789235 34724.488862 
L 106.409906 34724.488862 
L 107.030578 34724.488862 
L 107.651249 34724.488862 
L 108.271921 34724.488862 
L 108.892592 34724.488862 
L 109.513264 34724.488862 
L 110.133935 34724.488862 
L 110.754607 34724.488862 
L 111.375279 34724.488862 
L 111.99595 34724.488862 
L 112.616622 34724.488862 
L 113.237293 34724.488862 
L 113.857965 34724.488862 
L 114.478636 34724.488862 
L 115.099308 34724.488862 
L 115.719979 34724.488862 
L 116.340651 34724.488862 
L 116.961322 34724.488862 
L 117.581994 34724.488862 
L 118.202665 34724.488862 
L 118.823337 34724.488862 
L 119.444008 34724.488862 
L 120.06468 34724.488862 
L 120.685352 34724.488862 
L 121.306023 34724.488862 
L 121.926695 34724.488862 
L 122.547366 34724.488862 
L 123.168038 34724.488862 
L 123.788709 34724.488862 
L 124.409381 34724.488862 
L 125.030052 34724.488862 
L 125.650724 34724.488862 
L 126.271395 34724.488862 
L 126.892067 34724.488862 
L 127.512738 34724.488862 
L 128.13341 34724.488862 
L 128.754082 34724.488862 
L 129.374753 34724.488862 
L 129.995425 34724.488862 
L 130.616096 34724.488862 
L 131.236768 34724.488862 
L 131.857439 34724.488862 
L 132.478111 34724.488862 
L 133.098782 34724.488862 
L 133.719454 34724.488862 
L 134.340125 34724.488862 
L 134.960797 34724.488862 
L 135.581468 34724.488862 
L 136.20214 34724.488862 
L 136.822812 34724.488862 
L 137.443483 34724.488862 
L 138.064155 34724.488862 
L 138.684826 34724.488862 
L 139.305498 34724.488862 
L 139.926169 34724.488862 
L 140.546841 34724.488862 
L 141.167512 34724.488862 
L 141.788184 34724.488862 
L 142.408855 34724.488862 
L 143.029527 34724.488862 
L 143.650198 34724.488862 
L 144.27087 34724.488862 
L 144.891542 34724.488862 
L 145.512213 34724.488862 
L 146.132885 34724.488862 
L 146.753556 34724.488862 
L 147.374228 34724.488862 
L 147.994899 34724.488862 
L 148.615571 34724.488862 
L 149.236242 34724.488862 
L 149.856914 34724.488862 
L 150.477585 34724.488862 
L 151.098257 34724.488862 
L 151.718928 34724.488862 
L 152.3396 34724.488862 
L 152.960272 34724.488862 
L 153.580943 34724.488862 
L 154.201615 34724.488862 
L 154.822286 34724.488862 
L 155.442958 34724.488862 
L 156.063629 34724.488862 
L 156.684301 34724.488862 
L 157.304972 34724.488862 
L 157.925644 34724.488862 
L 158.546315 34724.488862 
L 159.166987 34724.488862 
L 159.787658 34724.488862 
L 160.40833 34724.488862 
L 161.029002 34724.488862 
L 161.649673 34724.488862 
L 162.270345 34724.488862 
L 162.891016 34724.488862 
L 163.511688 34724.488862 
L 164.132359 34724.488862 
L 164.753031 34724.488862 
L 165.373702 34724.488862 
L 165.994374 34724.488862 
L 166.615045 34724.488862 
L 167.235717 34724.488862 
L 167.856388 34724.488862 
L 168.47706 34724.488862 
L 169.097732 34724.488862 
L 169.718403 34724.488862 
L 170.339075 34724.488862 
L 170.959746 34724.488862 
L 171.580418 34724.488862 
L 172.201089 34724.488862 
L 172.821761 34724.488862 
L 173.442432 34724.488862 
L 174.063104 34724.488862 
L 174.683775 34724.488862 
L 175.304447 34724.488862 
L 175.925118 34724.488862 
L 176.54579 34724.488862 
L 177.166462 34724.488862 
L 177.787133 34724.488862 
L 178.407805 34724.488862 
L 179.028476 34724.488862 
L 179.649148 34724.488862 
L 180.269819 34724.488862 
L 180.890491 34724.488862 
L 181.511162 34724.488862 
L 182.131834 34724.488862 
L 182.752505 34724.488862 
L 183.373177 34724.488862 
L 183.993848 34724.488862 
L 184.61452 34724.488862 
L 185.235192 34724.488862 
L 185.855863 34724.488862 
L 186.476535 34724.488862 
L 187.097206 34724.488862 
L 187.717878 34724.488862 
L 188.338549 34724.488862 
L 188.959221 34724.488862 
L 189.579892 34724.488862 
L 190.200564 34724.488862 
L 190.821235 34724.488862 
L 191.441907 34724.488862 
L 192.062578 34724.488862 
L 192.68325 34724.488862 
L 193.303922 34724.488862 
L 193.924593 34724.488862 
L 194.545265 34724.488862 
L 195.165936 34724.488862 
L 195.786608 34724.488862 
L 196.407279 34724.488862 
L 197.027951 34724.488862 
L 197.648622 34724.488862 
L 198.269294 34724.488862 
L 198.889965 34724.488862 
L 199.510637 34724.488862 
L 200.131308 34724.488862 
L 200.75198 34724.488862 
L 201.372652 34724.488862 
L 201.993323 34724.488862 
L 202.613995 34724.488862 
L 203.234666 34724.488862 
L 203.855338 34724.488862 
L 204.476009 34724.488862 
L 205.096681 34724.488862 
L 205.717352 34724.488862 
L 206.338024 34724.488862 
L 206.958695 34724.488862 
L 207.579367 34724.488862 
L 208.200038 34724.488862 
L 208.82071 34724.488862 
L 209.441382 34724.488862 
L 210.062053 34724.488862 
L 210.682725 34724.488862 
L 211.303396 34724.488862 
L 211.924068 34724.488862 
L 212.544739 34724.488862 
L 213.165411 34724.488862 
L 213.786082 34724.488862 
L 214.406754 34724.488862 
L 215.027425 34724.488862 
L 215.648097 34724.488862 
L 216.268768 34724.488862 
L 216.88944 34724.488862 
L 217.510112 34724.488862 
L 218.130783 34724.488862 
L 218.751455 34724.488862 
L 219.372126 34724.488862 
L 219.992798 34724.488862 
L 220.613469 34724.488862 
L 221.234141 34724.488862 
L 221.854812 34724.488862 
L 222.475484 34724.488862 
L 223.096155 34724.488862 
L 223.716827 34724.488862 
L 224.337498 34724.488862 
L 224.95817 34724.488862 
L 225.578841 34724.488862 
L 226.199513 34724.488862 
L 226.820185 34724.488862 
L 227.440856 34724.488862 
L 228.061528 34724.488862 
L 228.682199 34724.488862 
L 229.302871 34724.488862 
L 229.923542 34724.488862 
L 230.544214 34724.488862 
L 231.164885 34724.488862 
L 231.785557 34724.488862 
L 232.406228 34724.488862 
L 233.0269 34724.488862 
L 233.647571 34724.488862 
L 234.268243 34724.488862 
L 234.888915 34724.488862 
L 235.509586 34724.488862 
L 236.130258 34724.488862 
L 236.750929 34724.488862 
L 237.371601 34724.488862 
L 237.992272 34724.488862 
L 238.612944 34724.488862 
L 239.233615 34724.488862 
L 239.854287 34724.488862 
L 240.474958 34724.488862 
L 241.09563 34724.488862 
L 241.716301 34724.488862 
L 242.336973 34724.488862 
L 242.957645 34724.488862 
L 243.578316 34724.488862 
L 244.198988 34724.488862 
L 244.819659 34724.488862 
L 245.440331 34724.488862 
L 246.061002 34724.488862 
L 246.681674 34724.488862 
L 247.302345 34724.488862 
L 247.923017 34724.488862 
L 248.543688 34724.488862 
L 249.16436 34724.488862 
L 249.785031 34724.488862 
L 250.405703 34724.488862 
L 251.026375 34724.488862 
L 251.647046 34724.488862 
L 252.267718 34724.488862 
L 252.888389 34724.488862 
L 253.509061 34724.488862 
L 254.129732 34724.488862 
L 254.750404 34724.488862 
L 255.371075 34724.488862 
L 255.991747 34724.488862 
L 256.612418 34724.488862 
L 257.23309 34724.488862 
L 257.853761 34724.488862 
L 258.474433 34724.488862 
L 259.095105 34724.488862 
L 259.715776 34724.488862 
L 260.336448 34724.488862 
L 260.957119 34724.488862 
L 261.577791 34724.488862 
L 262.198462 34724.488862 
L 262.819134 34724.488862 
L 263.439805 34724.488862 
L 264.060477 34724.488862 
L 264.681148 34724.488862 
L 265.30182 34724.488862 
L 265.922491 34724.488862 
L 266.543163 34724.488862 
L 267.163835 34724.488862 
L 267.784506 34724.488862 
L 268.405178 34724.488862 
L 269.025849 34724.488862 
L 269.646521 34724.488862 
L 270.267192 34724.488862 
L 270.887864 34724.488862 
L 271.508535 34724.488862 
L 272.129207 34724.488862 
L 272.749878 34724.488862 
L 273.37055 34724.488862 
L 273.991221 34724.488862 
L 274.611893 34724.488862 
L 275.232565 34724.488862 
L 275.853236 34724.488862 
L 276.473908 34724.488862 
L 277.094579 34724.488862 
L 277.715251 34724.488862 
L 278.335922 34724.488862 
L 278.956594 34724.488862 
L 279.577265 34724.488862 
L 280.197937 34724.488862 
L 280.818608 34724.488862 
L 281.43928 34724.488862 
L 282.059951 34724.488862 
L 282.680623 34724.488862 
L 283.301295 34724.488862 
L 283.921966 34724.488862 
L 284.542638 34724.488862 
L 285.163309 34724.488862 
L 285.783981 34724.488862 
L 286.404652 34724.488862 
L 287.025324 34724.488862 
L 287.645995 34724.488862 
L 288.266667 34724.488862 
L 288.887338 34724.488862 
L 289.50801 34724.488862 
L 290.128681 34724.488862 
L 290.749353 34724.488862 
L 291.370025 34724.488862 
L 291.990696 34724.488862 
L 292.611368 34724.488862 
L 293.232039 34724.488862 
L 293.852711 34724.488862 
L 294.473382 34724.488862 
L 295.094054 34724.488862 
L 295.714725 34724.488862 
L 296.335397 34724.488862 
L 296.956068 34724.488862 
L 297.57674 34724.488862 
L 298.197411 34724.488862 
L 298.818083 34724.488862 
L 299.438755 34724.488862 
L 300.059426 34724.488862 
L 300.680098 34724.488862 
L 301.300769 34724.488862 
L 301.921441 34724.488862 
L 302.542112 34724.488862 
L 303.162784 34724.488862 
L 303.783455 34724.488862 
L 304.404127 34724.488862 
L 305.024798 34724.488862 
L 305.64547 34724.488862 
L 306.266141 34724.488862 
L 306.886813 34724.488862 
L 307.507485 34724.488862 
L 308.128156 34724.488862 
L 308.748828 34724.488862 
L 309.369499 34724.488862 
L 309.990171 34724.488862 
L 310.610842 34724.488862 
L 311.231514 34724.488862 
L 311.852185 34724.488862 
L 312.472857 34724.488862 
L 313.093528 34724.488862 
L 313.7142 34724.488862 
L 314.334871 34724.488862 
L 314.955543 34724.488862 
L 315.576215 34724.488862 
L 316.196886 34724.488862 
L 316.817558 34724.488862 
L 317.438229 34724.488862 
L 318.058901 34724.488862 
L 318.679572 34724.488862 
L 319.300244 34724.488862 
L 319.920915 34724.488862 
L 320.541587 34724.488862 
L 321.162258 34724.488862 
L 321.78293 34724.488862 
L 322.403601 34724.488862 
L 323.024273 34724.488862 
L 323.644945 34724.488862 
L 324.265616 34724.488862 
L 324.886288 34724.488862 
L 325.506959 34724.488862 
L 326.127631 34724.488862 
L 326.748302 34724.488862 
L 327.368974 34724.488862 
L 327.989645 34724.488862 
L 328.610317 34724.488862 
L 329.230988 34724.488862 
L 329.85166 34724.488862 
L 330.472331 34724.488862 
L 331.093003 34724.488862 
L 331.713674 34724.488862 
L 332.334346 34724.488862 
L 332.955018 34724.488862 
L 333.575689 34724.488862 
L 334.196361 34724.488862 
L 334.817032 34724.488862 
L 335.437704 34724.488862 
L 336.058375 34724.488862 
L 336.679047 34724.488862 
L 337.299718 34724.488862 
L 337.92039 34724.488862 
L 338.541061 34724.488862 
L 339.161733 34724.488862 
L 339.782404 34724.488862 
L 340.403076 34724.488862 
L 341.023748 34724.488862 
L 341.644419 34724.488862 
L 342.265091 34724.488862 
L 342.885762 34724.488862 
L 343.506434 34724.488862 
L 344.127105 34724.488862 
L 344.747777 34724.488862 
L 345.368448 34724.488862 
L 345.98912 34724.488862 
L 346.609791 34724.488862 
L 347.230463 34724.488862 
L 347.851134 34724.488862 
L 348.471806 34724.488862 
L 349.092478 34724.488862 
L 349.713149 34724.488862 
L 350.333821 34724.488862 
L 350.954492 34724.488862 
L 351.575164 34724.488862 
L 352.195835 34724.488862 
L 352.816507 34724.488862 
L 353.437178 34724.488862 
L 354.05785 34724.488862 
L 354.678521 34724.488862 
L 355.299193 34724.488862 
L 355.919864 34724.488862 
L 356.540536 34724.488862 
L 357.161208 34724.488862 
L 357.781879 34724.488862 
L 358.402551 34724.488862 
L 359.023222 34724.488862 
L 359.643894 34724.488862 
L 360.264565 34724.488862 
L 360.885237 34724.488862 
L 361.505908 34724.488862 
L 362.12658 34724.488862 
L 362.747251 34724.488862 
L 363.367923 34724.488862 
L 363.988594 34724.488862 
L 364.609266 34724.488862 
L 365.229938 34724.488862 
L 365.850609 34724.488862 
L 366.471281 34724.488862 
L 367.091952 34724.488862 
L 367.712624 34724.488862 
L 368.333295 34724.488862 
L 368.953967 34724.488862 
L 369.574638 34724.488862 
L 370.19531 34724.488862 
L 370.815981 34724.488862 
L 371.436653 34724.488862 
L 372.057324 34724.488862 
L 372.677996 34724.488862 
L 373.298668 34724.488862 
L 373.919339 34724.488862 
L 374.540011 34724.488862 
L 374.540011 195.509896 
L 374.540011 195.509896 
L 373.919339 167.073914 
L 373.298668 145.488818 
L 372.677996 130.533101 
L 372.057324 121.956771 
L 371.436653 119.555592 
L 370.815981 123.26122 
L 370.19531 133.176866 
L 369.574638 149.524475 
L 368.953967 172.552716 
L 368.333295 202.471824 
L 367.712624 239.432968 
L 367.091952 283.534805 
L 366.471281 334.838114 
L 365.850609 393.379096 
L 365.229938 459.178891 
L 364.609266 532.249709 
L 363.988594 612.598556 
L 363.367923 700.229435 
L 362.747251 795.144632 
L 362.12658 897.345448 
L 361.505908 1006.832625 
L 360.885237 1123.606583 
L 360.264565 1247.667563 
L 359.643894 1379.015703 
L 359.023222 1517.651067 
L 358.402551 1580.820676 
L 357.781879 1439.044542 
L 357.161208 1304.494071 
L 356.540536 1177.230938 
L 355.919864 1057.255144 
L 355.299193 944.56669 
L 354.678521 839.165574 
L 354.05785 741.051797 
L 353.437178 650.225359 
L 352.816507 566.68626 
L 352.195835 490.434499 
L 351.575164 421.470078 
L 350.954492 359.792995 
L 350.333821 305.403252 
L 349.713149 258.300847 
L 349.092478 218.485781 
L 348.471806 185.958055 
L 347.851134 160.717667 
L 347.230463 142.764617 
L 346.609791 132.098907 
L 345.98912 128.720536 
L 345.368448 132.629503 
L 344.747777 143.825773 
L 344.127105 162.305515 
L 343.506434 187.671233 
L 342.885762 200.653323 
L 342.265091 175.336391 
L 341.644419 152.948139 
L 341.023748 137.798555 
L 340.403076 129.930949 
L 339.782404 129.291052 
L 339.161733 135.226552 
L 338.541061 141.872501 
L 337.92039 136.141632 
L 337.299718 126.584927 
L 336.679047 121.382188 
L 336.058375 121.203661 
L 335.437704 126.120584 
L 334.817032 136.636374 
L 334.196361 153.132038 
L 333.575689 168.680613 
L 332.955018 157.005006 
L 332.334346 140.673903 
L 331.713674 131.121944 
L 331.093003 128.843509 
L 330.472331 133.852043 
L 329.85166 146.147904 
L 329.230988 165.730967 
L 328.610317 192.575614 
L 327.989645 222.533511 
L 327.368974 206.167598 
L 326.748302 176.404337 
L 326.127631 153.685224 
L 325.506959 138.252141 
L 324.886288 130.106389 
L 324.265616 129.247976 
L 323.644945 135.676902 
L 323.024273 149.393167 
L 322.403601 170.396771 
L 321.78293 198.687714 
L 321.162258 234.265996 
L 320.541587 277.131617 
L 319.920915 327.284576 
L 319.300244 384.724874 
L 318.679572 449.452512 
L 318.058901 521.467488 
L 317.438229 600.769803 
L 316.817558 687.359457 
L 316.196886 781.221884 
L 315.576215 784.246724 
L 314.955543 690.150681 
L 314.334871 603.311291 
L 313.7142 523.745007 
L 313.093528 451.44222 
L 312.472857 386.386566 
L 311.852185 328.550032 
L 311.231514 277.884659 
L 310.610842 234.309059 
L 309.990171 197.688657 
L 309.369499 167.813073 
L 308.748828 144.386868 
L 308.128156 127.06823 
L 307.507485 115.58206 
L 306.886813 109.856846 
L 306.266141 110.061452 
L 305.64547 116.501812 
L 305.024798 129.448285 
L 304.404127 147.827983 
L 303.783455 153.23807 
L 303.162784 136.649706 
L 302.542112 122.965502 
L 301.921441 115.290308 
L 301.300769 113.236216 
L 300.680098 115.280859 
L 300.059426 116.996476 
L 299.438755 114.860215 
L 298.818083 112.853631 
L 298.197411 114.33131 
L 297.57674 118.233914 
L 296.956068 120.553842 
L 296.335397 118.78074 
L 295.714725 113.976202 
L 295.094054 109.554021 
L 294.473382 108.143835 
L 293.852711 109.309668 
L 293.232039 110.490775 
L 292.611368 111.554303 
L 291.990696 115.465209 
L 291.370025 124.287992 
L 290.749353 138.819074 
L 290.128681 159.473877 
L 289.50801 186.597395 
L 288.887338 220.473856 
L 288.266667 260.138162 
L 287.645995 252.505302 
L 287.025324 213.961769 
L 286.404652 182.352962 
L 285.783981 158.015647 
L 285.163309 140.900315 
L 284.542638 130.794586 
L 283.921966 126.862233 
L 283.301295 126.581247 
L 282.680623 126.518272 
L 282.059951 127.499942 
L 281.43928 133.122321 
L 280.818608 145.283562 
L 280.197937 164.239797 
L 279.577265 179.362234 
L 278.956594 161.86319 
L 278.335922 142.405852 
L 277.715251 129.19987 
L 277.094579 121.989031 
L 276.473908 120.344932 
L 275.853236 124.141039 
L 275.232565 133.651569 
L 274.611893 149.336398 
L 273.991221 170.607259 
L 273.37055 176.28901 
L 272.749878 155.230549 
L 272.129207 137.555466 
L 271.508535 125.424382 
L 270.887864 117.524004 
L 270.267192 112.499899 
L 269.646521 109.467307 
L 269.025849 107.823061 
L 268.405178 107.667489 
L 267.784506 109.875774 
L 267.163835 113.415634 
L 266.543163 112.494924 
L 265.922491 106.696205 
L 265.30182 101.79037 
L 264.681148 98.784716 
L 264.060477 96.623562 
L 263.439805 94.899107 
L 262.819134 93.415305 
L 262.198462 92.121844 
L 261.577791 91.608355 
L 260.957119 92.044224 
L 260.336448 92.635579 
L 259.715776 92.504398 
L 259.095105 91.09755 
L 258.474433 88.518086 
L 257.853761 85.996387 
L 257.23309 85.110365 
L 256.612418 86.477123 
L 255.991747 89.203077 
L 255.371075 91.905822 
L 254.750404 93.879739 
L 254.129732 94.177645 
L 253.509061 93.004651 
L 252.888389 92.153873 
L 252.267718 91.859404 
L 251.647046 91.305395 
L 251.026375 91.161481 
L 250.405703 92.548327 
L 249.785031 94.342337 
L 249.16436 93.570845 
L 248.543688 90.839149 
L 247.923017 89.378704 
L 247.302345 90.660437 
L 246.681674 94.517861 
L 246.061002 98.967764 
L 245.440331 101.241916 
L 244.819659 102.267344 
L 244.198988 104.859103 
L 243.578316 110.284033 
L 242.957645 117.79457 
L 242.336973 123.602148 
L 241.716301 126.758544 
L 241.09563 132.545618 
L 240.474958 143.886852 
L 239.854287 154.316971 
L 239.233615 145.652345 
L 238.612944 133.888638 
L 237.992272 128.246223 
L 237.371601 127.972437 
L 236.750929 128.834335 
L 236.130258 127.733638 
L 235.509586 128.323438 
L 234.888915 131.687255 
L 234.268243 128.610593 
L 233.647571 117.632695 
L 233.0269 108.615866 
L 232.406228 103.698066 
L 231.785557 101.62191 
L 231.164885 100.120689 
L 230.544214 97.598478 
L 229.923542 94.760404 
L 229.302871 93.167965 
L 228.682199 93.13473 
L 228.061528 93.415771 
L 227.440856 92.464689 
L 226.820185 90.013128 
L 226.199513 86.805718 
L 225.578841 83.796941 
L 224.95817 81.875835 
L 224.337498 81.074282 
L 223.716827 79.86773 
L 223.096155 77.088035 
L 222.475484 73.942711 
L 221.854812 71.861488 
L 221.234141 71.443561 
L 220.613469 72.807292 
L 219.992798 75.255786 
L 219.372126 77.394732 
L 218.751455 78.476264 
L 218.130783 78.855049 
L 217.510112 78.983831 
L 216.88944 78.732167 
L 216.268768 77.470287 
L 215.648097 75.485906 
L 215.027425 74.080886 
L 214.406754 74.008742 
L 213.786082 75.369936 
L 213.165411 78.004082 
L 212.544739 80.748434 
L 211.924068 81.587903 
L 211.303396 80.757371 
L 210.682725 80.122818 
L 210.062053 80.284977 
L 209.441382 80.947623 
L 208.82071 82.020769 
L 208.200038 83.964714 
L 207.579367 86.884546 
L 206.958695 89.641714 
L 206.338024 91.462978 
L 205.717352 93.750622 
L 205.096681 97.826663 
L 204.476009 103.5078 
L 203.855338 110.064198 
L 203.234666 114.799324 
L 202.613995 113.89817 
L 201.993323 110.553404 
L 201.372652 109.312654 
L 200.75198 110.72202 
L 200.131308 111.954833 
L 199.510637 110.677192 
L 198.889965 109.017037 
L 198.269294 109.445393 
L 197.648622 112.246537 
L 197.027951 115.554895 
L 196.407279 116.950254 
L 195.786608 116.541135 
L 195.165936 114.132913 
L 194.545265 108.569149 
L 193.924593 101.717123 
L 193.303922 96.231982 
L 192.68325 93.200694 
L 192.062578 92.074115 
L 191.441907 91.120194 
L 190.821235 89.115548 
L 190.200564 86.674751 
L 189.579892 84.868282 
L 188.959221 83.566206 
L 188.338549 81.751482 
L 187.717878 79.080095 
L 187.097206 76.251453 
L 186.476535 73.975381 
L 185.855863 72.477165 
L 185.235192 71.580302 
L 184.61452 70.750483 
L 183.993848 69.419054 
L 183.373177 67.781775 
L 182.752505 66.508472 
L 182.131834 65.70608 
L 181.511162 64.94322 
L 180.890491 63.867151 
L 180.269819 62.578115 
L 179.649148 61.494626 
L 179.028476 60.964794 
L 178.407805 60.898267 
L 177.787133 60.753739 
L 177.166462 60.170093 
L 176.54579 59.517614 
L 175.925118 59.326623 
L 175.304447 59.598997 
L 174.683775 59.905007 
L 174.063104 60.073297 
L 173.442432 60.430918 
L 172.821761 61.0911 
L 172.201089 61.923937 
L 171.580418 63.054287 
L 170.959746 64.516416 
L 170.339075 65.950058 
L 169.718403 67.242563 
L 169.097732 68.81374 
L 168.47706 70.816541 
L 167.856388 72.911124 
L 167.235717 74.900791 
L 166.615045 77.074583 
L 165.994374 80.262884 
L 165.373702 85.298276 
L 164.753031 91.47232 
L 164.132359 96.079732 
L 163.511688 98.453733 
L 162.891016 100.907701 
L 162.270345 104.582453 
L 161.649673 109.559604 
L 161.029002 115.73851 
L 160.40833 121.209204 
L 159.787658 123.940944 
L 159.166987 125.246838 
L 158.546315 125.621855 
L 157.925644 126.260942 
L 157.304972 128.025114 
L 156.684301 126.219328 
L 156.063629 119.400985 
L 155.442958 112.044603 
L 154.822286 105.262019 
L 154.201615 99.096921 
L 153.580943 94.250515 
L 152.960272 91.08395 
L 152.3396 88.581581 
L 151.718928 85.015886 
L 151.098257 80.724904 
L 150.477585 77.474929 
L 149.856914 75.558132 
L 149.236242 73.818113 
L 148.615571 71.409148 
L 147.994899 68.639718 
L 147.374228 66.215519 
L 146.753556 64.546306 
L 146.132885 63.499116 
L 145.512213 62.350203 
L 144.891542 60.348027 
L 144.27087 57.746775 
L 143.650198 55.546666 
L 143.029527 54.250052 
L 142.408855 53.575113 
L 141.788184 52.939896 
L 141.167512 52.018954 
L 140.546841 51.097732 
L 139.926169 50.621638 
L 139.305498 50.462708 
L 138.684826 50.208077 
L 138.064155 49.805953 
L 137.443483 49.48714 
L 136.822812 49.598403 
L 136.20214 50.390626 
L 135.581468 51.536505 
L 134.960797 52.383668 
L 134.340125 53.006298 
L 133.719454 54.093433 
L 133.098782 55.88293 
L 132.478111 57.916408 
L 131.857439 59.650814 
L 131.236768 60.931318 
L 130.616096 61.796537 
L 129.995425 62.636681 
L 129.374753 64.166245 
L 128.754082 66.533667 
L 128.13341 68.953526 
L 127.512738 70.681099 
L 126.892067 72.133997 
L 126.271395 73.928797 
L 125.650724 76.109771 
L 125.030052 79.208319 
L 124.409381 84.21495 
L 123.788709 91.149761 
L 123.168038 98.130715 
L 122.547366 102.314342 
L 121.926695 103.805784 
L 121.306023 105.832714 
L 120.685352 109.896651 
L 120.06468 113.591824 
L 119.444008 113.466948 
L 118.823337 110.943018 
L 118.202665 108.13629 
L 117.581994 105.601342 
L 116.961322 103.638663 
L 116.340651 101.910089 
L 115.719979 100.454813 
L 115.099308 99.613953 
L 114.478636 98.779913 
L 113.857965 96.995869 
L 113.237293 93.436741 
L 112.616622 88.122656 
L 111.99595 82.754903 
L 111.375279 79.100567 
L 110.754607 77.36264 
L 110.133935 75.84283 
L 109.513264 72.806959 
L 108.892592 68.888339 
L 108.271921 65.55355 
L 107.651249 63.210852 
L 107.030578 61.405905 
L 106.409906 59.595608 
L 105.789235 57.726783 
L 105.168563 55.986281 
L 104.547892 54.159512 
L 103.92722 52.151683 
L 103.306549 50.521436 
L 102.685877 49.500861 
L 102.065205 48.635138 
L 101.444534 47.685255 
L 100.823862 46.918508 
L 100.203191 46.649785 
L 99.582519 46.885032 
L 98.961848 47.183194 
L 98.341176 47.159537 
L 97.720505 46.990461 
L 97.099833 47.025543 
L 96.479162 47.348001 
L 95.85849 47.798105 
L 95.237819 48.190005 
L 94.617147 48.676287 
L 93.996475 49.773561 
L 93.375804 51.730872 
L 92.755132 54.019558 
L 92.134461 55.875444 
L 91.513789 57.546228 
L 90.893118 59.9329 
L 90.272446 63.179846 
L 89.651775 66.546178 
L 89.031103 69.292593 
L 88.410432 71.512836 
L 87.78976 73.991646 
L 87.169089 77.003478 
L 86.548417 80.152256 
L 85.927745 83.874242 
L 85.307074 89.163603 
L 84.686402 95.344197 
L 84.065731 100.257437 
L 83.445059 104.446606 
L 82.824388 110.675114 
L 82.203716 118.574378 
L 81.583045 121.201852 
L 80.962373 116.668614 
L 80.341702 111.80326 
L 79.72103 108.834344 
L 79.100359 107.453427 
L 78.479687 106.775997 
L 77.859015 104.986408 
L 77.238344 100.316715 
L 76.617672 93.701575 
L 75.997001 87.106424 
L 75.376329 81.343307 
L 74.755658 76.252909 
L 74.134986 71.498359 
L 73.514315 66.926131 
L 72.893643 62.300272 
L 72.272972 57.426167 
L 71.6523 52.636757 
L 71.031629 48.534903 
L 70.410957 45.24898 
L 69.790285 42.268269 
L 69.169614 38.981896 
L 68.548942 35.891631 
L 67.928271 34.950574 
L 67.307599 38.234905 
L 66.686928 47.098915 
L 66.066256 62.27828 
L 65.445585 84.163139 
L 64.824913 112.968124 
z
" clip-path="url(#p3f6ac22759)" style="fill: #4c72b0; fill-opacity: 0.25; stroke: #4c72b0; stroke-width: 0.3"/>
   </g>
   <g id="line2d_55">
    <path d="M 67.500644 43.420779 
L 68.110591 39.70467 
L 68.720538 37.535413 
L 69.330485 36.913011 
L 69.940432 37.837461 
L 70.55038 40.308764 
L 71.160327 44.326921 
L 71.770274 49.89193 
L 72.380221 57.003793 
L 73.600115 75.868078 
L 74.82001 100.919776 
L 76.039904 132.158886 
L 77.259798 169.585408 
L 77.630124 182.355801 
L 77.630124 182.355801 
" clip-path="url(#p3f6ac22759)" style="fill: none; stroke: #4c72b0; stroke-linecap: round"/>
   </g>
   <g id="line2d_56">
    <path d="M 73.709439 182.355801 
L 76.039904 158.247762 
L 78.479693 135.537728 
L 80.919481 115.40191 
L 82.749323 101.989376 
L 84.579164 90.024839 
L 86.409006 79.508299 
L 88.238847 70.439755 
L 90.068689 62.819207 
L 91.288583 58.543285 
L 92.508478 54.910917 
L 93.728372 51.922103 
L 94.948266 49.576842 
L 96.168161 47.875136 
L 96.778108 47.265616 
L 97.388055 46.816984 
L 97.998002 46.529241 
L 98.607949 46.402387 
L 99.217896 46.43642 
L 99.827844 46.631343 
L 100.437791 46.987154 
L 101.047738 47.503853 
L 102.267632 49.019917 
L 103.487527 51.179536 
L 104.707421 53.982708 
L 105.927315 57.429434 
L 107.14721 61.519715 
L 108.367104 66.25355 
L 110.196945 74.560965 
L 112.026787 84.316378 
L 113.856628 95.519787 
L 115.68647 108.171193 
L 117.516311 122.270595 
L 119.346153 137.817994 
L 121.785942 160.800299 
L 123.85767 182.355801 
L 123.85767 182.355801 
" clip-path="url(#p3f6ac22759)" style="fill: none; stroke: #55a868; stroke-linecap: round"/>
   </g>
   <g id="line2d_57">
    <path d="M 112.03317 182.355801 
L 114.466576 158.790027 
L 116.906364 137.481711 
L 119.346153 118.49495 
L 121.175994 105.778398 
L 123.005836 94.367721 
L 124.835677 84.262918 
L 126.665519 75.463989 
L 128.49536 67.970934 
L 129.715255 63.70105 
L 130.935149 60.011554 
L 132.155043 56.902447 
L 133.374938 54.373728 
L 134.594832 52.425398 
L 135.814726 51.057456 
L 136.424674 50.591131 
L 137.034621 50.269903 
L 137.644568 50.093772 
L 138.254515 50.062738 
L 138.864462 50.176802 
L 139.474409 50.435962 
L 140.084357 50.84022 
L 141.304251 52.084026 
L 142.524145 53.908221 
L 143.74404 56.312805 
L 144.963934 59.297777 
L 146.183828 62.863137 
L 147.403723 67.008887 
L 148.623617 71.735024 
L 150.453458 79.912459 
L 152.2833 89.395768 
L 154.113141 100.184951 
L 155.942983 112.280008 
L 157.772824 125.68094 
L 160.212613 145.580208 
L 162.652402 167.80103 
L 164.125168 182.355801 
L 164.125168 182.355801 
" clip-path="url(#p3f6ac22759)" style="fill: none; stroke: #c44e52; stroke-linecap: round"/>
   </g>
   <g id="line2d_58">
    <path d="M 150.756432 182.355801 
L 152.893247 163.246799 
L 155.333036 143.416245 
L 157.772824 125.685182 
L 159.602666 113.764676 
L 161.432507 103.025134 
L 163.262349 93.466556 
L 165.09219 85.088942 
L 166.922032 77.892291 
L 168.751873 71.876605 
L 169.971768 68.522239 
L 171.191662 65.692746 
L 172.411556 63.388125 
L 173.631451 61.608377 
L 174.851345 60.353502 
L 176.071239 59.6235 
L 176.681187 59.455327 
L 177.291134 59.418371 
L 177.901081 59.512634 
L 178.511028 59.738115 
L 179.120975 60.094814 
L 180.34087 61.201867 
L 181.560764 62.833793 
L 182.780658 64.990592 
L 184.000553 67.672264 
L 185.220447 70.878808 
L 186.440341 74.610226 
L 187.660236 78.866516 
L 189.490077 86.235088 
L 191.319919 94.784624 
L 193.14976 104.515124 
L 194.979602 115.426588 
L 196.809443 127.519016 
L 199.249232 145.479308 
L 201.68902 165.539092 
L 203.560762 182.355801 
L 203.560762 182.355801 
" clip-path="url(#p3f6ac22759)" style="fill: none; stroke: #8172b2; stroke-linecap: round"/>
   </g>
   <g id="line2d_59">
    <path d="M 190.149522 182.355801 
L 192.539813 164.22978 
L 194.979602 147.448047 
L 197.41939 132.399409 
L 199.249232 122.250276 
L 201.079073 113.076008 
L 202.908915 104.876607 
L 204.738756 97.652073 
L 206.568598 91.402405 
L 208.398439 86.127604 
L 209.618334 83.152662 
L 210.838228 80.610994 
L 212.058122 78.5026 
L 213.278017 76.82748 
L 214.497911 75.585634 
L 215.717805 74.777063 
L 216.9377 74.401765 
L 218.157594 74.459741 
L 219.377488 74.950991 
L 220.597383 75.875515 
L 221.817277 77.233313 
L 223.037171 79.024385 
L 224.257066 81.248731 
L 225.47696 83.906351 
L 226.696854 86.997245 
L 228.526696 92.445975 
L 230.356537 98.869572 
L 232.186379 106.268034 
L 234.01622 114.641364 
L 235.846062 123.989559 
L 237.675903 134.312622 
L 240.115692 149.593164 
L 242.555481 166.606802 
L 244.618202 182.355801 
L 244.618202 182.355801 
" clip-path="url(#p3f6ac22759)" style="fill: none; stroke: #ccb974; stroke-linecap: round"/>
   </g>
   <g id="line2d_60">
    <path d="M 231.722129 182.355801 
L 234.01622 165.034909 
L 236.456009 148.547689 
L 238.28585 137.482237 
L 240.115692 127.531039 
L 241.945533 118.694095 
L 243.775375 110.971405 
L 245.605216 104.362969 
L 247.435058 98.868787 
L 248.654952 95.825029 
L 249.874847 93.276496 
L 251.094741 91.223186 
L 252.314635 89.6651 
L 253.53453 88.602238 
L 254.754424 88.034601 
L 255.364371 87.936491 
L 255.974318 87.962187 
L 256.584265 88.111689 
L 257.194213 88.384997 
L 258.414107 89.303032 
L 259.634001 90.71629 
L 260.853896 92.624773 
L 262.07379 95.028479 
L 263.293684 97.92741 
L 264.513579 101.321564 
L 265.733473 105.210943 
L 267.563315 111.973556 
L 269.393156 119.850423 
L 271.222998 128.841544 
L 273.052839 138.946919 
L 274.882681 150.166548 
L 276.712522 162.500432 
L 279.152311 180.678894 
L 279.363023 182.355801 
L 279.363023 182.355801 
" clip-path="url(#p3f6ac22759)" style="fill: none; stroke: #64b5cd; stroke-linecap: round"/>
   </g>
   <g id="line2d_61">
    <path d="M 219.377002 182.355801 
L 223.647118 176.746277 
L 228.526696 170.708794 
L 232.796326 165.752067 
L 237.065956 161.099671 
L 241.335586 156.751606 
L 245.605216 152.707873 
L 249.874847 148.968471 
L 254.144477 145.533401 
L 258.414107 142.402663 
L 262.683737 139.576256 
L 266.953367 137.05418 
L 270.61305 135.134624 
L 274.272733 133.438658 
L 277.932416 131.966283 
L 281.592099 130.717499 
L 285.251782 129.692304 
L 288.911465 128.890701 
L 292.571148 128.312688 
L 296.230831 127.958265 
L 299.890514 127.827433 
L 303.550197 127.920191 
L 307.20988 128.23654 
L 310.869563 128.776479 
L 314.529246 129.540009 
L 318.188929 130.527129 
L 321.848612 131.73784 
L 325.508295 133.172141 
L 329.167978 134.830033 
L 332.827661 136.711515 
L 336.487344 138.816588 
L 340.147027 141.145251 
L 344.416658 144.144619 
L 348.686288 147.448317 
L 352.955918 151.056348 
L 357.225548 154.96871 
L 361.495178 159.185403 
L 365.764808 163.706428 
L 370.034439 168.531784 
L 371.86428 170.692956 
L 371.86428 170.692956 
" clip-path="url(#p3f6ac22759)" style="fill: none; stroke: #4c72b0; stroke-linecap: round"/>
   </g>
   <g id="patch_3">
    <path d="M 52.282462 143.788862 
L 52.282462 5.188862 
" style="fill: none"/>
   </g>
   <g id="patch_4">
    <path d="M 387.082462 143.788862 
L 387.082462 5.188862 
" style="fill: none"/>
   </g>
   <g id="patch_5">
    <path d="M 52.282462 143.788862 
L 387.082462 143.788862 
" style="fill: none"/>
   </g>
   <g id="patch_6">
    <path d="M 52.282462 5.188862 
L 387.082462 5.188862 
" style="fill: none"/>
   </g>
   <g id="text_14">
    <!-- 0 -->
    <g transform="translate(69.270934 35.715631) scale(0.1 -0.1)">
     <use xlink:href="#CMR17-30" transform="scale(0.996264)"/>
    </g>
   </g>
   <g id="text_15">
    <!-- 1 -->
    <g transform="translate(98.783897 44.232343) scale(0.1 -0.1)">
     <use xlink:href="#CMR17-31" transform="scale(0.996264)"/>
    </g>
   </g>
   <g id="text_16">
    <!-- 2 -->
    <g transform="translate(138.079999 47.34842) scale(0.1 -0.1)">
     <use xlink:href="#CMR17-32" transform="scale(0.996264)"/>
    </g>
   </g>
   <g id="text_17">
    <!-- 3 -->
    <g transform="translate(177.157942 54.70799) scale(0.1 -0.1)">
     <defs>
      <path id="CMR17-33" d="M 1414 2157 
C 1984 2157 2234 1662 2234 1090 
C 2234 320 1824 25 1453 25 
C 1114 25 563 194 390 693 
C 422 680 454 680 486 680 
C 640 680 755 782 755 948 
C 755 1133 614 1216 486 1216 
C 378 1216 211 1165 211 926 
C 211 335 787 -128 1466 -128 
C 2176 -128 2720 430 2720 1085 
C 2720 1707 2208 2157 1600 2227 
C 2086 2328 2554 2756 2554 3329 
C 2554 3820 2048 4179 1472 4179 
C 890 4179 378 3829 378 3329 
C 378 3110 544 3072 627 3072 
C 762 3072 877 3155 877 3321 
C 877 3486 762 3569 627 3569 
C 602 3569 570 3569 544 3557 
C 730 3959 1235 4032 1459 4032 
C 1683 4032 2106 3925 2106 3320 
C 2106 3143 2080 2828 1862 2550 
C 1670 2304 1453 2304 1242 2284 
C 1210 2284 1062 2269 1037 2269 
C 992 2263 966 2257 966 2208 
C 966 2163 973 2157 1101 2157 
L 1414 2157 
z
" transform="scale(0.015625)"/>
     </defs>
     <use xlink:href="#CMR17-33" transform="scale(0.996264)"/>
    </g>
   </g>
   <g id="text_18">
    <!-- 4 -->
    <g transform="translate(217.384413 63.999987) scale(0.1 -0.1)">
     <use xlink:href="#CMR17-34" transform="scale(0.996264)"/>
    </g>
   </g>
   <g id="text_19">
    <!-- 5 -->
    <g transform="translate(255.542749 69.325771) scale(0.1 -0.1)">
     <defs>
      <path id="CMR17-35" d="M 730 3692 
C 794 3666 1056 3584 1325 3584 
C 1920 3584 2246 3911 2432 4100 
C 2432 4157 2432 4192 2394 4192 
C 2387 4192 2374 4192 2323 4163 
C 2099 4058 1837 3973 1517 3973 
C 1325 3973 1037 3999 723 4139 
C 653 4171 640 4171 634 4171 
C 602 4171 595 4164 595 4037 
L 595 2203 
C 595 2089 595 2057 659 2057 
C 691 2057 704 2070 736 2114 
C 941 2401 1222 2522 1542 2522 
C 1766 2522 2246 2382 2246 1289 
C 2246 1085 2246 715 2054 421 
C 1894 159 1645 25 1370 25 
C 947 25 518 320 403 814 
C 429 807 480 795 506 795 
C 589 795 749 840 749 1038 
C 749 1210 627 1280 506 1280 
C 358 1280 262 1190 262 1011 
C 262 454 704 -128 1382 -128 
C 2042 -128 2669 440 2669 1264 
C 2669 2030 2170 2624 1549 2624 
C 1222 2624 947 2503 730 2274 
L 730 3692 
z
" transform="scale(0.015625)"/>
     </defs>
     <use xlink:href="#CMR17-35" transform="scale(0.996264)"/>
    </g>
   </g>
   <g id="text_20">
    <!-- 6+ -->
    <g transform="translate(300.202107 73.168906) scale(0.1 -0.1)">
     <defs>
      <path id="CMR17-2b" d="M 2413 1472 
L 4109 1472 
C 4198 1472 4307 1472 4307 1580 
C 4307 1695 4205 1695 4109 1695 
L 2413 1695 
L 2413 3386 
C 2413 3475 2413 3584 2304 3584 
C 2189 3584 2189 3482 2189 3386 
L 2189 1695 
L 493 1695 
C 403 1695 294 1695 294 1587 
C 294 1472 397 1472 493 1472 
L 2189 1472 
L 2189 -218 
C 2189 -307 2189 -416 2298 -416 
C 2413 -416 2413 -314 2413 -218 
L 2413 1472 
z
" transform="scale(0.015625)"/>
     </defs>
     <use xlink:href="#CMR17-36" transform="scale(0.996264)"/>
     <use xlink:href="#CMR17-2b" transform="translate(45.690477 0) scale(0.996264)"/>
    </g>
   </g>
   <g id="text_21">
    <!-- Area -->
    <g style="fill: #262626" transform="translate(324.645132 20.93394) scale(0.15 -0.15)">
     <defs>
      <path id="CMR17-41" d="M 2323 4378 
C 2291 4461 2278 4480 2214 4480 
C 2150 4480 2138 4461 2106 4378 
L 749 566 
C 627 223 371 153 147 153 
L 147 -13 
C 262 0 518 0 640 0 
C 800 0 1056 0 1210 -13 
L 1210 153 
C 909 153 864 361 864 439 
C 864 497 877 530 890 569 
L 1229 1536 
L 2906 1536 
L 3290 442 
C 3322 365 3322 352 3322 327 
C 3322 153 3046 153 2925 153 
L 2925 0 
C 3110 0 3443 0 3642 0 
C 3808 0 4128 0 4282 -13 
L 4282 153 
C 3942 153 3827 153 3744 387 
L 2323 4378 
z
M 2067 3893 
L 2848 1702 
L 1286 1702 
L 2067 3893 
z
" transform="scale(0.015625)"/>
      <path id="CMR17-72" d="M 960 1497 
C 960 2112 1222 2688 1702 2688 
C 1747 2688 1792 2682 1837 2662 
C 1837 2662 1696 2617 1696 2452 
C 1696 2298 1818 2234 1914 2234 
C 1990 2234 2131 2279 2131 2458 
C 2131 2663 1926 2790 1709 2790 
C 1222 2790 1011 2317 947 2093 
L 941 2093 
L 941 2790 
L 198 2720 
L 198 2554 
C 576 2554 634 2515 634 2208 
L 634 428 
C 634 184 608 153 198 153 
L 198 -13 
C 352 0 646 0 813 0 
C 998 0 1325 0 1498 -13 
L 1498 153 
C 1037 153 960 153 960 440 
L 960 1497 
z
" transform="scale(0.015625)"/>
      <path id="CMR17-61" d="M 2304 1653 
C 2304 2072 2304 2294 2035 2543 
C 1798 2752 1523 2816 1306 2816 
C 800 2816 435 2407 435 1971 
C 435 1728 627 1728 666 1728 
C 749 1728 896 1778 896 1954 
C 896 2112 774 2181 666 2181 
C 640 2181 608 2174 589 2168 
C 723 2592 1069 2714 1293 2714 
C 1613 2714 1965 2429 1965 1885 
L 1965 1600 
C 1587 1600 1133 1549 774 1357 
C 371 1133 256 813 256 570 
C 256 77 832 -64 1171 -64 
C 1523 -64 1850 139 1990 511 
C 2003 233 2182 -18 2464 -18 
C 2598 -18 2938 70 2938 567 
L 2938 920 
L 2822 920 
L 2822 562 
C 2822 178 2650 128 2566 128 
C 2304 128 2304 458 2304 738 
L 2304 1653 
z
M 1965 870 
C 1965 317 1568 38 1216 38 
C 896 38 646 275 646 570 
C 646 761 730 1100 1101 1305 
C 1408 1478 1760 1504 1965 1504 
L 1965 870 
z
" transform="scale(0.015625)"/>
     </defs>
     <use xlink:href="#CMR17-41" transform="scale(0.996264)"/>
     <use xlink:href="#CMR17-72" transform="translate(69.07243 0) scale(0.996264)"/>
     <use xlink:href="#CMR17-65" transform="translate(104.353198 0) scale(0.996264)"/>
     <use xlink:href="#CMR17-61" transform="translate(144.838858 0) scale(0.996264)"/>
    </g>
   </g>
  </g>
 </g>
 <defs>
  <clipPath id="p3f6ac22759">
   <rect x="52.282462" y="5.188862" width="334.8" height="138.6"/>
  </clipPath>
 </defs>
</svg>
