<?xml version="1.0" encoding="utf-8" standalone="no"?>
<!DOCTYPE svg PUBLIC "-//W3C//DTD SVG 1.1//EN"
  "http://www.w3.org/Graphics/SVG/1.1/DTD/svg11.dtd">
<svg xmlns:xlink="http://www.w3.org/1999/xlink" width="399.496759pt" height="218.286939pt" viewBox="0 0 399.496759 218.286939" xmlns="http://www.w3.org/2000/svg" version="1.1">
 <metadata>
  <rdf:RDF xmlns:dc="http://purl.org/dc/elements/1.1/" xmlns:cc="http://creativecommons.org/ns#" xmlns:rdf="http://www.w3.org/1999/02/22-rdf-syntax-ns#">
   <cc:Work>
    <dc:type rdf:resource="http://purl.org/dc/dcmitype/StillImage"/>
    <dc:date>2024-10-09T14:57:45.385960</dc:date>
    <dc:format>image/svg+xml</dc:format>
    <dc:creator>
     <cc:Agent>
      <dc:title>Matplotlib v3.9.2, https://matplotlib.org/</dc:title>
     </cc:Agent>
    </dc:creator>
   </cc:Work>
  </rdf:RDF>
 </metadata>
 <defs>
  <style type="text/css">*{stroke-linejoin: round; stroke-linecap: butt}</style>
 </defs>
 <g id="figure_1">
  <g id="patch_1">
   <path d="M 0 218.286939 
L 399.496759 218.286939 
L 399.496759 0 
L 0 0 
z
" style="fill: #ffffff"/>
  </g>
  <g id="axes_1">
   <g id="patch_2">
    <path d="M 57.496759 173.52 
L 392.296759 173.52 
L 392.296759 7.2 
L 57.496759 7.2 
z
" style="fill: #eaeaf2"/>
   </g>
   <g id="matplotlib.axis_1">
    <g id="xtick_1">
     <g id="line2d_1">
      <path d="M 72.714941 173.52 
L 72.714941 7.2 
" clip-path="url(#p44aad7675e)" style="fill: none; stroke: #ffffff; stroke-linecap: round"/>
     </g>
     <g id="line2d_2"/>
     <g id="text_1">
      <!-- $\mathdefault{0.0}$ -->
      <g style="fill: #262626" transform="translate(63.366415 190.897725) scale(0.15 -0.15)">
       <defs>
        <path id="CMR17-30" d="M 2688 2025 
C 2688 2416 2682 3080 2413 3591 
C 2176 4039 1798 4198 1466 4198 
C 1158 4198 768 4058 525 3597 
C 269 3118 243 2524 243 2025 
C 243 1661 250 1106 448 619 
C 723 -39 1216 -128 1466 -128 
C 1760 -128 2208 -7 2470 600 
C 2662 1042 2688 1559 2688 2025 
z
M 1466 -26 
C 1056 -26 813 325 723 812 
C 653 1188 653 1738 653 2096 
C 653 2588 653 2997 736 3387 
C 858 3929 1216 4096 1466 4096 
C 1728 4096 2067 3923 2189 3400 
C 2272 3036 2278 2607 2278 2096 
C 2278 1680 2278 1169 2202 792 
C 2067 95 1690 -26 1466 -26 
z
" transform="scale(0.015625)"/>
        <path id="CMMI12-3a" d="M 1178 307 
C 1178 492 1024 619 870 619 
C 685 619 557 466 557 313 
C 557 128 710 0 864 0 
C 1050 0 1178 153 1178 307 
z
" transform="scale(0.015625)"/>
       </defs>
       <use xlink:href="#CMR17-30" transform="scale(0.996264)"/>
       <use xlink:href="#CMMI12-3a" transform="translate(45.690477 0) scale(0.996264)"/>
       <use xlink:href="#CMR17-30" transform="translate(72.787654 0) scale(0.996264)"/>
      </g>
     </g>
    </g>
    <g id="xtick_2">
     <g id="line2d_3">
      <path d="M 133.587669 173.52 
L 133.587669 7.2 
" clip-path="url(#p44aad7675e)" style="fill: none; stroke: #ffffff; stroke-linecap: round"/>
     </g>
     <g id="line2d_4"/>
     <g id="text_2">
      <!-- $\mathdefault{0.2}$ -->
      <g style="fill: #262626" transform="translate(124.239142 190.897725) scale(0.15 -0.15)">
       <defs>
        <path id="CMR17-32" d="M 2669 989 
L 2554 989 
C 2490 536 2438 459 2413 420 
C 2381 369 1920 369 1830 369 
L 602 369 
C 832 619 1280 1072 1824 1597 
C 2214 1967 2669 2402 2669 3035 
C 2669 3790 2067 4224 1395 4224 
C 691 4224 262 3604 262 3030 
C 262 2780 448 2748 525 2748 
C 589 2748 781 2787 781 3010 
C 781 3207 614 3264 525 3264 
C 486 3264 448 3258 422 3245 
C 544 3790 915 4058 1306 4058 
C 1862 4058 2227 3617 2227 3035 
C 2227 2479 1901 2000 1536 1584 
L 262 146 
L 262 0 
L 2515 0 
L 2669 989 
z
" transform="scale(0.015625)"/>
       </defs>
       <use xlink:href="#CMR17-30" transform="scale(0.996264)"/>
       <use xlink:href="#CMMI12-3a" transform="translate(45.690477 0) scale(0.996264)"/>
       <use xlink:href="#CMR17-32" transform="translate(72.787654 0) scale(0.996264)"/>
      </g>
     </g>
    </g>
    <g id="xtick_3">
     <g id="line2d_5">
      <path d="M 194.460396 173.52 
L 194.460396 7.2 
" clip-path="url(#p44aad7675e)" style="fill: none; stroke: #ffffff; stroke-linecap: round"/>
     </g>
     <g id="line2d_6"/>
     <g id="text_3">
      <!-- $\mathdefault{0.4}$ -->
      <g style="fill: #262626" transform="translate(185.11187 190.897725) scale(0.15 -0.15)">
       <defs>
        <path id="CMR17-34" d="M 2150 4122 
C 2150 4256 2144 4256 2029 4256 
L 128 1254 
L 128 1088 
L 1779 1088 
L 1779 457 
C 1779 224 1766 160 1318 160 
L 1197 160 
L 1197 0 
C 1402 0 1747 0 1965 0 
C 2182 0 2528 0 2733 0 
L 2733 160 
L 2611 160 
C 2163 160 2150 224 2150 457 
L 2150 1088 
L 2803 1088 
L 2803 1254 
L 2150 1254 
L 2150 4122 
z
M 1798 3703 
L 1798 1254 
L 256 1254 
L 1798 3703 
z
" transform="scale(0.015625)"/>
       </defs>
       <use xlink:href="#CMR17-30" transform="scale(0.996264)"/>
       <use xlink:href="#CMMI12-3a" transform="translate(45.690477 0) scale(0.996264)"/>
       <use xlink:href="#CMR17-34" transform="translate(72.787654 0) scale(0.996264)"/>
      </g>
     </g>
    </g>
    <g id="xtick_4">
     <g id="line2d_7">
      <path d="M 255.333123 173.52 
L 255.333123 7.2 
" clip-path="url(#p44aad7675e)" style="fill: none; stroke: #ffffff; stroke-linecap: round"/>
     </g>
     <g id="line2d_8"/>
     <g id="text_4">
      <!-- $\mathdefault{0.6}$ -->
      <g style="fill: #262626" transform="translate(245.984597 190.897725) scale(0.15 -0.15)">
       <defs>
        <path id="CMR17-36" d="M 678 2176 
C 678 3690 1395 4032 1811 4032 
C 1946 4032 2272 4009 2400 3776 
C 2298 3776 2106 3776 2106 3553 
C 2106 3381 2246 3323 2336 3323 
C 2394 3323 2566 3348 2566 3560 
C 2566 3954 2246 4179 1805 4179 
C 1043 4179 243 3390 243 1984 
C 243 253 966 -128 1478 -128 
C 2099 -128 2688 427 2688 1283 
C 2688 2081 2170 2662 1517 2662 
C 1126 2662 838 2407 678 1960 
L 678 2176 
z
M 1478 25 
C 691 25 691 1200 691 1436 
C 691 1896 909 2560 1504 2560 
C 1613 2560 1926 2560 2138 2120 
C 2253 1870 2253 1609 2253 1289 
C 2253 944 2253 690 2118 434 
C 1978 171 1773 25 1478 25 
z
" transform="scale(0.015625)"/>
       </defs>
       <use xlink:href="#CMR17-30" transform="scale(0.996264)"/>
       <use xlink:href="#CMMI12-3a" transform="translate(45.690477 0) scale(0.996264)"/>
       <use xlink:href="#CMR17-36" transform="translate(72.787654 0) scale(0.996264)"/>
      </g>
     </g>
    </g>
    <g id="xtick_5">
     <g id="line2d_9">
      <path d="M 316.20585 173.52 
L 316.20585 7.2 
" clip-path="url(#p44aad7675e)" style="fill: none; stroke: #ffffff; stroke-linecap: round"/>
     </g>
     <g id="line2d_10"/>
     <g id="text_5">
      <!-- $\mathdefault{0.8}$ -->
      <g style="fill: #262626" transform="translate(306.857324 190.897725) scale(0.15 -0.15)">
       <defs>
        <path id="CMR17-38" d="M 1741 2264 
C 2144 2467 2554 2773 2554 3263 
C 2554 3841 1990 4179 1472 4179 
C 890 4179 378 3759 378 3180 
C 378 3021 416 2747 666 2505 
C 730 2442 998 2251 1171 2130 
C 883 1983 211 1634 211 934 
C 211 279 838 -128 1459 -128 
C 2144 -128 2720 362 2720 1010 
C 2720 1590 2330 1857 2074 2029 
L 1741 2264 
z
M 902 2822 
C 851 2854 595 3051 595 3351 
C 595 3739 998 4032 1459 4032 
C 1965 4032 2336 3676 2336 3262 
C 2336 2669 1670 2331 1638 2331 
C 1632 2331 1626 2331 1574 2370 
L 902 2822 
z
M 2080 1519 
C 2176 1449 2483 1240 2483 851 
C 2483 381 2010 25 1472 25 
C 890 25 448 438 448 940 
C 448 1443 838 1862 1280 2060 
L 2080 1519 
z
" transform="scale(0.015625)"/>
       </defs>
       <use xlink:href="#CMR17-30" transform="scale(0.996264)"/>
       <use xlink:href="#CMMI12-3a" transform="translate(45.690477 0) scale(0.996264)"/>
       <use xlink:href="#CMR17-38" transform="translate(72.787654 0) scale(0.996264)"/>
      </g>
     </g>
    </g>
    <g id="xtick_6">
     <g id="line2d_11">
      <path d="M 377.078578 173.52 
L 377.078578 7.2 
" clip-path="url(#p44aad7675e)" style="fill: none; stroke: #ffffff; stroke-linecap: round"/>
     </g>
     <g id="line2d_12"/>
     <g id="text_6">
      <!-- $\mathdefault{1.0}$ -->
      <g style="fill: #262626" transform="translate(367.730052 190.897725) scale(0.15 -0.15)">
       <defs>
        <path id="CMR17-31" d="M 1702 4058 
C 1702 4192 1696 4192 1606 4192 
C 1357 3916 979 3827 621 3827 
C 602 3827 570 3827 563 3808 
C 557 3795 557 3782 557 3648 
C 755 3648 1088 3686 1344 3839 
L 1344 461 
C 1344 236 1331 160 781 160 
L 589 160 
L 589 0 
C 896 0 1216 0 1523 0 
C 1830 0 2150 0 2458 0 
L 2458 160 
L 2266 160 
C 1715 160 1702 230 1702 458 
L 1702 4058 
z
" transform="scale(0.015625)"/>
       </defs>
       <use xlink:href="#CMR17-31" transform="scale(0.996264)"/>
       <use xlink:href="#CMMI12-3a" transform="translate(45.690477 0) scale(0.996264)"/>
       <use xlink:href="#CMR17-30" transform="translate(72.787654 0) scale(0.996264)"/>
      </g>
     </g>
    </g>
    <g id="text_7">
     <!-- $s_1$ -->
     <g style="fill: #262626" transform="translate(218.835322 208.181194) scale(0.15 -0.15)">
      <defs>
       <path id="CMMI12-73" d="M 1459 1280 
C 1568 1261 1741 1223 1779 1216 
C 1862 1192 2150 1090 2150 783 
C 2150 586 1971 70 1229 70 
C 1094 70 614 70 486 436 
C 742 404 870 603 870 745 
C 870 880 781 950 653 950 
C 512 950 326 841 326 552 
C 326 173 710 -64 1222 -64 
C 2195 -64 2483 651 2483 984 
C 2483 1079 2483 1258 2278 1462 
C 2118 1616 1965 1648 1619 1718 
C 1446 1756 1171 1814 1171 2101 
C 1171 2229 1286 2689 1894 2689 
C 2163 2689 2426 2589 2490 2368 
C 2208 2368 2195 2125 2195 2119 
C 2195 1984 2317 1946 2374 1946 
C 2464 1946 2643 2015 2643 2281 
C 2643 2545 2400 2816 1901 2816 
C 1062 2816 838 2160 838 1899 
C 838 1414 1312 1312 1459 1280 
z
" transform="scale(0.015625)"/>
      </defs>
      <use xlink:href="#CMMI12-73" transform="scale(0.996264)"/>
      <use xlink:href="#CMR17-31" transform="translate(45.950048 -14.943915) scale(0.697382)"/>
     </g>
    </g>
   </g>
   <g id="matplotlib.axis_2">
    <g id="ytick_1">
     <g id="line2d_13">
      <path d="M 57.496759 134.595088 
L 392.296759 134.595088 
" clip-path="url(#p44aad7675e)" style="fill: none; stroke: #ffffff; stroke-linecap: round"/>
     </g>
     <g id="line2d_14"/>
     <g id="text_8">
      <!-- $\mathdefault{2.5}$ -->
      <g style="fill: #262626" transform="translate(31.799707 139.783951) scale(0.15 -0.15)">
       <defs>
        <path id="CMR17-35" d="M 730 3692 
C 794 3666 1056 3584 1325 3584 
C 1920 3584 2246 3911 2432 4100 
C 2432 4157 2432 4192 2394 4192 
C 2387 4192 2374 4192 2323 4163 
C 2099 4058 1837 3973 1517 3973 
C 1325 3973 1037 3999 723 4139 
C 653 4171 640 4171 634 4171 
C 602 4171 595 4164 595 4037 
L 595 2203 
C 595 2089 595 2057 659 2057 
C 691 2057 704 2070 736 2114 
C 941 2401 1222 2522 1542 2522 
C 1766 2522 2246 2382 2246 1289 
C 2246 1085 2246 715 2054 421 
C 1894 159 1645 25 1370 25 
C 947 25 518 320 403 814 
C 429 807 480 795 506 795 
C 589 795 749 840 749 1038 
C 749 1210 627 1280 506 1280 
C 358 1280 262 1190 262 1011 
C 262 454 704 -128 1382 -128 
C 2042 -128 2669 440 2669 1264 
C 2669 2030 2170 2624 1549 2624 
C 1222 2624 947 2503 730 2274 
L 730 3692 
z
" transform="scale(0.015625)"/>
       </defs>
       <use xlink:href="#CMR17-32" transform="scale(0.996264)"/>
       <use xlink:href="#CMMI12-3a" transform="translate(45.690477 0) scale(0.996264)"/>
       <use xlink:href="#CMR17-35" transform="translate(72.787654 0) scale(0.996264)"/>
      </g>
     </g>
    </g>
    <g id="ytick_2">
     <g id="line2d_15">
      <path d="M 57.496759 95.513852 
L 392.296759 95.513852 
" clip-path="url(#p44aad7675e)" style="fill: none; stroke: #ffffff; stroke-linecap: round"/>
     </g>
     <g id="line2d_16"/>
     <g id="text_9">
      <!-- $\mathdefault{5.0}$ -->
      <g style="fill: #262626" transform="translate(31.799707 100.702714) scale(0.15 -0.15)">
       <use xlink:href="#CMR17-35" transform="scale(0.996264)"/>
       <use xlink:href="#CMMI12-3a" transform="translate(45.690477 0) scale(0.996264)"/>
       <use xlink:href="#CMR17-30" transform="translate(72.787654 0) scale(0.996264)"/>
      </g>
     </g>
    </g>
    <g id="ytick_3">
     <g id="line2d_17">
      <path d="M 57.496759 56.432615 
L 392.296759 56.432615 
" clip-path="url(#p44aad7675e)" style="fill: none; stroke: #ffffff; stroke-linecap: round"/>
     </g>
     <g id="line2d_18"/>
     <g id="text_10">
      <!-- $\mathdefault{7.5}$ -->
      <g style="fill: #262626" transform="translate(31.799707 61.621478) scale(0.15 -0.15)">
       <defs>
        <path id="CMR17-37" d="M 2886 3941 
L 2886 4081 
L 1382 4081 
C 634 4081 621 4165 595 4288 
L 480 4288 
L 294 3094 
L 410 3094 
C 429 3215 474 3540 550 3661 
C 589 3712 1062 3712 1171 3712 
L 2579 3712 
L 1869 2661 
C 1395 1954 1069 999 1069 165 
C 1069 89 1069 -128 1299 -128 
C 1530 -128 1530 89 1530 171 
L 1530 465 
C 1530 1508 1709 2196 2003 2636 
L 2886 3941 
z
" transform="scale(0.015625)"/>
       </defs>
       <use xlink:href="#CMR17-37" transform="scale(0.996264)"/>
       <use xlink:href="#CMMI12-3a" transform="translate(45.690477 0) scale(0.996264)"/>
       <use xlink:href="#CMR17-35" transform="translate(72.787654 0) scale(0.996264)"/>
      </g>
     </g>
    </g>
    <g id="ytick_4">
     <g id="line2d_19">
      <path d="M 57.496759 17.351379 
L 392.296759 17.351379 
" clip-path="url(#p44aad7675e)" style="fill: none; stroke: #ffffff; stroke-linecap: round"/>
     </g>
     <g id="line2d_20"/>
     <g id="text_11">
      <!-- $\mathdefault{10.0}$ -->
      <g style="fill: #262626" transform="translate(24.483469 22.540241) scale(0.15 -0.15)">
       <use xlink:href="#CMR17-31" transform="scale(0.996264)"/>
       <use xlink:href="#CMR17-30" transform="translate(45.690477 0) scale(0.996264)"/>
       <use xlink:href="#CMMI12-3a" transform="translate(91.380954 0) scale(0.996264)"/>
       <use xlink:href="#CMR17-30" transform="translate(118.478131 0) scale(0.996264)"/>
      </g>
     </g>
    </g>
    <g id="text_12">
     <!-- Density -->
     <g style="fill: #262626" transform="translate(17.577725 114.685185) rotate(-90) scale(0.15 -0.15)">
      <defs>
       <path id="CMR17-44" d="M 333 4352 
L 333 4186 
C 774 4186 845 4186 845 3900 
L 845 452 
C 845 166 774 166 333 166 
L 333 0 
L 2368 0 
C 3398 0 4224 943 4224 2141 
C 4224 3346 3411 4352 2368 4352 
L 333 4352 
z
M 1523 166 
C 1267 166 1254 197 1254 414 
L 1254 3938 
C 1254 4155 1267 4186 1523 4186 
L 2240 4186 
C 2771 4186 3750 3874 3750 2141 
C 3750 1242 3488 879 3366 707 
C 3213 510 2848 166 2240 166 
L 1523 166 
z
" transform="scale(0.015625)"/>
       <path id="CMR17-65" d="M 2438 1472 
C 2464 1498 2464 1511 2464 1576 
C 2464 2238 2118 2816 1389 2816 
C 710 2816 173 2169 173 1383 
C 173 551 781 -64 1459 -64 
C 2176 -64 2458 607 2458 740 
C 2458 784 2419 784 2406 784 
C 2362 784 2355 771 2330 696 
C 2189 265 1837 51 1504 51 
C 1229 51 954 203 781 480 
C 582 803 582 1176 582 1472 
L 2438 1472 
z
M 589 1568 
C 634 2505 1126 2714 1382 2714 
C 1818 2714 2112 2297 2118 1568 
L 589 1568 
z
" transform="scale(0.015625)"/>
       <path id="CMR17-6e" d="M 2656 1933 
C 2656 2259 2592 2790 1837 2790 
C 1331 2790 1069 2400 973 2144 
L 966 2144 
L 966 2790 
L 211 2720 
L 211 2554 
C 589 2554 646 2515 646 2208 
L 646 428 
C 646 184 621 153 211 153 
L 211 -13 
C 365 0 646 0 813 0 
C 979 0 1267 0 1421 -13 
L 1421 153 
C 1011 153 986 178 986 428 
L 986 1658 
C 986 2247 1344 2688 1792 2688 
C 2266 2688 2317 2266 2317 1958 
L 2317 428 
C 2317 184 2291 153 1882 153 
L 1882 -13 
C 2035 0 2317 0 2483 0 
C 2650 0 2938 0 3091 -13 
L 3091 153 
C 2682 153 2656 178 2656 428 
L 2656 1933 
z
" transform="scale(0.015625)"/>
       <path id="CMR17-73" d="M 1978 2697 
C 1978 2813 1971 2819 1933 2819 
C 1907 2819 1901 2813 1824 2717 
C 1805 2691 1747 2626 1728 2601 
C 1523 2819 1235 2819 1126 2819 
C 416 2819 160 2447 160 2076 
C 160 1498 813 1365 998 1325 
C 1402 1243 1542 1217 1677 1101 
C 1760 1025 1901 884 1901 654 
C 1901 384 1747 38 1158 38 
C 602 38 403 460 288 1021 
C 269 1110 269 1117 218 1117 
C 166 1117 160 1110 160 983 
L 160 63 
C 160 -51 166 -58 205 -58 
C 237 -58 243 -51 275 0 
C 314 57 410 211 448 276 
C 576 103 800 -64 1158 -64 
C 1792 -64 2131 283 2131 784 
C 2131 1112 1958 1285 1875 1362 
C 1683 1561 1459 1606 1190 1657 
C 838 1735 390 1825 390 2217 
C 390 2383 480 2737 1126 2737 
C 1811 2737 1850 2094 1862 1888 
C 1869 1856 1901 1849 1920 1849 
C 1978 1849 1978 1869 1978 1978 
L 1978 2697 
z
" transform="scale(0.015625)"/>
       <path id="CMR17-69" d="M 992 3909 
C 992 4049 877 4170 730 4170 
C 589 4170 467 4056 467 3909 
C 467 3769 582 3648 730 3648 
C 870 3648 992 3763 992 3909 
z
M 243 2706 
L 243 2541 
C 602 2541 653 2502 653 2197 
L 653 427 
C 653 184 627 153 218 153 
L 218 -13 
C 371 0 646 0 806 0 
C 960 0 1222 0 1370 -13 
L 1370 153 
C 992 153 979 191 979 420 
L 979 2776 
L 243 2706 
z
" transform="scale(0.015625)"/>
       <path id="CMR17-74" d="M 966 2560 
L 1862 2560 
L 1862 2725 
L 966 2725 
L 966 3904 
L 851 3904 
C 838 3245 614 2668 70 2668 
L 70 2560 
L 627 2560 
L 627 771 
C 627 650 627 -64 1370 -64 
C 1747 -64 1965 306 1965 777 
L 1965 1140 
L 1850 1140 
L 1850 783 
C 1850 344 1677 51 1408 51 
C 1222 51 966 178 966 758 
L 966 2560 
z
" transform="scale(0.015625)"/>
       <path id="CMR17-79" d="M 2496 2197 
C 2656 2586 2944 2586 3034 2586 
L 3034 2752 
C 2912 2752 2752 2752 2630 2752 
C 2496 2752 2285 2752 2157 2758 
L 2157 2592 
C 2400 2573 2406 2394 2406 2343 
C 2406 2280 2394 2248 2362 2171 
L 1664 449 
L 902 2306 
C 870 2382 870 2426 870 2433 
C 870 2573 1018 2586 1171 2586 
L 1171 2758 
C 1018 2752 742 2752 582 2752 
C 410 2752 205 2752 64 2758 
L 64 2586 
C 410 2586 448 2554 531 2350 
L 1485 15 
C 1197 -738 1030 -1178 627 -1178 
C 557 -1178 397 -1159 282 -1044 
C 429 -1031 493 -942 493 -833 
C 493 -725 416 -629 288 -629 
C 147 -629 77 -725 77 -840 
C 77 -1095 339 -1280 627 -1280 
C 998 -1280 1229 -922 1357 -604 
L 2496 2197 
z
" transform="scale(0.015625)"/>
      </defs>
      <use xlink:href="#CMR17-44" transform="scale(0.996264)"/>
      <use xlink:href="#CMR17-65" transform="translate(70.393556 0) scale(0.996264)"/>
      <use xlink:href="#CMR17-6e" transform="translate(110.879216 0) scale(0.996264)"/>
      <use xlink:href="#CMR17-73" transform="translate(161.774586 0) scale(0.996264)"/>
      <use xlink:href="#CMR17-69" transform="translate(197.575924 0) scale(0.996264)"/>
      <use xlink:href="#CMR17-74" transform="translate(222.446982 0) scale(0.996264)"/>
      <use xlink:href="#CMR17-79" transform="translate(255.125296 0) scale(0.996264)"/>
     </g>
    </g>
   </g>
   <g id="PolyCollection_1">
    <defs>
     <path id="m205b96d84c" d="M 71.828625 -44.617618 
L 71.828625 -44.610614 
L 72.442124 -44.610614 
L 73.055624 -44.610614 
L 73.669124 -44.610614 
L 74.282623 -44.610614 
L 74.896123 -44.610614 
L 75.509622 -44.610614 
L 76.123122 -44.610614 
L 76.736621 -44.610614 
L 77.350121 -44.610614 
L 77.96362 -44.610614 
L 78.57712 -44.610614 
L 79.190619 -44.610614 
L 79.804119 -44.610614 
L 80.417618 -44.610614 
L 81.031118 -44.610614 
L 81.644618 -44.610614 
L 82.258117 -44.610614 
L 82.871617 -44.610614 
L 83.485116 -44.610614 
L 84.098616 -44.610614 
L 84.712115 -44.610614 
L 85.325615 -44.610614 
L 85.939114 -44.610614 
L 86.552614 -44.610614 
L 87.166113 -44.610614 
L 87.779613 -44.610614 
L 88.393112 -44.610614 
L 89.006612 -44.610614 
L 89.620111 -44.610614 
L 90.233611 -44.610614 
L 90.847111 -44.610614 
L 91.46061 -44.610614 
L 92.07411 -44.610614 
L 92.687609 -44.610614 
L 93.301109 -44.610614 
L 93.914608 -44.610614 
L 94.528108 -44.610614 
L 95.141607 -44.610614 
L 95.755107 -44.610614 
L 96.368606 -44.610614 
L 96.982106 -44.610614 
L 97.595605 -44.610614 
L 98.209105 -44.610614 
L 98.822605 -44.610614 
L 99.436104 -44.610614 
L 100.049604 -44.610614 
L 100.663103 -44.610614 
L 101.276603 -44.610614 
L 101.890102 -44.610614 
L 102.503602 -44.610614 
L 103.117101 -44.610614 
L 103.730601 -44.610614 
L 104.3441 -44.610614 
L 104.9576 -44.610614 
L 105.571099 -44.610614 
L 106.184599 -44.610614 
L 106.798099 -44.610614 
L 107.411598 -44.610614 
L 108.025098 -44.610614 
L 108.638597 -44.610614 
L 109.252097 -44.610614 
L 109.865596 -44.610614 
L 110.479096 -44.610614 
L 111.092595 -44.610614 
L 111.706095 -44.610614 
L 112.319594 -44.610614 
L 112.933094 -44.610614 
L 113.546593 -44.610614 
L 114.160093 -44.610614 
L 114.773593 -44.610614 
L 115.387092 -44.610614 
L 116.000592 -44.610614 
L 116.614091 -44.610614 
L 117.227591 -44.610614 
L 117.84109 -44.610614 
L 118.45459 -44.610614 
L 119.068089 -44.610614 
L 119.681589 -44.610614 
L 120.295088 -44.610614 
L 120.908588 -44.610614 
L 121.522087 -44.610614 
L 122.135587 -44.610614 
L 122.749087 -44.610614 
L 123.362586 -44.610614 
L 123.976086 -44.610614 
L 124.589585 -44.610614 
L 125.203085 -44.610614 
L 125.816584 -44.610614 
L 126.430084 -44.610614 
L 127.043583 -44.610614 
L 127.657083 -44.610614 
L 128.270582 -44.610614 
L 128.884082 -44.610614 
L 129.497581 -44.610614 
L 130.111081 -44.610614 
L 130.72458 -44.610614 
L 131.33808 -44.610614 
L 131.95158 -44.610614 
L 132.565079 -44.610614 
L 133.178579 -44.610614 
L 133.792078 -44.610614 
L 134.405578 -44.610614 
L 135.019077 -44.610614 
L 135.632577 -44.610614 
L 136.246076 -44.610614 
L 136.859576 -44.610614 
L 137.473075 -44.610614 
L 138.086575 -44.610614 
L 138.700074 -44.610614 
L 139.313574 -44.610614 
L 139.927074 -44.610614 
L 140.540573 -44.610614 
L 141.154073 -44.610614 
L 141.767572 -44.610614 
L 142.381072 -44.610614 
L 142.994571 -44.610614 
L 143.608071 -44.610614 
L 144.22157 -44.610614 
L 144.83507 -44.610614 
L 145.448569 -44.610614 
L 146.062069 -44.610614 
L 146.675568 -44.610614 
L 147.289068 -44.610614 
L 147.902568 -44.610614 
L 148.516067 -44.610614 
L 149.129567 -44.610614 
L 149.743066 -44.610614 
L 150.356566 -44.610614 
L 150.970065 -44.610614 
L 151.583565 -44.610614 
L 152.197064 -44.610614 
L 152.810564 -44.610614 
L 153.424063 -44.610614 
L 154.037563 -44.610614 
L 154.651062 -44.610614 
L 155.264562 -44.610614 
L 155.878062 -44.610614 
L 156.491561 -44.610614 
L 157.105061 -44.610614 
L 157.71856 -44.610614 
L 158.33206 -44.610614 
L 158.945559 -44.610614 
L 159.559059 -44.610614 
L 160.172558 -44.610614 
L 160.786058 -44.610614 
L 161.399557 -44.610614 
L 162.013057 -44.610614 
L 162.626556 -44.610614 
L 163.240056 -44.610614 
L 163.853556 -44.610614 
L 164.467055 -44.610614 
L 165.080555 -44.610614 
L 165.694054 -44.610614 
L 166.307554 -44.610614 
L 166.921053 -44.610614 
L 167.534553 -44.610614 
L 168.148052 -44.610614 
L 168.761552 -44.610614 
L 169.375051 -44.610614 
L 169.988551 -44.610614 
L 170.60205 -44.610614 
L 171.21555 -44.610614 
L 171.829049 -44.610614 
L 172.442549 -44.610614 
L 173.056049 -44.610614 
L 173.669548 -44.610614 
L 174.283048 -44.610614 
L 174.896547 -44.610614 
L 175.510047 -44.610614 
L 176.123546 -44.610614 
L 176.737046 -44.610614 
L 177.350545 -44.610614 
L 177.964045 -44.610614 
L 178.577544 -44.610614 
L 179.191044 -44.610614 
L 179.804543 -44.610614 
L 180.418043 -44.610614 
L 181.031543 -44.610614 
L 181.645042 -44.610614 
L 182.258542 -44.610614 
L 182.872041 -44.610614 
L 183.485541 -44.610614 
L 184.09904 -44.610614 
L 184.71254 -44.610614 
L 185.326039 -44.610614 
L 185.939539 -44.610614 
L 186.553038 -44.610614 
L 187.166538 -44.610614 
L 187.780037 -44.610614 
L 188.393537 -44.610614 
L 189.007037 -44.610614 
L 189.620536 -44.610614 
L 190.234036 -44.610614 
L 190.847535 -44.610614 
L 191.461035 -44.610614 
L 192.074534 -44.610614 
L 192.688034 -44.610614 
L 193.301533 -44.610614 
L 193.915033 -44.610614 
L 194.528532 -44.610614 
L 195.142032 -44.610614 
L 195.755531 -44.610614 
L 196.369031 -44.610614 
L 196.982531 -44.610614 
L 197.59603 -44.610614 
L 198.20953 -44.610614 
L 198.823029 -44.610614 
L 199.436529 -44.610614 
L 200.050028 -44.610614 
L 200.663528 -44.610614 
L 201.277027 -44.610614 
L 201.890527 -44.610614 
L 202.504026 -44.610614 
L 203.117526 -44.610614 
L 203.731025 -44.610614 
L 204.344525 -44.610614 
L 204.958025 -44.610614 
L 205.571524 -44.610614 
L 206.185024 -44.610614 
L 206.798523 -44.610614 
L 207.412023 -44.610614 
L 208.025522 -44.610614 
L 208.639022 -44.610614 
L 209.252521 -44.610614 
L 209.866021 -44.610614 
L 210.47952 -44.610614 
L 211.09302 -44.610614 
L 211.706519 -44.610614 
L 212.320019 -44.610614 
L 212.933518 -44.610614 
L 213.547018 -44.610614 
L 214.160518 -44.610614 
L 214.774017 -44.610614 
L 215.387517 -44.610614 
L 216.001016 -44.610614 
L 216.614516 -44.610614 
L 217.228015 -44.610614 
L 217.841515 -44.610614 
L 218.455014 -44.610614 
L 219.068514 -44.610614 
L 219.682013 -44.610614 
L 220.295513 -44.610614 
L 220.909012 -44.610614 
L 221.522512 -44.610614 
L 222.136012 -44.610614 
L 222.749511 -44.610614 
L 223.363011 -44.610614 
L 223.97651 -44.610614 
L 224.59001 -44.610614 
L 225.203509 -44.610614 
L 225.817009 -44.610614 
L 226.430508 -44.610614 
L 227.044008 -44.610614 
L 227.657507 -44.610614 
L 228.271007 -44.610614 
L 228.884506 -44.610614 
L 229.498006 -44.610614 
L 230.111506 -44.610614 
L 230.725005 -44.610614 
L 231.338505 -44.610614 
L 231.952004 -44.610614 
L 232.565504 -44.610614 
L 233.179003 -44.610614 
L 233.792503 -44.610614 
L 234.406002 -44.610614 
L 235.019502 -44.610614 
L 235.633001 -44.610614 
L 236.246501 -44.610614 
L 236.86 -44.610614 
L 237.4735 -44.610614 
L 238.087 -44.610614 
L 238.700499 -44.610614 
L 239.313999 -44.610614 
L 239.927498 -44.610614 
L 240.540998 -44.610614 
L 241.154497 -44.610614 
L 241.767997 -44.610614 
L 242.381496 -44.610614 
L 242.994996 -44.610614 
L 243.608495 -44.610614 
L 244.221995 -44.610614 
L 244.835494 -44.610614 
L 245.448994 -44.610614 
L 246.062494 -44.610614 
L 246.675993 -44.610614 
L 247.289493 -44.610614 
L 247.902992 -44.610614 
L 248.516492 -44.610614 
L 249.129991 -44.610614 
L 249.743491 -44.610614 
L 250.35699 -44.610614 
L 250.97049 -44.610614 
L 251.583989 -44.610614 
L 252.197489 -44.610614 
L 252.810988 -44.610614 
L 253.424488 -44.610614 
L 254.037987 -44.610614 
L 254.651487 -44.610614 
L 255.264987 -44.610614 
L 255.878486 -44.610614 
L 256.491986 -44.610614 
L 257.105485 -44.610614 
L 257.718985 -44.610614 
L 258.332484 -44.610614 
L 258.945984 -44.610614 
L 259.559483 -44.610614 
L 260.172983 -44.610614 
L 260.786482 -44.610614 
L 261.399982 -44.610614 
L 262.013481 -44.610614 
L 262.626981 -44.610614 
L 263.240481 -44.610614 
L 263.85398 -44.610614 
L 264.46748 -44.610614 
L 265.080979 -44.610614 
L 265.694479 -44.610614 
L 266.307978 -44.610614 
L 266.921478 -44.610614 
L 267.534977 -44.610614 
L 268.148477 -44.610614 
L 268.761976 -44.610614 
L 269.375476 -44.610614 
L 269.988975 -44.610614 
L 270.602475 -44.610614 
L 271.215975 -44.610614 
L 271.829474 -44.610614 
L 272.442974 -44.610614 
L 273.056473 -44.610614 
L 273.669973 -44.610614 
L 274.283472 -44.610614 
L 274.896972 -44.610614 
L 275.510471 -44.610614 
L 276.123971 -44.610614 
L 276.73747 -44.610614 
L 277.35097 -44.610614 
L 277.964469 -44.610614 
L 278.577969 -44.610614 
L 279.191469 -44.610614 
L 279.804968 -44.610614 
L 280.418468 -44.610614 
L 281.031967 -44.610614 
L 281.645467 -44.610614 
L 282.258966 -44.610614 
L 282.872466 -44.610614 
L 283.485965 -44.610614 
L 284.099465 -44.610614 
L 284.712964 -44.610614 
L 285.326464 -44.610614 
L 285.939963 -44.610614 
L 286.553463 -44.610614 
L 287.166963 -44.610614 
L 287.780462 -44.610614 
L 288.393962 -44.610614 
L 289.007461 -44.610614 
L 289.620961 -44.610614 
L 290.23446 -44.610614 
L 290.84796 -44.610614 
L 291.461459 -44.610614 
L 292.074959 -44.610614 
L 292.688458 -44.610614 
L 293.301958 -44.610614 
L 293.915457 -44.610614 
L 294.528957 -44.610614 
L 295.142456 -44.610614 
L 295.755956 -44.610614 
L 296.369456 -44.610614 
L 296.982955 -44.610614 
L 297.596455 -44.610614 
L 298.209954 -44.610614 
L 298.823454 -44.610614 
L 299.436953 -44.610614 
L 300.050453 -44.610614 
L 300.663952 -44.610614 
L 301.277452 -44.610614 
L 301.890951 -44.610614 
L 302.504451 -44.610614 
L 303.11795 -44.610614 
L 303.73145 -44.610614 
L 304.34495 -44.610614 
L 304.958449 -44.610614 
L 305.571949 -44.610614 
L 306.185448 -44.610614 
L 306.798948 -44.610614 
L 307.412447 -44.610614 
L 308.025947 -44.610614 
L 308.639446 -44.610614 
L 309.252946 -44.610614 
L 309.866445 -44.610614 
L 310.479945 -44.610614 
L 311.093444 -44.610614 
L 311.706944 -44.610614 
L 312.320444 -44.610614 
L 312.933943 -44.610614 
L 313.547443 -44.610614 
L 314.160942 -44.610614 
L 314.774442 -44.610614 
L 315.387941 -44.610614 
L 316.001441 -44.610614 
L 316.61494 -44.610614 
L 317.22844 -44.610614 
L 317.841939 -44.610614 
L 318.455439 -44.610614 
L 319.068938 -44.610614 
L 319.682438 -44.610614 
L 320.295938 -44.610614 
L 320.909437 -44.610614 
L 321.522937 -44.610614 
L 322.136436 -44.610614 
L 322.749936 -44.610614 
L 323.363435 -44.610614 
L 323.976935 -44.610614 
L 324.590434 -44.610614 
L 325.203934 -44.610614 
L 325.817433 -44.610614 
L 326.430933 -44.610614 
L 327.044432 -44.610614 
L 327.657932 -44.610614 
L 328.271432 -44.610614 
L 328.884931 -44.610614 
L 329.498431 -44.610614 
L 330.11193 -44.610614 
L 330.72543 -44.610614 
L 331.338929 -44.610614 
L 331.952429 -44.610614 
L 332.565928 -44.610614 
L 333.179428 -44.610614 
L 333.792927 -44.610614 
L 334.406427 -44.610614 
L 335.019926 -44.610614 
L 335.633426 -44.610614 
L 336.246925 -44.610614 
L 336.860425 -44.610614 
L 337.473925 -44.610614 
L 338.087424 -44.610614 
L 338.700924 -44.610614 
L 339.314423 -44.610614 
L 339.927923 -44.610614 
L 340.541422 -44.610614 
L 341.154922 -44.610614 
L 341.768421 -44.610614 
L 342.381921 -44.610614 
L 342.99542 -44.610614 
L 343.60892 -44.610614 
L 344.222419 -44.610614 
L 344.835919 -44.610614 
L 345.449419 -44.610614 
L 346.062918 -44.610614 
L 346.676418 -44.610614 
L 347.289917 -44.610614 
L 347.903417 -44.610614 
L 348.516916 -44.610614 
L 349.130416 -44.610614 
L 349.743915 -44.610614 
L 350.357415 -44.610614 
L 350.970914 -44.610614 
L 351.584414 -44.610614 
L 352.197913 -44.610614 
L 352.811413 -44.610614 
L 353.424913 -44.610614 
L 354.038412 -44.610614 
L 354.651912 -44.610614 
L 355.265411 -44.610614 
L 355.878911 -44.610614 
L 356.49241 -44.610614 
L 357.10591 -44.610614 
L 357.719409 -44.610614 
L 358.332909 -44.610614 
L 358.946408 -44.610614 
L 359.559908 -44.610614 
L 360.173407 -44.610614 
L 360.786907 -44.610614 
L 361.400407 -44.610614 
L 362.013906 -44.610614 
L 362.627406 -44.610614 
L 363.240905 -44.610614 
L 363.854405 -44.610614 
L 364.467904 -44.610614 
L 365.081404 -44.610614 
L 365.694903 -44.610614 
L 366.308403 -44.610614 
L 366.921902 -44.610614 
L 367.535402 -44.610614 
L 368.148901 -44.610614 
L 368.762401 -44.610614 
L 369.375901 -44.610614 
L 369.9894 -44.610614 
L 370.6029 -44.610614 
L 371.216399 -44.610614 
L 371.829899 -44.610614 
L 372.443398 -44.610614 
L 373.056898 -44.610614 
L 373.670397 -44.610614 
L 374.283897 -44.610614 
L 374.897396 -44.610614 
L 375.510896 -44.610614 
L 376.124395 -44.610614 
L 376.737895 -44.610614 
L 377.351394 -44.610614 
L 377.964894 -44.610614 
L 377.964894 -44.617618 
L 377.964894 -44.617618 
L 377.351394 -45.022219 
L 376.737895 -44.936762 
L 376.124395 -44.995172 
L 375.510896 -45.704582 
L 374.897396 -44.655234 
L 374.283897 -44.610646 
L 373.670397 -44.626414 
L 373.056898 -45.124779 
L 372.443398 -44.903302 
L 371.829899 -46.23806 
L 371.216399 -47.615306 
L 370.6029 -47.260647 
L 369.9894 -48.301727 
L 369.375901 -47.12588 
L 368.762401 -47.473906 
L 368.148901 -47.607319 
L 367.535402 -45.539785 
L 366.921902 -45.234337 
L 366.308403 -46.29317 
L 365.694903 -46.809053 
L 365.081404 -47.273408 
L 364.467904 -46.268986 
L 363.854405 -47.15896 
L 363.240905 -47.663687 
L 362.627406 -46.761956 
L 362.013906 -48.251946 
L 361.400407 -48.744692 
L 360.786907 -48.001309 
L 360.173407 -48.590441 
L 359.559908 -47.487398 
L 358.946408 -45.784803 
L 358.332909 -47.194643 
L 357.719409 -47.816442 
L 357.10591 -48.341527 
L 356.49241 -48.127131 
L 355.878911 -48.377746 
L 355.265411 -48.011811 
L 354.651912 -46.515657 
L 354.038412 -46.37799 
L 353.424913 -45.997075 
L 352.811413 -45.534713 
L 352.197913 -45.374016 
L 351.584414 -45.227478 
L 350.970914 -45.460907 
L 350.357415 -46.021445 
L 349.743915 -45.316386 
L 349.130416 -44.843219 
L 348.516916 -45.868076 
L 347.903417 -45.408037 
L 347.289917 -45.471678 
L 346.676418 -45.011373 
L 346.062918 -45.692439 
L 345.449419 -44.673762 
L 344.835919 -44.953179 
L 344.222419 -45.003731 
L 343.60892 -44.616662 
L 342.99542 -44.610615 
L 342.381921 -44.610614 
L 341.768421 -44.610614 
L 341.154922 -44.610614 
L 340.541422 -44.610726 
L 339.927923 -44.683088 
L 339.314423 -45.241447 
L 338.700924 -44.81678 
L 338.087424 -45.211417 
L 337.473925 -44.647076 
L 336.860425 -44.610644 
L 336.246925 -44.610614 
L 335.633426 -44.610614 
L 335.019926 -44.610614 
L 334.406427 -44.610614 
L 333.792927 -44.610614 
L 333.179428 -44.610614 
L 332.565928 -44.610614 
L 331.952429 -44.610614 
L 331.338929 -44.610614 
L 330.72543 -44.611953 
L 330.11193 -44.836808 
L 329.498431 -45.122819 
L 328.884931 -44.688918 
L 328.271432 -45.366918 
L 327.657932 -45.953584 
L 327.044432 -44.778032 
L 326.430933 -44.795616 
L 325.817433 -45.164282 
L 325.203934 -44.632863 
L 324.590434 -44.618935 
L 323.976935 -45.044358 
L 323.363435 -45.04669 
L 322.749936 -45.251087 
L 322.136436 -45.266069 
L 321.522937 -45.476378 
L 320.909437 -45.889239 
L 320.295938 -45.383072 
L 319.682438 -47.169846 
L 319.068938 -45.457675 
L 318.455439 -45.99305 
L 317.841939 -47.004582 
L 317.22844 -46.271782 
L 316.61494 -48.458646 
L 316.001441 -48.168229 
L 315.387941 -48.618507 
L 314.774442 -48.588963 
L 314.160942 -47.797916 
L 313.547443 -47.999841 
L 312.933943 -47.658278 
L 312.320444 -49.105491 
L 311.706944 -50.331099 
L 311.093444 -50.937082 
L 310.479945 -49.950305 
L 309.866445 -47.716351 
L 309.252946 -51.05387 
L 308.639446 -49.310668 
L 308.025947 -49.7104 
L 307.412447 -51.243887 
L 306.798948 -50.864376 
L 306.185448 -51.452501 
L 305.571949 -49.798542 
L 304.958449 -50.266117 
L 304.34495 -50.168057 
L 303.73145 -49.355385 
L 303.11795 -50.780987 
L 302.504451 -51.407492 
L 301.890951 -55.551139 
L 301.277452 -53.716839 
L 300.663952 -50.097639 
L 300.050453 -52.829747 
L 299.436953 -52.009317 
L 298.823454 -50.62715 
L 298.209954 -50.534112 
L 297.596455 -49.956395 
L 296.982955 -47.908967 
L 296.369456 -49.868992 
L 295.755956 -49.208664 
L 295.142456 -48.795524 
L 294.528957 -50.153768 
L 293.915457 -48.668684 
L 293.301958 -47.93455 
L 292.688458 -46.905679 
L 292.074959 -49.914151 
L 291.461459 -49.918859 
L 290.84796 -46.100504 
L 290.23446 -46.173651 
L 289.620961 -48.349735 
L 289.007461 -47.305323 
L 288.393962 -47.642655 
L 287.780462 -45.95514 
L 287.166963 -46.619826 
L 286.553463 -47.215475 
L 285.939963 -46.509214 
L 285.326464 -46.387915 
L 284.712964 -44.688657 
L 284.099465 -45.814549 
L 283.485965 -45.689519 
L 282.872466 -45.795308 
L 282.258966 -44.901922 
L 281.645467 -44.611716 
L 281.031967 -44.61062 
L 280.418468 -44.627669 
L 279.804968 -45.374576 
L 279.191469 -45.322549 
L 278.577969 -44.629057 
L 277.964469 -45.060487 
L 277.35097 -46.143902 
L 276.73747 -45.037391 
L 276.123971 -45.209656 
L 275.510471 -44.645771 
L 274.896972 -44.610685 
L 274.283472 -44.655135 
L 273.669973 -45.225189 
L 273.056473 -44.724336 
L 272.442974 -44.610896 
L 271.829474 -44.610614 
L 271.215975 -44.610614 
L 270.602475 -44.610614 
L 269.988975 -44.610614 
L 269.375476 -44.610614 
L 268.761976 -44.610631 
L 268.148477 -44.639368 
L 267.534977 -45.452757 
L 266.921478 -45.248827 
L 266.307978 -45.009982 
L 265.694479 -45.222443 
L 265.080979 -45.090425 
L 264.46748 -44.803384 
L 263.85398 -46.652298 
L 263.240481 -45.429051 
L 262.626981 -45.032185 
L 262.013481 -47.303179 
L 261.399982 -46.422059 
L 260.786482 -49.004577 
L 260.172983 -46.900942 
L 259.559483 -47.608094 
L 258.945984 -45.702949 
L 258.332484 -45.092219 
L 257.718985 -48.853832 
L 257.105485 -50.97501 
L 256.491986 -50.694418 
L 255.878486 -56.04536 
L 255.264987 -53.643608 
L 254.651487 -53.869109 
L 254.037987 -51.090507 
L 253.424488 -53.091401 
L 252.810988 -54.906983 
L 252.197489 -59.096629 
L 251.583989 -60.613699 
L 250.97049 -63.369422 
L 250.35699 -69.522592 
L 249.743491 -71.966137 
L 249.129991 -70.87114 
L 248.516492 -83.335112 
L 247.902992 -79.991802 
L 247.289493 -70.112551 
L 246.675993 -68.10735 
L 246.062494 -72.894132 
L 245.448994 -79.441789 
L 244.835494 -79.146567 
L 244.221995 -76.223565 
L 243.608495 -81.660964 
L 242.994996 -82.129679 
L 242.381496 -71.988095 
L 241.767997 -68.771031 
L 241.154497 -62.172895 
L 240.540998 -57.89689 
L 239.927498 -57.353201 
L 239.313999 -58.258438 
L 238.700499 -56.069858 
L 238.087 -54.789616 
L 237.4735 -50.177359 
L 236.86 -48.331649 
L 236.246501 -50.102984 
L 235.633001 -50.138373 
L 235.019502 -49.431167 
L 234.406002 -47.963811 
L 233.792503 -48.1321 
L 233.179003 -46.816889 
L 232.565504 -44.86215 
L 231.952004 -45.236076 
L 231.338505 -45.613114 
L 230.725005 -45.79903 
L 230.111506 -45.270155 
L 229.498006 -44.87485 
L 228.884506 -44.672291 
L 228.271007 -45.240049 
L 227.657507 -44.97765 
L 227.044008 -45.777214 
L 226.430508 -46.1832 
L 225.817009 -47.066729 
L 225.203509 -46.112894 
L 224.59001 -45.905651 
L 223.97651 -45.514162 
L 223.363011 -45.570666 
L 222.749511 -45.196399 
L 222.136012 -45.556895 
L 221.522512 -47.463156 
L 220.909012 -46.430289 
L 220.295513 -47.92553 
L 219.682013 -47.969235 
L 219.068514 -50.110913 
L 218.455014 -49.280933 
L 217.841515 -54.980897 
L 217.228015 -55.304283 
L 216.614516 -55.942826 
L 216.001016 -58.841013 
L 215.387517 -61.902579 
L 214.774017 -63.57256 
L 214.160518 -67.372807 
L 213.547018 -70.582206 
L 212.933518 -76.775148 
L 212.320019 -76.12424 
L 211.706519 -86.078108 
L 211.09302 -87.533469 
L 210.47952 -90.317128 
L 209.866021 -89.33242 
L 209.252521 -93.327195 
L 208.639022 -95.99066 
L 208.025522 -95.18154 
L 207.412023 -99.602692 
L 206.798523 -90.497153 
L 206.185024 -96.30081 
L 205.571524 -100.824643 
L 204.958025 -97.598139 
L 204.344525 -101.933009 
L 203.731025 -104.879979 
L 203.117526 -102.676726 
L 202.504026 -92.895263 
L 201.890527 -83.936808 
L 201.277027 -81.64902 
L 200.663528 -77.081751 
L 200.050028 -76.846525 
L 199.436529 -74.340801 
L 198.823029 -64.9898 
L 198.20953 -73.0881 
L 197.59603 -66.135198 
L 196.982531 -59.360315 
L 196.369031 -59.236587 
L 195.755531 -55.680912 
L 195.142032 -57.318904 
L 194.528532 -56.742404 
L 193.915033 -53.612179 
L 193.301533 -50.771978 
L 192.688034 -49.258905 
L 192.074534 -50.022553 
L 191.461035 -48.39303 
L 190.847535 -47.693554 
L 190.234036 -47.113083 
L 189.620536 -44.970436 
L 189.007037 -45.83306 
L 188.393537 -45.782047 
L 187.780037 -46.664526 
L 187.166538 -45.833577 
L 186.553038 -45.305516 
L 185.939539 -45.141218 
L 185.326039 -45.065876 
L 184.71254 -44.664741 
L 184.09904 -45.228138 
L 183.485541 -45.167821 
L 182.872041 -47.034848 
L 182.258542 -46.894367 
L 181.645042 -44.818992 
L 181.031543 -44.611014 
L 180.418043 -44.630639 
L 179.804543 -45.152615 
L 179.191044 -44.86089 
L 178.577544 -45.882985 
L 177.964045 -46.234633 
L 177.350545 -45.120936 
L 176.737046 -47.313983 
L 176.123546 -45.46652 
L 175.510047 -46.309488 
L 174.896547 -48.775216 
L 174.283048 -48.874985 
L 173.669548 -50.932078 
L 173.056049 -50.936183 
L 172.442549 -51.56493 
L 171.829049 -51.293493 
L 171.21555 -53.449482 
L 170.60205 -57.255258 
L 169.988551 -60.028742 
L 169.375051 -61.571302 
L 168.761552 -62.164873 
L 168.148052 -62.63687 
L 167.534553 -65.613356 
L 166.921053 -75.719578 
L 166.307554 -80.770035 
L 165.694054 -80.603361 
L 165.080555 -83.534294 
L 164.467055 -81.139846 
L 163.853556 -93.541374 
L 163.240056 -100.149389 
L 162.626556 -110.449079 
L 162.013057 -101.392029 
L 161.399557 -109.731337 
L 160.786058 -130.343451 
L 160.172558 -123.360143 
L 159.559059 -123.563866 
L 158.945559 -123.649118 
L 158.33206 -124.542451 
L 157.71856 -129.097343 
L 157.105061 -132.599442 
L 156.491561 -122.26916 
L 155.878062 -127.388264 
L 155.264562 -116.96303 
L 154.651062 -116.586456 
L 154.037563 -113.112693 
L 153.424063 -105.495003 
L 152.810564 -97.017695 
L 152.197064 -94.320501 
L 151.583565 -99.519702 
L 150.970065 -87.718917 
L 150.356566 -84.031176 
L 149.743066 -76.876363 
L 149.129567 -74.620449 
L 148.516067 -73.22647 
L 147.902568 -64.044518 
L 147.289068 -61.022662 
L 146.675568 -63.256963 
L 146.062069 -59.495882 
L 145.448569 -58.501824 
L 144.83507 -53.717195 
L 144.22157 -56.144333 
L 143.608071 -50.717152 
L 142.994571 -50.828341 
L 142.381072 -51.443672 
L 141.767572 -48.842783 
L 141.154073 -48.020253 
L 140.540573 -46.856107 
L 139.927074 -46.413206 
L 139.313574 -46.936557 
L 138.700074 -45.767501 
L 138.086575 -45.676909 
L 137.473075 -44.95956 
L 136.859576 -45.066635 
L 136.246076 -46.236537 
L 135.632577 -45.526325 
L 135.019077 -45.008499 
L 134.405578 -46.382444 
L 133.792078 -45.661699 
L 133.178579 -45.903831 
L 132.565079 -46.113055 
L 131.95158 -44.746196 
L 131.33808 -45.159859 
L 130.72458 -45.155864 
L 130.111081 -45.745316 
L 129.497581 -45.348075 
L 128.884082 -44.731878 
L 128.270582 -45.260926 
L 127.657083 -45.25203 
L 127.043583 -44.749292 
L 126.430084 -44.617039 
L 125.816584 -45.221335 
L 125.203085 -45.488393 
L 124.589585 -45.637825 
L 123.976086 -45.905608 
L 123.362586 -46.455886 
L 122.749087 -45.808974 
L 122.135587 -45.628144 
L 121.522087 -46.404309 
L 120.908588 -47.187038 
L 120.295088 -50.223235 
L 119.681589 -52.528056 
L 119.068089 -50.901138 
L 118.45459 -51.038534 
L 117.84109 -47.560183 
L 117.227591 -52.402577 
L 116.614091 -61.213919 
L 116.000592 -62.933966 
L 115.387092 -65.14195 
L 114.773593 -67.764687 
L 114.160093 -70.685907 
L 113.546593 -85.186115 
L 112.933094 -116.724935 
L 112.319594 -115.779722 
L 111.706095 -133.625219 
L 111.092595 -156.954138 
L 110.479096 -163.037474 
L 109.865596 -173.15211 
L 109.252097 -191.672527 
L 108.638597 -192.562787 
L 108.025098 -203.159495 
L 107.411598 -179.318642 
L 106.798099 -173.874283 
L 106.184599 -154.586242 
L 105.571099 -143.059796 
L 104.9576 -122.704089 
L 104.3441 -117.066319 
L 103.730601 -102.925808 
L 103.117101 -97.693241 
L 102.503602 -82.877848 
L 101.890102 -68.328767 
L 101.276603 -65.709719 
L 100.663103 -59.759172 
L 100.049604 -54.796951 
L 99.436104 -56.210808 
L 98.822605 -56.670711 
L 98.209105 -55.29714 
L 97.595605 -50.27751 
L 96.982106 -49.253858 
L 96.368606 -47.376684 
L 95.755107 -48.010205 
L 95.141607 -47.899198 
L 94.528108 -46.852671 
L 93.914608 -46.943787 
L 93.301109 -45.763069 
L 92.687609 -47.811866 
L 92.07411 -46.959598 
L 91.46061 -46.198952 
L 90.847111 -45.528103 
L 90.233611 -45.272216 
L 89.620111 -44.837999 
L 89.006612 -45.907874 
L 88.393112 -46.976322 
L 87.779613 -46.423374 
L 87.166113 -45.170676 
L 86.552614 -46.974349 
L 85.939114 -53.168777 
L 85.325615 -59.878018 
L 84.712115 -60.004231 
L 84.098616 -69.423873 
L 83.485116 -73.955151 
L 82.871617 -86.99026 
L 82.258117 -104.575147 
L 81.644618 -114.357119 
L 81.031118 -141.969277 
L 80.417618 -151.315489 
L 79.804119 -150.218761 
L 79.190619 -143.170247 
L 78.57712 -142.742668 
L 77.96362 -117.857173 
L 77.350121 -103.868855 
L 76.736621 -88.056835 
L 76.123122 -66.909051 
L 75.509622 -60.312068 
L 74.896123 -51.544613 
L 74.282623 -48.166791 
L 73.669124 -45.019947 
L 73.055624 -44.935893 
L 72.442124 -45.022219 
L 71.828625 -44.617618 
z
" style="stroke: #4c72b0; stroke-width: 0.3"/>
    </defs>
    <g clip-path="url(#p44aad7675e)">
     <use xlink:href="#m205b96d84c" x="0" y="218.286939" style="fill: #4c72b0; fill-opacity: 0.25; stroke: #4c72b0; stroke-width: 0.3"/>
    </g>
   </g>
   <g id="patch_3">
    <path d="M 57.496759 173.52 
L 57.496759 7.2 
" style="fill: none"/>
   </g>
   <g id="patch_4">
    <path d="M 392.296759 173.52 
L 392.296759 7.2 
" style="fill: none"/>
   </g>
   <g id="patch_5">
    <path d="M 57.496759 173.52 
L 392.296759 173.52 
" style="fill: none"/>
   </g>
   <g id="patch_6">
    <path d="M 57.496759 7.2 
L 392.296759 7.2 
" style="fill: none"/>
   </g>
   <g id="text_13">
    <!-- 0 -->
    <g transform="translate(80.088033 55.835245) scale(0.1 -0.1)">
     <use xlink:href="#CMR17-30" transform="scale(0.996264)"/>
    </g>
   </g>
   <g id="text_14">
    <!-- 1 -->
    <g transform="translate(108.280354 34.745724) scale(0.1 -0.1)">
     <use xlink:href="#CMR17-31" transform="scale(0.996264)"/>
    </g>
   </g>
   <g id="text_15">
    <!-- 2 -->
    <g transform="translate(157.776858 82.0321) scale(0.1 -0.1)">
     <use xlink:href="#CMR17-32" transform="scale(0.996264)"/>
    </g>
   </g>
   <g id="text_16">
    <!-- 3 -->
    <g transform="translate(206.051062 104.115221) scale(0.1 -0.1)">
     <defs>
      <path id="CMR17-33" d="M 1414 2157 
C 1984 2157 2234 1662 2234 1090 
C 2234 320 1824 25 1453 25 
C 1114 25 563 194 390 693 
C 422 680 454 680 486 680 
C 640 680 755 782 755 948 
C 755 1133 614 1216 486 1216 
C 378 1216 211 1165 211 926 
C 211 335 787 -128 1466 -128 
C 2176 -128 2720 430 2720 1085 
C 2720 1707 2208 2157 1600 2227 
C 2086 2328 2554 2756 2554 3329 
C 2554 3820 2048 4179 1472 4179 
C 890 4179 378 3829 378 3329 
C 378 3110 544 3072 627 3072 
C 762 3072 877 3155 877 3321 
C 877 3486 762 3569 627 3569 
C 602 3569 570 3569 544 3557 
C 730 3959 1235 4032 1459 4032 
C 1683 4032 2106 3925 2106 3320 
C 2106 3143 2080 2828 1862 2550 
C 1670 2304 1453 2304 1242 2284 
C 1210 2284 1062 2269 1037 2269 
C 992 2263 966 2257 966 2208 
C 966 2163 973 2157 1101 2157 
L 1414 2157 
z
" transform="scale(0.015625)"/>
     </defs>
     <use xlink:href="#CMR17-33" transform="scale(0.996264)"/>
    </g>
   </g>
   <g id="text_17">
    <!-- 4 -->
    <g transform="translate(246.433703 127.879516) scale(0.1 -0.1)">
     <use xlink:href="#CMR17-34" transform="scale(0.996264)"/>
    </g>
   </g>
   <g id="text_18">
    <!-- 5 -->
    <g transform="translate(302.739638 151.440099) scale(0.1 -0.1)">
     <use xlink:href="#CMR17-35" transform="scale(0.996264)"/>
    </g>
   </g>
   <g id="text_19">
    <!-- 6+ -->
    <g transform="translate(361.005013 161.541016) scale(0.1 -0.1)">
     <defs>
      <path id="CMR17-2b" d="M 2413 1472 
L 4109 1472 
C 4198 1472 4307 1472 4307 1580 
C 4307 1695 4205 1695 4109 1695 
L 2413 1695 
L 2413 3386 
C 2413 3475 2413 3584 2304 3584 
C 2189 3584 2189 3482 2189 3386 
L 2189 1695 
L 493 1695 
C 403 1695 294 1695 294 1587 
C 294 1472 397 1472 493 1472 
L 2189 1472 
L 2189 -218 
C 2189 -307 2189 -416 2298 -416 
C 2413 -416 2413 -314 2413 -218 
L 2413 1472 
z
" transform="scale(0.015625)"/>
     </defs>
     <use xlink:href="#CMR17-36" transform="scale(0.996264)"/>
     <use xlink:href="#CMR17-2b" transform="translate(45.690477 0) scale(0.996264)"/>
    </g>
   </g>
  </g>
 </g>
 <defs>
  <clipPath id="p44aad7675e">
   <rect x="57.496759" y="7.2" width="334.8" height="166.32"/>
  </clipPath>
 </defs>
</svg>
