<?xml version="1.0" encoding="utf-8" standalone="no"?>
<!DOCTYPE svg PUBLIC "-//W3C//DTD SVG 1.1//EN"
  "http://www.w3.org/Graphics/SVG/1.1/DTD/svg11.dtd">
<svg xmlns:xlink="http://www.w3.org/1999/xlink" width="401.482462pt" height="223.475801pt" viewBox="0 0 401.482462 223.475801" xmlns="http://www.w3.org/2000/svg" version="1.1">
 <metadata>
  <rdf:RDF xmlns:dc="http://purl.org/dc/elements/1.1/" xmlns:cc="http://creativecommons.org/ns#" xmlns:rdf="http://www.w3.org/1999/02/22-rdf-syntax-ns#">
   <cc:Work>
    <dc:type rdf:resource="http://purl.org/dc/dcmitype/StillImage"/>
    <dc:date>2024-10-09T14:55:12.507308</dc:date>
    <dc:format>image/svg+xml</dc:format>
    <dc:creator>
     <cc:Agent>
      <dc:title>Matplotlib v3.9.2, https://matplotlib.org/</dc:title>
     </cc:Agent>
    </dc:creator>
   </cc:Work>
  </rdf:RDF>
 </metadata>
 <defs>
  <style type="text/css">*{stroke-linejoin: round; stroke-linecap: butt}</style>
 </defs>
 <g id="figure_1">
  <g id="patch_1">
   <path d="M 0 223.475801 
L 401.482462 223.475801 
L 401.482462 -0 
L 0 -0 
z
" style="fill: #ffffff"/>
  </g>
  <g id="axes_1">
   <g id="patch_2">
    <path d="M 59.482462 178.708862 
L 394.282462 178.708862 
L 394.282462 12.388862 
L 59.482462 12.388862 
z
" style="fill: #eaeaf2"/>
   </g>
   <g id="matplotlib.axis_1">
    <g id="xtick_1">
     <g id="line2d_1">
      <path d="M 74.700644 178.708862 
L 74.700644 12.388862 
" clip-path="url(#pc55d9dd88e)" style="fill: none; stroke: #ffffff; stroke-linecap: round"/>
     </g>
     <g id="line2d_2"/>
     <g id="text_1">
      <!-- $\mathdefault{0.0}$ -->
      <g style="fill: #262626" transform="translate(65.352118 196.086587) scale(0.15 -0.15)">
       <defs>
        <path id="CMR17-30" d="M 2688 2025 
C 2688 2416 2682 3080 2413 3591 
C 2176 4039 1798 4198 1466 4198 
C 1158 4198 768 4058 525 3597 
C 269 3118 243 2524 243 2025 
C 243 1661 250 1106 448 619 
C 723 -39 1216 -128 1466 -128 
C 1760 -128 2208 -7 2470 600 
C 2662 1042 2688 1559 2688 2025 
z
M 1466 -26 
C 1056 -26 813 325 723 812 
C 653 1188 653 1738 653 2096 
C 653 2588 653 2997 736 3387 
C 858 3929 1216 4096 1466 4096 
C 1728 4096 2067 3923 2189 3400 
C 2272 3036 2278 2607 2278 2096 
C 2278 1680 2278 1169 2202 792 
C 2067 95 1690 -26 1466 -26 
z
" transform="scale(0.015625)"/>
        <path id="CMMI12-3a" d="M 1178 307 
C 1178 492 1024 619 870 619 
C 685 619 557 466 557 313 
C 557 128 710 0 864 0 
C 1050 0 1178 153 1178 307 
z
" transform="scale(0.015625)"/>
       </defs>
       <use xlink:href="#CMR17-30" transform="scale(0.996264)"/>
       <use xlink:href="#CMMI12-3a" transform="translate(45.690477 0) scale(0.996264)"/>
       <use xlink:href="#CMR17-30" transform="translate(72.787654 0) scale(0.996264)"/>
      </g>
     </g>
    </g>
    <g id="xtick_2">
     <g id="line2d_3">
      <path d="M 135.573371 178.708862 
L 135.573371 12.388862 
" clip-path="url(#pc55d9dd88e)" style="fill: none; stroke: #ffffff; stroke-linecap: round"/>
     </g>
     <g id="line2d_4"/>
     <g id="text_2">
      <!-- $\mathdefault{0.2}$ -->
      <g style="fill: #262626" transform="translate(126.224845 196.086587) scale(0.15 -0.15)">
       <defs>
        <path id="CMR17-32" d="M 2669 989 
L 2554 989 
C 2490 536 2438 459 2413 420 
C 2381 369 1920 369 1830 369 
L 602 369 
C 832 619 1280 1072 1824 1597 
C 2214 1967 2669 2402 2669 3035 
C 2669 3790 2067 4224 1395 4224 
C 691 4224 262 3604 262 3030 
C 262 2780 448 2748 525 2748 
C 589 2748 781 2787 781 3010 
C 781 3207 614 3264 525 3264 
C 486 3264 448 3258 422 3245 
C 544 3790 915 4058 1306 4058 
C 1862 4058 2227 3617 2227 3035 
C 2227 2479 1901 2000 1536 1584 
L 262 146 
L 262 0 
L 2515 0 
L 2669 989 
z
" transform="scale(0.015625)"/>
       </defs>
       <use xlink:href="#CMR17-30" transform="scale(0.996264)"/>
       <use xlink:href="#CMMI12-3a" transform="translate(45.690477 0) scale(0.996264)"/>
       <use xlink:href="#CMR17-32" transform="translate(72.787654 0) scale(0.996264)"/>
      </g>
     </g>
    </g>
    <g id="xtick_3">
     <g id="line2d_5">
      <path d="M 196.446098 178.708862 
L 196.446098 12.388862 
" clip-path="url(#pc55d9dd88e)" style="fill: none; stroke: #ffffff; stroke-linecap: round"/>
     </g>
     <g id="line2d_6"/>
     <g id="text_3">
      <!-- $\mathdefault{0.4}$ -->
      <g style="fill: #262626" transform="translate(187.097572 196.086587) scale(0.15 -0.15)">
       <defs>
        <path id="CMR17-34" d="M 2150 4122 
C 2150 4256 2144 4256 2029 4256 
L 128 1254 
L 128 1088 
L 1779 1088 
L 1779 457 
C 1779 224 1766 160 1318 160 
L 1197 160 
L 1197 0 
C 1402 0 1747 0 1965 0 
C 2182 0 2528 0 2733 0 
L 2733 160 
L 2611 160 
C 2163 160 2150 224 2150 457 
L 2150 1088 
L 2803 1088 
L 2803 1254 
L 2150 1254 
L 2150 4122 
z
M 1798 3703 
L 1798 1254 
L 256 1254 
L 1798 3703 
z
" transform="scale(0.015625)"/>
       </defs>
       <use xlink:href="#CMR17-30" transform="scale(0.996264)"/>
       <use xlink:href="#CMMI12-3a" transform="translate(45.690477 0) scale(0.996264)"/>
       <use xlink:href="#CMR17-34" transform="translate(72.787654 0) scale(0.996264)"/>
      </g>
     </g>
    </g>
    <g id="xtick_4">
     <g id="line2d_7">
      <path d="M 257.318826 178.708862 
L 257.318826 12.388862 
" clip-path="url(#pc55d9dd88e)" style="fill: none; stroke: #ffffff; stroke-linecap: round"/>
     </g>
     <g id="line2d_8"/>
     <g id="text_4">
      <!-- $\mathdefault{0.6}$ -->
      <g style="fill: #262626" transform="translate(247.970299 196.086587) scale(0.15 -0.15)">
       <defs>
        <path id="CMR17-36" d="M 678 2176 
C 678 3690 1395 4032 1811 4032 
C 1946 4032 2272 4009 2400 3776 
C 2298 3776 2106 3776 2106 3553 
C 2106 3381 2246 3323 2336 3323 
C 2394 3323 2566 3348 2566 3560 
C 2566 3954 2246 4179 1805 4179 
C 1043 4179 243 3390 243 1984 
C 243 253 966 -128 1478 -128 
C 2099 -128 2688 427 2688 1283 
C 2688 2081 2170 2662 1517 2662 
C 1126 2662 838 2407 678 1960 
L 678 2176 
z
M 1478 25 
C 691 25 691 1200 691 1436 
C 691 1896 909 2560 1504 2560 
C 1613 2560 1926 2560 2138 2120 
C 2253 1870 2253 1609 2253 1289 
C 2253 944 2253 690 2118 434 
C 1978 171 1773 25 1478 25 
z
" transform="scale(0.015625)"/>
       </defs>
       <use xlink:href="#CMR17-30" transform="scale(0.996264)"/>
       <use xlink:href="#CMMI12-3a" transform="translate(45.690477 0) scale(0.996264)"/>
       <use xlink:href="#CMR17-36" transform="translate(72.787654 0) scale(0.996264)"/>
      </g>
     </g>
    </g>
    <g id="xtick_5">
     <g id="line2d_9">
      <path d="M 318.191553 178.708862 
L 318.191553 12.388862 
" clip-path="url(#pc55d9dd88e)" style="fill: none; stroke: #ffffff; stroke-linecap: round"/>
     </g>
     <g id="line2d_10"/>
     <g id="text_5">
      <!-- $\mathdefault{0.8}$ -->
      <g style="fill: #262626" transform="translate(308.843027 196.086587) scale(0.15 -0.15)">
       <defs>
        <path id="CMR17-38" d="M 1741 2264 
C 2144 2467 2554 2773 2554 3263 
C 2554 3841 1990 4179 1472 4179 
C 890 4179 378 3759 378 3180 
C 378 3021 416 2747 666 2505 
C 730 2442 998 2251 1171 2130 
C 883 1983 211 1634 211 934 
C 211 279 838 -128 1459 -128 
C 2144 -128 2720 362 2720 1010 
C 2720 1590 2330 1857 2074 2029 
L 1741 2264 
z
M 902 2822 
C 851 2854 595 3051 595 3351 
C 595 3739 998 4032 1459 4032 
C 1965 4032 2336 3676 2336 3262 
C 2336 2669 1670 2331 1638 2331 
C 1632 2331 1626 2331 1574 2370 
L 902 2822 
z
M 2080 1519 
C 2176 1449 2483 1240 2483 851 
C 2483 381 2010 25 1472 25 
C 890 25 448 438 448 940 
C 448 1443 838 1862 1280 2060 
L 2080 1519 
z
" transform="scale(0.015625)"/>
       </defs>
       <use xlink:href="#CMR17-30" transform="scale(0.996264)"/>
       <use xlink:href="#CMMI12-3a" transform="translate(45.690477 0) scale(0.996264)"/>
       <use xlink:href="#CMR17-38" transform="translate(72.787654 0) scale(0.996264)"/>
      </g>
     </g>
    </g>
    <g id="xtick_6">
     <g id="line2d_11">
      <path d="M 379.06428 178.708862 
L 379.06428 12.388862 
" clip-path="url(#pc55d9dd88e)" style="fill: none; stroke: #ffffff; stroke-linecap: round"/>
     </g>
     <g id="line2d_12"/>
     <g id="text_6">
      <!-- $\mathdefault{1.0}$ -->
      <g style="fill: #262626" transform="translate(369.715754 196.086587) scale(0.15 -0.15)">
       <defs>
        <path id="CMR17-31" d="M 1702 4058 
C 1702 4192 1696 4192 1606 4192 
C 1357 3916 979 3827 621 3827 
C 602 3827 570 3827 563 3808 
C 557 3795 557 3782 557 3648 
C 755 3648 1088 3686 1344 3839 
L 1344 461 
C 1344 236 1331 160 781 160 
L 589 160 
L 589 0 
C 896 0 1216 0 1523 0 
C 1830 0 2150 0 2458 0 
L 2458 160 
L 2266 160 
C 1715 160 1702 230 1702 458 
L 1702 4058 
z
" transform="scale(0.015625)"/>
       </defs>
       <use xlink:href="#CMR17-31" transform="scale(0.996264)"/>
       <use xlink:href="#CMMI12-3a" transform="translate(45.690477 0) scale(0.996264)"/>
       <use xlink:href="#CMR17-30" transform="translate(72.787654 0) scale(0.996264)"/>
      </g>
     </g>
    </g>
    <g id="text_7">
     <!-- $s_1$ -->
     <g style="fill: #262626" transform="translate(220.821025 213.370057) scale(0.15 -0.15)">
      <defs>
       <path id="CMMI12-73" d="M 1459 1280 
C 1568 1261 1741 1223 1779 1216 
C 1862 1192 2150 1090 2150 783 
C 2150 586 1971 70 1229 70 
C 1094 70 614 70 486 436 
C 742 404 870 603 870 745 
C 870 880 781 950 653 950 
C 512 950 326 841 326 552 
C 326 173 710 -64 1222 -64 
C 2195 -64 2483 651 2483 984 
C 2483 1079 2483 1258 2278 1462 
C 2118 1616 1965 1648 1619 1718 
C 1446 1756 1171 1814 1171 2101 
C 1171 2229 1286 2689 1894 2689 
C 2163 2689 2426 2589 2490 2368 
C 2208 2368 2195 2125 2195 2119 
C 2195 1984 2317 1946 2374 1946 
C 2464 1946 2643 2015 2643 2281 
C 2643 2545 2400 2816 1901 2816 
C 1062 2816 838 2160 838 1899 
C 838 1414 1312 1312 1459 1280 
z
" transform="scale(0.015625)"/>
      </defs>
      <use xlink:href="#CMMI12-73" transform="scale(0.996264)"/>
      <use xlink:href="#CMR17-31" transform="translate(45.950048 -14.943915) scale(0.697382)"/>
     </g>
    </g>
   </g>
   <g id="matplotlib.axis_2">
    <g id="ytick_1">
     <g id="line2d_13">
      <path d="M 59.482462 178.708862 
L 394.282462 178.708862 
" clip-path="url(#pc55d9dd88e)" style="fill: none; stroke: #ffffff; stroke-linecap: round"/>
     </g>
     <g id="line2d_14"/>
     <g id="text_8">
      <!-- $\mathdefault{10^{-2}}$ -->
      <g style="fill: #262626" transform="translate(24.483469 183.897725) scale(0.15 -0.15)">
       <defs>
        <path id="CMSY10-0" d="M 4218 1472 
C 4326 1472 4442 1472 4442 1600 
C 4442 1728 4326 1728 4218 1728 
L 755 1728 
C 646 1728 531 1728 531 1600 
C 531 1472 646 1472 755 1472 
L 4218 1472 
z
" transform="scale(0.015625)"/>
       </defs>
       <use xlink:href="#CMR17-31" transform="scale(0.996264)"/>
       <use xlink:href="#CMR17-30" transform="translate(45.690477 0) scale(0.996264)"/>
       <use xlink:href="#CMSY10-0" transform="translate(91.380954 36.153639) scale(0.697382)"/>
       <use xlink:href="#CMR17-32" transform="translate(145.621947 36.153639) scale(0.697382)"/>
      </g>
     </g>
    </g>
    <g id="ytick_2">
     <g id="line2d_15">
      <path d="M 59.482462 137.128862 
L 394.282462 137.128862 
" clip-path="url(#pc55d9dd88e)" style="fill: none; stroke: #ffffff; stroke-linecap: round"/>
     </g>
     <g id="line2d_16"/>
     <g id="text_9">
      <!-- $\mathdefault{10^{-1}}$ -->
      <g style="fill: #262626" transform="translate(24.483469 142.317725) scale(0.15 -0.15)">
       <use xlink:href="#CMR17-31" transform="scale(0.996264)"/>
       <use xlink:href="#CMR17-30" transform="translate(45.690477 0) scale(0.996264)"/>
       <use xlink:href="#CMSY10-0" transform="translate(91.380954 36.153639) scale(0.697382)"/>
       <use xlink:href="#CMR17-31" transform="translate(145.621947 36.153639) scale(0.697382)"/>
      </g>
     </g>
    </g>
    <g id="ytick_3">
     <g id="line2d_17">
      <path d="M 59.482462 95.548862 
L 394.282462 95.548862 
" clip-path="url(#pc55d9dd88e)" style="fill: none; stroke: #ffffff; stroke-linecap: round"/>
     </g>
     <g id="line2d_18"/>
     <g id="text_10">
      <!-- $\mathdefault{10^{0}}$ -->
      <g style="fill: #262626" transform="translate(32.619615 100.737725) scale(0.15 -0.15)">
       <use xlink:href="#CMR17-31" transform="scale(0.996264)"/>
       <use xlink:href="#CMR17-30" transform="translate(45.690477 0) scale(0.996264)"/>
       <use xlink:href="#CMR17-30" transform="translate(91.380954 36.153639) scale(0.697382)"/>
      </g>
     </g>
    </g>
    <g id="ytick_4">
     <g id="line2d_19">
      <path d="M 59.482462 53.968862 
L 394.282462 53.968862 
" clip-path="url(#pc55d9dd88e)" style="fill: none; stroke: #ffffff; stroke-linecap: round"/>
     </g>
     <g id="line2d_20"/>
     <g id="text_11">
      <!-- $\mathdefault{10^{1}}$ -->
      <g style="fill: #262626" transform="translate(32.619615 59.157725) scale(0.15 -0.15)">
       <use xlink:href="#CMR17-31" transform="scale(0.996264)"/>
       <use xlink:href="#CMR17-30" transform="translate(45.690477 0) scale(0.996264)"/>
       <use xlink:href="#CMR17-31" transform="translate(91.380954 36.153639) scale(0.697382)"/>
      </g>
     </g>
    </g>
    <g id="ytick_5">
     <g id="line2d_21">
      <path d="M 59.482462 12.388862 
L 394.282462 12.388862 
" clip-path="url(#pc55d9dd88e)" style="fill: none; stroke: #ffffff; stroke-linecap: round"/>
     </g>
     <g id="line2d_22"/>
     <g id="text_12">
      <!-- $\mathdefault{10^{2}}$ -->
      <g style="fill: #262626" transform="translate(32.619615 17.577725) scale(0.15 -0.15)">
       <use xlink:href="#CMR17-31" transform="scale(0.996264)"/>
       <use xlink:href="#CMR17-30" transform="translate(45.690477 0) scale(0.996264)"/>
       <use xlink:href="#CMR17-32" transform="translate(91.380954 36.153639) scale(0.697382)"/>
      </g>
     </g>
    </g>
    <g id="ytick_6">
     <g id="line2d_23"/>
    </g>
    <g id="ytick_7">
     <g id="line2d_24"/>
    </g>
    <g id="ytick_8">
     <g id="line2d_25"/>
    </g>
    <g id="ytick_9">
     <g id="line2d_26"/>
    </g>
    <g id="ytick_10">
     <g id="line2d_27"/>
    </g>
    <g id="ytick_11">
     <g id="line2d_28"/>
    </g>
    <g id="ytick_12">
     <g id="line2d_29"/>
    </g>
    <g id="ytick_13">
     <g id="line2d_30"/>
    </g>
    <g id="ytick_14">
     <g id="line2d_31"/>
    </g>
    <g id="ytick_15">
     <g id="line2d_32"/>
    </g>
    <g id="ytick_16">
     <g id="line2d_33"/>
    </g>
    <g id="ytick_17">
     <g id="line2d_34"/>
    </g>
    <g id="ytick_18">
     <g id="line2d_35"/>
    </g>
    <g id="ytick_19">
     <g id="line2d_36"/>
    </g>
    <g id="ytick_20">
     <g id="line2d_37"/>
    </g>
    <g id="ytick_21">
     <g id="line2d_38"/>
    </g>
    <g id="ytick_22">
     <g id="line2d_39"/>
    </g>
    <g id="ytick_23">
     <g id="line2d_40"/>
    </g>
    <g id="ytick_24">
     <g id="line2d_41"/>
    </g>
    <g id="ytick_25">
     <g id="line2d_42"/>
    </g>
    <g id="ytick_26">
     <g id="line2d_43"/>
    </g>
    <g id="ytick_27">
     <g id="line2d_44"/>
    </g>
    <g id="ytick_28">
     <g id="line2d_45"/>
    </g>
    <g id="ytick_29">
     <g id="line2d_46"/>
    </g>
    <g id="ytick_30">
     <g id="line2d_47"/>
    </g>
    <g id="ytick_31">
     <g id="line2d_48"/>
    </g>
    <g id="ytick_32">
     <g id="line2d_49"/>
    </g>
    <g id="ytick_33">
     <g id="line2d_50"/>
    </g>
    <g id="ytick_34">
     <g id="line2d_51"/>
    </g>
    <g id="ytick_35">
     <g id="line2d_52"/>
    </g>
    <g id="ytick_36">
     <g id="line2d_53"/>
    </g>
    <g id="ytick_37">
     <g id="line2d_54"/>
    </g>
    <g id="text_13">
     <!-- Density -->
     <g style="fill: #262626" transform="translate(17.577725 119.874048) rotate(-90) scale(0.15 -0.15)">
      <defs>
       <path id="CMR17-44" d="M 333 4352 
L 333 4186 
C 774 4186 845 4186 845 3900 
L 845 452 
C 845 166 774 166 333 166 
L 333 0 
L 2368 0 
C 3398 0 4224 943 4224 2141 
C 4224 3346 3411 4352 2368 4352 
L 333 4352 
z
M 1523 166 
C 1267 166 1254 197 1254 414 
L 1254 3938 
C 1254 4155 1267 4186 1523 4186 
L 2240 4186 
C 2771 4186 3750 3874 3750 2141 
C 3750 1242 3488 879 3366 707 
C 3213 510 2848 166 2240 166 
L 1523 166 
z
" transform="scale(0.015625)"/>
       <path id="CMR17-65" d="M 2438 1472 
C 2464 1498 2464 1511 2464 1576 
C 2464 2238 2118 2816 1389 2816 
C 710 2816 173 2169 173 1383 
C 173 551 781 -64 1459 -64 
C 2176 -64 2458 607 2458 740 
C 2458 784 2419 784 2406 784 
C 2362 784 2355 771 2330 696 
C 2189 265 1837 51 1504 51 
C 1229 51 954 203 781 480 
C 582 803 582 1176 582 1472 
L 2438 1472 
z
M 589 1568 
C 634 2505 1126 2714 1382 2714 
C 1818 2714 2112 2297 2118 1568 
L 589 1568 
z
" transform="scale(0.015625)"/>
       <path id="CMR17-6e" d="M 2656 1933 
C 2656 2259 2592 2790 1837 2790 
C 1331 2790 1069 2400 973 2144 
L 966 2144 
L 966 2790 
L 211 2720 
L 211 2554 
C 589 2554 646 2515 646 2208 
L 646 428 
C 646 184 621 153 211 153 
L 211 -13 
C 365 0 646 0 813 0 
C 979 0 1267 0 1421 -13 
L 1421 153 
C 1011 153 986 178 986 428 
L 986 1658 
C 986 2247 1344 2688 1792 2688 
C 2266 2688 2317 2266 2317 1958 
L 2317 428 
C 2317 184 2291 153 1882 153 
L 1882 -13 
C 2035 0 2317 0 2483 0 
C 2650 0 2938 0 3091 -13 
L 3091 153 
C 2682 153 2656 178 2656 428 
L 2656 1933 
z
" transform="scale(0.015625)"/>
       <path id="CMR17-73" d="M 1978 2697 
C 1978 2813 1971 2819 1933 2819 
C 1907 2819 1901 2813 1824 2717 
C 1805 2691 1747 2626 1728 2601 
C 1523 2819 1235 2819 1126 2819 
C 416 2819 160 2447 160 2076 
C 160 1498 813 1365 998 1325 
C 1402 1243 1542 1217 1677 1101 
C 1760 1025 1901 884 1901 654 
C 1901 384 1747 38 1158 38 
C 602 38 403 460 288 1021 
C 269 1110 269 1117 218 1117 
C 166 1117 160 1110 160 983 
L 160 63 
C 160 -51 166 -58 205 -58 
C 237 -58 243 -51 275 0 
C 314 57 410 211 448 276 
C 576 103 800 -64 1158 -64 
C 1792 -64 2131 283 2131 784 
C 2131 1112 1958 1285 1875 1362 
C 1683 1561 1459 1606 1190 1657 
C 838 1735 390 1825 390 2217 
C 390 2383 480 2737 1126 2737 
C 1811 2737 1850 2094 1862 1888 
C 1869 1856 1901 1849 1920 1849 
C 1978 1849 1978 1869 1978 1978 
L 1978 2697 
z
" transform="scale(0.015625)"/>
       <path id="CMR17-69" d="M 992 3909 
C 992 4049 877 4170 730 4170 
C 589 4170 467 4056 467 3909 
C 467 3769 582 3648 730 3648 
C 870 3648 992 3763 992 3909 
z
M 243 2706 
L 243 2541 
C 602 2541 653 2502 653 2197 
L 653 427 
C 653 184 627 153 218 153 
L 218 -13 
C 371 0 646 0 806 0 
C 960 0 1222 0 1370 -13 
L 1370 153 
C 992 153 979 191 979 420 
L 979 2776 
L 243 2706 
z
" transform="scale(0.015625)"/>
       <path id="CMR17-74" d="M 966 2560 
L 1862 2560 
L 1862 2725 
L 966 2725 
L 966 3904 
L 851 3904 
C 838 3245 614 2668 70 2668 
L 70 2560 
L 627 2560 
L 627 771 
C 627 650 627 -64 1370 -64 
C 1747 -64 1965 306 1965 777 
L 1965 1140 
L 1850 1140 
L 1850 783 
C 1850 344 1677 51 1408 51 
C 1222 51 966 178 966 758 
L 966 2560 
z
" transform="scale(0.015625)"/>
       <path id="CMR17-79" d="M 2496 2197 
C 2656 2586 2944 2586 3034 2586 
L 3034 2752 
C 2912 2752 2752 2752 2630 2752 
C 2496 2752 2285 2752 2157 2758 
L 2157 2592 
C 2400 2573 2406 2394 2406 2343 
C 2406 2280 2394 2248 2362 2171 
L 1664 449 
L 902 2306 
C 870 2382 870 2426 870 2433 
C 870 2573 1018 2586 1171 2586 
L 1171 2758 
C 1018 2752 742 2752 582 2752 
C 410 2752 205 2752 64 2758 
L 64 2586 
C 410 2586 448 2554 531 2350 
L 1485 15 
C 1197 -738 1030 -1178 627 -1178 
C 557 -1178 397 -1159 282 -1044 
C 429 -1031 493 -942 493 -833 
C 493 -725 416 -629 288 -629 
C 147 -629 77 -725 77 -840 
C 77 -1095 339 -1280 627 -1280 
C 998 -1280 1229 -922 1357 -604 
L 2496 2197 
z
" transform="scale(0.015625)"/>
      </defs>
      <use xlink:href="#CMR17-44" transform="scale(0.996264)"/>
      <use xlink:href="#CMR17-65" transform="translate(70.393556 0) scale(0.996264)"/>
      <use xlink:href="#CMR17-6e" transform="translate(110.879216 0) scale(0.996264)"/>
      <use xlink:href="#CMR17-73" transform="translate(161.774586 0) scale(0.996264)"/>
      <use xlink:href="#CMR17-69" transform="translate(197.575924 0) scale(0.996264)"/>
      <use xlink:href="#CMR17-74" transform="translate(222.446982 0) scale(0.996264)"/>
      <use xlink:href="#CMR17-79" transform="translate(255.125296 0) scale(0.996264)"/>
     </g>
    </g>
   </g>
   <g id="PolyCollection_1">
    <path d="M 72.337133 252.463413 
L 72.337133 41675.548862 
L 72.956554 41675.548862 
L 73.575974 41675.548862 
L 74.195394 41675.548862 
L 74.814814 41675.548862 
L 75.434234 41675.548862 
L 76.053654 41675.548862 
L 76.673074 41675.548862 
L 77.292495 41675.548862 
L 77.911915 41675.548862 
L 78.531335 41675.548862 
L 79.150755 41675.548862 
L 79.770175 41675.548862 
L 80.389595 41675.548862 
L 81.009016 41675.548862 
L 81.628436 41675.548862 
L 82.247856 41675.548862 
L 82.867276 41675.548862 
L 83.486696 41675.548862 
L 84.106116 41675.548862 
L 84.725536 41675.548862 
L 85.344957 41675.548862 
L 85.964377 41675.548862 
L 86.583797 41675.548862 
L 87.203217 41675.548862 
L 87.822637 41675.548862 
L 88.442057 41675.548862 
L 89.061478 41675.548862 
L 89.680898 41675.548862 
L 90.300318 41675.548862 
L 90.919738 41675.548862 
L 91.539158 41675.548862 
L 92.158578 41675.548862 
L 92.777998 41675.548862 
L 93.397419 41675.548862 
L 94.016839 41675.548862 
L 94.636259 41675.548862 
L 95.255679 41675.548862 
L 95.875099 41675.548862 
L 96.494519 41675.548862 
L 97.11394 41675.548862 
L 97.73336 41675.548862 
L 98.35278 41675.548862 
L 98.9722 41675.548862 
L 99.59162 41675.548862 
L 100.21104 41675.548862 
L 100.83046 41675.548862 
L 101.449881 41675.548862 
L 102.069301 41675.548862 
L 102.688721 41675.548862 
L 103.308141 41675.548862 
L 103.927561 41675.548862 
L 104.546981 41675.548862 
L 105.166402 41675.548862 
L 105.785822 41675.548862 
L 106.405242 41675.548862 
L 107.024662 41675.548862 
L 107.644082 41675.548862 
L 108.263502 41675.548862 
L 108.882922 41675.548862 
L 109.502343 41675.548862 
L 110.121763 41675.548862 
L 110.741183 41675.548862 
L 111.360603 41675.548862 
L 111.980023 41675.548862 
L 112.599443 41675.548862 
L 113.218864 41675.548862 
L 113.838284 41675.548862 
L 114.457704 41675.548862 
L 115.077124 41675.548862 
L 115.696544 41675.548862 
L 116.315964 41675.548862 
L 116.935384 41675.548862 
L 117.554805 41675.548862 
L 118.174225 41675.548862 
L 118.793645 41675.548862 
L 119.413065 41675.548862 
L 120.032485 41675.548862 
L 120.651905 41675.548862 
L 121.271326 41675.548862 
L 121.890746 41675.548862 
L 122.510166 41675.548862 
L 123.129586 41675.548862 
L 123.749006 41675.548862 
L 124.368426 41675.548862 
L 124.987846 41675.548862 
L 125.607267 41675.548862 
L 126.226687 41675.548862 
L 126.846107 41675.548862 
L 127.465527 41675.548862 
L 128.084947 41675.548862 
L 128.704367 41675.548862 
L 129.323788 41675.548862 
L 129.943208 41675.548862 
L 130.562628 41675.548862 
L 131.182048 41675.548862 
L 131.801468 41675.548862 
L 132.420888 41675.548862 
L 133.040308 41675.548862 
L 133.659729 41675.548862 
L 134.279149 41675.548862 
L 134.898569 41675.548862 
L 135.517989 41675.548862 
L 136.137409 41675.548862 
L 136.756829 41675.548862 
L 137.37625 41675.548862 
L 137.99567 41675.548862 
L 138.61509 41675.548862 
L 139.23451 41675.548862 
L 139.85393 41675.548862 
L 140.47335 41675.548862 
L 141.092771 41675.548862 
L 141.712191 41675.548862 
L 142.331611 41675.548862 
L 142.951031 41675.548862 
L 143.570451 41675.548862 
L 144.189871 41675.548862 
L 144.809291 41675.548862 
L 145.428712 41675.548862 
L 146.048132 41675.548862 
L 146.667552 41675.548862 
L 147.286972 41675.548862 
L 147.906392 41675.548862 
L 148.525812 41675.548862 
L 149.145233 41675.548862 
L 149.764653 41675.548862 
L 150.384073 41675.548862 
L 151.003493 41675.548862 
L 151.622913 41675.548862 
L 152.242333 41675.548862 
L 152.861753 41675.548862 
L 153.481174 41675.548862 
L 154.100594 41675.548862 
L 154.720014 41675.548862 
L 155.339434 41675.548862 
L 155.958854 41675.548862 
L 156.578274 41675.548862 
L 157.197695 41675.548862 
L 157.817115 41675.548862 
L 158.436535 41675.548862 
L 159.055955 41675.548862 
L 159.675375 41675.548862 
L 160.294795 41675.548862 
L 160.914215 41675.548862 
L 161.533636 41675.548862 
L 162.153056 41675.548862 
L 162.772476 41675.548862 
L 163.391896 41675.548862 
L 164.011316 41675.548862 
L 164.630736 41675.548862 
L 165.250157 41675.548862 
L 165.869577 41675.548862 
L 166.488997 41675.548862 
L 167.108417 41675.548862 
L 167.727837 41675.548862 
L 168.347257 41675.548862 
L 168.966677 41675.548862 
L 169.586098 41675.548862 
L 170.205518 41675.548862 
L 170.824938 41675.548862 
L 171.444358 41675.548862 
L 172.063778 41675.548862 
L 172.683198 41675.548862 
L 173.302619 41675.548862 
L 173.922039 41675.548862 
L 174.541459 41675.548862 
L 175.160879 41675.548862 
L 175.780299 41675.548862 
L 176.399719 41675.548862 
L 177.019139 41675.548862 
L 177.63856 41675.548862 
L 178.25798 41675.548862 
L 178.8774 41675.548862 
L 179.49682 41675.548862 
L 180.11624 41675.548862 
L 180.73566 41675.548862 
L 181.355081 41675.548862 
L 181.974501 41675.548862 
L 182.593921 41675.548862 
L 183.213341 41675.548862 
L 183.832761 41675.548862 
L 184.452181 41675.548862 
L 185.071601 41675.548862 
L 185.691022 41675.548862 
L 186.310442 41675.548862 
L 186.929862 41675.548862 
L 187.549282 41675.548862 
L 188.168702 41675.548862 
L 188.788122 41675.548862 
L 189.407543 41675.548862 
L 190.026963 41675.548862 
L 190.646383 41675.548862 
L 191.265803 41675.548862 
L 191.885223 41675.548862 
L 192.504643 41675.548862 
L 193.124063 41675.548862 
L 193.743484 41675.548862 
L 194.362904 41675.548862 
L 194.982324 41675.548862 
L 195.601744 41675.548862 
L 196.221164 41675.548862 
L 196.840584 41675.548862 
L 197.460005 41675.548862 
L 198.079425 41675.548862 
L 198.698845 41675.548862 
L 199.318265 41675.548862 
L 199.937685 41675.548862 
L 200.557105 41675.548862 
L 201.176525 41675.548862 
L 201.795946 41675.548862 
L 202.415366 41675.548862 
L 203.034786 41675.548862 
L 203.654206 41675.548862 
L 204.273626 41675.548862 
L 204.893046 41675.548862 
L 205.512467 41675.548862 
L 206.131887 41675.548862 
L 206.751307 41675.548862 
L 207.370727 41675.548862 
L 207.990147 41675.548862 
L 208.609567 41675.548862 
L 209.228987 41675.548862 
L 209.848408 41675.548862 
L 210.467828 41675.548862 
L 211.087248 41675.548862 
L 211.706668 41675.548862 
L 212.326088 41675.548862 
L 212.945508 41675.548862 
L 213.564929 41675.548862 
L 214.184349 41675.548862 
L 214.803769 41675.548862 
L 215.423189 41675.548862 
L 216.042609 41675.548862 
L 216.662029 41675.548862 
L 217.281449 41675.548862 
L 217.90087 41675.548862 
L 218.52029 41675.548862 
L 219.13971 41675.548862 
L 219.75913 41675.548862 
L 220.37855 41675.548862 
L 220.99797 41675.548862 
L 221.617391 41675.548862 
L 222.236811 41675.548862 
L 222.856231 41675.548862 
L 223.475651 41675.548862 
L 224.095071 41675.548862 
L 224.714491 41675.548862 
L 225.333912 41675.548862 
L 225.953332 41675.548862 
L 226.572752 41675.548862 
L 227.192172 41675.548862 
L 227.811592 41675.548862 
L 228.431012 41675.548862 
L 229.050432 41675.548862 
L 229.669853 41675.548862 
L 230.289273 41675.548862 
L 230.908693 41675.548862 
L 231.528113 41675.548862 
L 232.147533 41675.548862 
L 232.766953 41675.548862 
L 233.386374 41675.548862 
L 234.005794 41675.548862 
L 234.625214 41675.548862 
L 235.244634 41675.548862 
L 235.864054 41675.548862 
L 236.483474 41675.548862 
L 237.102894 41675.548862 
L 237.722315 41675.548862 
L 238.341735 41675.548862 
L 238.961155 41675.548862 
L 239.580575 41675.548862 
L 240.199995 41675.548862 
L 240.819415 41675.548862 
L 241.438836 41675.548862 
L 242.058256 41675.548862 
L 242.677676 41675.548862 
L 243.297096 41675.548862 
L 243.916516 41675.548862 
L 244.535936 41675.548862 
L 245.155356 41675.548862 
L 245.774777 41675.548862 
L 246.394197 41675.548862 
L 247.013617 41675.548862 
L 247.633037 41675.548862 
L 248.252457 41675.548862 
L 248.871877 41675.548862 
L 249.491298 41675.548862 
L 250.110718 41675.548862 
L 250.730138 41675.548862 
L 251.349558 41675.548862 
L 251.968978 41675.548862 
L 252.588398 41675.548862 
L 253.207818 41675.548862 
L 253.827239 41675.548862 
L 254.446659 41675.548862 
L 255.066079 41675.548862 
L 255.685499 41675.548862 
L 256.304919 41675.548862 
L 256.924339 41675.548862 
L 257.54376 41675.548862 
L 258.16318 41675.548862 
L 258.7826 41675.548862 
L 259.40202 41675.548862 
L 260.02144 41675.548862 
L 260.64086 41675.548862 
L 261.26028 41675.548862 
L 261.879701 41675.548862 
L 262.499121 41675.548862 
L 263.118541 41675.548862 
L 263.737961 41675.548862 
L 264.357381 41675.548862 
L 264.976801 41675.548862 
L 265.596222 41675.548862 
L 266.215642 41675.548862 
L 266.835062 41675.548862 
L 267.454482 41675.548862 
L 268.073902 41675.548862 
L 268.693322 41675.548862 
L 269.312742 41675.548862 
L 269.932163 41675.548862 
L 270.551583 41675.548862 
L 271.171003 41675.548862 
L 271.790423 41675.548862 
L 272.409843 41675.548862 
L 273.029263 41675.548862 
L 273.648684 41675.548862 
L 274.268104 41675.548862 
L 274.887524 41675.548862 
L 275.506944 41675.548862 
L 276.126364 41675.548862 
L 276.745784 41675.548862 
L 277.365204 41675.548862 
L 277.984625 41675.548862 
L 278.604045 41675.548862 
L 279.223465 41675.548862 
L 279.842885 41675.548862 
L 280.462305 41675.548862 
L 281.081725 41675.548862 
L 281.701146 41675.548862 
L 282.320566 41675.548862 
L 282.939986 41675.548862 
L 283.559406 41675.548862 
L 284.178826 41675.548862 
L 284.798246 41675.548862 
L 285.417666 41675.548862 
L 286.037087 41675.548862 
L 286.656507 41675.548862 
L 287.275927 41675.548862 
L 287.895347 41675.548862 
L 288.514767 41675.548862 
L 289.134187 41675.548862 
L 289.753608 41675.548862 
L 290.373028 41675.548862 
L 290.992448 41675.548862 
L 291.611868 41675.548862 
L 292.231288 41675.548862 
L 292.850708 41675.548862 
L 293.470128 41675.548862 
L 294.089549 41675.548862 
L 294.708969 41675.548862 
L 295.328389 41675.548862 
L 295.947809 41675.548862 
L 296.567229 41675.548862 
L 297.186649 41675.548862 
L 297.80607 41675.548862 
L 298.42549 41675.548862 
L 299.04491 41675.548862 
L 299.66433 41675.548862 
L 300.28375 41675.548862 
L 300.90317 41675.548862 
L 301.52259 41675.548862 
L 302.142011 41675.548862 
L 302.761431 41675.548862 
L 303.380851 41675.548862 
L 304.000271 41675.548862 
L 304.619691 41675.548862 
L 305.239111 41675.548862 
L 305.858532 41675.548862 
L 306.477952 41675.548862 
L 307.097372 41675.548862 
L 307.716792 41675.548862 
L 308.336212 41675.548862 
L 308.955632 41675.548862 
L 309.575052 41675.548862 
L 310.194473 41675.548862 
L 310.813893 41675.548862 
L 311.433313 41675.548862 
L 312.052733 41675.548862 
L 312.672153 41675.548862 
L 313.291573 41675.548862 
L 313.910994 41675.548862 
L 314.530414 41675.548862 
L 315.149834 41675.548862 
L 315.769254 41675.548862 
L 316.388674 41675.548862 
L 317.008094 41675.548862 
L 317.627515 41675.548862 
L 318.246935 41675.548862 
L 318.866355 41675.548862 
L 319.485775 41675.548862 
L 320.105195 41675.548862 
L 320.724615 41675.548862 
L 321.344035 41675.548862 
L 321.963456 41675.548862 
L 322.582876 41675.548862 
L 323.202296 41675.548862 
L 323.821716 41675.548862 
L 324.441136 41675.548862 
L 325.060556 41675.548862 
L 325.679977 41675.548862 
L 326.299397 41675.548862 
L 326.918817 41675.548862 
L 327.538237 41675.548862 
L 328.157657 41675.548862 
L 328.777077 41675.548862 
L 329.396497 41675.548862 
L 330.015918 41675.548862 
L 330.635338 41675.548862 
L 331.254758 41675.548862 
L 331.874178 41675.548862 
L 332.493598 41675.548862 
L 333.113018 41675.548862 
L 333.732439 41675.548862 
L 334.351859 41675.548862 
L 334.971279 41675.548862 
L 335.590699 41675.548862 
L 336.210119 41675.548862 
L 336.829539 41675.548862 
L 337.448959 41675.548862 
L 338.06838 41675.548862 
L 338.6878 41675.548862 
L 339.30722 41675.548862 
L 339.92664 41675.548862 
L 340.54606 41675.548862 
L 341.16548 41675.548862 
L 341.784901 41675.548862 
L 342.404321 41675.548862 
L 343.023741 41675.548862 
L 343.643161 41675.548862 
L 344.262581 41675.548862 
L 344.882001 41675.548862 
L 345.501421 41675.548862 
L 346.120842 41675.548862 
L 346.740262 41675.548862 
L 347.359682 41675.548862 
L 347.979102 41675.548862 
L 348.598522 41675.548862 
L 349.217942 41675.548862 
L 349.837363 41675.548862 
L 350.456783 41675.548862 
L 351.076203 41675.548862 
L 351.695623 41675.548862 
L 352.315043 41675.548862 
L 352.934463 41675.548862 
L 353.553883 41675.548862 
L 354.173304 41675.548862 
L 354.792724 41675.548862 
L 355.412144 41675.548862 
L 356.031564 41675.548862 
L 356.650984 41675.548862 
L 357.270404 41675.548862 
L 357.889825 41675.548862 
L 358.509245 41675.548862 
L 359.128665 41675.548862 
L 359.748085 41675.548862 
L 360.367505 41675.548862 
L 360.986925 41675.548862 
L 361.606345 41675.548862 
L 362.225766 41675.548862 
L 362.845186 41675.548862 
L 363.464606 41675.548862 
L 364.084026 41675.548862 
L 364.703446 41675.548862 
L 365.322866 41675.548862 
L 365.942287 41675.548862 
L 366.561707 41675.548862 
L 367.181127 41675.548862 
L 367.800547 41675.548862 
L 368.419967 41675.548862 
L 369.039387 41675.548862 
L 369.658807 41675.548862 
L 370.278228 41675.548862 
L 370.897648 41675.548862 
L 371.517068 41675.548862 
L 372.136488 41675.548862 
L 372.755908 41675.548862 
L 373.375328 41675.548862 
L 373.994749 41675.548862 
L 374.614169 41675.548862 
L 375.233589 41675.548862 
L 375.853009 41675.548862 
L 376.472429 41675.548862 
L 377.091849 41675.548862 
L 377.711269 41675.548862 
L 378.33069 41675.548862 
L 378.95011 41675.548862 
L 379.56953 41675.548862 
L 380.18895 41675.548862 
L 380.80837 41675.548862 
L 381.42779 41675.548862 
L 381.42779 252.465893 
L 381.42779 252.465893 
L 380.80837 215.35024 
L 380.18895 189.083771 
L 379.56953 172.78771 
L 378.95011 163.86607 
L 378.33069 158.481487 
L 377.711269 156.816991 
L 377.091849 162.582391 
L 376.472429 175.616274 
L 375.853009 178.623688 
L 375.233589 165.170328 
L 374.614169 151.297649 
L 373.994749 139.304752 
L 373.375328 130.967575 
L 372.755908 126.67002 
L 372.136488 125.369878 
L 371.517068 125.786119 
L 370.897648 126.877419 
L 370.278228 129.620034 
L 369.658807 135.24189 
L 369.039387 139.905296 
L 368.419967 137.911289 
L 367.800547 133.340732 
L 367.181127 130.820856 
L 366.561707 130.185304 
L 365.942287 129.20145 
L 365.322866 127.768895 
L 364.703446 126.17277 
L 364.084026 123.796921 
L 363.464606 122.013869 
L 362.845186 121.808643 
L 362.225766 123.233242 
L 361.606345 126.429253 
L 360.986925 129.2804 
L 360.367505 128.335928 
L 359.748085 125.246085 
L 359.128665 123.125195 
L 358.509245 122.485268 
L 357.889825 123.073659 
L 357.270404 125.448608 
L 356.650984 129.76165 
L 356.031564 134.60005 
L 355.412144 139.304548 
L 354.792724 144.06269 
L 354.173304 147.873804 
L 353.553883 149.031898 
L 352.934463 147.288708 
L 352.315043 146.804715 
L 351.695623 149.392273 
L 351.076203 150.763259 
L 350.456783 148.87191 
L 349.837363 148.089208 
L 349.217942 149.808833 
L 348.598522 152.118012 
L 347.979102 155.50708 
L 347.359682 161.245913 
L 346.740262 166.115559 
L 346.120842 171.998874 
L 345.501421 185.358525 
L 344.882001 209.04639 
L 344.262581 242.914563 
L 343.643161 249.053837 
L 343.023741 214.221993 
L 342.404321 188.176536 
L 341.784901 172.2101 
L 341.16548 164.7523 
L 340.54606 163.643554 
L 339.92664 168.333893 
L 339.30722 180.652803 
L 338.6878 202.555742 
L 338.06838 235.045283 
L 337.448959 278.503663 
L 336.829539 333.061241 
L 336.210119 398.423903 
L 335.590699 394.123612 
L 334.971279 329.330701 
L 334.351859 275.497259 
L 333.732439 232.808638 
L 333.113018 201.204594 
L 332.493598 180.413432 
L 331.874178 169.234857 
L 331.254758 163.48749 
L 330.635338 157.169389 
L 330.015918 152.191587 
L 329.396497 153.388796 
L 328.777077 159.818033 
L 328.157657 165.69634 
L 327.538237 171.187773 
L 326.918817 176.083083 
L 326.299397 170.254649 
L 325.679977 161.647437 
L 325.060556 156.676294 
L 324.441136 153.177485 
L 323.821716 149.075023 
L 323.202296 145.055686 
L 322.582876 141.509276 
L 321.963456 138.517753 
L 321.344035 137.67915 
L 320.724615 137.493731 
L 320.105195 134.76434 
L 319.485775 130.57053 
L 318.866355 126.284568 
L 318.246935 122.916955 
L 317.627515 121.182632 
L 317.008094 121.043161 
L 316.388674 122.154771 
L 315.769254 123.074955 
L 315.149834 122.116255 
L 314.530414 119.217387 
L 313.910994 116.127563 
L 313.291573 114.570876 
L 312.672153 115.171252 
L 312.052733 116.435953 
L 311.433313 116.148844 
L 310.813893 115.321065 
L 310.194473 114.598658 
L 309.575052 113.294315 
L 308.955632 112.236553 
L 308.336212 112.266334 
L 307.716792 113.141036 
L 307.097372 113.96914 
L 306.477952 114.354342 
L 305.858532 114.16155 
L 305.239111 112.470275 
L 304.619691 109.231395 
L 304.000271 106.583263 
L 303.380851 106.504086 
L 302.761431 108.223784 
L 302.142011 109.309429 
L 301.52259 110.023211 
L 300.90317 111.507038 
L 300.28375 113.393284 
L 299.66433 115.562538 
L 299.04491 117.383378 
L 298.42549 117.702007 
L 297.80607 117.535265 
L 297.186649 117.615313 
L 296.567229 117.813958 
L 295.947809 119.216902 
L 295.328389 121.597186 
L 294.708969 121.764573 
L 294.089549 119.987412 
L 293.470128 121.00721 
L 292.850708 125.606695 
L 292.231288 128.32533 
L 291.611868 127.068728 
L 290.992448 126.653664 
L 290.373028 128.62895 
L 289.753608 131.248939 
L 289.134187 132.05323 
L 288.514767 131.864305 
L 287.895347 133.67945 
L 287.275927 139.052443 
L 286.656507 145.081866 
L 286.037087 145.8343 
L 285.417666 145.491194 
L 284.798246 149.516057 
L 284.178826 159.692074 
L 283.559406 176.336085 
L 282.939986 182.842065 
L 282.320566 168.283502 
L 281.701146 159.01715 
L 281.081725 158.221933 
L 280.462305 158.180124 
L 279.842885 152.58419 
L 279.223465 149.540793 
L 278.604045 153.062633 
L 277.984625 162.298792 
L 277.365204 175.755585 
L 276.745784 182.548132 
L 276.126364 174.734352 
L 275.506944 171.285089 
L 274.887524 178.392512 
L 274.268104 196.618067 
L 273.648684 226.002817 
L 273.029263 266.450224 
L 272.409843 293.975347 
L 271.790423 249.491948 
L 271.171003 210.491266 
L 270.551583 182.290501 
L 269.932163 164.618742 
L 269.312742 156.537954 
L 268.693322 155.299226 
L 268.073902 156.155274 
L 267.454482 156.337941 
L 266.835062 153.518716 
L 266.215642 147.270923 
L 265.596222 143.645343 
L 264.976801 142.260456 
L 264.357381 137.267423 
L 263.737961 130.770071 
L 263.118541 126.639082 
L 262.499121 125.843805 
L 261.879701 128.139269 
L 261.26028 132.280085 
L 260.64086 133.181163 
L 260.02144 125.618616 
L 259.40202 116.901572 
L 258.7826 110.991384 
L 258.16318 107.051568 
L 257.54376 105.221543 
L 256.924339 105.66806 
L 256.304919 106.85617 
L 255.685499 106.410464 
L 255.066079 103.48081 
L 254.446659 99.515169 
L 253.827239 95.84167 
L 253.207818 92.525688 
L 252.588398 89.383622 
L 251.968978 86.782774 
L 251.349558 84.605465 
L 250.730138 82.731145 
L 250.110718 82.298317 
L 249.491298 83.824212 
L 248.871877 85.361475 
L 248.252457 84.799851 
L 247.633037 83.104071 
L 247.013617 82.016754 
L 246.394197 81.564627 
L 245.774777 81.193264 
L 245.155356 81.621573 
L 244.535936 83.699793 
L 243.916516 87.136242 
L 243.297096 91.216476 
L 242.677676 95.085833 
L 242.058256 97.645332 
L 241.438836 99.117152 
L 240.819415 101.002843 
L 240.199995 104.379053 
L 239.580575 109.481476 
L 238.961155 114.282131 
L 238.341735 115.882117 
L 237.722315 115.989042 
L 237.102894 117.464216 
L 236.483474 120.609465 
L 235.864054 124.87108 
L 235.244634 131.397879 
L 234.625214 141.022891 
L 234.005794 148.147764 
L 233.386374 147.661204 
L 232.766953 147.253686 
L 232.147533 151.546904 
L 231.528113 159.492508 
L 230.908693 164.195215 
L 230.289273 159.682931 
L 229.669853 151.508085 
L 229.050432 143.495585 
L 228.431012 137.488341 
L 227.811592 134.939261 
L 227.192172 136.435784 
L 226.572752 140.51454 
L 225.953332 144.500112 
L 225.333912 146.791689 
L 224.714491 145.124507 
L 224.095071 138.721895 
L 223.475651 132.44518 
L 222.856231 128.141489 
L 222.236811 124.201932 
L 221.617391 120.031711 
L 220.99797 115.53331 
L 220.37855 110.32383 
L 219.75913 105.526589 
L 219.13971 102.252916 
L 218.52029 99.587462 
L 217.90087 96.64396 
L 217.281449 93.699622 
L 216.662029 90.889675 
L 216.042609 88.076921 
L 215.423189 85.409855 
L 214.803769 83.068907 
L 214.184349 80.795944 
L 213.564929 78.690298 
L 212.945508 77.2775 
L 212.326088 76.476155 
L 211.706668 75.778298 
L 211.087248 75.006851 
L 210.467828 74.395032 
L 209.848408 74.103493 
L 209.228987 74.172895 
L 208.609567 74.19673 
L 207.990147 73.723636 
L 207.370727 73.115898 
L 206.751307 72.6267 
L 206.131887 72.224703 
L 205.512467 72.351086 
L 204.893046 73.639747 
L 204.273626 76.018155 
L 203.654206 78.556986 
L 203.034786 80.573692 
L 202.415366 82.166638 
L 201.795946 83.761089 
L 201.176525 85.594051 
L 200.557105 87.171397 
L 199.937685 88.865624 
L 199.318265 91.773249 
L 198.698845 95.284637 
L 198.079425 98.031626 
L 197.460005 99.614523 
L 196.840584 100.947301 
L 196.221164 103.532973 
L 195.601744 107.823885 
L 194.982324 112.423576 
L 194.362904 115.782402 
L 193.743484 118.724177 
L 193.124063 122.599929 
L 192.504643 128.071086 
L 191.885223 135.533991 
L 191.265803 141.440793 
L 190.646383 140.926508 
L 190.026963 138.672027 
L 189.407543 139.920275 
L 188.788122 144.99113 
L 188.168702 151.539883 
L 187.549282 157.997888 
L 186.929862 162.221149 
L 186.310442 157.541663 
L 185.691022 146.894656 
L 185.071601 138.769869 
L 184.452181 137.430299 
L 183.832761 144.613047 
L 183.213341 160.009216 
L 182.593921 172.742104 
L 181.974501 166.103606 
L 181.355081 155.416815 
L 180.73566 146.892942 
L 180.11624 142.179775 
L 179.49682 139.868276 
L 178.8774 137.53649 
L 178.25798 135.349879 
L 177.63856 130.826334 
L 177.019139 123.998238 
L 176.399719 118.240396 
L 175.780299 114.394614 
L 175.160879 112.166397 
L 174.541459 110.690013 
L 173.922039 108.538781 
L 173.302619 104.86879 
L 172.683198 100.557258 
L 172.063778 97.050289 
L 171.444358 94.83798 
L 170.824938 93.454911 
L 170.205518 91.676998 
L 169.586098 88.484591 
L 168.966677 84.693817 
L 168.347257 81.881184 
L 167.727837 80.391181 
L 167.108417 79.434435 
L 166.488997 77.88682 
L 165.869577 75.420919 
L 165.250157 72.969663 
L 164.630736 71.38115 
L 164.011316 70.264537 
L 163.391896 68.635238 
L 162.772476 66.967285 
L 162.153056 66.235687 
L 161.533636 66.193998 
L 160.914215 66.129522 
L 160.294795 65.77819 
L 159.675375 65.375645 
L 159.055955 65.355863 
L 158.436535 65.778341 
L 157.817115 66.452562 
L 157.197695 67.31272 
L 156.578274 68.30049 
L 155.958854 69.582587 
L 155.339434 71.246012 
L 154.720014 72.848217 
L 154.100594 73.93319 
L 153.481174 75.038828 
L 152.861753 76.970301 
L 152.242333 79.434622 
L 151.622913 81.79784 
L 151.003493 84.093718 
L 150.384073 86.888957 
L 149.764653 90.13914 
L 149.145233 92.682657 
L 148.525812 94.471482 
L 147.906392 96.623978 
L 147.286972 99.407633 
L 146.667552 102.396079 
L 146.048132 105.562981 
L 145.428712 108.965275 
L 144.809291 111.718894 
L 144.189871 114.604457 
L 143.570451 119.011986 
L 142.951031 124.347332 
L 142.331611 129.158548 
L 141.712191 132.395889 
L 141.092771 135.624576 
L 140.47335 141.030321 
L 139.85393 147.61065 
L 139.23451 150.406844 
L 138.61509 147.23499 
L 137.99567 145.078066 
L 137.37625 145.5758 
L 136.756829 144.231661 
L 136.137409 141.88652 
L 135.517989 141.25648 
L 134.898569 142.848516 
L 134.279149 147.920699 
L 133.659729 153.961279 
L 133.040308 153.824098 
L 132.420888 150.376049 
L 131.801468 150.368774 
L 131.182048 154.677706 
L 130.562628 158.246604 
L 129.943208 159.454678 
L 129.323788 163.377443 
L 128.704367 166.874705 
L 128.084947 160.214431 
L 127.465527 151.448031 
L 126.846107 145.633424 
L 126.226687 141.608689 
L 125.607267 139.36956 
L 124.987846 139.144981 
L 124.368426 138.84701 
L 123.749006 134.447626 
L 123.129586 126.229299 
L 122.510166 117.99675 
L 121.890746 112.909186 
L 121.271326 111.648499 
L 120.651905 112.725482 
L 120.032485 112.47379 
L 119.413065 106.829706 
L 118.793645 99.329752 
L 118.174225 94.179007 
L 117.554805 91.092253 
L 116.935384 88.234534 
L 116.315964 83.811078 
L 115.696544 77.615525 
L 115.077124 71.828229 
L 114.457704 67.705104 
L 113.838284 64.45312 
L 113.218864 61.558871 
L 112.599443 59.300485 
L 111.980023 57.543258 
L 111.360603 56.094185 
L 110.741183 55.19435 
L 110.121763 55.136658 
L 109.502343 56.008716 
L 108.882922 57.617617 
L 108.263502 59.751688 
L 107.644082 62.29037 
L 107.024662 65.048216 
L 106.405242 67.849748 
L 105.785822 70.749916 
L 105.166402 74.149827 
L 104.546981 78.651512 
L 103.927561 84.149822 
L 103.308141 89.657815 
L 102.688721 94.712147 
L 102.069301 98.802098 
L 101.449881 100.861711 
L 100.83046 102.061938 
L 100.21104 104.862476 
L 99.59162 110.016865 
L 98.9722 116.259008 
L 98.35278 121.16725 
L 97.73336 123.699646 
L 97.11394 125.718236 
L 96.494519 128.497102 
L 95.875099 131.041227 
L 95.255679 131.489795 
L 94.636259 130.565645 
L 94.016839 131.836939 
L 93.397419 136.763426 
L 92.777998 144.057494 
L 92.158578 149.764187 
L 91.539158 147.39419 
L 90.919738 140.239362 
L 90.300318 136.195506 
L 89.680898 135.038583 
L 89.061478 128.327375 
L 88.442057 115.461003 
L 87.822637 104.569584 
L 87.203217 97.209273 
L 86.583797 91.59168 
L 85.964377 86.264125 
L 85.344957 80.820283 
L 84.725536 75.443482 
L 84.106116 70.549425 
L 83.486696 66.383333 
L 82.867276 63.393541 
L 82.247856 61.943462 
L 81.628436 61.814659 
L 81.009016 62.739035 
L 80.389595 64.846366 
L 79.770175 68.316391 
L 79.150755 73.156442 
L 78.531335 79.598303 
L 77.911915 87.772562 
L 77.292495 97.46496 
L 76.673074 108.945054 
L 76.053654 122.98693 
L 75.434234 139.88862 
L 74.814814 156.892171 
L 74.195394 171.249769 
L 73.575974 188.838287 
L 72.956554 215.318338 
L 72.337133 252.463413 
z
" clip-path="url(#pc55d9dd88e)" style="fill: #4c72b0; fill-opacity: 0.25; stroke: #4c72b0; stroke-width: 0.3"/>
   </g>
   <g id="patch_3">
    <path d="M 59.482462 178.708862 
L 59.482462 12.388862 
" style="fill: none"/>
   </g>
   <g id="patch_4">
    <path d="M 394.282462 178.708862 
L 394.282462 12.388862 
" style="fill: none"/>
   </g>
   <g id="patch_5">
    <path d="M 59.482462 178.708862 
L 394.282462 178.708862 
" style="fill: none"/>
   </g>
   <g id="patch_6">
    <path d="M 59.482462 12.388862 
L 394.282462 12.388862 
" style="fill: none"/>
   </g>
   <g id="text_14">
    <!-- 0 -->
    <g transform="translate(82.073735 59.072041) scale(0.1 -0.1)">
     <use xlink:href="#CMR17-30" transform="scale(0.996264)"/>
    </g>
   </g>
   <g id="text_15">
    <!-- 1 -->
    <g transform="translate(110.266057 56.099021) scale(0.1 -0.1)">
     <use xlink:href="#CMR17-31" transform="scale(0.996264)"/>
    </g>
   </g>
   <g id="text_16">
    <!-- 2 -->
    <g transform="translate(159.76256 63.612229) scale(0.1 -0.1)">
     <use xlink:href="#CMR17-32" transform="scale(0.996264)"/>
    </g>
   </g>
   <g id="text_17">
    <!-- 3 -->
    <g transform="translate(208.036764 68.590961) scale(0.1 -0.1)">
     <defs>
      <path id="CMR17-33" d="M 1414 2157 
C 1984 2157 2234 1662 2234 1090 
C 2234 320 1824 25 1453 25 
C 1114 25 563 194 390 693 
C 422 680 454 680 486 680 
C 640 680 755 782 755 948 
C 755 1133 614 1216 486 1216 
C 378 1216 211 1165 211 926 
C 211 335 787 -128 1466 -128 
C 2176 -128 2720 430 2720 1085 
C 2720 1707 2208 2157 1600 2227 
C 2086 2328 2554 2756 2554 3329 
C 2554 3820 2048 4179 1472 4179 
C 890 4179 378 3829 378 3329 
C 378 3110 544 3072 627 3072 
C 762 3072 877 3155 877 3321 
C 877 3486 762 3569 627 3569 
C 602 3569 570 3569 544 3557 
C 730 3959 1235 4032 1459 4032 
C 1683 4032 2106 3925 2106 3320 
C 2106 3143 2080 2828 1862 2550 
C 1670 2304 1453 2304 1242 2284 
C 1210 2284 1062 2269 1037 2269 
C 992 2263 966 2257 966 2208 
C 966 2163 973 2157 1101 2157 
L 1414 2157 
z
" transform="scale(0.015625)"/>
     </defs>
     <use xlink:href="#CMR17-33" transform="scale(0.996264)"/>
    </g>
   </g>
   <g id="text_18">
    <!-- 4 -->
    <g transform="translate(248.419405 76.13903) scale(0.1 -0.1)">
     <use xlink:href="#CMR17-34" transform="scale(0.996264)"/>
    </g>
   </g>
   <g id="text_19">
    <!-- 5 -->
    <g transform="translate(304.725341 89.185759) scale(0.1 -0.1)">
     <defs>
      <path id="CMR17-35" d="M 730 3692 
C 794 3666 1056 3584 1325 3584 
C 1920 3584 2246 3911 2432 4100 
C 2432 4157 2432 4192 2394 4192 
C 2387 4192 2374 4192 2323 4163 
C 2099 4058 1837 3973 1517 3973 
C 1325 3973 1037 3999 723 4139 
C 653 4171 640 4171 634 4171 
C 602 4171 595 4164 595 4037 
L 595 2203 
C 595 2089 595 2057 659 2057 
C 691 2057 704 2070 736 2114 
C 941 2401 1222 2522 1542 2522 
C 1766 2522 2246 2382 2246 1289 
C 2246 1085 2246 715 2054 421 
C 1894 159 1645 25 1370 25 
C 947 25 518 320 403 814 
C 429 807 480 795 506 795 
C 589 795 749 840 749 1038 
C 749 1210 627 1280 506 1280 
C 358 1280 262 1190 262 1011 
C 262 454 704 -128 1382 -128 
C 2042 -128 2669 440 2669 1264 
C 2669 2030 2170 2624 1549 2624 
C 1222 2624 947 2503 730 2274 
L 730 3692 
z
" transform="scale(0.015625)"/>
     </defs>
     <use xlink:href="#CMR17-35" transform="scale(0.996264)"/>
    </g>
   </g>
   <g id="text_20">
    <!-- 6+ -->
    <g transform="translate(362.990716 100.121725) scale(0.1 -0.1)">
     <defs>
      <path id="CMR17-2b" d="M 2413 1472 
L 4109 1472 
C 4198 1472 4307 1472 4307 1580 
C 4307 1695 4205 1695 4109 1695 
L 2413 1695 
L 2413 3386 
C 2413 3475 2413 3584 2304 3584 
C 2189 3584 2189 3482 2189 3386 
L 2189 1695 
L 493 1695 
C 403 1695 294 1695 294 1587 
C 294 1472 397 1472 493 1472 
L 2189 1472 
L 2189 -218 
C 2189 -307 2189 -416 2298 -416 
C 2413 -416 2413 -314 2413 -218 
L 2413 1472 
z
" transform="scale(0.015625)"/>
     </defs>
     <use xlink:href="#CMR17-36" transform="scale(0.996264)"/>
     <use xlink:href="#CMR17-2b" transform="translate(45.690477 0) scale(0.996264)"/>
    </g>
   </g>
   <g id="text_21">
    <!-- Maximum Value -->
    <g style="fill: #262626" transform="translate(257.062122 29.207411) scale(0.15 -0.15)">
     <defs>
      <path id="CMR17-4d" d="M 1338 4224 
C 1299 4320 1293 4320 1158 4320 
L 339 4320 
L 339 4160 
C 781 4160 851 4160 851 3875 
L 851 610 
C 851 451 851 153 339 153 
L 339 -13 
C 486 0 755 0 915 0 
C 1075 0 1344 0 1491 -13 
L 1491 153 
C 979 153 979 451 979 610 
L 979 4135 
L 986 4135 
L 2490 89 
C 2515 25 2528 -13 2579 -13 
C 2630 -13 2643 25 2669 89 
L 4186 4166 
L 4192 4166 
L 4192 438 
C 4192 153 4122 153 3680 153 
L 3680 -13 
C 3853 0 4198 0 4384 0 
C 4570 0 4922 0 5094 -13 
L 5094 153 
C 4653 153 4582 153 4582 438 
L 4582 3875 
C 4582 4160 4653 4160 5094 4160 
L 5094 4320 
L 4282 4320 
C 4147 4320 4141 4314 4102 4218 
L 2720 502 
L 1338 4224 
z
" transform="scale(0.015625)"/>
      <path id="CMR17-61" d="M 2304 1653 
C 2304 2072 2304 2294 2035 2543 
C 1798 2752 1523 2816 1306 2816 
C 800 2816 435 2407 435 1971 
C 435 1728 627 1728 666 1728 
C 749 1728 896 1778 896 1954 
C 896 2112 774 2181 666 2181 
C 640 2181 608 2174 589 2168 
C 723 2592 1069 2714 1293 2714 
C 1613 2714 1965 2429 1965 1885 
L 1965 1600 
C 1587 1600 1133 1549 774 1357 
C 371 1133 256 813 256 570 
C 256 77 832 -64 1171 -64 
C 1523 -64 1850 139 1990 511 
C 2003 233 2182 -18 2464 -18 
C 2598 -18 2938 70 2938 567 
L 2938 920 
L 2822 920 
L 2822 562 
C 2822 178 2650 128 2566 128 
C 2304 128 2304 458 2304 738 
L 2304 1653 
z
M 1965 870 
C 1965 317 1568 38 1216 38 
C 896 38 646 275 646 570 
C 646 761 730 1100 1101 1305 
C 1408 1478 1760 1504 1965 1504 
L 1965 870 
z
" transform="scale(0.015625)"/>
      <path id="CMR17-78" d="M 1664 1477 
C 1856 1726 2074 2006 2253 2216 
C 2464 2458 2707 2560 2989 2560 
L 2989 2726 
C 2880 2726 2656 2726 2541 2726 
C 2368 2726 2170 2726 2022 2732 
L 2022 2566 
C 2112 2553 2163 2489 2163 2400 
C 2163 2285 2099 2215 2067 2171 
L 1594 1573 
L 1030 2306 
C 973 2376 973 2388 973 2420 
C 973 2497 1037 2560 1146 2560 
L 1146 2732 
C 992 2726 717 2726 557 2726 
C 384 2726 179 2726 38 2732 
L 38 2560 
C 384 2560 461 2534 614 2343 
L 1350 1395 
C 1363 1382 1395 1344 1395 1325 
C 1395 1299 838 619 768 530 
C 480 185 179 160 6 160 
L 6 0 
C 115 0 339 0 454 0 
C 582 0 864 0 979 -6 
L 979 160 
C 941 166 838 179 838 325 
C 838 440 890 510 947 586 
L 1478 1236 
L 2035 512 
C 2086 442 2163 346 2163 301 
C 2163 211 2086 160 1984 160 
L 1984 -6 
C 2138 0 2413 0 2573 0 
C 2746 0 2950 0 3091 -6 
L 3091 160 
C 2771 160 2675 172 2522 370 
L 1664 1477 
z
" transform="scale(0.015625)"/>
      <path id="CMR17-6d" d="M 4326 1933 
C 4326 2252 4269 2790 3507 2790 
C 3072 2790 2771 2496 2656 2151 
L 2650 2151 
C 2573 2676 2195 2790 1837 2790 
C 1331 2790 1069 2400 973 2144 
L 966 2144 
L 966 2790 
L 211 2720 
L 211 2554 
C 589 2554 646 2515 646 2208 
L 646 428 
C 646 184 621 153 211 153 
L 211 -13 
C 365 0 646 0 813 0 
C 979 0 1267 0 1421 -13 
L 1421 153 
C 1011 153 986 178 986 428 
L 986 1658 
C 986 2247 1344 2688 1792 2688 
C 2266 2688 2317 2266 2317 1958 
L 2317 428 
C 2317 184 2291 153 1882 153 
L 1882 -13 
C 2035 0 2317 0 2483 0 
C 2650 0 2938 0 3091 -13 
L 3091 153 
C 2682 153 2656 178 2656 428 
L 2656 1658 
C 2656 2247 3014 2688 3462 2688 
C 3936 2688 3987 2266 3987 1958 
L 3987 428 
C 3987 184 3962 153 3552 153 
L 3552 -13 
C 3706 0 3987 0 4154 0 
C 4320 0 4608 0 4762 -13 
L 4762 153 
C 4352 153 4326 178 4326 428 
L 4326 1933 
z
" transform="scale(0.015625)"/>
      <path id="CMR17-75" d="M 1882 2693 
L 1882 2528 
C 2259 2528 2317 2489 2317 2186 
L 2317 1032 
C 2317 500 2029 38 1555 38 
C 1030 38 986 348 986 678 
L 986 2763 
L 211 2693 
L 211 2528 
C 467 2528 640 2528 646 2274 
L 646 1058 
C 646 633 646 361 813 183 
C 896 101 1056 -64 1517 -64 
C 2061 -64 2272 377 2323 506 
L 2330 506 
L 2330 -63 
L 3091 -63 
L 3091 128 
C 2714 128 2656 166 2656 473 
L 2656 2763 
L 1882 2693 
z
" transform="scale(0.015625)"/>
      <path id="CMR17-56" d="M 3776 3745 
C 3834 3886 3936 4160 4365 4160 
L 4365 4332 
C 4218 4319 4051 4319 3891 4319 
C 3738 4319 3475 4319 3328 4332 
L 3328 4160 
C 3648 4160 3661 3936 3661 3898 
C 3661 3827 3642 3783 3622 3732 
L 2362 446 
L 1043 3886 
C 1024 3931 1011 3963 1011 3994 
C 1011 4160 1267 4160 1402 4160 
L 1402 4319 
C 1197 4319 896 4319 685 4319 
C 518 4319 218 4319 64 4332 
L 64 4160 
C 435 4160 506 4135 582 3931 
L 2106 -26 
C 2138 -115 2144 -128 2214 -128 
C 2285 -128 2291 -115 2323 -26 
L 3776 3745 
z
" transform="scale(0.015625)"/>
      <path id="CMR17-6c" d="M 979 4396 
L 218 4326 
L 218 4160 
C 595 4160 653 4122 653 3817 
L 653 426 
C 653 184 627 153 218 153 
L 218 -13 
C 371 0 653 0 813 0 
C 979 0 1261 0 1414 -13 
L 1414 153 
C 1005 153 979 178 979 426 
L 979 4396 
z
" transform="scale(0.015625)"/>
     </defs>
     <use xlink:href="#CMR17-4d" transform="scale(0.996264)"/>
     <use xlink:href="#CMR17-61" transform="translate(84.686941 0) scale(0.996264)"/>
     <use xlink:href="#CMR17-78" transform="translate(130.377418 0) scale(0.996264)"/>
     <use xlink:href="#CMR17-69" transform="translate(178.670334 0) scale(0.996264)"/>
     <use xlink:href="#CMR17-6d" transform="translate(203.541392 0) scale(0.996264)"/>
     <use xlink:href="#CMR17-75" transform="translate(277.858528 0) scale(0.996264)"/>
     <use xlink:href="#CMR17-6d" transform="translate(328.753898 0) scale(0.996264)"/>
     <use xlink:href="#CMR17-56" transform="translate(435.749454 0) scale(0.996264)"/>
     <use xlink:href="#CMR17-61" transform="translate(497.014628 0) scale(0.996264)"/>
     <use xlink:href="#CMR17-6c" transform="translate(542.705105 0) scale(0.996264)"/>
     <use xlink:href="#CMR17-75" transform="translate(567.576164 0) scale(0.996264)"/>
     <use xlink:href="#CMR17-65" transform="translate(618.471534 0) scale(0.996264)"/>
    </g>
   </g>
  </g>
 </g>
 <defs>
  <clipPath id="pc55d9dd88e">
   <rect x="59.482462" y="12.388862" width="334.8" height="166.32"/>
  </clipPath>
 </defs>
</svg>
