<?xml version="1.0" encoding="utf-8" standalone="no"?>
<!DOCTYPE svg PUBLIC "-//W3C//DTD SVG 1.1//EN"
  "http://www.w3.org/Graphics/SVG/1.1/DTD/svg11.dtd">
<svg xmlns:xlink="http://www.w3.org/1999/xlink" width="387.082462pt" height="181.355801pt" viewBox="0 0 387.082462 181.355801" xmlns="http://www.w3.org/2000/svg" version="1.1">
 <metadata>
  <rdf:RDF xmlns:dc="http://purl.org/dc/elements/1.1/" xmlns:cc="http://creativecommons.org/ns#" xmlns:rdf="http://www.w3.org/1999/02/22-rdf-syntax-ns#">
   <cc:Work>
    <dc:type rdf:resource="http://purl.org/dc/dcmitype/StillImage"/>
    <dc:date>2024-11-11T11:30:36.633970</dc:date>
    <dc:format>image/svg+xml</dc:format>
    <dc:creator>
     <cc:Agent>
      <dc:title>Matplotlib v3.9.2, https://matplotlib.org/</dc:title>
     </cc:Agent>
    </dc:creator>
   </cc:Work>
  </rdf:RDF>
 </metadata>
 <defs>
  <style type="text/css">*{stroke-linejoin: round; stroke-linecap: butt}</style>
 </defs>
 <g id="figure_1">
  <g id="patch_1">
   <path d="M 0 181.355801 
L 387.082462 181.355801 
L 387.082462 0 
L 0 0 
z
" style="fill: #ffffff"/>
  </g>
  <g id="axes_1">
   <g id="patch_2">
    <path d="M 52.282462 143.788862 
L 387.082462 143.788862 
L 387.082462 5.188862 
L 52.282462 5.188862 
z
" style="fill: #eaeaf2"/>
   </g>
   <g id="matplotlib.axis_1">
    <g id="xtick_1">
     <g id="line2d_1">
      <path d="M 67.500644 143.788862 
L 67.500644 5.188862 
" clip-path="url(#p7bfd2adbf7)" style="fill: none; stroke: #ffffff; stroke-linecap: round"/>
     </g>
     <g id="line2d_2"/>
     <g id="text_1">
      <!-- $\mathdefault{0.0}$ -->
      <g style="fill: #262626" transform="translate(58.152118 161.166587) scale(0.15 -0.15)">
       <defs>
        <path id="CMR17-30" d="M 2688 2025 
C 2688 2416 2682 3080 2413 3591 
C 2176 4039 1798 4198 1466 4198 
C 1158 4198 768 4058 525 3597 
C 269 3118 243 2524 243 2025 
C 243 1661 250 1106 448 619 
C 723 -39 1216 -128 1466 -128 
C 1760 -128 2208 -7 2470 600 
C 2662 1042 2688 1559 2688 2025 
z
M 1466 -26 
C 1056 -26 813 325 723 812 
C 653 1188 653 1738 653 2096 
C 653 2588 653 2997 736 3387 
C 858 3929 1216 4096 1466 4096 
C 1728 4096 2067 3923 2189 3400 
C 2272 3036 2278 2607 2278 2096 
C 2278 1680 2278 1169 2202 792 
C 2067 95 1690 -26 1466 -26 
z
" transform="scale(0.015625)"/>
        <path id="CMMI12-3a" d="M 1178 307 
C 1178 492 1024 619 870 619 
C 685 619 557 466 557 313 
C 557 128 710 0 864 0 
C 1050 0 1178 153 1178 307 
z
" transform="scale(0.015625)"/>
       </defs>
       <use xlink:href="#CMR17-30" transform="scale(0.996264)"/>
       <use xlink:href="#CMMI12-3a" transform="translate(45.690477 0) scale(0.996264)"/>
       <use xlink:href="#CMR17-30" transform="translate(72.787654 0) scale(0.996264)"/>
      </g>
     </g>
    </g>
    <g id="xtick_2">
     <g id="line2d_3">
      <path d="M 128.373371 143.788862 
L 128.373371 5.188862 
" clip-path="url(#p7bfd2adbf7)" style="fill: none; stroke: #ffffff; stroke-linecap: round"/>
     </g>
     <g id="line2d_4"/>
     <g id="text_2">
      <!-- $\mathdefault{0.2}$ -->
      <g style="fill: #262626" transform="translate(119.024845 161.166587) scale(0.15 -0.15)">
       <defs>
        <path id="CMR17-32" d="M 2669 989 
L 2554 989 
C 2490 536 2438 459 2413 420 
C 2381 369 1920 369 1830 369 
L 602 369 
C 832 619 1280 1072 1824 1597 
C 2214 1967 2669 2402 2669 3035 
C 2669 3790 2067 4224 1395 4224 
C 691 4224 262 3604 262 3030 
C 262 2780 448 2748 525 2748 
C 589 2748 781 2787 781 3010 
C 781 3207 614 3264 525 3264 
C 486 3264 448 3258 422 3245 
C 544 3790 915 4058 1306 4058 
C 1862 4058 2227 3617 2227 3035 
C 2227 2479 1901 2000 1536 1584 
L 262 146 
L 262 0 
L 2515 0 
L 2669 989 
z
" transform="scale(0.015625)"/>
       </defs>
       <use xlink:href="#CMR17-30" transform="scale(0.996264)"/>
       <use xlink:href="#CMMI12-3a" transform="translate(45.690477 0) scale(0.996264)"/>
       <use xlink:href="#CMR17-32" transform="translate(72.787654 0) scale(0.996264)"/>
      </g>
     </g>
    </g>
    <g id="xtick_3">
     <g id="line2d_5">
      <path d="M 189.246098 143.788862 
L 189.246098 5.188862 
" clip-path="url(#p7bfd2adbf7)" style="fill: none; stroke: #ffffff; stroke-linecap: round"/>
     </g>
     <g id="line2d_6"/>
     <g id="text_3">
      <!-- $\mathdefault{0.4}$ -->
      <g style="fill: #262626" transform="translate(179.897572 161.166587) scale(0.15 -0.15)">
       <defs>
        <path id="CMR17-34" d="M 2150 4122 
C 2150 4256 2144 4256 2029 4256 
L 128 1254 
L 128 1088 
L 1779 1088 
L 1779 457 
C 1779 224 1766 160 1318 160 
L 1197 160 
L 1197 0 
C 1402 0 1747 0 1965 0 
C 2182 0 2528 0 2733 0 
L 2733 160 
L 2611 160 
C 2163 160 2150 224 2150 457 
L 2150 1088 
L 2803 1088 
L 2803 1254 
L 2150 1254 
L 2150 4122 
z
M 1798 3703 
L 1798 1254 
L 256 1254 
L 1798 3703 
z
" transform="scale(0.015625)"/>
       </defs>
       <use xlink:href="#CMR17-30" transform="scale(0.996264)"/>
       <use xlink:href="#CMMI12-3a" transform="translate(45.690477 0) scale(0.996264)"/>
       <use xlink:href="#CMR17-34" transform="translate(72.787654 0) scale(0.996264)"/>
      </g>
     </g>
    </g>
    <g id="xtick_4">
     <g id="line2d_7">
      <path d="M 250.118826 143.788862 
L 250.118826 5.188862 
" clip-path="url(#p7bfd2adbf7)" style="fill: none; stroke: #ffffff; stroke-linecap: round"/>
     </g>
     <g id="line2d_8"/>
     <g id="text_4">
      <!-- $\mathdefault{0.6}$ -->
      <g style="fill: #262626" transform="translate(240.770299 161.166587) scale(0.15 -0.15)">
       <defs>
        <path id="CMR17-36" d="M 678 2176 
C 678 3690 1395 4032 1811 4032 
C 1946 4032 2272 4009 2400 3776 
C 2298 3776 2106 3776 2106 3553 
C 2106 3381 2246 3323 2336 3323 
C 2394 3323 2566 3348 2566 3560 
C 2566 3954 2246 4179 1805 4179 
C 1043 4179 243 3390 243 1984 
C 243 253 966 -128 1478 -128 
C 2099 -128 2688 427 2688 1283 
C 2688 2081 2170 2662 1517 2662 
C 1126 2662 838 2407 678 1960 
L 678 2176 
z
M 1478 25 
C 691 25 691 1200 691 1436 
C 691 1896 909 2560 1504 2560 
C 1613 2560 1926 2560 2138 2120 
C 2253 1870 2253 1609 2253 1289 
C 2253 944 2253 690 2118 434 
C 1978 171 1773 25 1478 25 
z
" transform="scale(0.015625)"/>
       </defs>
       <use xlink:href="#CMR17-30" transform="scale(0.996264)"/>
       <use xlink:href="#CMMI12-3a" transform="translate(45.690477 0) scale(0.996264)"/>
       <use xlink:href="#CMR17-36" transform="translate(72.787654 0) scale(0.996264)"/>
      </g>
     </g>
    </g>
    <g id="xtick_5">
     <g id="line2d_9">
      <path d="M 310.991553 143.788862 
L 310.991553 5.188862 
" clip-path="url(#p7bfd2adbf7)" style="fill: none; stroke: #ffffff; stroke-linecap: round"/>
     </g>
     <g id="line2d_10"/>
     <g id="text_5">
      <!-- $\mathdefault{0.8}$ -->
      <g style="fill: #262626" transform="translate(301.643027 161.166587) scale(0.15 -0.15)">
       <defs>
        <path id="CMR17-38" d="M 1741 2264 
C 2144 2467 2554 2773 2554 3263 
C 2554 3841 1990 4179 1472 4179 
C 890 4179 378 3759 378 3180 
C 378 3021 416 2747 666 2505 
C 730 2442 998 2251 1171 2130 
C 883 1983 211 1634 211 934 
C 211 279 838 -128 1459 -128 
C 2144 -128 2720 362 2720 1010 
C 2720 1590 2330 1857 2074 2029 
L 1741 2264 
z
M 902 2822 
C 851 2854 595 3051 595 3351 
C 595 3739 998 4032 1459 4032 
C 1965 4032 2336 3676 2336 3262 
C 2336 2669 1670 2331 1638 2331 
C 1632 2331 1626 2331 1574 2370 
L 902 2822 
z
M 2080 1519 
C 2176 1449 2483 1240 2483 851 
C 2483 381 2010 25 1472 25 
C 890 25 448 438 448 940 
C 448 1443 838 1862 1280 2060 
L 2080 1519 
z
" transform="scale(0.015625)"/>
       </defs>
       <use xlink:href="#CMR17-30" transform="scale(0.996264)"/>
       <use xlink:href="#CMMI12-3a" transform="translate(45.690477 0) scale(0.996264)"/>
       <use xlink:href="#CMR17-38" transform="translate(72.787654 0) scale(0.996264)"/>
      </g>
     </g>
    </g>
    <g id="xtick_6">
     <g id="line2d_11">
      <path d="M 371.86428 143.788862 
L 371.86428 5.188862 
" clip-path="url(#p7bfd2adbf7)" style="fill: none; stroke: #ffffff; stroke-linecap: round"/>
     </g>
     <g id="line2d_12"/>
     <g id="text_6">
      <!-- $\mathdefault{1.0}$ -->
      <g style="fill: #262626" transform="translate(362.515754 161.166587) scale(0.15 -0.15)">
       <defs>
        <path id="CMR17-31" d="M 1702 4058 
C 1702 4192 1696 4192 1606 4192 
C 1357 3916 979 3827 621 3827 
C 602 3827 570 3827 563 3808 
C 557 3795 557 3782 557 3648 
C 755 3648 1088 3686 1344 3839 
L 1344 461 
C 1344 236 1331 160 781 160 
L 589 160 
L 589 0 
C 896 0 1216 0 1523 0 
C 1830 0 2150 0 2458 0 
L 2458 160 
L 2266 160 
C 1715 160 1702 230 1702 458 
L 1702 4058 
z
" transform="scale(0.015625)"/>
       </defs>
       <use xlink:href="#CMR17-31" transform="scale(0.996264)"/>
       <use xlink:href="#CMMI12-3a" transform="translate(45.690477 0) scale(0.996264)"/>
       <use xlink:href="#CMR17-30" transform="translate(72.787654 0) scale(0.996264)"/>
      </g>
     </g>
    </g>
    <g id="text_7">
     <!-- $s_1$ -->
     <g style="fill: #262626" transform="translate(213.621025 178.450057) scale(0.15 -0.15)">
      <defs>
       <path id="CMMI12-73" d="M 1459 1280 
C 1568 1261 1741 1223 1779 1216 
C 1862 1192 2150 1090 2150 783 
C 2150 586 1971 70 1229 70 
C 1094 70 614 70 486 436 
C 742 404 870 603 870 745 
C 870 880 781 950 653 950 
C 512 950 326 841 326 552 
C 326 173 710 -64 1222 -64 
C 2195 -64 2483 651 2483 984 
C 2483 1079 2483 1258 2278 1462 
C 2118 1616 1965 1648 1619 1718 
C 1446 1756 1171 1814 1171 2101 
C 1171 2229 1286 2689 1894 2689 
C 2163 2689 2426 2589 2490 2368 
C 2208 2368 2195 2125 2195 2119 
C 2195 1984 2317 1946 2374 1946 
C 2464 1946 2643 2015 2643 2281 
C 2643 2545 2400 2816 1901 2816 
C 1062 2816 838 2160 838 1899 
C 838 1414 1312 1312 1459 1280 
z
" transform="scale(0.015625)"/>
      </defs>
      <use xlink:href="#CMMI12-73" transform="scale(0.996264)"/>
      <use xlink:href="#CMR17-31" transform="translate(45.950048 -14.943915) scale(0.697382)"/>
     </g>
    </g>
   </g>
   <g id="matplotlib.axis_2">
    <g id="ytick_1">
     <g id="line2d_13">
      <path d="M 52.282462 143.788862 
L 387.082462 143.788862 
" clip-path="url(#p7bfd2adbf7)" style="fill: none; stroke: #ffffff; stroke-linecap: round"/>
     </g>
     <g id="line2d_14"/>
     <g id="text_8">
      <!-- $\mathdefault{10^{-2}}$ -->
      <g style="fill: #262626" transform="translate(17.283469 148.977725) scale(0.15 -0.15)">
       <defs>
        <path id="CMSY10-0" d="M 4218 1472 
C 4326 1472 4442 1472 4442 1600 
C 4442 1728 4326 1728 4218 1728 
L 755 1728 
C 646 1728 531 1728 531 1600 
C 531 1472 646 1472 755 1472 
L 4218 1472 
z
" transform="scale(0.015625)"/>
       </defs>
       <use xlink:href="#CMR17-31" transform="scale(0.996264)"/>
       <use xlink:href="#CMR17-30" transform="translate(45.690477 0) scale(0.996264)"/>
       <use xlink:href="#CMSY10-0" transform="translate(91.380954 36.153639) scale(0.697382)"/>
       <use xlink:href="#CMR17-32" transform="translate(145.621947 36.153639) scale(0.697382)"/>
      </g>
     </g>
    </g>
    <g id="ytick_2">
     <g id="line2d_15">
      <path d="M 52.282462 109.138862 
L 387.082462 109.138862 
" clip-path="url(#p7bfd2adbf7)" style="fill: none; stroke: #ffffff; stroke-linecap: round"/>
     </g>
     <g id="line2d_16"/>
     <g id="text_9">
      <!-- $\mathdefault{10^{-1}}$ -->
      <g style="fill: #262626" transform="translate(17.283469 114.327725) scale(0.15 -0.15)">
       <use xlink:href="#CMR17-31" transform="scale(0.996264)"/>
       <use xlink:href="#CMR17-30" transform="translate(45.690477 0) scale(0.996264)"/>
       <use xlink:href="#CMSY10-0" transform="translate(91.380954 36.153639) scale(0.697382)"/>
       <use xlink:href="#CMR17-31" transform="translate(145.621947 36.153639) scale(0.697382)"/>
      </g>
     </g>
    </g>
    <g id="ytick_3">
     <g id="line2d_17">
      <path d="M 52.282462 74.488862 
L 387.082462 74.488862 
" clip-path="url(#p7bfd2adbf7)" style="fill: none; stroke: #ffffff; stroke-linecap: round"/>
     </g>
     <g id="line2d_18"/>
     <g id="text_10">
      <!-- $\mathdefault{10^{0}}$ -->
      <g style="fill: #262626" transform="translate(25.419615 79.677725) scale(0.15 -0.15)">
       <use xlink:href="#CMR17-31" transform="scale(0.996264)"/>
       <use xlink:href="#CMR17-30" transform="translate(45.690477 0) scale(0.996264)"/>
       <use xlink:href="#CMR17-30" transform="translate(91.380954 36.153639) scale(0.697382)"/>
      </g>
     </g>
    </g>
    <g id="ytick_4">
     <g id="line2d_19">
      <path d="M 52.282462 39.838862 
L 387.082462 39.838862 
" clip-path="url(#p7bfd2adbf7)" style="fill: none; stroke: #ffffff; stroke-linecap: round"/>
     </g>
     <g id="line2d_20"/>
     <g id="text_11">
      <!-- $\mathdefault{10^{1}}$ -->
      <g style="fill: #262626" transform="translate(25.419615 45.027725) scale(0.15 -0.15)">
       <use xlink:href="#CMR17-31" transform="scale(0.996264)"/>
       <use xlink:href="#CMR17-30" transform="translate(45.690477 0) scale(0.996264)"/>
       <use xlink:href="#CMR17-31" transform="translate(91.380954 36.153639) scale(0.697382)"/>
      </g>
     </g>
    </g>
    <g id="ytick_5">
     <g id="line2d_21">
      <path d="M 52.282462 5.188862 
L 387.082462 5.188862 
" clip-path="url(#p7bfd2adbf7)" style="fill: none; stroke: #ffffff; stroke-linecap: round"/>
     </g>
     <g id="line2d_22"/>
     <g id="text_12">
      <!-- $\mathdefault{10^{2}}$ -->
      <g style="fill: #262626" transform="translate(25.419615 10.377725) scale(0.15 -0.15)">
       <use xlink:href="#CMR17-31" transform="scale(0.996264)"/>
       <use xlink:href="#CMR17-30" transform="translate(45.690477 0) scale(0.996264)"/>
       <use xlink:href="#CMR17-32" transform="translate(91.380954 36.153639) scale(0.697382)"/>
      </g>
     </g>
    </g>
    <g id="ytick_6">
     <g id="line2d_23"/>
    </g>
    <g id="ytick_7">
     <g id="line2d_24"/>
    </g>
    <g id="ytick_8">
     <g id="line2d_25"/>
    </g>
    <g id="ytick_9">
     <g id="line2d_26"/>
    </g>
    <g id="ytick_10">
     <g id="line2d_27"/>
    </g>
    <g id="ytick_11">
     <g id="line2d_28"/>
    </g>
    <g id="ytick_12">
     <g id="line2d_29"/>
    </g>
    <g id="ytick_13">
     <g id="line2d_30"/>
    </g>
    <g id="ytick_14">
     <g id="line2d_31"/>
    </g>
    <g id="ytick_15">
     <g id="line2d_32"/>
    </g>
    <g id="ytick_16">
     <g id="line2d_33"/>
    </g>
    <g id="ytick_17">
     <g id="line2d_34"/>
    </g>
    <g id="ytick_18">
     <g id="line2d_35"/>
    </g>
    <g id="ytick_19">
     <g id="line2d_36"/>
    </g>
    <g id="ytick_20">
     <g id="line2d_37"/>
    </g>
    <g id="ytick_21">
     <g id="line2d_38"/>
    </g>
    <g id="ytick_22">
     <g id="line2d_39"/>
    </g>
    <g id="ytick_23">
     <g id="line2d_40"/>
    </g>
    <g id="ytick_24">
     <g id="line2d_41"/>
    </g>
    <g id="ytick_25">
     <g id="line2d_42"/>
    </g>
    <g id="ytick_26">
     <g id="line2d_43"/>
    </g>
    <g id="ytick_27">
     <g id="line2d_44"/>
    </g>
    <g id="ytick_28">
     <g id="line2d_45"/>
    </g>
    <g id="ytick_29">
     <g id="line2d_46"/>
    </g>
    <g id="ytick_30">
     <g id="line2d_47"/>
    </g>
    <g id="ytick_31">
     <g id="line2d_48"/>
    </g>
    <g id="ytick_32">
     <g id="line2d_49"/>
    </g>
    <g id="ytick_33">
     <g id="line2d_50"/>
    </g>
    <g id="ytick_34">
     <g id="line2d_51"/>
    </g>
    <g id="ytick_35">
     <g id="line2d_52"/>
    </g>
    <g id="ytick_36">
     <g id="line2d_53"/>
    </g>
    <g id="ytick_37">
     <g id="line2d_54"/>
    </g>
    <g id="text_13">
     <!-- Density -->
     <g style="fill: #262626" transform="translate(10.377725 98.814048) rotate(-90) scale(0.15 -0.15)">
      <defs>
       <path id="CMR17-44" d="M 333 4352 
L 333 4186 
C 774 4186 845 4186 845 3900 
L 845 452 
C 845 166 774 166 333 166 
L 333 0 
L 2368 0 
C 3398 0 4224 943 4224 2141 
C 4224 3346 3411 4352 2368 4352 
L 333 4352 
z
M 1523 166 
C 1267 166 1254 197 1254 414 
L 1254 3938 
C 1254 4155 1267 4186 1523 4186 
L 2240 4186 
C 2771 4186 3750 3874 3750 2141 
C 3750 1242 3488 879 3366 707 
C 3213 510 2848 166 2240 166 
L 1523 166 
z
" transform="scale(0.015625)"/>
       <path id="CMR17-65" d="M 2438 1472 
C 2464 1498 2464 1511 2464 1576 
C 2464 2238 2118 2816 1389 2816 
C 710 2816 173 2169 173 1383 
C 173 551 781 -64 1459 -64 
C 2176 -64 2458 607 2458 740 
C 2458 784 2419 784 2406 784 
C 2362 784 2355 771 2330 696 
C 2189 265 1837 51 1504 51 
C 1229 51 954 203 781 480 
C 582 803 582 1176 582 1472 
L 2438 1472 
z
M 589 1568 
C 634 2505 1126 2714 1382 2714 
C 1818 2714 2112 2297 2118 1568 
L 589 1568 
z
" transform="scale(0.015625)"/>
       <path id="CMR17-6e" d="M 2656 1933 
C 2656 2259 2592 2790 1837 2790 
C 1331 2790 1069 2400 973 2144 
L 966 2144 
L 966 2790 
L 211 2720 
L 211 2554 
C 589 2554 646 2515 646 2208 
L 646 428 
C 646 184 621 153 211 153 
L 211 -13 
C 365 0 646 0 813 0 
C 979 0 1267 0 1421 -13 
L 1421 153 
C 1011 153 986 178 986 428 
L 986 1658 
C 986 2247 1344 2688 1792 2688 
C 2266 2688 2317 2266 2317 1958 
L 2317 428 
C 2317 184 2291 153 1882 153 
L 1882 -13 
C 2035 0 2317 0 2483 0 
C 2650 0 2938 0 3091 -13 
L 3091 153 
C 2682 153 2656 178 2656 428 
L 2656 1933 
z
" transform="scale(0.015625)"/>
       <path id="CMR17-73" d="M 1978 2697 
C 1978 2813 1971 2819 1933 2819 
C 1907 2819 1901 2813 1824 2717 
C 1805 2691 1747 2626 1728 2601 
C 1523 2819 1235 2819 1126 2819 
C 416 2819 160 2447 160 2076 
C 160 1498 813 1365 998 1325 
C 1402 1243 1542 1217 1677 1101 
C 1760 1025 1901 884 1901 654 
C 1901 384 1747 38 1158 38 
C 602 38 403 460 288 1021 
C 269 1110 269 1117 218 1117 
C 166 1117 160 1110 160 983 
L 160 63 
C 160 -51 166 -58 205 -58 
C 237 -58 243 -51 275 0 
C 314 57 410 211 448 276 
C 576 103 800 -64 1158 -64 
C 1792 -64 2131 283 2131 784 
C 2131 1112 1958 1285 1875 1362 
C 1683 1561 1459 1606 1190 1657 
C 838 1735 390 1825 390 2217 
C 390 2383 480 2737 1126 2737 
C 1811 2737 1850 2094 1862 1888 
C 1869 1856 1901 1849 1920 1849 
C 1978 1849 1978 1869 1978 1978 
L 1978 2697 
z
" transform="scale(0.015625)"/>
       <path id="CMR17-69" d="M 992 3909 
C 992 4049 877 4170 730 4170 
C 589 4170 467 4056 467 3909 
C 467 3769 582 3648 730 3648 
C 870 3648 992 3763 992 3909 
z
M 243 2706 
L 243 2541 
C 602 2541 653 2502 653 2197 
L 653 427 
C 653 184 627 153 218 153 
L 218 -13 
C 371 0 646 0 806 0 
C 960 0 1222 0 1370 -13 
L 1370 153 
C 992 153 979 191 979 420 
L 979 2776 
L 243 2706 
z
" transform="scale(0.015625)"/>
       <path id="CMR17-74" d="M 966 2560 
L 1862 2560 
L 1862 2725 
L 966 2725 
L 966 3904 
L 851 3904 
C 838 3245 614 2668 70 2668 
L 70 2560 
L 627 2560 
L 627 771 
C 627 650 627 -64 1370 -64 
C 1747 -64 1965 306 1965 777 
L 1965 1140 
L 1850 1140 
L 1850 783 
C 1850 344 1677 51 1408 51 
C 1222 51 966 178 966 758 
L 966 2560 
z
" transform="scale(0.015625)"/>
       <path id="CMR17-79" d="M 2496 2197 
C 2656 2586 2944 2586 3034 2586 
L 3034 2752 
C 2912 2752 2752 2752 2630 2752 
C 2496 2752 2285 2752 2157 2758 
L 2157 2592 
C 2400 2573 2406 2394 2406 2343 
C 2406 2280 2394 2248 2362 2171 
L 1664 449 
L 902 2306 
C 870 2382 870 2426 870 2433 
C 870 2573 1018 2586 1171 2586 
L 1171 2758 
C 1018 2752 742 2752 582 2752 
C 410 2752 205 2752 64 2758 
L 64 2586 
C 410 2586 448 2554 531 2350 
L 1485 15 
C 1197 -738 1030 -1178 627 -1178 
C 557 -1178 397 -1159 282 -1044 
C 429 -1031 493 -942 493 -833 
C 493 -725 416 -629 288 -629 
C 147 -629 77 -725 77 -840 
C 77 -1095 339 -1280 627 -1280 
C 998 -1280 1229 -922 1357 -604 
L 2496 2197 
z
" transform="scale(0.015625)"/>
      </defs>
      <use xlink:href="#CMR17-44" transform="scale(0.996264)"/>
      <use xlink:href="#CMR17-65" transform="translate(70.393556 0) scale(0.996264)"/>
      <use xlink:href="#CMR17-6e" transform="translate(110.879216 0) scale(0.996264)"/>
      <use xlink:href="#CMR17-73" transform="translate(161.774586 0) scale(0.996264)"/>
      <use xlink:href="#CMR17-69" transform="translate(197.575924 0) scale(0.996264)"/>
      <use xlink:href="#CMR17-74" transform="translate(222.446982 0) scale(0.996264)"/>
      <use xlink:href="#CMR17-79" transform="translate(255.125296 0) scale(0.996264)"/>
     </g>
    </g>
   </g>
   <g id="PolyCollection_1">
    <path d="M 64.520261 197.613594 
L 64.520261 34724.488862 
L 65.142153 34724.488862 
L 65.764046 34724.488862 
L 66.385939 34724.488862 
L 67.007831 34724.488862 
L 67.629724 34724.488862 
L 68.251616 34724.488862 
L 68.873509 34724.488862 
L 69.495402 34724.488862 
L 70.117294 34724.488862 
L 70.739187 34724.488862 
L 71.361079 34724.488862 
L 71.982972 34724.488862 
L 72.604865 34724.488862 
L 73.226757 34724.488862 
L 73.84865 34724.488862 
L 74.470542 34724.488862 
L 75.092435 34724.488862 
L 75.714327 34724.488862 
L 76.33622 34724.488862 
L 76.958113 34724.488862 
L 77.580005 34724.488862 
L 78.201898 34724.488862 
L 78.82379 34724.488862 
L 79.445683 34724.488862 
L 80.067576 34724.488862 
L 80.689468 34724.488862 
L 81.311361 34724.488862 
L 81.933253 34724.488862 
L 82.555146 34724.488862 
L 83.177039 34724.488862 
L 83.798931 34724.488862 
L 84.420824 34724.488862 
L 85.042716 34724.488862 
L 85.664609 34724.488862 
L 86.286501 34724.488862 
L 86.908394 34724.488862 
L 87.530287 34724.488862 
L 88.152179 34724.488862 
L 88.774072 34724.488862 
L 89.395964 34724.488862 
L 90.017857 34724.488862 
L 90.63975 34724.488862 
L 91.261642 34724.488862 
L 91.883535 34724.488862 
L 92.505427 34724.488862 
L 93.12732 34724.488862 
L 93.749213 34724.488862 
L 94.371105 34724.488862 
L 94.992998 34724.488862 
L 95.61489 34724.488862 
L 96.236783 34724.488862 
L 96.858676 34724.488862 
L 97.480568 34724.488862 
L 98.102461 34724.488862 
L 98.724353 34724.488862 
L 99.346246 34724.488862 
L 99.968138 34724.488862 
L 100.590031 34724.488862 
L 101.211924 34724.488862 
L 101.833816 34724.488862 
L 102.455709 34724.488862 
L 103.077601 34724.488862 
L 103.699494 34724.488862 
L 104.321387 34724.488862 
L 104.943279 34724.488862 
L 105.565172 34724.488862 
L 106.187064 34724.488862 
L 106.808957 34724.488862 
L 107.43085 34724.488862 
L 108.052742 34724.488862 
L 108.674635 34724.488862 
L 109.296527 34724.488862 
L 109.91842 34724.488862 
L 110.540312 34724.488862 
L 111.162205 34724.488862 
L 111.784098 34724.488862 
L 112.40599 34724.488862 
L 113.027883 34724.488862 
L 113.649775 34724.488862 
L 114.271668 34724.488862 
L 114.893561 34724.488862 
L 115.515453 34724.488862 
L 116.137346 34724.488862 
L 116.759238 34724.488862 
L 117.381131 34724.488862 
L 118.003024 34724.488862 
L 118.624916 34724.488862 
L 119.246809 34724.488862 
L 119.868701 34724.488862 
L 120.490594 34724.488862 
L 121.112486 34724.488862 
L 121.734379 34724.488862 
L 122.356272 34724.488862 
L 122.978164 34724.488862 
L 123.600057 34724.488862 
L 124.221949 34724.488862 
L 124.843842 34724.488862 
L 125.465735 34724.488862 
L 126.087627 34724.488862 
L 126.70952 34724.488862 
L 127.331412 34724.488862 
L 127.953305 34724.488862 
L 128.575198 34724.488862 
L 129.19709 34724.488862 
L 129.818983 34724.488862 
L 130.440875 34724.488862 
L 131.062768 34724.488862 
L 131.684661 34724.488862 
L 132.306553 34724.488862 
L 132.928446 34724.488862 
L 133.550338 34724.488862 
L 134.172231 34724.488862 
L 134.794123 34724.488862 
L 135.416016 34724.488862 
L 136.037909 34724.488862 
L 136.659801 34724.488862 
L 137.281694 34724.488862 
L 137.903586 34724.488862 
L 138.525479 34724.488862 
L 139.147372 34724.488862 
L 139.769264 34724.488862 
L 140.391157 34724.488862 
L 141.013049 34724.488862 
L 141.634942 34724.488862 
L 142.256835 34724.488862 
L 142.878727 34724.488862 
L 143.50062 34724.488862 
L 144.122512 34724.488862 
L 144.744405 34724.488862 
L 145.366297 34724.488862 
L 145.98819 34724.488862 
L 146.610083 34724.488862 
L 147.231975 34724.488862 
L 147.853868 34724.488862 
L 148.47576 34724.488862 
L 149.097653 34724.488862 
L 149.719546 34724.488862 
L 150.341438 34724.488862 
L 150.963331 34724.488862 
L 151.585223 34724.488862 
L 152.207116 34724.488862 
L 152.829009 34724.488862 
L 153.450901 34724.488862 
L 154.072794 34724.488862 
L 154.694686 34724.488862 
L 155.316579 34724.488862 
L 155.938471 34724.488862 
L 156.560364 34724.488862 
L 157.182257 34724.488862 
L 157.804149 34724.488862 
L 158.426042 34724.488862 
L 159.047934 34724.488862 
L 159.669827 34724.488862 
L 160.29172 34724.488862 
L 160.913612 34724.488862 
L 161.535505 34724.488862 
L 162.157397 34724.488862 
L 162.77929 34724.488862 
L 163.401183 34724.488862 
L 164.023075 34724.488862 
L 164.644968 34724.488862 
L 165.26686 34724.488862 
L 165.888753 34724.488862 
L 166.510646 34724.488862 
L 167.132538 34724.488862 
L 167.754431 34724.488862 
L 168.376323 34724.488862 
L 168.998216 34724.488862 
L 169.620108 34724.488862 
L 170.242001 34724.488862 
L 170.863894 34724.488862 
L 171.485786 34724.488862 
L 172.107679 34724.488862 
L 172.729571 34724.488862 
L 173.351464 34724.488862 
L 173.973357 34724.488862 
L 174.595249 34724.488862 
L 175.217142 34724.488862 
L 175.839034 34724.488862 
L 176.460927 34724.488862 
L 177.08282 34724.488862 
L 177.704712 34724.488862 
L 178.326605 34724.488862 
L 178.948497 34724.488862 
L 179.57039 34724.488862 
L 180.192282 34724.488862 
L 180.814175 34724.488862 
L 181.436068 34724.488862 
L 182.05796 34724.488862 
L 182.679853 34724.488862 
L 183.301745 34724.488862 
L 183.923638 34724.488862 
L 184.545531 34724.488862 
L 185.167423 34724.488862 
L 185.789316 34724.488862 
L 186.411208 34724.488862 
L 187.033101 34724.488862 
L 187.654994 34724.488862 
L 188.276886 34724.488862 
L 188.898779 34724.488862 
L 189.520671 34724.488862 
L 190.142564 34724.488862 
L 190.764456 34724.488862 
L 191.386349 34724.488862 
L 192.008242 34724.488862 
L 192.630134 34724.488862 
L 193.252027 34724.488862 
L 193.873919 34724.488862 
L 194.495812 34724.488862 
L 195.117705 34724.488862 
L 195.739597 34724.488862 
L 196.36149 34724.488862 
L 196.983382 34724.488862 
L 197.605275 34724.488862 
L 198.227168 34724.488862 
L 198.84906 34724.488862 
L 199.470953 34724.488862 
L 200.092845 34724.488862 
L 200.714738 34724.488862 
L 201.336631 34724.488862 
L 201.958523 34724.488862 
L 202.580416 34724.488862 
L 203.202308 34724.488862 
L 203.824201 34724.488862 
L 204.446093 34724.488862 
L 205.067986 34724.488862 
L 205.689879 34724.488862 
L 206.311771 34724.488862 
L 206.933664 34724.488862 
L 207.555556 34724.488862 
L 208.177449 34724.488862 
L 208.799342 34724.488862 
L 209.421234 34724.488862 
L 210.043127 34724.488862 
L 210.665019 34724.488862 
L 211.286912 34724.488862 
L 211.908805 34724.488862 
L 212.530697 34724.488862 
L 213.15259 34724.488862 
L 213.774482 34724.488862 
L 214.396375 34724.488862 
L 215.018267 34724.488862 
L 215.64016 34724.488862 
L 216.262053 34724.488862 
L 216.883945 34724.488862 
L 217.505838 34724.488862 
L 218.12773 34724.488862 
L 218.749623 34724.488862 
L 219.371516 34724.488862 
L 219.993408 34724.488862 
L 220.615301 34724.488862 
L 221.237193 34724.488862 
L 221.859086 34724.488862 
L 222.480979 34724.488862 
L 223.102871 34724.488862 
L 223.724764 34724.488862 
L 224.346656 34724.488862 
L 224.968549 34724.488862 
L 225.590441 34724.488862 
L 226.212334 34724.488862 
L 226.834227 34724.488862 
L 227.456119 34724.488862 
L 228.078012 34724.488862 
L 228.699904 34724.488862 
L 229.321797 34724.488862 
L 229.94369 34724.488862 
L 230.565582 34724.488862 
L 231.187475 34724.488862 
L 231.809367 34724.488862 
L 232.43126 34724.488862 
L 233.053153 34724.488862 
L 233.675045 34724.488862 
L 234.296938 34724.488862 
L 234.91883 34724.488862 
L 235.540723 34724.488862 
L 236.162616 34724.488862 
L 236.784508 34724.488862 
L 237.406401 34724.488862 
L 238.028293 34724.488862 
L 238.650186 34724.488862 
L 239.272078 34724.488862 
L 239.893971 34724.488862 
L 240.515864 34724.488862 
L 241.137756 34724.488862 
L 241.759649 34724.488862 
L 242.381541 34724.488862 
L 243.003434 34724.488862 
L 243.625327 34724.488862 
L 244.247219 34724.488862 
L 244.869112 34724.488862 
L 245.491004 34724.488862 
L 246.112897 34724.488862 
L 246.73479 34724.488862 
L 247.356682 34724.488862 
L 247.978575 34724.488862 
L 248.600467 34724.488862 
L 249.22236 34724.488862 
L 249.844252 34724.488862 
L 250.466145 34724.488862 
L 251.088038 34724.488862 
L 251.70993 34724.488862 
L 252.331823 34724.488862 
L 252.953715 34724.488862 
L 253.575608 34724.488862 
L 254.197501 34724.488862 
L 254.819393 34724.488862 
L 255.441286 34724.488862 
L 256.063178 34724.488862 
L 256.685071 34724.488862 
L 257.306964 34724.488862 
L 257.928856 34724.488862 
L 258.550749 34724.488862 
L 259.172641 34724.488862 
L 259.794534 34724.488862 
L 260.416426 34724.488862 
L 261.038319 34724.488862 
L 261.660212 34724.488862 
L 262.282104 34724.488862 
L 262.903997 34724.488862 
L 263.525889 34724.488862 
L 264.147782 34724.488862 
L 264.769675 34724.488862 
L 265.391567 34724.488862 
L 266.01346 34724.488862 
L 266.635352 34724.488862 
L 267.257245 34724.488862 
L 267.879138 34724.488862 
L 268.50103 34724.488862 
L 269.122923 34724.488862 
L 269.744815 34724.488862 
L 270.366708 34724.488862 
L 270.988601 34724.488862 
L 271.610493 34724.488862 
L 272.232386 34724.488862 
L 272.854278 34724.488862 
L 273.476171 34724.488862 
L 274.098063 34724.488862 
L 274.719956 34724.488862 
L 275.341849 34724.488862 
L 275.963741 34724.488862 
L 276.585634 34724.488862 
L 277.207526 34724.488862 
L 277.829419 34724.488862 
L 278.451312 34724.488862 
L 279.073204 34724.488862 
L 279.695097 34724.488862 
L 280.316989 34724.488862 
L 280.938882 34724.488862 
L 281.560775 34724.488862 
L 282.182667 34724.488862 
L 282.80456 34724.488862 
L 283.426452 34724.488862 
L 284.048345 34724.488862 
L 284.670237 34724.488862 
L 285.29213 34724.488862 
L 285.914023 34724.488862 
L 286.535915 34724.488862 
L 287.157808 34724.488862 
L 287.7797 34724.488862 
L 288.401593 34724.488862 
L 289.023486 34724.488862 
L 289.645378 34724.488862 
L 290.267271 34724.488862 
L 290.889163 34724.488862 
L 291.511056 34724.488862 
L 292.132949 34724.488862 
L 292.754841 34724.488862 
L 293.376734 34724.488862 
L 293.998626 34724.488862 
L 294.620519 34724.488862 
L 295.242411 34724.488862 
L 295.864304 34724.488862 
L 296.486197 34724.488862 
L 297.108089 34724.488862 
L 297.729982 34724.488862 
L 298.351874 34724.488862 
L 298.973767 34724.488862 
L 299.59566 34724.488862 
L 300.217552 34724.488862 
L 300.839445 34724.488862 
L 301.461337 34724.488862 
L 302.08323 34724.488862 
L 302.705123 34724.488862 
L 303.327015 34724.488862 
L 303.948908 34724.488862 
L 304.5708 34724.488862 
L 305.192693 34724.488862 
L 305.814586 34724.488862 
L 306.436478 34724.488862 
L 307.058371 34724.488862 
L 307.680263 34724.488862 
L 308.302156 34724.488862 
L 308.924048 34724.488862 
L 309.545941 34724.488862 
L 310.167834 34724.488862 
L 310.789726 34724.488862 
L 311.411619 34724.488862 
L 312.033511 34724.488862 
L 312.655404 34724.488862 
L 313.277297 34724.488862 
L 313.899189 34724.488862 
L 314.521082 34724.488862 
L 315.142974 34724.488862 
L 315.764867 34724.488862 
L 316.38676 34724.488862 
L 317.008652 34724.488862 
L 317.630545 34724.488862 
L 318.252437 34724.488862 
L 318.87433 34724.488862 
L 319.496222 34724.488862 
L 320.118115 34724.488862 
L 320.740008 34724.488862 
L 321.3619 34724.488862 
L 321.983793 34724.488862 
L 322.605685 34724.488862 
L 323.227578 34724.488862 
L 323.849471 34724.488862 
L 324.471363 34724.488862 
L 325.093256 34724.488862 
L 325.715148 34724.488862 
L 326.337041 34724.488862 
L 326.958934 34724.488862 
L 327.580826 34724.488862 
L 328.202719 34724.488862 
L 328.824611 34724.488862 
L 329.446504 34724.488862 
L 330.068396 34724.488862 
L 330.690289 34724.488862 
L 331.312182 34724.488862 
L 331.934074 34724.488862 
L 332.555967 34724.488862 
L 333.177859 34724.488862 
L 333.799752 34724.488862 
L 334.421645 34724.488862 
L 335.043537 34724.488862 
L 335.66543 34724.488862 
L 336.287322 34724.488862 
L 336.909215 34724.488862 
L 337.531108 34724.488862 
L 338.153 34724.488862 
L 338.774893 34724.488862 
L 339.396785 34724.488862 
L 340.018678 34724.488862 
L 340.640571 34724.488862 
L 341.262463 34724.488862 
L 341.884356 34724.488862 
L 342.506248 34724.488862 
L 343.128141 34724.488862 
L 343.750033 34724.488862 
L 344.371926 34724.488862 
L 344.993819 34724.488862 
L 345.615711 34724.488862 
L 346.237604 34724.488862 
L 346.859496 34724.488862 
L 347.481389 34724.488862 
L 348.103282 34724.488862 
L 348.725174 34724.488862 
L 349.347067 34724.488862 
L 349.968959 34724.488862 
L 350.590852 34724.488862 
L 351.212745 34724.488862 
L 351.834637 34724.488862 
L 352.45653 34724.488862 
L 353.078422 34724.488862 
L 353.700315 34724.488862 
L 354.322207 34724.488862 
L 354.9441 34724.488862 
L 355.565993 34724.488862 
L 356.187885 34724.488862 
L 356.809778 34724.488862 
L 357.43167 34724.488862 
L 358.053563 34724.488862 
L 358.675456 34724.488862 
L 359.297348 34724.488862 
L 359.919241 34724.488862 
L 360.541133 34724.488862 
L 361.163026 34724.488862 
L 361.784919 34724.488862 
L 362.406811 34724.488862 
L 363.028704 34724.488862 
L 363.650596 34724.488862 
L 364.272489 34724.488862 
L 364.894381 34724.488862 
L 365.516274 34724.488862 
L 366.138167 34724.488862 
L 366.760059 34724.488862 
L 367.381952 34724.488862 
L 368.003844 34724.488862 
L 368.625737 34724.488862 
L 369.24763 34724.488862 
L 369.869522 34724.488862 
L 370.491415 34724.488862 
L 371.113307 34724.488862 
L 371.7352 34724.488862 
L 372.357093 34724.488862 
L 372.978985 34724.488862 
L 373.600878 34724.488862 
L 374.22277 34724.488862 
L 374.844663 34724.488862 
L 374.844663 198.052712 
L 374.844663 198.052712 
L 374.22277 172.741034 
L 373.600878 153.326161 
L 372.978985 139.808092 
L 372.357093 132.186827 
L 371.7352 130.462366 
L 371.113307 134.63471 
L 370.491415 144.703857 
L 369.869522 160.669809 
L 369.24763 182.532566 
L 368.625737 210.292127 
L 368.003844 243.948491 
L 367.381952 283.501661 
L 366.760059 328.951634 
L 366.138167 380.298412 
L 365.516274 437.541994 
L 364.894381 500.68238 
L 364.272489 569.719571 
L 363.650596 644.651883 
L 363.028704 694.781888 
L 362.406811 618.084912 
L 361.784919 545.189249 
L 361.163026 478.190353 
L 360.541133 417.088261 
L 359.919241 361.882972 
L 359.297348 312.574486 
L 358.675456 269.162793 
L 358.053563 231.647851 
L 357.43167 200.02947 
L 356.809778 174.306746 
L 356.187885 154.475445 
L 355.565993 140.515664 
L 354.9441 132.333929 
L 354.322207 129.500146 
L 353.700315 130.257922 
L 353.078422 130.138852 
L 352.45653 126.420433 
L 351.834637 122.30833 
L 351.212745 120.051086 
L 350.590852 119.758998 
L 349.968959 121.535436 
L 349.347067 126.153958 
L 348.725174 134.650544 
L 348.103282 147.872731 
L 347.481389 166.363074 
L 346.859496 190.422357 
L 346.237604 219.628379 
L 345.615711 228.41787 
L 344.993819 199.529097 
L 344.371926 173.928843 
L 343.750033 154.203059 
L 343.128141 140.373903 
L 342.506248 132.441543 
L 341.884356 130.40584 
L 341.262463 134.263817 
L 340.640571 143.952431 
L 340.018678 158.203968 
L 339.396785 163.784723 
L 338.774893 150.599097 
L 338.153 138.271928 
L 337.531108 131.550814 
L 336.909215 130.712654 
L 336.287322 135.770646 
L 335.66543 146.72541 
L 335.043537 163.576857 
L 334.421645 186.312885 
L 333.799752 213.756091 
L 333.177859 215.598029 
L 332.555967 188.178262 
L 331.934074 165.017577 
L 331.312182 147.72316 
L 330.690289 136.2615 
L 330.068396 130.394013 
L 329.446504 129.059038 
L 328.824611 128.79032 
L 328.202719 125.39672 
L 327.580826 121.034412 
L 326.958934 119.440469 
L 326.337041 120.572405 
L 325.715148 121.25882 
L 325.093256 119.62557 
L 324.471363 117.909004 
L 323.849471 117.148252 
L 323.227578 115.755786 
L 322.605685 112.839532 
L 321.983793 109.662006 
L 321.3619 107.606493 
L 320.740008 107.419413 
L 320.118115 109.479738 
L 319.496222 113.650787 
L 318.87433 118.755714 
L 318.252437 123.002433 
L 317.630545 125.792392 
L 317.008652 125.663105 
L 316.38676 120.527931 
L 315.764867 114.308412 
L 315.142974 111.104673 
L 314.521082 112.017538 
L 313.899189 116.594314 
L 313.277297 122.524727 
L 312.655404 126.366934 
L 312.033511 129.111137 
L 311.411619 134.226676 
L 310.789726 140.225776 
L 310.167834 138.881203 
L 309.545941 132.365156 
L 308.924048 128.136383 
L 308.302156 126.874804 
L 307.680263 126.835677 
L 307.058371 127.866179 
L 306.436478 131.845144 
L 305.814586 139.53977 
L 305.192693 145.337506 
L 304.5708 139.542766 
L 303.948908 130.325735 
L 303.327015 123.24672 
L 302.705123 117.426767 
L 302.08323 112.467167 
L 301.461337 109.912603 
L 300.839445 111.27102 
L 300.217552 116.590014 
L 299.59566 122.297604 
L 298.973767 120.964039 
L 298.351874 114.554236 
L 297.729982 109.353186 
L 297.108089 107.46293 
L 296.486197 109.124614 
L 295.864304 113.332482 
L 295.242411 116.983005 
L 294.620519 115.171054 
L 293.998626 107.898163 
L 293.376734 99.933705 
L 292.754841 93.992702 
L 292.132949 90.755485 
L 291.511056 89.987847 
L 290.889163 90.921533 
L 290.267271 92.28677 
L 289.645378 92.707835 
L 289.023486 92.239369 
L 288.401593 92.274877 
L 287.7797 93.354562 
L 287.157808 94.483176 
L 286.535915 94.397584 
L 285.914023 92.827095 
L 285.29213 90.328433 
L 284.670237 88.022578 
L 284.048345 87.109497 
L 283.426452 87.823796 
L 282.80456 88.774123 
L 282.182667 88.279671 
L 281.560775 87.000031 
L 280.938882 86.652995 
L 280.316989 87.743784 
L 279.695097 89.747388 
L 279.073204 91.987 
L 278.451312 94.129613 
L 277.829419 96.269259 
L 277.207526 98.649539 
L 276.585634 101.014047 
L 275.963741 102.570849 
L 275.341849 102.978581 
L 274.719956 102.673331 
L 274.098063 102.424344 
L 273.476171 102.78495 
L 272.854278 103.492347 
L 272.232386 104.185993 
L 271.610493 105.559908 
L 270.988601 108.533443 
L 270.366708 113.282479 
L 269.744815 119.793116 
L 269.122923 128.315787 
L 268.50103 136.405867 
L 267.879138 134.579277 
L 267.257245 125.359219 
L 266.635352 117.572746 
L 266.01346 112.640172 
L 265.391567 109.874971 
L 264.769675 108.268564 
L 264.147782 106.440048 
L 263.525889 103.259218 
L 262.903997 99.081287 
L 262.282104 94.889605 
L 261.660212 91.256525 
L 261.038319 88.526476 
L 260.416426 86.726919 
L 259.794534 85.473215 
L 259.172641 84.48005 
L 258.550749 83.843859 
L 257.928856 83.643382 
L 257.306964 83.685617 
L 256.685071 83.484691 
L 256.063178 82.438422 
L 255.441286 80.658865 
L 254.819393 79.141567 
L 254.197501 78.545169 
L 253.575608 78.333979 
L 252.953715 77.352162 
L 252.331823 75.585895 
L 251.70993 74.332655 
L 251.088038 74.40593 
L 250.466145 75.257968 
L 249.844252 75.692462 
L 249.22236 75.451863 
L 248.600467 75.305376 
L 247.978575 75.701969 
L 247.356682 76.365402 
L 246.73479 76.829311 
L 246.112897 77.106255 
L 245.491004 77.606502 
L 244.869112 78.300147 
L 244.247219 78.829419 
L 243.625327 79.42203 
L 243.003434 80.411483 
L 242.381541 81.353935 
L 241.759649 81.771561 
L 241.137756 82.239065 
L 240.515864 83.724629 
L 239.893971 86.342186 
L 239.272078 89.072607 
L 238.650186 90.788294 
L 238.028293 91.591499 
L 237.406401 92.521819 
L 236.784508 94.567613 
L 236.162616 98.231481 
L 235.540723 103.550255 
L 234.91883 110.181407 
L 234.296938 115.936944 
L 233.675045 116.442099 
L 233.053153 113.494358 
L 232.43126 111.790294 
L 231.809367 111.526124 
L 231.187475 110.430351 
L 230.565582 107.775434 
L 229.94369 104.878451 
L 229.321797 102.556634 
L 228.699904 100.419207 
L 228.078012 97.91161 
L 227.456119 95.593935 
L 226.834227 94.35556 
L 226.212334 94.077806 
L 225.590441 93.520964 
L 224.968549 91.394096 
L 224.346656 88.080269 
L 223.724764 85.04313 
L 223.102871 82.913044 
L 222.480979 81.188944 
L 221.859086 79.04313 
L 221.237193 76.490132 
L 220.615301 74.338287 
L 219.993408 72.879496 
L 219.371516 71.675506 
L 218.749623 70.47083 
L 218.12773 69.432031 
L 217.505838 68.663226 
L 216.883945 68.084298 
L 216.262053 67.431264 
L 215.64016 66.335678 
L 215.018267 64.827514 
L 214.396375 63.326364 
L 213.774482 62.042588 
L 213.15259 60.988333 
L 212.530697 60.298835 
L 211.908805 60.155406 
L 211.286912 60.543289 
L 210.665019 61.106634 
L 210.043127 61.31032 
L 209.421234 61.023783 
L 208.799342 60.72435 
L 208.177449 60.931034 
L 207.555556 61.818367 
L 206.933664 63.29132 
L 206.311771 64.996604 
L 205.689879 66.418213 
L 205.067986 67.417404 
L 204.446093 68.273428 
L 203.824201 68.987773 
L 203.202308 69.251119 
L 202.580416 69.250592 
L 201.958523 69.859108 
L 201.336631 71.740856 
L 200.714738 74.630465 
L 200.092845 77.562234 
L 199.470953 79.764867 
L 198.84906 81.066345 
L 198.227168 81.905477 
L 197.605275 83.343058 
L 196.983382 86.217778 
L 196.36149 89.97749 
L 195.739597 92.517432 
L 195.117705 92.875138 
L 194.495812 92.758537 
L 193.873919 93.786638 
L 193.252027 96.485101 
L 192.630134 99.961721 
L 192.008242 100.973184 
L 191.386349 98.275325 
L 190.764456 95.44259 
L 190.142564 94.951206 
L 189.520671 97.014292 
L 188.898779 100.250112 
L 188.276886 101.519038 
L 187.654994 98.948287 
L 187.033101 94.490078 
L 186.411208 90.111101 
L 185.789316 86.656269 
L 185.167423 84.572479 
L 184.545531 83.746098 
L 183.923638 83.275526 
L 183.301745 81.953225 
L 182.679853 79.454482 
L 182.05796 76.613509 
L 181.436068 74.156066 
L 180.814175 71.822316 
L 180.192282 69.071081 
L 179.57039 66.133336 
L 178.948497 63.584534 
L 178.326605 61.602159 
L 177.704712 60.08504 
L 177.08282 58.93682 
L 176.460927 58.070554 
L 175.839034 57.384619 
L 175.217142 56.755396 
L 174.595249 56.04425 
L 173.973357 55.224838 
L 173.351464 54.389592 
L 172.729571 53.622441 
L 172.107679 53.064806 
L 171.485786 52.913838 
L 170.863894 53.130461 
L 170.242001 53.486475 
L 169.620108 54.045011 
L 168.998216 55.050854 
L 168.376323 56.277951 
L 167.754431 57.020194 
L 167.132538 56.887413 
L 166.510646 56.195735 
L 165.888753 55.459049 
L 165.26686 55.059366 
L 164.644968 55.29191 
L 164.023075 56.219727 
L 163.401183 57.537927 
L 162.77929 58.84406 
L 162.157397 60.028554 
L 161.535505 61.218473 
L 160.913612 62.467061 
L 160.29172 63.710441 
L 159.669827 64.956987 
L 159.047934 66.367372 
L 158.426042 68.044704 
L 157.804149 69.781535 
L 157.182257 71.170057 
L 156.560364 72.202909 
L 155.938471 73.499966 
L 155.316579 75.563775 
L 154.694686 78.295946 
L 154.072794 81.40907 
L 153.450901 84.814513 
L 152.829009 88.44506 
L 152.207116 92.211748 
L 151.585223 96.007835 
L 150.963331 99.391188 
L 150.341438 102.083463 
L 149.719546 104.529355 
L 149.097653 106.414556 
L 148.47576 106.186787 
L 147.853868 104.053252 
L 147.231975 101.754618 
L 146.610083 99.975418 
L 145.98819 98.639835 
L 145.366297 97.38097 
L 144.744405 95.963664 
L 144.122512 94.850557 
L 143.50062 94.162973 
L 142.878727 93.046853 
L 142.256835 91.025158 
L 141.634942 88.417685 
L 141.013049 85.347766 
L 140.391157 82.080314 
L 139.769264 79.444085 
L 139.147372 77.920758 
L 138.525479 76.994738 
L 137.903586 75.798227 
L 137.281694 74.112948 
L 136.659801 72.131517 
L 136.037909 69.893365 
L 135.416016 67.569181 
L 134.794123 65.481567 
L 134.172231 63.658899 
L 133.550338 61.960025 
L 132.928446 60.425594 
L 132.306553 59.171317 
L 131.684661 58.248126 
L 131.062768 57.625937 
L 130.440875 57.074356 
L 129.818983 56.255278 
L 129.19709 55.120817 
L 128.575198 54.001264 
L 127.953305 53.186196 
L 127.331412 52.596406 
L 126.70952 52.013685 
L 126.087627 51.499188 
L 125.465735 51.264519 
L 124.843842 51.281157 
L 124.221949 51.34403 
L 123.600057 51.39961 
L 122.978164 51.605703 
L 122.356272 52.169291 
L 121.734379 53.069304 
L 121.112486 53.835826 
L 120.490594 53.979418 
L 119.868701 53.701218 
L 119.246809 53.597089 
L 118.624916 53.895503 
L 118.003024 54.365252 
L 117.381131 54.731396 
L 116.759238 55.056485 
L 116.137346 55.748598 
L 115.515453 57.187647 
L 114.893561 59.247713 
L 114.271668 61.294018 
L 113.649775 62.964779 
L 113.027883 64.43918 
L 112.40599 65.743997 
L 111.784098 66.818264 
L 111.162205 67.932959 
L 110.540312 69.382917 
L 109.91842 71.2864 
L 109.296527 73.806014 
L 108.674635 77.107827 
L 108.052742 80.907105 
L 107.43085 84.344689 
L 106.808957 86.845758 
L 106.187064 88.652037 
L 105.565172 89.915789 
L 104.943279 90.742396 
L 104.321387 92.192048 
L 103.699494 95.395773 
L 103.077601 100.030867 
L 102.455709 104.33982 
L 101.833816 106.922512 
L 101.211924 107.397094 
L 100.590031 105.719017 
L 99.968138 103.177618 
L 99.346246 101.307636 
L 98.724353 100.017555 
L 98.102461 98.215664 
L 97.480568 95.634771 
L 96.858676 93.049681 
L 96.236783 91.080455 
L 95.61489 89.608162 
L 94.992998 87.81574 
L 94.371105 84.85886 
L 93.749213 81.105091 
L 93.12732 77.833695 
L 92.505427 75.729709 
L 91.883535 74.515159 
L 91.261642 73.618537 
L 90.63975 72.759465 
L 90.017857 71.611861 
L 89.395964 69.509217 
L 88.774072 66.368876 
L 88.152179 63.065119 
L 87.530287 60.363072 
L 86.908394 58.424767 
L 86.286501 57.139508 
L 85.664609 56.37678 
L 85.042716 55.912002 
L 84.420824 55.378171 
L 83.798931 54.527793 
L 83.177039 53.521397 
L 82.555146 52.735978 
L 81.933253 52.360878 
L 81.311361 52.412607 
L 80.689468 52.933854 
L 80.067576 53.901895 
L 79.445683 55.046143 
L 78.82379 55.97226 
L 78.201898 56.626038 
L 77.580005 57.462295 
L 76.958113 58.816132 
L 76.33622 60.303405 
L 75.714327 61.372686 
L 75.092435 62.365241 
L 74.470542 64.162945 
L 73.84865 67.217412 
L 73.226757 71.383608 
L 72.604865 76.183045 
L 71.982972 81.021075 
L 71.361079 85.392374 
L 70.739187 89.392066 
L 70.117294 93.968316 
L 69.495402 99.999554 
L 68.873509 107.120377 
L 68.251616 113.795192 
L 67.629724 119.626395 
L 67.007831 126.582245 
L 66.385939 136.870159 
L 65.764046 151.771668 
L 65.142153 171.915338 
L 64.520261 197.613594 
z
" clip-path="url(#p7bfd2adbf7)" style="fill: #4c72b0; fill-opacity: 0.25; stroke: #4c72b0; stroke-width: 0.3"/>
   </g>
   <g id="line2d_55">
    <path d="M 67.500644 107.247429 
L 69.330485 94.599886 
L 71.160327 83.621417 
L 72.990168 74.312023 
L 74.210063 69.033023 
L 75.429957 64.495834 
L 76.649851 60.700455 
L 77.869746 57.646887 
L 79.08964 55.33513 
L 80.309534 53.765184 
L 80.919481 53.25839 
L 81.529429 52.937048 
L 82.139376 52.80116 
L 82.749323 52.850723 
L 83.35927 53.08574 
L 83.969217 53.506209 
L 84.579164 54.112131 
L 85.189112 54.903506 
L 86.409006 57.042613 
L 87.6289 59.923531 
L 88.848795 63.546259 
L 90.068689 67.910799 
L 91.288583 73.017149 
L 92.508478 78.865309 
L 94.338319 89.028445 
L 96.168161 100.860656 
L 97.998002 114.36194 
L 99.827844 129.532298 
L 101.657685 146.371731 
L 103.487527 164.880237 
L 105.078906 182.355801 
L 105.078906 182.355801 
" clip-path="url(#p7bfd2adbf7)" style="fill: none; stroke: #4c72b0; stroke-linecap: round"/>
   </g>
   <g id="line2d_56">
    <path d="M 89.500292 182.355801 
L 92.508478 160.244398 
L 94.948266 143.812289 
L 97.388055 128.722946 
L 99.827844 114.976371 
L 102.267632 102.572562 
L 104.707421 91.511521 
L 106.537262 84.096932 
L 108.367104 77.437649 
L 110.196945 71.533672 
L 112.026787 66.385002 
L 113.856628 61.991639 
L 115.68647 58.353582 
L 116.906364 56.347825 
L 118.126259 54.67776 
L 119.346153 53.343387 
L 120.566047 52.344706 
L 121.785942 51.681717 
L 123.005836 51.35442 
L 124.22573 51.362814 
L 125.445625 51.7069 
L 126.665519 52.386678 
L 127.885413 53.402148 
L 129.105308 54.753309 
L 130.325202 56.440163 
L 131.545096 58.462708 
L 132.764991 60.820945 
L 134.594832 64.987722 
L 136.424674 69.909806 
L 138.254515 75.587197 
L 140.084357 82.019894 
L 141.914198 89.207898 
L 143.74404 97.151209 
L 146.183828 108.91721 
L 148.623617 122.025979 
L 151.063406 136.477516 
L 153.503194 152.271819 
L 155.942983 169.40889 
L 157.669846 182.355801 
L 157.669846 182.355801 
" clip-path="url(#p7bfd2adbf7)" style="fill: none; stroke: #55a868; stroke-linecap: round"/>
   </g>
   <g id="line2d_57">
    <path d="M 137.636547 182.355801 
L 139.474409 167.84053 
L 141.914198 149.908833 
L 144.353987 133.501941 
L 146.793775 118.619854 
L 149.233564 105.262571 
L 151.673353 93.430093 
L 153.503194 85.556388 
L 155.333036 78.540386 
L 157.162877 72.382086 
L 158.992719 67.081489 
L 160.82256 62.638594 
L 162.042455 60.153166 
L 163.262349 58.048939 
L 164.482243 56.325913 
L 165.702138 54.984089 
L 166.922032 54.023465 
L 168.141926 53.444043 
L 169.361821 53.245822 
L 170.581715 53.428803 
L 171.801609 53.992984 
L 173.021504 54.938367 
L 174.241398 56.264951 
L 175.461292 57.972736 
L 176.681187 60.061722 
L 177.901081 62.53191 
L 179.120975 65.383298 
L 180.950817 70.375133 
L 182.780658 76.224671 
L 184.6105 82.931912 
L 186.440341 90.496855 
L 188.270183 98.919501 
L 190.100024 108.19985 
L 192.539813 121.907853 
L 194.979602 137.14066 
L 197.41939 153.898272 
L 199.859179 172.180689 
L 201.135451 182.355801 
L 201.135451 182.355801 
" clip-path="url(#p7bfd2adbf7)" style="fill: none; stroke: #c44e52; stroke-linecap: round"/>
   </g>
   <g id="line2d_58">
    <path d="M 180.802253 182.355801 
L 182.780658 166.790344 
L 185.220447 149.078599 
L 187.660236 132.992773 
L 190.100024 118.532866 
L 192.539813 105.698879 
L 194.369654 97.140397 
L 196.199496 89.496496 
L 198.029337 82.767173 
L 199.859179 76.952431 
L 201.68902 72.052268 
L 202.908915 69.293592 
L 204.128809 66.941396 
L 205.348703 64.99568 
L 206.568598 63.456443 
L 207.788492 62.323687 
L 209.008386 61.59741 
L 210.228281 61.277613 
L 211.448175 61.364296 
L 212.668069 61.857459 
L 213.887964 62.757101 
L 215.107858 64.063223 
L 216.327752 65.775825 
L 217.547647 67.894907 
L 218.767541 70.420468 
L 219.987435 73.35251 
L 221.817277 78.512721 
L 223.647118 84.587512 
L 225.47696 91.576883 
L 227.306801 99.480833 
L 229.136643 108.299363 
L 230.966484 118.032472 
L 233.406273 132.43263 
L 235.846062 148.458708 
L 238.28585 166.110704 
L 240.353577 182.355801 
L 240.353577 182.355801 
" clip-path="url(#p7bfd2adbf7)" style="fill: none; stroke: #8172b2; stroke-linecap: round"/>
   </g>
   <g id="line2d_59">
    <path d="M 222.049619 182.355801 
L 224.257066 165.760266 
L 226.696854 149.043329 
L 229.136643 134.01852 
L 231.576432 120.685838 
L 233.406273 111.796785 
L 235.236115 103.859554 
L 237.065956 96.874145 
L 238.895798 90.840558 
L 240.725639 85.758793 
L 241.945533 82.899739 
L 243.165428 80.463717 
L 244.385322 78.450727 
L 245.605216 76.860769 
L 246.825111 75.693842 
L 248.045005 74.949948 
L 249.264899 74.629085 
L 250.484794 74.731255 
L 251.704688 75.256456 
L 252.924582 76.204689 
L 254.144477 77.575954 
L 255.364371 79.370251 
L 256.584265 81.58758 
L 257.80416 84.227941 
L 259.024054 87.291334 
L 260.853896 92.679607 
L 262.683737 99.019703 
L 264.513579 106.31162 
L 266.34342 114.555359 
L 268.173262 123.75092 
L 270.003103 133.898303 
L 272.442892 148.908758 
L 274.882681 165.61134 
L 277.110887 182.355801 
L 277.110887 182.355801 
" clip-path="url(#p7bfd2adbf7)" style="fill: none; stroke: #ccb974; stroke-linecap: round"/>
   </g>
   <g id="line2d_60">
    <path d="M 260.308221 182.355801 
L 262.683737 164.600505 
L 265.123526 148.306832 
L 266.953367 137.37409 
L 268.783209 127.544929 
L 270.61305 118.81935 
L 272.442892 111.197353 
L 274.272733 104.678939 
L 276.102575 99.264106 
L 277.322469 96.267318 
L 278.542364 93.761012 
L 279.762258 91.745186 
L 280.982152 90.219841 
L 282.202047 89.184977 
L 283.421941 88.640594 
L 284.031888 88.552332 
L 284.641835 88.586691 
L 285.251782 88.74367 
L 285.86173 89.02327 
L 287.081624 89.950329 
L 288.301518 91.36787 
L 289.521413 93.275891 
L 290.741307 95.674393 
L 291.961201 98.563376 
L 293.181096 101.942839 
L 294.40099 105.812784 
L 296.230831 112.537352 
L 298.060673 120.365503 
L 299.890514 129.297235 
L 301.720356 139.33255 
L 303.550197 150.471446 
L 305.380039 162.713924 
L 307.819828 180.753911 
L 308.022684 182.355801 
L 308.022684 182.355801 
" clip-path="url(#p7bfd2adbf7)" style="fill: none; stroke: #64b5cd; stroke-linecap: round"/>
   </g>
   <g id="line2d_61">
    <path d="M 256.546123 182.355801 
L 259.634001 176.414393 
L 263.293684 169.772429 
L 266.953367 163.563538 
L 270.61305 157.787722 
L 274.272733 152.44498 
L 277.932416 147.535312 
L 280.982152 143.774742 
L 284.031888 140.314919 
L 287.081624 137.15584 
L 290.13136 134.297508 
L 293.181096 131.739922 
L 296.230831 129.483081 
L 299.280567 127.526986 
L 302.330303 125.871637 
L 305.380039 124.517034 
L 307.819828 123.649888 
L 310.259616 122.97522 
L 312.699405 122.493029 
L 315.139194 122.203316 
L 317.578982 122.106079 
L 320.018771 122.20132 
L 322.45856 122.489039 
L 324.898348 122.969234 
L 327.338137 123.641907 
L 329.777926 124.507058 
L 332.217714 125.564685 
L 335.26745 127.157391 
L 338.317186 129.050843 
L 341.366922 131.24504 
L 344.416658 133.739983 
L 347.466393 136.535672 
L 350.516129 139.632107 
L 353.565865 143.029288 
L 356.615601 146.727214 
L 359.665337 150.725887 
L 363.32502 155.921278 
L 366.984703 161.549743 
L 370.644386 167.611282 
L 371.86428 169.728034 
L 371.86428 169.728034 
" clip-path="url(#p7bfd2adbf7)" style="fill: none; stroke: #4c72b0; stroke-linecap: round"/>
   </g>
   <g id="patch_3">
    <path d="M 52.282462 143.788862 
L 52.282462 5.188862 
" style="fill: none"/>
   </g>
   <g id="patch_4">
    <path d="M 387.082462 143.788862 
L 387.082462 5.188862 
" style="fill: none"/>
   </g>
   <g id="patch_5">
    <path d="M 52.282462 143.788862 
L 387.082462 143.788862 
" style="fill: none"/>
   </g>
   <g id="patch_6">
    <path d="M 52.282462 5.188862 
L 387.082462 5.188862 
" style="fill: none"/>
   </g>
   <g id="text_14">
    <!-- 0 -->
    <g transform="translate(82.281336 49.60084) scale(0.1 -0.1)">
     <use xlink:href="#CMR17-30" transform="scale(0.996264)"/>
    </g>
   </g>
   <g id="text_15">
    <!-- 1 -->
    <g transform="translate(123.585278 48.393283) scale(0.1 -0.1)">
     <use xlink:href="#CMR17-31" transform="scale(0.996264)"/>
    </g>
   </g>
   <g id="text_16">
    <!-- 2 -->
    <g transform="translate(169.386207 49.963391) scale(0.1 -0.1)">
     <use xlink:href="#CMR17-32" transform="scale(0.996264)"/>
    </g>
   </g>
   <g id="text_17">
    <!-- 3 -->
    <g transform="translate(210.578083 56.035234) scale(0.1 -0.1)">
     <defs>
      <path id="CMR17-33" d="M 1414 2157 
C 1984 2157 2234 1662 2234 1090 
C 2234 320 1824 25 1453 25 
C 1114 25 563 194 390 693 
C 422 680 454 680 486 680 
C 640 680 755 782 755 948 
C 755 1133 614 1216 486 1216 
C 378 1216 211 1165 211 926 
C 211 335 787 -128 1466 -128 
C 2176 -128 2720 430 2720 1085 
C 2720 1707 2208 2157 1600 2227 
C 2086 2328 2554 2756 2554 3329 
C 2554 3820 2048 4179 1472 4179 
C 890 4179 378 3829 378 3329 
C 378 3110 544 3072 627 3072 
C 762 3072 877 3155 877 3321 
C 877 3486 762 3569 627 3569 
C 602 3569 570 3569 544 3557 
C 730 3959 1235 4032 1459 4032 
C 1683 4032 2106 3925 2106 3320 
C 2106 3143 2080 2828 1862 2550 
C 1670 2304 1453 2304 1242 2284 
C 1210 2284 1062 2269 1037 2269 
C 992 2263 966 2257 966 2208 
C 966 2163 973 2157 1101 2157 
L 1414 2157 
z
" transform="scale(0.015625)"/>
     </defs>
     <use xlink:href="#CMR17-33" transform="scale(0.996264)"/>
    </g>
   </g>
   <g id="text_18">
    <!-- 4 -->
    <g transform="translate(249.580221 64.121086) scale(0.1 -0.1)">
     <use xlink:href="#CMR17-34" transform="scale(0.996264)"/>
    </g>
   </g>
   <g id="text_19">
    <!-- 5 -->
    <g transform="translate(284.165951 69.502708) scale(0.1 -0.1)">
     <defs>
      <path id="CMR17-35" d="M 730 3692 
C 794 3666 1056 3584 1325 3584 
C 1920 3584 2246 3911 2432 4100 
C 2432 4157 2432 4192 2394 4192 
C 2387 4192 2374 4192 2323 4163 
C 2099 4058 1837 3973 1517 3973 
C 1325 3973 1037 3999 723 4139 
C 653 4171 640 4171 634 4171 
C 602 4171 595 4164 595 4037 
L 595 2203 
C 595 2089 595 2057 659 2057 
C 691 2057 704 2070 736 2114 
C 941 2401 1222 2522 1542 2522 
C 1766 2522 2246 2382 2246 1289 
C 2246 1085 2246 715 2054 421 
C 1894 159 1645 25 1370 25 
C 947 25 518 320 403 814 
C 429 807 480 795 506 795 
C 589 795 749 840 749 1038 
C 749 1210 627 1280 506 1280 
C 358 1280 262 1190 262 1011 
C 262 454 704 -128 1382 -128 
C 2042 -128 2669 440 2669 1264 
C 2669 2030 2170 2624 1549 2624 
C 1222 2624 947 2503 730 2274 
L 730 3692 
z
" transform="scale(0.015625)"/>
     </defs>
     <use xlink:href="#CMR17-35" transform="scale(0.996264)"/>
    </g>
   </g>
   <g id="text_20">
    <!-- 6+ -->
    <g transform="translate(317.591628 72.742608) scale(0.1 -0.1)">
     <defs>
      <path id="CMR17-2b" d="M 2413 1472 
L 4109 1472 
C 4198 1472 4307 1472 4307 1580 
C 4307 1695 4205 1695 4109 1695 
L 2413 1695 
L 2413 3386 
C 2413 3475 2413 3584 2304 3584 
C 2189 3584 2189 3482 2189 3386 
L 2189 1695 
L 493 1695 
C 403 1695 294 1695 294 1587 
C 294 1472 397 1472 493 1472 
L 2189 1472 
L 2189 -218 
C 2189 -307 2189 -416 2298 -416 
C 2413 -416 2413 -314 2413 -218 
L 2413 1472 
z
" transform="scale(0.015625)"/>
     </defs>
     <use xlink:href="#CMR17-36" transform="scale(0.996264)"/>
     <use xlink:href="#CMR17-2b" transform="translate(45.690477 0) scale(0.996264)"/>
    </g>
   </g>
   <g id="text_21">
    <!-- Maximum-Value -->
    <g style="fill: #262626" transform="translate(249.862122 20.93394) scale(0.15 -0.15)">
     <defs>
      <path id="CMR17-4d" d="M 1338 4224 
C 1299 4320 1293 4320 1158 4320 
L 339 4320 
L 339 4160 
C 781 4160 851 4160 851 3875 
L 851 610 
C 851 451 851 153 339 153 
L 339 -13 
C 486 0 755 0 915 0 
C 1075 0 1344 0 1491 -13 
L 1491 153 
C 979 153 979 451 979 610 
L 979 4135 
L 986 4135 
L 2490 89 
C 2515 25 2528 -13 2579 -13 
C 2630 -13 2643 25 2669 89 
L 4186 4166 
L 4192 4166 
L 4192 438 
C 4192 153 4122 153 3680 153 
L 3680 -13 
C 3853 0 4198 0 4384 0 
C 4570 0 4922 0 5094 -13 
L 5094 153 
C 4653 153 4582 153 4582 438 
L 4582 3875 
C 4582 4160 4653 4160 5094 4160 
L 5094 4320 
L 4282 4320 
C 4147 4320 4141 4314 4102 4218 
L 2720 502 
L 1338 4224 
z
" transform="scale(0.015625)"/>
      <path id="CMR17-61" d="M 2304 1653 
C 2304 2072 2304 2294 2035 2543 
C 1798 2752 1523 2816 1306 2816 
C 800 2816 435 2407 435 1971 
C 435 1728 627 1728 666 1728 
C 749 1728 896 1778 896 1954 
C 896 2112 774 2181 666 2181 
C 640 2181 608 2174 589 2168 
C 723 2592 1069 2714 1293 2714 
C 1613 2714 1965 2429 1965 1885 
L 1965 1600 
C 1587 1600 1133 1549 774 1357 
C 371 1133 256 813 256 570 
C 256 77 832 -64 1171 -64 
C 1523 -64 1850 139 1990 511 
C 2003 233 2182 -18 2464 -18 
C 2598 -18 2938 70 2938 567 
L 2938 920 
L 2822 920 
L 2822 562 
C 2822 178 2650 128 2566 128 
C 2304 128 2304 458 2304 738 
L 2304 1653 
z
M 1965 870 
C 1965 317 1568 38 1216 38 
C 896 38 646 275 646 570 
C 646 761 730 1100 1101 1305 
C 1408 1478 1760 1504 1965 1504 
L 1965 870 
z
" transform="scale(0.015625)"/>
      <path id="CMR17-78" d="M 1664 1477 
C 1856 1726 2074 2006 2253 2216 
C 2464 2458 2707 2560 2989 2560 
L 2989 2726 
C 2880 2726 2656 2726 2541 2726 
C 2368 2726 2170 2726 2022 2732 
L 2022 2566 
C 2112 2553 2163 2489 2163 2400 
C 2163 2285 2099 2215 2067 2171 
L 1594 1573 
L 1030 2306 
C 973 2376 973 2388 973 2420 
C 973 2497 1037 2560 1146 2560 
L 1146 2732 
C 992 2726 717 2726 557 2726 
C 384 2726 179 2726 38 2732 
L 38 2560 
C 384 2560 461 2534 614 2343 
L 1350 1395 
C 1363 1382 1395 1344 1395 1325 
C 1395 1299 838 619 768 530 
C 480 185 179 160 6 160 
L 6 0 
C 115 0 339 0 454 0 
C 582 0 864 0 979 -6 
L 979 160 
C 941 166 838 179 838 325 
C 838 440 890 510 947 586 
L 1478 1236 
L 2035 512 
C 2086 442 2163 346 2163 301 
C 2163 211 2086 160 1984 160 
L 1984 -6 
C 2138 0 2413 0 2573 0 
C 2746 0 2950 0 3091 -6 
L 3091 160 
C 2771 160 2675 172 2522 370 
L 1664 1477 
z
" transform="scale(0.015625)"/>
      <path id="CMR17-6d" d="M 4326 1933 
C 4326 2252 4269 2790 3507 2790 
C 3072 2790 2771 2496 2656 2151 
L 2650 2151 
C 2573 2676 2195 2790 1837 2790 
C 1331 2790 1069 2400 973 2144 
L 966 2144 
L 966 2790 
L 211 2720 
L 211 2554 
C 589 2554 646 2515 646 2208 
L 646 428 
C 646 184 621 153 211 153 
L 211 -13 
C 365 0 646 0 813 0 
C 979 0 1267 0 1421 -13 
L 1421 153 
C 1011 153 986 178 986 428 
L 986 1658 
C 986 2247 1344 2688 1792 2688 
C 2266 2688 2317 2266 2317 1958 
L 2317 428 
C 2317 184 2291 153 1882 153 
L 1882 -13 
C 2035 0 2317 0 2483 0 
C 2650 0 2938 0 3091 -13 
L 3091 153 
C 2682 153 2656 178 2656 428 
L 2656 1658 
C 2656 2247 3014 2688 3462 2688 
C 3936 2688 3987 2266 3987 1958 
L 3987 428 
C 3987 184 3962 153 3552 153 
L 3552 -13 
C 3706 0 3987 0 4154 0 
C 4320 0 4608 0 4762 -13 
L 4762 153 
C 4352 153 4326 178 4326 428 
L 4326 1933 
z
" transform="scale(0.015625)"/>
      <path id="CMR17-75" d="M 1882 2693 
L 1882 2528 
C 2259 2528 2317 2489 2317 2186 
L 2317 1032 
C 2317 500 2029 38 1555 38 
C 1030 38 986 348 986 678 
L 986 2763 
L 211 2693 
L 211 2528 
C 467 2528 640 2528 646 2274 
L 646 1058 
C 646 633 646 361 813 183 
C 896 101 1056 -64 1517 -64 
C 2061 -64 2272 377 2323 506 
L 2330 506 
L 2330 -63 
L 3091 -63 
L 3091 128 
C 2714 128 2656 166 2656 473 
L 2656 2763 
L 1882 2693 
z
" transform="scale(0.015625)"/>
      <path id="CMR17-2d" d="M 1632 1216 
L 1632 1496 
L 26 1496 
L 26 1216 
L 1632 1216 
z
" transform="scale(0.015625)"/>
      <path id="CMR17-56" d="M 3776 3745 
C 3834 3886 3936 4160 4365 4160 
L 4365 4332 
C 4218 4319 4051 4319 3891 4319 
C 3738 4319 3475 4319 3328 4332 
L 3328 4160 
C 3648 4160 3661 3936 3661 3898 
C 3661 3827 3642 3783 3622 3732 
L 2362 446 
L 1043 3886 
C 1024 3931 1011 3963 1011 3994 
C 1011 4160 1267 4160 1402 4160 
L 1402 4319 
C 1197 4319 896 4319 685 4319 
C 518 4319 218 4319 64 4332 
L 64 4160 
C 435 4160 506 4135 582 3931 
L 2106 -26 
C 2138 -115 2144 -128 2214 -128 
C 2285 -128 2291 -115 2323 -26 
L 3776 3745 
z
" transform="scale(0.015625)"/>
      <path id="CMR17-6c" d="M 979 4396 
L 218 4326 
L 218 4160 
C 595 4160 653 4122 653 3817 
L 653 426 
C 653 184 627 153 218 153 
L 218 -13 
C 371 0 653 0 813 0 
C 979 0 1261 0 1414 -13 
L 1414 153 
C 1005 153 979 178 979 426 
L 979 4396 
z
" transform="scale(0.015625)"/>
     </defs>
     <use xlink:href="#CMR17-4d" transform="scale(0.996264)"/>
     <use xlink:href="#CMR17-61" transform="translate(84.686941 0) scale(0.996264)"/>
     <use xlink:href="#CMR17-78" transform="translate(130.377418 0) scale(0.996264)"/>
     <use xlink:href="#CMR17-69" transform="translate(178.670334 0) scale(0.996264)"/>
     <use xlink:href="#CMR17-6d" transform="translate(203.541392 0) scale(0.996264)"/>
     <use xlink:href="#CMR17-75" transform="translate(277.858528 0) scale(0.996264)"/>
     <use xlink:href="#CMR17-6d" transform="translate(328.753898 0) scale(0.996264)"/>
     <use xlink:href="#CMR17-2d" transform="translate(405.673488 0) scale(0.996264)"/>
     <use xlink:href="#CMR17-56" transform="translate(435.749454 0) scale(0.996264)"/>
     <use xlink:href="#CMR17-61" transform="translate(497.014628 0) scale(0.996264)"/>
     <use xlink:href="#CMR17-6c" transform="translate(542.705105 0) scale(0.996264)"/>
     <use xlink:href="#CMR17-75" transform="translate(567.576164 0) scale(0.996264)"/>
     <use xlink:href="#CMR17-65" transform="translate(618.471534 0) scale(0.996264)"/>
    </g>
   </g>
  </g>
 </g>
 <defs>
  <clipPath id="p7bfd2adbf7">
   <rect x="52.282462" y="5.188862" width="334.8" height="138.6"/>
  </clipPath>
 </defs>
</svg>
