<?xml version="1.0" encoding="utf-8" standalone="no"?>
<!DOCTYPE svg PUBLIC "-//W3C//DTD SVG 1.1//EN"
  "http://www.w3.org/Graphics/SVG/1.1/DTD/svg11.dtd">
<svg xmlns:xlink="http://www.w3.org/1999/xlink" width="387.082462pt" height="181.355801pt" viewBox="0 0 387.082462 181.355801" xmlns="http://www.w3.org/2000/svg" version="1.1">
 <metadata>
  <rdf:RDF xmlns:dc="http://purl.org/dc/elements/1.1/" xmlns:cc="http://creativecommons.org/ns#" xmlns:rdf="http://www.w3.org/1999/02/22-rdf-syntax-ns#">
   <cc:Work>
    <dc:type rdf:resource="http://purl.org/dc/dcmitype/StillImage"/>
    <dc:date>2024-11-11T11:30:39.837328</dc:date>
    <dc:format>image/svg+xml</dc:format>
    <dc:creator>
     <cc:Agent>
      <dc:title>Matplotlib v3.9.2, https://matplotlib.org/</dc:title>
     </cc:Agent>
    </dc:creator>
   </cc:Work>
  </rdf:RDF>
 </metadata>
 <defs>
  <style type="text/css">*{stroke-linejoin: round; stroke-linecap: butt}</style>
 </defs>
 <g id="figure_1">
  <g id="patch_1">
   <path d="M 0 181.355801 
L 387.082462 181.355801 
L 387.082462 0 
L 0 0 
z
" style="fill: #ffffff"/>
  </g>
  <g id="axes_1">
   <g id="patch_2">
    <path d="M 52.282462 143.788862 
L 387.082462 143.788862 
L 387.082462 5.188862 
L 52.282462 5.188862 
z
" style="fill: #eaeaf2"/>
   </g>
   <g id="matplotlib.axis_1">
    <g id="xtick_1">
     <g id="line2d_1">
      <path d="M 67.500644 143.788862 
L 67.500644 5.188862 
" clip-path="url(#pd9d44374f9)" style="fill: none; stroke: #ffffff; stroke-linecap: round"/>
     </g>
     <g id="line2d_2"/>
     <g id="text_1">
      <!-- $\mathdefault{0.0}$ -->
      <g style="fill: #262626" transform="translate(58.152118 161.166587) scale(0.15 -0.15)">
       <defs>
        <path id="CMR17-30" d="M 2688 2025 
C 2688 2416 2682 3080 2413 3591 
C 2176 4039 1798 4198 1466 4198 
C 1158 4198 768 4058 525 3597 
C 269 3118 243 2524 243 2025 
C 243 1661 250 1106 448 619 
C 723 -39 1216 -128 1466 -128 
C 1760 -128 2208 -7 2470 600 
C 2662 1042 2688 1559 2688 2025 
z
M 1466 -26 
C 1056 -26 813 325 723 812 
C 653 1188 653 1738 653 2096 
C 653 2588 653 2997 736 3387 
C 858 3929 1216 4096 1466 4096 
C 1728 4096 2067 3923 2189 3400 
C 2272 3036 2278 2607 2278 2096 
C 2278 1680 2278 1169 2202 792 
C 2067 95 1690 -26 1466 -26 
z
" transform="scale(0.015625)"/>
        <path id="CMMI12-3a" d="M 1178 307 
C 1178 492 1024 619 870 619 
C 685 619 557 466 557 313 
C 557 128 710 0 864 0 
C 1050 0 1178 153 1178 307 
z
" transform="scale(0.015625)"/>
       </defs>
       <use xlink:href="#CMR17-30" transform="scale(0.996264)"/>
       <use xlink:href="#CMMI12-3a" transform="translate(45.690477 0) scale(0.996264)"/>
       <use xlink:href="#CMR17-30" transform="translate(72.787654 0) scale(0.996264)"/>
      </g>
     </g>
    </g>
    <g id="xtick_2">
     <g id="line2d_3">
      <path d="M 128.373371 143.788862 
L 128.373371 5.188862 
" clip-path="url(#pd9d44374f9)" style="fill: none; stroke: #ffffff; stroke-linecap: round"/>
     </g>
     <g id="line2d_4"/>
     <g id="text_2">
      <!-- $\mathdefault{0.2}$ -->
      <g style="fill: #262626" transform="translate(119.024845 161.166587) scale(0.15 -0.15)">
       <defs>
        <path id="CMR17-32" d="M 2669 989 
L 2554 989 
C 2490 536 2438 459 2413 420 
C 2381 369 1920 369 1830 369 
L 602 369 
C 832 619 1280 1072 1824 1597 
C 2214 1967 2669 2402 2669 3035 
C 2669 3790 2067 4224 1395 4224 
C 691 4224 262 3604 262 3030 
C 262 2780 448 2748 525 2748 
C 589 2748 781 2787 781 3010 
C 781 3207 614 3264 525 3264 
C 486 3264 448 3258 422 3245 
C 544 3790 915 4058 1306 4058 
C 1862 4058 2227 3617 2227 3035 
C 2227 2479 1901 2000 1536 1584 
L 262 146 
L 262 0 
L 2515 0 
L 2669 989 
z
" transform="scale(0.015625)"/>
       </defs>
       <use xlink:href="#CMR17-30" transform="scale(0.996264)"/>
       <use xlink:href="#CMMI12-3a" transform="translate(45.690477 0) scale(0.996264)"/>
       <use xlink:href="#CMR17-32" transform="translate(72.787654 0) scale(0.996264)"/>
      </g>
     </g>
    </g>
    <g id="xtick_3">
     <g id="line2d_5">
      <path d="M 189.246098 143.788862 
L 189.246098 5.188862 
" clip-path="url(#pd9d44374f9)" style="fill: none; stroke: #ffffff; stroke-linecap: round"/>
     </g>
     <g id="line2d_6"/>
     <g id="text_3">
      <!-- $\mathdefault{0.4}$ -->
      <g style="fill: #262626" transform="translate(179.897572 161.166587) scale(0.15 -0.15)">
       <defs>
        <path id="CMR17-34" d="M 2150 4122 
C 2150 4256 2144 4256 2029 4256 
L 128 1254 
L 128 1088 
L 1779 1088 
L 1779 457 
C 1779 224 1766 160 1318 160 
L 1197 160 
L 1197 0 
C 1402 0 1747 0 1965 0 
C 2182 0 2528 0 2733 0 
L 2733 160 
L 2611 160 
C 2163 160 2150 224 2150 457 
L 2150 1088 
L 2803 1088 
L 2803 1254 
L 2150 1254 
L 2150 4122 
z
M 1798 3703 
L 1798 1254 
L 256 1254 
L 1798 3703 
z
" transform="scale(0.015625)"/>
       </defs>
       <use xlink:href="#CMR17-30" transform="scale(0.996264)"/>
       <use xlink:href="#CMMI12-3a" transform="translate(45.690477 0) scale(0.996264)"/>
       <use xlink:href="#CMR17-34" transform="translate(72.787654 0) scale(0.996264)"/>
      </g>
     </g>
    </g>
    <g id="xtick_4">
     <g id="line2d_7">
      <path d="M 250.118826 143.788862 
L 250.118826 5.188862 
" clip-path="url(#pd9d44374f9)" style="fill: none; stroke: #ffffff; stroke-linecap: round"/>
     </g>
     <g id="line2d_8"/>
     <g id="text_4">
      <!-- $\mathdefault{0.6}$ -->
      <g style="fill: #262626" transform="translate(240.770299 161.166587) scale(0.15 -0.15)">
       <defs>
        <path id="CMR17-36" d="M 678 2176 
C 678 3690 1395 4032 1811 4032 
C 1946 4032 2272 4009 2400 3776 
C 2298 3776 2106 3776 2106 3553 
C 2106 3381 2246 3323 2336 3323 
C 2394 3323 2566 3348 2566 3560 
C 2566 3954 2246 4179 1805 4179 
C 1043 4179 243 3390 243 1984 
C 243 253 966 -128 1478 -128 
C 2099 -128 2688 427 2688 1283 
C 2688 2081 2170 2662 1517 2662 
C 1126 2662 838 2407 678 1960 
L 678 2176 
z
M 1478 25 
C 691 25 691 1200 691 1436 
C 691 1896 909 2560 1504 2560 
C 1613 2560 1926 2560 2138 2120 
C 2253 1870 2253 1609 2253 1289 
C 2253 944 2253 690 2118 434 
C 1978 171 1773 25 1478 25 
z
" transform="scale(0.015625)"/>
       </defs>
       <use xlink:href="#CMR17-30" transform="scale(0.996264)"/>
       <use xlink:href="#CMMI12-3a" transform="translate(45.690477 0) scale(0.996264)"/>
       <use xlink:href="#CMR17-36" transform="translate(72.787654 0) scale(0.996264)"/>
      </g>
     </g>
    </g>
    <g id="xtick_5">
     <g id="line2d_9">
      <path d="M 310.991553 143.788862 
L 310.991553 5.188862 
" clip-path="url(#pd9d44374f9)" style="fill: none; stroke: #ffffff; stroke-linecap: round"/>
     </g>
     <g id="line2d_10"/>
     <g id="text_5">
      <!-- $\mathdefault{0.8}$ -->
      <g style="fill: #262626" transform="translate(301.643027 161.166587) scale(0.15 -0.15)">
       <defs>
        <path id="CMR17-38" d="M 1741 2264 
C 2144 2467 2554 2773 2554 3263 
C 2554 3841 1990 4179 1472 4179 
C 890 4179 378 3759 378 3180 
C 378 3021 416 2747 666 2505 
C 730 2442 998 2251 1171 2130 
C 883 1983 211 1634 211 934 
C 211 279 838 -128 1459 -128 
C 2144 -128 2720 362 2720 1010 
C 2720 1590 2330 1857 2074 2029 
L 1741 2264 
z
M 902 2822 
C 851 2854 595 3051 595 3351 
C 595 3739 998 4032 1459 4032 
C 1965 4032 2336 3676 2336 3262 
C 2336 2669 1670 2331 1638 2331 
C 1632 2331 1626 2331 1574 2370 
L 902 2822 
z
M 2080 1519 
C 2176 1449 2483 1240 2483 851 
C 2483 381 2010 25 1472 25 
C 890 25 448 438 448 940 
C 448 1443 838 1862 1280 2060 
L 2080 1519 
z
" transform="scale(0.015625)"/>
       </defs>
       <use xlink:href="#CMR17-30" transform="scale(0.996264)"/>
       <use xlink:href="#CMMI12-3a" transform="translate(45.690477 0) scale(0.996264)"/>
       <use xlink:href="#CMR17-38" transform="translate(72.787654 0) scale(0.996264)"/>
      </g>
     </g>
    </g>
    <g id="xtick_6">
     <g id="line2d_11">
      <path d="M 371.86428 143.788862 
L 371.86428 5.188862 
" clip-path="url(#pd9d44374f9)" style="fill: none; stroke: #ffffff; stroke-linecap: round"/>
     </g>
     <g id="line2d_12"/>
     <g id="text_6">
      <!-- $\mathdefault{1.0}$ -->
      <g style="fill: #262626" transform="translate(362.515754 161.166587) scale(0.15 -0.15)">
       <defs>
        <path id="CMR17-31" d="M 1702 4058 
C 1702 4192 1696 4192 1606 4192 
C 1357 3916 979 3827 621 3827 
C 602 3827 570 3827 563 3808 
C 557 3795 557 3782 557 3648 
C 755 3648 1088 3686 1344 3839 
L 1344 461 
C 1344 236 1331 160 781 160 
L 589 160 
L 589 0 
C 896 0 1216 0 1523 0 
C 1830 0 2150 0 2458 0 
L 2458 160 
L 2266 160 
C 1715 160 1702 230 1702 458 
L 1702 4058 
z
" transform="scale(0.015625)"/>
       </defs>
       <use xlink:href="#CMR17-31" transform="scale(0.996264)"/>
       <use xlink:href="#CMMI12-3a" transform="translate(45.690477 0) scale(0.996264)"/>
       <use xlink:href="#CMR17-30" transform="translate(72.787654 0) scale(0.996264)"/>
      </g>
     </g>
    </g>
    <g id="text_7">
     <!-- $s_1$ -->
     <g style="fill: #262626" transform="translate(213.621025 178.450057) scale(0.15 -0.15)">
      <defs>
       <path id="CMMI12-73" d="M 1459 1280 
C 1568 1261 1741 1223 1779 1216 
C 1862 1192 2150 1090 2150 783 
C 2150 586 1971 70 1229 70 
C 1094 70 614 70 486 436 
C 742 404 870 603 870 745 
C 870 880 781 950 653 950 
C 512 950 326 841 326 552 
C 326 173 710 -64 1222 -64 
C 2195 -64 2483 651 2483 984 
C 2483 1079 2483 1258 2278 1462 
C 2118 1616 1965 1648 1619 1718 
C 1446 1756 1171 1814 1171 2101 
C 1171 2229 1286 2689 1894 2689 
C 2163 2689 2426 2589 2490 2368 
C 2208 2368 2195 2125 2195 2119 
C 2195 1984 2317 1946 2374 1946 
C 2464 1946 2643 2015 2643 2281 
C 2643 2545 2400 2816 1901 2816 
C 1062 2816 838 2160 838 1899 
C 838 1414 1312 1312 1459 1280 
z
" transform="scale(0.015625)"/>
      </defs>
      <use xlink:href="#CMMI12-73" transform="scale(0.996264)"/>
      <use xlink:href="#CMR17-31" transform="translate(45.950048 -14.943915) scale(0.697382)"/>
     </g>
    </g>
   </g>
   <g id="matplotlib.axis_2">
    <g id="ytick_1">
     <g id="line2d_13">
      <path d="M 52.282462 143.788862 
L 387.082462 143.788862 
" clip-path="url(#pd9d44374f9)" style="fill: none; stroke: #ffffff; stroke-linecap: round"/>
     </g>
     <g id="line2d_14"/>
     <g id="text_8">
      <!-- $\mathdefault{10^{-2}}$ -->
      <g style="fill: #262626" transform="translate(17.283469 148.977725) scale(0.15 -0.15)">
       <defs>
        <path id="CMSY10-0" d="M 4218 1472 
C 4326 1472 4442 1472 4442 1600 
C 4442 1728 4326 1728 4218 1728 
L 755 1728 
C 646 1728 531 1728 531 1600 
C 531 1472 646 1472 755 1472 
L 4218 1472 
z
" transform="scale(0.015625)"/>
       </defs>
       <use xlink:href="#CMR17-31" transform="scale(0.996264)"/>
       <use xlink:href="#CMR17-30" transform="translate(45.690477 0) scale(0.996264)"/>
       <use xlink:href="#CMSY10-0" transform="translate(91.380954 36.153639) scale(0.697382)"/>
       <use xlink:href="#CMR17-32" transform="translate(145.621947 36.153639) scale(0.697382)"/>
      </g>
     </g>
    </g>
    <g id="ytick_2">
     <g id="line2d_15">
      <path d="M 52.282462 109.138862 
L 387.082462 109.138862 
" clip-path="url(#pd9d44374f9)" style="fill: none; stroke: #ffffff; stroke-linecap: round"/>
     </g>
     <g id="line2d_16"/>
     <g id="text_9">
      <!-- $\mathdefault{10^{-1}}$ -->
      <g style="fill: #262626" transform="translate(17.283469 114.327725) scale(0.15 -0.15)">
       <use xlink:href="#CMR17-31" transform="scale(0.996264)"/>
       <use xlink:href="#CMR17-30" transform="translate(45.690477 0) scale(0.996264)"/>
       <use xlink:href="#CMSY10-0" transform="translate(91.380954 36.153639) scale(0.697382)"/>
       <use xlink:href="#CMR17-31" transform="translate(145.621947 36.153639) scale(0.697382)"/>
      </g>
     </g>
    </g>
    <g id="ytick_3">
     <g id="line2d_17">
      <path d="M 52.282462 74.488862 
L 387.082462 74.488862 
" clip-path="url(#pd9d44374f9)" style="fill: none; stroke: #ffffff; stroke-linecap: round"/>
     </g>
     <g id="line2d_18"/>
     <g id="text_10">
      <!-- $\mathdefault{10^{0}}$ -->
      <g style="fill: #262626" transform="translate(25.419615 79.677725) scale(0.15 -0.15)">
       <use xlink:href="#CMR17-31" transform="scale(0.996264)"/>
       <use xlink:href="#CMR17-30" transform="translate(45.690477 0) scale(0.996264)"/>
       <use xlink:href="#CMR17-30" transform="translate(91.380954 36.153639) scale(0.697382)"/>
      </g>
     </g>
    </g>
    <g id="ytick_4">
     <g id="line2d_19">
      <path d="M 52.282462 39.838862 
L 387.082462 39.838862 
" clip-path="url(#pd9d44374f9)" style="fill: none; stroke: #ffffff; stroke-linecap: round"/>
     </g>
     <g id="line2d_20"/>
     <g id="text_11">
      <!-- $\mathdefault{10^{1}}$ -->
      <g style="fill: #262626" transform="translate(25.419615 45.027725) scale(0.15 -0.15)">
       <use xlink:href="#CMR17-31" transform="scale(0.996264)"/>
       <use xlink:href="#CMR17-30" transform="translate(45.690477 0) scale(0.996264)"/>
       <use xlink:href="#CMR17-31" transform="translate(91.380954 36.153639) scale(0.697382)"/>
      </g>
     </g>
    </g>
    <g id="ytick_5">
     <g id="line2d_21">
      <path d="M 52.282462 5.188862 
L 387.082462 5.188862 
" clip-path="url(#pd9d44374f9)" style="fill: none; stroke: #ffffff; stroke-linecap: round"/>
     </g>
     <g id="line2d_22"/>
     <g id="text_12">
      <!-- $\mathdefault{10^{2}}$ -->
      <g style="fill: #262626" transform="translate(25.419615 10.377725) scale(0.15 -0.15)">
       <use xlink:href="#CMR17-31" transform="scale(0.996264)"/>
       <use xlink:href="#CMR17-30" transform="translate(45.690477 0) scale(0.996264)"/>
       <use xlink:href="#CMR17-32" transform="translate(91.380954 36.153639) scale(0.697382)"/>
      </g>
     </g>
    </g>
    <g id="ytick_6">
     <g id="line2d_23"/>
    </g>
    <g id="ytick_7">
     <g id="line2d_24"/>
    </g>
    <g id="ytick_8">
     <g id="line2d_25"/>
    </g>
    <g id="ytick_9">
     <g id="line2d_26"/>
    </g>
    <g id="ytick_10">
     <g id="line2d_27"/>
    </g>
    <g id="ytick_11">
     <g id="line2d_28"/>
    </g>
    <g id="ytick_12">
     <g id="line2d_29"/>
    </g>
    <g id="ytick_13">
     <g id="line2d_30"/>
    </g>
    <g id="ytick_14">
     <g id="line2d_31"/>
    </g>
    <g id="ytick_15">
     <g id="line2d_32"/>
    </g>
    <g id="ytick_16">
     <g id="line2d_33"/>
    </g>
    <g id="ytick_17">
     <g id="line2d_34"/>
    </g>
    <g id="ytick_18">
     <g id="line2d_35"/>
    </g>
    <g id="ytick_19">
     <g id="line2d_36"/>
    </g>
    <g id="ytick_20">
     <g id="line2d_37"/>
    </g>
    <g id="ytick_21">
     <g id="line2d_38"/>
    </g>
    <g id="ytick_22">
     <g id="line2d_39"/>
    </g>
    <g id="ytick_23">
     <g id="line2d_40"/>
    </g>
    <g id="ytick_24">
     <g id="line2d_41"/>
    </g>
    <g id="ytick_25">
     <g id="line2d_42"/>
    </g>
    <g id="ytick_26">
     <g id="line2d_43"/>
    </g>
    <g id="ytick_27">
     <g id="line2d_44"/>
    </g>
    <g id="ytick_28">
     <g id="line2d_45"/>
    </g>
    <g id="ytick_29">
     <g id="line2d_46"/>
    </g>
    <g id="ytick_30">
     <g id="line2d_47"/>
    </g>
    <g id="ytick_31">
     <g id="line2d_48"/>
    </g>
    <g id="ytick_32">
     <g id="line2d_49"/>
    </g>
    <g id="ytick_33">
     <g id="line2d_50"/>
    </g>
    <g id="ytick_34">
     <g id="line2d_51"/>
    </g>
    <g id="ytick_35">
     <g id="line2d_52"/>
    </g>
    <g id="ytick_36">
     <g id="line2d_53"/>
    </g>
    <g id="ytick_37">
     <g id="line2d_54"/>
    </g>
    <g id="text_13">
     <!-- Density -->
     <g style="fill: #262626" transform="translate(10.377725 98.814048) rotate(-90) scale(0.15 -0.15)">
      <defs>
       <path id="CMR17-44" d="M 333 4352 
L 333 4186 
C 774 4186 845 4186 845 3900 
L 845 452 
C 845 166 774 166 333 166 
L 333 0 
L 2368 0 
C 3398 0 4224 943 4224 2141 
C 4224 3346 3411 4352 2368 4352 
L 333 4352 
z
M 1523 166 
C 1267 166 1254 197 1254 414 
L 1254 3938 
C 1254 4155 1267 4186 1523 4186 
L 2240 4186 
C 2771 4186 3750 3874 3750 2141 
C 3750 1242 3488 879 3366 707 
C 3213 510 2848 166 2240 166 
L 1523 166 
z
" transform="scale(0.015625)"/>
       <path id="CMR17-65" d="M 2438 1472 
C 2464 1498 2464 1511 2464 1576 
C 2464 2238 2118 2816 1389 2816 
C 710 2816 173 2169 173 1383 
C 173 551 781 -64 1459 -64 
C 2176 -64 2458 607 2458 740 
C 2458 784 2419 784 2406 784 
C 2362 784 2355 771 2330 696 
C 2189 265 1837 51 1504 51 
C 1229 51 954 203 781 480 
C 582 803 582 1176 582 1472 
L 2438 1472 
z
M 589 1568 
C 634 2505 1126 2714 1382 2714 
C 1818 2714 2112 2297 2118 1568 
L 589 1568 
z
" transform="scale(0.015625)"/>
       <path id="CMR17-6e" d="M 2656 1933 
C 2656 2259 2592 2790 1837 2790 
C 1331 2790 1069 2400 973 2144 
L 966 2144 
L 966 2790 
L 211 2720 
L 211 2554 
C 589 2554 646 2515 646 2208 
L 646 428 
C 646 184 621 153 211 153 
L 211 -13 
C 365 0 646 0 813 0 
C 979 0 1267 0 1421 -13 
L 1421 153 
C 1011 153 986 178 986 428 
L 986 1658 
C 986 2247 1344 2688 1792 2688 
C 2266 2688 2317 2266 2317 1958 
L 2317 428 
C 2317 184 2291 153 1882 153 
L 1882 -13 
C 2035 0 2317 0 2483 0 
C 2650 0 2938 0 3091 -13 
L 3091 153 
C 2682 153 2656 178 2656 428 
L 2656 1933 
z
" transform="scale(0.015625)"/>
       <path id="CMR17-73" d="M 1978 2697 
C 1978 2813 1971 2819 1933 2819 
C 1907 2819 1901 2813 1824 2717 
C 1805 2691 1747 2626 1728 2601 
C 1523 2819 1235 2819 1126 2819 
C 416 2819 160 2447 160 2076 
C 160 1498 813 1365 998 1325 
C 1402 1243 1542 1217 1677 1101 
C 1760 1025 1901 884 1901 654 
C 1901 384 1747 38 1158 38 
C 602 38 403 460 288 1021 
C 269 1110 269 1117 218 1117 
C 166 1117 160 1110 160 983 
L 160 63 
C 160 -51 166 -58 205 -58 
C 237 -58 243 -51 275 0 
C 314 57 410 211 448 276 
C 576 103 800 -64 1158 -64 
C 1792 -64 2131 283 2131 784 
C 2131 1112 1958 1285 1875 1362 
C 1683 1561 1459 1606 1190 1657 
C 838 1735 390 1825 390 2217 
C 390 2383 480 2737 1126 2737 
C 1811 2737 1850 2094 1862 1888 
C 1869 1856 1901 1849 1920 1849 
C 1978 1849 1978 1869 1978 1978 
L 1978 2697 
z
" transform="scale(0.015625)"/>
       <path id="CMR17-69" d="M 992 3909 
C 992 4049 877 4170 730 4170 
C 589 4170 467 4056 467 3909 
C 467 3769 582 3648 730 3648 
C 870 3648 992 3763 992 3909 
z
M 243 2706 
L 243 2541 
C 602 2541 653 2502 653 2197 
L 653 427 
C 653 184 627 153 218 153 
L 218 -13 
C 371 0 646 0 806 0 
C 960 0 1222 0 1370 -13 
L 1370 153 
C 992 153 979 191 979 420 
L 979 2776 
L 243 2706 
z
" transform="scale(0.015625)"/>
       <path id="CMR17-74" d="M 966 2560 
L 1862 2560 
L 1862 2725 
L 966 2725 
L 966 3904 
L 851 3904 
C 838 3245 614 2668 70 2668 
L 70 2560 
L 627 2560 
L 627 771 
C 627 650 627 -64 1370 -64 
C 1747 -64 1965 306 1965 777 
L 1965 1140 
L 1850 1140 
L 1850 783 
C 1850 344 1677 51 1408 51 
C 1222 51 966 178 966 758 
L 966 2560 
z
" transform="scale(0.015625)"/>
       <path id="CMR17-79" d="M 2496 2197 
C 2656 2586 2944 2586 3034 2586 
L 3034 2752 
C 2912 2752 2752 2752 2630 2752 
C 2496 2752 2285 2752 2157 2758 
L 2157 2592 
C 2400 2573 2406 2394 2406 2343 
C 2406 2280 2394 2248 2362 2171 
L 1664 449 
L 902 2306 
C 870 2382 870 2426 870 2433 
C 870 2573 1018 2586 1171 2586 
L 1171 2758 
C 1018 2752 742 2752 582 2752 
C 410 2752 205 2752 64 2758 
L 64 2586 
C 410 2586 448 2554 531 2350 
L 1485 15 
C 1197 -738 1030 -1178 627 -1178 
C 557 -1178 397 -1159 282 -1044 
C 429 -1031 493 -942 493 -833 
C 493 -725 416 -629 288 -629 
C 147 -629 77 -725 77 -840 
C 77 -1095 339 -1280 627 -1280 
C 998 -1280 1229 -922 1357 -604 
L 2496 2197 
z
" transform="scale(0.015625)"/>
      </defs>
      <use xlink:href="#CMR17-44" transform="scale(0.996264)"/>
      <use xlink:href="#CMR17-65" transform="translate(70.393556 0) scale(0.996264)"/>
      <use xlink:href="#CMR17-6e" transform="translate(110.879216 0) scale(0.996264)"/>
      <use xlink:href="#CMR17-73" transform="translate(161.774586 0) scale(0.996264)"/>
      <use xlink:href="#CMR17-69" transform="translate(197.575924 0) scale(0.996264)"/>
      <use xlink:href="#CMR17-74" transform="translate(222.446982 0) scale(0.996264)"/>
      <use xlink:href="#CMR17-79" transform="translate(255.125296 0) scale(0.996264)"/>
     </g>
    </g>
   </g>
   <g id="PolyCollection_1">
    <path d="M 64.660241 187.597945 
L 64.660241 34724.488862 
L 65.281573 34724.488862 
L 65.902904 34724.488862 
L 66.524236 34724.488862 
L 67.145568 34724.488862 
L 67.766899 34724.488862 
L 68.388231 34724.488862 
L 69.009562 34724.488862 
L 69.630894 34724.488862 
L 70.252225 34724.488862 
L 70.873557 34724.488862 
L 71.494888 34724.488862 
L 72.11622 34724.488862 
L 72.737551 34724.488862 
L 73.358883 34724.488862 
L 73.980215 34724.488862 
L 74.601546 34724.488862 
L 75.222878 34724.488862 
L 75.844209 34724.488862 
L 76.465541 34724.488862 
L 77.086872 34724.488862 
L 77.708204 34724.488862 
L 78.329535 34724.488862 
L 78.950867 34724.488862 
L 79.572198 34724.488862 
L 80.19353 34724.488862 
L 80.814862 34724.488862 
L 81.436193 34724.488862 
L 82.057525 34724.488862 
L 82.678856 34724.488862 
L 83.300188 34724.488862 
L 83.921519 34724.488862 
L 84.542851 34724.488862 
L 85.164182 34724.488862 
L 85.785514 34724.488862 
L 86.406845 34724.488862 
L 87.028177 34724.488862 
L 87.649509 34724.488862 
L 88.27084 34724.488862 
L 88.892172 34724.488862 
L 89.513503 34724.488862 
L 90.134835 34724.488862 
L 90.756166 34724.488862 
L 91.377498 34724.488862 
L 91.998829 34724.488862 
L 92.620161 34724.488862 
L 93.241492 34724.488862 
L 93.862824 34724.488862 
L 94.484156 34724.488862 
L 95.105487 34724.488862 
L 95.726819 34724.488862 
L 96.34815 34724.488862 
L 96.969482 34724.488862 
L 97.590813 34724.488862 
L 98.212145 34724.488862 
L 98.833476 34724.488862 
L 99.454808 34724.488862 
L 100.076139 34724.488862 
L 100.697471 34724.488862 
L 101.318803 34724.488862 
L 101.940134 34724.488862 
L 102.561466 34724.488862 
L 103.182797 34724.488862 
L 103.804129 34724.488862 
L 104.42546 34724.488862 
L 105.046792 34724.488862 
L 105.668123 34724.488862 
L 106.289455 34724.488862 
L 106.910786 34724.488862 
L 107.532118 34724.488862 
L 108.15345 34724.488862 
L 108.774781 34724.488862 
L 109.396113 34724.488862 
L 110.017444 34724.488862 
L 110.638776 34724.488862 
L 111.260107 34724.488862 
L 111.881439 34724.488862 
L 112.50277 34724.488862 
L 113.124102 34724.488862 
L 113.745433 34724.488862 
L 114.366765 34724.488862 
L 114.988097 34724.488862 
L 115.609428 34724.488862 
L 116.23076 34724.488862 
L 116.852091 34724.488862 
L 117.473423 34724.488862 
L 118.094754 34724.488862 
L 118.716086 34724.488862 
L 119.337417 34724.488862 
L 119.958749 34724.488862 
L 120.58008 34724.488862 
L 121.201412 34724.488862 
L 121.822744 34724.488862 
L 122.444075 34724.488862 
L 123.065407 34724.488862 
L 123.686738 34724.488862 
L 124.30807 34724.488862 
L 124.929401 34724.488862 
L 125.550733 34724.488862 
L 126.172064 34724.488862 
L 126.793396 34724.488862 
L 127.414727 34724.488862 
L 128.036059 34724.488862 
L 128.657391 34724.488862 
L 129.278722 34724.488862 
L 129.900054 34724.488862 
L 130.521385 34724.488862 
L 131.142717 34724.488862 
L 131.764048 34724.488862 
L 132.38538 34724.488862 
L 133.006711 34724.488862 
L 133.628043 34724.488862 
L 134.249374 34724.488862 
L 134.870706 34724.488862 
L 135.492038 34724.488862 
L 136.113369 34724.488862 
L 136.734701 34724.488862 
L 137.356032 34724.488862 
L 137.977364 34724.488862 
L 138.598695 34724.488862 
L 139.220027 34724.488862 
L 139.841358 34724.488862 
L 140.46269 34724.488862 
L 141.084021 34724.488862 
L 141.705353 34724.488862 
L 142.326685 34724.488862 
L 142.948016 34724.488862 
L 143.569348 34724.488862 
L 144.190679 34724.488862 
L 144.812011 34724.488862 
L 145.433342 34724.488862 
L 146.054674 34724.488862 
L 146.676005 34724.488862 
L 147.297337 34724.488862 
L 147.918668 34724.488862 
L 148.54 34724.488862 
L 149.161332 34724.488862 
L 149.782663 34724.488862 
L 150.403995 34724.488862 
L 151.025326 34724.488862 
L 151.646658 34724.488862 
L 152.267989 34724.488862 
L 152.889321 34724.488862 
L 153.510652 34724.488862 
L 154.131984 34724.488862 
L 154.753315 34724.488862 
L 155.374647 34724.488862 
L 155.995979 34724.488862 
L 156.61731 34724.488862 
L 157.238642 34724.488862 
L 157.859973 34724.488862 
L 158.481305 34724.488862 
L 159.102636 34724.488862 
L 159.723968 34724.488862 
L 160.345299 34724.488862 
L 160.966631 34724.488862 
L 161.587962 34724.488862 
L 162.209294 34724.488862 
L 162.830626 34724.488862 
L 163.451957 34724.488862 
L 164.073289 34724.488862 
L 164.69462 34724.488862 
L 165.315952 34724.488862 
L 165.937283 34724.488862 
L 166.558615 34724.488862 
L 167.179946 34724.488862 
L 167.801278 34724.488862 
L 168.422609 34724.488862 
L 169.043941 34724.488862 
L 169.665273 34724.488862 
L 170.286604 34724.488862 
L 170.907936 34724.488862 
L 171.529267 34724.488862 
L 172.150599 34724.488862 
L 172.77193 34724.488862 
L 173.393262 34724.488862 
L 174.014593 34724.488862 
L 174.635925 34724.488862 
L 175.257256 34724.488862 
L 175.878588 34724.488862 
L 176.49992 34724.488862 
L 177.121251 34724.488862 
L 177.742583 34724.488862 
L 178.363914 34724.488862 
L 178.985246 34724.488862 
L 179.606577 34724.488862 
L 180.227909 34724.488862 
L 180.84924 34724.488862 
L 181.470572 34724.488862 
L 182.091903 34724.488862 
L 182.713235 34724.488862 
L 183.334567 34724.488862 
L 183.955898 34724.488862 
L 184.57723 34724.488862 
L 185.198561 34724.488862 
L 185.819893 34724.488862 
L 186.441224 34724.488862 
L 187.062556 34724.488862 
L 187.683887 34724.488862 
L 188.305219 34724.488862 
L 188.92655 34724.488862 
L 189.547882 34724.488862 
L 190.169213 34724.488862 
L 190.790545 34724.488862 
L 191.411877 34724.488862 
L 192.033208 34724.488862 
L 192.65454 34724.488862 
L 193.275871 34724.488862 
L 193.897203 34724.488862 
L 194.518534 34724.488862 
L 195.139866 34724.488862 
L 195.761197 34724.488862 
L 196.382529 34724.488862 
L 197.00386 34724.488862 
L 197.625192 34724.488862 
L 198.246524 34724.488862 
L 198.867855 34724.488862 
L 199.489187 34724.488862 
L 200.110518 34724.488862 
L 200.73185 34724.488862 
L 201.353181 34724.488862 
L 201.974513 34724.488862 
L 202.595844 34724.488862 
L 203.217176 34724.488862 
L 203.838507 34724.488862 
L 204.459839 34724.488862 
L 205.081171 34724.488862 
L 205.702502 34724.488862 
L 206.323834 34724.488862 
L 206.945165 34724.488862 
L 207.566497 34724.488862 
L 208.187828 34724.488862 
L 208.80916 34724.488862 
L 209.430491 34724.488862 
L 210.051823 34724.488862 
L 210.673154 34724.488862 
L 211.294486 34724.488862 
L 211.915818 34724.488862 
L 212.537149 34724.488862 
L 213.158481 34724.488862 
L 213.779812 34724.488862 
L 214.401144 34724.488862 
L 215.022475 34724.488862 
L 215.643807 34724.488862 
L 216.265138 34724.488862 
L 216.88647 34724.488862 
L 217.507801 34724.488862 
L 218.129133 34724.488862 
L 218.750465 34724.488862 
L 219.371796 34724.488862 
L 219.993128 34724.488862 
L 220.614459 34724.488862 
L 221.235791 34724.488862 
L 221.857122 34724.488862 
L 222.478454 34724.488862 
L 223.099785 34724.488862 
L 223.721117 34724.488862 
L 224.342448 34724.488862 
L 224.96378 34724.488862 
L 225.585112 34724.488862 
L 226.206443 34724.488862 
L 226.827775 34724.488862 
L 227.449106 34724.488862 
L 228.070438 34724.488862 
L 228.691769 34724.488862 
L 229.313101 34724.488862 
L 229.934432 34724.488862 
L 230.555764 34724.488862 
L 231.177095 34724.488862 
L 231.798427 34724.488862 
L 232.419759 34724.488862 
L 233.04109 34724.488862 
L 233.662422 34724.488862 
L 234.283753 34724.488862 
L 234.905085 34724.488862 
L 235.526416 34724.488862 
L 236.147748 34724.488862 
L 236.769079 34724.488862 
L 237.390411 34724.488862 
L 238.011742 34724.488862 
L 238.633074 34724.488862 
L 239.254406 34724.488862 
L 239.875737 34724.488862 
L 240.497069 34724.488862 
L 241.1184 34724.488862 
L 241.739732 34724.488862 
L 242.361063 34724.488862 
L 242.982395 34724.488862 
L 243.603726 34724.488862 
L 244.225058 34724.488862 
L 244.846389 34724.488862 
L 245.467721 34724.488862 
L 246.089053 34724.488862 
L 246.710384 34724.488862 
L 247.331716 34724.488862 
L 247.953047 34724.488862 
L 248.574379 34724.488862 
L 249.19571 34724.488862 
L 249.817042 34724.488862 
L 250.438373 34724.488862 
L 251.059705 34724.488862 
L 251.681036 34724.488862 
L 252.302368 34724.488862 
L 252.9237 34724.488862 
L 253.545031 34724.488862 
L 254.166363 34724.488862 
L 254.787694 34724.488862 
L 255.409026 34724.488862 
L 256.030357 34724.488862 
L 256.651689 34724.488862 
L 257.27302 34724.488862 
L 257.894352 34724.488862 
L 258.515683 34724.488862 
L 259.137015 34724.488862 
L 259.758347 34724.488862 
L 260.379678 34724.488862 
L 261.00101 34724.488862 
L 261.622341 34724.488862 
L 262.243673 34724.488862 
L 262.865004 34724.488862 
L 263.486336 34724.488862 
L 264.107667 34724.488862 
L 264.728999 34724.488862 
L 265.35033 34724.488862 
L 265.971662 34724.488862 
L 266.592994 34724.488862 
L 267.214325 34724.488862 
L 267.835657 34724.488862 
L 268.456988 34724.488862 
L 269.07832 34724.488862 
L 269.699651 34724.488862 
L 270.320983 34724.488862 
L 270.942314 34724.488862 
L 271.563646 34724.488862 
L 272.184977 34724.488862 
L 272.806309 34724.488862 
L 273.427641 34724.488862 
L 274.048972 34724.488862 
L 274.670304 34724.488862 
L 275.291635 34724.488862 
L 275.912967 34724.488862 
L 276.534298 34724.488862 
L 277.15563 34724.488862 
L 277.776961 34724.488862 
L 278.398293 34724.488862 
L 279.019624 34724.488862 
L 279.640956 34724.488862 
L 280.262288 34724.488862 
L 280.883619 34724.488862 
L 281.504951 34724.488862 
L 282.126282 34724.488862 
L 282.747614 34724.488862 
L 283.368945 34724.488862 
L 283.990277 34724.488862 
L 284.611608 34724.488862 
L 285.23294 34724.488862 
L 285.854271 34724.488862 
L 286.475603 34724.488862 
L 287.096935 34724.488862 
L 287.718266 34724.488862 
L 288.339598 34724.488862 
L 288.960929 34724.488862 
L 289.582261 34724.488862 
L 290.203592 34724.488862 
L 290.824924 34724.488862 
L 291.446255 34724.488862 
L 292.067587 34724.488862 
L 292.688918 34724.488862 
L 293.31025 34724.488862 
L 293.931582 34724.488862 
L 294.552913 34724.488862 
L 295.174245 34724.488862 
L 295.795576 34724.488862 
L 296.416908 34724.488862 
L 297.038239 34724.488862 
L 297.659571 34724.488862 
L 298.280902 34724.488862 
L 298.902234 34724.488862 
L 299.523565 34724.488862 
L 300.144897 34724.488862 
L 300.766229 34724.488862 
L 301.38756 34724.488862 
L 302.008892 34724.488862 
L 302.630223 34724.488862 
L 303.251555 34724.488862 
L 303.872886 34724.488862 
L 304.494218 34724.488862 
L 305.115549 34724.488862 
L 305.736881 34724.488862 
L 306.358212 34724.488862 
L 306.979544 34724.488862 
L 307.600876 34724.488862 
L 308.222207 34724.488862 
L 308.843539 34724.488862 
L 309.46487 34724.488862 
L 310.086202 34724.488862 
L 310.707533 34724.488862 
L 311.328865 34724.488862 
L 311.950196 34724.488862 
L 312.571528 34724.488862 
L 313.192859 34724.488862 
L 313.814191 34724.488862 
L 314.435523 34724.488862 
L 315.056854 34724.488862 
L 315.678186 34724.488862 
L 316.299517 34724.488862 
L 316.920849 34724.488862 
L 317.54218 34724.488862 
L 318.163512 34724.488862 
L 318.784843 34724.488862 
L 319.406175 34724.488862 
L 320.027506 34724.488862 
L 320.648838 34724.488862 
L 321.270169 34724.488862 
L 321.891501 34724.488862 
L 322.512833 34724.488862 
L 323.134164 34724.488862 
L 323.755496 34724.488862 
L 324.376827 34724.488862 
L 324.998159 34724.488862 
L 325.61949 34724.488862 
L 326.240822 34724.488862 
L 326.862153 34724.488862 
L 327.483485 34724.488862 
L 328.104816 34724.488862 
L 328.726148 34724.488862 
L 329.34748 34724.488862 
L 329.968811 34724.488862 
L 330.590143 34724.488862 
L 331.211474 34724.488862 
L 331.832806 34724.488862 
L 332.454137 34724.488862 
L 333.075469 34724.488862 
L 333.6968 34724.488862 
L 334.318132 34724.488862 
L 334.939463 34724.488862 
L 335.560795 34724.488862 
L 336.182127 34724.488862 
L 336.803458 34724.488862 
L 337.42479 34724.488862 
L 338.046121 34724.488862 
L 338.667453 34724.488862 
L 339.288784 34724.488862 
L 339.910116 34724.488862 
L 340.531447 34724.488862 
L 341.152779 34724.488862 
L 341.77411 34724.488862 
L 342.395442 34724.488862 
L 343.016774 34724.488862 
L 343.638105 34724.488862 
L 344.259437 34724.488862 
L 344.880768 34724.488862 
L 345.5021 34724.488862 
L 346.123431 34724.488862 
L 346.744763 34724.488862 
L 347.366094 34724.488862 
L 347.987426 34724.488862 
L 348.608757 34724.488862 
L 349.230089 34724.488862 
L 349.851421 34724.488862 
L 350.472752 34724.488862 
L 351.094084 34724.488862 
L 351.715415 34724.488862 
L 352.336747 34724.488862 
L 352.958078 34724.488862 
L 353.57941 34724.488862 
L 354.200741 34724.488862 
L 354.822073 34724.488862 
L 355.443404 34724.488862 
L 356.064736 34724.488862 
L 356.686068 34724.488862 
L 357.307399 34724.488862 
L 357.928731 34724.488862 
L 358.550062 34724.488862 
L 359.171394 34724.488862 
L 359.792725 34724.488862 
L 360.414057 34724.488862 
L 361.035388 34724.488862 
L 361.65672 34724.488862 
L 362.278051 34724.488862 
L 362.899383 34724.488862 
L 363.520715 34724.488862 
L 364.142046 34724.488862 
L 364.763378 34724.488862 
L 365.384709 34724.488862 
L 366.006041 34724.488862 
L 366.627372 34724.488862 
L 367.248704 34724.488862 
L 367.870035 34724.488862 
L 368.491367 34724.488862 
L 369.112698 34724.488862 
L 369.73403 34724.488862 
L 370.355362 34724.488862 
L 370.976693 34724.488862 
L 371.598025 34724.488862 
L 372.219356 34724.488862 
L 372.840688 34724.488862 
L 373.462019 34724.488862 
L 374.083351 34724.488862 
L 374.704682 34724.488862 
L 374.704682 197.331807 
L 374.704682 197.331807 
L 374.083351 170.946073 
L 373.462019 151.040898 
L 372.840688 137.615646 
L 372.219356 130.663987 
L 371.598025 130.122998 
L 370.976693 135.385851 
L 370.355362 141.905067 
L 369.73403 139.038128 
L 369.112698 132.049455 
L 368.491367 129.61297 
L 367.870035 133.445785 
L 367.248704 143.73784 
L 366.627372 160.508378 
L 366.006041 183.75933 
L 365.384709 213.490889 
L 364.763378 249.703074 
L 364.142046 292.395889 
L 363.520715 341.569332 
L 362.899383 397.223404 
L 362.278051 459.358105 
L 361.65672 527.973435 
L 361.035388 603.069394 
L 360.414057 684.64598 
L 359.792725 772.256687 
L 359.171394 733.684615 
L 358.550062 648.440749 
L 357.928731 569.674094 
L 357.307399 497.385595 
L 356.686068 431.573079 
L 356.064736 372.232462 
L 355.443404 319.356095 
L 354.822073 272.929704 
L 354.200741 232.926822 
L 353.57941 199.299021 
L 352.958078 171.959768 
L 352.336747 150.761097 
L 351.715415 135.469263 
L 351.094084 125.763059 
L 350.472752 121.293545 
L 349.851421 121.780132 
L 349.230089 126.745845 
L 348.608757 133.103377 
L 347.987426 132.305197 
L 347.366094 125.832173 
L 346.744763 121.645578 
L 346.123431 121.887428 
L 345.5021 126.916312 
L 344.880768 137.094392 
L 344.259437 152.854623 
L 343.638105 174.556057 
L 343.016774 202.269877 
L 342.395442 222.707426 
L 341.77411 197.33445 
L 341.152779 170.998527 
L 340.531447 151.048555 
L 339.910116 137.490884 
L 339.288784 130.058884 
L 338.667453 127.770668 
L 338.046121 127.983227 
L 337.42479 127.78053 
L 336.803458 128.504704 
L 336.182127 133.426217 
L 335.560795 144.174625 
L 334.939463 161.238581 
L 334.318132 184.742878 
L 333.6968 214.718055 
L 333.075469 251.171503 
L 332.454137 294.101264 
L 331.832806 339.409041 
L 331.211474 309.392606 
L 330.590143 264.394168 
L 329.968811 225.838398 
L 329.34748 193.763226 
L 328.726148 168.168673 
L 328.104816 149.054653 
L 327.483485 136.420304 
L 326.862153 130.257021 
L 326.240822 130.478785 
L 325.61949 136.252077 
L 324.998159 141.681671 
L 324.376827 136.218192 
L 323.755496 127.442857 
L 323.134164 122.374813 
L 322.512833 121.73815 
L 321.891501 125.190274 
L 321.270169 130.620637 
L 320.648838 130.771068 
L 320.027506 123.644449 
L 319.406175 116.017496 
L 318.784843 110.566668 
L 318.163512 107.779879 
L 317.54218 106.968199 
L 316.920849 106.371512 
L 316.299517 106.059557 
L 315.678186 108.558903 
L 315.056854 115.475273 
L 314.435523 124.018285 
L 313.814191 124.470637 
L 313.192859 119.318402 
L 312.571528 116.523715 
L 311.950196 115.864716 
L 311.328865 114.693217 
L 310.707533 113.200751 
L 310.086202 113.462092 
L 309.46487 115.95083 
L 308.843539 119.443085 
L 308.222207 122.355068 
L 307.600876 124.532684 
L 306.979544 128.153821 
L 306.358212 135.830383 
L 305.736881 149.05594 
L 305.115549 168.436766 
L 304.494218 194.188197 
L 303.872886 226.383408 
L 303.251555 265.045528 
L 302.630223 309.022402 
L 302.008892 297.912609 
L 301.38756 254.627943 
L 300.766229 217.596748 
L 300.144897 187.01738 
L 299.523565 162.841871 
L 298.902234 144.942549 
L 298.280902 132.992751 
L 297.659571 126.223571 
L 297.038239 123.12435 
L 296.416908 121.530393 
L 295.795576 119.443628 
L 295.174245 116.331063 
L 294.552913 113.766222 
L 293.931582 113.302495 
L 293.31025 114.232088 
L 292.688918 114.064297 
L 292.067587 112.423684 
L 291.446255 111.707446 
L 290.824924 113.517582 
L 290.203592 117.197363 
L 289.582261 117.281994 
L 288.960929 109.302846 
L 288.339598 100.04559 
L 287.718266 93.686488 
L 287.096935 90.182363 
L 286.475603 88.397249 
L 285.854271 87.295238 
L 285.23294 86.582844 
L 284.611608 86.612021 
L 283.990277 87.263227 
L 283.368945 86.958784 
L 282.747614 84.562709 
L 282.126282 81.643135 
L 281.504951 80.124139 
L 280.883619 80.917542 
L 280.262288 84.304692 
L 279.640956 89.390963 
L 279.019624 93.017255 
L 278.398293 92.536134 
L 277.776961 89.906588 
L 277.15563 87.704434 
L 276.534298 86.855327 
L 275.912967 87.397265 
L 275.291635 89.104013 
L 274.670304 92.0681 
L 274.048972 96.675842 
L 273.427641 102.331902 
L 272.806309 105.916602 
L 272.184977 105.136925 
L 271.563646 103.496818 
L 270.942314 104.9154 
L 270.320983 111.079673 
L 269.699651 122.610107 
L 269.07832 139.013559 
L 268.456988 150.254821 
L 267.835657 141.887939 
L 267.214325 132.749671 
L 266.592994 129.611806 
L 265.971662 132.905081 
L 265.35033 142.269323 
L 264.728999 152.710785 
L 264.107667 147.412471 
L 263.486336 134.82476 
L 262.865004 125.386052 
L 262.243673 118.64147 
L 261.622341 113.412792 
L 261.00101 109.759518 
L 260.379678 107.254894 
L 259.758347 104.709804 
L 259.137015 102.452855 
L 258.515683 101.027753 
L 257.894352 99.02515 
L 257.27302 95.60738 
L 256.651689 91.847775 
L 256.030357 88.206837 
L 255.409026 84.419327 
L 254.787694 80.887957 
L 254.166363 78.642043 
L 253.545031 78.003504 
L 252.9237 77.821881 
L 252.302368 76.648751 
L 251.681036 74.714181 
L 251.059705 73.056771 
L 250.438373 71.926609 
L 249.817042 71.025829 
L 249.19571 70.328459 
L 248.574379 70.219196 
L 247.953047 71.018705 
L 247.331716 72.474132 
L 246.710384 73.719047 
L 246.089053 74.125379 
L 245.467721 73.831019 
L 244.846389 73.34562 
L 244.225058 73.275888 
L 243.603726 73.958324 
L 242.982395 75.284627 
L 242.361063 77.033929 
L 241.739732 79.042199 
L 241.1184 80.904461 
L 240.497069 82.127686 
L 239.875737 82.811979 
L 239.254406 83.649148 
L 238.633074 85.570706 
L 238.011742 89.463582 
L 237.390411 95.535177 
L 236.769079 102.165027 
L 236.147748 106.144786 
L 235.526416 107.566198 
L 234.905085 110.023026 
L 234.283753 116.072315 
L 233.662422 126.937196 
L 233.04109 143.071297 
L 232.419759 159.562466 
L 231.798427 152.418425 
L 231.177095 136.462148 
L 230.555764 125.238987 
L 229.934432 119.126938 
L 229.313101 117.264255 
L 228.691769 118.194595 
L 228.070438 119.502663 
L 227.449106 117.697794 
L 226.827775 112.511466 
L 226.206443 107.510181 
L 225.585112 104.140142 
L 224.96378 101.748379 
L 224.342448 99.309333 
L 223.721117 96.04523 
L 223.099785 92.450991 
L 222.478454 89.31752 
L 221.857122 85.947518 
L 221.235791 81.909368 
L 220.614459 78.310213 
L 219.993128 75.846005 
L 219.371796 74.337109 
L 218.750465 73.544804 
L 218.129133 73.113429 
L 217.507801 72.349689 
L 216.88647 70.726449 
L 216.265138 68.258928 
L 215.643807 65.498525 
L 215.022475 63.23476 
L 214.401144 61.844136 
L 213.779812 61.092585 
L 213.158481 60.508868 
L 212.537149 59.623392 
L 211.915818 58.132512 
L 211.294486 56.368225 
L 210.673154 55.221461 
L 210.051823 55.312067 
L 209.430491 56.507222 
L 208.80916 58.062625 
L 208.187828 59.156571 
L 207.566497 59.548443 
L 206.945165 59.639519 
L 206.323834 59.985664 
L 205.702502 60.902099 
L 205.081171 62.302038 
L 204.459839 63.839545 
L 203.838507 65.387334 
L 203.217176 67.259963 
L 202.595844 69.767188 
L 201.974513 73.022153 
L 201.353181 77.156237 
L 200.73185 81.90748 
L 200.110518 86.117752 
L 199.489187 89.203791 
L 198.867855 92.59868 
L 198.246524 97.641792 
L 197.625192 103.613741 
L 197.00386 108.669087 
L 196.382529 112.605677 
L 195.761197 116.358356 
L 195.139866 120.431411 
L 194.518534 126.038382 
L 193.897203 135.146168 
L 193.275871 149.024843 
L 192.65454 163.133771 
L 192.033208 155.928304 
L 191.411877 140.704741 
L 190.790545 129.931921 
L 190.169213 123.171235 
L 189.547882 118.269865 
L 188.92655 113.656379 
L 188.305219 108.934219 
L 187.683887 103.781045 
L 187.062556 98.424837 
L 186.441224 93.682384 
L 185.819893 89.858285 
L 185.198561 86.514342 
L 184.57723 82.895888 
L 183.955898 78.597609 
L 183.334567 74.087764 
L 182.713235 70.246961 
L 182.091903 67.472352 
L 181.470572 65.688083 
L 180.84924 64.733556 
L 180.227909 64.141901 
L 179.606577 63.055489 
L 178.985246 61.152084 
L 178.363914 58.907233 
L 177.742583 56.710684 
L 177.121251 54.676751 
L 176.49992 52.898544 
L 175.878588 51.469839 
L 175.257256 50.370128 
L 174.635925 49.408857 
L 174.014593 48.415001 
L 173.393262 47.562636 
L 172.77193 47.263504 
L 172.150599 47.628539 
L 171.529267 48.335 
L 170.907936 49.030429 
L 170.286604 49.675518 
L 169.665273 50.637095 
L 169.043941 52.348933 
L 168.422609 54.622848 
L 167.801278 56.692434 
L 167.179946 58.187344 
L 166.558615 59.295194 
L 165.937283 60.140031 
L 165.315952 60.935945 
L 164.69462 62.120777 
L 164.073289 63.817644 
L 163.451957 65.781199 
L 162.830626 67.986831 
L 162.209294 70.612017 
L 161.587962 73.636473 
L 160.966631 76.932201 
L 160.345299 80.485978 
L 159.723968 84.337587 
L 159.102636 88.204446 
L 158.481305 91.477744 
L 157.859973 94.278634 
L 157.238642 97.775122 
L 156.61731 102.985353 
L 155.995979 109.838265 
L 155.374647 117.043862 
L 154.753315 122.32233 
L 154.131984 121.743585 
L 153.510652 116.11821 
L 152.889321 111.718993 
L 152.267989 111.316488 
L 151.646658 114.790518 
L 151.025326 119.607913 
L 150.403995 119.854107 
L 149.782663 115.198443 
L 149.161332 111.142419 
L 148.54 108.354889 
L 147.918668 104.512839 
L 147.297337 99.382054 
L 146.676005 94.466201 
L 146.054674 90.002525 
L 145.433342 85.878568 
L 144.812011 82.787823 
L 144.190679 81.069843 
L 143.569348 79.834855 
L 142.948016 77.849893 
L 142.326685 74.950461 
L 141.705353 71.637268 
L 141.084021 68.064753 
L 140.46269 64.451359 
L 139.841358 61.498728 
L 139.220027 59.641239 
L 138.598695 58.437499 
L 137.977364 56.92881 
L 137.356032 54.653924 
L 136.734701 52.150754 
L 136.113369 50.160515 
L 135.492038 48.990613 
L 134.870706 48.644712 
L 134.249374 48.787632 
L 133.628043 48.763046 
L 133.006711 48.320631 
L 132.38538 47.828943 
L 131.764048 47.55873 
L 131.142717 47.478716 
L 130.521385 47.477135 
L 129.900054 47.430282 
L 129.278722 47.367731 
L 128.657391 47.514557 
L 128.036059 48.039203 
L 127.414727 49.022017 
L 126.793396 50.4755 
L 126.172064 52.138831 
L 125.550733 53.629993 
L 124.929401 55.047132 
L 124.30807 56.860492 
L 123.686738 59.106934 
L 123.065407 61.314135 
L 122.444075 63.302868 
L 121.822744 65.378625 
L 121.201412 67.6593 
L 120.58008 69.859824 
L 119.958749 71.782842 
L 119.337417 73.90831 
L 118.716086 77.119972 
L 118.094754 81.760835 
L 117.473423 87.090512 
L 116.852091 91.597988 
L 116.23076 94.824057 
L 115.609428 98.60187 
L 114.988097 105.32725 
L 114.366765 116.54527 
L 113.745433 133.030071 
L 113.124102 155.150831 
L 112.50277 183.097133 
L 111.881439 216.98616 
L 111.260107 256.907548 
L 110.638776 302.769352 
L 110.017444 315.584021 
L 109.396113 269.568101 
L 108.774781 228.842496 
L 108.15345 194.515252 
L 107.532118 166.556451 
L 106.910786 144.897136 
L 106.289455 129.375295 
L 105.668123 119.596895 
L 105.046792 114.59735 
L 104.42546 112.246602 
L 103.804129 109.49485 
L 103.182797 105.374459 
L 102.561466 101.899626 
L 101.940134 100.355818 
L 101.318803 99.236213 
L 100.697471 95.993858 
L 100.076139 91.223115 
L 99.454808 86.631258 
L 98.833476 82.414294 
L 98.212145 78.685051 
L 97.590813 75.804349 
L 96.969482 73.521689 
L 96.34815 71.401304 
L 95.726819 69.582089 
L 95.105487 68.268969 
L 94.484156 67.26397 
L 93.862824 66.3045 
L 93.241492 65.167749 
L 92.620161 63.53651 
L 91.998829 61.469735 
L 91.377498 59.609629 
L 90.756166 58.342119 
L 90.134835 57.383872 
L 89.513503 56.51225 
L 88.892172 55.979358 
L 88.27084 55.865821 
L 87.649509 55.797462 
L 87.028177 55.576334 
L 86.406845 55.476831 
L 85.785514 55.695701 
L 85.164182 56.091765 
L 84.542851 56.474089 
L 83.921519 56.849731 
L 83.300188 57.355491 
L 82.678856 58.029492 
L 82.057525 58.824907 
L 81.436193 59.778536 
L 80.814862 60.978646 
L 80.19353 62.379644 
L 79.572198 63.781133 
L 78.950867 65.06429 
L 78.329535 66.294373 
L 77.708204 67.621288 
L 77.086872 69.200278 
L 76.465541 71.073425 
L 75.844209 73.087415 
L 75.222878 75.147909 
L 74.601546 77.47224 
L 73.980215 80.201632 
L 73.358883 83.034001 
L 72.737551 85.926311 
L 72.11622 89.529332 
L 71.494888 93.900196 
L 70.873557 98.013496 
L 70.252225 101.831183 
L 69.630894 106.27382 
L 69.009562 109.951342 
L 68.388231 110.658754 
L 67.766899 110.93768 
L 67.145568 114.691389 
L 66.524236 123.768778 
L 65.902904 138.814372 
L 65.281573 160.059642 
L 64.660241 187.597945 
z
" clip-path="url(#pd9d44374f9)" style="fill: #4c72b0; fill-opacity: 0.25; stroke: #4c72b0; stroke-width: 0.3"/>
   </g>
   <g id="line2d_55">
    <path d="M 67.500644 118.060776 
L 69.330485 106.395744 
L 71.160327 95.927161 
L 72.990168 86.655027 
L 74.82001 78.579341 
L 76.649851 71.700105 
L 77.869746 67.778641 
L 79.08964 64.388932 
L 80.309534 61.530978 
L 81.529429 59.204779 
L 82.749323 57.410335 
L 83.969217 56.147647 
L 85.189112 55.416713 
L 85.799059 55.250654 
L 86.409006 55.217534 
L 87.018953 55.317353 
L 87.6289 55.55011 
L 88.238847 55.915806 
L 89.458742 57.046015 
L 90.678636 58.707979 
L 91.89853 60.901698 
L 93.118425 63.627171 
L 94.338319 66.8844 
L 95.558213 70.673384 
L 96.778108 74.994123 
L 98.607949 82.472272 
L 100.437791 91.14687 
L 102.267632 101.017916 
L 104.097474 112.085411 
L 105.927315 124.349356 
L 108.367104 142.562424 
L 110.806893 162.902512 
L 112.93062 182.355801 
L 112.93062 182.355801 
" clip-path="url(#pd9d44374f9)" style="fill: none; stroke: #4c72b0; stroke-linecap: round"/>
   </g>
   <g id="line2d_56">
    <path d="M 106.122078 182.355801 
L 108.367104 159.184693 
L 110.806893 136.47443 
L 113.246681 116.318271 
L 115.076523 102.877283 
L 116.906364 90.872978 
L 118.736206 80.305357 
L 120.566047 71.174419 
L 122.395889 63.480164 
L 123.615783 59.148819 
L 124.835677 55.455999 
L 126.055572 52.401706 
L 127.275466 49.985939 
L 128.49536 48.208697 
L 129.715255 47.069982 
L 130.325202 46.740071 
L 130.935149 46.569792 
L 131.545096 46.559145 
L 132.155043 46.708129 
L 132.764991 47.016744 
L 133.374938 47.484991 
L 133.984885 48.11287 
L 135.204779 49.847522 
L 136.424674 52.220699 
L 137.644568 55.232403 
L 138.864462 58.882632 
L 140.084357 63.171388 
L 141.304251 68.09867 
L 143.134092 76.686828 
L 144.963934 86.71167 
L 146.793775 98.173196 
L 148.623617 111.071405 
L 150.453458 125.406298 
L 152.2833 141.177874 
L 154.723089 164.441484 
L 156.440026 182.355801 
L 156.440026 182.355801 
" clip-path="url(#pd9d44374f9)" style="fill: none; stroke: #55a868; stroke-linecap: round"/>
   </g>
   <g id="line2d_57">
    <path d="M 148.267819 182.355801 
L 150.453458 159.238491 
L 152.893247 136.04566 
L 154.723089 120.443718 
L 156.55293 106.378361 
L 158.382772 93.84959 
L 160.212613 82.857403 
L 162.042455 73.401801 
L 163.872296 65.482784 
L 165.09219 61.057098 
L 166.312085 57.314338 
L 167.531979 54.254505 
L 168.751873 51.877599 
L 169.971768 50.183619 
L 170.581715 49.592726 
L 171.191662 49.172566 
L 171.801609 48.923137 
L 172.411556 48.844439 
L 173.021504 48.936473 
L 173.631451 49.199239 
L 174.241398 49.632737 
L 174.851345 50.236966 
L 176.071239 51.957619 
L 177.291134 54.361199 
L 178.511028 57.447706 
L 179.730922 61.217139 
L 180.950817 65.669499 
L 182.170711 70.804786 
L 184.000553 79.788203 
L 185.830394 90.308205 
L 187.660236 102.364792 
L 189.490077 115.957965 
L 191.319919 131.087721 
L 193.14976 147.754063 
L 195.589549 172.366096 
L 196.507594 182.355801 
L 196.507594 182.355801 
" clip-path="url(#pd9d44374f9)" style="fill: none; stroke: #c44e52; stroke-linecap: round"/>
   </g>
   <g id="line2d_58">
    <path d="M 187.789936 182.355801 
L 190.100024 158.115187 
L 192.539813 135.349552 
L 194.369654 120.176461 
L 196.199496 106.632915 
L 198.029337 94.718912 
L 199.859179 84.434454 
L 201.68902 75.779541 
L 202.908915 70.9149 
L 204.128809 66.774502 
L 205.348703 63.358346 
L 206.568598 60.666431 
L 207.788492 58.698759 
L 208.398439 57.986513 
L 209.008386 57.455328 
L 209.618334 57.105204 
L 210.228281 56.936139 
L 210.838228 56.948136 
L 211.448175 57.141193 
L 212.058122 57.51531 
L 212.668069 58.070488 
L 213.278017 58.806726 
L 214.497911 60.822384 
L 215.717805 63.562284 
L 216.9377 67.026425 
L 218.157594 71.214809 
L 219.377488 76.127434 
L 220.597383 81.764302 
L 222.427224 91.577557 
L 224.257066 103.020356 
L 226.086907 116.092699 
L 227.916749 130.794586 
L 229.74659 147.126018 
L 231.576432 165.086994 
L 233.195265 182.355801 
L 233.195265 182.355801 
" clip-path="url(#pd9d44374f9)" style="fill: none; stroke: #8172b2; stroke-linecap: round"/>
   </g>
   <g id="line2d_59">
    <path d="M 226.147949 182.355801 
L 228.526696 158.963735 
L 230.356537 142.842396 
L 232.186379 128.344267 
L 234.01622 115.469348 
L 235.846062 104.217638 
L 237.675903 94.589138 
L 238.895798 89.071922 
L 240.115692 84.276131 
L 241.335586 80.201767 
L 242.555481 76.84883 
L 243.775375 74.21732 
L 244.995269 72.307235 
L 245.605216 71.622728 
L 246.215164 71.118578 
L 246.825111 70.794784 
L 247.435058 70.651347 
L 248.045005 70.688266 
L 248.654952 70.905542 
L 249.264899 71.303174 
L 249.874847 71.881164 
L 250.484794 72.63951 
L 251.704688 74.697271 
L 252.924582 77.476459 
L 254.144477 80.977074 
L 255.364371 85.199115 
L 256.584265 90.142583 
L 257.80416 95.807477 
L 259.634001 105.657494 
L 261.463843 117.130719 
L 263.293684 130.227155 
L 265.123526 144.9468 
L 266.953367 161.289655 
L 269.081014 182.355801 
L 269.081014 182.355801 
" clip-path="url(#pd9d44374f9)" style="fill: none; stroke: #ccb974; stroke-linecap: round"/>
   </g>
   <g id="line2d_60">
    <path d="M 261.020421 182.355801 
L 263.293684 161.772002 
L 265.123526 146.975763 
L 266.953367 133.748045 
L 268.783209 122.088848 
L 270.61305 111.998173 
L 272.442892 103.47602 
L 273.662786 98.665985 
L 274.882681 94.553071 
L 276.102575 91.137278 
L 277.322469 88.418605 
L 278.542364 86.397054 
L 279.762258 85.072622 
L 280.372205 84.671827 
L 280.982152 84.445312 
L 281.592099 84.393077 
L 282.202047 84.515122 
L 282.811994 84.811448 
L 283.421941 85.282053 
L 284.031888 85.926939 
L 285.251782 87.739551 
L 286.471677 90.249284 
L 287.691571 93.456137 
L 288.911465 97.360111 
L 290.13136 101.961206 
L 291.351254 107.259422 
L 293.181096 116.513846 
L 295.010937 127.336792 
L 296.840779 139.72826 
L 298.67062 153.688249 
L 300.500462 169.21676 
L 301.919262 182.355801 
L 301.919262 182.355801 
" clip-path="url(#pd9d44374f9)" style="fill: none; stroke: #64b5cd; stroke-linecap: round"/>
   </g>
   <g id="line2d_61">
    <path d="M 300.643979 182.355801 
L 302.330303 167.014123 
L 304.160145 152.458641 
L 305.989986 140.056108 
L 307.20988 132.983836 
L 308.429775 126.86843 
L 309.649669 121.709891 
L 310.869563 117.508218 
L 312.089458 114.263411 
L 313.309352 111.975471 
L 313.919299 111.190326 
L 314.529246 110.644397 
L 315.139194 110.337685 
L 315.749141 110.270189 
L 316.359088 110.44191 
L 316.969035 110.852848 
L 317.578982 111.503002 
L 318.188929 112.392373 
L 318.798877 113.520961 
L 320.018771 116.495786 
L 321.238665 120.427477 
L 322.45856 125.316034 
L 323.678454 131.161458 
L 324.898348 137.963748 
L 326.118243 145.722905 
L 327.948084 159.155764 
L 329.777926 174.741573 
L 330.588048 182.355801 
L 330.588048 182.355801 
" clip-path="url(#pd9d44374f9)" style="fill: none; stroke: #4c72b0; stroke-linecap: round"/>
   </g>
   <g id="line2d_62">
    <path d="M 316.782089 182.355801 
L 319.408824 175.389883 
L 321.848612 169.444601 
L 324.288401 164.001833 
L 326.72819 159.061579 
L 329.167978 154.623839 
L 331.607767 150.688613 
L 334.047556 147.255901 
L 335.877397 145.011142 
L 337.707239 143.049047 
L 339.53708 141.369616 
L 341.366922 139.97285 
L 343.196763 138.858747 
L 345.026605 138.027309 
L 346.856446 137.478535 
L 348.686288 137.212425 
L 350.516129 137.22898 
L 352.345971 137.528198 
L 354.175812 138.110081 
L 356.005654 138.974628 
L 357.835495 140.121839 
L 359.665337 141.551714 
L 361.495178 143.264253 
L 363.32502 145.259457 
L 365.154861 147.537324 
L 366.984703 150.097856 
L 369.424491 153.951599 
L 371.86428 158.307855 
L 371.86428 158.307855 
" clip-path="url(#pd9d44374f9)" style="fill: none; stroke: #55a868; stroke-linecap: round"/>
   </g>
   <g id="patch_3">
    <path d="M 52.282462 143.788862 
L 52.282462 5.188862 
" style="fill: none"/>
   </g>
   <g id="patch_4">
    <path d="M 387.082462 143.788862 
L 387.082462 5.188862 
" style="fill: none"/>
   </g>
   <g id="patch_5">
    <path d="M 52.282462 143.788862 
L 387.082462 143.788862 
" style="fill: none"/>
   </g>
   <g id="patch_6">
    <path d="M 52.282462 5.188862 
L 387.082462 5.188862 
" style="fill: none"/>
   </g>
   <g id="text_14">
    <!-- 0 -->
    <g transform="translate(86.255993 51.524593) scale(0.1 -0.1)">
     <use xlink:href="#CMR17-30" transform="scale(0.996264)"/>
    </g>
   </g>
   <g id="text_15">
    <!-- 1 -->
    <g transform="translate(131.280806 44.360844) scale(0.1 -0.1)">
     <use xlink:href="#CMR17-31" transform="scale(0.996264)"/>
    </g>
   </g>
   <g id="text_16">
    <!-- 2 -->
    <g transform="translate(172.387733 46.329041) scale(0.1 -0.1)">
     <use xlink:href="#CMR17-32" transform="scale(0.996264)"/>
    </g>
   </g>
   <g id="text_17">
    <!-- 3 -->
    <g transform="translate(210.492842 52.842728) scale(0.1 -0.1)">
     <defs>
      <path id="CMR17-33" d="M 1414 2157 
C 1984 2157 2234 1662 2234 1090 
C 2234 320 1824 25 1453 25 
C 1114 25 563 194 390 693 
C 422 680 454 680 486 680 
C 640 680 755 782 755 948 
C 755 1133 614 1216 486 1216 
C 378 1216 211 1165 211 926 
C 211 335 787 -128 1466 -128 
C 2176 -128 2720 430 2720 1085 
C 2720 1707 2208 2157 1600 2227 
C 2086 2328 2554 2756 2554 3329 
C 2554 3820 2048 4179 1472 4179 
C 890 4179 378 3829 378 3329 
C 378 3110 544 3072 627 3072 
C 762 3072 877 3155 877 3321 
C 877 3486 762 3569 627 3569 
C 602 3569 570 3569 544 3557 
C 730 3959 1235 4032 1459 4032 
C 1683 4032 2106 3925 2106 3320 
C 2106 3143 2080 2828 1862 2550 
C 1670 2304 1453 2304 1242 2284 
C 1210 2284 1062 2269 1037 2269 
C 992 2263 966 2257 966 2208 
C 966 2163 973 2157 1101 2157 
L 1414 2157 
z
" transform="scale(0.015625)"/>
     </defs>
     <use xlink:href="#CMR17-33" transform="scale(0.996264)"/>
    </g>
   </g>
   <g id="text_18">
    <!-- 4 -->
    <g transform="translate(247.615174 62.012987) scale(0.1 -0.1)">
     <use xlink:href="#CMR17-34" transform="scale(0.996264)"/>
    </g>
   </g>
   <g id="text_19">
    <!-- 5 -->
    <g transform="translate(281.469938 68.208562) scale(0.1 -0.1)">
     <defs>
      <path id="CMR17-35" d="M 730 3692 
C 794 3666 1056 3584 1325 3584 
C 1920 3584 2246 3911 2432 4100 
C 2432 4157 2432 4192 2394 4192 
C 2387 4192 2374 4192 2323 4163 
C 2099 4058 1837 3973 1517 3973 
C 1325 3973 1037 3999 723 4139 
C 653 4171 640 4171 634 4171 
C 602 4171 595 4164 595 4037 
L 595 2203 
C 595 2089 595 2057 659 2057 
C 691 2057 704 2070 736 2114 
C 941 2401 1222 2522 1542 2522 
C 1766 2522 2246 2382 2246 1289 
C 2246 1085 2246 715 2054 421 
C 1894 159 1645 25 1370 25 
C 947 25 518 320 403 814 
C 429 807 480 795 506 795 
C 589 795 749 840 749 1038 
C 749 1210 627 1280 506 1280 
C 358 1280 262 1190 262 1011 
C 262 454 704 -128 1382 -128 
C 2042 -128 2669 440 2669 1264 
C 2669 2030 2170 2624 1549 2624 
C 1222 2624 947 2503 730 2274 
L 730 3692 
z
" transform="scale(0.015625)"/>
     </defs>
     <use xlink:href="#CMR17-35" transform="scale(0.996264)"/>
    </g>
   </g>
   <g id="text_20">
    <!-- 6 -->
    <g transform="translate(315.616265 73.153528) scale(0.1 -0.1)">
     <use xlink:href="#CMR17-36" transform="scale(0.996264)"/>
    </g>
   </g>
   <g id="text_21">
    <!-- 7+ -->
    <g transform="translate(349.494043 73.991218) scale(0.1 -0.1)">
     <defs>
      <path id="CMR17-37" d="M 2886 3941 
L 2886 4081 
L 1382 4081 
C 634 4081 621 4165 595 4288 
L 480 4288 
L 294 3094 
L 410 3094 
C 429 3215 474 3540 550 3661 
C 589 3712 1062 3712 1171 3712 
L 2579 3712 
L 1869 2661 
C 1395 1954 1069 999 1069 165 
C 1069 89 1069 -128 1299 -128 
C 1530 -128 1530 89 1530 171 
L 1530 465 
C 1530 1508 1709 2196 2003 2636 
L 2886 3941 
z
" transform="scale(0.015625)"/>
      <path id="CMR17-2b" d="M 2413 1472 
L 4109 1472 
C 4198 1472 4307 1472 4307 1580 
C 4307 1695 4205 1695 4109 1695 
L 2413 1695 
L 2413 3386 
C 2413 3475 2413 3584 2304 3584 
C 2189 3584 2189 3482 2189 3386 
L 2189 1695 
L 493 1695 
C 403 1695 294 1695 294 1587 
C 294 1472 397 1472 493 1472 
L 2189 1472 
L 2189 -218 
C 2189 -307 2189 -416 2298 -416 
C 2413 -416 2413 -314 2413 -218 
L 2413 1472 
z
" transform="scale(0.015625)"/>
     </defs>
     <use xlink:href="#CMR17-37" transform="scale(0.996264)"/>
     <use xlink:href="#CMR17-2b" transform="translate(45.690477 0) scale(0.996264)"/>
    </g>
   </g>
   <g id="text_22">
    <!-- PCA -->
    <g style="fill: #262626" transform="translate(323.631568 20.93394) scale(0.15 -0.15)">
     <defs>
      <path id="CMR17-50" d="M 1267 2042 
L 2291 2042 
C 3117 2042 3718 2578 3718 3184 
C 3718 3791 3130 4352 2291 4352 
L 333 4352 
L 333 4186 
C 774 4186 845 4186 845 3899 
L 845 446 
C 845 160 774 160 333 160 
L 333 0 
C 518 0 858 0 1056 0 
C 1254 0 1594 0 1779 0 
L 1779 160 
C 1338 160 1267 160 1267 446 
L 1267 2042 
z
M 1254 2176 
L 1254 3938 
C 1254 4155 1267 4186 1523 4186 
L 2170 4186 
C 2995 4186 3232 3714 3232 3184 
C 3232 2604 2950 2176 2170 2176 
L 1254 2176 
z
" transform="scale(0.015625)"/>
      <path id="CMR17-43" d="M 3974 4289 
C 3974 4403 3968 4410 3930 4410 
C 3904 4410 3898 4403 3853 4327 
L 3571 3792 
C 3258 4187 2874 4416 2381 4416 
C 1286 4416 294 3456 294 2148 
C 294 826 1286 -128 2387 -128 
C 3366 -128 3974 730 3974 1461 
C 3974 1524 3974 1550 3917 1550 
C 3866 1550 3866 1531 3859 1474 
C 3808 585 3168 38 2477 38 
C 1824 38 781 495 781 2147 
C 781 3805 1843 4250 2464 4250 
C 3187 4250 3712 3628 3834 2745 
C 3846 2668 3846 2655 3904 2655 
C 3974 2655 3974 2668 3974 2783 
L 3974 4289 
z
" transform="scale(0.015625)"/>
      <path id="CMR17-41" d="M 2323 4378 
C 2291 4461 2278 4480 2214 4480 
C 2150 4480 2138 4461 2106 4378 
L 749 566 
C 627 223 371 153 147 153 
L 147 -13 
C 262 0 518 0 640 0 
C 800 0 1056 0 1210 -13 
L 1210 153 
C 909 153 864 361 864 439 
C 864 497 877 530 890 569 
L 1229 1536 
L 2906 1536 
L 3290 442 
C 3322 365 3322 352 3322 327 
C 3322 153 3046 153 2925 153 
L 2925 0 
C 3110 0 3443 0 3642 0 
C 3808 0 4128 0 4282 -13 
L 4282 153 
C 3942 153 3827 153 3744 387 
L 2323 4378 
z
M 2067 3893 
L 2848 1702 
L 1286 1702 
L 2067 3893 
z
" transform="scale(0.015625)"/>
     </defs>
     <use xlink:href="#CMR17-50" transform="scale(0.996264)"/>
     <use xlink:href="#CMR17-43" transform="translate(62.586301 0) scale(0.996264)"/>
     <use xlink:href="#CMR17-41" transform="translate(129.096181 0) scale(0.996264)"/>
    </g>
   </g>
  </g>
 </g>
 <defs>
  <clipPath id="pd9d44374f9">
   <rect x="52.282462" y="5.188862" width="334.8" height="138.6"/>
  </clipPath>
 </defs>
</svg>
