<?xml version="1.0" encoding="utf-8" standalone="no"?>
<!DOCTYPE svg PUBLIC "-//W3C//DTD SVG 1.1//EN"
  "http://www.w3.org/Graphics/SVG/1.1/DTD/svg11.dtd">
<svg xmlns:xlink="http://www.w3.org/1999/xlink" width="432pt" height="180pt" viewBox="0 0 432 180" xmlns="http://www.w3.org/2000/svg" version="1.1">
 <metadata>
  <rdf:RDF xmlns:dc="http://purl.org/dc/elements/1.1/" xmlns:cc="http://creativecommons.org/ns#" xmlns:rdf="http://www.w3.org/1999/02/22-rdf-syntax-ns#">
   <cc:Work>
    <dc:type rdf:resource="http://purl.org/dc/dcmitype/StillImage"/>
    <dc:date>2024-11-11T11:30:36.862330</dc:date>
    <dc:format>image/svg+xml</dc:format>
    <dc:creator>
     <cc:Agent>
      <dc:title>Matplotlib v3.9.2, https://matplotlib.org/</dc:title>
     </cc:Agent>
    </dc:creator>
   </cc:Work>
  </rdf:RDF>
 </metadata>
 <defs>
  <style type="text/css">*{stroke-linejoin: round; stroke-linecap: butt}</style>
 </defs>
 <g id="figure_1">
  <g id="patch_1">
   <path d="M 0 180 
L 432 180 
L 432 0 
L 0 0 
z
" style="fill: #ffffff"/>
  </g>
  <g id="axes_1">
   <g id="patch_2">
    <path d="M 54 160.2 
L 388.8 160.2 
L 388.8 21.6 
L 54 21.6 
z
" style="fill: #eaeaf2"/>
   </g>
   <g id="matplotlib.axis_1">
    <g id="text_1">
     <!-- Time (a.u.) -->
     <g style="fill: #262626" transform="translate(184.818811 175.40797) scale(0.15 -0.15)">
      <defs>
       <path id="CMR17-54" d="M 3981 4326 
L 288 4326 
L 179 2918 
L 294 2918 
C 378 3976 467 4160 1453 4160 
C 1568 4160 1754 4160 1805 4154 
C 1926 4135 1926 4058 1926 3912 
L 1926 459 
C 1926 230 1907 160 1376 160 
L 1197 160 
L 1197 0 
C 1504 0 1824 0 2138 0 
C 2451 0 2771 0 3078 0 
L 3078 160 
L 2899 160 
C 2368 160 2349 230 2349 459 
L 2349 3912 
C 2349 4052 2349 4129 2464 4154 
C 2515 4160 2701 4160 2816 4160 
C 3795 4160 3891 3976 3974 2918 
L 4090 2918 
L 3981 4326 
z
" transform="scale(0.015625)"/>
       <path id="CMR17-69" d="M 992 3909 
C 992 4049 877 4170 730 4170 
C 589 4170 467 4056 467 3909 
C 467 3769 582 3648 730 3648 
C 870 3648 992 3763 992 3909 
z
M 243 2706 
L 243 2541 
C 602 2541 653 2502 653 2197 
L 653 427 
C 653 184 627 153 218 153 
L 218 -13 
C 371 0 646 0 806 0 
C 960 0 1222 0 1370 -13 
L 1370 153 
C 992 153 979 191 979 420 
L 979 2776 
L 243 2706 
z
" transform="scale(0.015625)"/>
       <path id="CMR17-6d" d="M 4326 1933 
C 4326 2252 4269 2790 3507 2790 
C 3072 2790 2771 2496 2656 2151 
L 2650 2151 
C 2573 2676 2195 2790 1837 2790 
C 1331 2790 1069 2400 973 2144 
L 966 2144 
L 966 2790 
L 211 2720 
L 211 2554 
C 589 2554 646 2515 646 2208 
L 646 428 
C 646 184 621 153 211 153 
L 211 -13 
C 365 0 646 0 813 0 
C 979 0 1267 0 1421 -13 
L 1421 153 
C 1011 153 986 178 986 428 
L 986 1658 
C 986 2247 1344 2688 1792 2688 
C 2266 2688 2317 2266 2317 1958 
L 2317 428 
C 2317 184 2291 153 1882 153 
L 1882 -13 
C 2035 0 2317 0 2483 0 
C 2650 0 2938 0 3091 -13 
L 3091 153 
C 2682 153 2656 178 2656 428 
L 2656 1658 
C 2656 2247 3014 2688 3462 2688 
C 3936 2688 3987 2266 3987 1958 
L 3987 428 
C 3987 184 3962 153 3552 153 
L 3552 -13 
C 3706 0 3987 0 4154 0 
C 4320 0 4608 0 4762 -13 
L 4762 153 
C 4352 153 4326 178 4326 428 
L 4326 1933 
z
" transform="scale(0.015625)"/>
       <path id="CMR17-65" d="M 2438 1472 
C 2464 1498 2464 1511 2464 1576 
C 2464 2238 2118 2816 1389 2816 
C 710 2816 173 2169 173 1383 
C 173 551 781 -64 1459 -64 
C 2176 -64 2458 607 2458 740 
C 2458 784 2419 784 2406 784 
C 2362 784 2355 771 2330 696 
C 2189 265 1837 51 1504 51 
C 1229 51 954 203 781 480 
C 582 803 582 1176 582 1472 
L 2438 1472 
z
M 589 1568 
C 634 2505 1126 2714 1382 2714 
C 1818 2714 2112 2297 2118 1568 
L 589 1568 
z
" transform="scale(0.015625)"/>
       <path id="CMR17-28" d="M 1958 -1561 
C 1958 -1555 1958 -1542 1939 -1523 
C 1645 -1224 858 -407 858 1581 
C 858 3569 1632 4379 1946 4697 
C 1946 4704 1958 4717 1958 4736 
C 1958 4755 1939 4768 1914 4768 
C 1843 4768 1299 4296 986 3594 
C 666 2887 576 2199 576 1588 
C 576 1128 621 351 1005 -471 
C 1312 -1135 1837 -1600 1914 -1600 
C 1946 -1600 1958 -1587 1958 -1561 
z
" transform="scale(0.015625)"/>
       <path id="CMR17-61" d="M 2304 1653 
C 2304 2072 2304 2294 2035 2543 
C 1798 2752 1523 2816 1306 2816 
C 800 2816 435 2407 435 1971 
C 435 1728 627 1728 666 1728 
C 749 1728 896 1778 896 1954 
C 896 2112 774 2181 666 2181 
C 640 2181 608 2174 589 2168 
C 723 2592 1069 2714 1293 2714 
C 1613 2714 1965 2429 1965 1885 
L 1965 1600 
C 1587 1600 1133 1549 774 1357 
C 371 1133 256 813 256 570 
C 256 77 832 -64 1171 -64 
C 1523 -64 1850 139 1990 511 
C 2003 233 2182 -18 2464 -18 
C 2598 -18 2938 70 2938 567 
L 2938 920 
L 2822 920 
L 2822 562 
C 2822 178 2650 128 2566 128 
C 2304 128 2304 458 2304 738 
L 2304 1653 
z
M 1965 870 
C 1965 317 1568 38 1216 38 
C 896 38 646 275 646 570 
C 646 761 730 1100 1101 1305 
C 1408 1478 1760 1504 1965 1504 
L 1965 870 
z
" transform="scale(0.015625)"/>
       <path id="CMR17-2e" d="M 1062 261 
C 1062 420 934 522 800 522 
C 672 522 538 420 538 261 
C 538 102 666 0 800 0 
C 928 0 1062 102 1062 261 
z
" transform="scale(0.015625)"/>
       <path id="CMR17-75" d="M 1882 2693 
L 1882 2528 
C 2259 2528 2317 2489 2317 2186 
L 2317 1032 
C 2317 500 2029 38 1555 38 
C 1030 38 986 348 986 678 
L 986 2763 
L 211 2693 
L 211 2528 
C 467 2528 640 2528 646 2274 
L 646 1058 
C 646 633 646 361 813 183 
C 896 101 1056 -64 1517 -64 
C 2061 -64 2272 377 2323 506 
L 2330 506 
L 2330 -63 
L 3091 -63 
L 3091 128 
C 2714 128 2656 166 2656 473 
L 2656 2763 
L 1882 2693 
z
" transform="scale(0.015625)"/>
       <path id="CMR17-29" d="M 1683 1581 
C 1683 2040 1638 2817 1254 3639 
C 947 4303 422 4768 346 4768 
C 326 4768 301 4761 301 4729 
C 301 4717 307 4710 314 4697 
C 621 4378 1402 3568 1402 1584 
C 1402 -407 627 -1217 314 -1537 
C 307 -1549 301 -1556 301 -1568 
C 301 -1600 326 -1600 346 -1600 
C 416 -1600 960 -1128 1274 -426 
C 1594 281 1683 969 1683 1581 
z
" transform="scale(0.015625)"/>
      </defs>
      <use xlink:href="#CMR17-54" transform="scale(0.996264)"/>
      <use xlink:href="#CMR17-69" transform="translate(66.509881 0) scale(0.996264)"/>
      <use xlink:href="#CMR17-6d" transform="translate(91.380939 0) scale(0.996264)"/>
      <use xlink:href="#CMR17-65" transform="translate(168.300529 0) scale(0.996264)"/>
      <use xlink:href="#CMR17-28" transform="translate(238.862156 0) scale(0.996264)"/>
      <use xlink:href="#CMR17-61" transform="translate(274.142924 0) scale(0.996264)"/>
      <use xlink:href="#CMR17-2e" transform="translate(319.833401 0) scale(0.996264)"/>
      <use xlink:href="#CMR17-75" transform="translate(344.704459 0) scale(0.996264)"/>
      <use xlink:href="#CMR17-2e" transform="translate(395.599829 0) scale(0.996264)"/>
      <use xlink:href="#CMR17-29" transform="translate(420.470887 0) scale(0.996264)"/>
     </g>
    </g>
   </g>
   <g id="matplotlib.axis_2">
    <g id="text_2">
     <!-- Voltage (a.u.) -->
     <g style="fill: #262626" transform="translate(46.26401 134.794835) rotate(-90) scale(0.15 -0.15)">
      <defs>
       <path id="CMR17-56" d="M 3776 3745 
C 3834 3886 3936 4160 4365 4160 
L 4365 4332 
C 4218 4319 4051 4319 3891 4319 
C 3738 4319 3475 4319 3328 4332 
L 3328 4160 
C 3648 4160 3661 3936 3661 3898 
C 3661 3827 3642 3783 3622 3732 
L 2362 446 
L 1043 3886 
C 1024 3931 1011 3963 1011 3994 
C 1011 4160 1267 4160 1402 4160 
L 1402 4319 
C 1197 4319 896 4319 685 4319 
C 518 4319 218 4319 64 4332 
L 64 4160 
C 435 4160 506 4135 582 3931 
L 2106 -26 
C 2138 -115 2144 -128 2214 -128 
C 2285 -128 2291 -115 2323 -26 
L 3776 3745 
z
" transform="scale(0.015625)"/>
       <path id="CMR17-6f" d="M 2758 1356 
C 2758 2176 2163 2816 1466 2816 
C 768 2816 173 2176 173 1356 
C 173 551 768 -64 1466 -64 
C 2163 -64 2758 551 2758 1356 
z
M 1466 51 
C 1165 51 909 230 762 480 
C 602 767 582 1126 582 1408 
C 582 1677 595 2010 762 2298 
C 890 2509 1139 2714 1466 2714 
C 1754 2714 1997 2554 2150 2330 
C 2349 2029 2349 1607 2349 1408 
C 2349 1158 2336 775 2163 467 
C 1984 173 1709 51 1466 51 
z
" transform="scale(0.015625)"/>
       <path id="CMR17-6c" d="M 979 4396 
L 218 4326 
L 218 4160 
C 595 4160 653 4122 653 3817 
L 653 426 
C 653 184 627 153 218 153 
L 218 -13 
C 371 0 653 0 813 0 
C 979 0 1261 0 1414 -13 
L 1414 153 
C 1005 153 979 178 979 426 
L 979 4396 
z
" transform="scale(0.015625)"/>
       <path id="CMR17-74" d="M 966 2560 
L 1862 2560 
L 1862 2725 
L 966 2725 
L 966 3904 
L 851 3904 
C 838 3245 614 2668 70 2668 
L 70 2560 
L 627 2560 
L 627 771 
C 627 650 627 -64 1370 -64 
C 1747 -64 1965 306 1965 777 
L 1965 1140 
L 1850 1140 
L 1850 783 
C 1850 344 1677 51 1408 51 
C 1222 51 966 178 966 758 
L 966 2560 
z
" transform="scale(0.015625)"/>
       <path id="CMR17-67" d="M 710 1164 
C 832 1068 1043 960 1299 960 
C 1805 960 2240 1357 2240 1888 
C 2240 2054 2189 2310 1997 2509 
C 2176 2692 2438 2752 2586 2752 
C 2611 2752 2650 2752 2682 2734 
C 2656 2728 2598 2703 2598 2605 
C 2598 2527 2656 2471 2739 2471 
C 2835 2471 2886 2533 2886 2614 
C 2886 2731 2790 2854 2586 2854 
C 2330 2854 2106 2738 1926 2580 
C 1734 2753 1504 2816 1299 2816 
C 794 2816 358 2419 358 1888 
C 358 1522 570 1292 634 1228 
C 442 1004 442 743 442 711 
C 442 545 506 302 723 168 
C 390 85 128 -169 128 -486 
C 128 -943 736 -1280 1466 -1280 
C 2170 -1280 2803 -956 2803 -479 
C 2803 384 1856 384 1363 384 
C 1216 384 954 384 922 391 
C 723 423 589 602 589 826 
C 589 883 589 1024 710 1164 
z
M 1299 1068 
C 736 1068 736 1760 736 1889 
C 736 2016 736 2708 1299 2708 
C 1862 2708 1862 2016 1862 1889 
C 1862 1760 1862 1068 1299 1068 
z
M 1466 -1171 
C 826 -1171 384 -835 384 -486 
C 384 -289 493 -105 634 -4 
C 794 104 858 104 1293 104 
C 1818 104 2547 104 2547 -486 
C 2547 -835 2106 -1171 1466 -1171 
z
" transform="scale(0.015625)"/>
      </defs>
      <use xlink:href="#CMR17-56" transform="scale(0.996264)"/>
      <use xlink:href="#CMR17-6f" transform="translate(61.265174 0) scale(0.996264)"/>
      <use xlink:href="#CMR17-6c" transform="translate(106.955652 0) scale(0.996264)"/>
      <use xlink:href="#CMR17-74" transform="translate(131.82671 0) scale(0.996264)"/>
      <use xlink:href="#CMR17-61" transform="translate(167.107478 0) scale(0.996264)"/>
      <use xlink:href="#CMR17-67" transform="translate(212.797955 0) scale(0.996264)"/>
      <use xlink:href="#CMR17-65" transform="translate(258.488432 0) scale(0.996264)"/>
      <use xlink:href="#CMR17-28" transform="translate(329.050059 0) scale(0.996264)"/>
      <use xlink:href="#CMR17-61" transform="translate(364.330827 0) scale(0.996264)"/>
      <use xlink:href="#CMR17-2e" transform="translate(410.021304 0) scale(0.996264)"/>
      <use xlink:href="#CMR17-75" transform="translate(434.892362 0) scale(0.996264)"/>
      <use xlink:href="#CMR17-2e" transform="translate(485.787732 0) scale(0.996264)"/>
      <use xlink:href="#CMR17-29" transform="translate(510.658791 0) scale(0.996264)"/>
     </g>
    </g>
   </g>
   <g id="line2d_1">
    <path d="M 69.218182 130.749995 
L 72.277113 129.527054 
L 73.806578 129.107404 
L 75.336044 128.853118 
L 76.865509 128.769213 
L 79.92444 129.012982 
L 82.983371 129.391443 
L 84.512837 129.396669 
L 86.042302 129.127762 
L 87.571768 128.468597 
L 89.101233 127.311999 
L 90.630699 125.568711 
L 92.160164 123.175225 
L 93.68963 120.099773 
L 95.219095 116.345891 
L 96.748561 111.953228 
L 98.278026 106.995534 
L 101.336958 95.820469 
L 107.45482 72.258758 
L 108.984285 66.889523 
L 110.513751 61.928835 
L 112.043216 57.431265 
L 113.572682 53.422464 
L 115.102147 49.900749 
L 116.631613 46.840689 
L 118.161078 44.198267 
L 119.690544 41.917068 
L 121.220009 39.9349 
L 122.749475 38.19024 
L 125.808406 35.203762 
L 128.867337 32.663659 
L 131.926268 30.506763 
L 133.455733 29.609555 
L 134.985199 28.870191 
L 136.514664 28.320124 
L 138.04413 27.988805 
L 139.573595 27.9 
L 141.103061 28.068854 
L 142.632526 28.499895 
L 144.161992 29.186089 
L 145.691457 30.108961 
L 147.220923 31.239691 
L 150.279854 33.970045 
L 157.927181 41.507092 
L 160.986112 44.126574 
L 164.045043 46.440004 
L 170.162905 50.925446 
L 173.221836 53.617623 
L 176.280767 56.848706 
L 179.339698 60.60777 
L 190.045957 74.683323 
L 193.104888 78.000607 
L 196.163819 80.916013 
L 205.340612 89.185891 
L 208.399543 92.325386 
L 217.576336 102.059817 
L 220.635267 104.722572 
L 223.694198 106.876684 
L 226.753129 108.580301 
L 235.929922 112.974615 
L 238.988853 114.82118 
L 243.57725 118.017374 
L 248.165646 121.187172 
L 251.224577 122.923942 
L 252.754043 123.619919 
L 254.283508 124.190461 
L 257.342439 124.972175 
L 260.40137 125.376512 
L 268.048698 126.087374 
L 271.107629 126.773359 
L 274.16656 127.829824 
L 277.225491 129.194853 
L 283.343353 132.151375 
L 286.402284 133.329069 
L 289.461215 134.112396 
L 292.520146 134.481082 
L 295.579077 134.517789 
L 306.285336 134.149455 
L 309.344267 134.319113 
L 313.932663 134.804977 
L 321.579991 135.684122 
L 333.815715 136.822113 
L 336.874646 137.404652 
L 339.933577 138.220026 
L 342.992508 139.251525 
L 352.169301 142.616062 
L 355.228232 143.32982 
L 356.757698 143.534719 
L 358.287163 143.626565 
L 359.816629 143.602482 
L 362.87556 143.219335 
L 365.934491 142.454343 
L 368.993422 141.42997 
L 373.581818 139.727958 
L 373.581818 139.727958 
" clip-path="url(#pd35ea551b5)" style="fill: none; stroke: #4c72b0; stroke-linecap: round"/>
   </g>
   <g id="line2d_2">
    <path d="M 69.218182 139.877197 
L 72.277113 140.995068 
L 78.394975 144.054627 
L 79.92444 144.422142 
L 81.453906 144.391359 
L 82.983371 143.867065 
L 84.512837 142.786002 
L 86.042302 141.125023 
L 87.571768 138.905797 
L 89.101233 136.195491 
L 92.160164 129.77286 
L 95.219095 123.078842 
L 96.748561 120.069312 
L 98.278026 117.502156 
L 99.807492 115.507543 
L 101.336958 114.177542 
L 102.866423 113.560153 
L 104.395889 113.657185 
L 105.925354 114.425978 
L 107.45482 115.784672 
L 108.984285 117.620397 
L 110.513751 119.799561 
L 116.631613 129.189 
L 118.161078 131.136152 
L 119.690544 132.786788 
L 121.220009 134.128135 
L 122.749475 135.17781 
L 124.27894 135.979011 
L 127.337871 137.094946 
L 130.396802 138.052965 
L 131.926268 138.637897 
L 133.455733 139.353775 
L 134.985199 140.221626 
L 138.04413 142.394895 
L 145.691457 148.579212 
L 147.220923 149.525455 
L 148.750388 150.27109 
L 150.279854 150.794682 
L 151.809319 151.090454 
L 153.338785 151.168657 
L 154.86825 151.054739 
L 157.927181 150.415345 
L 162.515578 149.228778 
L 164.045043 148.987072 
L 165.574509 148.891548 
L 167.103974 148.964571 
L 168.63344 149.212466 
L 170.162905 149.624889 
L 173.221836 150.824948 
L 177.810233 152.842866 
L 179.339698 153.358325 
L 180.869164 153.719666 
L 182.39863 153.9 
L 183.928095 153.889054 
L 185.457561 153.69411 
L 186.987026 153.339117 
L 190.045957 152.310861 
L 193.104888 151.197121 
L 196.163819 150.384875 
L 197.693285 150.173937 
L 199.22275 150.109167 
L 200.752216 150.183484 
L 203.811147 150.652886 
L 208.399543 151.567634 
L 209.929009 151.754596 
L 211.458474 151.822513 
L 212.98794 151.75024 
L 214.517405 151.529746 
L 216.046871 151.166854 
L 219.105802 150.102094 
L 223.694198 148.227666 
L 226.753129 147.295174 
L 228.282595 147.024883 
L 229.81206 146.905077 
L 231.341526 146.933743 
L 234.400457 147.362772 
L 240.518319 148.688977 
L 242.047784 148.874436 
L 243.57725 148.934594 
L 245.106715 148.853302 
L 246.636181 148.627021 
L 248.165646 148.2648 
L 251.224577 147.223874 
L 257.342439 144.877514 
L 258.871905 144.456047 
L 260.40137 144.159491 
L 261.930836 144.003078 
L 263.460302 143.991984 
L 264.989767 144.121135 
L 268.048698 144.732211 
L 275.696026 146.857778 
L 277.225491 147.103279 
L 278.754957 147.224393 
L 280.284422 147.20945 
L 281.813888 147.057321 
L 284.872819 146.389439 
L 289.461215 144.8741 
L 292.520146 143.912971 
L 295.579077 143.255652 
L 298.638008 142.999991 
L 301.696939 143.110849 
L 306.285336 143.664629 
L 310.873732 144.204398 
L 313.932663 144.375835 
L 316.991594 144.370784 
L 327.697853 144.037196 
L 330.756784 144.236262 
L 333.815715 144.639166 
L 344.521974 146.367713 
L 347.580905 146.382247 
L 350.639836 145.996996 
L 353.698767 145.229599 
L 356.757698 144.187068 
L 362.87556 141.978581 
L 365.934491 141.164586 
L 368.993422 140.697009 
L 372.052353 140.599283 
L 373.581818 140.638688 
L 373.581818 140.638688 
" clip-path="url(#pd35ea551b5)" style="fill: none; stroke: #55a868; stroke-linecap: round"/>
   </g>
   <g id="patch_3">
    <path d="M 54 160.2 
L 54 21.6 
" style="fill: none"/>
   </g>
   <g id="patch_4">
    <path d="M 388.8 160.2 
L 388.8 21.6 
" style="fill: none"/>
   </g>
   <g id="patch_5">
    <path d="M 54 160.2 
L 388.8 160.2 
" style="fill: none"/>
   </g>
   <g id="patch_6">
    <path d="M 54 21.6 
L 388.8 21.6 
" style="fill: none"/>
   </g>
   <g id="legend_1">
    <g id="line2d_3">
     <path d="M 229.252039 40.35 
L 244.252039 40.35 
L 259.252039 40.35 
" style="fill: none; stroke: #4c72b0; stroke-linecap: round"/>
    </g>
    <g id="text_3">
     <!-- Signal -->
     <g style="fill: #262626" transform="translate(271.252039 45.6) scale(0.15 -0.15)">
      <defs>
       <path id="CMR17-53" d="M 2803 4290 
C 2803 4404 2797 4411 2758 4411 
C 2720 4411 2707 4385 2682 4328 
L 2490 3907 
C 2246 4257 1875 4416 1472 4416 
C 819 4416 294 3901 294 3253 
C 294 3056 339 2776 557 2510 
C 794 2218 1018 2167 1530 2033 
C 1722 1982 2042 1899 2106 1874 
C 2470 1722 2662 1341 2662 985 
C 2662 527 2336 38 1779 38 
C 1094 38 454 419 410 1311 
C 403 1413 397 1419 352 1419 
C 301 1419 294 1413 294 1285 
L 294 -1 
C 294 -115 301 -122 339 -122 
C 384 -122 397 -90 486 108 
C 493 127 493 140 614 381 
C 934 -39 1472 -128 1779 -128 
C 2477 -128 2970 451 2970 1124 
C 2970 1454 2848 1708 2778 1823 
C 2509 2230 2221 2306 1914 2382 
C 1869 2402 1856 2402 1498 2490 
C 1152 2579 1005 2624 845 2796 
C 666 2992 602 3196 602 3399 
C 602 3812 934 4263 1478 4263 
C 2157 4263 2579 3786 2675 2993 
C 2694 2878 2701 2872 2746 2872 
C 2803 2872 2803 2891 2803 2999 
L 2803 4290 
z
" transform="scale(0.015625)"/>
       <path id="CMR17-6e" d="M 2656 1933 
C 2656 2259 2592 2790 1837 2790 
C 1331 2790 1069 2400 973 2144 
L 966 2144 
L 966 2790 
L 211 2720 
L 211 2554 
C 589 2554 646 2515 646 2208 
L 646 428 
C 646 184 621 153 211 153 
L 211 -13 
C 365 0 646 0 813 0 
C 979 0 1267 0 1421 -13 
L 1421 153 
C 1011 153 986 178 986 428 
L 986 1658 
C 986 2247 1344 2688 1792 2688 
C 2266 2688 2317 2266 2317 1958 
L 2317 428 
C 2317 184 2291 153 1882 153 
L 1882 -13 
C 2035 0 2317 0 2483 0 
C 2650 0 2938 0 3091 -13 
L 3091 153 
C 2682 153 2656 178 2656 428 
L 2656 1933 
z
" transform="scale(0.015625)"/>
      </defs>
      <use xlink:href="#CMR17-53" transform="scale(0.996264)"/>
      <use xlink:href="#CMR17-69" transform="translate(50.89537 0) scale(0.996264)"/>
      <use xlink:href="#CMR17-67" transform="translate(75.766428 0) scale(0.996264)"/>
      <use xlink:href="#CMR17-6e" transform="translate(121.456905 0) scale(0.996264)"/>
      <use xlink:href="#CMR17-61" transform="translate(172.352275 0) scale(0.996264)"/>
      <use xlink:href="#CMR17-6c" transform="translate(218.042752 0) scale(0.996264)"/>
     </g>
    </g>
    <g id="line2d_4">
     <path d="M 229.252039 61.255745 
L 244.252039 61.255745 
L 259.252039 61.255745 
" style="fill: none; stroke: #55a868; stroke-linecap: round"/>
    </g>
    <g id="text_4">
     <!-- Slope -->
     <g style="fill: #262626" transform="translate(271.252039 66.505745) scale(0.15 -0.15)">
      <defs>
       <path id="CMR17-70" d="M 1408 -1063 
C 998 -1063 973 -1037 973 -789 
L 973 402 
C 1158 134 1427 -38 1766 -38 
C 2406 -38 3053 523 3053 1388 
C 3053 2191 2496 2802 1837 2802 
C 1453 2802 1139 2592 960 2338 
L 960 2802 
L 198 2732 
L 198 2567 
C 576 2567 634 2528 634 2223 
L 634 -789 
C 634 -1031 608 -1063 198 -1063 
L 198 -1228 
C 352 -1216 634 -1216 800 -1216 
C 966 -1216 1254 -1216 1408 -1228 
L 1408 -1063 
z
M 973 2012 
C 973 2102 973 2235 1222 2471 
C 1254 2497 1472 2688 1792 2688 
C 2259 2688 2643 2108 2643 1382 
C 2643 656 2234 64 1728 64 
C 1498 64 1248 172 1056 472 
C 973 612 973 650 973 752 
L 973 2012 
z
" transform="scale(0.015625)"/>
      </defs>
      <use xlink:href="#CMR17-53" transform="scale(0.996264)"/>
      <use xlink:href="#CMR17-6c" transform="translate(50.89537 0) scale(0.996264)"/>
      <use xlink:href="#CMR17-6f" transform="translate(75.766428 0) scale(0.996264)"/>
      <use xlink:href="#CMR17-70" transform="translate(121.456905 0) scale(0.996264)"/>
      <use xlink:href="#CMR17-65" transform="translate(174.954714 0) scale(0.996264)"/>
     </g>
    </g>
    <g id="PathCollection_1">
     <defs>
      <path id="m03ef777fef" d="M -5 5 
L 5 -5 
M -5 -5 
L 5 5 
" style="stroke: #ff0000; stroke-width: 1.75"/>
     </defs>
     <g>
      <use xlink:href="#m03ef777fef" x="244.252039" y="83.473989" style="fill: #ff0000; stroke: #ff0000; stroke-width: 1.75"/>
     </g>
    </g>
    <g id="text_5">
     <!-- Maximum Slope -->
     <g style="fill: #262626" transform="translate(271.252039 87.411489) scale(0.15 -0.15)">
      <defs>
       <path id="CMR17-4d" d="M 1338 4224 
C 1299 4320 1293 4320 1158 4320 
L 339 4320 
L 339 4160 
C 781 4160 851 4160 851 3875 
L 851 610 
C 851 451 851 153 339 153 
L 339 -13 
C 486 0 755 0 915 0 
C 1075 0 1344 0 1491 -13 
L 1491 153 
C 979 153 979 451 979 610 
L 979 4135 
L 986 4135 
L 2490 89 
C 2515 25 2528 -13 2579 -13 
C 2630 -13 2643 25 2669 89 
L 4186 4166 
L 4192 4166 
L 4192 438 
C 4192 153 4122 153 3680 153 
L 3680 -13 
C 3853 0 4198 0 4384 0 
C 4570 0 4922 0 5094 -13 
L 5094 153 
C 4653 153 4582 153 4582 438 
L 4582 3875 
C 4582 4160 4653 4160 5094 4160 
L 5094 4320 
L 4282 4320 
C 4147 4320 4141 4314 4102 4218 
L 2720 502 
L 1338 4224 
z
" transform="scale(0.015625)"/>
       <path id="CMR17-78" d="M 1664 1477 
C 1856 1726 2074 2006 2253 2216 
C 2464 2458 2707 2560 2989 2560 
L 2989 2726 
C 2880 2726 2656 2726 2541 2726 
C 2368 2726 2170 2726 2022 2732 
L 2022 2566 
C 2112 2553 2163 2489 2163 2400 
C 2163 2285 2099 2215 2067 2171 
L 1594 1573 
L 1030 2306 
C 973 2376 973 2388 973 2420 
C 973 2497 1037 2560 1146 2560 
L 1146 2732 
C 992 2726 717 2726 557 2726 
C 384 2726 179 2726 38 2732 
L 38 2560 
C 384 2560 461 2534 614 2343 
L 1350 1395 
C 1363 1382 1395 1344 1395 1325 
C 1395 1299 838 619 768 530 
C 480 185 179 160 6 160 
L 6 0 
C 115 0 339 0 454 0 
C 582 0 864 0 979 -6 
L 979 160 
C 941 166 838 179 838 325 
C 838 440 890 510 947 586 
L 1478 1236 
L 2035 512 
C 2086 442 2163 346 2163 301 
C 2163 211 2086 160 1984 160 
L 1984 -6 
C 2138 0 2413 0 2573 0 
C 2746 0 2950 0 3091 -6 
L 3091 160 
C 2771 160 2675 172 2522 370 
L 1664 1477 
z
" transform="scale(0.015625)"/>
      </defs>
      <use xlink:href="#CMR17-4d" transform="scale(0.996264)"/>
      <use xlink:href="#CMR17-61" transform="translate(84.686941 0) scale(0.996264)"/>
      <use xlink:href="#CMR17-78" transform="translate(130.377418 0) scale(0.996264)"/>
      <use xlink:href="#CMR17-69" transform="translate(178.670334 0) scale(0.996264)"/>
      <use xlink:href="#CMR17-6d" transform="translate(203.541392 0) scale(0.996264)"/>
      <use xlink:href="#CMR17-75" transform="translate(277.858528 0) scale(0.996264)"/>
      <use xlink:href="#CMR17-6d" transform="translate(328.753898 0) scale(0.996264)"/>
      <use xlink:href="#CMR17-53" transform="translate(435.749454 0) scale(0.996264)"/>
      <use xlink:href="#CMR17-6c" transform="translate(486.644824 0) scale(0.996264)"/>
      <use xlink:href="#CMR17-6f" transform="translate(511.515882 0) scale(0.996264)"/>
      <use xlink:href="#CMR17-70" transform="translate(557.206359 0) scale(0.996264)"/>
      <use xlink:href="#CMR17-65" transform="translate(610.704168 0) scale(0.996264)"/>
     </g>
    </g>
   </g>
   <g id="PathCollection_2">
    <g clip-path="url(#pd35ea551b5)">
     <use xlink:href="#m03ef777fef" x="102.866423" y="89.868943" style="fill: #ff0000; stroke: #ff0000; stroke-width: 1.75"/>
    </g>
   </g>
  </g>
 </g>
 <defs>
  <clipPath id="pd35ea551b5">
   <rect x="54" y="21.6" width="334.8" height="138.6"/>
  </clipPath>
 </defs>
</svg>
