<?xml version="1.0" encoding="utf-8" standalone="no"?>
<!DOCTYPE svg PUBLIC "-//W3C//DTD SVG 1.1//EN"
  "http://www.w3.org/Graphics/SVG/1.1/DTD/svg11.dtd">
<svg xmlns:xlink="http://www.w3.org/1999/xlink" width="432pt" height="180pt" viewBox="0 0 432 180" xmlns="http://www.w3.org/2000/svg" version="1.1">
 <metadata>
  <rdf:RDF xmlns:dc="http://purl.org/dc/elements/1.1/" xmlns:cc="http://creativecommons.org/ns#" xmlns:rdf="http://www.w3.org/1999/02/22-rdf-syntax-ns#">
   <cc:Work>
    <dc:type rdf:resource="http://purl.org/dc/dcmitype/StillImage"/>
    <dc:date>2024-11-11T11:30:37.286002</dc:date>
    <dc:format>image/svg+xml</dc:format>
    <dc:creator>
     <cc:Agent>
      <dc:title>Matplotlib v3.9.2, https://matplotlib.org/</dc:title>
     </cc:Agent>
    </dc:creator>
   </cc:Work>
  </rdf:RDF>
 </metadata>
 <defs>
  <style type="text/css">*{stroke-linejoin: round; stroke-linecap: butt}</style>
 </defs>
 <g id="figure_1">
  <g id="patch_1">
   <path d="M 0 180 
L 432 180 
L 432 0 
L 0 0 
z
" style="fill: #ffffff"/>
  </g>
  <g id="axes_1">
   <g id="patch_2">
    <path d="M 54 160.2 
L 388.8 160.2 
L 388.8 21.6 
L 54 21.6 
z
" style="fill: #eaeaf2"/>
   </g>
   <g id="matplotlib.axis_1">
    <g id="text_1">
     <!-- Time (a.u.) -->
     <g style="fill: #262626" transform="translate(184.818811 175.40797) scale(0.15 -0.15)">
      <defs>
       <path id="CMR17-54" d="M 3981 4326 
L 288 4326 
L 179 2918 
L 294 2918 
C 378 3976 467 4160 1453 4160 
C 1568 4160 1754 4160 1805 4154 
C 1926 4135 1926 4058 1926 3912 
L 1926 459 
C 1926 230 1907 160 1376 160 
L 1197 160 
L 1197 0 
C 1504 0 1824 0 2138 0 
C 2451 0 2771 0 3078 0 
L 3078 160 
L 2899 160 
C 2368 160 2349 230 2349 459 
L 2349 3912 
C 2349 4052 2349 4129 2464 4154 
C 2515 4160 2701 4160 2816 4160 
C 3795 4160 3891 3976 3974 2918 
L 4090 2918 
L 3981 4326 
z
" transform="scale(0.015625)"/>
       <path id="CMR17-69" d="M 992 3909 
C 992 4049 877 4170 730 4170 
C 589 4170 467 4056 467 3909 
C 467 3769 582 3648 730 3648 
C 870 3648 992 3763 992 3909 
z
M 243 2706 
L 243 2541 
C 602 2541 653 2502 653 2197 
L 653 427 
C 653 184 627 153 218 153 
L 218 -13 
C 371 0 646 0 806 0 
C 960 0 1222 0 1370 -13 
L 1370 153 
C 992 153 979 191 979 420 
L 979 2776 
L 243 2706 
z
" transform="scale(0.015625)"/>
       <path id="CMR17-6d" d="M 4326 1933 
C 4326 2252 4269 2790 3507 2790 
C 3072 2790 2771 2496 2656 2151 
L 2650 2151 
C 2573 2676 2195 2790 1837 2790 
C 1331 2790 1069 2400 973 2144 
L 966 2144 
L 966 2790 
L 211 2720 
L 211 2554 
C 589 2554 646 2515 646 2208 
L 646 428 
C 646 184 621 153 211 153 
L 211 -13 
C 365 0 646 0 813 0 
C 979 0 1267 0 1421 -13 
L 1421 153 
C 1011 153 986 178 986 428 
L 986 1658 
C 986 2247 1344 2688 1792 2688 
C 2266 2688 2317 2266 2317 1958 
L 2317 428 
C 2317 184 2291 153 1882 153 
L 1882 -13 
C 2035 0 2317 0 2483 0 
C 2650 0 2938 0 3091 -13 
L 3091 153 
C 2682 153 2656 178 2656 428 
L 2656 1658 
C 2656 2247 3014 2688 3462 2688 
C 3936 2688 3987 2266 3987 1958 
L 3987 428 
C 3987 184 3962 153 3552 153 
L 3552 -13 
C 3706 0 3987 0 4154 0 
C 4320 0 4608 0 4762 -13 
L 4762 153 
C 4352 153 4326 178 4326 428 
L 4326 1933 
z
" transform="scale(0.015625)"/>
       <path id="CMR17-65" d="M 2438 1472 
C 2464 1498 2464 1511 2464 1576 
C 2464 2238 2118 2816 1389 2816 
C 710 2816 173 2169 173 1383 
C 173 551 781 -64 1459 -64 
C 2176 -64 2458 607 2458 740 
C 2458 784 2419 784 2406 784 
C 2362 784 2355 771 2330 696 
C 2189 265 1837 51 1504 51 
C 1229 51 954 203 781 480 
C 582 803 582 1176 582 1472 
L 2438 1472 
z
M 589 1568 
C 634 2505 1126 2714 1382 2714 
C 1818 2714 2112 2297 2118 1568 
L 589 1568 
z
" transform="scale(0.015625)"/>
       <path id="CMR17-28" d="M 1958 -1561 
C 1958 -1555 1958 -1542 1939 -1523 
C 1645 -1224 858 -407 858 1581 
C 858 3569 1632 4379 1946 4697 
C 1946 4704 1958 4717 1958 4736 
C 1958 4755 1939 4768 1914 4768 
C 1843 4768 1299 4296 986 3594 
C 666 2887 576 2199 576 1588 
C 576 1128 621 351 1005 -471 
C 1312 -1135 1837 -1600 1914 -1600 
C 1946 -1600 1958 -1587 1958 -1561 
z
" transform="scale(0.015625)"/>
       <path id="CMR17-61" d="M 2304 1653 
C 2304 2072 2304 2294 2035 2543 
C 1798 2752 1523 2816 1306 2816 
C 800 2816 435 2407 435 1971 
C 435 1728 627 1728 666 1728 
C 749 1728 896 1778 896 1954 
C 896 2112 774 2181 666 2181 
C 640 2181 608 2174 589 2168 
C 723 2592 1069 2714 1293 2714 
C 1613 2714 1965 2429 1965 1885 
L 1965 1600 
C 1587 1600 1133 1549 774 1357 
C 371 1133 256 813 256 570 
C 256 77 832 -64 1171 -64 
C 1523 -64 1850 139 1990 511 
C 2003 233 2182 -18 2464 -18 
C 2598 -18 2938 70 2938 567 
L 2938 920 
L 2822 920 
L 2822 562 
C 2822 178 2650 128 2566 128 
C 2304 128 2304 458 2304 738 
L 2304 1653 
z
M 1965 870 
C 1965 317 1568 38 1216 38 
C 896 38 646 275 646 570 
C 646 761 730 1100 1101 1305 
C 1408 1478 1760 1504 1965 1504 
L 1965 870 
z
" transform="scale(0.015625)"/>
       <path id="CMR17-2e" d="M 1062 261 
C 1062 420 934 522 800 522 
C 672 522 538 420 538 261 
C 538 102 666 0 800 0 
C 928 0 1062 102 1062 261 
z
" transform="scale(0.015625)"/>
       <path id="CMR17-75" d="M 1882 2693 
L 1882 2528 
C 2259 2528 2317 2489 2317 2186 
L 2317 1032 
C 2317 500 2029 38 1555 38 
C 1030 38 986 348 986 678 
L 986 2763 
L 211 2693 
L 211 2528 
C 467 2528 640 2528 646 2274 
L 646 1058 
C 646 633 646 361 813 183 
C 896 101 1056 -64 1517 -64 
C 2061 -64 2272 377 2323 506 
L 2330 506 
L 2330 -63 
L 3091 -63 
L 3091 128 
C 2714 128 2656 166 2656 473 
L 2656 2763 
L 1882 2693 
z
" transform="scale(0.015625)"/>
       <path id="CMR17-29" d="M 1683 1581 
C 1683 2040 1638 2817 1254 3639 
C 947 4303 422 4768 346 4768 
C 326 4768 301 4761 301 4729 
C 301 4717 307 4710 314 4697 
C 621 4378 1402 3568 1402 1584 
C 1402 -407 627 -1217 314 -1537 
C 307 -1549 301 -1556 301 -1568 
C 301 -1600 326 -1600 346 -1600 
C 416 -1600 960 -1128 1274 -426 
C 1594 281 1683 969 1683 1581 
z
" transform="scale(0.015625)"/>
      </defs>
      <use xlink:href="#CMR17-54" transform="scale(0.996264)"/>
      <use xlink:href="#CMR17-69" transform="translate(66.509881 0) scale(0.996264)"/>
      <use xlink:href="#CMR17-6d" transform="translate(91.380939 0) scale(0.996264)"/>
      <use xlink:href="#CMR17-65" transform="translate(168.300529 0) scale(0.996264)"/>
      <use xlink:href="#CMR17-28" transform="translate(238.862156 0) scale(0.996264)"/>
      <use xlink:href="#CMR17-61" transform="translate(274.142924 0) scale(0.996264)"/>
      <use xlink:href="#CMR17-2e" transform="translate(319.833401 0) scale(0.996264)"/>
      <use xlink:href="#CMR17-75" transform="translate(344.704459 0) scale(0.996264)"/>
      <use xlink:href="#CMR17-2e" transform="translate(395.599829 0) scale(0.996264)"/>
      <use xlink:href="#CMR17-29" transform="translate(420.470887 0) scale(0.996264)"/>
     </g>
    </g>
   </g>
   <g id="matplotlib.axis_2">
    <g id="text_2">
     <!-- Voltage (a.u.) -->
     <g style="fill: #262626" transform="translate(46.26401 134.794835) rotate(-90) scale(0.15 -0.15)">
      <defs>
       <path id="CMR17-56" d="M 3776 3745 
C 3834 3886 3936 4160 4365 4160 
L 4365 4332 
C 4218 4319 4051 4319 3891 4319 
C 3738 4319 3475 4319 3328 4332 
L 3328 4160 
C 3648 4160 3661 3936 3661 3898 
C 3661 3827 3642 3783 3622 3732 
L 2362 446 
L 1043 3886 
C 1024 3931 1011 3963 1011 3994 
C 1011 4160 1267 4160 1402 4160 
L 1402 4319 
C 1197 4319 896 4319 685 4319 
C 518 4319 218 4319 64 4332 
L 64 4160 
C 435 4160 506 4135 582 3931 
L 2106 -26 
C 2138 -115 2144 -128 2214 -128 
C 2285 -128 2291 -115 2323 -26 
L 3776 3745 
z
" transform="scale(0.015625)"/>
       <path id="CMR17-6f" d="M 2758 1356 
C 2758 2176 2163 2816 1466 2816 
C 768 2816 173 2176 173 1356 
C 173 551 768 -64 1466 -64 
C 2163 -64 2758 551 2758 1356 
z
M 1466 51 
C 1165 51 909 230 762 480 
C 602 767 582 1126 582 1408 
C 582 1677 595 2010 762 2298 
C 890 2509 1139 2714 1466 2714 
C 1754 2714 1997 2554 2150 2330 
C 2349 2029 2349 1607 2349 1408 
C 2349 1158 2336 775 2163 467 
C 1984 173 1709 51 1466 51 
z
" transform="scale(0.015625)"/>
       <path id="CMR17-6c" d="M 979 4396 
L 218 4326 
L 218 4160 
C 595 4160 653 4122 653 3817 
L 653 426 
C 653 184 627 153 218 153 
L 218 -13 
C 371 0 653 0 813 0 
C 979 0 1261 0 1414 -13 
L 1414 153 
C 1005 153 979 178 979 426 
L 979 4396 
z
" transform="scale(0.015625)"/>
       <path id="CMR17-74" d="M 966 2560 
L 1862 2560 
L 1862 2725 
L 966 2725 
L 966 3904 
L 851 3904 
C 838 3245 614 2668 70 2668 
L 70 2560 
L 627 2560 
L 627 771 
C 627 650 627 -64 1370 -64 
C 1747 -64 1965 306 1965 777 
L 1965 1140 
L 1850 1140 
L 1850 783 
C 1850 344 1677 51 1408 51 
C 1222 51 966 178 966 758 
L 966 2560 
z
" transform="scale(0.015625)"/>
       <path id="CMR17-67" d="M 710 1164 
C 832 1068 1043 960 1299 960 
C 1805 960 2240 1357 2240 1888 
C 2240 2054 2189 2310 1997 2509 
C 2176 2692 2438 2752 2586 2752 
C 2611 2752 2650 2752 2682 2734 
C 2656 2728 2598 2703 2598 2605 
C 2598 2527 2656 2471 2739 2471 
C 2835 2471 2886 2533 2886 2614 
C 2886 2731 2790 2854 2586 2854 
C 2330 2854 2106 2738 1926 2580 
C 1734 2753 1504 2816 1299 2816 
C 794 2816 358 2419 358 1888 
C 358 1522 570 1292 634 1228 
C 442 1004 442 743 442 711 
C 442 545 506 302 723 168 
C 390 85 128 -169 128 -486 
C 128 -943 736 -1280 1466 -1280 
C 2170 -1280 2803 -956 2803 -479 
C 2803 384 1856 384 1363 384 
C 1216 384 954 384 922 391 
C 723 423 589 602 589 826 
C 589 883 589 1024 710 1164 
z
M 1299 1068 
C 736 1068 736 1760 736 1889 
C 736 2016 736 2708 1299 2708 
C 1862 2708 1862 2016 1862 1889 
C 1862 1760 1862 1068 1299 1068 
z
M 1466 -1171 
C 826 -1171 384 -835 384 -486 
C 384 -289 493 -105 634 -4 
C 794 104 858 104 1293 104 
C 1818 104 2547 104 2547 -486 
C 2547 -835 2106 -1171 1466 -1171 
z
" transform="scale(0.015625)"/>
      </defs>
      <use xlink:href="#CMR17-56" transform="scale(0.996264)"/>
      <use xlink:href="#CMR17-6f" transform="translate(61.265174 0) scale(0.996264)"/>
      <use xlink:href="#CMR17-6c" transform="translate(106.955652 0) scale(0.996264)"/>
      <use xlink:href="#CMR17-74" transform="translate(131.82671 0) scale(0.996264)"/>
      <use xlink:href="#CMR17-61" transform="translate(167.107478 0) scale(0.996264)"/>
      <use xlink:href="#CMR17-67" transform="translate(212.797955 0) scale(0.996264)"/>
      <use xlink:href="#CMR17-65" transform="translate(258.488432 0) scale(0.996264)"/>
      <use xlink:href="#CMR17-28" transform="translate(329.050059 0) scale(0.996264)"/>
      <use xlink:href="#CMR17-61" transform="translate(364.330827 0) scale(0.996264)"/>
      <use xlink:href="#CMR17-2e" transform="translate(410.021304 0) scale(0.996264)"/>
      <use xlink:href="#CMR17-75" transform="translate(434.892362 0) scale(0.996264)"/>
      <use xlink:href="#CMR17-2e" transform="translate(485.787732 0) scale(0.996264)"/>
      <use xlink:href="#CMR17-29" transform="translate(510.658791 0) scale(0.996264)"/>
     </g>
    </g>
   </g>
   <g id="PolyCollection_1">
    <defs>
     <path id="mc242a52dd7" d="M 69.218182 -33.087247 
L 69.218182 -40.119667 
L 70.747647 -40.841018 
L 72.277113 -41.451172 
L 73.806578 -41.908076 
L 75.336044 -42.184936 
L 76.865509 -42.27629 
L 78.394975 -42.202321 
L 79.92444 -42.01088 
L 81.453906 -41.776856 
L 82.983371 -41.598821 
L 84.512837 -41.593132 
L 86.042302 -41.88591 
L 87.571768 -42.603592 
L 89.101233 -43.862865 
L 90.630699 -45.760911 
L 92.160164 -48.366874 
L 93.68963 -51.715344 
L 95.219095 -55.802471 
L 96.748561 -60.585085 
L 98.278026 -65.982891 
L 99.807492 -71.883525 
L 101.336958 -78.150003 
L 102.866423 -84.629866 
L 104.395889 -91.165222 
L 105.925354 -97.602827 
L 107.45482 -103.803367 
L 108.984285 -109.649247 
L 110.513751 -115.050312 
L 112.043216 -119.947146 
L 113.572682 -124.311821 
L 115.102147 -128.146171 
L 116.631613 -131.477883 
L 118.161078 -134.354882 
L 119.690544 -136.83859 
L 121.220009 -138.996722 
L 122.749475 -140.896261 
L 124.27894 -142.597249 
L 125.808406 -144.147858 
L 127.337871 -145.581117 
L 128.867337 -146.913455 
L 130.396802 -148.145054 
L 131.926268 -149.261826 
L 133.455733 -150.238682 
L 134.985199 -151.043682 
L 136.514664 -151.64258 
L 138.04413 -152.003312 
L 139.573595 -152.1 
L 141.103061 -151.916156 
L 142.632526 -151.446851 
L 144.161992 -150.699741 
L 145.691457 -149.694942 
L 147.220923 -148.463833 
L 148.750388 -147.046937 
L 150.279854 -145.491096 
L 151.809319 -143.846171 
L 153.338785 -142.161519 
L 154.86825 -140.482535 
L 156.397716 -138.847496 
L 157.927181 -137.284961 
L 159.456647 -135.811934 
L 160.986112 -134.432938 
L 162.515578 -133.140082 
L 164.045043 -131.914138 
L 165.574509 -130.726547 
L 167.103974 -129.542205 
L 168.63344 -128.322811 
L 170.162905 -127.030509 
L 171.692371 -125.631501 
L 173.221836 -124.099337 
L 174.751302 -122.417554 
L 176.280767 -120.58142 
L 177.810233 -118.598602 
L 179.339698 -116.488651 
L 180.869164 -114.281346 
L 182.39863 -112.014027 
L 183.928095 -109.728185 
L 185.457561 -107.465634 
L 186.987026 -105.264691 
L 188.516492 -103.156743 
L 190.045957 -101.163565 
L 191.575423 -99.295666 
L 193.104888 -97.551794 
L 194.634354 -95.919634 
L 196.163819 -94.377578 
L 197.693285 -92.897343 
L 199.22275 -91.447152 
L 200.752216 -89.995125 
L 202.281681 -88.512568 
L 203.811147 -86.976839 
L 205.340612 -85.373556 
L 206.870078 -83.697962 
L 208.399543 -81.955357 
L 209.929009 -80.160568 
L 211.458474 -78.336539 
L 212.98794 -76.512172 
L 214.517405 -74.719619 
L 216.046871 -72.991279 
L 217.576336 -71.356768 
L 219.105802 -69.840143 
L 220.635267 -68.457631 
L 222.164733 -67.21608 
L 223.694198 -66.112291 
L 225.223664 -65.133274 
L 226.753129 -64.257439 
L 228.282595 -63.456576 
L 229.81206 -62.698455 
L 231.341526 -61.949769 
L 232.870991 -61.179164 
L 234.400457 -60.360062 
L 235.929922 -59.473027 
L 237.459388 -58.507471 
L 238.988853 -57.462535 
L 240.518319 -56.347086 
L 242.047784 -55.178824 
L 243.57725 -53.982605 
L 245.106715 -52.788143 
L 246.636181 -51.627328 
L 248.165646 -50.531414 
L 249.695112 -49.528349 
L 251.224577 -48.640465 
L 252.754043 -47.882704 
L 254.283508 -47.261512 
L 255.812974 -46.774435 
L 257.342439 -46.410403 
L 258.871905 -46.150651 
L 260.40137 -45.970172 
L 261.930836 -45.839573 
L 263.460302 -45.727213 
L 264.989767 -45.601445 
L 266.519233 -45.432838 
L 268.048698 -45.196204 
L 269.578164 -44.872335 
L 271.107629 -44.449322 
L 272.637095 -43.923374 
L 274.16656 -43.299071 
L 275.696026 -42.589011 
L 277.225491 -41.812863 
L 278.754957 -40.995885 
L 280.284422 -40.166991 
L 281.813888 -39.356521 
L 283.343353 -38.593881 
L 284.872819 -37.905261 
L 286.402284 -37.311639 
L 287.93175 -36.827268 
L 289.461215 -36.458774 
L 290.990681 -36.204971 
L 292.520146 -36.057358 
L 294.049612 -36.001254 
L 295.579077 -36.017393 
L 297.108543 -36.083806 
L 298.638008 -36.177781 
L 300.167474 -36.277701 
L 301.696939 -36.364598 
L 303.226405 -36.423316 
L 304.75587 -36.443217 
L 306.285336 -36.418425 
L 307.814801 -36.347656 
L 309.344267 -36.233706 
L 310.873732 -36.082682 
L 312.403198 -35.90307 
L 313.932663 -35.704711 
L 315.462129 -35.497771 
L 316.991594 -35.291763 
L 318.52106 -35.094673 
L 320.050525 -34.912256 
L 321.579991 -34.74752 
L 323.109456 -34.600445 
L 324.638922 -34.467932 
L 326.168387 -34.343996 
L 327.697853 -34.220183 
L 329.227318 -34.086178 
L 330.756784 -33.930559 
L 332.286249 -33.741665 
L 333.815715 -33.508506 
L 335.34518 -33.221683 
L 336.874646 -32.874253 
L 338.404111 -32.462492 
L 339.933577 -31.986496 
L 341.463042 -31.450584 
L 342.992508 -30.863427 
L 344.521974 -30.237903 
L 346.051439 -29.590647 
L 347.580905 -28.941304 
L 349.11037 -28.311538 
L 350.639836 -27.723835 
L 352.169301 -27.200209 
L 353.698767 -26.760886 
L 355.228232 -26.423088 
L 356.757698 -26.2 
L 358.287163 -26.1 
L 359.816629 -26.126221 
L 361.346094 -26.27645 
L 362.87556 -26.543382 
L 364.405025 -26.915179 
L 365.934491 -27.376285 
L 367.463956 -27.908409 
L 368.993422 -28.491594 
L 370.522887 -29.105274 
L 372.052353 -29.729277 
L 373.581818 -30.3447 
L 373.581818 -33.087247 
L 373.581818 -33.087247 
L 372.052353 -33.087247 
L 370.522887 -33.087247 
L 368.993422 -33.087247 
L 367.463956 -33.087247 
L 365.934491 -33.087247 
L 364.405025 -33.087247 
L 362.87556 -33.087247 
L 361.346094 -33.087247 
L 359.816629 -33.087247 
L 358.287163 -33.087247 
L 356.757698 -33.087247 
L 355.228232 -33.087247 
L 353.698767 -33.087247 
L 352.169301 -33.087247 
L 350.639836 -33.087247 
L 349.11037 -33.087247 
L 347.580905 -33.087247 
L 346.051439 -33.087247 
L 344.521974 -33.087247 
L 342.992508 -33.087247 
L 341.463042 -33.087247 
L 339.933577 -33.087247 
L 338.404111 -33.087247 
L 336.874646 -33.087247 
L 335.34518 -33.087247 
L 333.815715 -33.087247 
L 332.286249 -33.087247 
L 330.756784 -33.087247 
L 329.227318 -33.087247 
L 327.697853 -33.087247 
L 326.168387 -33.087247 
L 324.638922 -33.087247 
L 323.109456 -33.087247 
L 321.579991 -33.087247 
L 320.050525 -33.087247 
L 318.52106 -33.087247 
L 316.991594 -33.087247 
L 315.462129 -33.087247 
L 313.932663 -33.087247 
L 312.403198 -33.087247 
L 310.873732 -33.087247 
L 309.344267 -33.087247 
L 307.814801 -33.087247 
L 306.285336 -33.087247 
L 304.75587 -33.087247 
L 303.226405 -33.087247 
L 301.696939 -33.087247 
L 300.167474 -33.087247 
L 298.638008 -33.087247 
L 297.108543 -33.087247 
L 295.579077 -33.087247 
L 294.049612 -33.087247 
L 292.520146 -33.087247 
L 290.990681 -33.087247 
L 289.461215 -33.087247 
L 287.93175 -33.087247 
L 286.402284 -33.087247 
L 284.872819 -33.087247 
L 283.343353 -33.087247 
L 281.813888 -33.087247 
L 280.284422 -33.087247 
L 278.754957 -33.087247 
L 277.225491 -33.087247 
L 275.696026 -33.087247 
L 274.16656 -33.087247 
L 272.637095 -33.087247 
L 271.107629 -33.087247 
L 269.578164 -33.087247 
L 268.048698 -33.087247 
L 266.519233 -33.087247 
L 264.989767 -33.087247 
L 263.460302 -33.087247 
L 261.930836 -33.087247 
L 260.40137 -33.087247 
L 258.871905 -33.087247 
L 257.342439 -33.087247 
L 255.812974 -33.087247 
L 254.283508 -33.087247 
L 252.754043 -33.087247 
L 251.224577 -33.087247 
L 249.695112 -33.087247 
L 248.165646 -33.087247 
L 246.636181 -33.087247 
L 245.106715 -33.087247 
L 243.57725 -33.087247 
L 242.047784 -33.087247 
L 240.518319 -33.087247 
L 238.988853 -33.087247 
L 237.459388 -33.087247 
L 235.929922 -33.087247 
L 234.400457 -33.087247 
L 232.870991 -33.087247 
L 231.341526 -33.087247 
L 229.81206 -33.087247 
L 228.282595 -33.087247 
L 226.753129 -33.087247 
L 225.223664 -33.087247 
L 223.694198 -33.087247 
L 222.164733 -33.087247 
L 220.635267 -33.087247 
L 219.105802 -33.087247 
L 217.576336 -33.087247 
L 216.046871 -33.087247 
L 214.517405 -33.087247 
L 212.98794 -33.087247 
L 211.458474 -33.087247 
L 209.929009 -33.087247 
L 208.399543 -33.087247 
L 206.870078 -33.087247 
L 205.340612 -33.087247 
L 203.811147 -33.087247 
L 202.281681 -33.087247 
L 200.752216 -33.087247 
L 199.22275 -33.087247 
L 197.693285 -33.087247 
L 196.163819 -33.087247 
L 194.634354 -33.087247 
L 193.104888 -33.087247 
L 191.575423 -33.087247 
L 190.045957 -33.087247 
L 188.516492 -33.087247 
L 186.987026 -33.087247 
L 185.457561 -33.087247 
L 183.928095 -33.087247 
L 182.39863 -33.087247 
L 180.869164 -33.087247 
L 179.339698 -33.087247 
L 177.810233 -33.087247 
L 176.280767 -33.087247 
L 174.751302 -33.087247 
L 173.221836 -33.087247 
L 171.692371 -33.087247 
L 170.162905 -33.087247 
L 168.63344 -33.087247 
L 167.103974 -33.087247 
L 165.574509 -33.087247 
L 164.045043 -33.087247 
L 162.515578 -33.087247 
L 160.986112 -33.087247 
L 159.456647 -33.087247 
L 157.927181 -33.087247 
L 156.397716 -33.087247 
L 154.86825 -33.087247 
L 153.338785 -33.087247 
L 151.809319 -33.087247 
L 150.279854 -33.087247 
L 148.750388 -33.087247 
L 147.220923 -33.087247 
L 145.691457 -33.087247 
L 144.161992 -33.087247 
L 142.632526 -33.087247 
L 141.103061 -33.087247 
L 139.573595 -33.087247 
L 138.04413 -33.087247 
L 136.514664 -33.087247 
L 134.985199 -33.087247 
L 133.455733 -33.087247 
L 131.926268 -33.087247 
L 130.396802 -33.087247 
L 128.867337 -33.087247 
L 127.337871 -33.087247 
L 125.808406 -33.087247 
L 124.27894 -33.087247 
L 122.749475 -33.087247 
L 121.220009 -33.087247 
L 119.690544 -33.087247 
L 118.161078 -33.087247 
L 116.631613 -33.087247 
L 115.102147 -33.087247 
L 113.572682 -33.087247 
L 112.043216 -33.087247 
L 110.513751 -33.087247 
L 108.984285 -33.087247 
L 107.45482 -33.087247 
L 105.925354 -33.087247 
L 104.395889 -33.087247 
L 102.866423 -33.087247 
L 101.336958 -33.087247 
L 99.807492 -33.087247 
L 98.278026 -33.087247 
L 96.748561 -33.087247 
L 95.219095 -33.087247 
L 93.68963 -33.087247 
L 92.160164 -33.087247 
L 90.630699 -33.087247 
L 89.101233 -33.087247 
L 87.571768 -33.087247 
L 86.042302 -33.087247 
L 84.512837 -33.087247 
L 82.983371 -33.087247 
L 81.453906 -33.087247 
L 79.92444 -33.087247 
L 78.394975 -33.087247 
L 76.865509 -33.087247 
L 75.336044 -33.087247 
L 73.806578 -33.087247 
L 72.277113 -33.087247 
L 70.747647 -33.087247 
L 69.218182 -33.087247 
z
" style="stroke: #c44e52; stroke-opacity: 0.3; stroke-width: 0.3"/>
    </defs>
    <g clip-path="url(#pe7fa29976f)">
     <use xlink:href="#mc242a52dd7" x="0" y="180" style="fill: #c44e52; fill-opacity: 0.3; stroke: #c44e52; stroke-opacity: 0.3; stroke-width: 0.3"/>
    </g>
   </g>
   <g id="line2d_1">
    <path d="M 69.218182 139.880333 
L 72.277113 138.548828 
L 73.806578 138.091924 
L 75.336044 137.815064 
L 76.865509 137.72371 
L 78.394975 137.797679 
L 82.983371 138.401179 
L 84.512837 138.406868 
L 86.042302 138.11409 
L 87.571768 137.396408 
L 89.101233 136.137135 
L 90.630699 134.239089 
L 92.160164 131.633126 
L 93.68963 128.284656 
L 95.219095 124.197529 
L 96.748561 119.414915 
L 98.278026 114.017109 
L 101.336958 101.849997 
L 107.45482 76.196633 
L 108.984285 70.350753 
L 110.513751 64.949688 
L 112.043216 60.052854 
L 113.572682 55.688179 
L 115.102147 51.853829 
L 116.631613 48.522117 
L 118.161078 45.645118 
L 119.690544 43.16141 
L 121.220009 41.003278 
L 122.749475 39.103739 
L 125.808406 35.852142 
L 128.867337 33.086545 
L 131.926268 30.738174 
L 133.455733 29.761318 
L 134.985199 28.956318 
L 136.514664 28.35742 
L 138.04413 27.996688 
L 139.573595 27.9 
L 141.103061 28.083844 
L 142.632526 28.553149 
L 144.161992 29.300259 
L 145.691457 30.305058 
L 147.220923 31.536167 
L 150.279854 34.508904 
L 157.927181 42.715039 
L 160.986112 45.567062 
L 164.045043 48.085862 
L 170.162905 52.969491 
L 173.221836 55.900663 
L 176.280767 59.41858 
L 179.339698 63.511349 
L 190.045957 78.836435 
L 193.104888 82.448206 
L 196.163819 85.622422 
L 205.340612 94.626444 
L 208.399543 98.044643 
L 217.576336 108.643232 
L 220.635267 111.542369 
L 223.694198 113.887709 
L 226.753129 115.742561 
L 235.929922 120.526973 
L 238.988853 122.537465 
L 243.57725 126.017395 
L 248.165646 129.468586 
L 251.224577 131.359535 
L 252.754043 132.117296 
L 254.283508 132.738488 
L 255.812974 133.225565 
L 258.871905 133.849349 
L 261.930836 134.160427 
L 266.519233 134.567162 
L 269.578164 135.127665 
L 272.637095 136.076626 
L 275.696026 137.410989 
L 280.284422 139.833009 
L 283.343353 141.406119 
L 286.402284 142.688361 
L 289.461215 143.541226 
L 292.520146 143.942642 
L 295.579077 143.982607 
L 306.285336 143.581575 
L 309.344267 143.766294 
L 313.932663 144.295289 
L 321.579991 145.25248 
L 333.815715 146.491494 
L 336.874646 147.125747 
L 339.933577 148.013504 
L 342.992508 149.136573 
L 352.169301 152.799791 
L 355.228232 153.576912 
L 356.757698 153.8 
L 358.287163 153.9 
L 359.816629 153.873779 
L 361.346094 153.72355 
L 364.405025 153.084821 
L 367.463956 152.091591 
L 373.581818 149.6553 
L 373.581818 149.6553 
" clip-path="url(#pe7fa29976f)" style="fill: none; stroke: #4c72b0; stroke-linecap: round"/>
   </g>
   <g id="patch_3">
    <path d="M 54 160.2 
L 54 21.6 
" style="fill: none"/>
   </g>
   <g id="patch_4">
    <path d="M 388.8 160.2 
L 388.8 21.6 
" style="fill: none"/>
   </g>
   <g id="patch_5">
    <path d="M 54 160.2 
L 388.8 160.2 
" style="fill: none"/>
   </g>
   <g id="patch_6">
    <path d="M 54 21.6 
L 388.8 21.6 
" style="fill: none"/>
   </g>
   <g id="legend_1">
    <g id="line2d_2">
     <path d="M 294.280065 40.35 
L 309.280065 40.35 
L 324.280065 40.35 
" style="fill: none; stroke: #4c72b0; stroke-linecap: round"/>
    </g>
    <g id="text_3">
     <!-- Signal -->
     <g style="fill: #262626" transform="translate(336.280065 45.6) scale(0.15 -0.15)">
      <defs>
       <path id="CMR17-53" d="M 2803 4290 
C 2803 4404 2797 4411 2758 4411 
C 2720 4411 2707 4385 2682 4328 
L 2490 3907 
C 2246 4257 1875 4416 1472 4416 
C 819 4416 294 3901 294 3253 
C 294 3056 339 2776 557 2510 
C 794 2218 1018 2167 1530 2033 
C 1722 1982 2042 1899 2106 1874 
C 2470 1722 2662 1341 2662 985 
C 2662 527 2336 38 1779 38 
C 1094 38 454 419 410 1311 
C 403 1413 397 1419 352 1419 
C 301 1419 294 1413 294 1285 
L 294 -1 
C 294 -115 301 -122 339 -122 
C 384 -122 397 -90 486 108 
C 493 127 493 140 614 381 
C 934 -39 1472 -128 1779 -128 
C 2477 -128 2970 451 2970 1124 
C 2970 1454 2848 1708 2778 1823 
C 2509 2230 2221 2306 1914 2382 
C 1869 2402 1856 2402 1498 2490 
C 1152 2579 1005 2624 845 2796 
C 666 2992 602 3196 602 3399 
C 602 3812 934 4263 1478 4263 
C 2157 4263 2579 3786 2675 2993 
C 2694 2878 2701 2872 2746 2872 
C 2803 2872 2803 2891 2803 2999 
L 2803 4290 
z
" transform="scale(0.015625)"/>
       <path id="CMR17-6e" d="M 2656 1933 
C 2656 2259 2592 2790 1837 2790 
C 1331 2790 1069 2400 973 2144 
L 966 2144 
L 966 2790 
L 211 2720 
L 211 2554 
C 589 2554 646 2515 646 2208 
L 646 428 
C 646 184 621 153 211 153 
L 211 -13 
C 365 0 646 0 813 0 
C 979 0 1267 0 1421 -13 
L 1421 153 
C 1011 153 986 178 986 428 
L 986 1658 
C 986 2247 1344 2688 1792 2688 
C 2266 2688 2317 2266 2317 1958 
L 2317 428 
C 2317 184 2291 153 1882 153 
L 1882 -13 
C 2035 0 2317 0 2483 0 
C 2650 0 2938 0 3091 -13 
L 3091 153 
C 2682 153 2656 178 2656 428 
L 2656 1933 
z
" transform="scale(0.015625)"/>
      </defs>
      <use xlink:href="#CMR17-53" transform="scale(0.996264)"/>
      <use xlink:href="#CMR17-69" transform="translate(50.89537 0) scale(0.996264)"/>
      <use xlink:href="#CMR17-67" transform="translate(75.766428 0) scale(0.996264)"/>
      <use xlink:href="#CMR17-6e" transform="translate(121.456905 0) scale(0.996264)"/>
      <use xlink:href="#CMR17-61" transform="translate(172.352275 0) scale(0.996264)"/>
      <use xlink:href="#CMR17-6c" transform="translate(218.042752 0) scale(0.996264)"/>
     </g>
    </g>
    <g id="patch_7">
     <path d="M 294.280065 66.505745 
L 324.280065 66.505745 
L 324.280065 56.005745 
L 294.280065 56.005745 
z
" style="fill: #c44e52; fill-opacity: 0.3; stroke: #c44e52; stroke-opacity: 0.3; stroke-width: 0.3; stroke-linejoin: miter"/>
    </g>
    <g id="text_4">
     <!-- Area -->
     <g style="fill: #262626" transform="translate(336.280065 66.505745) scale(0.15 -0.15)">
      <defs>
       <path id="CMR17-41" d="M 2323 4378 
C 2291 4461 2278 4480 2214 4480 
C 2150 4480 2138 4461 2106 4378 
L 749 566 
C 627 223 371 153 147 153 
L 147 -13 
C 262 0 518 0 640 0 
C 800 0 1056 0 1210 -13 
L 1210 153 
C 909 153 864 361 864 439 
C 864 497 877 530 890 569 
L 1229 1536 
L 2906 1536 
L 3290 442 
C 3322 365 3322 352 3322 327 
C 3322 153 3046 153 2925 153 
L 2925 0 
C 3110 0 3443 0 3642 0 
C 3808 0 4128 0 4282 -13 
L 4282 153 
C 3942 153 3827 153 3744 387 
L 2323 4378 
z
M 2067 3893 
L 2848 1702 
L 1286 1702 
L 2067 3893 
z
" transform="scale(0.015625)"/>
       <path id="CMR17-72" d="M 960 1497 
C 960 2112 1222 2688 1702 2688 
C 1747 2688 1792 2682 1837 2662 
C 1837 2662 1696 2617 1696 2452 
C 1696 2298 1818 2234 1914 2234 
C 1990 2234 2131 2279 2131 2458 
C 2131 2663 1926 2790 1709 2790 
C 1222 2790 1011 2317 947 2093 
L 941 2093 
L 941 2790 
L 198 2720 
L 198 2554 
C 576 2554 634 2515 634 2208 
L 634 428 
C 634 184 608 153 198 153 
L 198 -13 
C 352 0 646 0 813 0 
C 998 0 1325 0 1498 -13 
L 1498 153 
C 1037 153 960 153 960 440 
L 960 1497 
z
" transform="scale(0.015625)"/>
      </defs>
      <use xlink:href="#CMR17-41" transform="scale(0.996264)"/>
      <use xlink:href="#CMR17-72" transform="translate(69.07243 0) scale(0.996264)"/>
      <use xlink:href="#CMR17-65" transform="translate(104.353198 0) scale(0.996264)"/>
      <use xlink:href="#CMR17-61" transform="translate(144.838858 0) scale(0.996264)"/>
     </g>
    </g>
   </g>
  </g>
 </g>
 <defs>
  <clipPath id="pe7fa29976f">
   <rect x="54" y="21.6" width="334.8" height="138.6"/>
  </clipPath>
 </defs>
</svg>
