<?xml version="1.0" encoding="utf-8" standalone="no"?>
<!DOCTYPE svg PUBLIC "-//W3C//DTD SVG 1.1//EN"
  "http://www.w3.org/Graphics/SVG/1.1/DTD/svg11.dtd">
<svg xmlns:xlink="http://www.w3.org/1999/xlink" width="395.417187pt" height="212.053203pt" viewBox="0 0 395.417187 212.053203" xmlns="http://www.w3.org/2000/svg" version="1.1">
 <metadata>
  <rdf:RDF xmlns:dc="http://purl.org/dc/elements/1.1/" xmlns:cc="http://creativecommons.org/ns#" xmlns:rdf="http://www.w3.org/1999/02/22-rdf-syntax-ns#">
   <cc:Work>
    <dc:type rdf:resource="http://purl.org/dc/dcmitype/StillImage"/>
    <dc:date>2024-11-11T11:38:20.623491</dc:date>
    <dc:format>image/svg+xml</dc:format>
    <dc:creator>
     <cc:Agent>
      <dc:title>Matplotlib v3.9.2, https://matplotlib.org/</dc:title>
     </cc:Agent>
    </dc:creator>
   </cc:Work>
  </rdf:RDF>
 </metadata>
 <defs>
  <style type="text/css">*{stroke-linejoin: round; stroke-linecap: butt}</style>
 </defs>
 <g id="figure_1">
  <g id="patch_1">
   <path d="M 0 212.053203 
L 395.417187 212.053203 
L 395.417187 0 
L 0 0 
z
" style="fill: #ffffff"/>
  </g>
  <g id="axes_1">
   <g id="patch_2">
    <path d="M 60.617188 172.018828 
L 395.417188 172.018828 
L 395.417188 5.698828 
L 60.617188 5.698828 
z
" style="fill: #eaeaf2"/>
   </g>
   <g id="matplotlib.axis_1">
    <g id="xtick_1">
     <g id="line2d_1">
      <path d="M 75.835369 172.018828 
L 75.835369 5.698828 
" clip-path="url(#p3ee6f9a1f0)" style="fill: none; stroke: #ffffff; stroke-linecap: round"/>
     </g>
     <g id="line2d_2"/>
     <g id="text_1">
      <!-- 0.0 -->
      <g style="fill: #262626" transform="translate(63.908026 190.416484) scale(0.15 -0.15)">
       <defs>
        <path id="DejaVuSerif-30" d="M 2034 219 
Q 2513 219 2750 744 
Q 2988 1269 2988 2328 
Q 2988 3391 2750 3916 
Q 2513 4441 2034 4441 
Q 1556 4441 1318 3916 
Q 1081 3391 1081 2328 
Q 1081 1269 1318 744 
Q 1556 219 2034 219 
z
M 2034 -91 
Q 1275 -91 848 546 
Q 422 1184 422 2328 
Q 422 3475 848 4112 
Q 1275 4750 2034 4750 
Q 2797 4750 3222 4112 
Q 3647 3475 3647 2328 
Q 3647 1184 3222 546 
Q 2797 -91 2034 -91 
z
" transform="scale(0.015625)"/>
        <path id="DejaVuSerif-2e" d="M 603 325 
Q 603 500 722 622 
Q 841 744 1019 744 
Q 1191 744 1312 622 
Q 1434 500 1434 325 
Q 1434 153 1312 31 
Q 1191 -91 1019 -91 
Q 841 -91 722 29 
Q 603 150 603 325 
z
" transform="scale(0.015625)"/>
       </defs>
       <use xlink:href="#DejaVuSerif-30"/>
       <use xlink:href="#DejaVuSerif-2e" x="63.623047"/>
       <use xlink:href="#DejaVuSerif-30" x="95.410156"/>
      </g>
     </g>
    </g>
    <g id="xtick_2">
     <g id="line2d_3">
      <path d="M 136.708097 172.018828 
L 136.708097 5.698828 
" clip-path="url(#p3ee6f9a1f0)" style="fill: none; stroke: #ffffff; stroke-linecap: round"/>
     </g>
     <g id="line2d_4"/>
     <g id="text_2">
      <!-- 0.2 -->
      <g style="fill: #262626" transform="translate(124.780753 190.416484) scale(0.15 -0.15)">
       <defs>
        <path id="DejaVuSerif-32" d="M 819 3553 
L 469 3553 
L 469 4384 
Q 803 4563 1142 4656 
Q 1481 4750 1806 4750 
Q 2534 4750 2956 4397 
Q 3378 4044 3378 3438 
Q 3378 2753 2422 1800 
Q 2347 1728 2309 1691 
L 1131 513 
L 3078 513 
L 3078 1088 
L 3444 1088 
L 3444 0 
L 434 0 
L 434 341 
L 1850 1753 
Q 2319 2222 2519 2614 
Q 2719 3006 2719 3438 
Q 2719 3909 2473 4175 
Q 2228 4441 1797 4441 
Q 1350 4441 1106 4219 
Q 863 3997 819 3553 
z
" transform="scale(0.015625)"/>
       </defs>
       <use xlink:href="#DejaVuSerif-30"/>
       <use xlink:href="#DejaVuSerif-2e" x="63.623047"/>
       <use xlink:href="#DejaVuSerif-32" x="95.410156"/>
      </g>
     </g>
    </g>
    <g id="xtick_3">
     <g id="line2d_5">
      <path d="M 197.580824 172.018828 
L 197.580824 5.698828 
" clip-path="url(#p3ee6f9a1f0)" style="fill: none; stroke: #ffffff; stroke-linecap: round"/>
     </g>
     <g id="line2d_6"/>
     <g id="text_3">
      <!-- 0.4 -->
      <g style="fill: #262626" transform="translate(185.65348 190.416484) scale(0.15 -0.15)">
       <defs>
        <path id="DejaVuSerif-34" d="M 2234 1581 
L 2234 4063 
L 641 1581 
L 2234 1581 
z
M 3609 0 
L 1484 0 
L 1484 331 
L 2234 331 
L 2234 1247 
L 197 1247 
L 197 1588 
L 2241 4750 
L 2859 4750 
L 2859 1581 
L 3750 1581 
L 3750 1247 
L 2859 1247 
L 2859 331 
L 3609 331 
L 3609 0 
z
" transform="scale(0.015625)"/>
       </defs>
       <use xlink:href="#DejaVuSerif-30"/>
       <use xlink:href="#DejaVuSerif-2e" x="63.623047"/>
       <use xlink:href="#DejaVuSerif-34" x="95.410156"/>
      </g>
     </g>
    </g>
    <g id="xtick_4">
     <g id="line2d_7">
      <path d="M 258.453551 172.018828 
L 258.453551 5.698828 
" clip-path="url(#p3ee6f9a1f0)" style="fill: none; stroke: #ffffff; stroke-linecap: round"/>
     </g>
     <g id="line2d_8"/>
     <g id="text_4">
      <!-- 0.6 -->
      <g style="fill: #262626" transform="translate(246.526207 190.416484) scale(0.15 -0.15)">
       <defs>
        <path id="DejaVuSerif-36" d="M 2094 219 
Q 2534 219 2771 542 
Q 3009 866 3009 1472 
Q 3009 2078 2771 2401 
Q 2534 2725 2094 2725 
Q 1647 2725 1412 2412 
Q 1178 2100 1178 1509 
Q 1178 888 1415 553 
Q 1653 219 2094 219 
z
M 1075 2569 
Q 1288 2803 1556 2918 
Q 1825 3034 2163 3034 
Q 2859 3034 3264 2615 
Q 3669 2197 3669 1472 
Q 3669 763 3233 336 
Q 2797 -91 2069 -91 
Q 1278 -91 853 498 
Q 428 1088 428 2181 
Q 428 3406 931 4078 
Q 1434 4750 2350 4750 
Q 2597 4750 2869 4703 
Q 3141 4656 3425 4563 
L 3425 3794 
L 3072 3794 
Q 3034 4109 2831 4275 
Q 2628 4441 2284 4441 
Q 1678 4441 1381 3981 
Q 1084 3522 1075 2569 
z
" transform="scale(0.015625)"/>
       </defs>
       <use xlink:href="#DejaVuSerif-30"/>
       <use xlink:href="#DejaVuSerif-2e" x="63.623047"/>
       <use xlink:href="#DejaVuSerif-36" x="95.410156"/>
      </g>
     </g>
    </g>
    <g id="xtick_5">
     <g id="line2d_9">
      <path d="M 319.326278 172.018828 
L 319.326278 5.698828 
" clip-path="url(#p3ee6f9a1f0)" style="fill: none; stroke: #ffffff; stroke-linecap: round"/>
     </g>
     <g id="line2d_10"/>
     <g id="text_5">
      <!-- 0.8 -->
      <g style="fill: #262626" transform="translate(307.398935 190.416484) scale(0.15 -0.15)">
       <defs>
        <path id="DejaVuSerif-38" d="M 2981 1275 
Q 2981 1775 2732 2051 
Q 2484 2328 2034 2328 
Q 1584 2328 1336 2051 
Q 1088 1775 1088 1275 
Q 1088 772 1336 495 
Q 1584 219 2034 219 
Q 2484 219 2732 495 
Q 2981 772 2981 1275 
z
M 2853 3541 
Q 2853 3966 2637 4203 
Q 2422 4441 2034 4441 
Q 1650 4441 1433 4203 
Q 1216 3966 1216 3541 
Q 1216 3113 1433 2875 
Q 1650 2638 2034 2638 
Q 2422 2638 2637 2875 
Q 2853 3113 2853 3541 
z
M 2516 2484 
Q 3047 2413 3344 2092 
Q 3641 1772 3641 1275 
Q 3641 619 3225 264 
Q 2809 -91 2034 -91 
Q 1263 -91 845 264 
Q 428 619 428 1275 
Q 428 1772 725 2092 
Q 1022 2413 1556 2484 
Q 1084 2569 832 2842 
Q 581 3116 581 3541 
Q 581 4103 968 4426 
Q 1356 4750 2034 4750 
Q 2713 4750 3100 4426 
Q 3488 4103 3488 3541 
Q 3488 3116 3236 2842 
Q 2984 2569 2516 2484 
z
" transform="scale(0.015625)"/>
       </defs>
       <use xlink:href="#DejaVuSerif-30"/>
       <use xlink:href="#DejaVuSerif-2e" x="63.623047"/>
       <use xlink:href="#DejaVuSerif-38" x="95.410156"/>
      </g>
     </g>
    </g>
    <g id="xtick_6">
     <g id="line2d_11">
      <path d="M 380.199006 172.018828 
L 380.199006 5.698828 
" clip-path="url(#p3ee6f9a1f0)" style="fill: none; stroke: #ffffff; stroke-linecap: round"/>
     </g>
     <g id="line2d_12"/>
     <g id="text_6">
      <!-- 1.0 -->
      <g style="fill: #262626" transform="translate(368.271662 190.416484) scale(0.15 -0.15)">
       <defs>
        <path id="DejaVuSerif-31" d="M 909 0 
L 909 331 
L 1722 331 
L 1722 4213 
L 781 3603 
L 781 4013 
L 1919 4750 
L 2350 4750 
L 2350 331 
L 3163 331 
L 3163 0 
L 909 0 
z
" transform="scale(0.015625)"/>
       </defs>
       <use xlink:href="#DejaVuSerif-31"/>
       <use xlink:href="#DejaVuSerif-2e" x="63.623047"/>
       <use xlink:href="#DejaVuSerif-30" x="95.410156"/>
      </g>
     </g>
    </g>
    <g id="text_7">
     <!-- $s_1$ -->
     <g style="fill: #262626" transform="translate(220.517188 208.933672) scale(0.15 -0.15)">
      <defs>
       <path id="DejaVuSans-Oblique-73" d="M 3200 3397 
L 3091 2853 
Q 2863 2978 2609 3040 
Q 2356 3103 2088 3103 
Q 1634 3103 1373 2948 
Q 1113 2794 1113 2528 
Q 1113 2219 1719 2053 
Q 1766 2041 1788 2034 
L 1972 1978 
Q 2547 1819 2739 1644 
Q 2931 1469 2931 1166 
Q 2931 609 2489 259 
Q 2047 -91 1331 -91 
Q 1053 -91 747 -37 
Q 441 16 72 128 
L 184 722 
Q 500 559 806 475 
Q 1113 391 1394 391 
Q 1816 391 2080 572 
Q 2344 753 2344 1031 
Q 2344 1331 1650 1516 
L 1591 1531 
L 1394 1581 
Q 956 1697 753 1886 
Q 550 2075 550 2369 
Q 550 2928 970 3256 
Q 1391 3584 2113 3584 
Q 2397 3584 2667 3537 
Q 2938 3491 3200 3397 
z
" transform="scale(0.015625)"/>
       <path id="DejaVuSans-31" d="M 794 531 
L 1825 531 
L 1825 4091 
L 703 3866 
L 703 4441 
L 1819 4666 
L 2450 4666 
L 2450 531 
L 3481 531 
L 3481 0 
L 794 0 
L 794 531 
z
" transform="scale(0.015625)"/>
      </defs>
      <use xlink:href="#DejaVuSans-Oblique-73"/>
      <use xlink:href="#DejaVuSans-31" transform="translate(52.099609 -16.40625) scale(0.7)"/>
     </g>
    </g>
   </g>
   <g id="matplotlib.axis_2">
    <g id="ytick_1">
     <g id="line2d_13">
      <path d="M 60.617188 172.018828 
L 395.417188 172.018828 
" clip-path="url(#p3ee6f9a1f0)" style="fill: none; stroke: #ffffff; stroke-linecap: round"/>
     </g>
     <g id="line2d_14"/>
     <g id="text_8">
      <!-- $\mathdefault{10^{-2}}$ -->
      <g style="fill: #262626" transform="translate(18.517187 177.717656) scale(0.15 -0.15)">
       <defs>
        <path id="DejaVuSerif-2212" d="M 678 2259 
L 4684 2259 
L 4684 1753 
L 678 1753 
L 678 2259 
z
" transform="scale(0.015625)"/>
       </defs>
       <use xlink:href="#DejaVuSerif-31" transform="translate(0 0.7125)"/>
       <use xlink:href="#DejaVuSerif-30" transform="translate(63.623047 0.7125)"/>
       <use xlink:href="#DejaVuSerif-2212" transform="translate(128.154453 37.046875) scale(0.7)"/>
       <use xlink:href="#DejaVuSerif-32" transform="translate(186.806797 37.046875) scale(0.7)"/>
      </g>
     </g>
    </g>
    <g id="ytick_2">
     <g id="line2d_15">
      <path d="M 60.617188 130.438828 
L 395.417188 130.438828 
" clip-path="url(#p3ee6f9a1f0)" style="fill: none; stroke: #ffffff; stroke-linecap: round"/>
     </g>
     <g id="line2d_16"/>
     <g id="text_9">
      <!-- $\mathdefault{10^{-1}}$ -->
      <g style="fill: #262626" transform="translate(18.517187 136.137656) scale(0.15 -0.15)">
       <use xlink:href="#DejaVuSerif-31" transform="translate(0 0.7125)"/>
       <use xlink:href="#DejaVuSerif-30" transform="translate(63.623047 0.7125)"/>
       <use xlink:href="#DejaVuSerif-2212" transform="translate(128.154453 37.046875) scale(0.7)"/>
       <use xlink:href="#DejaVuSerif-31" transform="translate(186.806797 37.046875) scale(0.7)"/>
      </g>
     </g>
    </g>
    <g id="ytick_3">
     <g id="line2d_17">
      <path d="M 60.617188 88.858828 
L 395.417188 88.858828 
" clip-path="url(#p3ee6f9a1f0)" style="fill: none; stroke: #ffffff; stroke-linecap: round"/>
     </g>
     <g id="line2d_18"/>
     <g id="text_10">
      <!-- $\mathdefault{10^{0}}$ -->
      <g style="fill: #262626" transform="translate(27.217188 94.557656) scale(0.15 -0.15)">
       <use xlink:href="#DejaVuSerif-31" transform="translate(0 0.7125)"/>
       <use xlink:href="#DejaVuSerif-30" transform="translate(63.623047 0.7125)"/>
       <use xlink:href="#DejaVuSerif-30" transform="translate(128.154453 37.046875) scale(0.7)"/>
      </g>
     </g>
    </g>
    <g id="ytick_4">
     <g id="line2d_19">
      <path d="M 60.617188 47.278828 
L 395.417188 47.278828 
" clip-path="url(#p3ee6f9a1f0)" style="fill: none; stroke: #ffffff; stroke-linecap: round"/>
     </g>
     <g id="line2d_20"/>
     <g id="text_11">
      <!-- $\mathdefault{10^{1}}$ -->
      <g style="fill: #262626" transform="translate(27.217188 52.977656) scale(0.15 -0.15)">
       <use xlink:href="#DejaVuSerif-31" transform="translate(0 0.7125)"/>
       <use xlink:href="#DejaVuSerif-30" transform="translate(63.623047 0.7125)"/>
       <use xlink:href="#DejaVuSerif-31" transform="translate(128.154453 37.046875) scale(0.7)"/>
      </g>
     </g>
    </g>
    <g id="ytick_5">
     <g id="line2d_21">
      <path d="M 60.617188 5.698828 
L 395.417188 5.698828 
" clip-path="url(#p3ee6f9a1f0)" style="fill: none; stroke: #ffffff; stroke-linecap: round"/>
     </g>
     <g id="line2d_22"/>
     <g id="text_12">
      <!-- $\mathdefault{10^{2}}$ -->
      <g style="fill: #262626" transform="translate(27.217188 11.397656) scale(0.15 -0.15)">
       <use xlink:href="#DejaVuSerif-31" transform="translate(0 0.7125)"/>
       <use xlink:href="#DejaVuSerif-30" transform="translate(63.623047 0.7125)"/>
       <use xlink:href="#DejaVuSerif-32" transform="translate(128.154453 37.046875) scale(0.7)"/>
      </g>
     </g>
    </g>
    <g id="ytick_6">
     <g id="line2d_23"/>
    </g>
    <g id="ytick_7">
     <g id="line2d_24"/>
    </g>
    <g id="ytick_8">
     <g id="line2d_25"/>
    </g>
    <g id="ytick_9">
     <g id="line2d_26"/>
    </g>
    <g id="ytick_10">
     <g id="line2d_27"/>
    </g>
    <g id="ytick_11">
     <g id="line2d_28"/>
    </g>
    <g id="ytick_12">
     <g id="line2d_29"/>
    </g>
    <g id="ytick_13">
     <g id="line2d_30"/>
    </g>
    <g id="ytick_14">
     <g id="line2d_31"/>
    </g>
    <g id="ytick_15">
     <g id="line2d_32"/>
    </g>
    <g id="ytick_16">
     <g id="line2d_33"/>
    </g>
    <g id="ytick_17">
     <g id="line2d_34"/>
    </g>
    <g id="ytick_18">
     <g id="line2d_35"/>
    </g>
    <g id="ytick_19">
     <g id="line2d_36"/>
    </g>
    <g id="ytick_20">
     <g id="line2d_37"/>
    </g>
    <g id="ytick_21">
     <g id="line2d_38"/>
    </g>
    <g id="ytick_22">
     <g id="line2d_39"/>
    </g>
    <g id="ytick_23">
     <g id="line2d_40"/>
    </g>
    <g id="ytick_24">
     <g id="line2d_41"/>
    </g>
    <g id="ytick_25">
     <g id="line2d_42"/>
    </g>
    <g id="ytick_26">
     <g id="line2d_43"/>
    </g>
    <g id="ytick_27">
     <g id="line2d_44"/>
    </g>
    <g id="ytick_28">
     <g id="line2d_45"/>
    </g>
    <g id="ytick_29">
     <g id="line2d_46"/>
    </g>
    <g id="ytick_30">
     <g id="line2d_47"/>
    </g>
    <g id="ytick_31">
     <g id="line2d_48"/>
    </g>
    <g id="ytick_32">
     <g id="line2d_49"/>
    </g>
    <g id="ytick_33">
     <g id="line2d_50"/>
    </g>
    <g id="ytick_34">
     <g id="line2d_51"/>
    </g>
    <g id="ytick_35">
     <g id="line2d_52"/>
    </g>
    <g id="ytick_36">
     <g id="line2d_53"/>
    </g>
    <g id="ytick_37">
     <g id="line2d_54"/>
    </g>
    <g id="text_13">
     <!-- Density -->
     <g style="fill: #262626" transform="translate(11.184375 117.640078) rotate(-90) scale(0.15 -0.15)">
      <defs>
       <path id="DejaVuSerif-44" d="M 1581 331 
L 2163 331 
Q 3072 331 3558 850 
Q 4044 1369 4044 2338 
Q 4044 3306 3559 3818 
Q 3075 4331 2163 4331 
L 1581 4331 
L 1581 331 
z
M 353 0 
L 353 331 
L 947 331 
L 947 4331 
L 353 4331 
L 353 4666 
L 2209 4666 
Q 3416 4666 4089 4050 
Q 4763 3434 4763 2338 
Q 4763 1238 4088 619 
Q 3413 0 2209 0 
L 353 0 
z
" transform="scale(0.015625)"/>
       <path id="DejaVuSerif-65" d="M 3469 1600 
L 991 1600 
L 991 1575 
Q 991 903 1244 561 
Q 1497 219 1991 219 
Q 2369 219 2611 417 
Q 2853 616 2950 1006 
L 3413 1006 
Q 3275 459 2904 184 
Q 2534 -91 1931 -91 
Q 1203 -91 761 389 
Q 319 869 319 1663 
Q 319 2450 753 2931 
Q 1188 3413 1894 3413 
Q 2647 3413 3050 2948 
Q 3453 2484 3469 1600 
z
M 2791 1931 
Q 2772 2513 2545 2808 
Q 2319 3103 1894 3103 
Q 1497 3103 1269 2806 
Q 1041 2509 991 1931 
L 2791 1931 
z
" transform="scale(0.015625)"/>
       <path id="DejaVuSerif-6e" d="M 263 0 
L 263 331 
L 781 331 
L 781 2988 
L 231 2988 
L 231 3322 
L 1356 3322 
L 1356 2731 
Q 1516 3069 1770 3241 
Q 2025 3413 2363 3413 
Q 2913 3413 3172 3097 
Q 3431 2781 3431 2113 
L 3431 331 
L 3944 331 
L 3944 0 
L 2356 0 
L 2356 331 
L 2853 331 
L 2853 1931 
Q 2853 2541 2703 2767 
Q 2553 2994 2175 2994 
Q 1775 2994 1565 2701 
Q 1356 2409 1356 1850 
L 1356 331 
L 1856 331 
L 1856 0 
L 263 0 
z
" transform="scale(0.015625)"/>
       <path id="DejaVuSerif-73" d="M 359 184 
L 359 959 
L 691 959 
Q 703 588 923 403 
Q 1144 219 1575 219 
Q 1963 219 2166 364 
Q 2369 509 2369 788 
Q 2369 1006 2220 1140 
Q 2072 1275 1594 1428 
L 1178 1569 
Q 750 1706 558 1912 
Q 366 2119 366 2438 
Q 366 2894 700 3153 
Q 1034 3413 1625 3413 
Q 1888 3413 2178 3344 
Q 2469 3275 2778 3144 
L 2778 2419 
L 2447 2419 
Q 2434 2741 2221 2922 
Q 2009 3103 1644 3103 
Q 1281 3103 1095 2975 
Q 909 2847 909 2591 
Q 909 2381 1050 2254 
Q 1191 2128 1613 1997 
L 2069 1856 
Q 2541 1709 2748 1489 
Q 2956 1269 2956 922 
Q 2956 450 2595 179 
Q 2234 -91 1600 -91 
Q 1278 -91 972 -22 
Q 666 47 359 184 
z
" transform="scale(0.015625)"/>
       <path id="DejaVuSerif-69" d="M 622 4353 
Q 622 4497 726 4603 
Q 831 4709 978 4709 
Q 1122 4709 1226 4603 
Q 1331 4497 1331 4353 
Q 1331 4206 1228 4103 
Q 1125 4000 978 4000 
Q 831 4000 726 4103 
Q 622 4206 622 4353 
z
M 1356 331 
L 1900 331 
L 1900 0 
L 231 0 
L 231 331 
L 781 331 
L 781 2988 
L 231 2988 
L 231 3322 
L 1356 3322 
L 1356 331 
z
" transform="scale(0.015625)"/>
       <path id="DejaVuSerif-74" d="M 691 2988 
L 184 2988 
L 184 3322 
L 691 3322 
L 691 4353 
L 1269 4353 
L 1269 3322 
L 2350 3322 
L 2350 2988 
L 1269 2988 
L 1269 878 
Q 1269 456 1350 337 
Q 1431 219 1650 219 
Q 1875 219 1978 351 
Q 2081 484 2088 781 
L 2522 781 
Q 2497 328 2275 118 
Q 2053 -91 1600 -91 
Q 1103 -91 897 129 
Q 691 350 691 878 
L 691 2988 
z
" transform="scale(0.015625)"/>
       <path id="DejaVuSerif-79" d="M 1381 -609 
L 1600 -56 
L 359 2988 
L -19 2988 
L -19 3322 
L 1509 3322 
L 1509 2988 
L 978 2988 
L 1913 703 
L 2847 2988 
L 2350 2988 
L 2350 3322 
L 3597 3322 
L 3597 2988 
L 3225 2988 
L 1703 -750 
Q 1547 -1138 1356 -1280 
Q 1166 -1422 819 -1422 
Q 672 -1422 517 -1397 
Q 363 -1372 206 -1325 
L 206 -691 
L 500 -691 
Q 519 -903 608 -995 
Q 697 -1088 884 -1088 
Q 1056 -1088 1161 -992 
Q 1266 -897 1381 -609 
z
" transform="scale(0.015625)"/>
      </defs>
      <use xlink:href="#DejaVuSerif-44"/>
      <use xlink:href="#DejaVuSerif-65" x="80.175781"/>
      <use xlink:href="#DejaVuSerif-6e" x="139.355469"/>
      <use xlink:href="#DejaVuSerif-73" x="203.759766"/>
      <use xlink:href="#DejaVuSerif-69" x="255.078125"/>
      <use xlink:href="#DejaVuSerif-74" x="287.060547"/>
      <use xlink:href="#DejaVuSerif-79" x="327.246094"/>
     </g>
    </g>
   </g>
   <g id="PolyCollection_1">
    <path d="M 75.169893 242.736106 
L 75.169893 41668.858828 
L 75.782507 41668.858828 
L 76.395122 41668.858828 
L 77.007736 41668.858828 
L 77.620351 41668.858828 
L 78.232965 41668.858828 
L 78.845579 41668.858828 
L 79.458194 41668.858828 
L 80.070808 41668.858828 
L 80.683423 41668.858828 
L 81.296037 41668.858828 
L 81.908651 41668.858828 
L 82.521266 41668.858828 
L 83.13388 41668.858828 
L 83.746495 41668.858828 
L 84.359109 41668.858828 
L 84.971724 41668.858828 
L 85.584338 41668.858828 
L 86.196952 41668.858828 
L 86.809567 41668.858828 
L 87.422181 41668.858828 
L 88.034796 41668.858828 
L 88.64741 41668.858828 
L 89.260024 41668.858828 
L 89.872639 41668.858828 
L 90.485253 41668.858828 
L 91.097868 41668.858828 
L 91.710482 41668.858828 
L 92.323096 41668.858828 
L 92.935711 41668.858828 
L 93.548325 41668.858828 
L 94.16094 41668.858828 
L 94.773554 41668.858828 
L 95.386168 41668.858828 
L 95.998783 41668.858828 
L 96.611397 41668.858828 
L 97.224012 41668.858828 
L 97.836626 41668.858828 
L 98.44924 41668.858828 
L 99.061855 41668.858828 
L 99.674469 41668.858828 
L 100.287084 41668.858828 
L 100.899698 41668.858828 
L 101.512312 41668.858828 
L 102.124927 41668.858828 
L 102.737541 41668.858828 
L 103.350156 41668.858828 
L 103.96277 41668.858828 
L 104.575385 41668.858828 
L 105.187999 41668.858828 
L 105.800613 41668.858828 
L 106.413228 41668.858828 
L 107.025842 41668.858828 
L 107.638457 41668.858828 
L 108.251071 41668.858828 
L 108.863685 41668.858828 
L 109.4763 41668.858828 
L 110.088914 41668.858828 
L 110.701529 41668.858828 
L 111.314143 41668.858828 
L 111.926757 41668.858828 
L 112.539372 41668.858828 
L 113.151986 41668.858828 
L 113.764601 41668.858828 
L 114.377215 41668.858828 
L 114.989829 41668.858828 
L 115.602444 41668.858828 
L 116.215058 41668.858828 
L 116.827673 41668.858828 
L 117.440287 41668.858828 
L 118.052901 41668.858828 
L 118.665516 41668.858828 
L 119.27813 41668.858828 
L 119.890745 41668.858828 
L 120.503359 41668.858828 
L 121.115974 41668.858828 
L 121.728588 41668.858828 
L 122.341202 41668.858828 
L 122.953817 41668.858828 
L 123.566431 41668.858828 
L 124.179046 41668.858828 
L 124.79166 41668.858828 
L 125.404274 41668.858828 
L 126.016889 41668.858828 
L 126.629503 41668.858828 
L 127.242118 41668.858828 
L 127.854732 41668.858828 
L 128.467346 41668.858828 
L 129.079961 41668.858828 
L 129.692575 41668.858828 
L 130.30519 41668.858828 
L 130.917804 41668.858828 
L 131.530418 41668.858828 
L 132.143033 41668.858828 
L 132.755647 41668.858828 
L 133.368262 41668.858828 
L 133.980876 41668.858828 
L 134.59349 41668.858828 
L 135.206105 41668.858828 
L 135.818719 41668.858828 
L 136.431334 41668.858828 
L 137.043948 41668.858828 
L 137.656562 41668.858828 
L 138.269177 41668.858828 
L 138.881791 41668.858828 
L 139.494406 41668.858828 
L 140.10702 41668.858828 
L 140.719635 41668.858828 
L 141.332249 41668.858828 
L 141.944863 41668.858828 
L 142.557478 41668.858828 
L 143.170092 41668.858828 
L 143.782707 41668.858828 
L 144.395321 41668.858828 
L 145.007935 41668.858828 
L 145.62055 41668.858828 
L 146.233164 41668.858828 
L 146.845779 41668.858828 
L 147.458393 41668.858828 
L 148.071007 41668.858828 
L 148.683622 41668.858828 
L 149.296236 41668.858828 
L 149.908851 41668.858828 
L 150.521465 41668.858828 
L 151.134079 41668.858828 
L 151.746694 41668.858828 
L 152.359308 41668.858828 
L 152.971923 41668.858828 
L 153.584537 41668.858828 
L 154.197151 41668.858828 
L 154.809766 41668.858828 
L 155.42238 41668.858828 
L 156.034995 41668.858828 
L 156.647609 41668.858828 
L 157.260224 41668.858828 
L 157.872838 41668.858828 
L 158.485452 41668.858828 
L 159.098067 41668.858828 
L 159.710681 41668.858828 
L 160.323296 41668.858828 
L 160.93591 41668.858828 
L 161.548524 41668.858828 
L 162.161139 41668.858828 
L 162.773753 41668.858828 
L 163.386368 41668.858828 
L 163.998982 41668.858828 
L 164.611596 41668.858828 
L 165.224211 41668.858828 
L 165.836825 41668.858828 
L 166.44944 41668.858828 
L 167.062054 41668.858828 
L 167.674668 41668.858828 
L 168.287283 41668.858828 
L 168.899897 41668.858828 
L 169.512512 41668.858828 
L 170.125126 41668.858828 
L 170.73774 41668.858828 
L 171.350355 41668.858828 
L 171.962969 41668.858828 
L 172.575584 41668.858828 
L 173.188198 41668.858828 
L 173.800812 41668.858828 
L 174.413427 41668.858828 
L 175.026041 41668.858828 
L 175.638656 41668.858828 
L 176.25127 41668.858828 
L 176.863885 41668.858828 
L 177.476499 41668.858828 
L 178.089113 41668.858828 
L 178.701728 41668.858828 
L 179.314342 41668.858828 
L 179.926957 41668.858828 
L 180.539571 41668.858828 
L 181.152185 41668.858828 
L 181.7648 41668.858828 
L 182.377414 41668.858828 
L 182.990029 41668.858828 
L 183.602643 41668.858828 
L 184.215257 41668.858828 
L 184.827872 41668.858828 
L 185.440486 41668.858828 
L 186.053101 41668.858828 
L 186.665715 41668.858828 
L 187.278329 41668.858828 
L 187.890944 41668.858828 
L 188.503558 41668.858828 
L 189.116173 41668.858828 
L 189.728787 41668.858828 
L 190.341401 41668.858828 
L 190.954016 41668.858828 
L 191.56663 41668.858828 
L 192.179245 41668.858828 
L 192.791859 41668.858828 
L 193.404474 41668.858828 
L 194.017088 41668.858828 
L 194.629702 41668.858828 
L 195.242317 41668.858828 
L 195.854931 41668.858828 
L 196.467546 41668.858828 
L 197.08016 41668.858828 
L 197.692774 41668.858828 
L 198.305389 41668.858828 
L 198.918003 41668.858828 
L 199.530618 41668.858828 
L 200.143232 41668.858828 
L 200.755846 41668.858828 
L 201.368461 41668.858828 
L 201.981075 41668.858828 
L 202.59369 41668.858828 
L 203.206304 41668.858828 
L 203.818918 41668.858828 
L 204.431533 41668.858828 
L 205.044147 41668.858828 
L 205.656762 41668.858828 
L 206.269376 41668.858828 
L 206.88199 41668.858828 
L 207.494605 41668.858828 
L 208.107219 41668.858828 
L 208.719834 41668.858828 
L 209.332448 41668.858828 
L 209.945062 41668.858828 
L 210.557677 41668.858828 
L 211.170291 41668.858828 
L 211.782906 41668.858828 
L 212.39552 41668.858828 
L 213.008135 41668.858828 
L 213.620749 41668.858828 
L 214.233363 41668.858828 
L 214.845978 41668.858828 
L 215.458592 41668.858828 
L 216.071207 41668.858828 
L 216.683821 41668.858828 
L 217.296435 41668.858828 
L 217.90905 41668.858828 
L 218.521664 41668.858828 
L 219.134279 41668.858828 
L 219.746893 41668.858828 
L 220.359507 41668.858828 
L 220.972122 41668.858828 
L 221.584736 41668.858828 
L 222.197351 41668.858828 
L 222.809965 41668.858828 
L 223.422579 41668.858828 
L 224.035194 41668.858828 
L 224.647808 41668.858828 
L 225.260423 41668.858828 
L 225.873037 41668.858828 
L 226.485651 41668.858828 
L 227.098266 41668.858828 
L 227.71088 41668.858828 
L 228.323495 41668.858828 
L 228.936109 41668.858828 
L 229.548724 41668.858828 
L 230.161338 41668.858828 
L 230.773952 41668.858828 
L 231.386567 41668.858828 
L 231.999181 41668.858828 
L 232.611796 41668.858828 
L 233.22441 41668.858828 
L 233.837024 41668.858828 
L 234.449639 41668.858828 
L 235.062253 41668.858828 
L 235.674868 41668.858828 
L 236.287482 41668.858828 
L 236.900096 41668.858828 
L 237.512711 41668.858828 
L 238.125325 41668.858828 
L 238.73794 41668.858828 
L 239.350554 41668.858828 
L 239.963168 41668.858828 
L 240.575783 41668.858828 
L 241.188397 41668.858828 
L 241.801012 41668.858828 
L 242.413626 41668.858828 
L 243.02624 41668.858828 
L 243.638855 41668.858828 
L 244.251469 41668.858828 
L 244.864084 41668.858828 
L 245.476698 41668.858828 
L 246.089313 41668.858828 
L 246.701927 41668.858828 
L 247.314541 41668.858828 
L 247.927156 41668.858828 
L 248.53977 41668.858828 
L 249.152385 41668.858828 
L 249.764999 41668.858828 
L 250.377613 41668.858828 
L 250.990228 41668.858828 
L 251.602842 41668.858828 
L 252.215457 41668.858828 
L 252.828071 41668.858828 
L 253.440685 41668.858828 
L 254.0533 41668.858828 
L 254.665914 41668.858828 
L 255.278529 41668.858828 
L 255.891143 41668.858828 
L 256.503757 41668.858828 
L 257.116372 41668.858828 
L 257.728986 41668.858828 
L 258.341601 41668.858828 
L 258.954215 41668.858828 
L 259.566829 41668.858828 
L 260.179444 41668.858828 
L 260.792058 41668.858828 
L 261.404673 41668.858828 
L 262.017287 41668.858828 
L 262.629901 41668.858828 
L 263.242516 41668.858828 
L 263.85513 41668.858828 
L 264.467745 41668.858828 
L 265.080359 41668.858828 
L 265.692974 41668.858828 
L 266.305588 41668.858828 
L 266.918202 41668.858828 
L 267.530817 41668.858828 
L 268.143431 41668.858828 
L 268.756046 41668.858828 
L 269.36866 41668.858828 
L 269.981274 41668.858828 
L 270.593889 41668.858828 
L 271.206503 41668.858828 
L 271.819118 41668.858828 
L 272.431732 41668.858828 
L 273.044346 41668.858828 
L 273.656961 41668.858828 
L 274.269575 41668.858828 
L 274.88219 41668.858828 
L 275.494804 41668.858828 
L 276.107418 41668.858828 
L 276.720033 41668.858828 
L 277.332647 41668.858828 
L 277.945262 41668.858828 
L 278.557876 41668.858828 
L 279.17049 41668.858828 
L 279.783105 41668.858828 
L 280.395719 41668.858828 
L 281.008334 41668.858828 
L 281.620948 41668.858828 
L 282.233563 41668.858828 
L 282.846177 41668.858828 
L 283.458791 41668.858828 
L 284.071406 41668.858828 
L 284.68402 41668.858828 
L 285.296635 41668.858828 
L 285.909249 41668.858828 
L 286.521863 41668.858828 
L 287.134478 41668.858828 
L 287.747092 41668.858828 
L 288.359707 41668.858828 
L 288.972321 41668.858828 
L 289.584935 41668.858828 
L 290.19755 41668.858828 
L 290.810164 41668.858828 
L 291.422779 41668.858828 
L 292.035393 41668.858828 
L 292.648007 41668.858828 
L 293.260622 41668.858828 
L 293.873236 41668.858828 
L 294.485851 41668.858828 
L 295.098465 41668.858828 
L 295.711079 41668.858828 
L 296.323694 41668.858828 
L 296.936308 41668.858828 
L 297.548923 41668.858828 
L 298.161537 41668.858828 
L 298.774151 41668.858828 
L 299.386766 41668.858828 
L 299.99938 41668.858828 
L 300.611995 41668.858828 
L 301.224609 41668.858828 
L 301.837224 41668.858828 
L 302.449838 41668.858828 
L 303.062452 41668.858828 
L 303.675067 41668.858828 
L 304.287681 41668.858828 
L 304.900296 41668.858828 
L 305.51291 41668.858828 
L 306.125524 41668.858828 
L 306.738139 41668.858828 
L 307.350753 41668.858828 
L 307.963368 41668.858828 
L 308.575982 41668.858828 
L 309.188596 41668.858828 
L 309.801211 41668.858828 
L 310.413825 41668.858828 
L 311.02644 41668.858828 
L 311.639054 41668.858828 
L 312.251668 41668.858828 
L 312.864283 41668.858828 
L 313.476897 41668.858828 
L 314.089512 41668.858828 
L 314.702126 41668.858828 
L 315.31474 41668.858828 
L 315.927355 41668.858828 
L 316.539969 41668.858828 
L 317.152584 41668.858828 
L 317.765198 41668.858828 
L 318.377813 41668.858828 
L 318.990427 41668.858828 
L 319.603041 41668.858828 
L 320.215656 41668.858828 
L 320.82827 41668.858828 
L 321.440885 41668.858828 
L 322.053499 41668.858828 
L 322.666113 41668.858828 
L 323.278728 41668.858828 
L 323.891342 41668.858828 
L 324.503957 41668.858828 
L 325.116571 41668.858828 
L 325.729185 41668.858828 
L 326.3418 41668.858828 
L 326.954414 41668.858828 
L 327.567029 41668.858828 
L 328.179643 41668.858828 
L 328.792257 41668.858828 
L 329.404872 41668.858828 
L 330.017486 41668.858828 
L 330.630101 41668.858828 
L 331.242715 41668.858828 
L 331.855329 41668.858828 
L 332.467944 41668.858828 
L 333.080558 41668.858828 
L 333.693173 41668.858828 
L 334.305787 41668.858828 
L 334.918401 41668.858828 
L 335.531016 41668.858828 
L 336.14363 41668.858828 
L 336.756245 41668.858828 
L 337.368859 41668.858828 
L 337.981474 41668.858828 
L 338.594088 41668.858828 
L 339.206702 41668.858828 
L 339.819317 41668.858828 
L 340.431931 41668.858828 
L 341.044546 41668.858828 
L 341.65716 41668.858828 
L 342.269774 41668.858828 
L 342.882389 41668.858828 
L 343.495003 41668.858828 
L 344.107618 41668.858828 
L 344.720232 41668.858828 
L 345.332846 41668.858828 
L 345.945461 41668.858828 
L 346.558075 41668.858828 
L 347.17069 41668.858828 
L 347.783304 41668.858828 
L 348.395918 41668.858828 
L 349.008533 41668.858828 
L 349.621147 41668.858828 
L 350.233762 41668.858828 
L 350.846376 41668.858828 
L 351.45899 41668.858828 
L 352.071605 41668.858828 
L 352.684219 41668.858828 
L 353.296834 41668.858828 
L 353.909448 41668.858828 
L 354.522063 41668.858828 
L 355.134677 41668.858828 
L 355.747291 41668.858828 
L 356.359906 41668.858828 
L 356.97252 41668.858828 
L 357.585135 41668.858828 
L 358.197749 41668.858828 
L 358.810363 41668.858828 
L 359.422978 41668.858828 
L 360.035592 41668.858828 
L 360.648207 41668.858828 
L 361.260821 41668.858828 
L 361.873435 41668.858828 
L 362.48605 41668.858828 
L 363.098664 41668.858828 
L 363.711279 41668.858828 
L 364.323893 41668.858828 
L 364.936507 41668.858828 
L 365.549122 41668.858828 
L 366.161736 41668.858828 
L 366.774351 41668.858828 
L 367.386965 41668.858828 
L 367.999579 41668.858828 
L 368.612194 41668.858828 
L 369.224808 41668.858828 
L 369.837423 41668.858828 
L 370.450037 41668.858828 
L 371.062651 41668.858828 
L 371.675266 41668.858828 
L 372.28788 41668.858828 
L 372.900495 41668.858828 
L 373.513109 41668.858828 
L 374.125724 41668.858828 
L 374.738338 41668.858828 
L 375.350952 41668.858828 
L 375.963567 41668.858828 
L 376.576181 41668.858828 
L 377.188796 41668.858828 
L 377.80141 41668.858828 
L 378.414024 41668.858828 
L 379.026639 41668.858828 
L 379.639253 41668.858828 
L 380.251868 41668.858828 
L 380.864482 41668.858828 
L 380.864482 242.748275 
L 380.864482 242.748275 
L 380.251868 162.00018 
L 379.639253 218.979534 
L 379.026639 266.023882 
L 378.414024 165.197442 
L 377.80141 202.093377 
L 377.188796 376.716763 
L 376.576181 689.0676 
L 375.963567 1139.145888 
L 375.350952 1726.951627 
L 374.738338 2452.484818 
L 374.125724 3315.745459 
L 373.513109 2825.684819 
L 372.900495 2037.888618 
L 372.28788 1387.819868 
L 371.675266 875.478569 
L 371.062651 500.864722 
L 370.450037 263.978325 
L 369.837423 164.819379 
L 369.224808 203.387884 
L 368.612194 379.68384 
L 367.999579 669.84769 
L 367.386965 368.052193 
L 366.774351 198.380229 
L 366.161736 166.435716 
L 365.549122 272.169694 
L 364.936507 203.054919 
L 364.323893 164.914124 
L 363.711279 264.50078 
L 363.098664 501.814887 
L 362.48605 650.028776 
L 361.873435 352.053193 
L 361.260821 191.804998 
L 360.648207 169.284243 
L 360.035592 225.615684 
L 359.422978 161.548151 
L 358.810363 229.938101 
L 358.197749 155.182489 
L 357.585135 178.991952 
L 356.97252 161.726207 
L 356.359906 161.367199 
L 355.747291 234.208125 
L 355.134677 444.601814 
L 354.522063 326.802311 
L 353.909448 181.90163 
L 353.296834 155.548186 
L 352.684219 161.3676 
L 352.071605 214.421016 
L 351.45899 404.037289 
L 350.846376 731.358799 
L 350.233762 485.345091 
L 349.621147 254.975229 
L 349.008533 156.910989 
L 348.395918 154.862301 
L 347.783304 220.501395 
L 347.17069 356.261709 
L 346.558075 191.687834 
L 345.945461 142.528125 
L 345.332846 172.305192 
L 344.720232 210.090016 
L 344.107618 154.465076 
L 343.495003 174.337213 
L 342.882389 148.553188 
L 342.269774 148.196647 
L 341.65716 259.039406 
L 341.044546 182.994336 
L 340.431931 154.997335 
L 339.819317 175.521304 
L 339.206702 153.274885 
L 338.594088 151.796484 
L 337.981474 149.549352 
L 337.368859 151.676348 
L 336.756245 183.906295 
L 336.14363 173.940729 
L 335.531016 197.008547 
L 334.918401 137.342557 
L 334.305787 142.677179 
L 333.693173 150.71647 
L 333.080558 148.81585 
L 332.467944 137.479793 
L 331.855329 142.134865 
L 331.242715 153.155624 
L 330.630101 152.459114 
L 330.017486 157.48455 
L 329.404872 137.307559 
L 328.792257 131.677231 
L 328.179643 129.205163 
L 327.567029 140.035818 
L 326.954414 175.299742 
L 326.3418 149.211343 
L 325.729185 136.959818 
L 325.116571 129.893928 
L 324.503957 135.605752 
L 323.891342 148.674367 
L 323.278728 149.927819 
L 322.666113 134.562086 
L 322.053499 131.174514 
L 321.440885 160.162506 
L 320.82827 146.865427 
L 320.215656 124.244831 
L 319.603041 137.11631 
L 318.990427 126.073171 
L 318.377813 129.199656 
L 317.765198 131.123836 
L 317.152584 136.591917 
L 316.539969 138.983291 
L 315.927355 137.228118 
L 315.31474 126.7235 
L 314.702126 132.83854 
L 314.089512 138.478161 
L 313.476897 127.390823 
L 312.864283 125.033938 
L 312.251668 129.780254 
L 311.639054 126.190017 
L 311.02644 136.873734 
L 310.413825 129.987648 
L 309.801211 124.501249 
L 309.188596 124.862698 
L 308.575982 142.643956 
L 307.963368 127.553089 
L 307.350753 118.283831 
L 306.738139 125.382145 
L 306.125524 125.751657 
L 305.51291 132.363416 
L 304.900296 123.678841 
L 304.287681 129.472032 
L 303.675067 124.072932 
L 303.062452 124.623019 
L 302.449838 123.514521 
L 301.837224 125.838906 
L 301.224609 135.732597 
L 300.611995 117.665265 
L 299.99938 124.466752 
L 299.386766 118.089877 
L 298.774151 113.193524 
L 298.161537 114.662176 
L 297.548923 124.358653 
L 296.936308 117.738268 
L 296.323694 119.38549 
L 295.711079 121.360899 
L 295.098465 117.717307 
L 294.485851 113.606151 
L 293.873236 120.746537 
L 293.260622 131.699487 
L 292.648007 120.681216 
L 292.035393 113.228465 
L 291.422779 113.718342 
L 290.810164 122.550195 
L 290.19755 113.132358 
L 289.584935 108.077093 
L 288.972321 115.680304 
L 288.359707 117.792529 
L 287.747092 121.751632 
L 287.134478 120.667592 
L 286.521863 108.565197 
L 285.909249 112.328161 
L 285.296635 113.468403 
L 284.68402 110.061937 
L 284.071406 113.831215 
L 283.458791 111.483232 
L 282.846177 110.757821 
L 282.233563 108.101433 
L 281.620948 111.930657 
L 281.008334 117.722173 
L 280.395719 113.857718 
L 279.783105 110.830406 
L 279.17049 112.14619 
L 278.557876 111.817587 
L 277.945262 104.853301 
L 277.332647 110.455388 
L 276.720033 111.287879 
L 276.107418 112.464196 
L 275.494804 105.034053 
L 274.88219 102.951529 
L 274.269575 102.808928 
L 273.656961 107.242418 
L 273.044346 102.661598 
L 272.431732 105.489612 
L 271.819118 108.131168 
L 271.206503 106.228815 
L 270.593889 108.544577 
L 269.981274 111.663508 
L 269.36866 100.606054 
L 268.756046 104.109009 
L 268.143431 97.594215 
L 267.530817 98.052959 
L 266.918202 94.414336 
L 266.305588 101.2916 
L 265.692974 107.212109 
L 265.080359 105.646085 
L 264.467745 99.979054 
L 263.85513 106.245253 
L 263.242516 107.247137 
L 262.629901 107.978061 
L 262.017287 102.125343 
L 261.404673 99.565364 
L 260.792058 99.675612 
L 260.179444 94.071179 
L 259.566829 98.085803 
L 258.954215 91.668465 
L 258.341601 99.325566 
L 257.728986 104.90994 
L 257.116372 96.696148 
L 256.503757 97.423431 
L 255.891143 98.814353 
L 255.278529 99.726883 
L 254.665914 98.658024 
L 254.0533 99.267854 
L 253.440685 99.487817 
L 252.828071 98.217404 
L 252.215457 97.612997 
L 251.602842 95.845333 
L 250.990228 91.113711 
L 250.377613 92.810845 
L 249.764999 95.385729 
L 249.152385 93.411102 
L 248.53977 97.933446 
L 247.927156 94.814373 
L 247.314541 94.381566 
L 246.701927 102.736818 
L 246.089313 97.299703 
L 245.476698 98.127275 
L 244.864084 94.150493 
L 244.251469 93.532878 
L 243.638855 92.915107 
L 243.02624 88.248274 
L 242.413626 89.853458 
L 241.801012 89.047143 
L 241.188397 93.612652 
L 240.575783 91.837829 
L 239.963168 94.377222 
L 239.350554 92.278144 
L 238.73794 100.470916 
L 238.125325 97.134366 
L 237.512711 96.207775 
L 236.900096 101.35545 
L 236.287482 89.732858 
L 235.674868 92.527673 
L 235.062253 87.807702 
L 234.449639 83.667663 
L 233.837024 83.93058 
L 233.22441 85.511002 
L 232.611796 86.422297 
L 231.999181 92.410603 
L 231.386567 86.315075 
L 230.773952 89.405794 
L 230.161338 93.805107 
L 229.548724 92.664498 
L 228.936109 96.669847 
L 228.323495 92.815231 
L 227.71088 91.916455 
L 227.098266 93.808134 
L 226.485651 86.551775 
L 225.873037 86.064307 
L 225.260423 84.628556 
L 224.647808 82.441131 
L 224.035194 80.410052 
L 223.422579 80.855925 
L 222.809965 83.04382 
L 222.197351 88.97248 
L 221.584736 98.930307 
L 220.972122 94.172044 
L 220.359507 91.526005 
L 219.746893 91.134899 
L 219.134279 90.32467 
L 218.521664 89.747545 
L 217.90905 83.274388 
L 217.296435 83.823994 
L 216.683821 81.722915 
L 216.071207 80.007853 
L 215.458592 78.536506 
L 214.845978 83.887267 
L 214.233363 82.453477 
L 213.620749 85.704985 
L 213.008135 89.70493 
L 212.39552 89.336581 
L 211.782906 89.740716 
L 211.170291 91.965439 
L 210.557677 89.174414 
L 209.945062 85.646076 
L 209.332448 82.951812 
L 208.719834 79.693576 
L 208.107219 77.71309 
L 207.494605 76.229871 
L 206.88199 77.038987 
L 206.269376 74.950727 
L 205.656762 79.868691 
L 205.044147 82.752596 
L 204.431533 84.012311 
L 203.818918 87.728708 
L 203.206304 91.846822 
L 202.59369 92.470981 
L 201.981075 87.863574 
L 201.368461 90.87069 
L 200.755846 86.343033 
L 200.143232 83.580134 
L 199.530618 76.011522 
L 198.918003 76.233575 
L 198.305389 74.588842 
L 197.692774 74.927268 
L 197.08016 74.780514 
L 196.467546 81.964921 
L 195.854931 86.269152 
L 195.242317 89.080768 
L 194.629702 89.050368 
L 194.017088 93.772516 
L 193.404474 93.152495 
L 192.791859 88.363861 
L 192.179245 82.54669 
L 191.56663 78.656984 
L 190.954016 75.985585 
L 190.341401 77.469105 
L 189.728787 77.401202 
L 189.116173 74.988 
L 188.503558 72.989725 
L 187.890944 75.648737 
L 187.278329 79.437384 
L 186.665715 82.014933 
L 186.053101 85.192491 
L 185.440486 87.445778 
L 184.827872 93.361948 
L 184.215257 95.856144 
L 183.602643 88.629727 
L 182.990029 85.321684 
L 182.377414 81.421143 
L 181.7648 78.963639 
L 181.152185 77.338079 
L 180.539571 71.966057 
L 179.926957 73.457449 
L 179.314342 72.037477 
L 178.701728 75.606891 
L 178.089113 77.286563 
L 177.476499 80.795633 
L 176.863885 86.702877 
L 176.25127 92.968006 
L 175.638656 96.37502 
L 175.026041 93.195608 
L 174.413427 91.437623 
L 173.800812 88.417563 
L 173.188198 81.504946 
L 172.575584 75.69721 
L 171.962969 73.179415 
L 171.350355 73.946508 
L 170.73774 73.191815 
L 170.125126 71.692897 
L 169.512512 75.642674 
L 168.899897 80.584256 
L 168.287283 84.263671 
L 167.674668 90.528401 
L 167.062054 98.211795 
L 166.44944 97.683548 
L 165.836825 91.883266 
L 165.224211 87.717597 
L 164.611596 85.272251 
L 163.998982 78.081134 
L 163.386368 75.246467 
L 162.773753 72.843372 
L 162.161139 72.673774 
L 161.548524 70.753414 
L 160.93591 74.44358 
L 160.323296 76.458515 
L 159.710681 78.541201 
L 159.098067 81.805625 
L 158.485452 93.173606 
L 157.872838 94.958468 
L 157.260224 96.475891 
L 156.647609 94.988349 
L 156.034995 90.332458 
L 155.42238 81.113674 
L 154.809766 77.515681 
L 154.197151 73.28063 
L 153.584537 71.483373 
L 152.971923 68.701661 
L 152.359308 70.868611 
L 151.746694 74.88073 
L 151.134079 81.109463 
L 150.521465 89.200918 
L 149.908851 93.508958 
L 149.296236 99.078983 
L 148.683622 101.765209 
L 148.071007 94.641127 
L 147.458393 87.266056 
L 146.845779 81.388015 
L 146.233164 76.970746 
L 145.62055 72.009313 
L 145.007935 71.702285 
L 144.395321 70.464883 
L 143.782707 72.090304 
L 143.170092 74.556087 
L 142.557478 78.716693 
L 141.944863 90.464852 
L 141.332249 95.286843 
L 140.719635 99.759788 
L 140.10702 101.889898 
L 139.494406 96.797968 
L 138.881791 87.539702 
L 138.269177 79.05236 
L 137.656562 74.511657 
L 137.043948 71.934536 
L 136.431334 70.289712 
L 135.818719 69.932794 
L 135.206105 73.331275 
L 134.59349 78.631688 
L 133.980876 84.004453 
L 133.368262 92.41552 
L 132.755647 95.155804 
L 132.143033 103.336622 
L 131.530418 105.050673 
L 130.917804 95.925122 
L 130.30519 87.987382 
L 129.692575 78.361117 
L 129.079961 74.333989 
L 128.467346 68.885102 
L 127.854732 67.565318 
L 127.242118 69.367894 
L 126.629503 71.899318 
L 126.016889 78.66013 
L 125.404274 84.476371 
L 124.79166 95.581045 
L 124.179046 103.039421 
L 123.566431 98.431339 
L 122.953817 103.820581 
L 122.341202 96.495294 
L 121.728588 84.200804 
L 121.115974 75.999981 
L 120.503359 71.40706 
L 119.890745 68.246277 
L 119.27813 68.451895 
L 118.665516 68.042321 
L 118.052901 73.211181 
L 117.440287 77.510612 
L 116.827673 87.31865 
L 116.215058 97.313335 
L 115.602444 100.109782 
L 114.989829 107.222932 
L 114.377215 97.61158 
L 113.764601 89.954455 
L 113.151986 80.670853 
L 112.539372 75.625279 
L 111.926757 71.340846 
L 111.314143 65.620658 
L 110.701529 65.914777 
L 110.088914 69.719761 
L 109.4763 74.767031 
L 108.863685 79.62517 
L 108.251071 90.985439 
L 107.638457 97.831087 
L 107.025842 104.772596 
L 106.413228 95.359488 
L 105.800613 87.472471 
L 105.187999 81.53859 
L 104.575385 75.895192 
L 103.96277 72.07149 
L 103.350156 68.156225 
L 102.737541 65.968036 
L 102.124927 69.008327 
L 101.512312 76.00066 
L 100.899698 87.782573 
L 100.287084 91.260757 
L 99.674469 90.338618 
L 99.061855 81.761291 
L 98.44924 76.454142 
L 97.836626 71.30092 
L 97.224012 70.574996 
L 96.611397 65.2055 
L 95.998783 67.34455 
L 95.386168 71.100759 
L 94.773554 78.971057 
L 94.16094 83.905492 
L 93.548325 76.731522 
L 92.935711 69.235451 
L 92.323096 65.216689 
L 91.710482 66.525968 
L 91.097868 69.056955 
L 90.485253 70.167868 
L 89.872639 75.113404 
L 89.260024 80.528264 
L 88.64741 81.349998 
L 88.034796 72.866345 
L 87.422181 65.002671 
L 86.809567 58.452727 
L 86.196952 58.846187 
L 85.584338 65.09827 
L 84.971724 73.860737 
L 84.359109 78.346419 
L 83.746495 83.200487 
L 83.13388 72.861702 
L 82.521266 59.695852 
L 81.908651 54.834519 
L 81.296037 60.486184 
L 80.683423 71.970015 
L 80.070808 85.104858 
L 79.458194 79.642254 
L 78.845579 71.229414 
L 78.232965 67.641252 
L 77.620351 77.882713 
L 77.007736 92.325774 
L 76.395122 111.153328 
L 75.782507 156.949745 
L 75.169893 242.736106 
z
" clip-path="url(#p3ee6f9a1f0)" style="fill: #4c72b0; fill-opacity: 0.25; stroke: #4c72b0; stroke-width: 0.3"/>
   </g>
   <g id="patch_3">
    <path d="M 60.617188 172.018828 
L 60.617188 5.698828 
" style="fill: none"/>
   </g>
   <g id="patch_4">
    <path d="M 395.417188 172.018828 
L 395.417188 5.698828 
" style="fill: none"/>
   </g>
   <g id="patch_5">
    <path d="M 60.617188 172.018828 
L 395.417188 172.018828 
" style="fill: none"/>
   </g>
   <g id="patch_6">
    <path d="M 60.617188 5.698828 
L 395.417188 5.698828 
" style="fill: none"/>
   </g>
   <g id="text_14">
    <!-- 0 -->
    <g transform="translate(78.409632 64.1918) scale(0.1 -0.1)">
     <use xlink:href="#DejaVuSerif-30"/>
    </g>
   </g>
   <g id="text_15">
    <!-- 1 -->
    <g transform="translate(81.921286 53.876427) scale(0.1 -0.1)">
     <use xlink:href="#DejaVuSerif-31"/>
    </g>
   </g>
   <g id="text_16">
    <!-- 2 -->
    <g transform="translate(86.464644 56.483328) scale(0.1 -0.1)">
     <use xlink:href="#DejaVuSerif-32"/>
    </g>
   </g>
   <g id="text_17">
    <!-- 3 -->
    <g transform="translate(91.631024 61.387127) scale(0.1 -0.1)">
     <defs>
      <path id="DejaVuSerif-33" d="M 622 4469 
Q 988 4606 1323 4678 
Q 1659 4750 1953 4750 
Q 2638 4750 3022 4454 
Q 3406 4159 3406 3634 
Q 3406 3213 3140 2930 
Q 2875 2647 2388 2547 
Q 2963 2466 3280 2130 
Q 3597 1794 3597 1259 
Q 3597 606 3158 257 
Q 2719 -91 1894 -91 
Q 1528 -91 1179 -12 
Q 831 66 488 225 
L 488 1131 
L 838 1131 
Q 869 681 1141 450 
Q 1413 219 1906 219 
Q 2384 219 2661 495 
Q 2938 772 2938 1253 
Q 2938 1803 2653 2086 
Q 2369 2369 1819 2369 
L 1522 2369 
L 1522 2688 
L 1678 2688 
Q 2225 2688 2498 2914 
Q 2772 3141 2772 3597 
Q 2772 4006 2547 4223 
Q 2322 4441 1900 4441 
Q 1478 4441 1245 4241 
Q 1013 4041 972 3647 
L 622 3647 
L 622 4469 
z
" transform="scale(0.015625)"/>
     </defs>
     <use xlink:href="#DejaVuSerif-33"/>
    </g>
   </g>
   <g id="text_18">
    <!-- 4 -->
    <g transform="translate(96.784367 62.213485) scale(0.1 -0.1)">
     <use xlink:href="#DejaVuSerif-34"/>
    </g>
   </g>
   <g id="text_19">
    <!-- 5 -->
    <g transform="translate(103.177585 62.988597) scale(0.1 -0.1)">
     <defs>
      <path id="DejaVuSerif-35" d="M 3219 4666 
L 3219 4153 
L 1081 4153 
L 1081 2816 
Q 1244 2928 1461 2984 
Q 1678 3041 1947 3041 
Q 2703 3041 3140 2622 
Q 3578 2203 3578 1478 
Q 3578 738 3136 323 
Q 2694 -91 1894 -91 
Q 1572 -91 1234 -12 
Q 897 66 544 225 
L 544 1131 
L 897 1131 
Q 925 688 1179 453 
Q 1434 219 1894 219 
Q 2388 219 2653 544 
Q 2919 869 2919 1478 
Q 2919 2084 2655 2407 
Q 2391 2731 1894 2731 
Q 1613 2731 1398 2631 
Q 1184 2531 1019 2322 
L 750 2322 
L 750 4666 
L 3219 4666 
z
" transform="scale(0.015625)"/>
     </defs>
     <use xlink:href="#DejaVuSerif-35"/>
    </g>
   </g>
   <g id="text_20">
    <!-- 6 -->
    <g transform="translate(110.992726 62.207399) scale(0.1 -0.1)">
     <use xlink:href="#DejaVuSerif-36"/>
    </g>
   </g>
   <g id="text_21">
    <!-- 7 -->
    <g transform="translate(119.348363 63.062679) scale(0.1 -0.1)">
     <defs>
      <path id="DejaVuSerif-37" d="M 3609 4347 
L 1784 0 
L 1319 0 
L 3059 4153 
L 903 4153 
L 903 3578 
L 538 3578 
L 538 4666 
L 3609 4666 
L 3609 4347 
z
" transform="scale(0.015625)"/>
     </defs>
     <use xlink:href="#DejaVuSerif-37"/>
    </g>
   </g>
   <g id="text_22">
    <!-- 8 -->
    <g transform="translate(127.777017 63.561531) scale(0.1 -0.1)">
     <use xlink:href="#DejaVuSerif-38"/>
    </g>
   </g>
   <g id="text_23">
    <!-- 9 -->
    <g transform="translate(136.264258 64.785166) scale(0.1 -0.1)">
     <defs>
      <path id="DejaVuSerif-39" d="M 2994 2091 
Q 2784 1856 2512 1740 
Q 2241 1625 1900 1625 
Q 1206 1625 804 2044 
Q 403 2463 403 3188 
Q 403 3897 839 4323 
Q 1275 4750 2003 4750 
Q 2794 4750 3217 4161 
Q 3641 3572 3641 2478 
Q 3641 1253 3137 581 
Q 2634 -91 1722 -91 
Q 1475 -91 1203 -44 
Q 931 3 647 97 
L 647 872 
L 997 872 
Q 1038 556 1241 387 
Q 1444 219 1784 219 
Q 2391 219 2687 676 
Q 2984 1134 2994 2091 
z
M 1978 4441 
Q 1534 4441 1298 4117 
Q 1063 3794 1063 3188 
Q 1063 2581 1298 2256 
Q 1534 1931 1978 1931 
Q 2422 1931 2658 2245 
Q 2894 2559 2894 3150 
Q 2894 3772 2656 4106 
Q 2419 4441 1978 4441 
z
" transform="scale(0.015625)"/>
     </defs>
     <use xlink:href="#DejaVuSerif-39"/>
    </g>
   </g>
   <g id="text_24">
    <!-- 10 -->
    <g transform="translate(144.658671 64.733169) scale(0.1 -0.1)">
     <use xlink:href="#DejaVuSerif-31"/>
     <use xlink:href="#DejaVuSerif-30" x="63.623047"/>
    </g>
   </g>
   <g id="text_25">
    <!-- 11 -->
    <g transform="translate(153.149053 64.796932) scale(0.1 -0.1)">
     <use xlink:href="#DejaVuSerif-31"/>
     <use xlink:href="#DejaVuSerif-31" x="63.623047"/>
    </g>
   </g>
   <g id="text_26">
    <!-- 12 -->
    <g transform="translate(161.891625 65.791052) scale(0.1 -0.1)">
     <use xlink:href="#DejaVuSerif-31"/>
     <use xlink:href="#DejaVuSerif-32" x="63.623047"/>
    </g>
   </g>
   <g id="text_27">
    <!-- 13 -->
    <g transform="translate(170.972097 66.137064) scale(0.1 -0.1)">
     <use xlink:href="#DejaVuSerif-31"/>
     <use xlink:href="#DejaVuSerif-33" x="63.623047"/>
    </g>
   </g>
   <g id="text_28">
    <!-- 14 -->
    <g transform="translate(179.899256 66.550623) scale(0.1 -0.1)">
     <use xlink:href="#DejaVuSerif-31"/>
     <use xlink:href="#DejaVuSerif-34" x="63.623047"/>
    </g>
   </g>
   <g id="text_29">
    <!-- 15 -->
    <g transform="translate(189.22195 67.511344) scale(0.1 -0.1)">
     <use xlink:href="#DejaVuSerif-31"/>
     <use xlink:href="#DejaVuSerif-35" x="63.623047"/>
    </g>
   </g>
   <g id="text_30">
    <!-- 16 -->
    <g transform="translate(198.256082 68.496175) scale(0.1 -0.1)">
     <use xlink:href="#DejaVuSerif-31"/>
     <use xlink:href="#DejaVuSerif-36" x="63.623047"/>
    </g>
   </g>
   <g id="text_31">
    <!-- 17 -->
    <g transform="translate(207.059384 68.923235) scale(0.1 -0.1)">
     <use xlink:href="#DejaVuSerif-31"/>
     <use xlink:href="#DejaVuSerif-37" x="63.623047"/>
    </g>
   </g>
   <g id="text_32">
    <!-- 18 -->
    <g transform="translate(215.802682 71.730263) scale(0.1 -0.1)">
     <use xlink:href="#DejaVuSerif-31"/>
     <use xlink:href="#DejaVuSerif-38" x="63.623047"/>
    </g>
   </g>
   <g id="text_33">
    <!-- 19 -->
    <g transform="translate(224.460508 72.946884) scale(0.1 -0.1)">
     <use xlink:href="#DejaVuSerif-31"/>
     <use xlink:href="#DejaVuSerif-39" x="63.623047"/>
    </g>
   </g>
   <g id="text_34">
    <!-- 20 -->
    <g transform="translate(233.278672 74.396965) scale(0.1 -0.1)">
     <use xlink:href="#DejaVuSerif-32"/>
     <use xlink:href="#DejaVuSerif-30" x="63.623047"/>
    </g>
   </g>
   <g id="text_35">
    <!-- 21 -->
    <g transform="translate(242.134148 77.009296) scale(0.1 -0.1)">
     <use xlink:href="#DejaVuSerif-32"/>
     <use xlink:href="#DejaVuSerif-31" x="63.623047"/>
    </g>
   </g>
   <g id="text_36">
    <!-- 22 -->
    <g transform="translate(250.376546 78.672767) scale(0.1 -0.1)">
     <use xlink:href="#DejaVuSerif-32"/>
     <use xlink:href="#DejaVuSerif-32" x="63.623047"/>
    </g>
   </g>
   <g id="text_37">
    <!-- 23 -->
    <g transform="translate(258.75032 79.528104) scale(0.1 -0.1)">
     <use xlink:href="#DejaVuSerif-32"/>
     <use xlink:href="#DejaVuSerif-33" x="63.623047"/>
    </g>
   </g>
   <g id="text_38">
    <!-- 24 -->
    <g transform="translate(267.070552 80.901689) scale(0.1 -0.1)">
     <use xlink:href="#DejaVuSerif-32"/>
     <use xlink:href="#DejaVuSerif-34" x="63.623047"/>
    </g>
   </g>
   <g id="text_39">
    <!-- 25 -->
    <g transform="translate(274.535152 82.568785) scale(0.1 -0.1)">
     <use xlink:href="#DejaVuSerif-32"/>
     <use xlink:href="#DejaVuSerif-35" x="63.623047"/>
    </g>
   </g>
   <g id="text_40">
    <!-- 26 -->
    <g transform="translate(282.383063 84.328301) scale(0.1 -0.1)">
     <use xlink:href="#DejaVuSerif-32"/>
     <use xlink:href="#DejaVuSerif-36" x="63.623047"/>
    </g>
   </g>
   <g id="text_41">
    <!-- 27 -->
    <g transform="translate(289.661933 85.31644) scale(0.1 -0.1)">
     <use xlink:href="#DejaVuSerif-32"/>
     <use xlink:href="#DejaVuSerif-37" x="63.623047"/>
    </g>
   </g>
   <g id="text_42">
    <!-- 28 -->
    <g transform="translate(298.609086 85.890949) scale(0.1 -0.1)">
     <use xlink:href="#DejaVuSerif-32"/>
     <use xlink:href="#DejaVuSerif-38" x="63.623047"/>
    </g>
   </g>
   <g id="text_43">
    <!-- 29 -->
    <g transform="translate(312.179772 87.25651) scale(0.1 -0.1)">
     <use xlink:href="#DejaVuSerif-32"/>
     <use xlink:href="#DejaVuSerif-39" x="63.623047"/>
    </g>
   </g>
   <g id="text_44">
    <!-- 30+ -->
    <g transform="translate(328.916209 88.18784) scale(0.1 -0.1)">
     <defs>
      <path id="DejaVuSerif-2b" d="M 2931 4013 
L 2931 2259 
L 4684 2259 
L 4684 1753 
L 2931 1753 
L 2931 0 
L 2431 0 
L 2431 1753 
L 678 1753 
L 678 2259 
L 2431 2259 
L 2431 4013 
L 2931 4013 
z
" transform="scale(0.015625)"/>
     </defs>
     <use xlink:href="#DejaVuSerif-33"/>
     <use xlink:href="#DejaVuSerif-30" x="63.623047"/>
     <use xlink:href="#DejaVuSerif-2b" x="127.246094"/>
    </g>
   </g>
   <g id="text_45">
    <!-- AREA -->
    <g style="fill: #262626" transform="translate(319.548849 23.537308) scale(0.15 -0.15)">
     <defs>
      <path id="DejaVuSerif-41" d="M 1281 1691 
L 2994 1691 
L 2138 3909 
L 1281 1691 
z
M -38 0 
L -38 331 
L 372 331 
L 2034 4666 
L 2559 4666 
L 4225 331 
L 4684 331 
L 4684 0 
L 2988 0 
L 2988 331 
L 3506 331 
L 3116 1356 
L 1153 1356 
L 763 331 
L 1275 331 
L 1275 0 
L -38 0 
z
" transform="scale(0.015625)"/>
      <path id="DejaVuSerif-52" d="M 3066 2316 
Q 3284 2256 3442 2114 
Q 3600 1972 3725 1716 
L 4403 331 
L 4972 331 
L 4972 0 
L 3872 0 
L 3144 1484 
Q 2934 1916 2759 2042 
Q 2584 2169 2278 2169 
L 1581 2169 
L 1581 331 
L 2241 331 
L 2241 0 
L 353 0 
L 353 331 
L 947 331 
L 947 4331 
L 353 4331 
L 353 4666 
L 2719 4666 
Q 3400 4666 3770 4341 
Q 4141 4016 4141 3419 
Q 4141 2938 3870 2661 
Q 3600 2384 3066 2316 
z
M 1581 2503 
L 2503 2503 
Q 2975 2503 3200 2726 
Q 3425 2950 3425 3419 
Q 3425 3888 3200 4109 
Q 2975 4331 2503 4331 
L 1581 4331 
L 1581 2503 
z
" transform="scale(0.015625)"/>
      <path id="DejaVuSerif-45" d="M 353 0 
L 353 331 
L 947 331 
L 947 4331 
L 353 4331 
L 353 4666 
L 4109 4666 
L 4109 3628 
L 3725 3628 
L 3725 4281 
L 1581 4281 
L 1581 2719 
L 3109 2719 
L 3109 3303 
L 3494 3303 
L 3494 1753 
L 3109 1753 
L 3109 2338 
L 1581 2338 
L 1581 384 
L 3775 384 
L 3775 1038 
L 4159 1038 
L 4159 0 
L 353 0 
z
" transform="scale(0.015625)"/>
     </defs>
     <use xlink:href="#DejaVuSerif-41"/>
     <use xlink:href="#DejaVuSerif-52" x="72.216797"/>
     <use xlink:href="#DejaVuSerif-45" x="147.509766"/>
     <use xlink:href="#DejaVuSerif-41" x="220.507812"/>
    </g>
   </g>
  </g>
 </g>
 <defs>
  <clipPath id="p3ee6f9a1f0">
   <rect x="60.617188" y="5.698828" width="334.8" height="166.32"/>
  </clipPath>
 </defs>
</svg>
