<?xml version="1.0" encoding="utf-8" standalone="no"?>
<!DOCTYPE svg PUBLIC "-//W3C//DTD SVG 1.1//EN"
  "http://www.w3.org/Graphics/SVG/1.1/DTD/svg11.dtd">
<svg xmlns:xlink="http://www.w3.org/1999/xlink" width="395.417187pt" height="212.053203pt" viewBox="0 0 395.417187 212.053203" xmlns="http://www.w3.org/2000/svg" version="1.1">
 <metadata>
  <rdf:RDF xmlns:dc="http://purl.org/dc/elements/1.1/" xmlns:cc="http://creativecommons.org/ns#" xmlns:rdf="http://www.w3.org/1999/02/22-rdf-syntax-ns#">
   <cc:Work>
    <dc:type rdf:resource="http://purl.org/dc/dcmitype/StillImage"/>
    <dc:date>2024-11-11T11:56:17.118662</dc:date>
    <dc:format>image/svg+xml</dc:format>
    <dc:creator>
     <cc:Agent>
      <dc:title>Matplotlib v3.9.2, https://matplotlib.org/</dc:title>
     </cc:Agent>
    </dc:creator>
   </cc:Work>
  </rdf:RDF>
 </metadata>
 <defs>
  <style type="text/css">*{stroke-linejoin: round; stroke-linecap: butt}</style>
 </defs>
 <g id="figure_1">
  <g id="patch_1">
   <path d="M 0 212.053203 
L 395.417187 212.053203 
L 395.417187 0 
L 0 0 
z
" style="fill: #ffffff"/>
  </g>
  <g id="axes_1">
   <g id="patch_2">
    <path d="M 60.617188 172.018828 
L 395.417188 172.018828 
L 395.417188 5.698828 
L 60.617188 5.698828 
z
" style="fill: #eaeaf2"/>
   </g>
   <g id="matplotlib.axis_1">
    <g id="xtick_1">
     <g id="line2d_1">
      <path d="M 75.835369 172.018828 
L 75.835369 5.698828 
" clip-path="url(#pf8a66d7d74)" style="fill: none; stroke: #ffffff; stroke-linecap: round"/>
     </g>
     <g id="line2d_2"/>
     <g id="text_1">
      <!-- 0.0 -->
      <g style="fill: #262626" transform="translate(63.908026 190.416484) scale(0.15 -0.15)">
       <defs>
        <path id="DejaVuSerif-30" d="M 2034 219 
Q 2513 219 2750 744 
Q 2988 1269 2988 2328 
Q 2988 3391 2750 3916 
Q 2513 4441 2034 4441 
Q 1556 4441 1318 3916 
Q 1081 3391 1081 2328 
Q 1081 1269 1318 744 
Q 1556 219 2034 219 
z
M 2034 -91 
Q 1275 -91 848 546 
Q 422 1184 422 2328 
Q 422 3475 848 4112 
Q 1275 4750 2034 4750 
Q 2797 4750 3222 4112 
Q 3647 3475 3647 2328 
Q 3647 1184 3222 546 
Q 2797 -91 2034 -91 
z
" transform="scale(0.015625)"/>
        <path id="DejaVuSerif-2e" d="M 603 325 
Q 603 500 722 622 
Q 841 744 1019 744 
Q 1191 744 1312 622 
Q 1434 500 1434 325 
Q 1434 153 1312 31 
Q 1191 -91 1019 -91 
Q 841 -91 722 29 
Q 603 150 603 325 
z
" transform="scale(0.015625)"/>
       </defs>
       <use xlink:href="#DejaVuSerif-30"/>
       <use xlink:href="#DejaVuSerif-2e" x="63.623047"/>
       <use xlink:href="#DejaVuSerif-30" x="95.410156"/>
      </g>
     </g>
    </g>
    <g id="xtick_2">
     <g id="line2d_3">
      <path d="M 136.708097 172.018828 
L 136.708097 5.698828 
" clip-path="url(#pf8a66d7d74)" style="fill: none; stroke: #ffffff; stroke-linecap: round"/>
     </g>
     <g id="line2d_4"/>
     <g id="text_2">
      <!-- 0.2 -->
      <g style="fill: #262626" transform="translate(124.780753 190.416484) scale(0.15 -0.15)">
       <defs>
        <path id="DejaVuSerif-32" d="M 819 3553 
L 469 3553 
L 469 4384 
Q 803 4563 1142 4656 
Q 1481 4750 1806 4750 
Q 2534 4750 2956 4397 
Q 3378 4044 3378 3438 
Q 3378 2753 2422 1800 
Q 2347 1728 2309 1691 
L 1131 513 
L 3078 513 
L 3078 1088 
L 3444 1088 
L 3444 0 
L 434 0 
L 434 341 
L 1850 1753 
Q 2319 2222 2519 2614 
Q 2719 3006 2719 3438 
Q 2719 3909 2473 4175 
Q 2228 4441 1797 4441 
Q 1350 4441 1106 4219 
Q 863 3997 819 3553 
z
" transform="scale(0.015625)"/>
       </defs>
       <use xlink:href="#DejaVuSerif-30"/>
       <use xlink:href="#DejaVuSerif-2e" x="63.623047"/>
       <use xlink:href="#DejaVuSerif-32" x="95.410156"/>
      </g>
     </g>
    </g>
    <g id="xtick_3">
     <g id="line2d_5">
      <path d="M 197.580824 172.018828 
L 197.580824 5.698828 
" clip-path="url(#pf8a66d7d74)" style="fill: none; stroke: #ffffff; stroke-linecap: round"/>
     </g>
     <g id="line2d_6"/>
     <g id="text_3">
      <!-- 0.4 -->
      <g style="fill: #262626" transform="translate(185.65348 190.416484) scale(0.15 -0.15)">
       <defs>
        <path id="DejaVuSerif-34" d="M 2234 1581 
L 2234 4063 
L 641 1581 
L 2234 1581 
z
M 3609 0 
L 1484 0 
L 1484 331 
L 2234 331 
L 2234 1247 
L 197 1247 
L 197 1588 
L 2241 4750 
L 2859 4750 
L 2859 1581 
L 3750 1581 
L 3750 1247 
L 2859 1247 
L 2859 331 
L 3609 331 
L 3609 0 
z
" transform="scale(0.015625)"/>
       </defs>
       <use xlink:href="#DejaVuSerif-30"/>
       <use xlink:href="#DejaVuSerif-2e" x="63.623047"/>
       <use xlink:href="#DejaVuSerif-34" x="95.410156"/>
      </g>
     </g>
    </g>
    <g id="xtick_4">
     <g id="line2d_7">
      <path d="M 258.453551 172.018828 
L 258.453551 5.698828 
" clip-path="url(#pf8a66d7d74)" style="fill: none; stroke: #ffffff; stroke-linecap: round"/>
     </g>
     <g id="line2d_8"/>
     <g id="text_4">
      <!-- 0.6 -->
      <g style="fill: #262626" transform="translate(246.526207 190.416484) scale(0.15 -0.15)">
       <defs>
        <path id="DejaVuSerif-36" d="M 2094 219 
Q 2534 219 2771 542 
Q 3009 866 3009 1472 
Q 3009 2078 2771 2401 
Q 2534 2725 2094 2725 
Q 1647 2725 1412 2412 
Q 1178 2100 1178 1509 
Q 1178 888 1415 553 
Q 1653 219 2094 219 
z
M 1075 2569 
Q 1288 2803 1556 2918 
Q 1825 3034 2163 3034 
Q 2859 3034 3264 2615 
Q 3669 2197 3669 1472 
Q 3669 763 3233 336 
Q 2797 -91 2069 -91 
Q 1278 -91 853 498 
Q 428 1088 428 2181 
Q 428 3406 931 4078 
Q 1434 4750 2350 4750 
Q 2597 4750 2869 4703 
Q 3141 4656 3425 4563 
L 3425 3794 
L 3072 3794 
Q 3034 4109 2831 4275 
Q 2628 4441 2284 4441 
Q 1678 4441 1381 3981 
Q 1084 3522 1075 2569 
z
" transform="scale(0.015625)"/>
       </defs>
       <use xlink:href="#DejaVuSerif-30"/>
       <use xlink:href="#DejaVuSerif-2e" x="63.623047"/>
       <use xlink:href="#DejaVuSerif-36" x="95.410156"/>
      </g>
     </g>
    </g>
    <g id="xtick_5">
     <g id="line2d_9">
      <path d="M 319.326278 172.018828 
L 319.326278 5.698828 
" clip-path="url(#pf8a66d7d74)" style="fill: none; stroke: #ffffff; stroke-linecap: round"/>
     </g>
     <g id="line2d_10"/>
     <g id="text_5">
      <!-- 0.8 -->
      <g style="fill: #262626" transform="translate(307.398935 190.416484) scale(0.15 -0.15)">
       <defs>
        <path id="DejaVuSerif-38" d="M 2981 1275 
Q 2981 1775 2732 2051 
Q 2484 2328 2034 2328 
Q 1584 2328 1336 2051 
Q 1088 1775 1088 1275 
Q 1088 772 1336 495 
Q 1584 219 2034 219 
Q 2484 219 2732 495 
Q 2981 772 2981 1275 
z
M 2853 3541 
Q 2853 3966 2637 4203 
Q 2422 4441 2034 4441 
Q 1650 4441 1433 4203 
Q 1216 3966 1216 3541 
Q 1216 3113 1433 2875 
Q 1650 2638 2034 2638 
Q 2422 2638 2637 2875 
Q 2853 3113 2853 3541 
z
M 2516 2484 
Q 3047 2413 3344 2092 
Q 3641 1772 3641 1275 
Q 3641 619 3225 264 
Q 2809 -91 2034 -91 
Q 1263 -91 845 264 
Q 428 619 428 1275 
Q 428 1772 725 2092 
Q 1022 2413 1556 2484 
Q 1084 2569 832 2842 
Q 581 3116 581 3541 
Q 581 4103 968 4426 
Q 1356 4750 2034 4750 
Q 2713 4750 3100 4426 
Q 3488 4103 3488 3541 
Q 3488 3116 3236 2842 
Q 2984 2569 2516 2484 
z
" transform="scale(0.015625)"/>
       </defs>
       <use xlink:href="#DejaVuSerif-30"/>
       <use xlink:href="#DejaVuSerif-2e" x="63.623047"/>
       <use xlink:href="#DejaVuSerif-38" x="95.410156"/>
      </g>
     </g>
    </g>
    <g id="xtick_6">
     <g id="line2d_11">
      <path d="M 380.199006 172.018828 
L 380.199006 5.698828 
" clip-path="url(#pf8a66d7d74)" style="fill: none; stroke: #ffffff; stroke-linecap: round"/>
     </g>
     <g id="line2d_12"/>
     <g id="text_6">
      <!-- 1.0 -->
      <g style="fill: #262626" transform="translate(368.271662 190.416484) scale(0.15 -0.15)">
       <defs>
        <path id="DejaVuSerif-31" d="M 909 0 
L 909 331 
L 1722 331 
L 1722 4213 
L 781 3603 
L 781 4013 
L 1919 4750 
L 2350 4750 
L 2350 331 
L 3163 331 
L 3163 0 
L 909 0 
z
" transform="scale(0.015625)"/>
       </defs>
       <use xlink:href="#DejaVuSerif-31"/>
       <use xlink:href="#DejaVuSerif-2e" x="63.623047"/>
       <use xlink:href="#DejaVuSerif-30" x="95.410156"/>
      </g>
     </g>
    </g>
    <g id="text_7">
     <!-- $s_1$ -->
     <g style="fill: #262626" transform="translate(220.517188 208.933672) scale(0.15 -0.15)">
      <defs>
       <path id="DejaVuSans-Oblique-73" d="M 3200 3397 
L 3091 2853 
Q 2863 2978 2609 3040 
Q 2356 3103 2088 3103 
Q 1634 3103 1373 2948 
Q 1113 2794 1113 2528 
Q 1113 2219 1719 2053 
Q 1766 2041 1788 2034 
L 1972 1978 
Q 2547 1819 2739 1644 
Q 2931 1469 2931 1166 
Q 2931 609 2489 259 
Q 2047 -91 1331 -91 
Q 1053 -91 747 -37 
Q 441 16 72 128 
L 184 722 
Q 500 559 806 475 
Q 1113 391 1394 391 
Q 1816 391 2080 572 
Q 2344 753 2344 1031 
Q 2344 1331 1650 1516 
L 1591 1531 
L 1394 1581 
Q 956 1697 753 1886 
Q 550 2075 550 2369 
Q 550 2928 970 3256 
Q 1391 3584 2113 3584 
Q 2397 3584 2667 3537 
Q 2938 3491 3200 3397 
z
" transform="scale(0.015625)"/>
       <path id="DejaVuSans-31" d="M 794 531 
L 1825 531 
L 1825 4091 
L 703 3866 
L 703 4441 
L 1819 4666 
L 2450 4666 
L 2450 531 
L 3481 531 
L 3481 0 
L 794 0 
L 794 531 
z
" transform="scale(0.015625)"/>
      </defs>
      <use xlink:href="#DejaVuSans-Oblique-73"/>
      <use xlink:href="#DejaVuSans-31" transform="translate(52.099609 -16.40625) scale(0.7)"/>
     </g>
    </g>
   </g>
   <g id="matplotlib.axis_2">
    <g id="ytick_1">
     <g id="line2d_13">
      <path d="M 60.617188 172.018828 
L 395.417188 172.018828 
" clip-path="url(#pf8a66d7d74)" style="fill: none; stroke: #ffffff; stroke-linecap: round"/>
     </g>
     <g id="line2d_14"/>
     <g id="text_8">
      <!-- $\mathdefault{10^{-2}}$ -->
      <g style="fill: #262626" transform="translate(18.517187 177.717656) scale(0.15 -0.15)">
       <defs>
        <path id="DejaVuSerif-2212" d="M 678 2259 
L 4684 2259 
L 4684 1753 
L 678 1753 
L 678 2259 
z
" transform="scale(0.015625)"/>
       </defs>
       <use xlink:href="#DejaVuSerif-31" transform="translate(0 0.7125)"/>
       <use xlink:href="#DejaVuSerif-30" transform="translate(63.623047 0.7125)"/>
       <use xlink:href="#DejaVuSerif-2212" transform="translate(128.154453 37.046875) scale(0.7)"/>
       <use xlink:href="#DejaVuSerif-32" transform="translate(186.806797 37.046875) scale(0.7)"/>
      </g>
     </g>
    </g>
    <g id="ytick_2">
     <g id="line2d_15">
      <path d="M 60.617188 130.438828 
L 395.417188 130.438828 
" clip-path="url(#pf8a66d7d74)" style="fill: none; stroke: #ffffff; stroke-linecap: round"/>
     </g>
     <g id="line2d_16"/>
     <g id="text_9">
      <!-- $\mathdefault{10^{-1}}$ -->
      <g style="fill: #262626" transform="translate(18.517187 136.137656) scale(0.15 -0.15)">
       <use xlink:href="#DejaVuSerif-31" transform="translate(0 0.7125)"/>
       <use xlink:href="#DejaVuSerif-30" transform="translate(63.623047 0.7125)"/>
       <use xlink:href="#DejaVuSerif-2212" transform="translate(128.154453 37.046875) scale(0.7)"/>
       <use xlink:href="#DejaVuSerif-31" transform="translate(186.806797 37.046875) scale(0.7)"/>
      </g>
     </g>
    </g>
    <g id="ytick_3">
     <g id="line2d_17">
      <path d="M 60.617188 88.858828 
L 395.417188 88.858828 
" clip-path="url(#pf8a66d7d74)" style="fill: none; stroke: #ffffff; stroke-linecap: round"/>
     </g>
     <g id="line2d_18"/>
     <g id="text_10">
      <!-- $\mathdefault{10^{0}}$ -->
      <g style="fill: #262626" transform="translate(27.217188 94.557656) scale(0.15 -0.15)">
       <use xlink:href="#DejaVuSerif-31" transform="translate(0 0.7125)"/>
       <use xlink:href="#DejaVuSerif-30" transform="translate(63.623047 0.7125)"/>
       <use xlink:href="#DejaVuSerif-30" transform="translate(128.154453 37.046875) scale(0.7)"/>
      </g>
     </g>
    </g>
    <g id="ytick_4">
     <g id="line2d_19">
      <path d="M 60.617188 47.278828 
L 395.417188 47.278828 
" clip-path="url(#pf8a66d7d74)" style="fill: none; stroke: #ffffff; stroke-linecap: round"/>
     </g>
     <g id="line2d_20"/>
     <g id="text_11">
      <!-- $\mathdefault{10^{1}}$ -->
      <g style="fill: #262626" transform="translate(27.217188 52.977656) scale(0.15 -0.15)">
       <use xlink:href="#DejaVuSerif-31" transform="translate(0 0.7125)"/>
       <use xlink:href="#DejaVuSerif-30" transform="translate(63.623047 0.7125)"/>
       <use xlink:href="#DejaVuSerif-31" transform="translate(128.154453 37.046875) scale(0.7)"/>
      </g>
     </g>
    </g>
    <g id="ytick_5">
     <g id="line2d_21">
      <path d="M 60.617188 5.698828 
L 395.417188 5.698828 
" clip-path="url(#pf8a66d7d74)" style="fill: none; stroke: #ffffff; stroke-linecap: round"/>
     </g>
     <g id="line2d_22"/>
     <g id="text_12">
      <!-- $\mathdefault{10^{2}}$ -->
      <g style="fill: #262626" transform="translate(27.217188 11.397656) scale(0.15 -0.15)">
       <use xlink:href="#DejaVuSerif-31" transform="translate(0 0.7125)"/>
       <use xlink:href="#DejaVuSerif-30" transform="translate(63.623047 0.7125)"/>
       <use xlink:href="#DejaVuSerif-32" transform="translate(128.154453 37.046875) scale(0.7)"/>
      </g>
     </g>
    </g>
    <g id="ytick_6">
     <g id="line2d_23"/>
    </g>
    <g id="ytick_7">
     <g id="line2d_24"/>
    </g>
    <g id="ytick_8">
     <g id="line2d_25"/>
    </g>
    <g id="ytick_9">
     <g id="line2d_26"/>
    </g>
    <g id="ytick_10">
     <g id="line2d_27"/>
    </g>
    <g id="ytick_11">
     <g id="line2d_28"/>
    </g>
    <g id="ytick_12">
     <g id="line2d_29"/>
    </g>
    <g id="ytick_13">
     <g id="line2d_30"/>
    </g>
    <g id="ytick_14">
     <g id="line2d_31"/>
    </g>
    <g id="ytick_15">
     <g id="line2d_32"/>
    </g>
    <g id="ytick_16">
     <g id="line2d_33"/>
    </g>
    <g id="ytick_17">
     <g id="line2d_34"/>
    </g>
    <g id="ytick_18">
     <g id="line2d_35"/>
    </g>
    <g id="ytick_19">
     <g id="line2d_36"/>
    </g>
    <g id="ytick_20">
     <g id="line2d_37"/>
    </g>
    <g id="ytick_21">
     <g id="line2d_38"/>
    </g>
    <g id="ytick_22">
     <g id="line2d_39"/>
    </g>
    <g id="ytick_23">
     <g id="line2d_40"/>
    </g>
    <g id="ytick_24">
     <g id="line2d_41"/>
    </g>
    <g id="ytick_25">
     <g id="line2d_42"/>
    </g>
    <g id="ytick_26">
     <g id="line2d_43"/>
    </g>
    <g id="ytick_27">
     <g id="line2d_44"/>
    </g>
    <g id="ytick_28">
     <g id="line2d_45"/>
    </g>
    <g id="ytick_29">
     <g id="line2d_46"/>
    </g>
    <g id="ytick_30">
     <g id="line2d_47"/>
    </g>
    <g id="ytick_31">
     <g id="line2d_48"/>
    </g>
    <g id="ytick_32">
     <g id="line2d_49"/>
    </g>
    <g id="ytick_33">
     <g id="line2d_50"/>
    </g>
    <g id="ytick_34">
     <g id="line2d_51"/>
    </g>
    <g id="ytick_35">
     <g id="line2d_52"/>
    </g>
    <g id="ytick_36">
     <g id="line2d_53"/>
    </g>
    <g id="ytick_37">
     <g id="line2d_54"/>
    </g>
    <g id="text_13">
     <!-- Density -->
     <g style="fill: #262626" transform="translate(11.184375 117.640078) rotate(-90) scale(0.15 -0.15)">
      <defs>
       <path id="DejaVuSerif-44" d="M 1581 331 
L 2163 331 
Q 3072 331 3558 850 
Q 4044 1369 4044 2338 
Q 4044 3306 3559 3818 
Q 3075 4331 2163 4331 
L 1581 4331 
L 1581 331 
z
M 353 0 
L 353 331 
L 947 331 
L 947 4331 
L 353 4331 
L 353 4666 
L 2209 4666 
Q 3416 4666 4089 4050 
Q 4763 3434 4763 2338 
Q 4763 1238 4088 619 
Q 3413 0 2209 0 
L 353 0 
z
" transform="scale(0.015625)"/>
       <path id="DejaVuSerif-65" d="M 3469 1600 
L 991 1600 
L 991 1575 
Q 991 903 1244 561 
Q 1497 219 1991 219 
Q 2369 219 2611 417 
Q 2853 616 2950 1006 
L 3413 1006 
Q 3275 459 2904 184 
Q 2534 -91 1931 -91 
Q 1203 -91 761 389 
Q 319 869 319 1663 
Q 319 2450 753 2931 
Q 1188 3413 1894 3413 
Q 2647 3413 3050 2948 
Q 3453 2484 3469 1600 
z
M 2791 1931 
Q 2772 2513 2545 2808 
Q 2319 3103 1894 3103 
Q 1497 3103 1269 2806 
Q 1041 2509 991 1931 
L 2791 1931 
z
" transform="scale(0.015625)"/>
       <path id="DejaVuSerif-6e" d="M 263 0 
L 263 331 
L 781 331 
L 781 2988 
L 231 2988 
L 231 3322 
L 1356 3322 
L 1356 2731 
Q 1516 3069 1770 3241 
Q 2025 3413 2363 3413 
Q 2913 3413 3172 3097 
Q 3431 2781 3431 2113 
L 3431 331 
L 3944 331 
L 3944 0 
L 2356 0 
L 2356 331 
L 2853 331 
L 2853 1931 
Q 2853 2541 2703 2767 
Q 2553 2994 2175 2994 
Q 1775 2994 1565 2701 
Q 1356 2409 1356 1850 
L 1356 331 
L 1856 331 
L 1856 0 
L 263 0 
z
" transform="scale(0.015625)"/>
       <path id="DejaVuSerif-73" d="M 359 184 
L 359 959 
L 691 959 
Q 703 588 923 403 
Q 1144 219 1575 219 
Q 1963 219 2166 364 
Q 2369 509 2369 788 
Q 2369 1006 2220 1140 
Q 2072 1275 1594 1428 
L 1178 1569 
Q 750 1706 558 1912 
Q 366 2119 366 2438 
Q 366 2894 700 3153 
Q 1034 3413 1625 3413 
Q 1888 3413 2178 3344 
Q 2469 3275 2778 3144 
L 2778 2419 
L 2447 2419 
Q 2434 2741 2221 2922 
Q 2009 3103 1644 3103 
Q 1281 3103 1095 2975 
Q 909 2847 909 2591 
Q 909 2381 1050 2254 
Q 1191 2128 1613 1997 
L 2069 1856 
Q 2541 1709 2748 1489 
Q 2956 1269 2956 922 
Q 2956 450 2595 179 
Q 2234 -91 1600 -91 
Q 1278 -91 972 -22 
Q 666 47 359 184 
z
" transform="scale(0.015625)"/>
       <path id="DejaVuSerif-69" d="M 622 4353 
Q 622 4497 726 4603 
Q 831 4709 978 4709 
Q 1122 4709 1226 4603 
Q 1331 4497 1331 4353 
Q 1331 4206 1228 4103 
Q 1125 4000 978 4000 
Q 831 4000 726 4103 
Q 622 4206 622 4353 
z
M 1356 331 
L 1900 331 
L 1900 0 
L 231 0 
L 231 331 
L 781 331 
L 781 2988 
L 231 2988 
L 231 3322 
L 1356 3322 
L 1356 331 
z
" transform="scale(0.015625)"/>
       <path id="DejaVuSerif-74" d="M 691 2988 
L 184 2988 
L 184 3322 
L 691 3322 
L 691 4353 
L 1269 4353 
L 1269 3322 
L 2350 3322 
L 2350 2988 
L 1269 2988 
L 1269 878 
Q 1269 456 1350 337 
Q 1431 219 1650 219 
Q 1875 219 1978 351 
Q 2081 484 2088 781 
L 2522 781 
Q 2497 328 2275 118 
Q 2053 -91 1600 -91 
Q 1103 -91 897 129 
Q 691 350 691 878 
L 691 2988 
z
" transform="scale(0.015625)"/>
       <path id="DejaVuSerif-79" d="M 1381 -609 
L 1600 -56 
L 359 2988 
L -19 2988 
L -19 3322 
L 1509 3322 
L 1509 2988 
L 978 2988 
L 1913 703 
L 2847 2988 
L 2350 2988 
L 2350 3322 
L 3597 3322 
L 3597 2988 
L 3225 2988 
L 1703 -750 
Q 1547 -1138 1356 -1280 
Q 1166 -1422 819 -1422 
Q 672 -1422 517 -1397 
Q 363 -1372 206 -1325 
L 206 -691 
L 500 -691 
Q 519 -903 608 -995 
Q 697 -1088 884 -1088 
Q 1056 -1088 1161 -992 
Q 1266 -897 1381 -609 
z
" transform="scale(0.015625)"/>
      </defs>
      <use xlink:href="#DejaVuSerif-44"/>
      <use xlink:href="#DejaVuSerif-65" x="80.175781"/>
      <use xlink:href="#DejaVuSerif-6e" x="139.355469"/>
      <use xlink:href="#DejaVuSerif-73" x="203.759766"/>
      <use xlink:href="#DejaVuSerif-69" x="255.078125"/>
      <use xlink:href="#DejaVuSerif-74" x="287.060547"/>
      <use xlink:href="#DejaVuSerif-79" x="327.246094"/>
     </g>
    </g>
   </g>
   <g id="PolyCollection_1">
    <path d="M 75.113859 244.158945 
L 75.113859 41668.858828 
L 75.726698 41668.858828 
L 76.339537 41668.858828 
L 76.952376 41668.858828 
L 77.565215 41668.858828 
L 78.178054 41668.858828 
L 78.790893 41668.858828 
L 79.403732 41668.858828 
L 80.016571 41668.858828 
L 80.62941 41668.858828 
L 81.242249 41668.858828 
L 81.855088 41668.858828 
L 82.467927 41668.858828 
L 83.080766 41668.858828 
L 83.693605 41668.858828 
L 84.306444 41668.858828 
L 84.919283 41668.858828 
L 85.532122 41668.858828 
L 86.144961 41668.858828 
L 86.7578 41668.858828 
L 87.370639 41668.858828 
L 87.983478 41668.858828 
L 88.596317 41668.858828 
L 89.209156 41668.858828 
L 89.821995 41668.858828 
L 90.434834 41668.858828 
L 91.047673 41668.858828 
L 91.660512 41668.858828 
L 92.273351 41668.858828 
L 92.88619 41668.858828 
L 93.499029 41668.858828 
L 94.111868 41668.858828 
L 94.724707 41668.858828 
L 95.337546 41668.858828 
L 95.950385 41668.858828 
L 96.563224 41668.858828 
L 97.176063 41668.858828 
L 97.788902 41668.858828 
L 98.401741 41668.858828 
L 99.01458 41668.858828 
L 99.627419 41668.858828 
L 100.240258 41668.858828 
L 100.853097 41668.858828 
L 101.465936 41668.858828 
L 102.078775 41668.858828 
L 102.691614 41668.858828 
L 103.304453 41668.858828 
L 103.917292 41668.858828 
L 104.530131 41668.858828 
L 105.14297 41668.858828 
L 105.755809 41668.858828 
L 106.368648 41668.858828 
L 106.981487 41668.858828 
L 107.594326 41668.858828 
L 108.207165 41668.858828 
L 108.820004 41668.858828 
L 109.432843 41668.858828 
L 110.045682 41668.858828 
L 110.658521 41668.858828 
L 111.27136 41668.858828 
L 111.884199 41668.858828 
L 112.497038 41668.858828 
L 113.109877 41668.858828 
L 113.722716 41668.858828 
L 114.335555 41668.858828 
L 114.948394 41668.858828 
L 115.561233 41668.858828 
L 116.174072 41668.858828 
L 116.786911 41668.858828 
L 117.39975 41668.858828 
L 118.012589 41668.858828 
L 118.625428 41668.858828 
L 119.238267 41668.858828 
L 119.851106 41668.858828 
L 120.463945 41668.858828 
L 121.076784 41668.858828 
L 121.689623 41668.858828 
L 122.302462 41668.858828 
L 122.915301 41668.858828 
L 123.52814 41668.858828 
L 124.140979 41668.858828 
L 124.753818 41668.858828 
L 125.366656 41668.858828 
L 125.979495 41668.858828 
L 126.592334 41668.858828 
L 127.205173 41668.858828 
L 127.818012 41668.858828 
L 128.430851 41668.858828 
L 129.04369 41668.858828 
L 129.656529 41668.858828 
L 130.269368 41668.858828 
L 130.882207 41668.858828 
L 131.495046 41668.858828 
L 132.107885 41668.858828 
L 132.720724 41668.858828 
L 133.333563 41668.858828 
L 133.946402 41668.858828 
L 134.559241 41668.858828 
L 135.17208 41668.858828 
L 135.784919 41668.858828 
L 136.397758 41668.858828 
L 137.010597 41668.858828 
L 137.623436 41668.858828 
L 138.236275 41668.858828 
L 138.849114 41668.858828 
L 139.461953 41668.858828 
L 140.074792 41668.858828 
L 140.687631 41668.858828 
L 141.30047 41668.858828 
L 141.913309 41668.858828 
L 142.526148 41668.858828 
L 143.138987 41668.858828 
L 143.751826 41668.858828 
L 144.364665 41668.858828 
L 144.977504 41668.858828 
L 145.590343 41668.858828 
L 146.203182 41668.858828 
L 146.816021 41668.858828 
L 147.42886 41668.858828 
L 148.041699 41668.858828 
L 148.654538 41668.858828 
L 149.267377 41668.858828 
L 149.880216 41668.858828 
L 150.493055 41668.858828 
L 151.105894 41668.858828 
L 151.718733 41668.858828 
L 152.331572 41668.858828 
L 152.944411 41668.858828 
L 153.55725 41668.858828 
L 154.170089 41668.858828 
L 154.782928 41668.858828 
L 155.395767 41668.858828 
L 156.008606 41668.858828 
L 156.621445 41668.858828 
L 157.234284 41668.858828 
L 157.847123 41668.858828 
L 158.459962 41668.858828 
L 159.072801 41668.858828 
L 159.68564 41668.858828 
L 160.298479 41668.858828 
L 160.911318 41668.858828 
L 161.524157 41668.858828 
L 162.136996 41668.858828 
L 162.749835 41668.858828 
L 163.362674 41668.858828 
L 163.975513 41668.858828 
L 164.588352 41668.858828 
L 165.201191 41668.858828 
L 165.81403 41668.858828 
L 166.426869 41668.858828 
L 167.039708 41668.858828 
L 167.652547 41668.858828 
L 168.265386 41668.858828 
L 168.878225 41668.858828 
L 169.491064 41668.858828 
L 170.103903 41668.858828 
L 170.716742 41668.858828 
L 171.329581 41668.858828 
L 171.94242 41668.858828 
L 172.555259 41668.858828 
L 173.168098 41668.858828 
L 173.780937 41668.858828 
L 174.393776 41668.858828 
L 175.006615 41668.858828 
L 175.619454 41668.858828 
L 176.232293 41668.858828 
L 176.845132 41668.858828 
L 177.457971 41668.858828 
L 178.07081 41668.858828 
L 178.683649 41668.858828 
L 179.296488 41668.858828 
L 179.909327 41668.858828 
L 180.522166 41668.858828 
L 181.135005 41668.858828 
L 181.747844 41668.858828 
L 182.360683 41668.858828 
L 182.973522 41668.858828 
L 183.586361 41668.858828 
L 184.1992 41668.858828 
L 184.812039 41668.858828 
L 185.424878 41668.858828 
L 186.037717 41668.858828 
L 186.650556 41668.858828 
L 187.263395 41668.858828 
L 187.876234 41668.858828 
L 188.489073 41668.858828 
L 189.101912 41668.858828 
L 189.714751 41668.858828 
L 190.32759 41668.858828 
L 190.940429 41668.858828 
L 191.553268 41668.858828 
L 192.166107 41668.858828 
L 192.778946 41668.858828 
L 193.391785 41668.858828 
L 194.004623 41668.858828 
L 194.617462 41668.858828 
L 195.230301 41668.858828 
L 195.84314 41668.858828 
L 196.455979 41668.858828 
L 197.068818 41668.858828 
L 197.681657 41668.858828 
L 198.294496 41668.858828 
L 198.907335 41668.858828 
L 199.520174 41668.858828 
L 200.133013 41668.858828 
L 200.745852 41668.858828 
L 201.358691 41668.858828 
L 201.97153 41668.858828 
L 202.584369 41668.858828 
L 203.197208 41668.858828 
L 203.810047 41668.858828 
L 204.422886 41668.858828 
L 205.035725 41668.858828 
L 205.648564 41668.858828 
L 206.261403 41668.858828 
L 206.874242 41668.858828 
L 207.487081 41668.858828 
L 208.09992 41668.858828 
L 208.712759 41668.858828 
L 209.325598 41668.858828 
L 209.938437 41668.858828 
L 210.551276 41668.858828 
L 211.164115 41668.858828 
L 211.776954 41668.858828 
L 212.389793 41668.858828 
L 213.002632 41668.858828 
L 213.615471 41668.858828 
L 214.22831 41668.858828 
L 214.841149 41668.858828 
L 215.453988 41668.858828 
L 216.066827 41668.858828 
L 216.679666 41668.858828 
L 217.292505 41668.858828 
L 217.905344 41668.858828 
L 218.518183 41668.858828 
L 219.131022 41668.858828 
L 219.743861 41668.858828 
L 220.3567 41668.858828 
L 220.969539 41668.858828 
L 221.582378 41668.858828 
L 222.195217 41668.858828 
L 222.808056 41668.858828 
L 223.420895 41668.858828 
L 224.033734 41668.858828 
L 224.646573 41668.858828 
L 225.259412 41668.858828 
L 225.872251 41668.858828 
L 226.48509 41668.858828 
L 227.097929 41668.858828 
L 227.710768 41668.858828 
L 228.323607 41668.858828 
L 228.936446 41668.858828 
L 229.549285 41668.858828 
L 230.162124 41668.858828 
L 230.774963 41668.858828 
L 231.387802 41668.858828 
L 232.000641 41668.858828 
L 232.61348 41668.858828 
L 233.226319 41668.858828 
L 233.839158 41668.858828 
L 234.451997 41668.858828 
L 235.064836 41668.858828 
L 235.677675 41668.858828 
L 236.290514 41668.858828 
L 236.903353 41668.858828 
L 237.516192 41668.858828 
L 238.129031 41668.858828 
L 238.74187 41668.858828 
L 239.354709 41668.858828 
L 239.967548 41668.858828 
L 240.580387 41668.858828 
L 241.193226 41668.858828 
L 241.806065 41668.858828 
L 242.418904 41668.858828 
L 243.031743 41668.858828 
L 243.644582 41668.858828 
L 244.257421 41668.858828 
L 244.87026 41668.858828 
L 245.483099 41668.858828 
L 246.095938 41668.858828 
L 246.708777 41668.858828 
L 247.321616 41668.858828 
L 247.934455 41668.858828 
L 248.547294 41668.858828 
L 249.160133 41668.858828 
L 249.772972 41668.858828 
L 250.385811 41668.858828 
L 250.99865 41668.858828 
L 251.611489 41668.858828 
L 252.224328 41668.858828 
L 252.837167 41668.858828 
L 253.450006 41668.858828 
L 254.062845 41668.858828 
L 254.675684 41668.858828 
L 255.288523 41668.858828 
L 255.901362 41668.858828 
L 256.514201 41668.858828 
L 257.12704 41668.858828 
L 257.739879 41668.858828 
L 258.352718 41668.858828 
L 258.965557 41668.858828 
L 259.578396 41668.858828 
L 260.191235 41668.858828 
L 260.804074 41668.858828 
L 261.416913 41668.858828 
L 262.029752 41668.858828 
L 262.64259 41668.858828 
L 263.255429 41668.858828 
L 263.868268 41668.858828 
L 264.481107 41668.858828 
L 265.093946 41668.858828 
L 265.706785 41668.858828 
L 266.319624 41668.858828 
L 266.932463 41668.858828 
L 267.545302 41668.858828 
L 268.158141 41668.858828 
L 268.77098 41668.858828 
L 269.383819 41668.858828 
L 269.996658 41668.858828 
L 270.609497 41668.858828 
L 271.222336 41668.858828 
L 271.835175 41668.858828 
L 272.448014 41668.858828 
L 273.060853 41668.858828 
L 273.673692 41668.858828 
L 274.286531 41668.858828 
L 274.89937 41668.858828 
L 275.512209 41668.858828 
L 276.125048 41668.858828 
L 276.737887 41668.858828 
L 277.350726 41668.858828 
L 277.963565 41668.858828 
L 278.576404 41668.858828 
L 279.189243 41668.858828 
L 279.802082 41668.858828 
L 280.414921 41668.858828 
L 281.02776 41668.858828 
L 281.640599 41668.858828 
L 282.253438 41668.858828 
L 282.866277 41668.858828 
L 283.479116 41668.858828 
L 284.091955 41668.858828 
L 284.704794 41668.858828 
L 285.317633 41668.858828 
L 285.930472 41668.858828 
L 286.543311 41668.858828 
L 287.15615 41668.858828 
L 287.768989 41668.858828 
L 288.381828 41668.858828 
L 288.994667 41668.858828 
L 289.607506 41668.858828 
L 290.220345 41668.858828 
L 290.833184 41668.858828 
L 291.446023 41668.858828 
L 292.058862 41668.858828 
L 292.671701 41668.858828 
L 293.28454 41668.858828 
L 293.897379 41668.858828 
L 294.510218 41668.858828 
L 295.123057 41668.858828 
L 295.735896 41668.858828 
L 296.348735 41668.858828 
L 296.961574 41668.858828 
L 297.574413 41668.858828 
L 298.187252 41668.858828 
L 298.800091 41668.858828 
L 299.41293 41668.858828 
L 300.025769 41668.858828 
L 300.638608 41668.858828 
L 301.251447 41668.858828 
L 301.864286 41668.858828 
L 302.477125 41668.858828 
L 303.089964 41668.858828 
L 303.702803 41668.858828 
L 304.315642 41668.858828 
L 304.928481 41668.858828 
L 305.54132 41668.858828 
L 306.154159 41668.858828 
L 306.766998 41668.858828 
L 307.379837 41668.858828 
L 307.992676 41668.858828 
L 308.605515 41668.858828 
L 309.218354 41668.858828 
L 309.831193 41668.858828 
L 310.444032 41668.858828 
L 311.056871 41668.858828 
L 311.66971 41668.858828 
L 312.282549 41668.858828 
L 312.895388 41668.858828 
L 313.508227 41668.858828 
L 314.121066 41668.858828 
L 314.733905 41668.858828 
L 315.346744 41668.858828 
L 315.959583 41668.858828 
L 316.572422 41668.858828 
L 317.185261 41668.858828 
L 317.7981 41668.858828 
L 318.410939 41668.858828 
L 319.023778 41668.858828 
L 319.636617 41668.858828 
L 320.249456 41668.858828 
L 320.862295 41668.858828 
L 321.475134 41668.858828 
L 322.087973 41668.858828 
L 322.700812 41668.858828 
L 323.313651 41668.858828 
L 323.92649 41668.858828 
L 324.539329 41668.858828 
L 325.152168 41668.858828 
L 325.765007 41668.858828 
L 326.377846 41668.858828 
L 326.990685 41668.858828 
L 327.603524 41668.858828 
L 328.216363 41668.858828 
L 328.829202 41668.858828 
L 329.442041 41668.858828 
L 330.05488 41668.858828 
L 330.667719 41668.858828 
L 331.280557 41668.858828 
L 331.893396 41668.858828 
L 332.506235 41668.858828 
L 333.119074 41668.858828 
L 333.731913 41668.858828 
L 334.344752 41668.858828 
L 334.957591 41668.858828 
L 335.57043 41668.858828 
L 336.183269 41668.858828 
L 336.796108 41668.858828 
L 337.408947 41668.858828 
L 338.021786 41668.858828 
L 338.634625 41668.858828 
L 339.247464 41668.858828 
L 339.860303 41668.858828 
L 340.473142 41668.858828 
L 341.085981 41668.858828 
L 341.69882 41668.858828 
L 342.311659 41668.858828 
L 342.924498 41668.858828 
L 343.537337 41668.858828 
L 344.150176 41668.858828 
L 344.763015 41668.858828 
L 345.375854 41668.858828 
L 345.988693 41668.858828 
L 346.601532 41668.858828 
L 347.214371 41668.858828 
L 347.82721 41668.858828 
L 348.440049 41668.858828 
L 349.052888 41668.858828 
L 349.665727 41668.858828 
L 350.278566 41668.858828 
L 350.891405 41668.858828 
L 351.504244 41668.858828 
L 352.117083 41668.858828 
L 352.729922 41668.858828 
L 353.342761 41668.858828 
L 353.9556 41668.858828 
L 354.568439 41668.858828 
L 355.181278 41668.858828 
L 355.794117 41668.858828 
L 356.406956 41668.858828 
L 357.019795 41668.858828 
L 357.632634 41668.858828 
L 358.245473 41668.858828 
L 358.858312 41668.858828 
L 359.471151 41668.858828 
L 360.08399 41668.858828 
L 360.696829 41668.858828 
L 361.309668 41668.858828 
L 361.922507 41668.858828 
L 362.535346 41668.858828 
L 363.148185 41668.858828 
L 363.761024 41668.858828 
L 364.373863 41668.858828 
L 364.986702 41668.858828 
L 365.599541 41668.858828 
L 366.21238 41668.858828 
L 366.825219 41668.858828 
L 367.438058 41668.858828 
L 368.050897 41668.858828 
L 368.663736 41668.858828 
L 369.276575 41668.858828 
L 369.889414 41668.858828 
L 370.502253 41668.858828 
L 371.115092 41668.858828 
L 371.727931 41668.858828 
L 372.34077 41668.858828 
L 372.953609 41668.858828 
L 373.566448 41668.858828 
L 374.179287 41668.858828 
L 374.792126 41668.858828 
L 375.404965 41668.858828 
L 376.017804 41668.858828 
L 376.630643 41668.858828 
L 377.243482 41668.858828 
L 377.856321 41668.858828 
L 378.46916 41668.858828 
L 379.081999 41668.858828 
L 379.694838 41668.858828 
L 380.307677 41668.858828 
L 380.920516 41668.858828 
L 380.920516 244.208141 
L 380.920516 244.208141 
L 380.307677 164.790722 
L 379.694838 202.461003 
L 379.081999 175.202275 
L 378.46916 180.219114 
L 377.856321 302.486947 
L 377.243482 542.006512 
L 376.630643 898.777808 
L 376.017804 1372.800835 
L 375.404965 1181.185881 
L 374.792126 751.160058 
L 374.179287 438.385922 
L 373.566448 242.856681 
L 372.953609 163.540248 
L 372.34077 161.293252 
L 371.727931 228.017592 
L 371.115092 189.630244 
L 370.502253 156.149473 
L 369.889414 160.966037 
L 369.276575 258.19265 
L 368.663736 423.870535 
L 368.050897 235.988629 
L 367.438058 162.315308 
L 366.825219 140.025862 
L 366.21238 174.72382 
L 365.599541 163.406459 
L 364.986702 161.980914 
L 364.373863 211.415952 
L 363.761024 252.496203 
L 363.148185 166.213492 
L 362.535346 197.159944 
L 361.922507 197.11588 
L 361.309668 148.499062 
L 360.696829 142.636711 
L 360.08399 157.867102 
L 359.471151 148.959145 
L 358.858312 167.750391 
L 358.245473 183.459581 
L 357.632634 158.499124 
L 357.019795 143.596668 
L 356.406956 159.387661 
L 355.794117 149.438577 
L 355.181278 224.849696 
L 354.568439 238.154054 
L 353.9556 163.719674 
L 353.342761 152.483322 
L 352.729922 142.442112 
L 352.117083 157.470855 
L 351.504244 145.859824 
L 350.891405 145.406026 
L 350.278566 168.946848 
L 349.665727 149.406407 
L 349.052888 128.984707 
L 348.440049 151.672181 
L 347.82721 146.043072 
L 347.214371 141.449326 
L 346.601532 156.138561 
L 345.988693 132.462502 
L 345.375854 140.228697 
L 344.763015 140.019609 
L 344.150176 137.303062 
L 343.537337 155.295373 
L 342.924498 143.461307 
L 342.311659 124.968402 
L 341.69882 125.543043 
L 341.085981 140.846537 
L 340.473142 159.325114 
L 339.860303 157.251742 
L 339.247464 142.38543 
L 338.634625 132.718609 
L 338.021786 118.022812 
L 337.408947 147.053046 
L 336.796108 147.214285 
L 336.183269 127.154473 
L 335.57043 125.390151 
L 334.957591 141.192467 
L 334.344752 134.851822 
L 333.731913 132.53138 
L 333.119074 135.345615 
L 332.506235 123.232895 
L 331.893396 120.436335 
L 331.280557 129.022559 
L 330.667719 147.331707 
L 330.05488 149.927065 
L 329.442041 138.780451 
L 328.829202 121.799202 
L 328.216363 151.169915 
L 327.603524 127.871913 
L 326.990685 135.730747 
L 326.377846 128.329804 
L 325.765007 125.39657 
L 325.152168 129.581605 
L 324.539329 118.274046 
L 323.92649 110.531939 
L 323.313651 119.66898 
L 322.700812 120.292367 
L 322.087973 149.367798 
L 321.475134 121.193295 
L 320.862295 125.680602 
L 320.249456 125.39251 
L 319.636617 120.160615 
L 319.023778 129.09048 
L 318.410939 120.727556 
L 317.7981 121.271321 
L 317.185261 115.715343 
L 316.572422 115.870589 
L 315.959583 133.888364 
L 315.346744 124.483331 
L 314.733905 113.824132 
L 314.121066 113.466694 
L 313.508227 119.609537 
L 312.895388 129.140359 
L 312.282549 118.86026 
L 311.66971 106.597047 
L 311.056871 115.445526 
L 310.444032 121.580634 
L 309.831193 117.270851 
L 309.218354 108.828524 
L 308.605515 110.91177 
L 307.992676 133.552318 
L 307.379837 119.234665 
L 306.766998 121.87725 
L 306.154159 117.972839 
L 305.54132 142.258862 
L 304.928481 122.585284 
L 304.315642 102.470688 
L 303.702803 111.962862 
L 303.089964 108.104755 
L 302.477125 118.04977 
L 301.864286 108.813308 
L 301.251447 102.26542 
L 300.638608 106.235549 
L 300.025769 116.6294 
L 299.41293 127.144786 
L 298.800091 115.314699 
L 298.187252 111.776046 
L 297.574413 104.081221 
L 296.961574 129.655622 
L 296.348735 118.109498 
L 295.735896 108.606755 
L 295.123057 93.33152 
L 294.510218 103.275905 
L 293.897379 112.293911 
L 293.28454 116.715487 
L 292.671701 95.419265 
L 292.058862 96.408171 
L 291.446023 105.331385 
L 290.833184 110.306586 
L 290.220345 117.223493 
L 289.607506 99.91146 
L 288.994667 99.505023 
L 288.381828 92.953671 
L 287.768989 100.978372 
L 287.15615 118.184884 
L 286.543311 93.787661 
L 285.930472 96.000585 
L 285.317633 91.362854 
L 284.704794 108.425197 
L 284.091955 113.007072 
L 283.479116 108.393745 
L 282.866277 103.679167 
L 282.253438 99.815084 
L 281.640599 103.53539 
L 281.02776 111.908289 
L 280.414921 99.841986 
L 279.802082 88.741937 
L 279.189243 86.902435 
L 278.576404 103.76713 
L 277.963565 95.325761 
L 277.350726 94.688299 
L 276.737887 97.545151 
L 276.125048 107.238562 
L 275.512209 108.187249 
L 274.89937 94.188077 
L 274.286531 100.195737 
L 273.673692 100.999064 
L 273.060853 110.113503 
L 272.448014 90.380701 
L 271.835175 86.492394 
L 271.222336 95.562817 
L 270.609497 93.485989 
L 269.996658 103.701851 
L 269.383819 90.280641 
L 268.77098 90.494997 
L 268.158141 96.636513 
L 267.545302 106.8359 
L 266.932463 99.594749 
L 266.319624 94.613249 
L 265.706785 96.028341 
L 265.093946 109.824937 
L 264.481107 98.734835 
L 263.868268 82.802304 
L 263.255429 84.534341 
L 262.64259 101.400988 
L 262.029752 86.386402 
L 261.416913 84.933769 
L 260.804074 88.355782 
L 260.191235 102.787542 
L 259.578396 102.527302 
L 258.965557 93.665601 
L 258.352718 93.225139 
L 257.739879 97.491751 
L 257.12704 95.91567 
L 256.514201 95.063354 
L 255.901362 86.168846 
L 255.288523 80.431812 
L 254.675684 82.347258 
L 254.062845 83.687247 
L 253.450006 89.899989 
L 252.837167 87.923568 
L 252.224328 90.128826 
L 251.611489 95.440708 
L 250.99865 93.507298 
L 250.385811 97.564754 
L 249.772972 88.38745 
L 249.160133 101.608856 
L 248.547294 104.678803 
L 247.934455 88.796007 
L 247.321616 79.374471 
L 246.708777 90.086926 
L 246.095938 87.843303 
L 245.483099 82.922969 
L 244.87026 78.643132 
L 244.257421 78.386048 
L 243.644582 90.008075 
L 243.031743 91.160035 
L 242.418904 91.270705 
L 241.806065 93.138687 
L 241.193226 98.725444 
L 240.580387 104.941048 
L 239.967548 94.131445 
L 239.354709 87.956037 
L 238.74187 89.0902 
L 238.129031 93.03867 
L 237.516192 85.096039 
L 236.903353 80.042026 
L 236.290514 80.659656 
L 235.677675 79.333479 
L 235.064836 79.543801 
L 234.451997 83.877547 
L 233.839158 87.358634 
L 233.226319 86.750922 
L 232.61348 92.907055 
L 232.000641 94.078107 
L 231.387802 98.484319 
L 230.774963 95.523116 
L 230.162124 91.956746 
L 229.549285 88.623293 
L 228.936446 85.670678 
L 228.323607 74.307875 
L 227.710768 74.458543 
L 227.097929 75.300406 
L 226.48509 75.717026 
L 225.872251 76.196257 
L 225.259412 81.290314 
L 224.646573 87.587058 
L 224.033734 86.208048 
L 223.420895 87.661979 
L 222.808056 96.650623 
L 222.195217 96.480182 
L 221.582378 93.849872 
L 220.969539 89.681129 
L 220.3567 94.15427 
L 219.743861 86.311635 
L 219.131022 76.248417 
L 218.518183 78.191023 
L 217.905344 79.83542 
L 217.292505 75.647079 
L 216.679666 75.218981 
L 216.066827 85.536492 
L 215.453988 82.207078 
L 214.841149 81.437236 
L 214.22831 86.512678 
L 213.615471 91.782699 
L 213.002632 89.762394 
L 212.389793 92.931212 
L 211.776954 99.032707 
L 211.164115 93.350253 
L 210.551276 86.497158 
L 209.938437 79.690165 
L 209.325598 82.631373 
L 208.712759 73.009209 
L 208.09992 73.994118 
L 207.487081 71.53869 
L 206.874242 70.84582 
L 206.261403 72.149678 
L 205.648564 79.038665 
L 205.035725 82.209827 
L 204.422886 88.070229 
L 203.810047 92.847091 
L 203.197208 100.747987 
L 202.584369 92.597071 
L 201.97153 94.244874 
L 201.358691 88.935748 
L 200.745852 79.103046 
L 200.133013 76.376769 
L 199.520174 73.097663 
L 198.907335 72.587755 
L 198.294496 69.933313 
L 197.681657 74.529803 
L 197.068818 77.356399 
L 196.455979 78.085773 
L 195.84314 85.147124 
L 195.230301 89.508314 
L 194.617462 94.417372 
L 194.004623 97.224946 
L 193.391785 101.105473 
L 192.778946 97.589453 
L 192.166107 86.971948 
L 191.553268 85.320909 
L 190.940429 80.707815 
L 190.32759 74.848511 
L 189.714751 71.327803 
L 189.101912 73.731124 
L 188.489073 77.803454 
L 187.876234 74.533541 
L 187.263395 74.624977 
L 186.650556 83.895386 
L 186.037717 86.98528 
L 185.424878 93.013802 
L 184.812039 92.674686 
L 184.1992 101.489905 
L 183.586361 99.633067 
L 182.973522 92.6051 
L 182.360683 89.282264 
L 181.747844 79.459423 
L 181.135005 80.749191 
L 180.522166 74.776276 
L 179.909327 74.00701 
L 179.296488 72.778066 
L 178.683649 69.908311 
L 178.07081 75.75616 
L 177.457971 75.180815 
L 176.845132 81.91569 
L 176.232293 81.796856 
L 175.619454 92.16232 
L 175.006615 99.851455 
L 174.393776 97.964007 
L 173.780937 92.338948 
L 173.168098 84.181376 
L 172.555259 76.53601 
L 171.94242 71.583192 
L 171.329581 69.640133 
L 170.716742 72.115084 
L 170.103903 68.044039 
L 169.491064 77.014701 
L 168.878225 86.750533 
L 168.265386 82.997851 
L 167.652547 91.049061 
L 167.039708 98.865052 
L 166.426869 97.172185 
L 165.81403 94.140905 
L 165.201191 86.817074 
L 164.588352 90.402039 
L 163.975513 77.900074 
L 163.362674 70.947488 
L 162.749835 73.57365 
L 162.136996 68.142127 
L 161.524157 70.468521 
L 160.911318 78.608747 
L 160.298479 74.429564 
L 159.68564 88.353044 
L 159.072801 94.8141 
L 158.459962 97.443298 
L 157.847123 107.942258 
L 157.234284 111.077873 
L 156.621445 109.776975 
L 156.008606 95.815738 
L 155.395767 90.783472 
L 154.782928 82.217136 
L 154.170089 73.736377 
L 153.55725 67.90022 
L 152.944411 70.864144 
L 152.331572 75.518546 
L 151.718733 74.980354 
L 151.105894 78.356286 
L 150.493055 79.849257 
L 149.880216 90.368495 
L 149.267377 99.365725 
L 148.654538 107.464454 
L 148.041699 112.405516 
L 147.42886 115.543646 
L 146.816021 100.642936 
L 146.203182 112.65511 
L 145.590343 89.432798 
L 144.977504 80.919447 
L 144.364665 91.478351 
L 143.751826 72.467106 
L 143.138987 66.030431 
L 142.526148 79.212004 
L 141.913309 71.069621 
L 141.30047 73.677029 
L 140.687631 75.372065 
L 140.074792 77.190767 
L 139.461953 96.506197 
L 138.849114 103.710361 
L 138.236275 117.013122 
L 137.623436 116.775493 
L 137.010597 121.623481 
L 136.397758 100.355764 
L 135.784919 93.937095 
L 135.17208 89.551525 
L 134.559241 81.552489 
L 133.946402 66.539233 
L 133.333563 78.129688 
L 132.720724 70.694798 
L 132.107885 63.462993 
L 131.495046 84.594517 
L 130.882207 78.075118 
L 130.269368 77.808711 
L 129.656529 94.322001 
L 129.04369 93.805595 
L 128.430851 100.297509 
L 127.818012 111.893377 
L 127.205173 119.861607 
L 126.592334 96.817899 
L 125.979495 89.613178 
L 125.366656 80.972152 
L 124.753818 72.987404 
L 124.140979 71.842004 
L 123.52814 80.05412 
L 122.915301 64.468937 
L 122.302462 67.690399 
L 121.689623 83.118896 
L 121.076784 72.710335 
L 120.463945 81.106704 
L 119.851106 95.995381 
L 119.238267 104.891308 
L 118.625428 112.845582 
L 118.012589 122.65082 
L 117.39975 119.526313 
L 116.786911 94.335542 
L 116.174072 87.998328 
L 115.561233 83.446079 
L 114.948394 75.314239 
L 114.335555 66.235041 
L 113.722716 74.738604 
L 113.109877 72.915379 
L 112.497038 65.791107 
L 111.884199 81.621238 
L 111.27136 86.965957 
L 110.658521 86.865246 
L 110.045682 103.471065 
L 109.432843 122.744547 
L 108.820004 108.673074 
L 108.207165 102.038994 
L 107.594326 107.562632 
L 106.981487 69.236875 
L 106.368648 80.543484 
L 105.755809 76.976094 
L 105.14297 59.905384 
L 104.530131 69.806423 
L 103.917292 70.068039 
L 103.304453 74.035519 
L 102.691614 94.95902 
L 102.078775 127.086767 
L 101.465936 122.632194 
L 100.853097 101.376419 
L 100.240258 115.344041 
L 99.627419 64.040395 
L 99.01458 59.736932 
L 98.401741 76.552992 
L 97.788902 56.565036 
L 97.176063 74.274334 
L 96.563224 83.791187 
L 95.950385 84.418887 
L 95.337546 109.779615 
L 94.724707 139.069235 
L 94.111868 133.95787 
L 93.499029 90.139166 
L 92.88619 112.699165 
L 92.273351 71.574105 
L 91.660512 62.782411 
L 91.047673 59.694913 
L 90.434834 50.267509 
L 89.821995 72.36801 
L 89.209156 83.018699 
L 88.596317 101.450479 
L 87.983478 137.222923 
L 87.370639 146.407386 
L 86.7578 184.355474 
L 86.144961 143.852838 
L 85.532122 99.016697 
L 84.919283 56.77378 
L 84.306444 83.639948 
L 83.693605 48.021884 
L 83.080766 61.945635 
L 82.467927 82.847872 
L 81.855088 103.191563 
L 81.242249 118.256538 
L 80.62941 122.377466 
L 80.016571 137.672235 
L 79.403732 90.504875 
L 78.790893 60.80081 
L 78.178054 66.489132 
L 77.565215 84.154758 
L 76.952376 114.363965 
L 76.339537 129.775108 
L 75.726698 161.124682 
L 75.113859 244.158945 
z
" clip-path="url(#pf8a66d7d74)" style="fill: #4c72b0; fill-opacity: 0.25; stroke: #4c72b0; stroke-width: 0.3"/>
   </g>
   <g id="patch_3">
    <path d="M 60.617188 172.018828 
L 60.617188 5.698828 
" style="fill: none"/>
   </g>
   <g id="patch_4">
    <path d="M 395.417188 172.018828 
L 395.417188 5.698828 
" style="fill: none"/>
   </g>
   <g id="patch_5">
    <path d="M 60.617188 172.018828 
L 395.417188 172.018828 
" style="fill: none"/>
   </g>
   <g id="patch_6">
    <path d="M 60.617188 5.698828 
L 395.417188 5.698828 
" style="fill: none"/>
   </g>
   <g id="text_14">
    <!-- 0 -->
    <g transform="translate(78.451513 60.016449) scale(0.1 -0.1)">
     <use xlink:href="#DejaVuSerif-30"/>
    </g>
   </g>
   <g id="text_15">
    <!-- 1 -->
    <g transform="translate(83.818522 52.54998) scale(0.1 -0.1)">
     <use xlink:href="#DejaVuSerif-31"/>
    </g>
   </g>
   <g id="text_16">
    <!-- 2 -->
    <g transform="translate(90.916717 53.613583) scale(0.1 -0.1)">
     <use xlink:href="#DejaVuSerif-32"/>
    </g>
   </g>
   <g id="text_17">
    <!-- 3 -->
    <g transform="translate(98.249638 57.881795) scale(0.1 -0.1)">
     <defs>
      <path id="DejaVuSerif-33" d="M 622 4469 
Q 988 4606 1323 4678 
Q 1659 4750 1953 4750 
Q 2638 4750 3022 4454 
Q 3406 4159 3406 3634 
Q 3406 3213 3140 2930 
Q 2875 2647 2388 2547 
Q 2963 2466 3280 2130 
Q 3597 1794 3597 1259 
Q 3597 606 3158 257 
Q 2719 -91 1894 -91 
Q 1528 -91 1179 -12 
Q 831 66 488 225 
L 488 1131 
L 838 1131 
Q 869 681 1141 450 
Q 1413 219 1906 219 
Q 2384 219 2661 495 
Q 2938 772 2938 1253 
Q 2938 1803 2653 2086 
Q 2369 2369 1819 2369 
L 1522 2369 
L 1522 2688 
L 1678 2688 
Q 2225 2688 2498 2914 
Q 2772 3141 2772 3597 
Q 2772 4006 2547 4223 
Q 2322 4441 1900 4441 
Q 1478 4441 1245 4241 
Q 1013 4041 972 3647 
L 622 3647 
L 622 4469 
z
" transform="scale(0.015625)"/>
     </defs>
     <use xlink:href="#DejaVuSerif-33"/>
    </g>
   </g>
   <g id="text_18">
    <!-- 4 -->
    <g transform="translate(105.136084 61.063838) scale(0.1 -0.1)">
     <use xlink:href="#DejaVuSerif-34"/>
    </g>
   </g>
   <g id="text_19">
    <!-- 5 -->
    <g transform="translate(113.515168 64.016745) scale(0.1 -0.1)">
     <defs>
      <path id="DejaVuSerif-35" d="M 3219 4666 
L 3219 4153 
L 1081 4153 
L 1081 2816 
Q 1244 2928 1461 2984 
Q 1678 3041 1947 3041 
Q 2703 3041 3140 2622 
Q 3578 2203 3578 1478 
Q 3578 738 3136 323 
Q 2694 -91 1894 -91 
Q 1572 -91 1234 -12 
Q 897 66 544 225 
L 544 1131 
L 897 1131 
Q 925 688 1179 453 
Q 1434 219 1894 219 
Q 2388 219 2653 544 
Q 2919 869 2919 1478 
Q 2919 2084 2655 2407 
Q 2391 2731 1894 2731 
Q 1613 2731 1398 2631 
Q 1184 2531 1019 2322 
L 750 2322 
L 750 4666 
L 3219 4666 
z
" transform="scale(0.015625)"/>
     </defs>
     <use xlink:href="#DejaVuSerif-35"/>
    </g>
   </g>
   <g id="text_20">
    <!-- 6 -->
    <g transform="translate(123.02367 63.708243) scale(0.1 -0.1)">
     <use xlink:href="#DejaVuSerif-36"/>
    </g>
   </g>
   <g id="text_21">
    <!-- 7 -->
    <g transform="translate(132.534586 64.501555) scale(0.1 -0.1)">
     <defs>
      <path id="DejaVuSerif-37" d="M 3609 4347 
L 1784 0 
L 1319 0 
L 3059 4153 
L 903 4153 
L 903 3578 
L 538 3578 
L 538 4666 
L 3609 4666 
L 3609 4347 
z
" transform="scale(0.015625)"/>
     </defs>
     <use xlink:href="#DejaVuSerif-37"/>
    </g>
   </g>
   <g id="text_22">
    <!-- 8 -->
    <g transform="translate(142.501347 65.011393) scale(0.1 -0.1)">
     <use xlink:href="#DejaVuSerif-38"/>
    </g>
   </g>
   <g id="text_23">
    <!-- 9 -->
    <g transform="translate(152.703182 65.262349) scale(0.1 -0.1)">
     <defs>
      <path id="DejaVuSerif-39" d="M 2994 2091 
Q 2784 1856 2512 1740 
Q 2241 1625 1900 1625 
Q 1206 1625 804 2044 
Q 403 2463 403 3188 
Q 403 3897 839 4323 
Q 1275 4750 2003 4750 
Q 2794 4750 3217 4161 
Q 3641 3572 3641 2478 
Q 3641 1253 3137 581 
Q 2634 -91 1722 -91 
Q 1475 -91 1203 -44 
Q 931 3 647 97 
L 647 872 
L 997 872 
Q 1038 556 1241 387 
Q 1444 219 1784 219 
Q 2391 219 2687 676 
Q 2984 1134 2994 2091 
z
M 1978 4441 
Q 1534 4441 1298 4117 
Q 1063 3794 1063 3188 
Q 1063 2581 1298 2256 
Q 1534 1931 1978 1931 
Q 2422 1931 2658 2245 
Q 2894 2559 2894 3150 
Q 2894 3772 2656 4106 
Q 2419 4441 1978 4441 
z
" transform="scale(0.015625)"/>
     </defs>
     <use xlink:href="#DejaVuSerif-39"/>
    </g>
   </g>
   <g id="text_24">
    <!-- 10 -->
    <g transform="translate(162.244224 64.989341) scale(0.1 -0.1)">
     <use xlink:href="#DejaVuSerif-31"/>
     <use xlink:href="#DejaVuSerif-30" x="63.623047"/>
    </g>
   </g>
   <g id="text_25">
    <!-- 11 -->
    <g transform="translate(170.778877 64.574661) scale(0.1 -0.1)">
     <use xlink:href="#DejaVuSerif-31"/>
     <use xlink:href="#DejaVuSerif-31" x="63.623047"/>
    </g>
   </g>
   <g id="text_26">
    <!-- 12 -->
    <g transform="translate(179.18169 65.750869) scale(0.1 -0.1)">
     <use xlink:href="#DejaVuSerif-31"/>
     <use xlink:href="#DejaVuSerif-32" x="63.623047"/>
    </g>
   </g>
   <g id="text_27">
    <!-- 13 -->
    <g transform="translate(188.928282 66.894347) scale(0.1 -0.1)">
     <use xlink:href="#DejaVuSerif-31"/>
     <use xlink:href="#DejaVuSerif-33" x="63.623047"/>
    </g>
   </g>
   <g id="text_28">
    <!-- 14 -->
    <g transform="translate(198.471713 65.909051) scale(0.1 -0.1)">
     <use xlink:href="#DejaVuSerif-31"/>
     <use xlink:href="#DejaVuSerif-34" x="63.623047"/>
    </g>
   </g>
   <g id="text_29">
    <!-- 15 -->
    <g transform="translate(207.485431 65.825456) scale(0.1 -0.1)">
     <use xlink:href="#DejaVuSerif-31"/>
     <use xlink:href="#DejaVuSerif-35" x="63.623047"/>
    </g>
   </g>
   <g id="text_30">
    <!-- 16 -->
    <g transform="translate(217.174187 69.508481) scale(0.1 -0.1)">
     <use xlink:href="#DejaVuSerif-31"/>
     <use xlink:href="#DejaVuSerif-36" x="63.623047"/>
    </g>
   </g>
   <g id="text_31">
    <!-- 17 -->
    <g transform="translate(226.824397 68.371147) scale(0.1 -0.1)">
     <use xlink:href="#DejaVuSerif-31"/>
     <use xlink:href="#DejaVuSerif-37" x="63.623047"/>
    </g>
   </g>
   <g id="text_32">
    <!-- 18 -->
    <g transform="translate(235.917636 71.468771) scale(0.1 -0.1)">
     <use xlink:href="#DejaVuSerif-31"/>
     <use xlink:href="#DejaVuSerif-38" x="63.623047"/>
    </g>
   </g>
   <g id="text_33">
    <!-- 19 -->
    <g transform="translate(245.284996 72.54343) scale(0.1 -0.1)">
     <use xlink:href="#DejaVuSerif-31"/>
     <use xlink:href="#DejaVuSerif-39" x="63.623047"/>
    </g>
   </g>
   <g id="text_34">
    <!-- 20 -->
    <g transform="translate(254.229161 73.971119) scale(0.1 -0.1)">
     <use xlink:href="#DejaVuSerif-32"/>
     <use xlink:href="#DejaVuSerif-30" x="63.623047"/>
    </g>
   </g>
   <g id="text_35">
    <!-- 21 -->
    <g transform="translate(262.516213 76.089106) scale(0.1 -0.1)">
     <use xlink:href="#DejaVuSerif-32"/>
     <use xlink:href="#DejaVuSerif-31" x="63.623047"/>
    </g>
   </g>
   <g id="text_36">
    <!-- 22 -->
    <g transform="translate(270.786179 77.884974) scale(0.1 -0.1)">
     <use xlink:href="#DejaVuSerif-32"/>
     <use xlink:href="#DejaVuSerif-32" x="63.623047"/>
    </g>
   </g>
   <g id="text_37">
    <!-- 23 -->
    <g transform="translate(278.885662 78.721031) scale(0.1 -0.1)">
     <use xlink:href="#DejaVuSerif-32"/>
     <use xlink:href="#DejaVuSerif-33" x="63.623047"/>
    </g>
   </g>
   <g id="text_38">
    <!-- 24 -->
    <g transform="translate(286.793297 80.027257) scale(0.1 -0.1)">
     <use xlink:href="#DejaVuSerif-32"/>
     <use xlink:href="#DejaVuSerif-34" x="63.623047"/>
    </g>
   </g>
   <g id="text_39">
    <!-- 25 -->
    <g transform="translate(293.735673 81.679337) scale(0.1 -0.1)">
     <use xlink:href="#DejaVuSerif-32"/>
     <use xlink:href="#DejaVuSerif-35" x="63.623047"/>
    </g>
   </g>
   <g id="text_40">
    <!-- 26 -->
    <g transform="translate(301.886553 83.495585) scale(0.1 -0.1)">
     <use xlink:href="#DejaVuSerif-32"/>
     <use xlink:href="#DejaVuSerif-36" x="63.623047"/>
    </g>
   </g>
   <g id="text_41">
    <!-- 27 -->
    <g transform="translate(311.374957 84.90639) scale(0.1 -0.1)">
     <use xlink:href="#DejaVuSerif-32"/>
     <use xlink:href="#DejaVuSerif-37" x="63.623047"/>
    </g>
   </g>
   <g id="text_42">
    <!-- 28 -->
    <g transform="translate(321.861801 86.008352) scale(0.1 -0.1)">
     <use xlink:href="#DejaVuSerif-32"/>
     <use xlink:href="#DejaVuSerif-38" x="63.623047"/>
    </g>
   </g>
   <g id="text_43">
    <!-- 29 -->
    <g transform="translate(333.908805 87.162767) scale(0.1 -0.1)">
     <use xlink:href="#DejaVuSerif-32"/>
     <use xlink:href="#DejaVuSerif-39" x="63.623047"/>
    </g>
   </g>
   <g id="text_44">
    <!-- 30 -->
    <g transform="translate(344.935866 87.771188) scale(0.1 -0.1)">
     <use xlink:href="#DejaVuSerif-33"/>
     <use xlink:href="#DejaVuSerif-30" x="63.623047"/>
    </g>
   </g>
   <g id="text_45">
    <!-- 31+ -->
    <g transform="translate(361.151256 88.23222) scale(0.1 -0.1)">
     <defs>
      <path id="DejaVuSerif-2b" d="M 2931 4013 
L 2931 2259 
L 4684 2259 
L 4684 1753 
L 2931 1753 
L 2931 0 
L 2431 0 
L 2431 1753 
L 678 1753 
L 678 2259 
L 2431 2259 
L 2431 4013 
L 2931 4013 
z
" transform="scale(0.015625)"/>
     </defs>
     <use xlink:href="#DejaVuSerif-33"/>
     <use xlink:href="#DejaVuSerif-31" x="63.623047"/>
     <use xlink:href="#DejaVuSerif-2b" x="127.246094"/>
    </g>
   </g>
   <g id="text_46">
    <!-- ISO 1D -->
    <g style="fill: #262626" transform="translate(308.624631 23.537308) scale(0.15 -0.15)">
     <defs>
      <path id="DejaVuSerif-49" d="M 1581 331 
L 2175 331 
L 2175 0 
L 353 0 
L 353 331 
L 947 331 
L 947 4331 
L 353 4331 
L 353 4666 
L 2175 4666 
L 2175 4331 
L 1581 4331 
L 1581 331 
z
" transform="scale(0.015625)"/>
      <path id="DejaVuSerif-53" d="M 594 225 
L 594 1288 
L 953 1284 
Q 969 753 1261 498 
Q 1553 244 2150 244 
Q 2706 244 2998 464 
Q 3291 684 3291 1106 
Q 3291 1444 3114 1625 
Q 2938 1806 2369 1978 
L 1753 2163 
Q 1084 2366 811 2669 
Q 538 2972 538 3500 
Q 538 4094 959 4422 
Q 1381 4750 2144 4750 
Q 2469 4750 2856 4679 
Q 3244 4609 3681 4475 
L 3681 3481 
L 3328 3481 
Q 3275 3975 2998 4195 
Q 2722 4416 2156 4416 
Q 1663 4416 1405 4214 
Q 1147 4013 1147 3628 
Q 1147 3294 1340 3103 
Q 1534 2913 2163 2725 
L 2741 2553 
Q 3375 2363 3645 2067 
Q 3916 1772 3916 1275 
Q 3916 597 3481 253 
Q 3047 -91 2188 -91 
Q 1803 -91 1404 -12 
Q 1006 66 594 225 
z
" transform="scale(0.015625)"/>
      <path id="DejaVuSerif-4f" d="M 2625 244 
Q 3391 244 3781 770 
Q 4172 1297 4172 2328 
Q 4172 3363 3781 3889 
Q 3391 4416 2625 4416 
Q 1856 4416 1465 3889 
Q 1075 3363 1075 2328 
Q 1075 1297 1465 770 
Q 1856 244 2625 244 
z
M 2625 -91 
Q 2150 -91 1751 65 
Q 1353 222 1050 525 
Q 700 875 529 1319 
Q 359 1763 359 2328 
Q 359 2894 529 3339 
Q 700 3784 1050 4134 
Q 1356 4441 1750 4595 
Q 2144 4750 2625 4750 
Q 3641 4750 4266 4084 
Q 4891 3419 4891 2328 
Q 4891 1769 4719 1320 
Q 4547 872 4197 525 
Q 3891 219 3497 64 
Q 3103 -91 2625 -91 
z
" transform="scale(0.015625)"/>
      <path id="DejaVuSerif-20" transform="scale(0.015625)"/>
     </defs>
     <use xlink:href="#DejaVuSerif-49"/>
     <use xlink:href="#DejaVuSerif-53" x="39.501953"/>
     <use xlink:href="#DejaVuSerif-4f" x="108.007812"/>
     <use xlink:href="#DejaVuSerif-20" x="189.990234"/>
     <use xlink:href="#DejaVuSerif-31" x="221.777344"/>
     <use xlink:href="#DejaVuSerif-44" x="285.400391"/>
    </g>
   </g>
  </g>
 </g>
 <defs>
  <clipPath id="pf8a66d7d74">
   <rect x="60.617188" y="5.698828" width="334.8" height="166.32"/>
  </clipPath>
 </defs>
</svg>
