<?xml version="1.0" encoding="utf-8" standalone="no"?>
<!DOCTYPE svg PUBLIC "-//W3C//DTD SVG 1.1//EN"
  "http://www.w3.org/Graphics/SVG/1.1/DTD/svg11.dtd">
<svg xmlns:xlink="http://www.w3.org/1999/xlink" width="395.417187pt" height="212.053203pt" viewBox="0 0 395.417187 212.053203" xmlns="http://www.w3.org/2000/svg" version="1.1">
 <metadata>
  <rdf:RDF xmlns:dc="http://purl.org/dc/elements/1.1/" xmlns:cc="http://creativecommons.org/ns#" xmlns:rdf="http://www.w3.org/1999/02/22-rdf-syntax-ns#">
   <cc:Work>
    <dc:type rdf:resource="http://purl.org/dc/dcmitype/StillImage"/>
    <dc:date>2024-11-11T11:38:16.956367</dc:date>
    <dc:format>image/svg+xml</dc:format>
    <dc:creator>
     <cc:Agent>
      <dc:title>Matplotlib v3.9.2, https://matplotlib.org/</dc:title>
     </cc:Agent>
    </dc:creator>
   </cc:Work>
  </rdf:RDF>
 </metadata>
 <defs>
  <style type="text/css">*{stroke-linejoin: round; stroke-linecap: butt}</style>
 </defs>
 <g id="figure_1">
  <g id="patch_1">
   <path d="M 0 212.053203 
L 395.417187 212.053203 
L 395.417187 0 
L 0 0 
z
" style="fill: #ffffff"/>
  </g>
  <g id="axes_1">
   <g id="patch_2">
    <path d="M 60.617188 172.018828 
L 395.417188 172.018828 
L 395.417188 5.698828 
L 60.617188 5.698828 
z
" style="fill: #eaeaf2"/>
   </g>
   <g id="matplotlib.axis_1">
    <g id="xtick_1">
     <g id="line2d_1">
      <path d="M 75.835369 172.018828 
L 75.835369 5.698828 
" clip-path="url(#p60a4ca3dc9)" style="fill: none; stroke: #ffffff; stroke-linecap: round"/>
     </g>
     <g id="line2d_2"/>
     <g id="text_1">
      <!-- 0.0 -->
      <g style="fill: #262626" transform="translate(63.908026 190.416484) scale(0.15 -0.15)">
       <defs>
        <path id="DejaVuSerif-30" d="M 2034 219 
Q 2513 219 2750 744 
Q 2988 1269 2988 2328 
Q 2988 3391 2750 3916 
Q 2513 4441 2034 4441 
Q 1556 4441 1318 3916 
Q 1081 3391 1081 2328 
Q 1081 1269 1318 744 
Q 1556 219 2034 219 
z
M 2034 -91 
Q 1275 -91 848 546 
Q 422 1184 422 2328 
Q 422 3475 848 4112 
Q 1275 4750 2034 4750 
Q 2797 4750 3222 4112 
Q 3647 3475 3647 2328 
Q 3647 1184 3222 546 
Q 2797 -91 2034 -91 
z
" transform="scale(0.015625)"/>
        <path id="DejaVuSerif-2e" d="M 603 325 
Q 603 500 722 622 
Q 841 744 1019 744 
Q 1191 744 1312 622 
Q 1434 500 1434 325 
Q 1434 153 1312 31 
Q 1191 -91 1019 -91 
Q 841 -91 722 29 
Q 603 150 603 325 
z
" transform="scale(0.015625)"/>
       </defs>
       <use xlink:href="#DejaVuSerif-30"/>
       <use xlink:href="#DejaVuSerif-2e" x="63.623047"/>
       <use xlink:href="#DejaVuSerif-30" x="95.410156"/>
      </g>
     </g>
    </g>
    <g id="xtick_2">
     <g id="line2d_3">
      <path d="M 136.708097 172.018828 
L 136.708097 5.698828 
" clip-path="url(#p60a4ca3dc9)" style="fill: none; stroke: #ffffff; stroke-linecap: round"/>
     </g>
     <g id="line2d_4"/>
     <g id="text_2">
      <!-- 0.2 -->
      <g style="fill: #262626" transform="translate(124.780753 190.416484) scale(0.15 -0.15)">
       <defs>
        <path id="DejaVuSerif-32" d="M 819 3553 
L 469 3553 
L 469 4384 
Q 803 4563 1142 4656 
Q 1481 4750 1806 4750 
Q 2534 4750 2956 4397 
Q 3378 4044 3378 3438 
Q 3378 2753 2422 1800 
Q 2347 1728 2309 1691 
L 1131 513 
L 3078 513 
L 3078 1088 
L 3444 1088 
L 3444 0 
L 434 0 
L 434 341 
L 1850 1753 
Q 2319 2222 2519 2614 
Q 2719 3006 2719 3438 
Q 2719 3909 2473 4175 
Q 2228 4441 1797 4441 
Q 1350 4441 1106 4219 
Q 863 3997 819 3553 
z
" transform="scale(0.015625)"/>
       </defs>
       <use xlink:href="#DejaVuSerif-30"/>
       <use xlink:href="#DejaVuSerif-2e" x="63.623047"/>
       <use xlink:href="#DejaVuSerif-32" x="95.410156"/>
      </g>
     </g>
    </g>
    <g id="xtick_3">
     <g id="line2d_5">
      <path d="M 197.580824 172.018828 
L 197.580824 5.698828 
" clip-path="url(#p60a4ca3dc9)" style="fill: none; stroke: #ffffff; stroke-linecap: round"/>
     </g>
     <g id="line2d_6"/>
     <g id="text_3">
      <!-- 0.4 -->
      <g style="fill: #262626" transform="translate(185.65348 190.416484) scale(0.15 -0.15)">
       <defs>
        <path id="DejaVuSerif-34" d="M 2234 1581 
L 2234 4063 
L 641 1581 
L 2234 1581 
z
M 3609 0 
L 1484 0 
L 1484 331 
L 2234 331 
L 2234 1247 
L 197 1247 
L 197 1588 
L 2241 4750 
L 2859 4750 
L 2859 1581 
L 3750 1581 
L 3750 1247 
L 2859 1247 
L 2859 331 
L 3609 331 
L 3609 0 
z
" transform="scale(0.015625)"/>
       </defs>
       <use xlink:href="#DejaVuSerif-30"/>
       <use xlink:href="#DejaVuSerif-2e" x="63.623047"/>
       <use xlink:href="#DejaVuSerif-34" x="95.410156"/>
      </g>
     </g>
    </g>
    <g id="xtick_4">
     <g id="line2d_7">
      <path d="M 258.453551 172.018828 
L 258.453551 5.698828 
" clip-path="url(#p60a4ca3dc9)" style="fill: none; stroke: #ffffff; stroke-linecap: round"/>
     </g>
     <g id="line2d_8"/>
     <g id="text_4">
      <!-- 0.6 -->
      <g style="fill: #262626" transform="translate(246.526207 190.416484) scale(0.15 -0.15)">
       <defs>
        <path id="DejaVuSerif-36" d="M 2094 219 
Q 2534 219 2771 542 
Q 3009 866 3009 1472 
Q 3009 2078 2771 2401 
Q 2534 2725 2094 2725 
Q 1647 2725 1412 2412 
Q 1178 2100 1178 1509 
Q 1178 888 1415 553 
Q 1653 219 2094 219 
z
M 1075 2569 
Q 1288 2803 1556 2918 
Q 1825 3034 2163 3034 
Q 2859 3034 3264 2615 
Q 3669 2197 3669 1472 
Q 3669 763 3233 336 
Q 2797 -91 2069 -91 
Q 1278 -91 853 498 
Q 428 1088 428 2181 
Q 428 3406 931 4078 
Q 1434 4750 2350 4750 
Q 2597 4750 2869 4703 
Q 3141 4656 3425 4563 
L 3425 3794 
L 3072 3794 
Q 3034 4109 2831 4275 
Q 2628 4441 2284 4441 
Q 1678 4441 1381 3981 
Q 1084 3522 1075 2569 
z
" transform="scale(0.015625)"/>
       </defs>
       <use xlink:href="#DejaVuSerif-30"/>
       <use xlink:href="#DejaVuSerif-2e" x="63.623047"/>
       <use xlink:href="#DejaVuSerif-36" x="95.410156"/>
      </g>
     </g>
    </g>
    <g id="xtick_5">
     <g id="line2d_9">
      <path d="M 319.326278 172.018828 
L 319.326278 5.698828 
" clip-path="url(#p60a4ca3dc9)" style="fill: none; stroke: #ffffff; stroke-linecap: round"/>
     </g>
     <g id="line2d_10"/>
     <g id="text_5">
      <!-- 0.8 -->
      <g style="fill: #262626" transform="translate(307.398935 190.416484) scale(0.15 -0.15)">
       <defs>
        <path id="DejaVuSerif-38" d="M 2981 1275 
Q 2981 1775 2732 2051 
Q 2484 2328 2034 2328 
Q 1584 2328 1336 2051 
Q 1088 1775 1088 1275 
Q 1088 772 1336 495 
Q 1584 219 2034 219 
Q 2484 219 2732 495 
Q 2981 772 2981 1275 
z
M 2853 3541 
Q 2853 3966 2637 4203 
Q 2422 4441 2034 4441 
Q 1650 4441 1433 4203 
Q 1216 3966 1216 3541 
Q 1216 3113 1433 2875 
Q 1650 2638 2034 2638 
Q 2422 2638 2637 2875 
Q 2853 3113 2853 3541 
z
M 2516 2484 
Q 3047 2413 3344 2092 
Q 3641 1772 3641 1275 
Q 3641 619 3225 264 
Q 2809 -91 2034 -91 
Q 1263 -91 845 264 
Q 428 619 428 1275 
Q 428 1772 725 2092 
Q 1022 2413 1556 2484 
Q 1084 2569 832 2842 
Q 581 3116 581 3541 
Q 581 4103 968 4426 
Q 1356 4750 2034 4750 
Q 2713 4750 3100 4426 
Q 3488 4103 3488 3541 
Q 3488 3116 3236 2842 
Q 2984 2569 2516 2484 
z
" transform="scale(0.015625)"/>
       </defs>
       <use xlink:href="#DejaVuSerif-30"/>
       <use xlink:href="#DejaVuSerif-2e" x="63.623047"/>
       <use xlink:href="#DejaVuSerif-38" x="95.410156"/>
      </g>
     </g>
    </g>
    <g id="xtick_6">
     <g id="line2d_11">
      <path d="M 380.199006 172.018828 
L 380.199006 5.698828 
" clip-path="url(#p60a4ca3dc9)" style="fill: none; stroke: #ffffff; stroke-linecap: round"/>
     </g>
     <g id="line2d_12"/>
     <g id="text_6">
      <!-- 1.0 -->
      <g style="fill: #262626" transform="translate(368.271662 190.416484) scale(0.15 -0.15)">
       <defs>
        <path id="DejaVuSerif-31" d="M 909 0 
L 909 331 
L 1722 331 
L 1722 4213 
L 781 3603 
L 781 4013 
L 1919 4750 
L 2350 4750 
L 2350 331 
L 3163 331 
L 3163 0 
L 909 0 
z
" transform="scale(0.015625)"/>
       </defs>
       <use xlink:href="#DejaVuSerif-31"/>
       <use xlink:href="#DejaVuSerif-2e" x="63.623047"/>
       <use xlink:href="#DejaVuSerif-30" x="95.410156"/>
      </g>
     </g>
    </g>
    <g id="text_7">
     <!-- $s_1$ -->
     <g style="fill: #262626" transform="translate(220.517188 208.933672) scale(0.15 -0.15)">
      <defs>
       <path id="DejaVuSans-Oblique-73" d="M 3200 3397 
L 3091 2853 
Q 2863 2978 2609 3040 
Q 2356 3103 2088 3103 
Q 1634 3103 1373 2948 
Q 1113 2794 1113 2528 
Q 1113 2219 1719 2053 
Q 1766 2041 1788 2034 
L 1972 1978 
Q 2547 1819 2739 1644 
Q 2931 1469 2931 1166 
Q 2931 609 2489 259 
Q 2047 -91 1331 -91 
Q 1053 -91 747 -37 
Q 441 16 72 128 
L 184 722 
Q 500 559 806 475 
Q 1113 391 1394 391 
Q 1816 391 2080 572 
Q 2344 753 2344 1031 
Q 2344 1331 1650 1516 
L 1591 1531 
L 1394 1581 
Q 956 1697 753 1886 
Q 550 2075 550 2369 
Q 550 2928 970 3256 
Q 1391 3584 2113 3584 
Q 2397 3584 2667 3537 
Q 2938 3491 3200 3397 
z
" transform="scale(0.015625)"/>
       <path id="DejaVuSans-31" d="M 794 531 
L 1825 531 
L 1825 4091 
L 703 3866 
L 703 4441 
L 1819 4666 
L 2450 4666 
L 2450 531 
L 3481 531 
L 3481 0 
L 794 0 
L 794 531 
z
" transform="scale(0.015625)"/>
      </defs>
      <use xlink:href="#DejaVuSans-Oblique-73"/>
      <use xlink:href="#DejaVuSans-31" transform="translate(52.099609 -16.40625) scale(0.7)"/>
     </g>
    </g>
   </g>
   <g id="matplotlib.axis_2">
    <g id="ytick_1">
     <g id="line2d_13">
      <path d="M 60.617188 172.018828 
L 395.417188 172.018828 
" clip-path="url(#p60a4ca3dc9)" style="fill: none; stroke: #ffffff; stroke-linecap: round"/>
     </g>
     <g id="line2d_14"/>
     <g id="text_8">
      <!-- $\mathdefault{10^{-2}}$ -->
      <g style="fill: #262626" transform="translate(18.517187 177.717656) scale(0.15 -0.15)">
       <defs>
        <path id="DejaVuSerif-2212" d="M 678 2259 
L 4684 2259 
L 4684 1753 
L 678 1753 
L 678 2259 
z
" transform="scale(0.015625)"/>
       </defs>
       <use xlink:href="#DejaVuSerif-31" transform="translate(0 0.7125)"/>
       <use xlink:href="#DejaVuSerif-30" transform="translate(63.623047 0.7125)"/>
       <use xlink:href="#DejaVuSerif-2212" transform="translate(128.154453 37.046875) scale(0.7)"/>
       <use xlink:href="#DejaVuSerif-32" transform="translate(186.806797 37.046875) scale(0.7)"/>
      </g>
     </g>
    </g>
    <g id="ytick_2">
     <g id="line2d_15">
      <path d="M 60.617188 130.438828 
L 395.417188 130.438828 
" clip-path="url(#p60a4ca3dc9)" style="fill: none; stroke: #ffffff; stroke-linecap: round"/>
     </g>
     <g id="line2d_16"/>
     <g id="text_9">
      <!-- $\mathdefault{10^{-1}}$ -->
      <g style="fill: #262626" transform="translate(18.517187 136.137656) scale(0.15 -0.15)">
       <use xlink:href="#DejaVuSerif-31" transform="translate(0 0.7125)"/>
       <use xlink:href="#DejaVuSerif-30" transform="translate(63.623047 0.7125)"/>
       <use xlink:href="#DejaVuSerif-2212" transform="translate(128.154453 37.046875) scale(0.7)"/>
       <use xlink:href="#DejaVuSerif-31" transform="translate(186.806797 37.046875) scale(0.7)"/>
      </g>
     </g>
    </g>
    <g id="ytick_3">
     <g id="line2d_17">
      <path d="M 60.617188 88.858828 
L 395.417188 88.858828 
" clip-path="url(#p60a4ca3dc9)" style="fill: none; stroke: #ffffff; stroke-linecap: round"/>
     </g>
     <g id="line2d_18"/>
     <g id="text_10">
      <!-- $\mathdefault{10^{0}}$ -->
      <g style="fill: #262626" transform="translate(27.217188 94.557656) scale(0.15 -0.15)">
       <use xlink:href="#DejaVuSerif-31" transform="translate(0 0.7125)"/>
       <use xlink:href="#DejaVuSerif-30" transform="translate(63.623047 0.7125)"/>
       <use xlink:href="#DejaVuSerif-30" transform="translate(128.154453 37.046875) scale(0.7)"/>
      </g>
     </g>
    </g>
    <g id="ytick_4">
     <g id="line2d_19">
      <path d="M 60.617188 47.278828 
L 395.417188 47.278828 
" clip-path="url(#p60a4ca3dc9)" style="fill: none; stroke: #ffffff; stroke-linecap: round"/>
     </g>
     <g id="line2d_20"/>
     <g id="text_11">
      <!-- $\mathdefault{10^{1}}$ -->
      <g style="fill: #262626" transform="translate(27.217188 52.977656) scale(0.15 -0.15)">
       <use xlink:href="#DejaVuSerif-31" transform="translate(0 0.7125)"/>
       <use xlink:href="#DejaVuSerif-30" transform="translate(63.623047 0.7125)"/>
       <use xlink:href="#DejaVuSerif-31" transform="translate(128.154453 37.046875) scale(0.7)"/>
      </g>
     </g>
    </g>
    <g id="ytick_5">
     <g id="line2d_21">
      <path d="M 60.617188 5.698828 
L 395.417188 5.698828 
" clip-path="url(#p60a4ca3dc9)" style="fill: none; stroke: #ffffff; stroke-linecap: round"/>
     </g>
     <g id="line2d_22"/>
     <g id="text_12">
      <!-- $\mathdefault{10^{2}}$ -->
      <g style="fill: #262626" transform="translate(27.217188 11.397656) scale(0.15 -0.15)">
       <use xlink:href="#DejaVuSerif-31" transform="translate(0 0.7125)"/>
       <use xlink:href="#DejaVuSerif-30" transform="translate(63.623047 0.7125)"/>
       <use xlink:href="#DejaVuSerif-32" transform="translate(128.154453 37.046875) scale(0.7)"/>
      </g>
     </g>
    </g>
    <g id="ytick_6">
     <g id="line2d_23"/>
    </g>
    <g id="ytick_7">
     <g id="line2d_24"/>
    </g>
    <g id="ytick_8">
     <g id="line2d_25"/>
    </g>
    <g id="ytick_9">
     <g id="line2d_26"/>
    </g>
    <g id="ytick_10">
     <g id="line2d_27"/>
    </g>
    <g id="ytick_11">
     <g id="line2d_28"/>
    </g>
    <g id="ytick_12">
     <g id="line2d_29"/>
    </g>
    <g id="ytick_13">
     <g id="line2d_30"/>
    </g>
    <g id="ytick_14">
     <g id="line2d_31"/>
    </g>
    <g id="ytick_15">
     <g id="line2d_32"/>
    </g>
    <g id="ytick_16">
     <g id="line2d_33"/>
    </g>
    <g id="ytick_17">
     <g id="line2d_34"/>
    </g>
    <g id="ytick_18">
     <g id="line2d_35"/>
    </g>
    <g id="ytick_19">
     <g id="line2d_36"/>
    </g>
    <g id="ytick_20">
     <g id="line2d_37"/>
    </g>
    <g id="ytick_21">
     <g id="line2d_38"/>
    </g>
    <g id="ytick_22">
     <g id="line2d_39"/>
    </g>
    <g id="ytick_23">
     <g id="line2d_40"/>
    </g>
    <g id="ytick_24">
     <g id="line2d_41"/>
    </g>
    <g id="ytick_25">
     <g id="line2d_42"/>
    </g>
    <g id="ytick_26">
     <g id="line2d_43"/>
    </g>
    <g id="ytick_27">
     <g id="line2d_44"/>
    </g>
    <g id="ytick_28">
     <g id="line2d_45"/>
    </g>
    <g id="ytick_29">
     <g id="line2d_46"/>
    </g>
    <g id="ytick_30">
     <g id="line2d_47"/>
    </g>
    <g id="ytick_31">
     <g id="line2d_48"/>
    </g>
    <g id="ytick_32">
     <g id="line2d_49"/>
    </g>
    <g id="ytick_33">
     <g id="line2d_50"/>
    </g>
    <g id="ytick_34">
     <g id="line2d_51"/>
    </g>
    <g id="ytick_35">
     <g id="line2d_52"/>
    </g>
    <g id="ytick_36">
     <g id="line2d_53"/>
    </g>
    <g id="ytick_37">
     <g id="line2d_54"/>
    </g>
    <g id="text_13">
     <!-- Density -->
     <g style="fill: #262626" transform="translate(11.184375 117.640078) rotate(-90) scale(0.15 -0.15)">
      <defs>
       <path id="DejaVuSerif-44" d="M 1581 331 
L 2163 331 
Q 3072 331 3558 850 
Q 4044 1369 4044 2338 
Q 4044 3306 3559 3818 
Q 3075 4331 2163 4331 
L 1581 4331 
L 1581 331 
z
M 353 0 
L 353 331 
L 947 331 
L 947 4331 
L 353 4331 
L 353 4666 
L 2209 4666 
Q 3416 4666 4089 4050 
Q 4763 3434 4763 2338 
Q 4763 1238 4088 619 
Q 3413 0 2209 0 
L 353 0 
z
" transform="scale(0.015625)"/>
       <path id="DejaVuSerif-65" d="M 3469 1600 
L 991 1600 
L 991 1575 
Q 991 903 1244 561 
Q 1497 219 1991 219 
Q 2369 219 2611 417 
Q 2853 616 2950 1006 
L 3413 1006 
Q 3275 459 2904 184 
Q 2534 -91 1931 -91 
Q 1203 -91 761 389 
Q 319 869 319 1663 
Q 319 2450 753 2931 
Q 1188 3413 1894 3413 
Q 2647 3413 3050 2948 
Q 3453 2484 3469 1600 
z
M 2791 1931 
Q 2772 2513 2545 2808 
Q 2319 3103 1894 3103 
Q 1497 3103 1269 2806 
Q 1041 2509 991 1931 
L 2791 1931 
z
" transform="scale(0.015625)"/>
       <path id="DejaVuSerif-6e" d="M 263 0 
L 263 331 
L 781 331 
L 781 2988 
L 231 2988 
L 231 3322 
L 1356 3322 
L 1356 2731 
Q 1516 3069 1770 3241 
Q 2025 3413 2363 3413 
Q 2913 3413 3172 3097 
Q 3431 2781 3431 2113 
L 3431 331 
L 3944 331 
L 3944 0 
L 2356 0 
L 2356 331 
L 2853 331 
L 2853 1931 
Q 2853 2541 2703 2767 
Q 2553 2994 2175 2994 
Q 1775 2994 1565 2701 
Q 1356 2409 1356 1850 
L 1356 331 
L 1856 331 
L 1856 0 
L 263 0 
z
" transform="scale(0.015625)"/>
       <path id="DejaVuSerif-73" d="M 359 184 
L 359 959 
L 691 959 
Q 703 588 923 403 
Q 1144 219 1575 219 
Q 1963 219 2166 364 
Q 2369 509 2369 788 
Q 2369 1006 2220 1140 
Q 2072 1275 1594 1428 
L 1178 1569 
Q 750 1706 558 1912 
Q 366 2119 366 2438 
Q 366 2894 700 3153 
Q 1034 3413 1625 3413 
Q 1888 3413 2178 3344 
Q 2469 3275 2778 3144 
L 2778 2419 
L 2447 2419 
Q 2434 2741 2221 2922 
Q 2009 3103 1644 3103 
Q 1281 3103 1095 2975 
Q 909 2847 909 2591 
Q 909 2381 1050 2254 
Q 1191 2128 1613 1997 
L 2069 1856 
Q 2541 1709 2748 1489 
Q 2956 1269 2956 922 
Q 2956 450 2595 179 
Q 2234 -91 1600 -91 
Q 1278 -91 972 -22 
Q 666 47 359 184 
z
" transform="scale(0.015625)"/>
       <path id="DejaVuSerif-69" d="M 622 4353 
Q 622 4497 726 4603 
Q 831 4709 978 4709 
Q 1122 4709 1226 4603 
Q 1331 4497 1331 4353 
Q 1331 4206 1228 4103 
Q 1125 4000 978 4000 
Q 831 4000 726 4103 
Q 622 4206 622 4353 
z
M 1356 331 
L 1900 331 
L 1900 0 
L 231 0 
L 231 331 
L 781 331 
L 781 2988 
L 231 2988 
L 231 3322 
L 1356 3322 
L 1356 331 
z
" transform="scale(0.015625)"/>
       <path id="DejaVuSerif-74" d="M 691 2988 
L 184 2988 
L 184 3322 
L 691 3322 
L 691 4353 
L 1269 4353 
L 1269 3322 
L 2350 3322 
L 2350 2988 
L 1269 2988 
L 1269 878 
Q 1269 456 1350 337 
Q 1431 219 1650 219 
Q 1875 219 1978 351 
Q 2081 484 2088 781 
L 2522 781 
Q 2497 328 2275 118 
Q 2053 -91 1600 -91 
Q 1103 -91 897 129 
Q 691 350 691 878 
L 691 2988 
z
" transform="scale(0.015625)"/>
       <path id="DejaVuSerif-79" d="M 1381 -609 
L 1600 -56 
L 359 2988 
L -19 2988 
L -19 3322 
L 1509 3322 
L 1509 2988 
L 978 2988 
L 1913 703 
L 2847 2988 
L 2350 2988 
L 2350 3322 
L 3597 3322 
L 3597 2988 
L 3225 2988 
L 1703 -750 
Q 1547 -1138 1356 -1280 
Q 1166 -1422 819 -1422 
Q 672 -1422 517 -1397 
Q 363 -1372 206 -1325 
L 206 -691 
L 500 -691 
Q 519 -903 608 -995 
Q 697 -1088 884 -1088 
Q 1056 -1088 1161 -992 
Q 1266 -897 1381 -609 
z
" transform="scale(0.015625)"/>
      </defs>
      <use xlink:href="#DejaVuSerif-44"/>
      <use xlink:href="#DejaVuSerif-65" x="80.175781"/>
      <use xlink:href="#DejaVuSerif-6e" x="139.355469"/>
      <use xlink:href="#DejaVuSerif-73" x="203.759766"/>
      <use xlink:href="#DejaVuSerif-69" x="255.078125"/>
      <use xlink:href="#DejaVuSerif-74" x="287.060547"/>
      <use xlink:href="#DejaVuSerif-79" x="327.246094"/>
     </g>
    </g>
   </g>
   <g id="PolyCollection_1">
    <path d="M 74.839613 243.477442 
L 74.839613 41668.858828 
L 75.453551 41668.858828 
L 76.067489 41668.858828 
L 76.681427 41668.858828 
L 77.295365 41668.858828 
L 77.909303 41668.858828 
L 78.523242 41668.858828 
L 79.13718 41668.858828 
L 79.751118 41668.858828 
L 80.365056 41668.858828 
L 80.978994 41668.858828 
L 81.592933 41668.858828 
L 82.206871 41668.858828 
L 82.820809 41668.858828 
L 83.434747 41668.858828 
L 84.048685 41668.858828 
L 84.662623 41668.858828 
L 85.276562 41668.858828 
L 85.8905 41668.858828 
L 86.504438 41668.858828 
L 87.118376 41668.858828 
L 87.732314 41668.858828 
L 88.346252 41668.858828 
L 88.960191 41668.858828 
L 89.574129 41668.858828 
L 90.188067 41668.858828 
L 90.802005 41668.858828 
L 91.415943 41668.858828 
L 92.029882 41668.858828 
L 92.64382 41668.858828 
L 93.257758 41668.858828 
L 93.871696 41668.858828 
L 94.485634 41668.858828 
L 95.099572 41668.858828 
L 95.713511 41668.858828 
L 96.327449 41668.858828 
L 96.941387 41668.858828 
L 97.555325 41668.858828 
L 98.169263 41668.858828 
L 98.783201 41668.858828 
L 99.39714 41668.858828 
L 100.011078 41668.858828 
L 100.625016 41668.858828 
L 101.238954 41668.858828 
L 101.852892 41668.858828 
L 102.466831 41668.858828 
L 103.080769 41668.858828 
L 103.694707 41668.858828 
L 104.308645 41668.858828 
L 104.922583 41668.858828 
L 105.536521 41668.858828 
L 106.15046 41668.858828 
L 106.764398 41668.858828 
L 107.378336 41668.858828 
L 107.992274 41668.858828 
L 108.606212 41668.858828 
L 109.22015 41668.858828 
L 109.834089 41668.858828 
L 110.448027 41668.858828 
L 111.061965 41668.858828 
L 111.675903 41668.858828 
L 112.289841 41668.858828 
L 112.90378 41668.858828 
L 113.517718 41668.858828 
L 114.131656 41668.858828 
L 114.745594 41668.858828 
L 115.359532 41668.858828 
L 115.97347 41668.858828 
L 116.587409 41668.858828 
L 117.201347 41668.858828 
L 117.815285 41668.858828 
L 118.429223 41668.858828 
L 119.043161 41668.858828 
L 119.657099 41668.858828 
L 120.271038 41668.858828 
L 120.884976 41668.858828 
L 121.498914 41668.858828 
L 122.112852 41668.858828 
L 122.72679 41668.858828 
L 123.340729 41668.858828 
L 123.954667 41668.858828 
L 124.568605 41668.858828 
L 125.182543 41668.858828 
L 125.796481 41668.858828 
L 126.410419 41668.858828 
L 127.024358 41668.858828 
L 127.638296 41668.858828 
L 128.252234 41668.858828 
L 128.866172 41668.858828 
L 129.48011 41668.858828 
L 130.094048 41668.858828 
L 130.707987 41668.858828 
L 131.321925 41668.858828 
L 131.935863 41668.858828 
L 132.549801 41668.858828 
L 133.163739 41668.858828 
L 133.777678 41668.858828 
L 134.391616 41668.858828 
L 135.005554 41668.858828 
L 135.619492 41668.858828 
L 136.23343 41668.858828 
L 136.847368 41668.858828 
L 137.461307 41668.858828 
L 138.075245 41668.858828 
L 138.689183 41668.858828 
L 139.303121 41668.858828 
L 139.917059 41668.858828 
L 140.530997 41668.858828 
L 141.144936 41668.858828 
L 141.758874 41668.858828 
L 142.372812 41668.858828 
L 142.98675 41668.858828 
L 143.600688 41668.858828 
L 144.214626 41668.858828 
L 144.828565 41668.858828 
L 145.442503 41668.858828 
L 146.056441 41668.858828 
L 146.670379 41668.858828 
L 147.284317 41668.858828 
L 147.898256 41668.858828 
L 148.512194 41668.858828 
L 149.126132 41668.858828 
L 149.74007 41668.858828 
L 150.354008 41668.858828 
L 150.967946 41668.858828 
L 151.581885 41668.858828 
L 152.195823 41668.858828 
L 152.809761 41668.858828 
L 153.423699 41668.858828 
L 154.037637 41668.858828 
L 154.651575 41668.858828 
L 155.265514 41668.858828 
L 155.879452 41668.858828 
L 156.49339 41668.858828 
L 157.107328 41668.858828 
L 157.721266 41668.858828 
L 158.335205 41668.858828 
L 158.949143 41668.858828 
L 159.563081 41668.858828 
L 160.177019 41668.858828 
L 160.790957 41668.858828 
L 161.404895 41668.858828 
L 162.018834 41668.858828 
L 162.632772 41668.858828 
L 163.24671 41668.858828 
L 163.860648 41668.858828 
L 164.474586 41668.858828 
L 165.088524 41668.858828 
L 165.702463 41668.858828 
L 166.316401 41668.858828 
L 166.930339 41668.858828 
L 167.544277 41668.858828 
L 168.158215 41668.858828 
L 168.772154 41668.858828 
L 169.386092 41668.858828 
L 170.00003 41668.858828 
L 170.613968 41668.858828 
L 171.227906 41668.858828 
L 171.841844 41668.858828 
L 172.455783 41668.858828 
L 173.069721 41668.858828 
L 173.683659 41668.858828 
L 174.297597 41668.858828 
L 174.911535 41668.858828 
L 175.525473 41668.858828 
L 176.139412 41668.858828 
L 176.75335 41668.858828 
L 177.367288 41668.858828 
L 177.981226 41668.858828 
L 178.595164 41668.858828 
L 179.209103 41668.858828 
L 179.823041 41668.858828 
L 180.436979 41668.858828 
L 181.050917 41668.858828 
L 181.664855 41668.858828 
L 182.278793 41668.858828 
L 182.892732 41668.858828 
L 183.50667 41668.858828 
L 184.120608 41668.858828 
L 184.734546 41668.858828 
L 185.348484 41668.858828 
L 185.962422 41668.858828 
L 186.576361 41668.858828 
L 187.190299 41668.858828 
L 187.804237 41668.858828 
L 188.418175 41668.858828 
L 189.032113 41668.858828 
L 189.646052 41668.858828 
L 190.25999 41668.858828 
L 190.873928 41668.858828 
L 191.487866 41668.858828 
L 192.101804 41668.858828 
L 192.715742 41668.858828 
L 193.329681 41668.858828 
L 193.943619 41668.858828 
L 194.557557 41668.858828 
L 195.171495 41668.858828 
L 195.785433 41668.858828 
L 196.399371 41668.858828 
L 197.01331 41668.858828 
L 197.627248 41668.858828 
L 198.241186 41668.858828 
L 198.855124 41668.858828 
L 199.469062 41668.858828 
L 200.083 41668.858828 
L 200.696939 41668.858828 
L 201.310877 41668.858828 
L 201.924815 41668.858828 
L 202.538753 41668.858828 
L 203.152691 41668.858828 
L 203.76663 41668.858828 
L 204.380568 41668.858828 
L 204.994506 41668.858828 
L 205.608444 41668.858828 
L 206.222382 41668.858828 
L 206.83632 41668.858828 
L 207.450259 41668.858828 
L 208.064197 41668.858828 
L 208.678135 41668.858828 
L 209.292073 41668.858828 
L 209.906011 41668.858828 
L 210.519949 41668.858828 
L 211.133888 41668.858828 
L 211.747826 41668.858828 
L 212.361764 41668.858828 
L 212.975702 41668.858828 
L 213.58964 41668.858828 
L 214.203579 41668.858828 
L 214.817517 41668.858828 
L 215.431455 41668.858828 
L 216.045393 41668.858828 
L 216.659331 41668.858828 
L 217.273269 41668.858828 
L 217.887208 41668.858828 
L 218.501146 41668.858828 
L 219.115084 41668.858828 
L 219.729022 41668.858828 
L 220.34296 41668.858828 
L 220.956898 41668.858828 
L 221.570837 41668.858828 
L 222.184775 41668.858828 
L 222.798713 41668.858828 
L 223.412651 41668.858828 
L 224.026589 41668.858828 
L 224.640528 41668.858828 
L 225.254466 41668.858828 
L 225.868404 41668.858828 
L 226.482342 41668.858828 
L 227.09628 41668.858828 
L 227.710218 41668.858828 
L 228.324157 41668.858828 
L 228.938095 41668.858828 
L 229.552033 41668.858828 
L 230.165971 41668.858828 
L 230.779909 41668.858828 
L 231.393847 41668.858828 
L 232.007786 41668.858828 
L 232.621724 41668.858828 
L 233.235662 41668.858828 
L 233.8496 41668.858828 
L 234.463538 41668.858828 
L 235.077477 41668.858828 
L 235.691415 41668.858828 
L 236.305353 41668.858828 
L 236.919291 41668.858828 
L 237.533229 41668.858828 
L 238.147167 41668.858828 
L 238.761106 41668.858828 
L 239.375044 41668.858828 
L 239.988982 41668.858828 
L 240.60292 41668.858828 
L 241.216858 41668.858828 
L 241.830796 41668.858828 
L 242.444735 41668.858828 
L 243.058673 41668.858828 
L 243.672611 41668.858828 
L 244.286549 41668.858828 
L 244.900487 41668.858828 
L 245.514426 41668.858828 
L 246.128364 41668.858828 
L 246.742302 41668.858828 
L 247.35624 41668.858828 
L 247.970178 41668.858828 
L 248.584116 41668.858828 
L 249.198055 41668.858828 
L 249.811993 41668.858828 
L 250.425931 41668.858828 
L 251.039869 41668.858828 
L 251.653807 41668.858828 
L 252.267745 41668.858828 
L 252.881684 41668.858828 
L 253.495622 41668.858828 
L 254.10956 41668.858828 
L 254.723498 41668.858828 
L 255.337436 41668.858828 
L 255.951375 41668.858828 
L 256.565313 41668.858828 
L 257.179251 41668.858828 
L 257.793189 41668.858828 
L 258.407127 41668.858828 
L 259.021065 41668.858828 
L 259.635004 41668.858828 
L 260.248942 41668.858828 
L 260.86288 41668.858828 
L 261.476818 41668.858828 
L 262.090756 41668.858828 
L 262.704694 41668.858828 
L 263.318633 41668.858828 
L 263.932571 41668.858828 
L 264.546509 41668.858828 
L 265.160447 41668.858828 
L 265.774385 41668.858828 
L 266.388323 41668.858828 
L 267.002262 41668.858828 
L 267.6162 41668.858828 
L 268.230138 41668.858828 
L 268.844076 41668.858828 
L 269.458014 41668.858828 
L 270.071953 41668.858828 
L 270.685891 41668.858828 
L 271.299829 41668.858828 
L 271.913767 41668.858828 
L 272.527705 41668.858828 
L 273.141643 41668.858828 
L 273.755582 41668.858828 
L 274.36952 41668.858828 
L 274.983458 41668.858828 
L 275.597396 41668.858828 
L 276.211334 41668.858828 
L 276.825272 41668.858828 
L 277.439211 41668.858828 
L 278.053149 41668.858828 
L 278.667087 41668.858828 
L 279.281025 41668.858828 
L 279.894963 41668.858828 
L 280.508902 41668.858828 
L 281.12284 41668.858828 
L 281.736778 41668.858828 
L 282.350716 41668.858828 
L 282.964654 41668.858828 
L 283.578592 41668.858828 
L 284.192531 41668.858828 
L 284.806469 41668.858828 
L 285.420407 41668.858828 
L 286.034345 41668.858828 
L 286.648283 41668.858828 
L 287.262221 41668.858828 
L 287.87616 41668.858828 
L 288.490098 41668.858828 
L 289.104036 41668.858828 
L 289.717974 41668.858828 
L 290.331912 41668.858828 
L 290.945851 41668.858828 
L 291.559789 41668.858828 
L 292.173727 41668.858828 
L 292.787665 41668.858828 
L 293.401603 41668.858828 
L 294.015541 41668.858828 
L 294.62948 41668.858828 
L 295.243418 41668.858828 
L 295.857356 41668.858828 
L 296.471294 41668.858828 
L 297.085232 41668.858828 
L 297.69917 41668.858828 
L 298.313109 41668.858828 
L 298.927047 41668.858828 
L 299.540985 41668.858828 
L 300.154923 41668.858828 
L 300.768861 41668.858828 
L 301.3828 41668.858828 
L 301.996738 41668.858828 
L 302.610676 41668.858828 
L 303.224614 41668.858828 
L 303.838552 41668.858828 
L 304.45249 41668.858828 
L 305.066429 41668.858828 
L 305.680367 41668.858828 
L 306.294305 41668.858828 
L 306.908243 41668.858828 
L 307.522181 41668.858828 
L 308.136119 41668.858828 
L 308.750058 41668.858828 
L 309.363996 41668.858828 
L 309.977934 41668.858828 
L 310.591872 41668.858828 
L 311.20581 41668.858828 
L 311.819749 41668.858828 
L 312.433687 41668.858828 
L 313.047625 41668.858828 
L 313.661563 41668.858828 
L 314.275501 41668.858828 
L 314.889439 41668.858828 
L 315.503378 41668.858828 
L 316.117316 41668.858828 
L 316.731254 41668.858828 
L 317.345192 41668.858828 
L 317.95913 41668.858828 
L 318.573068 41668.858828 
L 319.187007 41668.858828 
L 319.800945 41668.858828 
L 320.414883 41668.858828 
L 321.028821 41668.858828 
L 321.642759 41668.858828 
L 322.256697 41668.858828 
L 322.870636 41668.858828 
L 323.484574 41668.858828 
L 324.098512 41668.858828 
L 324.71245 41668.858828 
L 325.326388 41668.858828 
L 325.940327 41668.858828 
L 326.554265 41668.858828 
L 327.168203 41668.858828 
L 327.782141 41668.858828 
L 328.396079 41668.858828 
L 329.010017 41668.858828 
L 329.623956 41668.858828 
L 330.237894 41668.858828 
L 330.851832 41668.858828 
L 331.46577 41668.858828 
L 332.079708 41668.858828 
L 332.693646 41668.858828 
L 333.307585 41668.858828 
L 333.921523 41668.858828 
L 334.535461 41668.858828 
L 335.149399 41668.858828 
L 335.763337 41668.858828 
L 336.377276 41668.858828 
L 336.991214 41668.858828 
L 337.605152 41668.858828 
L 338.21909 41668.858828 
L 338.833028 41668.858828 
L 339.446966 41668.858828 
L 340.060905 41668.858828 
L 340.674843 41668.858828 
L 341.288781 41668.858828 
L 341.902719 41668.858828 
L 342.516657 41668.858828 
L 343.130595 41668.858828 
L 343.744534 41668.858828 
L 344.358472 41668.858828 
L 344.97241 41668.858828 
L 345.586348 41668.858828 
L 346.200286 41668.858828 
L 346.814225 41668.858828 
L 347.428163 41668.858828 
L 348.042101 41668.858828 
L 348.656039 41668.858828 
L 349.269977 41668.858828 
L 349.883915 41668.858828 
L 350.497854 41668.858828 
L 351.111792 41668.858828 
L 351.72573 41668.858828 
L 352.339668 41668.858828 
L 352.953606 41668.858828 
L 353.567544 41668.858828 
L 354.181483 41668.858828 
L 354.795421 41668.858828 
L 355.409359 41668.858828 
L 356.023297 41668.858828 
L 356.637235 41668.858828 
L 357.251174 41668.858828 
L 357.865112 41668.858828 
L 358.47905 41668.858828 
L 359.092988 41668.858828 
L 359.706926 41668.858828 
L 360.320864 41668.858828 
L 360.934803 41668.858828 
L 361.548741 41668.858828 
L 362.162679 41668.858828 
L 362.776617 41668.858828 
L 363.390555 41668.858828 
L 364.004493 41668.858828 
L 364.618432 41668.858828 
L 365.23237 41668.858828 
L 365.846308 41668.858828 
L 366.460246 41668.858828 
L 367.074184 41668.858828 
L 367.688123 41668.858828 
L 368.302061 41668.858828 
L 368.915999 41668.858828 
L 369.529937 41668.858828 
L 370.143875 41668.858828 
L 370.757813 41668.858828 
L 371.371752 41668.858828 
L 371.98569 41668.858828 
L 372.599628 41668.858828 
L 373.213566 41668.858828 
L 373.827504 41668.858828 
L 374.441442 41668.858828 
L 375.055381 41668.858828 
L 375.669319 41668.858828 
L 376.283257 41668.858828 
L 376.897195 41668.858828 
L 377.511133 41668.858828 
L 378.125072 41668.858828 
L 378.73901 41668.858828 
L 379.352948 41668.858828 
L 379.966886 41668.858828 
L 380.580824 41668.858828 
L 381.194762 41668.858828 
L 381.194762 250.025633 
L 381.194762 250.025633 
L 380.580824 180.712617 
L 379.966886 173.180483 
L 379.352948 227.429232 
L 378.73901 343.431313 
L 378.125072 298.289349 
L 377.511133 196.96704 
L 376.897195 154.345259 
L 376.283257 151.049643 
L 375.669319 144.107399 
L 375.055381 130.715708 
L 374.441442 130.748165 
L 373.827504 137.906108 
L 373.213566 129.098955 
L 372.599628 126.845878 
L 371.98569 122.55145 
L 371.371752 120.028313 
L 370.757813 120.897497 
L 370.143875 114.596407 
L 369.529937 105.93503 
L 368.915999 105.827777 
L 368.302061 100.734882 
L 367.688123 98.764429 
L 367.074184 99.891977 
L 366.460246 96.611172 
L 365.846308 89.96743 
L 365.23237 88.318399 
L 364.618432 89.860087 
L 364.004493 88.783698 
L 363.390555 84.113791 
L 362.776617 81.208396 
L 362.162679 82.011116 
L 361.548741 79.641669 
L 360.934803 79.103748 
L 360.320864 79.357421 
L 359.706926 79.062934 
L 359.092988 77.978791 
L 358.47905 75.724157 
L 357.865112 74.237557 
L 357.251174 77.664824 
L 356.637235 77.163046 
L 356.023297 75.386299 
L 355.409359 75.19739 
L 354.795421 73.265832 
L 354.181483 72.87029 
L 353.567544 74.961761 
L 352.953606 72.490684 
L 352.339668 73.002996 
L 351.72573 74.009237 
L 351.111792 71.868359 
L 350.497854 73.332183 
L 349.883915 74.322725 
L 349.269977 72.302378 
L 348.656039 69.845033 
L 348.042101 69.400587 
L 347.428163 71.506795 
L 346.814225 69.789841 
L 346.200286 70.263612 
L 345.586348 70.064373 
L 344.97241 69.634986 
L 344.358472 70.76142 
L 343.744534 70.694135 
L 343.130595 70.169812 
L 342.516657 70.046492 
L 341.902719 70.160885 
L 341.288781 72.462159 
L 340.674843 72.072774 
L 340.060905 70.452745 
L 339.446966 70.002895 
L 338.833028 71.08171 
L 338.21909 72.650881 
L 337.605152 71.635384 
L 336.991214 69.723474 
L 336.377276 70.442731 
L 335.763337 70.772954 
L 335.149399 71.182785 
L 334.535461 71.265258 
L 333.921523 71.048669 
L 333.307585 73.525166 
L 332.693646 75.148481 
L 332.079708 72.934999 
L 331.46577 73.593498 
L 330.851832 74.63835 
L 330.237894 76.029355 
L 329.623956 74.666982 
L 329.010017 74.668198 
L 328.396079 74.158278 
L 327.782141 76.049572 
L 327.168203 74.605971 
L 326.554265 73.534579 
L 325.940327 75.218763 
L 325.326388 77.041319 
L 324.71245 78.185728 
L 324.098512 76.336816 
L 323.484574 75.752961 
L 322.870636 75.637264 
L 322.256697 77.034341 
L 321.642759 76.862128 
L 321.028821 76.403291 
L 320.414883 77.013064 
L 319.800945 80.641741 
L 319.187007 79.954337 
L 318.573068 79.494525 
L 317.95913 79.545428 
L 317.345192 81.287865 
L 316.731254 79.454907 
L 316.117316 80.812422 
L 315.503378 81.510137 
L 314.889439 83.028622 
L 314.275501 83.49797 
L 313.661563 83.424573 
L 313.047625 81.432243 
L 312.433687 80.434774 
L 311.819749 82.699597 
L 311.20581 81.513174 
L 310.591872 82.288734 
L 309.977934 81.192375 
L 309.363996 82.339275 
L 308.750058 85.317895 
L 308.136119 84.714905 
L 307.522181 84.317006 
L 306.908243 85.525741 
L 306.294305 82.530377 
L 305.680367 85.952788 
L 305.066429 85.462809 
L 304.45249 84.113567 
L 303.838552 86.647255 
L 303.224614 90.972607 
L 302.610676 89.04148 
L 301.996738 86.415495 
L 301.3828 87.403257 
L 300.768861 86.215335 
L 300.154923 84.89466 
L 299.540985 86.642053 
L 298.927047 84.242541 
L 298.313109 81.756702 
L 297.69917 84.185568 
L 297.085232 85.30628 
L 296.471294 82.462406 
L 295.857356 83.886646 
L 295.243418 85.357076 
L 294.62948 85.911147 
L 294.015541 85.603586 
L 293.401603 86.774717 
L 292.787665 88.175693 
L 292.173727 89.744608 
L 291.559789 90.113205 
L 290.945851 90.675432 
L 290.331912 88.497371 
L 289.717974 85.436159 
L 289.104036 86.143876 
L 288.490098 83.082535 
L 287.87616 79.328992 
L 287.262221 80.566552 
L 286.648283 78.126495 
L 286.034345 76.432522 
L 285.420407 76.958997 
L 284.806469 78.784408 
L 284.192531 80.053188 
L 283.578592 82.476027 
L 282.964654 87.111765 
L 282.350716 93.472328 
L 281.736778 92.546258 
L 281.12284 91.886722 
L 280.508902 89.194653 
L 279.894963 85.130749 
L 279.281025 84.005123 
L 278.667087 80.321364 
L 278.053149 75.802051 
L 277.439211 76.09091 
L 276.825272 77.007486 
L 276.211334 77.749875 
L 275.597396 79.24757 
L 274.983458 81.328276 
L 274.36952 82.871223 
L 273.755582 87.971757 
L 273.141643 90.073618 
L 272.527705 95.432087 
L 271.913767 100.973389 
L 271.299829 104.693575 
L 270.685891 108.048722 
L 270.071953 103.753075 
L 269.458014 98.215848 
L 268.844076 92.027041 
L 268.230138 86.019381 
L 267.6162 82.058275 
L 267.002262 82.321161 
L 266.388323 81.025956 
L 265.774385 81.490272 
L 265.160447 80.495874 
L 264.546509 78.329019 
L 263.932571 79.305072 
L 263.318633 79.899916 
L 262.704694 85.220368 
L 262.090756 87.231731 
L 261.476818 92.979158 
L 260.86288 95.74182 
L 260.248942 99.771166 
L 259.635004 103.172126 
L 259.021065 111.050807 
L 258.407127 117.132393 
L 257.793189 114.695872 
L 257.179251 113.324954 
L 256.565313 111.430375 
L 255.951375 111.209971 
L 255.337436 104.849901 
L 254.723498 99.021484 
L 254.10956 92.95394 
L 253.495622 90.611266 
L 252.881684 88.2554 
L 252.267745 84.831935 
L 251.653807 81.92172 
L 251.039869 80.640057 
L 250.425931 77.852398 
L 249.811993 77.982489 
L 249.198055 81.593337 
L 248.584116 83.572084 
L 247.970178 81.706443 
L 247.35624 86.338192 
L 246.742302 92.571858 
L 246.128364 92.16371 
L 245.514426 92.89699 
L 244.900487 102.503237 
L 244.286549 106.375633 
L 243.672611 108.800378 
L 243.058673 114.234952 
L 242.444735 117.656716 
L 241.830796 121.087162 
L 241.216858 125.954646 
L 240.60292 129.825475 
L 239.988982 125.628602 
L 239.375044 124.036395 
L 238.761106 114.843326 
L 238.147167 106.973831 
L 237.533229 106.885358 
L 236.919291 102.595375 
L 236.305353 100.150134 
L 235.691415 97.34059 
L 235.077477 92.961125 
L 234.463538 89.840615 
L 233.8496 88.346708 
L 233.235662 85.687159 
L 232.621724 84.503887 
L 232.007786 83.798268 
L 231.393847 80.612673 
L 230.779909 81.046736 
L 230.165971 82.376128 
L 229.552033 85.794964 
L 228.938095 86.780095 
L 228.324157 86.132113 
L 227.710218 89.210363 
L 227.09628 90.190202 
L 226.482342 90.138675 
L 225.868404 93.115297 
L 225.254466 101.776558 
L 224.640528 106.497186 
L 224.026589 114.950348 
L 223.412651 120.672231 
L 222.798713 123.328703 
L 222.184775 126.118118 
L 221.570837 133.589517 
L 220.956898 123.710565 
L 220.34296 131.962723 
L 219.729022 146.910912 
L 219.115084 141.979541 
L 218.501146 150.449577 
L 217.887208 142.395669 
L 217.273269 125.464998 
L 216.659331 125.433789 
L 216.045393 125.048357 
L 215.431455 116.908087 
L 214.817517 113.852747 
L 214.203579 108.129461 
L 213.58964 105.935402 
L 212.975702 106.879229 
L 212.361764 99.044533 
L 211.747826 95.923702 
L 211.133888 91.39464 
L 210.519949 88.910649 
L 209.906011 85.915567 
L 209.292073 85.509651 
L 208.678135 83.823192 
L 208.064197 84.958045 
L 207.450259 86.148084 
L 206.83632 84.852595 
L 206.222382 85.367479 
L 205.608444 84.739368 
L 204.994506 84.222136 
L 204.380568 86.810269 
L 203.76663 90.624491 
L 203.152691 89.266358 
L 202.538753 91.650858 
L 201.924815 94.946589 
L 201.310877 99.725109 
L 200.696939 101.766395 
L 200.083 104.228259 
L 199.469062 107.823398 
L 198.855124 108.611823 
L 198.241186 111.477485 
L 197.627248 119.783696 
L 197.01331 125.529619 
L 196.399371 129.893599 
L 195.785433 138.615993 
L 195.171495 135.045199 
L 194.557557 135.416342 
L 193.943619 143.661443 
L 193.329681 159.389389 
L 192.715742 143.201728 
L 192.101804 150.751921 
L 191.487866 153.537885 
L 190.873928 154.920641 
L 190.25999 135.199901 
L 189.646052 128.592097 
L 189.032113 125.748743 
L 188.418175 115.361496 
L 187.804237 114.324336 
L 187.190299 115.620232 
L 186.576361 113.843974 
L 185.962422 111.117517 
L 185.348484 106.206241 
L 184.734546 105.079931 
L 184.120608 103.662632 
L 183.50667 96.436879 
L 182.892732 94.248806 
L 182.278793 92.392695 
L 181.664855 92.801713 
L 181.050917 92.528563 
L 180.436979 90.335584 
L 179.823041 87.834499 
L 179.209103 85.112958 
L 178.595164 84.494727 
L 177.981226 84.562222 
L 177.367288 88.834157 
L 176.75335 89.97652 
L 176.139412 88.247002 
L 175.525473 91.727439 
L 174.911535 93.458526 
L 174.297597 92.967549 
L 173.683659 94.862394 
L 173.069721 96.47833 
L 172.455783 102.16911 
L 171.841844 109.355203 
L 171.227906 114.439838 
L 170.613968 118.968751 
L 170.00003 120.720793 
L 169.386092 133.646777 
L 168.772154 130.778757 
L 168.158215 128.312569 
L 167.544277 127.639812 
L 166.930339 137.140507 
L 166.316401 159.69373 
L 165.702463 154.344958 
L 165.088524 148.389676 
L 164.474586 151.311984 
L 163.860648 163.197199 
L 163.24671 149.678131 
L 162.632772 135.094151 
L 162.018834 129.45354 
L 161.404895 134.839161 
L 160.790957 118.686966 
L 160.177019 115.137618 
L 159.563081 110.027576 
L 158.949143 104.745367 
L 158.335205 95.680451 
L 157.721266 90.270919 
L 157.107328 86.318698 
L 156.49339 81.563011 
L 155.879452 79.645389 
L 155.265514 78.520549 
L 154.651575 77.970848 
L 154.037637 77.245116 
L 153.423699 77.869688 
L 152.809761 80.582938 
L 152.195823 85.482335 
L 151.581885 86.971616 
L 150.967946 90.362724 
L 150.354008 97.553337 
L 149.74007 105.495161 
L 149.126132 108.958531 
L 148.512194 116.720331 
L 147.898256 131.625357 
L 147.284317 128.448879 
L 146.670379 132.591656 
L 146.056441 130.228721 
L 145.442503 143.855221 
L 144.828565 157.383998 
L 144.214626 146.038936 
L 143.600688 142.992866 
L 142.98675 124.051973 
L 142.372812 116.931987 
L 141.758874 107.271427 
L 141.144936 98.040261 
L 140.530997 92.740207 
L 139.917059 91.052378 
L 139.303121 89.130099 
L 138.689183 83.171116 
L 138.075245 80.82602 
L 137.461307 78.850283 
L 136.847368 78.393346 
L 136.23343 77.369041 
L 135.619492 79.847845 
L 135.005554 80.565121 
L 134.391616 81.33423 
L 133.777678 83.896693 
L 133.163739 87.776906 
L 132.549801 89.394643 
L 131.935863 95.261842 
L 131.321925 102.300428 
L 130.707987 110.437317 
L 130.094048 116.536285 
L 129.48011 117.433537 
L 128.866172 126.786896 
L 128.252234 130.861348 
L 127.638296 131.090784 
L 127.024358 142.412077 
L 126.410419 150.517648 
L 125.796481 197.020114 
L 125.182543 220.984495 
L 124.568605 158.076528 
L 123.954667 154.63738 
L 123.340729 163.036742 
L 122.72679 138.722944 
L 122.112852 137.314186 
L 121.498914 121.261491 
L 120.884976 116.34966 
L 120.271038 109.135858 
L 119.657099 104.060574 
L 119.043161 100.505133 
L 118.429223 92.835354 
L 117.815285 87.793399 
L 117.201347 82.051525 
L 116.587409 81.005369 
L 115.97347 81.833533 
L 115.359532 77.364035 
L 114.745594 75.762686 
L 114.131656 75.610236 
L 113.517718 77.277023 
L 112.90378 77.618207 
L 112.289841 78.841649 
L 111.675903 81.198181 
L 111.061965 84.891798 
L 110.448027 88.560306 
L 109.834089 93.52216 
L 109.22015 97.114678 
L 108.606212 104.911332 
L 107.992274 114.933949 
L 107.378336 125.825563 
L 106.764398 129.282165 
L 106.15046 137.083888 
L 105.536521 142.224999 
L 104.922583 138.878628 
L 104.308645 150.489938 
L 103.694707 153.159703 
L 103.080769 146.776057 
L 102.466831 145.997658 
L 101.852892 161.391986 
L 101.238954 168.509982 
L 100.625016 188.499509 
L 100.011078 268.743034 
L 99.39714 240.892724 
L 98.783201 169.452398 
L 98.169263 155.718905 
L 97.555325 147.344538 
L 96.941387 147.181177 
L 96.327449 133.191092 
L 95.713511 120.844944 
L 95.099572 110.221815 
L 94.485634 98.97353 
L 93.871696 89.856189 
L 93.257758 82.161737 
L 92.64382 73.33546 
L 92.029882 67.900281 
L 91.415943 66.285402 
L 90.802005 66.719078 
L 90.188067 71.850665 
L 89.574129 77.405187 
L 88.960191 82.63785 
L 88.346252 90.340133 
L 87.732314 95.978433 
L 87.118376 103.304607 
L 86.504438 110.612854 
L 85.8905 123.559939 
L 85.276562 121.232516 
L 84.662623 120.638417 
L 84.048685 130.244976 
L 83.434747 141.27396 
L 82.820809 147.71847 
L 82.206871 151.953099 
L 81.592933 139.437155 
L 80.978994 116.14789 
L 80.365056 97.27819 
L 79.751118 86.791364 
L 79.13718 77.763213 
L 78.523242 75.533358 
L 77.909303 76.858171 
L 77.295365 86.902364 
L 76.681427 109.614034 
L 76.067489 137.907048 
L 75.453551 167.709357 
L 74.839613 243.477442 
z
" clip-path="url(#p60a4ca3dc9)" style="fill: #4c72b0; fill-opacity: 0.25; stroke: #4c72b0; stroke-width: 0.3"/>
   </g>
   <g id="patch_3">
    <path d="M 60.617188 172.018828 
L 60.617188 5.698828 
" style="fill: none"/>
   </g>
   <g id="patch_4">
    <path d="M 395.417188 172.018828 
L 395.417188 5.698828 
" style="fill: none"/>
   </g>
   <g id="patch_5">
    <path d="M 60.617188 172.018828 
L 395.417188 172.018828 
" style="fill: none"/>
   </g>
   <g id="patch_6">
    <path d="M 60.617188 5.698828 
L 395.417188 5.698828 
" style="fill: none"/>
   </g>
   <g id="text_14">
    <!-- 0 -->
    <g transform="translate(78.652627 68.028376) scale(0.1 -0.1)">
     <use xlink:href="#DejaVuSerif-30"/>
    </g>
   </g>
   <g id="text_15">
    <!-- 1 -->
    <g transform="translate(90.98808 64.375618) scale(0.1 -0.1)">
     <use xlink:href="#DejaVuSerif-31"/>
    </g>
   </g>
   <g id="text_16">
    <!-- 2 -->
    <g transform="translate(114.131469 69.166958) scale(0.1 -0.1)">
     <use xlink:href="#DejaVuSerif-32"/>
    </g>
   </g>
   <g id="text_17">
    <!-- 3 -->
    <g transform="translate(136.195621 70.320061) scale(0.1 -0.1)">
     <defs>
      <path id="DejaVuSerif-33" d="M 622 4469 
Q 988 4606 1323 4678 
Q 1659 4750 1953 4750 
Q 2638 4750 3022 4454 
Q 3406 4159 3406 3634 
Q 3406 3213 3140 2930 
Q 2875 2647 2388 2547 
Q 2963 2466 3280 2130 
Q 3597 1794 3597 1259 
Q 3597 606 3158 257 
Q 2719 -91 1894 -91 
Q 1528 -91 1179 -12 
Q 831 66 488 225 
L 488 1131 
L 838 1131 
Q 869 681 1141 450 
Q 1413 219 1906 219 
Q 2384 219 2661 495 
Q 2938 772 2938 1253 
Q 2938 1803 2653 2086 
Q 2369 2369 1819 2369 
L 1522 2369 
L 1522 2688 
L 1678 2688 
Q 2225 2688 2498 2914 
Q 2772 3141 2772 3597 
Q 2772 4006 2547 4223 
Q 2322 4441 1900 4441 
Q 1478 4441 1245 4241 
Q 1013 4041 972 3647 
L 622 3647 
L 622 4469 
z
" transform="scale(0.015625)"/>
     </defs>
     <use xlink:href="#DejaVuSerif-33"/>
    </g>
   </g>
   <g id="text_18">
    <!-- 4 -->
    <g transform="translate(154.43509 70.162859) scale(0.1 -0.1)">
     <use xlink:href="#DejaVuSerif-34"/>
    </g>
   </g>
   <g id="text_19">
    <!-- 5 -->
    <g transform="translate(178.688443 75.567779) scale(0.1 -0.1)">
     <defs>
      <path id="DejaVuSerif-35" d="M 3219 4666 
L 3219 4153 
L 1081 4153 
L 1081 2816 
Q 1244 2928 1461 2984 
Q 1678 3041 1947 3041 
Q 2703 3041 3140 2622 
Q 3578 2203 3578 1478 
Q 3578 738 3136 323 
Q 2694 -91 1894 -91 
Q 1572 -91 1234 -12 
Q 897 66 544 225 
L 544 1131 
L 897 1131 
Q 925 688 1179 453 
Q 1434 219 1894 219 
Q 2388 219 2653 544 
Q 2919 869 2919 1478 
Q 2919 2084 2655 2407 
Q 2391 2731 1894 2731 
Q 1613 2731 1398 2631 
Q 1184 2531 1019 2322 
L 750 2322 
L 750 4666 
L 3219 4666 
z
" transform="scale(0.015625)"/>
     </defs>
     <use xlink:href="#DejaVuSerif-35"/>
    </g>
   </g>
   <g id="text_20">
    <!-- 6 -->
    <g transform="translate(206.718064 73.922682) scale(0.1 -0.1)">
     <use xlink:href="#DejaVuSerif-36"/>
    </g>
   </g>
   <g id="text_21">
    <!-- 7 -->
    <g transform="translate(230.930623 72.955112) scale(0.1 -0.1)">
     <defs>
      <path id="DejaVuSerif-37" d="M 3609 4347 
L 1784 0 
L 1319 0 
L 3059 4153 
L 903 4153 
L 903 3578 
L 538 3578 
L 538 4666 
L 3609 4666 
L 3609 4347 
z
" transform="scale(0.015625)"/>
     </defs>
     <use xlink:href="#DejaVuSerif-37"/>
    </g>
   </g>
   <g id="text_22">
    <!-- 8 -->
    <g transform="translate(249.91642 71.448484) scale(0.1 -0.1)">
     <use xlink:href="#DejaVuSerif-38"/>
    </g>
   </g>
   <g id="text_23">
    <!-- 9 -->
    <g transform="translate(265.036332 70.614456) scale(0.1 -0.1)">
     <defs>
      <path id="DejaVuSerif-39" d="M 2994 2091 
Q 2784 1856 2512 1740 
Q 2241 1625 1900 1625 
Q 1206 1625 804 2044 
Q 403 2463 403 3188 
Q 403 3897 839 4323 
Q 1275 4750 2003 4750 
Q 2794 4750 3217 4161 
Q 3641 3572 3641 2478 
Q 3641 1253 3137 581 
Q 2634 -91 1722 -91 
Q 1475 -91 1203 -44 
Q 931 3 647 97 
L 647 872 
L 997 872 
Q 1038 556 1241 387 
Q 1444 219 1784 219 
Q 2391 219 2687 676 
Q 2984 1134 2994 2091 
z
M 1978 4441 
Q 1534 4441 1298 4117 
Q 1063 3794 1063 3188 
Q 1063 2581 1298 2256 
Q 1534 1931 1978 1931 
Q 2422 1931 2658 2245 
Q 2894 2559 2894 3150 
Q 2894 3772 2656 4106 
Q 2419 4441 1978 4441 
z
" transform="scale(0.015625)"/>
     </defs>
     <use xlink:href="#DejaVuSerif-39"/>
    </g>
   </g>
   <g id="text_24">
    <!-- 10 -->
    <g transform="translate(276.482249 69.460972) scale(0.1 -0.1)">
     <use xlink:href="#DejaVuSerif-31"/>
     <use xlink:href="#DejaVuSerif-30" x="63.623047"/>
    </g>
   </g>
   <g id="text_25">
    <!-- 11 -->
    <g transform="translate(286.314269 71.956213) scale(0.1 -0.1)">
     <use xlink:href="#DejaVuSerif-31"/>
     <use xlink:href="#DejaVuSerif-31" x="63.623047"/>
    </g>
   </g>
   <g id="text_26">
    <!-- 12 -->
    <g transform="translate(300.722795 74.262159) scale(0.1 -0.1)">
     <use xlink:href="#DejaVuSerif-31"/>
     <use xlink:href="#DejaVuSerif-32" x="63.623047"/>
    </g>
   </g>
   <g id="text_27">
    <!-- 13 -->
    <g transform="translate(318.981372 71.157841) scale(0.1 -0.1)">
     <use xlink:href="#DejaVuSerif-31"/>
     <use xlink:href="#DejaVuSerif-33" x="63.623047"/>
    </g>
   </g>
   <g id="text_28">
    <!-- 14 -->
    <g transform="translate(336.333246 66.323273) scale(0.1 -0.1)">
     <use xlink:href="#DejaVuSerif-31"/>
     <use xlink:href="#DejaVuSerif-34" x="63.623047"/>
    </g>
   </g>
   <g id="text_29">
    <!-- 15 -->
    <g transform="translate(350.798862 67.883982) scale(0.1 -0.1)">
     <use xlink:href="#DejaVuSerif-31"/>
     <use xlink:href="#DejaVuSerif-35" x="63.623047"/>
    </g>
   </g>
   <g id="text_30">
    <!-- 16+ -->
    <g transform="translate(362.029512 65.119104) scale(0.1 -0.1)">
     <defs>
      <path id="DejaVuSerif-2b" d="M 2931 4013 
L 2931 2259 
L 4684 2259 
L 4684 1753 
L 2931 1753 
L 2931 0 
L 2431 0 
L 2431 1753 
L 678 1753 
L 678 2259 
L 2431 2259 
L 2431 4013 
L 2931 4013 
z
" transform="scale(0.015625)"/>
     </defs>
     <use xlink:href="#DejaVuSerif-31"/>
     <use xlink:href="#DejaVuSerif-36" x="63.623047"/>
     <use xlink:href="#DejaVuSerif-2b" x="127.246094"/>
    </g>
   </g>
   <g id="text_31">
    <!-- MAX -->
    <g style="fill: #262626" transform="translate(326.589474 23.537308) scale(0.15 -0.15)">
     <defs>
      <path id="DejaVuSerif-4d" d="M 353 0 
L 353 331 
L 947 331 
L 947 4331 
L 319 4331 
L 319 4666 
L 1678 4666 
L 3316 1344 
L 4953 4666 
L 6228 4666 
L 6228 4331 
L 5606 4331 
L 5606 331 
L 6203 331 
L 6203 0 
L 4378 0 
L 4378 331 
L 4972 331 
L 4972 3938 
L 3372 684 
L 2931 684 
L 1331 3938 
L 1331 331 
L 1925 331 
L 1925 0 
L 353 0 
z
" transform="scale(0.015625)"/>
      <path id="DejaVuSerif-41" d="M 1281 1691 
L 2994 1691 
L 2138 3909 
L 1281 1691 
z
M -38 0 
L -38 331 
L 372 331 
L 2034 4666 
L 2559 4666 
L 4225 331 
L 4684 331 
L 4684 0 
L 2988 0 
L 2988 331 
L 3506 331 
L 3116 1356 
L 1153 1356 
L 763 331 
L 1275 331 
L 1275 0 
L -38 0 
z
" transform="scale(0.015625)"/>
      <path id="DejaVuSerif-58" d="M 2119 1997 
L 978 331 
L 1581 331 
L 1581 0 
L 38 0 
L 38 331 
L 575 331 
L 1919 2291 
L 556 4331 
L 56 4331 
L 56 4666 
L 1906 4666 
L 1906 4331 
L 1356 4331 
L 2356 2828 
L 3384 4331 
L 2784 4331 
L 2784 4666 
L 4313 4666 
L 4313 4331 
L 3788 4331 
L 2553 2534 
L 4025 331 
L 4525 331 
L 4525 0 
L 2675 0 
L 2675 331 
L 3231 331 
L 2119 1997 
z
" transform="scale(0.015625)"/>
     </defs>
     <use xlink:href="#DejaVuSerif-4d"/>
     <use xlink:href="#DejaVuSerif-41" x="102.392578"/>
     <use xlink:href="#DejaVuSerif-58" x="174.609375"/>
    </g>
   </g>
  </g>
 </g>
 <defs>
  <clipPath id="p60a4ca3dc9">
   <rect x="60.617188" y="5.698828" width="334.8" height="166.32"/>
  </clipPath>
 </defs>
</svg>
