<?xml version="1.0" encoding="utf-8" standalone="no"?>
<!DOCTYPE svg PUBLIC "-//W3C//DTD SVG 1.1//EN"
  "http://www.w3.org/Graphics/SVG/1.1/DTD/svg11.dtd">
<svg xmlns:xlink="http://www.w3.org/1999/xlink" width="395.417187pt" height="212.053203pt" viewBox="0 0 395.417187 212.053203" xmlns="http://www.w3.org/2000/svg" version="1.1">
 <metadata>
  <rdf:RDF xmlns:dc="http://purl.org/dc/elements/1.1/" xmlns:cc="http://creativecommons.org/ns#" xmlns:rdf="http://www.w3.org/1999/02/22-rdf-syntax-ns#">
   <cc:Work>
    <dc:type rdf:resource="http://purl.org/dc/dcmitype/StillImage"/>
    <dc:date>2024-11-11T11:56:13.950064</dc:date>
    <dc:format>image/svg+xml</dc:format>
    <dc:creator>
     <cc:Agent>
      <dc:title>Matplotlib v3.9.2, https://matplotlib.org/</dc:title>
     </cc:Agent>
    </dc:creator>
   </cc:Work>
  </rdf:RDF>
 </metadata>
 <defs>
  <style type="text/css">*{stroke-linejoin: round; stroke-linecap: butt}</style>
 </defs>
 <g id="figure_1">
  <g id="patch_1">
   <path d="M 0 212.053203 
L 395.417187 212.053203 
L 395.417187 0 
L 0 0 
z
" style="fill: #ffffff"/>
  </g>
  <g id="axes_1">
   <g id="patch_2">
    <path d="M 60.617188 172.018828 
L 395.417188 172.018828 
L 395.417188 5.698828 
L 60.617188 5.698828 
z
" style="fill: #eaeaf2"/>
   </g>
   <g id="matplotlib.axis_1">
    <g id="xtick_1">
     <g id="line2d_1">
      <path d="M 75.835369 172.018828 
L 75.835369 5.698828 
" clip-path="url(#p7703f34458)" style="fill: none; stroke: #ffffff; stroke-linecap: round"/>
     </g>
     <g id="line2d_2"/>
     <g id="text_1">
      <!-- 0.0 -->
      <g style="fill: #262626" transform="translate(63.908026 190.416484) scale(0.15 -0.15)">
       <defs>
        <path id="DejaVuSerif-30" d="M 2034 219 
Q 2513 219 2750 744 
Q 2988 1269 2988 2328 
Q 2988 3391 2750 3916 
Q 2513 4441 2034 4441 
Q 1556 4441 1318 3916 
Q 1081 3391 1081 2328 
Q 1081 1269 1318 744 
Q 1556 219 2034 219 
z
M 2034 -91 
Q 1275 -91 848 546 
Q 422 1184 422 2328 
Q 422 3475 848 4112 
Q 1275 4750 2034 4750 
Q 2797 4750 3222 4112 
Q 3647 3475 3647 2328 
Q 3647 1184 3222 546 
Q 2797 -91 2034 -91 
z
" transform="scale(0.015625)"/>
        <path id="DejaVuSerif-2e" d="M 603 325 
Q 603 500 722 622 
Q 841 744 1019 744 
Q 1191 744 1312 622 
Q 1434 500 1434 325 
Q 1434 153 1312 31 
Q 1191 -91 1019 -91 
Q 841 -91 722 29 
Q 603 150 603 325 
z
" transform="scale(0.015625)"/>
       </defs>
       <use xlink:href="#DejaVuSerif-30"/>
       <use xlink:href="#DejaVuSerif-2e" x="63.623047"/>
       <use xlink:href="#DejaVuSerif-30" x="95.410156"/>
      </g>
     </g>
    </g>
    <g id="xtick_2">
     <g id="line2d_3">
      <path d="M 136.708097 172.018828 
L 136.708097 5.698828 
" clip-path="url(#p7703f34458)" style="fill: none; stroke: #ffffff; stroke-linecap: round"/>
     </g>
     <g id="line2d_4"/>
     <g id="text_2">
      <!-- 0.2 -->
      <g style="fill: #262626" transform="translate(124.780753 190.416484) scale(0.15 -0.15)">
       <defs>
        <path id="DejaVuSerif-32" d="M 819 3553 
L 469 3553 
L 469 4384 
Q 803 4563 1142 4656 
Q 1481 4750 1806 4750 
Q 2534 4750 2956 4397 
Q 3378 4044 3378 3438 
Q 3378 2753 2422 1800 
Q 2347 1728 2309 1691 
L 1131 513 
L 3078 513 
L 3078 1088 
L 3444 1088 
L 3444 0 
L 434 0 
L 434 341 
L 1850 1753 
Q 2319 2222 2519 2614 
Q 2719 3006 2719 3438 
Q 2719 3909 2473 4175 
Q 2228 4441 1797 4441 
Q 1350 4441 1106 4219 
Q 863 3997 819 3553 
z
" transform="scale(0.015625)"/>
       </defs>
       <use xlink:href="#DejaVuSerif-30"/>
       <use xlink:href="#DejaVuSerif-2e" x="63.623047"/>
       <use xlink:href="#DejaVuSerif-32" x="95.410156"/>
      </g>
     </g>
    </g>
    <g id="xtick_3">
     <g id="line2d_5">
      <path d="M 197.580824 172.018828 
L 197.580824 5.698828 
" clip-path="url(#p7703f34458)" style="fill: none; stroke: #ffffff; stroke-linecap: round"/>
     </g>
     <g id="line2d_6"/>
     <g id="text_3">
      <!-- 0.4 -->
      <g style="fill: #262626" transform="translate(185.65348 190.416484) scale(0.15 -0.15)">
       <defs>
        <path id="DejaVuSerif-34" d="M 2234 1581 
L 2234 4063 
L 641 1581 
L 2234 1581 
z
M 3609 0 
L 1484 0 
L 1484 331 
L 2234 331 
L 2234 1247 
L 197 1247 
L 197 1588 
L 2241 4750 
L 2859 4750 
L 2859 1581 
L 3750 1581 
L 3750 1247 
L 2859 1247 
L 2859 331 
L 3609 331 
L 3609 0 
z
" transform="scale(0.015625)"/>
       </defs>
       <use xlink:href="#DejaVuSerif-30"/>
       <use xlink:href="#DejaVuSerif-2e" x="63.623047"/>
       <use xlink:href="#DejaVuSerif-34" x="95.410156"/>
      </g>
     </g>
    </g>
    <g id="xtick_4">
     <g id="line2d_7">
      <path d="M 258.453551 172.018828 
L 258.453551 5.698828 
" clip-path="url(#p7703f34458)" style="fill: none; stroke: #ffffff; stroke-linecap: round"/>
     </g>
     <g id="line2d_8"/>
     <g id="text_4">
      <!-- 0.6 -->
      <g style="fill: #262626" transform="translate(246.526207 190.416484) scale(0.15 -0.15)">
       <defs>
        <path id="DejaVuSerif-36" d="M 2094 219 
Q 2534 219 2771 542 
Q 3009 866 3009 1472 
Q 3009 2078 2771 2401 
Q 2534 2725 2094 2725 
Q 1647 2725 1412 2412 
Q 1178 2100 1178 1509 
Q 1178 888 1415 553 
Q 1653 219 2094 219 
z
M 1075 2569 
Q 1288 2803 1556 2918 
Q 1825 3034 2163 3034 
Q 2859 3034 3264 2615 
Q 3669 2197 3669 1472 
Q 3669 763 3233 336 
Q 2797 -91 2069 -91 
Q 1278 -91 853 498 
Q 428 1088 428 2181 
Q 428 3406 931 4078 
Q 1434 4750 2350 4750 
Q 2597 4750 2869 4703 
Q 3141 4656 3425 4563 
L 3425 3794 
L 3072 3794 
Q 3034 4109 2831 4275 
Q 2628 4441 2284 4441 
Q 1678 4441 1381 3981 
Q 1084 3522 1075 2569 
z
" transform="scale(0.015625)"/>
       </defs>
       <use xlink:href="#DejaVuSerif-30"/>
       <use xlink:href="#DejaVuSerif-2e" x="63.623047"/>
       <use xlink:href="#DejaVuSerif-36" x="95.410156"/>
      </g>
     </g>
    </g>
    <g id="xtick_5">
     <g id="line2d_9">
      <path d="M 319.326278 172.018828 
L 319.326278 5.698828 
" clip-path="url(#p7703f34458)" style="fill: none; stroke: #ffffff; stroke-linecap: round"/>
     </g>
     <g id="line2d_10"/>
     <g id="text_5">
      <!-- 0.8 -->
      <g style="fill: #262626" transform="translate(307.398935 190.416484) scale(0.15 -0.15)">
       <defs>
        <path id="DejaVuSerif-38" d="M 2981 1275 
Q 2981 1775 2732 2051 
Q 2484 2328 2034 2328 
Q 1584 2328 1336 2051 
Q 1088 1775 1088 1275 
Q 1088 772 1336 495 
Q 1584 219 2034 219 
Q 2484 219 2732 495 
Q 2981 772 2981 1275 
z
M 2853 3541 
Q 2853 3966 2637 4203 
Q 2422 4441 2034 4441 
Q 1650 4441 1433 4203 
Q 1216 3966 1216 3541 
Q 1216 3113 1433 2875 
Q 1650 2638 2034 2638 
Q 2422 2638 2637 2875 
Q 2853 3113 2853 3541 
z
M 2516 2484 
Q 3047 2413 3344 2092 
Q 3641 1772 3641 1275 
Q 3641 619 3225 264 
Q 2809 -91 2034 -91 
Q 1263 -91 845 264 
Q 428 619 428 1275 
Q 428 1772 725 2092 
Q 1022 2413 1556 2484 
Q 1084 2569 832 2842 
Q 581 3116 581 3541 
Q 581 4103 968 4426 
Q 1356 4750 2034 4750 
Q 2713 4750 3100 4426 
Q 3488 4103 3488 3541 
Q 3488 3116 3236 2842 
Q 2984 2569 2516 2484 
z
" transform="scale(0.015625)"/>
       </defs>
       <use xlink:href="#DejaVuSerif-30"/>
       <use xlink:href="#DejaVuSerif-2e" x="63.623047"/>
       <use xlink:href="#DejaVuSerif-38" x="95.410156"/>
      </g>
     </g>
    </g>
    <g id="xtick_6">
     <g id="line2d_11">
      <path d="M 380.199006 172.018828 
L 380.199006 5.698828 
" clip-path="url(#p7703f34458)" style="fill: none; stroke: #ffffff; stroke-linecap: round"/>
     </g>
     <g id="line2d_12"/>
     <g id="text_6">
      <!-- 1.0 -->
      <g style="fill: #262626" transform="translate(368.271662 190.416484) scale(0.15 -0.15)">
       <defs>
        <path id="DejaVuSerif-31" d="M 909 0 
L 909 331 
L 1722 331 
L 1722 4213 
L 781 3603 
L 781 4013 
L 1919 4750 
L 2350 4750 
L 2350 331 
L 3163 331 
L 3163 0 
L 909 0 
z
" transform="scale(0.015625)"/>
       </defs>
       <use xlink:href="#DejaVuSerif-31"/>
       <use xlink:href="#DejaVuSerif-2e" x="63.623047"/>
       <use xlink:href="#DejaVuSerif-30" x="95.410156"/>
      </g>
     </g>
    </g>
    <g id="text_7">
     <!-- $s_1$ -->
     <g style="fill: #262626" transform="translate(220.517188 208.933672) scale(0.15 -0.15)">
      <defs>
       <path id="DejaVuSans-Oblique-73" d="M 3200 3397 
L 3091 2853 
Q 2863 2978 2609 3040 
Q 2356 3103 2088 3103 
Q 1634 3103 1373 2948 
Q 1113 2794 1113 2528 
Q 1113 2219 1719 2053 
Q 1766 2041 1788 2034 
L 1972 1978 
Q 2547 1819 2739 1644 
Q 2931 1469 2931 1166 
Q 2931 609 2489 259 
Q 2047 -91 1331 -91 
Q 1053 -91 747 -37 
Q 441 16 72 128 
L 184 722 
Q 500 559 806 475 
Q 1113 391 1394 391 
Q 1816 391 2080 572 
Q 2344 753 2344 1031 
Q 2344 1331 1650 1516 
L 1591 1531 
L 1394 1581 
Q 956 1697 753 1886 
Q 550 2075 550 2369 
Q 550 2928 970 3256 
Q 1391 3584 2113 3584 
Q 2397 3584 2667 3537 
Q 2938 3491 3200 3397 
z
" transform="scale(0.015625)"/>
       <path id="DejaVuSans-31" d="M 794 531 
L 1825 531 
L 1825 4091 
L 703 3866 
L 703 4441 
L 1819 4666 
L 2450 4666 
L 2450 531 
L 3481 531 
L 3481 0 
L 794 0 
L 794 531 
z
" transform="scale(0.015625)"/>
      </defs>
      <use xlink:href="#DejaVuSans-Oblique-73"/>
      <use xlink:href="#DejaVuSans-31" transform="translate(52.099609 -16.40625) scale(0.7)"/>
     </g>
    </g>
   </g>
   <g id="matplotlib.axis_2">
    <g id="ytick_1">
     <g id="line2d_13">
      <path d="M 60.617188 172.018828 
L 395.417188 172.018828 
" clip-path="url(#p7703f34458)" style="fill: none; stroke: #ffffff; stroke-linecap: round"/>
     </g>
     <g id="line2d_14"/>
     <g id="text_8">
      <!-- $\mathdefault{10^{-2}}$ -->
      <g style="fill: #262626" transform="translate(18.517187 177.717656) scale(0.15 -0.15)">
       <defs>
        <path id="DejaVuSerif-2212" d="M 678 2259 
L 4684 2259 
L 4684 1753 
L 678 1753 
L 678 2259 
z
" transform="scale(0.015625)"/>
       </defs>
       <use xlink:href="#DejaVuSerif-31" transform="translate(0 0.7125)"/>
       <use xlink:href="#DejaVuSerif-30" transform="translate(63.623047 0.7125)"/>
       <use xlink:href="#DejaVuSerif-2212" transform="translate(128.154453 37.046875) scale(0.7)"/>
       <use xlink:href="#DejaVuSerif-32" transform="translate(186.806797 37.046875) scale(0.7)"/>
      </g>
     </g>
    </g>
    <g id="ytick_2">
     <g id="line2d_15">
      <path d="M 60.617188 130.438828 
L 395.417188 130.438828 
" clip-path="url(#p7703f34458)" style="fill: none; stroke: #ffffff; stroke-linecap: round"/>
     </g>
     <g id="line2d_16"/>
     <g id="text_9">
      <!-- $\mathdefault{10^{-1}}$ -->
      <g style="fill: #262626" transform="translate(18.517187 136.137656) scale(0.15 -0.15)">
       <use xlink:href="#DejaVuSerif-31" transform="translate(0 0.7125)"/>
       <use xlink:href="#DejaVuSerif-30" transform="translate(63.623047 0.7125)"/>
       <use xlink:href="#DejaVuSerif-2212" transform="translate(128.154453 37.046875) scale(0.7)"/>
       <use xlink:href="#DejaVuSerif-31" transform="translate(186.806797 37.046875) scale(0.7)"/>
      </g>
     </g>
    </g>
    <g id="ytick_3">
     <g id="line2d_17">
      <path d="M 60.617188 88.858828 
L 395.417188 88.858828 
" clip-path="url(#p7703f34458)" style="fill: none; stroke: #ffffff; stroke-linecap: round"/>
     </g>
     <g id="line2d_18"/>
     <g id="text_10">
      <!-- $\mathdefault{10^{0}}$ -->
      <g style="fill: #262626" transform="translate(27.217188 94.557656) scale(0.15 -0.15)">
       <use xlink:href="#DejaVuSerif-31" transform="translate(0 0.7125)"/>
       <use xlink:href="#DejaVuSerif-30" transform="translate(63.623047 0.7125)"/>
       <use xlink:href="#DejaVuSerif-30" transform="translate(128.154453 37.046875) scale(0.7)"/>
      </g>
     </g>
    </g>
    <g id="ytick_4">
     <g id="line2d_19">
      <path d="M 60.617188 47.278828 
L 395.417188 47.278828 
" clip-path="url(#p7703f34458)" style="fill: none; stroke: #ffffff; stroke-linecap: round"/>
     </g>
     <g id="line2d_20"/>
     <g id="text_11">
      <!-- $\mathdefault{10^{1}}$ -->
      <g style="fill: #262626" transform="translate(27.217188 52.977656) scale(0.15 -0.15)">
       <use xlink:href="#DejaVuSerif-31" transform="translate(0 0.7125)"/>
       <use xlink:href="#DejaVuSerif-30" transform="translate(63.623047 0.7125)"/>
       <use xlink:href="#DejaVuSerif-31" transform="translate(128.154453 37.046875) scale(0.7)"/>
      </g>
     </g>
    </g>
    <g id="ytick_5">
     <g id="line2d_21">
      <path d="M 60.617188 5.698828 
L 395.417188 5.698828 
" clip-path="url(#p7703f34458)" style="fill: none; stroke: #ffffff; stroke-linecap: round"/>
     </g>
     <g id="line2d_22"/>
     <g id="text_12">
      <!-- $\mathdefault{10^{2}}$ -->
      <g style="fill: #262626" transform="translate(27.217188 11.397656) scale(0.15 -0.15)">
       <use xlink:href="#DejaVuSerif-31" transform="translate(0 0.7125)"/>
       <use xlink:href="#DejaVuSerif-30" transform="translate(63.623047 0.7125)"/>
       <use xlink:href="#DejaVuSerif-32" transform="translate(128.154453 37.046875) scale(0.7)"/>
      </g>
     </g>
    </g>
    <g id="ytick_6">
     <g id="line2d_23"/>
    </g>
    <g id="ytick_7">
     <g id="line2d_24"/>
    </g>
    <g id="ytick_8">
     <g id="line2d_25"/>
    </g>
    <g id="ytick_9">
     <g id="line2d_26"/>
    </g>
    <g id="ytick_10">
     <g id="line2d_27"/>
    </g>
    <g id="ytick_11">
     <g id="line2d_28"/>
    </g>
    <g id="ytick_12">
     <g id="line2d_29"/>
    </g>
    <g id="ytick_13">
     <g id="line2d_30"/>
    </g>
    <g id="ytick_14">
     <g id="line2d_31"/>
    </g>
    <g id="ytick_15">
     <g id="line2d_32"/>
    </g>
    <g id="ytick_16">
     <g id="line2d_33"/>
    </g>
    <g id="ytick_17">
     <g id="line2d_34"/>
    </g>
    <g id="ytick_18">
     <g id="line2d_35"/>
    </g>
    <g id="ytick_19">
     <g id="line2d_36"/>
    </g>
    <g id="ytick_20">
     <g id="line2d_37"/>
    </g>
    <g id="ytick_21">
     <g id="line2d_38"/>
    </g>
    <g id="ytick_22">
     <g id="line2d_39"/>
    </g>
    <g id="ytick_23">
     <g id="line2d_40"/>
    </g>
    <g id="ytick_24">
     <g id="line2d_41"/>
    </g>
    <g id="ytick_25">
     <g id="line2d_42"/>
    </g>
    <g id="ytick_26">
     <g id="line2d_43"/>
    </g>
    <g id="ytick_27">
     <g id="line2d_44"/>
    </g>
    <g id="ytick_28">
     <g id="line2d_45"/>
    </g>
    <g id="ytick_29">
     <g id="line2d_46"/>
    </g>
    <g id="ytick_30">
     <g id="line2d_47"/>
    </g>
    <g id="ytick_31">
     <g id="line2d_48"/>
    </g>
    <g id="ytick_32">
     <g id="line2d_49"/>
    </g>
    <g id="ytick_33">
     <g id="line2d_50"/>
    </g>
    <g id="ytick_34">
     <g id="line2d_51"/>
    </g>
    <g id="ytick_35">
     <g id="line2d_52"/>
    </g>
    <g id="ytick_36">
     <g id="line2d_53"/>
    </g>
    <g id="ytick_37">
     <g id="line2d_54"/>
    </g>
    <g id="text_13">
     <!-- Density -->
     <g style="fill: #262626" transform="translate(11.184375 117.640078) rotate(-90) scale(0.15 -0.15)">
      <defs>
       <path id="DejaVuSerif-44" d="M 1581 331 
L 2163 331 
Q 3072 331 3558 850 
Q 4044 1369 4044 2338 
Q 4044 3306 3559 3818 
Q 3075 4331 2163 4331 
L 1581 4331 
L 1581 331 
z
M 353 0 
L 353 331 
L 947 331 
L 947 4331 
L 353 4331 
L 353 4666 
L 2209 4666 
Q 3416 4666 4089 4050 
Q 4763 3434 4763 2338 
Q 4763 1238 4088 619 
Q 3413 0 2209 0 
L 353 0 
z
" transform="scale(0.015625)"/>
       <path id="DejaVuSerif-65" d="M 3469 1600 
L 991 1600 
L 991 1575 
Q 991 903 1244 561 
Q 1497 219 1991 219 
Q 2369 219 2611 417 
Q 2853 616 2950 1006 
L 3413 1006 
Q 3275 459 2904 184 
Q 2534 -91 1931 -91 
Q 1203 -91 761 389 
Q 319 869 319 1663 
Q 319 2450 753 2931 
Q 1188 3413 1894 3413 
Q 2647 3413 3050 2948 
Q 3453 2484 3469 1600 
z
M 2791 1931 
Q 2772 2513 2545 2808 
Q 2319 3103 1894 3103 
Q 1497 3103 1269 2806 
Q 1041 2509 991 1931 
L 2791 1931 
z
" transform="scale(0.015625)"/>
       <path id="DejaVuSerif-6e" d="M 263 0 
L 263 331 
L 781 331 
L 781 2988 
L 231 2988 
L 231 3322 
L 1356 3322 
L 1356 2731 
Q 1516 3069 1770 3241 
Q 2025 3413 2363 3413 
Q 2913 3413 3172 3097 
Q 3431 2781 3431 2113 
L 3431 331 
L 3944 331 
L 3944 0 
L 2356 0 
L 2356 331 
L 2853 331 
L 2853 1931 
Q 2853 2541 2703 2767 
Q 2553 2994 2175 2994 
Q 1775 2994 1565 2701 
Q 1356 2409 1356 1850 
L 1356 331 
L 1856 331 
L 1856 0 
L 263 0 
z
" transform="scale(0.015625)"/>
       <path id="DejaVuSerif-73" d="M 359 184 
L 359 959 
L 691 959 
Q 703 588 923 403 
Q 1144 219 1575 219 
Q 1963 219 2166 364 
Q 2369 509 2369 788 
Q 2369 1006 2220 1140 
Q 2072 1275 1594 1428 
L 1178 1569 
Q 750 1706 558 1912 
Q 366 2119 366 2438 
Q 366 2894 700 3153 
Q 1034 3413 1625 3413 
Q 1888 3413 2178 3344 
Q 2469 3275 2778 3144 
L 2778 2419 
L 2447 2419 
Q 2434 2741 2221 2922 
Q 2009 3103 1644 3103 
Q 1281 3103 1095 2975 
Q 909 2847 909 2591 
Q 909 2381 1050 2254 
Q 1191 2128 1613 1997 
L 2069 1856 
Q 2541 1709 2748 1489 
Q 2956 1269 2956 922 
Q 2956 450 2595 179 
Q 2234 -91 1600 -91 
Q 1278 -91 972 -22 
Q 666 47 359 184 
z
" transform="scale(0.015625)"/>
       <path id="DejaVuSerif-69" d="M 622 4353 
Q 622 4497 726 4603 
Q 831 4709 978 4709 
Q 1122 4709 1226 4603 
Q 1331 4497 1331 4353 
Q 1331 4206 1228 4103 
Q 1125 4000 978 4000 
Q 831 4000 726 4103 
Q 622 4206 622 4353 
z
M 1356 331 
L 1900 331 
L 1900 0 
L 231 0 
L 231 331 
L 781 331 
L 781 2988 
L 231 2988 
L 231 3322 
L 1356 3322 
L 1356 331 
z
" transform="scale(0.015625)"/>
       <path id="DejaVuSerif-74" d="M 691 2988 
L 184 2988 
L 184 3322 
L 691 3322 
L 691 4353 
L 1269 4353 
L 1269 3322 
L 2350 3322 
L 2350 2988 
L 1269 2988 
L 1269 878 
Q 1269 456 1350 337 
Q 1431 219 1650 219 
Q 1875 219 1978 351 
Q 2081 484 2088 781 
L 2522 781 
Q 2497 328 2275 118 
Q 2053 -91 1600 -91 
Q 1103 -91 897 129 
Q 691 350 691 878 
L 691 2988 
z
" transform="scale(0.015625)"/>
       <path id="DejaVuSerif-79" d="M 1381 -609 
L 1600 -56 
L 359 2988 
L -19 2988 
L -19 3322 
L 1509 3322 
L 1509 2988 
L 978 2988 
L 1913 703 
L 2847 2988 
L 2350 2988 
L 2350 3322 
L 3597 3322 
L 3597 2988 
L 3225 2988 
L 1703 -750 
Q 1547 -1138 1356 -1280 
Q 1166 -1422 819 -1422 
Q 672 -1422 517 -1397 
Q 363 -1372 206 -1325 
L 206 -691 
L 500 -691 
Q 519 -903 608 -995 
Q 697 -1088 884 -1088 
Q 1056 -1088 1161 -992 
Q 1266 -897 1381 -609 
z
" transform="scale(0.015625)"/>
      </defs>
      <use xlink:href="#DejaVuSerif-44"/>
      <use xlink:href="#DejaVuSerif-65" x="80.175781"/>
      <use xlink:href="#DejaVuSerif-6e" x="139.355469"/>
      <use xlink:href="#DejaVuSerif-73" x="203.759766"/>
      <use xlink:href="#DejaVuSerif-69" x="255.078125"/>
      <use xlink:href="#DejaVuSerif-74" x="287.060547"/>
      <use xlink:href="#DejaVuSerif-79" x="327.246094"/>
     </g>
    </g>
   </g>
   <g id="PolyCollection_1">
    <path d="M 75.190616 235.852834 
L 75.190616 41668.858828 
L 75.803148 41668.858828 
L 76.415679 41668.858828 
L 77.02821 41668.858828 
L 77.640742 41668.858828 
L 78.253273 41668.858828 
L 78.865804 41668.858828 
L 79.478336 41668.858828 
L 80.090867 41668.858828 
L 80.703398 41668.858828 
L 81.31593 41668.858828 
L 81.928461 41668.858828 
L 82.540992 41668.858828 
L 83.153524 41668.858828 
L 83.766055 41668.858828 
L 84.378587 41668.858828 
L 84.991118 41668.858828 
L 85.603649 41668.858828 
L 86.216181 41668.858828 
L 86.828712 41668.858828 
L 87.441243 41668.858828 
L 88.053775 41668.858828 
L 88.666306 41668.858828 
L 89.278837 41668.858828 
L 89.891369 41668.858828 
L 90.5039 41668.858828 
L 91.116431 41668.858828 
L 91.728963 41668.858828 
L 92.341494 41668.858828 
L 92.954025 41668.858828 
L 93.566557 41668.858828 
L 94.179088 41668.858828 
L 94.791619 41668.858828 
L 95.404151 41668.858828 
L 96.016682 41668.858828 
L 96.629213 41668.858828 
L 97.241745 41668.858828 
L 97.854276 41668.858828 
L 98.466808 41668.858828 
L 99.079339 41668.858828 
L 99.69187 41668.858828 
L 100.304402 41668.858828 
L 100.916933 41668.858828 
L 101.529464 41668.858828 
L 102.141996 41668.858828 
L 102.754527 41668.858828 
L 103.367058 41668.858828 
L 103.97959 41668.858828 
L 104.592121 41668.858828 
L 105.204652 41668.858828 
L 105.817184 41668.858828 
L 106.429715 41668.858828 
L 107.042246 41668.858828 
L 107.654778 41668.858828 
L 108.267309 41668.858828 
L 108.87984 41668.858828 
L 109.492372 41668.858828 
L 110.104903 41668.858828 
L 110.717434 41668.858828 
L 111.329966 41668.858828 
L 111.942497 41668.858828 
L 112.555028 41668.858828 
L 113.16756 41668.858828 
L 113.780091 41668.858828 
L 114.392623 41668.858828 
L 115.005154 41668.858828 
L 115.617685 41668.858828 
L 116.230217 41668.858828 
L 116.842748 41668.858828 
L 117.455279 41668.858828 
L 118.067811 41668.858828 
L 118.680342 41668.858828 
L 119.292873 41668.858828 
L 119.905405 41668.858828 
L 120.517936 41668.858828 
L 121.130467 41668.858828 
L 121.742999 41668.858828 
L 122.35553 41668.858828 
L 122.968061 41668.858828 
L 123.580593 41668.858828 
L 124.193124 41668.858828 
L 124.805655 41668.858828 
L 125.418187 41668.858828 
L 126.030718 41668.858828 
L 126.643249 41668.858828 
L 127.255781 41668.858828 
L 127.868312 41668.858828 
L 128.480844 41668.858828 
L 129.093375 41668.858828 
L 129.705906 41668.858828 
L 130.318438 41668.858828 
L 130.930969 41668.858828 
L 131.5435 41668.858828 
L 132.156032 41668.858828 
L 132.768563 41668.858828 
L 133.381094 41668.858828 
L 133.993626 41668.858828 
L 134.606157 41668.858828 
L 135.218688 41668.858828 
L 135.83122 41668.858828 
L 136.443751 41668.858828 
L 137.056282 41668.858828 
L 137.668814 41668.858828 
L 138.281345 41668.858828 
L 138.893876 41668.858828 
L 139.506408 41668.858828 
L 140.118939 41668.858828 
L 140.73147 41668.858828 
L 141.344002 41668.858828 
L 141.956533 41668.858828 
L 142.569065 41668.858828 
L 143.181596 41668.858828 
L 143.794127 41668.858828 
L 144.406659 41668.858828 
L 145.01919 41668.858828 
L 145.631721 41668.858828 
L 146.244253 41668.858828 
L 146.856784 41668.858828 
L 147.469315 41668.858828 
L 148.081847 41668.858828 
L 148.694378 41668.858828 
L 149.306909 41668.858828 
L 149.919441 41668.858828 
L 150.531972 41668.858828 
L 151.144503 41668.858828 
L 151.757035 41668.858828 
L 152.369566 41668.858828 
L 152.982097 41668.858828 
L 153.594629 41668.858828 
L 154.20716 41668.858828 
L 154.819691 41668.858828 
L 155.432223 41668.858828 
L 156.044754 41668.858828 
L 156.657286 41668.858828 
L 157.269817 41668.858828 
L 157.882348 41668.858828 
L 158.49488 41668.858828 
L 159.107411 41668.858828 
L 159.719942 41668.858828 
L 160.332474 41668.858828 
L 160.945005 41668.858828 
L 161.557536 41668.858828 
L 162.170068 41668.858828 
L 162.782599 41668.858828 
L 163.39513 41668.858828 
L 164.007662 41668.858828 
L 164.620193 41668.858828 
L 165.232724 41668.858828 
L 165.845256 41668.858828 
L 166.457787 41668.858828 
L 167.070318 41668.858828 
L 167.68285 41668.858828 
L 168.295381 41668.858828 
L 168.907912 41668.858828 
L 169.520444 41668.858828 
L 170.132975 41668.858828 
L 170.745507 41668.858828 
L 171.358038 41668.858828 
L 171.970569 41668.858828 
L 172.583101 41668.858828 
L 173.195632 41668.858828 
L 173.808163 41668.858828 
L 174.420695 41668.858828 
L 175.033226 41668.858828 
L 175.645757 41668.858828 
L 176.258289 41668.858828 
L 176.87082 41668.858828 
L 177.483351 41668.858828 
L 178.095883 41668.858828 
L 178.708414 41668.858828 
L 179.320945 41668.858828 
L 179.933477 41668.858828 
L 180.546008 41668.858828 
L 181.158539 41668.858828 
L 181.771071 41668.858828 
L 182.383602 41668.858828 
L 182.996133 41668.858828 
L 183.608665 41668.858828 
L 184.221196 41668.858828 
L 184.833728 41668.858828 
L 185.446259 41668.858828 
L 186.05879 41668.858828 
L 186.671322 41668.858828 
L 187.283853 41668.858828 
L 187.896384 41668.858828 
L 188.508916 41668.858828 
L 189.121447 41668.858828 
L 189.733978 41668.858828 
L 190.34651 41668.858828 
L 190.959041 41668.858828 
L 191.571572 41668.858828 
L 192.184104 41668.858828 
L 192.796635 41668.858828 
L 193.409166 41668.858828 
L 194.021698 41668.858828 
L 194.634229 41668.858828 
L 195.24676 41668.858828 
L 195.859292 41668.858828 
L 196.471823 41668.858828 
L 197.084354 41668.858828 
L 197.696886 41668.858828 
L 198.309417 41668.858828 
L 198.921948 41668.858828 
L 199.53448 41668.858828 
L 200.147011 41668.858828 
L 200.759543 41668.858828 
L 201.372074 41668.858828 
L 201.984605 41668.858828 
L 202.597137 41668.858828 
L 203.209668 41668.858828 
L 203.822199 41668.858828 
L 204.434731 41668.858828 
L 205.047262 41668.858828 
L 205.659793 41668.858828 
L 206.272325 41668.858828 
L 206.884856 41668.858828 
L 207.497387 41668.858828 
L 208.109919 41668.858828 
L 208.72245 41668.858828 
L 209.334981 41668.858828 
L 209.947513 41668.858828 
L 210.560044 41668.858828 
L 211.172575 41668.858828 
L 211.785107 41668.858828 
L 212.397638 41668.858828 
L 213.010169 41668.858828 
L 213.622701 41668.858828 
L 214.235232 41668.858828 
L 214.847764 41668.858828 
L 215.460295 41668.858828 
L 216.072826 41668.858828 
L 216.685358 41668.858828 
L 217.297889 41668.858828 
L 217.91042 41668.858828 
L 218.522952 41668.858828 
L 219.135483 41668.858828 
L 219.748014 41668.858828 
L 220.360546 41668.858828 
L 220.973077 41668.858828 
L 221.585608 41668.858828 
L 222.19814 41668.858828 
L 222.810671 41668.858828 
L 223.423202 41668.858828 
L 224.035734 41668.858828 
L 224.648265 41668.858828 
L 225.260796 41668.858828 
L 225.873328 41668.858828 
L 226.485859 41668.858828 
L 227.09839 41668.858828 
L 227.710922 41668.858828 
L 228.323453 41668.858828 
L 228.935985 41668.858828 
L 229.548516 41668.858828 
L 230.161047 41668.858828 
L 230.773579 41668.858828 
L 231.38611 41668.858828 
L 231.998641 41668.858828 
L 232.611173 41668.858828 
L 233.223704 41668.858828 
L 233.836235 41668.858828 
L 234.448767 41668.858828 
L 235.061298 41668.858828 
L 235.673829 41668.858828 
L 236.286361 41668.858828 
L 236.898892 41668.858828 
L 237.511423 41668.858828 
L 238.123955 41668.858828 
L 238.736486 41668.858828 
L 239.349017 41668.858828 
L 239.961549 41668.858828 
L 240.57408 41668.858828 
L 241.186611 41668.858828 
L 241.799143 41668.858828 
L 242.411674 41668.858828 
L 243.024206 41668.858828 
L 243.636737 41668.858828 
L 244.249268 41668.858828 
L 244.8618 41668.858828 
L 245.474331 41668.858828 
L 246.086862 41668.858828 
L 246.699394 41668.858828 
L 247.311925 41668.858828 
L 247.924456 41668.858828 
L 248.536988 41668.858828 
L 249.149519 41668.858828 
L 249.76205 41668.858828 
L 250.374582 41668.858828 
L 250.987113 41668.858828 
L 251.599644 41668.858828 
L 252.212176 41668.858828 
L 252.824707 41668.858828 
L 253.437238 41668.858828 
L 254.04977 41668.858828 
L 254.662301 41668.858828 
L 255.274832 41668.858828 
L 255.887364 41668.858828 
L 256.499895 41668.858828 
L 257.112427 41668.858828 
L 257.724958 41668.858828 
L 258.337489 41668.858828 
L 258.950021 41668.858828 
L 259.562552 41668.858828 
L 260.175083 41668.858828 
L 260.787615 41668.858828 
L 261.400146 41668.858828 
L 262.012677 41668.858828 
L 262.625209 41668.858828 
L 263.23774 41668.858828 
L 263.850271 41668.858828 
L 264.462803 41668.858828 
L 265.075334 41668.858828 
L 265.687865 41668.858828 
L 266.300397 41668.858828 
L 266.912928 41668.858828 
L 267.525459 41668.858828 
L 268.137991 41668.858828 
L 268.750522 41668.858828 
L 269.363053 41668.858828 
L 269.975585 41668.858828 
L 270.588116 41668.858828 
L 271.200647 41668.858828 
L 271.813179 41668.858828 
L 272.42571 41668.858828 
L 273.038242 41668.858828 
L 273.650773 41668.858828 
L 274.263304 41668.858828 
L 274.875836 41668.858828 
L 275.488367 41668.858828 
L 276.100898 41668.858828 
L 276.71343 41668.858828 
L 277.325961 41668.858828 
L 277.938492 41668.858828 
L 278.551024 41668.858828 
L 279.163555 41668.858828 
L 279.776086 41668.858828 
L 280.388618 41668.858828 
L 281.001149 41668.858828 
L 281.61368 41668.858828 
L 282.226212 41668.858828 
L 282.838743 41668.858828 
L 283.451274 41668.858828 
L 284.063806 41668.858828 
L 284.676337 41668.858828 
L 285.288868 41668.858828 
L 285.9014 41668.858828 
L 286.513931 41668.858828 
L 287.126463 41668.858828 
L 287.738994 41668.858828 
L 288.351525 41668.858828 
L 288.964057 41668.858828 
L 289.576588 41668.858828 
L 290.189119 41668.858828 
L 290.801651 41668.858828 
L 291.414182 41668.858828 
L 292.026713 41668.858828 
L 292.639245 41668.858828 
L 293.251776 41668.858828 
L 293.864307 41668.858828 
L 294.476839 41668.858828 
L 295.08937 41668.858828 
L 295.701901 41668.858828 
L 296.314433 41668.858828 
L 296.926964 41668.858828 
L 297.539495 41668.858828 
L 298.152027 41668.858828 
L 298.764558 41668.858828 
L 299.377089 41668.858828 
L 299.989621 41668.858828 
L 300.602152 41668.858828 
L 301.214684 41668.858828 
L 301.827215 41668.858828 
L 302.439746 41668.858828 
L 303.052278 41668.858828 
L 303.664809 41668.858828 
L 304.27734 41668.858828 
L 304.889872 41668.858828 
L 305.502403 41668.858828 
L 306.114934 41668.858828 
L 306.727466 41668.858828 
L 307.339997 41668.858828 
L 307.952528 41668.858828 
L 308.56506 41668.858828 
L 309.177591 41668.858828 
L 309.790122 41668.858828 
L 310.402654 41668.858828 
L 311.015185 41668.858828 
L 311.627716 41668.858828 
L 312.240248 41668.858828 
L 312.852779 41668.858828 
L 313.46531 41668.858828 
L 314.077842 41668.858828 
L 314.690373 41668.858828 
L 315.302905 41668.858828 
L 315.915436 41668.858828 
L 316.527967 41668.858828 
L 317.140499 41668.858828 
L 317.75303 41668.858828 
L 318.365561 41668.858828 
L 318.978093 41668.858828 
L 319.590624 41668.858828 
L 320.203155 41668.858828 
L 320.815687 41668.858828 
L 321.428218 41668.858828 
L 322.040749 41668.858828 
L 322.653281 41668.858828 
L 323.265812 41668.858828 
L 323.878343 41668.858828 
L 324.490875 41668.858828 
L 325.103406 41668.858828 
L 325.715937 41668.858828 
L 326.328469 41668.858828 
L 326.941 41668.858828 
L 327.553531 41668.858828 
L 328.166063 41668.858828 
L 328.778594 41668.858828 
L 329.391126 41668.858828 
L 330.003657 41668.858828 
L 330.616188 41668.858828 
L 331.22872 41668.858828 
L 331.841251 41668.858828 
L 332.453782 41668.858828 
L 333.066314 41668.858828 
L 333.678845 41668.858828 
L 334.291376 41668.858828 
L 334.903908 41668.858828 
L 335.516439 41668.858828 
L 336.12897 41668.858828 
L 336.741502 41668.858828 
L 337.354033 41668.858828 
L 337.966564 41668.858828 
L 338.579096 41668.858828 
L 339.191627 41668.858828 
L 339.804158 41668.858828 
L 340.41669 41668.858828 
L 341.029221 41668.858828 
L 341.641752 41668.858828 
L 342.254284 41668.858828 
L 342.866815 41668.858828 
L 343.479347 41668.858828 
L 344.091878 41668.858828 
L 344.704409 41668.858828 
L 345.316941 41668.858828 
L 345.929472 41668.858828 
L 346.542003 41668.858828 
L 347.154535 41668.858828 
L 347.767066 41668.858828 
L 348.379597 41668.858828 
L 348.992129 41668.858828 
L 349.60466 41668.858828 
L 350.217191 41668.858828 
L 350.829723 41668.858828 
L 351.442254 41668.858828 
L 352.054785 41668.858828 
L 352.667317 41668.858828 
L 353.279848 41668.858828 
L 353.892379 41668.858828 
L 354.504911 41668.858828 
L 355.117442 41668.858828 
L 355.729973 41668.858828 
L 356.342505 41668.858828 
L 356.955036 41668.858828 
L 357.567567 41668.858828 
L 358.180099 41668.858828 
L 358.79263 41668.858828 
L 359.405162 41668.858828 
L 360.017693 41668.858828 
L 360.630224 41668.858828 
L 361.242756 41668.858828 
L 361.855287 41668.858828 
L 362.467818 41668.858828 
L 363.08035 41668.858828 
L 363.692881 41668.858828 
L 364.305412 41668.858828 
L 364.917944 41668.858828 
L 365.530475 41668.858828 
L 366.143006 41668.858828 
L 366.755538 41668.858828 
L 367.368069 41668.858828 
L 367.9806 41668.858828 
L 368.593132 41668.858828 
L 369.205663 41668.858828 
L 369.818194 41668.858828 
L 370.430726 41668.858828 
L 371.043257 41668.858828 
L 371.655788 41668.858828 
L 372.26832 41668.858828 
L 372.880851 41668.858828 
L 373.493383 41668.858828 
L 374.105914 41668.858828 
L 374.718445 41668.858828 
L 375.330977 41668.858828 
L 375.943508 41668.858828 
L 376.556039 41668.858828 
L 377.168571 41668.858828 
L 377.781102 41668.858828 
L 378.393633 41668.858828 
L 379.006165 41668.858828 
L 379.618696 41668.858828 
L 380.231227 41668.858828 
L 380.843759 41668.858828 
L 380.843759 242.176998 
L 380.843759 242.176998 
L 380.231227 161.119109 
L 379.618696 226.744689 
L 379.006165 439.05374 
L 378.393633 433.565658 
L 377.781102 224.088812 
L 377.168571 161.295437 
L 376.556039 245.185532 
L 375.943508 475.759097 
L 375.330977 853.016133 
L 374.718445 1376.95664 
L 374.105914 2047.580616 
L 373.493383 2864.888064 
L 372.880851 3828.878981 
L 372.26832 4939.553369 
L 371.655788 4604.551867 
L 371.043257 3536.133638 
L 370.430726 2614.398881 
L 369.818194 1839.347593 
L 369.205663 1210.979776 
L 368.593132 729.29543 
L 367.9806 394.294554 
L 367.368069 205.977148 
L 366.755538 164.343213 
L 366.143006 269.392748 
L 365.530475 408.146354 
L 364.917944 212.19148 
L 364.305412 162.885409 
L 363.692881 260.262808 
L 363.08035 504.323677 
L 362.467818 486.61015 
L 361.855287 250.843732 
L 361.242756 161.760785 
L 360.630224 219.361309 
L 360.017693 423.6453 
L 359.405162 380.917669 
L 358.79263 200.209861 
L 358.180099 166.185524 
L 357.567567 258.063539 
L 356.955036 163.584237 
L 356.342505 172.521458 
L 355.729973 183.653098 
L 355.117442 162.718206 
L 354.504911 184.185904 
L 353.892379 154.370594 
L 353.279848 163.538295 
L 352.667317 204.145678 
L 352.054785 390.102867 
L 351.442254 632.190138 
L 350.829723 333.737972 
L 350.217191 180.667078 
L 349.60466 152.8541 
L 348.992129 167.991861 
L 348.379597 288.298865 
L 347.767066 202.17624 
L 347.154535 165.498231 
L 346.542003 275.503693 
L 345.929472 532.154932 
L 345.316941 340.654908 
L 344.704409 184.367783 
L 344.091878 173.434438 
L 343.479347 148.480748 
L 342.866815 156.154762 
L 342.254284 177.624445 
L 341.641752 148.179231 
L 341.029221 165.760901 
L 340.41669 153.933255 
L 339.804158 216.019483 
L 339.191627 174.762832 
L 338.579096 142.595843 
L 337.966564 186.42559 
L 337.354033 256.657259 
L 336.741502 162.411801 
L 336.12897 196.455549 
L 335.516439 164.225104 
L 334.903908 148.962878 
L 334.291376 158.126456 
L 333.678845 151.687887 
L 333.066314 155.491546 
L 332.453782 156.777321 
L 331.841251 138.874637 
L 331.22872 154.554842 
L 330.616188 152.510923 
L 330.003657 153.601203 
L 329.391126 146.42775 
L 328.778594 135.787867 
L 328.166063 141.71644 
L 327.553531 157.495423 
L 326.941 149.449768 
L 326.328469 135.913312 
L 325.715937 132.478695 
L 325.103406 137.895358 
L 324.490875 147.705446 
L 323.878343 156.082559 
L 323.265812 152.093147 
L 322.653281 130.267593 
L 322.040749 139.218331 
L 321.428218 137.070164 
L 320.815687 143.090601 
L 320.203155 148.373599 
L 319.590624 134.868868 
L 318.978093 131.808273 
L 318.365561 145.031914 
L 317.75303 131.634767 
L 317.140499 133.390351 
L 316.527967 136.931459 
L 315.915436 150.648748 
L 315.302905 134.512582 
L 314.690373 138.287122 
L 314.077842 121.250271 
L 313.46531 133.315738 
L 312.852779 136.170094 
L 312.240248 132.657436 
L 311.627716 132.131409 
L 311.015185 126.53589 
L 310.402654 133.584622 
L 309.790122 132.19473 
L 309.177591 130.816516 
L 308.56506 125.644867 
L 307.952528 135.680974 
L 307.339997 130.469101 
L 306.727466 118.690604 
L 306.114934 129.891108 
L 305.502403 138.04169 
L 304.889872 127.215537 
L 304.27734 121.545655 
L 303.664809 119.578611 
L 303.052278 128.645406 
L 302.439746 120.845534 
L 301.827215 126.362479 
L 301.214684 132.299142 
L 300.602152 130.440632 
L 299.989621 126.128844 
L 299.377089 122.52113 
L 298.764558 119.47898 
L 298.152027 128.179698 
L 297.539495 119.616811 
L 296.926964 125.387446 
L 296.314433 114.723203 
L 295.701901 121.878276 
L 295.08937 119.239848 
L 294.476839 119.735364 
L 293.864307 112.370248 
L 293.251776 119.750166 
L 292.639245 131.241176 
L 292.026713 120.314669 
L 291.414182 126.066488 
L 290.801651 111.821238 
L 290.189119 116.302532 
L 289.576588 119.288429 
L 288.964057 125.190068 
L 288.351525 118.708148 
L 287.738994 112.193861 
L 287.126463 107.770819 
L 286.513931 111.793466 
L 285.9014 117.285033 
L 285.288868 115.396256 
L 284.676337 118.180811 
L 284.063806 114.714029 
L 283.451274 113.996824 
L 282.838743 113.391614 
L 282.226212 106.929658 
L 281.61368 109.856403 
L 281.001149 120.860321 
L 280.388618 111.735641 
L 279.776086 112.652138 
L 279.163555 105.489106 
L 278.551024 112.752833 
L 277.938492 116.180633 
L 277.325961 114.602727 
L 276.71343 109.936694 
L 276.100898 113.334586 
L 275.488367 107.832303 
L 274.875836 111.317241 
L 274.263304 113.736882 
L 273.650773 110.873576 
L 273.038242 105.415663 
L 272.42571 103.804486 
L 271.813179 103.758538 
L 271.200647 109.247933 
L 270.588116 98.341887 
L 269.975585 102.141344 
L 269.363053 103.463076 
L 268.750522 110.344171 
L 268.137991 109.497713 
L 267.525459 105.722693 
L 266.912928 102.910608 
L 266.300397 105.938634 
L 265.687865 101.826643 
L 265.075334 99.118128 
L 264.462803 97.375814 
L 263.850271 97.689511 
L 263.23774 102.89865 
L 262.625209 102.985838 
L 262.012677 103.572323 
L 261.400146 106.740148 
L 260.787615 105.825015 
L 260.175083 101.765824 
L 259.562552 100.344552 
L 258.950021 100.425094 
L 258.337489 98.11979 
L 257.724958 100.602769 
L 257.112427 93.829221 
L 256.499895 98.173967 
L 255.887364 96.46751 
L 255.274832 100.714699 
L 254.662301 95.897866 
L 254.04977 98.970773 
L 253.437238 102.627758 
L 252.824707 98.617897 
L 252.212176 103.326651 
L 251.599644 95.558921 
L 250.987113 95.901846 
L 250.374582 97.205002 
L 249.76205 98.488245 
L 249.149519 94.167058 
L 248.536988 95.499414 
L 247.924456 94.559794 
L 247.311925 92.673749 
L 246.699394 92.883386 
L 246.086862 98.74641 
L 245.474331 92.523726 
L 244.8618 100.113352 
L 244.249268 95.840318 
L 243.636737 95.434052 
L 243.024206 99.612685 
L 242.411674 92.155183 
L 241.799143 93.129748 
L 241.186611 91.821068 
L 240.57408 87.736777 
L 239.961549 92.059739 
L 239.349017 89.649989 
L 238.736486 90.733855 
L 238.123955 92.375211 
L 237.511423 93.594526 
L 236.898892 96.302671 
L 236.286361 98.582654 
L 235.673829 95.356346 
L 235.061298 97.340648 
L 234.448767 92.058766 
L 233.836235 91.008658 
L 233.223704 87.084933 
L 232.611173 85.535525 
L 231.998641 87.225458 
L 231.38611 84.667674 
L 230.773579 88.482627 
L 230.161047 88.213072 
L 229.548516 89.283031 
L 228.935985 88.485564 
L 228.323453 90.117013 
L 227.710922 94.051776 
L 227.09839 87.352321 
L 226.485859 93.129462 
L 225.873328 90.528609 
L 225.260796 90.651458 
L 224.648265 89.296793 
L 224.035734 87.54982 
L 223.423202 83.650776 
L 222.810671 83.648337 
L 222.19814 82.627444 
L 221.585608 80.780354 
L 220.973077 82.765045 
L 220.360546 88.230466 
L 219.748014 90.870568 
L 219.135483 92.080781 
L 218.522952 90.006621 
L 217.91042 87.663349 
L 217.297889 86.672267 
L 216.685358 86.908636 
L 216.072826 87.558699 
L 215.460295 82.067821 
L 214.847764 83.212804 
L 214.235232 79.631909 
L 213.622701 79.515203 
L 213.010169 82.895341 
L 212.397638 83.195751 
L 211.785107 89.190793 
L 211.172575 89.058248 
L 210.560044 88.313038 
L 209.947513 88.165108 
L 209.334981 85.673773 
L 208.72245 86.925795 
L 208.109919 81.622509 
L 207.497387 79.482067 
L 206.884856 80.773757 
L 206.272325 77.298382 
L 205.659793 77.452013 
L 205.047262 79.155571 
L 204.434731 74.820652 
L 203.822199 80.255752 
L 203.209668 85.069093 
L 202.597137 89.204542 
L 201.984605 82.555589 
L 201.372074 88.994481 
L 200.759543 87.680034 
L 200.147011 87.735048 
L 199.53448 84.749261 
L 198.921948 81.521246 
L 198.309417 77.430935 
L 197.696886 78.730229 
L 197.084354 75.636465 
L 196.471823 75.666431 
L 195.859292 77.633062 
L 195.24676 80.174056 
L 194.634229 85.579653 
L 194.021698 86.044069 
L 193.409166 85.963438 
L 192.796635 86.779128 
L 192.184104 89.12257 
L 191.571572 85.337163 
L 190.959041 81.450342 
L 190.34651 78.603346 
L 189.733978 76.927197 
L 189.121447 74.518357 
L 188.508916 75.215415 
L 187.896384 78.216034 
L 187.283853 76.400508 
L 186.671322 76.514466 
L 186.05879 79.787818 
L 185.446259 81.779637 
L 184.833728 85.637705 
L 184.221196 85.140428 
L 183.608665 88.092109 
L 182.996133 87.855008 
L 182.383602 83.834437 
L 181.771071 81.856023 
L 181.158539 78.396458 
L 180.546008 75.735492 
L 179.933477 77.488061 
L 179.320945 75.374781 
L 178.708414 74.92275 
L 178.095883 74.553332 
L 177.483351 78.158082 
L 176.87082 79.704779 
L 176.258289 81.847462 
L 175.645757 89.877118 
L 175.033226 86.195535 
L 174.420695 89.147935 
L 173.808163 85.880454 
L 173.195632 81.295499 
L 172.583101 80.560642 
L 171.970569 75.379594 
L 171.358038 75.970406 
L 170.745507 76.413671 
L 170.132975 73.977537 
L 169.520444 75.36622 
L 168.907912 76.119372 
L 168.295381 82.856372 
L 167.68285 86.456167 
L 167.070318 84.615145 
L 166.457787 85.521036 
L 165.845256 89.952125 
L 165.232724 86.482928 
L 164.620193 83.272309 
L 164.007662 81.345093 
L 163.39513 76.806503 
L 162.782599 75.889318 
L 162.170068 74.737842 
L 161.557536 72.812819 
L 160.945005 75.264632 
L 160.332474 78.892194 
L 159.719942 77.834734 
L 159.107411 81.840199 
L 158.49488 82.388211 
L 157.882348 88.463322 
L 157.269817 86.578467 
L 156.657286 85.33343 
L 156.044754 83.171781 
L 155.432223 79.915498 
L 154.819691 77.84285 
L 154.20716 75.485398 
L 153.594629 73.449014 
L 152.982097 73.855809 
L 152.369566 74.663354 
L 151.757035 77.248477 
L 151.144503 79.081768 
L 150.531972 84.821645 
L 149.919441 85.189515 
L 149.306909 87.17656 
L 148.694378 91.415201 
L 148.081847 91.731704 
L 147.469315 84.501136 
L 146.856784 77.998151 
L 146.244253 73.758738 
L 145.631721 73.980147 
L 145.01919 73.854816 
L 144.406659 75.066002 
L 143.794127 76.509658 
L 143.181596 76.117788 
L 142.569065 81.056023 
L 141.956533 88.860897 
L 141.344002 86.445422 
L 140.73147 91.408058 
L 140.118939 88.436494 
L 139.506408 82.01166 
L 138.893876 79.610275 
L 138.281345 76.435347 
L 137.668814 77.21196 
L 137.056282 73.842127 
L 136.443751 75.759409 
L 135.83122 72.494719 
L 135.218688 76.651804 
L 134.606157 82.102082 
L 133.993626 84.788278 
L 133.381094 87.040032 
L 132.768563 92.6511 
L 132.156032 90.987803 
L 131.5435 85.453929 
L 130.930969 81.384829 
L 130.318438 77.756718 
L 129.705906 75.99545 
L 129.093375 73.927507 
L 128.480844 73.469712 
L 127.868312 74.832537 
L 127.255781 73.951273 
L 126.643249 77.520857 
L 126.030718 80.846301 
L 125.418187 86.198795 
L 124.805655 87.810848 
L 124.193124 90.270171 
L 123.580593 86.386144 
L 122.968061 84.248843 
L 122.35553 79.449834 
L 121.742999 75.341092 
L 121.130467 74.350632 
L 120.517936 73.025256 
L 119.905405 73.961202 
L 119.292873 74.24408 
L 118.680342 76.022985 
L 118.067811 78.570612 
L 117.455279 80.730576 
L 116.842748 84.070685 
L 116.230217 90.172185 
L 115.617685 87.448533 
L 115.005154 88.181032 
L 114.392623 80.519729 
L 113.780091 79.86349 
L 113.16756 74.286942 
L 112.555028 71.99277 
L 111.942497 73.774057 
L 111.329966 72.209222 
L 110.717434 71.180088 
L 110.104903 75.976975 
L 109.492372 78.400554 
L 108.87984 79.899855 
L 108.267309 83.999912 
L 107.654778 82.705389 
L 107.042246 83.321903 
L 106.429715 82.292783 
L 105.817184 75.221817 
L 105.204652 77.687947 
L 104.592121 74.492917 
L 103.97959 73.102988 
L 103.367058 69.841736 
L 102.754527 71.630767 
L 102.141996 70.830408 
L 101.529464 75.317387 
L 100.916933 74.001793 
L 100.304402 79.365987 
L 99.69187 77.584098 
L 99.079339 76.309516 
L 98.466808 72.037636 
L 97.854276 70.054142 
L 97.241745 66.606636 
L 96.629213 66.129355 
L 96.016682 61.647485 
L 95.404151 65.059529 
L 94.791619 70.65689 
L 94.179088 74.584692 
L 93.566557 75.117398 
L 92.954025 75.580802 
L 92.341494 70.681797 
L 91.728963 66.132021 
L 91.116431 63.440802 
L 90.5039 61.958926 
L 89.891369 61.045935 
L 89.278837 65.677941 
L 88.666306 71.560246 
L 88.053775 71.339136 
L 87.441243 70.125628 
L 86.828712 64.967503 
L 86.216181 61.126574 
L 85.603649 62.134416 
L 84.991118 64.223988 
L 84.378587 66.902232 
L 83.766055 73.186293 
L 83.153524 75.116868 
L 82.540992 75.675529 
L 81.928461 74.306835 
L 81.31593 78.212338 
L 80.703398 89.20134 
L 80.090867 98.76225 
L 79.478336 103.98519 
L 78.865804 123.313863 
L 78.253273 130.804982 
L 77.640742 132.160056 
L 77.02821 143.357267 
L 76.415679 156.00003 
L 75.803148 149.046875 
L 75.190616 235.852834 
z
" clip-path="url(#p7703f34458)" style="fill: #4c72b0; fill-opacity: 0.25; stroke: #4c72b0; stroke-width: 0.3"/>
   </g>
   <g id="patch_3">
    <path d="M 60.617188 172.018828 
L 60.617188 5.698828 
" style="fill: none"/>
   </g>
   <g id="patch_4">
    <path d="M 395.417188 172.018828 
L 395.417188 5.698828 
" style="fill: none"/>
   </g>
   <g id="patch_5">
    <path d="M 60.617188 172.018828 
L 395.417188 172.018828 
" style="fill: none"/>
   </g>
   <g id="patch_6">
    <path d="M 60.617188 5.698828 
L 395.417188 5.698828 
" style="fill: none"/>
   </g>
   <g id="text_14">
    <!-- 0 -->
    <g transform="translate(84.994592 60.764564) scale(0.1 -0.1)">
     <use xlink:href="#DejaVuSerif-30"/>
    </g>
   </g>
   <g id="text_15">
    <!-- 1 -->
    <g transform="translate(90.622266 60.459793) scale(0.1 -0.1)">
     <use xlink:href="#DejaVuSerif-31"/>
    </g>
   </g>
   <g id="text_16">
    <!-- 2 -->
    <g transform="translate(96.415012 60.627921) scale(0.1 -0.1)">
     <use xlink:href="#DejaVuSerif-32"/>
    </g>
   </g>
   <g id="text_17">
    <!-- 3 -->
    <g transform="translate(103.262347 65.238982) scale(0.1 -0.1)">
     <defs>
      <path id="DejaVuSerif-33" d="M 622 4469 
Q 988 4606 1323 4678 
Q 1659 4750 1953 4750 
Q 2638 4750 3022 4454 
Q 3406 4159 3406 3634 
Q 3406 3213 3140 2930 
Q 2875 2647 2388 2547 
Q 2963 2466 3280 2130 
Q 3597 1794 3597 1259 
Q 3597 606 3158 257 
Q 2719 -91 1894 -91 
Q 1528 -91 1179 -12 
Q 831 66 488 225 
L 488 1131 
L 838 1131 
Q 869 681 1141 450 
Q 1413 219 1906 219 
Q 2384 219 2661 495 
Q 2938 772 2938 1253 
Q 2938 1803 2653 2086 
Q 2369 2369 1819 2369 
L 1522 2369 
L 1522 2688 
L 1678 2688 
Q 2225 2688 2498 2914 
Q 2772 3141 2772 3597 
Q 2772 4006 2547 4223 
Q 2322 4441 1900 4441 
Q 1478 4441 1245 4241 
Q 1013 4041 972 3647 
L 622 3647 
L 622 4469 
z
" transform="scale(0.015625)"/>
     </defs>
     <use xlink:href="#DejaVuSerif-33"/>
    </g>
   </g>
   <g id="text_18">
    <!-- 4 -->
    <g transform="translate(111.519139 66.049137) scale(0.1 -0.1)">
     <use xlink:href="#DejaVuSerif-34"/>
    </g>
   </g>
   <g id="text_19">
    <!-- 5 -->
    <g transform="translate(120.119422 66.804126) scale(0.1 -0.1)">
     <defs>
      <path id="DejaVuSerif-35" d="M 3219 4666 
L 3219 4153 
L 1081 4153 
L 1081 2816 
Q 1244 2928 1461 2984 
Q 1678 3041 1947 3041 
Q 2703 3041 3140 2622 
Q 3578 2203 3578 1478 
Q 3578 738 3136 323 
Q 2694 -91 1894 -91 
Q 1572 -91 1234 -12 
Q 897 66 544 225 
L 544 1131 
L 897 1131 
Q 925 688 1179 453 
Q 1434 219 1894 219 
Q 2388 219 2653 544 
Q 2919 869 2919 1478 
Q 2919 2084 2655 2407 
Q 2391 2731 1894 2731 
Q 1613 2731 1398 2631 
Q 1184 2531 1019 2322 
L 750 2322 
L 750 4666 
L 3219 4666 
z
" transform="scale(0.015625)"/>
     </defs>
     <use xlink:href="#DejaVuSerif-35"/>
    </g>
   </g>
   <g id="text_20">
    <!-- 6 -->
    <g transform="translate(128.44355 67.049102) scale(0.1 -0.1)">
     <use xlink:href="#DejaVuSerif-36"/>
    </g>
   </g>
   <g id="text_21">
    <!-- 7 -->
    <g transform="translate(136.801213 67.466653) scale(0.1 -0.1)">
     <defs>
      <path id="DejaVuSerif-37" d="M 3609 4347 
L 1784 0 
L 1319 0 
L 3059 4153 
L 903 4153 
L 903 3578 
L 538 3578 
L 538 4666 
L 3609 4666 
L 3609 4347 
z
" transform="scale(0.015625)"/>
     </defs>
     <use xlink:href="#DejaVuSerif-37"/>
    </g>
   </g>
   <g id="text_22">
    <!-- 8 -->
    <g transform="translate(144.879819 67.132515) scale(0.1 -0.1)">
     <use xlink:href="#DejaVuSerif-38"/>
    </g>
   </g>
   <g id="text_23">
    <!-- 9 -->
    <g transform="translate(153.228154 67.332492) scale(0.1 -0.1)">
     <defs>
      <path id="DejaVuSerif-39" d="M 2994 2091 
Q 2784 1856 2512 1740 
Q 2241 1625 1900 1625 
Q 1206 1625 804 2044 
Q 403 2463 403 3188 
Q 403 3897 839 4323 
Q 1275 4750 2003 4750 
Q 2794 4750 3217 4161 
Q 3641 3572 3641 2478 
Q 3641 1253 3137 581 
Q 2634 -91 1722 -91 
Q 1475 -91 1203 -44 
Q 931 3 647 97 
L 647 872 
L 997 872 
Q 1038 556 1241 387 
Q 1444 219 1784 219 
Q 2391 219 2687 676 
Q 2984 1134 2994 2091 
z
M 1978 4441 
Q 1534 4441 1298 4117 
Q 1063 3794 1063 3188 
Q 1063 2581 1298 2256 
Q 1534 1931 1978 1931 
Q 2422 1931 2658 2245 
Q 2894 2559 2894 3150 
Q 2894 3772 2656 4106 
Q 2419 4441 1978 4441 
z
" transform="scale(0.015625)"/>
     </defs>
     <use xlink:href="#DejaVuSerif-39"/>
    </g>
   </g>
   <g id="text_24">
    <!-- 10 -->
    <g transform="translate(161.695509 67.602725) scale(0.1 -0.1)">
     <use xlink:href="#DejaVuSerif-31"/>
     <use xlink:href="#DejaVuSerif-30" x="63.623047"/>
    </g>
   </g>
   <g id="text_25">
    <!-- 11 -->
    <g transform="translate(170.445841 68.062994) scale(0.1 -0.1)">
     <use xlink:href="#DejaVuSerif-31"/>
     <use xlink:href="#DejaVuSerif-31" x="63.623047"/>
    </g>
   </g>
   <g id="text_26">
    <!-- 12 -->
    <g transform="translate(179.215754 68.075493) scale(0.1 -0.1)">
     <use xlink:href="#DejaVuSerif-31"/>
     <use xlink:href="#DejaVuSerif-32" x="63.623047"/>
    </g>
   </g>
   <g id="text_27">
    <!-- 13 -->
    <g transform="translate(188.243162 68.238634) scale(0.1 -0.1)">
     <use xlink:href="#DejaVuSerif-31"/>
     <use xlink:href="#DejaVuSerif-33" x="63.623047"/>
    </g>
   </g>
   <g id="text_28">
    <!-- 14 -->
    <g transform="translate(196.990786 69.489765) scale(0.1 -0.1)">
     <use xlink:href="#DejaVuSerif-31"/>
     <use xlink:href="#DejaVuSerif-34" x="63.623047"/>
    </g>
   </g>
   <g id="text_29">
    <!-- 15 -->
    <g transform="translate(205.625452 69.669133) scale(0.1 -0.1)">
     <use xlink:href="#DejaVuSerif-31"/>
     <use xlink:href="#DejaVuSerif-35" x="63.623047"/>
    </g>
   </g>
   <g id="text_30">
    <!-- 16 -->
    <g transform="translate(214.159333 72.44026) scale(0.1 -0.1)">
     <use xlink:href="#DejaVuSerif-31"/>
     <use xlink:href="#DejaVuSerif-36" x="63.623047"/>
    </g>
   </g>
   <g id="text_31">
    <!-- 17 -->
    <g transform="translate(222.375081 73.536959) scale(0.1 -0.1)">
     <use xlink:href="#DejaVuSerif-31"/>
     <use xlink:href="#DejaVuSerif-37" x="63.623047"/>
    </g>
   </g>
   <g id="text_32">
    <!-- 18 -->
    <g transform="translate(231.056419 75.134509) scale(0.1 -0.1)">
     <use xlink:href="#DejaVuSerif-31"/>
     <use xlink:href="#DejaVuSerif-38" x="63.623047"/>
    </g>
   </g>
   <g id="text_33">
    <!-- 19 -->
    <g transform="translate(240.526045 77.794323) scale(0.1 -0.1)">
     <use xlink:href="#DejaVuSerif-31"/>
     <use xlink:href="#DejaVuSerif-39" x="63.623047"/>
    </g>
   </g>
   <g id="text_34">
    <!-- 20 -->
    <g transform="translate(250.674772 79.67935) scale(0.1 -0.1)">
     <use xlink:href="#DejaVuSerif-32"/>
     <use xlink:href="#DejaVuSerif-30" x="63.623047"/>
    </g>
   </g>
   <g id="text_35">
    <!-- 21 -->
    <g transform="translate(261.800935 81.561692) scale(0.1 -0.1)">
     <use xlink:href="#DejaVuSerif-32"/>
     <use xlink:href="#DejaVuSerif-31" x="63.623047"/>
    </g>
   </g>
   <g id="text_36">
    <!-- 22 -->
    <g transform="translate(272.781367 83.566072) scale(0.1 -0.1)">
     <use xlink:href="#DejaVuSerif-32"/>
     <use xlink:href="#DejaVuSerif-32" x="63.623047"/>
    </g>
   </g>
   <g id="text_37">
    <!-- 23 -->
    <g transform="translate(286.102768 85.018165) scale(0.1 -0.1)">
     <use xlink:href="#DejaVuSerif-32"/>
     <use xlink:href="#DejaVuSerif-33" x="63.623047"/>
    </g>
   </g>
   <g id="text_38">
    <!-- 24 -->
    <g transform="translate(302.752567 86.938226) scale(0.1 -0.1)">
     <use xlink:href="#DejaVuSerif-32"/>
     <use xlink:href="#DejaVuSerif-34" x="63.623047"/>
    </g>
   </g>
   <g id="text_39">
    <!-- 25+ -->
    <g transform="translate(320.76142 88.013367) scale(0.1 -0.1)">
     <defs>
      <path id="DejaVuSerif-2b" d="M 2931 4013 
L 2931 2259 
L 4684 2259 
L 4684 1753 
L 2931 1753 
L 2931 0 
L 2431 0 
L 2431 1753 
L 678 1753 
L 678 2259 
L 2431 2259 
L 2431 4013 
L 2931 4013 
z
" transform="scale(0.015625)"/>
     </defs>
     <use xlink:href="#DejaVuSerif-32"/>
     <use xlink:href="#DejaVuSerif-35" x="63.623047"/>
     <use xlink:href="#DejaVuSerif-2b" x="127.246094"/>
    </g>
   </g>
   <g id="text_40">
    <!-- NMF 1D -->
    <g style="fill: #262626" transform="translate(298.230099 23.537308) scale(0.15 -0.15)">
     <defs>
      <path id="DejaVuSerif-4e" d="M 313 0 
L 313 331 
L 941 331 
L 941 4331 
L 313 4331 
L 313 4666 
L 1509 4666 
L 4306 984 
L 4306 4331 
L 3681 4331 
L 3681 4666 
L 5319 4666 
L 5319 4331 
L 4691 4331 
L 4691 -91 
L 4313 -91 
L 1325 3841 
L 1325 331 
L 1953 331 
L 1953 0 
L 313 0 
z
" transform="scale(0.015625)"/>
      <path id="DejaVuSerif-4d" d="M 353 0 
L 353 331 
L 947 331 
L 947 4331 
L 319 4331 
L 319 4666 
L 1678 4666 
L 3316 1344 
L 4953 4666 
L 6228 4666 
L 6228 4331 
L 5606 4331 
L 5606 331 
L 6203 331 
L 6203 0 
L 4378 0 
L 4378 331 
L 4972 331 
L 4972 3938 
L 3372 684 
L 2931 684 
L 1331 3938 
L 1331 331 
L 1925 331 
L 1925 0 
L 353 0 
z
" transform="scale(0.015625)"/>
      <path id="DejaVuSerif-46" d="M 353 0 
L 353 331 
L 947 331 
L 947 4331 
L 353 4331 
L 353 4666 
L 4172 4666 
L 4172 3628 
L 3788 3628 
L 3788 4281 
L 1581 4281 
L 1581 2719 
L 3175 2719 
L 3175 3303 
L 3559 3303 
L 3559 1753 
L 3175 1753 
L 3175 2338 
L 1581 2338 
L 1581 331 
L 2328 331 
L 2328 0 
L 353 0 
z
" transform="scale(0.015625)"/>
      <path id="DejaVuSerif-20" transform="scale(0.015625)"/>
     </defs>
     <use xlink:href="#DejaVuSerif-4e"/>
     <use xlink:href="#DejaVuSerif-4d" x="87.5"/>
     <use xlink:href="#DejaVuSerif-46" x="189.892578"/>
     <use xlink:href="#DejaVuSerif-20" x="259.277344"/>
     <use xlink:href="#DejaVuSerif-31" x="291.064453"/>
     <use xlink:href="#DejaVuSerif-44" x="354.6875"/>
    </g>
   </g>
  </g>
 </g>
 <defs>
  <clipPath id="p7703f34458">
   <rect x="60.617188" y="5.698828" width="334.8" height="166.32"/>
  </clipPath>
 </defs>
</svg>
