<?xml version="1.0" encoding="utf-8" standalone="no"?>
<!DOCTYPE svg PUBLIC "-//W3C//DTD SVG 1.1//EN"
  "http://www.w3.org/Graphics/SVG/1.1/DTD/svg11.dtd">
<svg xmlns:xlink="http://www.w3.org/1999/xlink" width="395.417187pt" height="212.053203pt" viewBox="0 0 395.417187 212.053203" xmlns="http://www.w3.org/2000/svg" version="1.1">
 <metadata>
  <rdf:RDF xmlns:dc="http://purl.org/dc/elements/1.1/" xmlns:cc="http://creativecommons.org/ns#" xmlns:rdf="http://www.w3.org/1999/02/22-rdf-syntax-ns#">
   <cc:Work>
    <dc:type rdf:resource="http://purl.org/dc/dcmitype/StillImage"/>
    <dc:date>2024-11-11T11:38:23.580874</dc:date>
    <dc:format>image/svg+xml</dc:format>
    <dc:creator>
     <cc:Agent>
      <dc:title>Matplotlib v3.9.2, https://matplotlib.org/</dc:title>
     </cc:Agent>
    </dc:creator>
   </cc:Work>
  </rdf:RDF>
 </metadata>
 <defs>
  <style type="text/css">*{stroke-linejoin: round; stroke-linecap: butt}</style>
 </defs>
 <g id="figure_1">
  <g id="patch_1">
   <path d="M 0 212.053203 
L 395.417187 212.053203 
L 395.417187 0 
L 0 0 
z
" style="fill: #ffffff"/>
  </g>
  <g id="axes_1">
   <g id="patch_2">
    <path d="M 60.617188 172.018828 
L 395.417188 172.018828 
L 395.417188 5.698828 
L 60.617188 5.698828 
z
" style="fill: #eaeaf2"/>
   </g>
   <g id="matplotlib.axis_1">
    <g id="xtick_1">
     <g id="line2d_1">
      <path d="M 75.835369 172.018828 
L 75.835369 5.698828 
" clip-path="url(#p703258f07c)" style="fill: none; stroke: #ffffff; stroke-linecap: round"/>
     </g>
     <g id="line2d_2"/>
     <g id="text_1">
      <!-- 0.0 -->
      <g style="fill: #262626" transform="translate(63.908026 190.416484) scale(0.15 -0.15)">
       <defs>
        <path id="DejaVuSerif-30" d="M 2034 219 
Q 2513 219 2750 744 
Q 2988 1269 2988 2328 
Q 2988 3391 2750 3916 
Q 2513 4441 2034 4441 
Q 1556 4441 1318 3916 
Q 1081 3391 1081 2328 
Q 1081 1269 1318 744 
Q 1556 219 2034 219 
z
M 2034 -91 
Q 1275 -91 848 546 
Q 422 1184 422 2328 
Q 422 3475 848 4112 
Q 1275 4750 2034 4750 
Q 2797 4750 3222 4112 
Q 3647 3475 3647 2328 
Q 3647 1184 3222 546 
Q 2797 -91 2034 -91 
z
" transform="scale(0.015625)"/>
        <path id="DejaVuSerif-2e" d="M 603 325 
Q 603 500 722 622 
Q 841 744 1019 744 
Q 1191 744 1312 622 
Q 1434 500 1434 325 
Q 1434 153 1312 31 
Q 1191 -91 1019 -91 
Q 841 -91 722 29 
Q 603 150 603 325 
z
" transform="scale(0.015625)"/>
       </defs>
       <use xlink:href="#DejaVuSerif-30"/>
       <use xlink:href="#DejaVuSerif-2e" x="63.623047"/>
       <use xlink:href="#DejaVuSerif-30" x="95.410156"/>
      </g>
     </g>
    </g>
    <g id="xtick_2">
     <g id="line2d_3">
      <path d="M 136.708097 172.018828 
L 136.708097 5.698828 
" clip-path="url(#p703258f07c)" style="fill: none; stroke: #ffffff; stroke-linecap: round"/>
     </g>
     <g id="line2d_4"/>
     <g id="text_2">
      <!-- 0.2 -->
      <g style="fill: #262626" transform="translate(124.780753 190.416484) scale(0.15 -0.15)">
       <defs>
        <path id="DejaVuSerif-32" d="M 819 3553 
L 469 3553 
L 469 4384 
Q 803 4563 1142 4656 
Q 1481 4750 1806 4750 
Q 2534 4750 2956 4397 
Q 3378 4044 3378 3438 
Q 3378 2753 2422 1800 
Q 2347 1728 2309 1691 
L 1131 513 
L 3078 513 
L 3078 1088 
L 3444 1088 
L 3444 0 
L 434 0 
L 434 341 
L 1850 1753 
Q 2319 2222 2519 2614 
Q 2719 3006 2719 3438 
Q 2719 3909 2473 4175 
Q 2228 4441 1797 4441 
Q 1350 4441 1106 4219 
Q 863 3997 819 3553 
z
" transform="scale(0.015625)"/>
       </defs>
       <use xlink:href="#DejaVuSerif-30"/>
       <use xlink:href="#DejaVuSerif-2e" x="63.623047"/>
       <use xlink:href="#DejaVuSerif-32" x="95.410156"/>
      </g>
     </g>
    </g>
    <g id="xtick_3">
     <g id="line2d_5">
      <path d="M 197.580824 172.018828 
L 197.580824 5.698828 
" clip-path="url(#p703258f07c)" style="fill: none; stroke: #ffffff; stroke-linecap: round"/>
     </g>
     <g id="line2d_6"/>
     <g id="text_3">
      <!-- 0.4 -->
      <g style="fill: #262626" transform="translate(185.65348 190.416484) scale(0.15 -0.15)">
       <defs>
        <path id="DejaVuSerif-34" d="M 2234 1581 
L 2234 4063 
L 641 1581 
L 2234 1581 
z
M 3609 0 
L 1484 0 
L 1484 331 
L 2234 331 
L 2234 1247 
L 197 1247 
L 197 1588 
L 2241 4750 
L 2859 4750 
L 2859 1581 
L 3750 1581 
L 3750 1247 
L 2859 1247 
L 2859 331 
L 3609 331 
L 3609 0 
z
" transform="scale(0.015625)"/>
       </defs>
       <use xlink:href="#DejaVuSerif-30"/>
       <use xlink:href="#DejaVuSerif-2e" x="63.623047"/>
       <use xlink:href="#DejaVuSerif-34" x="95.410156"/>
      </g>
     </g>
    </g>
    <g id="xtick_4">
     <g id="line2d_7">
      <path d="M 258.453551 172.018828 
L 258.453551 5.698828 
" clip-path="url(#p703258f07c)" style="fill: none; stroke: #ffffff; stroke-linecap: round"/>
     </g>
     <g id="line2d_8"/>
     <g id="text_4">
      <!-- 0.6 -->
      <g style="fill: #262626" transform="translate(246.526207 190.416484) scale(0.15 -0.15)">
       <defs>
        <path id="DejaVuSerif-36" d="M 2094 219 
Q 2534 219 2771 542 
Q 3009 866 3009 1472 
Q 3009 2078 2771 2401 
Q 2534 2725 2094 2725 
Q 1647 2725 1412 2412 
Q 1178 2100 1178 1509 
Q 1178 888 1415 553 
Q 1653 219 2094 219 
z
M 1075 2569 
Q 1288 2803 1556 2918 
Q 1825 3034 2163 3034 
Q 2859 3034 3264 2615 
Q 3669 2197 3669 1472 
Q 3669 763 3233 336 
Q 2797 -91 2069 -91 
Q 1278 -91 853 498 
Q 428 1088 428 2181 
Q 428 3406 931 4078 
Q 1434 4750 2350 4750 
Q 2597 4750 2869 4703 
Q 3141 4656 3425 4563 
L 3425 3794 
L 3072 3794 
Q 3034 4109 2831 4275 
Q 2628 4441 2284 4441 
Q 1678 4441 1381 3981 
Q 1084 3522 1075 2569 
z
" transform="scale(0.015625)"/>
       </defs>
       <use xlink:href="#DejaVuSerif-30"/>
       <use xlink:href="#DejaVuSerif-2e" x="63.623047"/>
       <use xlink:href="#DejaVuSerif-36" x="95.410156"/>
      </g>
     </g>
    </g>
    <g id="xtick_5">
     <g id="line2d_9">
      <path d="M 319.326278 172.018828 
L 319.326278 5.698828 
" clip-path="url(#p703258f07c)" style="fill: none; stroke: #ffffff; stroke-linecap: round"/>
     </g>
     <g id="line2d_10"/>
     <g id="text_5">
      <!-- 0.8 -->
      <g style="fill: #262626" transform="translate(307.398935 190.416484) scale(0.15 -0.15)">
       <defs>
        <path id="DejaVuSerif-38" d="M 2981 1275 
Q 2981 1775 2732 2051 
Q 2484 2328 2034 2328 
Q 1584 2328 1336 2051 
Q 1088 1775 1088 1275 
Q 1088 772 1336 495 
Q 1584 219 2034 219 
Q 2484 219 2732 495 
Q 2981 772 2981 1275 
z
M 2853 3541 
Q 2853 3966 2637 4203 
Q 2422 4441 2034 4441 
Q 1650 4441 1433 4203 
Q 1216 3966 1216 3541 
Q 1216 3113 1433 2875 
Q 1650 2638 2034 2638 
Q 2422 2638 2637 2875 
Q 2853 3113 2853 3541 
z
M 2516 2484 
Q 3047 2413 3344 2092 
Q 3641 1772 3641 1275 
Q 3641 619 3225 264 
Q 2809 -91 2034 -91 
Q 1263 -91 845 264 
Q 428 619 428 1275 
Q 428 1772 725 2092 
Q 1022 2413 1556 2484 
Q 1084 2569 832 2842 
Q 581 3116 581 3541 
Q 581 4103 968 4426 
Q 1356 4750 2034 4750 
Q 2713 4750 3100 4426 
Q 3488 4103 3488 3541 
Q 3488 3116 3236 2842 
Q 2984 2569 2516 2484 
z
" transform="scale(0.015625)"/>
       </defs>
       <use xlink:href="#DejaVuSerif-30"/>
       <use xlink:href="#DejaVuSerif-2e" x="63.623047"/>
       <use xlink:href="#DejaVuSerif-38" x="95.410156"/>
      </g>
     </g>
    </g>
    <g id="xtick_6">
     <g id="line2d_11">
      <path d="M 380.199006 172.018828 
L 380.199006 5.698828 
" clip-path="url(#p703258f07c)" style="fill: none; stroke: #ffffff; stroke-linecap: round"/>
     </g>
     <g id="line2d_12"/>
     <g id="text_6">
      <!-- 1.0 -->
      <g style="fill: #262626" transform="translate(368.271662 190.416484) scale(0.15 -0.15)">
       <defs>
        <path id="DejaVuSerif-31" d="M 909 0 
L 909 331 
L 1722 331 
L 1722 4213 
L 781 3603 
L 781 4013 
L 1919 4750 
L 2350 4750 
L 2350 331 
L 3163 331 
L 3163 0 
L 909 0 
z
" transform="scale(0.015625)"/>
       </defs>
       <use xlink:href="#DejaVuSerif-31"/>
       <use xlink:href="#DejaVuSerif-2e" x="63.623047"/>
       <use xlink:href="#DejaVuSerif-30" x="95.410156"/>
      </g>
     </g>
    </g>
    <g id="text_7">
     <!-- $s_1$ -->
     <g style="fill: #262626" transform="translate(220.517188 208.933672) scale(0.15 -0.15)">
      <defs>
       <path id="DejaVuSans-Oblique-73" d="M 3200 3397 
L 3091 2853 
Q 2863 2978 2609 3040 
Q 2356 3103 2088 3103 
Q 1634 3103 1373 2948 
Q 1113 2794 1113 2528 
Q 1113 2219 1719 2053 
Q 1766 2041 1788 2034 
L 1972 1978 
Q 2547 1819 2739 1644 
Q 2931 1469 2931 1166 
Q 2931 609 2489 259 
Q 2047 -91 1331 -91 
Q 1053 -91 747 -37 
Q 441 16 72 128 
L 184 722 
Q 500 559 806 475 
Q 1113 391 1394 391 
Q 1816 391 2080 572 
Q 2344 753 2344 1031 
Q 2344 1331 1650 1516 
L 1591 1531 
L 1394 1581 
Q 956 1697 753 1886 
Q 550 2075 550 2369 
Q 550 2928 970 3256 
Q 1391 3584 2113 3584 
Q 2397 3584 2667 3537 
Q 2938 3491 3200 3397 
z
" transform="scale(0.015625)"/>
       <path id="DejaVuSans-31" d="M 794 531 
L 1825 531 
L 1825 4091 
L 703 3866 
L 703 4441 
L 1819 4666 
L 2450 4666 
L 2450 531 
L 3481 531 
L 3481 0 
L 794 0 
L 794 531 
z
" transform="scale(0.015625)"/>
      </defs>
      <use xlink:href="#DejaVuSans-Oblique-73"/>
      <use xlink:href="#DejaVuSans-31" transform="translate(52.099609 -16.40625) scale(0.7)"/>
     </g>
    </g>
   </g>
   <g id="matplotlib.axis_2">
    <g id="ytick_1">
     <g id="line2d_13">
      <path d="M 60.617188 172.018828 
L 395.417188 172.018828 
" clip-path="url(#p703258f07c)" style="fill: none; stroke: #ffffff; stroke-linecap: round"/>
     </g>
     <g id="line2d_14"/>
     <g id="text_8">
      <!-- $\mathdefault{10^{-2}}$ -->
      <g style="fill: #262626" transform="translate(18.517187 177.717656) scale(0.15 -0.15)">
       <defs>
        <path id="DejaVuSerif-2212" d="M 678 2259 
L 4684 2259 
L 4684 1753 
L 678 1753 
L 678 2259 
z
" transform="scale(0.015625)"/>
       </defs>
       <use xlink:href="#DejaVuSerif-31" transform="translate(0 0.7125)"/>
       <use xlink:href="#DejaVuSerif-30" transform="translate(63.623047 0.7125)"/>
       <use xlink:href="#DejaVuSerif-2212" transform="translate(128.154453 37.046875) scale(0.7)"/>
       <use xlink:href="#DejaVuSerif-32" transform="translate(186.806797 37.046875) scale(0.7)"/>
      </g>
     </g>
    </g>
    <g id="ytick_2">
     <g id="line2d_15">
      <path d="M 60.617188 130.438828 
L 395.417188 130.438828 
" clip-path="url(#p703258f07c)" style="fill: none; stroke: #ffffff; stroke-linecap: round"/>
     </g>
     <g id="line2d_16"/>
     <g id="text_9">
      <!-- $\mathdefault{10^{-1}}$ -->
      <g style="fill: #262626" transform="translate(18.517187 136.137656) scale(0.15 -0.15)">
       <use xlink:href="#DejaVuSerif-31" transform="translate(0 0.7125)"/>
       <use xlink:href="#DejaVuSerif-30" transform="translate(63.623047 0.7125)"/>
       <use xlink:href="#DejaVuSerif-2212" transform="translate(128.154453 37.046875) scale(0.7)"/>
       <use xlink:href="#DejaVuSerif-31" transform="translate(186.806797 37.046875) scale(0.7)"/>
      </g>
     </g>
    </g>
    <g id="ytick_3">
     <g id="line2d_17">
      <path d="M 60.617188 88.858828 
L 395.417188 88.858828 
" clip-path="url(#p703258f07c)" style="fill: none; stroke: #ffffff; stroke-linecap: round"/>
     </g>
     <g id="line2d_18"/>
     <g id="text_10">
      <!-- $\mathdefault{10^{0}}$ -->
      <g style="fill: #262626" transform="translate(27.217188 94.557656) scale(0.15 -0.15)">
       <use xlink:href="#DejaVuSerif-31" transform="translate(0 0.7125)"/>
       <use xlink:href="#DejaVuSerif-30" transform="translate(63.623047 0.7125)"/>
       <use xlink:href="#DejaVuSerif-30" transform="translate(128.154453 37.046875) scale(0.7)"/>
      </g>
     </g>
    </g>
    <g id="ytick_4">
     <g id="line2d_19">
      <path d="M 60.617188 47.278828 
L 395.417188 47.278828 
" clip-path="url(#p703258f07c)" style="fill: none; stroke: #ffffff; stroke-linecap: round"/>
     </g>
     <g id="line2d_20"/>
     <g id="text_11">
      <!-- $\mathdefault{10^{1}}$ -->
      <g style="fill: #262626" transform="translate(27.217188 52.977656) scale(0.15 -0.15)">
       <use xlink:href="#DejaVuSerif-31" transform="translate(0 0.7125)"/>
       <use xlink:href="#DejaVuSerif-30" transform="translate(63.623047 0.7125)"/>
       <use xlink:href="#DejaVuSerif-31" transform="translate(128.154453 37.046875) scale(0.7)"/>
      </g>
     </g>
    </g>
    <g id="ytick_5">
     <g id="line2d_21">
      <path d="M 60.617188 5.698828 
L 395.417188 5.698828 
" clip-path="url(#p703258f07c)" style="fill: none; stroke: #ffffff; stroke-linecap: round"/>
     </g>
     <g id="line2d_22"/>
     <g id="text_12">
      <!-- $\mathdefault{10^{2}}$ -->
      <g style="fill: #262626" transform="translate(27.217188 11.397656) scale(0.15 -0.15)">
       <use xlink:href="#DejaVuSerif-31" transform="translate(0 0.7125)"/>
       <use xlink:href="#DejaVuSerif-30" transform="translate(63.623047 0.7125)"/>
       <use xlink:href="#DejaVuSerif-32" transform="translate(128.154453 37.046875) scale(0.7)"/>
      </g>
     </g>
    </g>
    <g id="ytick_6">
     <g id="line2d_23"/>
    </g>
    <g id="ytick_7">
     <g id="line2d_24"/>
    </g>
    <g id="ytick_8">
     <g id="line2d_25"/>
    </g>
    <g id="ytick_9">
     <g id="line2d_26"/>
    </g>
    <g id="ytick_10">
     <g id="line2d_27"/>
    </g>
    <g id="ytick_11">
     <g id="line2d_28"/>
    </g>
    <g id="ytick_12">
     <g id="line2d_29"/>
    </g>
    <g id="ytick_13">
     <g id="line2d_30"/>
    </g>
    <g id="ytick_14">
     <g id="line2d_31"/>
    </g>
    <g id="ytick_15">
     <g id="line2d_32"/>
    </g>
    <g id="ytick_16">
     <g id="line2d_33"/>
    </g>
    <g id="ytick_17">
     <g id="line2d_34"/>
    </g>
    <g id="ytick_18">
     <g id="line2d_35"/>
    </g>
    <g id="ytick_19">
     <g id="line2d_36"/>
    </g>
    <g id="ytick_20">
     <g id="line2d_37"/>
    </g>
    <g id="ytick_21">
     <g id="line2d_38"/>
    </g>
    <g id="ytick_22">
     <g id="line2d_39"/>
    </g>
    <g id="ytick_23">
     <g id="line2d_40"/>
    </g>
    <g id="ytick_24">
     <g id="line2d_41"/>
    </g>
    <g id="ytick_25">
     <g id="line2d_42"/>
    </g>
    <g id="ytick_26">
     <g id="line2d_43"/>
    </g>
    <g id="ytick_27">
     <g id="line2d_44"/>
    </g>
    <g id="ytick_28">
     <g id="line2d_45"/>
    </g>
    <g id="ytick_29">
     <g id="line2d_46"/>
    </g>
    <g id="ytick_30">
     <g id="line2d_47"/>
    </g>
    <g id="ytick_31">
     <g id="line2d_48"/>
    </g>
    <g id="ytick_32">
     <g id="line2d_49"/>
    </g>
    <g id="ytick_33">
     <g id="line2d_50"/>
    </g>
    <g id="ytick_34">
     <g id="line2d_51"/>
    </g>
    <g id="ytick_35">
     <g id="line2d_52"/>
    </g>
    <g id="ytick_36">
     <g id="line2d_53"/>
    </g>
    <g id="ytick_37">
     <g id="line2d_54"/>
    </g>
    <g id="text_13">
     <!-- Density -->
     <g style="fill: #262626" transform="translate(11.184375 117.640078) rotate(-90) scale(0.15 -0.15)">
      <defs>
       <path id="DejaVuSerif-44" d="M 1581 331 
L 2163 331 
Q 3072 331 3558 850 
Q 4044 1369 4044 2338 
Q 4044 3306 3559 3818 
Q 3075 4331 2163 4331 
L 1581 4331 
L 1581 331 
z
M 353 0 
L 353 331 
L 947 331 
L 947 4331 
L 353 4331 
L 353 4666 
L 2209 4666 
Q 3416 4666 4089 4050 
Q 4763 3434 4763 2338 
Q 4763 1238 4088 619 
Q 3413 0 2209 0 
L 353 0 
z
" transform="scale(0.015625)"/>
       <path id="DejaVuSerif-65" d="M 3469 1600 
L 991 1600 
L 991 1575 
Q 991 903 1244 561 
Q 1497 219 1991 219 
Q 2369 219 2611 417 
Q 2853 616 2950 1006 
L 3413 1006 
Q 3275 459 2904 184 
Q 2534 -91 1931 -91 
Q 1203 -91 761 389 
Q 319 869 319 1663 
Q 319 2450 753 2931 
Q 1188 3413 1894 3413 
Q 2647 3413 3050 2948 
Q 3453 2484 3469 1600 
z
M 2791 1931 
Q 2772 2513 2545 2808 
Q 2319 3103 1894 3103 
Q 1497 3103 1269 2806 
Q 1041 2509 991 1931 
L 2791 1931 
z
" transform="scale(0.015625)"/>
       <path id="DejaVuSerif-6e" d="M 263 0 
L 263 331 
L 781 331 
L 781 2988 
L 231 2988 
L 231 3322 
L 1356 3322 
L 1356 2731 
Q 1516 3069 1770 3241 
Q 2025 3413 2363 3413 
Q 2913 3413 3172 3097 
Q 3431 2781 3431 2113 
L 3431 331 
L 3944 331 
L 3944 0 
L 2356 0 
L 2356 331 
L 2853 331 
L 2853 1931 
Q 2853 2541 2703 2767 
Q 2553 2994 2175 2994 
Q 1775 2994 1565 2701 
Q 1356 2409 1356 1850 
L 1356 331 
L 1856 331 
L 1856 0 
L 263 0 
z
" transform="scale(0.015625)"/>
       <path id="DejaVuSerif-73" d="M 359 184 
L 359 959 
L 691 959 
Q 703 588 923 403 
Q 1144 219 1575 219 
Q 1963 219 2166 364 
Q 2369 509 2369 788 
Q 2369 1006 2220 1140 
Q 2072 1275 1594 1428 
L 1178 1569 
Q 750 1706 558 1912 
Q 366 2119 366 2438 
Q 366 2894 700 3153 
Q 1034 3413 1625 3413 
Q 1888 3413 2178 3344 
Q 2469 3275 2778 3144 
L 2778 2419 
L 2447 2419 
Q 2434 2741 2221 2922 
Q 2009 3103 1644 3103 
Q 1281 3103 1095 2975 
Q 909 2847 909 2591 
Q 909 2381 1050 2254 
Q 1191 2128 1613 1997 
L 2069 1856 
Q 2541 1709 2748 1489 
Q 2956 1269 2956 922 
Q 2956 450 2595 179 
Q 2234 -91 1600 -91 
Q 1278 -91 972 -22 
Q 666 47 359 184 
z
" transform="scale(0.015625)"/>
       <path id="DejaVuSerif-69" d="M 622 4353 
Q 622 4497 726 4603 
Q 831 4709 978 4709 
Q 1122 4709 1226 4603 
Q 1331 4497 1331 4353 
Q 1331 4206 1228 4103 
Q 1125 4000 978 4000 
Q 831 4000 726 4103 
Q 622 4206 622 4353 
z
M 1356 331 
L 1900 331 
L 1900 0 
L 231 0 
L 231 331 
L 781 331 
L 781 2988 
L 231 2988 
L 231 3322 
L 1356 3322 
L 1356 331 
z
" transform="scale(0.015625)"/>
       <path id="DejaVuSerif-74" d="M 691 2988 
L 184 2988 
L 184 3322 
L 691 3322 
L 691 4353 
L 1269 4353 
L 1269 3322 
L 2350 3322 
L 2350 2988 
L 1269 2988 
L 1269 878 
Q 1269 456 1350 337 
Q 1431 219 1650 219 
Q 1875 219 1978 351 
Q 2081 484 2088 781 
L 2522 781 
Q 2497 328 2275 118 
Q 2053 -91 1600 -91 
Q 1103 -91 897 129 
Q 691 350 691 878 
L 691 2988 
z
" transform="scale(0.015625)"/>
       <path id="DejaVuSerif-79" d="M 1381 -609 
L 1600 -56 
L 359 2988 
L -19 2988 
L -19 3322 
L 1509 3322 
L 1509 2988 
L 978 2988 
L 1913 703 
L 2847 2988 
L 2350 2988 
L 2350 3322 
L 3597 3322 
L 3597 2988 
L 3225 2988 
L 1703 -750 
Q 1547 -1138 1356 -1280 
Q 1166 -1422 819 -1422 
Q 672 -1422 517 -1397 
Q 363 -1372 206 -1325 
L 206 -691 
L 500 -691 
Q 519 -903 608 -995 
Q 697 -1088 884 -1088 
Q 1056 -1088 1161 -992 
Q 1266 -897 1381 -609 
z
" transform="scale(0.015625)"/>
      </defs>
      <use xlink:href="#DejaVuSerif-44"/>
      <use xlink:href="#DejaVuSerif-65" x="80.175781"/>
      <use xlink:href="#DejaVuSerif-6e" x="139.355469"/>
      <use xlink:href="#DejaVuSerif-73" x="203.759766"/>
      <use xlink:href="#DejaVuSerif-69" x="255.078125"/>
      <use xlink:href="#DejaVuSerif-74" x="287.060547"/>
      <use xlink:href="#DejaVuSerif-79" x="327.246094"/>
     </g>
    </g>
   </g>
   <g id="PolyCollection_1">
    <path d="M 74.924206 242.240207 
L 74.924206 41668.858828 
L 75.537806 41668.858828 
L 76.151405 41668.858828 
L 76.765004 41668.858828 
L 77.378603 41668.858828 
L 77.992202 41668.858828 
L 78.605801 41668.858828 
L 79.2194 41668.858828 
L 79.832999 41668.858828 
L 80.446599 41668.858828 
L 81.060198 41668.858828 
L 81.673797 41668.858828 
L 82.287396 41668.858828 
L 82.900995 41668.858828 
L 83.514594 41668.858828 
L 84.128193 41668.858828 
L 84.741792 41668.858828 
L 85.355392 41668.858828 
L 85.968991 41668.858828 
L 86.58259 41668.858828 
L 87.196189 41668.858828 
L 87.809788 41668.858828 
L 88.423387 41668.858828 
L 89.036986 41668.858828 
L 89.650585 41668.858828 
L 90.264185 41668.858828 
L 90.877784 41668.858828 
L 91.491383 41668.858828 
L 92.104982 41668.858828 
L 92.718581 41668.858828 
L 93.33218 41668.858828 
L 93.945779 41668.858828 
L 94.559378 41668.858828 
L 95.172978 41668.858828 
L 95.786577 41668.858828 
L 96.400176 41668.858828 
L 97.013775 41668.858828 
L 97.627374 41668.858828 
L 98.240973 41668.858828 
L 98.854572 41668.858828 
L 99.468171 41668.858828 
L 100.081771 41668.858828 
L 100.69537 41668.858828 
L 101.308969 41668.858828 
L 101.922568 41668.858828 
L 102.536167 41668.858828 
L 103.149766 41668.858828 
L 103.763365 41668.858828 
L 104.376964 41668.858828 
L 104.990563 41668.858828 
L 105.604163 41668.858828 
L 106.217762 41668.858828 
L 106.831361 41668.858828 
L 107.44496 41668.858828 
L 108.058559 41668.858828 
L 108.672158 41668.858828 
L 109.285757 41668.858828 
L 109.899356 41668.858828 
L 110.512956 41668.858828 
L 111.126555 41668.858828 
L 111.740154 41668.858828 
L 112.353753 41668.858828 
L 112.967352 41668.858828 
L 113.580951 41668.858828 
L 114.19455 41668.858828 
L 114.808149 41668.858828 
L 115.421749 41668.858828 
L 116.035348 41668.858828 
L 116.648947 41668.858828 
L 117.262546 41668.858828 
L 117.876145 41668.858828 
L 118.489744 41668.858828 
L 119.103343 41668.858828 
L 119.716942 41668.858828 
L 120.330542 41668.858828 
L 120.944141 41668.858828 
L 121.55774 41668.858828 
L 122.171339 41668.858828 
L 122.784938 41668.858828 
L 123.398537 41668.858828 
L 124.012136 41668.858828 
L 124.625735 41668.858828 
L 125.239335 41668.858828 
L 125.852934 41668.858828 
L 126.466533 41668.858828 
L 127.080132 41668.858828 
L 127.693731 41668.858828 
L 128.30733 41668.858828 
L 128.920929 41668.858828 
L 129.534528 41668.858828 
L 130.148127 41668.858828 
L 130.761727 41668.858828 
L 131.375326 41668.858828 
L 131.988925 41668.858828 
L 132.602524 41668.858828 
L 133.216123 41668.858828 
L 133.829722 41668.858828 
L 134.443321 41668.858828 
L 135.05692 41668.858828 
L 135.67052 41668.858828 
L 136.284119 41668.858828 
L 136.897718 41668.858828 
L 137.511317 41668.858828 
L 138.124916 41668.858828 
L 138.738515 41668.858828 
L 139.352114 41668.858828 
L 139.965713 41668.858828 
L 140.579313 41668.858828 
L 141.192912 41668.858828 
L 141.806511 41668.858828 
L 142.42011 41668.858828 
L 143.033709 41668.858828 
L 143.647308 41668.858828 
L 144.260907 41668.858828 
L 144.874506 41668.858828 
L 145.488106 41668.858828 
L 146.101705 41668.858828 
L 146.715304 41668.858828 
L 147.328903 41668.858828 
L 147.942502 41668.858828 
L 148.556101 41668.858828 
L 149.1697 41668.858828 
L 149.783299 41668.858828 
L 150.396899 41668.858828 
L 151.010498 41668.858828 
L 151.624097 41668.858828 
L 152.237696 41668.858828 
L 152.851295 41668.858828 
L 153.464894 41668.858828 
L 154.078493 41668.858828 
L 154.692092 41668.858828 
L 155.305692 41668.858828 
L 155.919291 41668.858828 
L 156.53289 41668.858828 
L 157.146489 41668.858828 
L 157.760088 41668.858828 
L 158.373687 41668.858828 
L 158.987286 41668.858828 
L 159.600885 41668.858828 
L 160.214484 41668.858828 
L 160.828084 41668.858828 
L 161.441683 41668.858828 
L 162.055282 41668.858828 
L 162.668881 41668.858828 
L 163.28248 41668.858828 
L 163.896079 41668.858828 
L 164.509678 41668.858828 
L 165.123277 41668.858828 
L 165.736877 41668.858828 
L 166.350476 41668.858828 
L 166.964075 41668.858828 
L 167.577674 41668.858828 
L 168.191273 41668.858828 
L 168.804872 41668.858828 
L 169.418471 41668.858828 
L 170.03207 41668.858828 
L 170.64567 41668.858828 
L 171.259269 41668.858828 
L 171.872868 41668.858828 
L 172.486467 41668.858828 
L 173.100066 41668.858828 
L 173.713665 41668.858828 
L 174.327264 41668.858828 
L 174.940863 41668.858828 
L 175.554463 41668.858828 
L 176.168062 41668.858828 
L 176.781661 41668.858828 
L 177.39526 41668.858828 
L 178.008859 41668.858828 
L 178.622458 41668.858828 
L 179.236057 41668.858828 
L 179.849656 41668.858828 
L 180.463256 41668.858828 
L 181.076855 41668.858828 
L 181.690454 41668.858828 
L 182.304053 41668.858828 
L 182.917652 41668.858828 
L 183.531251 41668.858828 
L 184.14485 41668.858828 
L 184.758449 41668.858828 
L 185.372049 41668.858828 
L 185.985648 41668.858828 
L 186.599247 41668.858828 
L 187.212846 41668.858828 
L 187.826445 41668.858828 
L 188.440044 41668.858828 
L 189.053643 41668.858828 
L 189.667242 41668.858828 
L 190.280841 41668.858828 
L 190.894441 41668.858828 
L 191.50804 41668.858828 
L 192.121639 41668.858828 
L 192.735238 41668.858828 
L 193.348837 41668.858828 
L 193.962436 41668.858828 
L 194.576035 41668.858828 
L 195.189634 41668.858828 
L 195.803234 41668.858828 
L 196.416833 41668.858828 
L 197.030432 41668.858828 
L 197.644031 41668.858828 
L 198.25763 41668.858828 
L 198.871229 41668.858828 
L 199.484828 41668.858828 
L 200.098427 41668.858828 
L 200.712027 41668.858828 
L 201.325626 41668.858828 
L 201.939225 41668.858828 
L 202.552824 41668.858828 
L 203.166423 41668.858828 
L 203.780022 41668.858828 
L 204.393621 41668.858828 
L 205.00722 41668.858828 
L 205.62082 41668.858828 
L 206.234419 41668.858828 
L 206.848018 41668.858828 
L 207.461617 41668.858828 
L 208.075216 41668.858828 
L 208.688815 41668.858828 
L 209.302414 41668.858828 
L 209.916013 41668.858828 
L 210.529613 41668.858828 
L 211.143212 41668.858828 
L 211.756811 41668.858828 
L 212.37041 41668.858828 
L 212.984009 41668.858828 
L 213.597608 41668.858828 
L 214.211207 41668.858828 
L 214.824806 41668.858828 
L 215.438405 41668.858828 
L 216.052005 41668.858828 
L 216.665604 41668.858828 
L 217.279203 41668.858828 
L 217.892802 41668.858828 
L 218.506401 41668.858828 
L 219.12 41668.858828 
L 219.733599 41668.858828 
L 220.347198 41668.858828 
L 220.960798 41668.858828 
L 221.574397 41668.858828 
L 222.187996 41668.858828 
L 222.801595 41668.858828 
L 223.415194 41668.858828 
L 224.028793 41668.858828 
L 224.642392 41668.858828 
L 225.255991 41668.858828 
L 225.869591 41668.858828 
L 226.48319 41668.858828 
L 227.096789 41668.858828 
L 227.710388 41668.858828 
L 228.323987 41668.858828 
L 228.937586 41668.858828 
L 229.551185 41668.858828 
L 230.164784 41668.858828 
L 230.778384 41668.858828 
L 231.391983 41668.858828 
L 232.005582 41668.858828 
L 232.619181 41668.858828 
L 233.23278 41668.858828 
L 233.846379 41668.858828 
L 234.459978 41668.858828 
L 235.073577 41668.858828 
L 235.687177 41668.858828 
L 236.300776 41668.858828 
L 236.914375 41668.858828 
L 237.527974 41668.858828 
L 238.141573 41668.858828 
L 238.755172 41668.858828 
L 239.368771 41668.858828 
L 239.98237 41668.858828 
L 240.59597 41668.858828 
L 241.209569 41668.858828 
L 241.823168 41668.858828 
L 242.436767 41668.858828 
L 243.050366 41668.858828 
L 243.663965 41668.858828 
L 244.277564 41668.858828 
L 244.891163 41668.858828 
L 245.504762 41668.858828 
L 246.118362 41668.858828 
L 246.731961 41668.858828 
L 247.34556 41668.858828 
L 247.959159 41668.858828 
L 248.572758 41668.858828 
L 249.186357 41668.858828 
L 249.799956 41668.858828 
L 250.413555 41668.858828 
L 251.027155 41668.858828 
L 251.640754 41668.858828 
L 252.254353 41668.858828 
L 252.867952 41668.858828 
L 253.481551 41668.858828 
L 254.09515 41668.858828 
L 254.708749 41668.858828 
L 255.322348 41668.858828 
L 255.935948 41668.858828 
L 256.549547 41668.858828 
L 257.163146 41668.858828 
L 257.776745 41668.858828 
L 258.390344 41668.858828 
L 259.003943 41668.858828 
L 259.617542 41668.858828 
L 260.231141 41668.858828 
L 260.844741 41668.858828 
L 261.45834 41668.858828 
L 262.071939 41668.858828 
L 262.685538 41668.858828 
L 263.299137 41668.858828 
L 263.912736 41668.858828 
L 264.526335 41668.858828 
L 265.139934 41668.858828 
L 265.753534 41668.858828 
L 266.367133 41668.858828 
L 266.980732 41668.858828 
L 267.594331 41668.858828 
L 268.20793 41668.858828 
L 268.821529 41668.858828 
L 269.435128 41668.858828 
L 270.048727 41668.858828 
L 270.662326 41668.858828 
L 271.275926 41668.858828 
L 271.889525 41668.858828 
L 272.503124 41668.858828 
L 273.116723 41668.858828 
L 273.730322 41668.858828 
L 274.343921 41668.858828 
L 274.95752 41668.858828 
L 275.571119 41668.858828 
L 276.184719 41668.858828 
L 276.798318 41668.858828 
L 277.411917 41668.858828 
L 278.025516 41668.858828 
L 278.639115 41668.858828 
L 279.252714 41668.858828 
L 279.866313 41668.858828 
L 280.479912 41668.858828 
L 281.093512 41668.858828 
L 281.707111 41668.858828 
L 282.32071 41668.858828 
L 282.934309 41668.858828 
L 283.547908 41668.858828 
L 284.161507 41668.858828 
L 284.775106 41668.858828 
L 285.388705 41668.858828 
L 286.002305 41668.858828 
L 286.615904 41668.858828 
L 287.229503 41668.858828 
L 287.843102 41668.858828 
L 288.456701 41668.858828 
L 289.0703 41668.858828 
L 289.683899 41668.858828 
L 290.297498 41668.858828 
L 290.911098 41668.858828 
L 291.524697 41668.858828 
L 292.138296 41668.858828 
L 292.751895 41668.858828 
L 293.365494 41668.858828 
L 293.979093 41668.858828 
L 294.592692 41668.858828 
L 295.206291 41668.858828 
L 295.819891 41668.858828 
L 296.43349 41668.858828 
L 297.047089 41668.858828 
L 297.660688 41668.858828 
L 298.274287 41668.858828 
L 298.887886 41668.858828 
L 299.501485 41668.858828 
L 300.115084 41668.858828 
L 300.728683 41668.858828 
L 301.342283 41668.858828 
L 301.955882 41668.858828 
L 302.569481 41668.858828 
L 303.18308 41668.858828 
L 303.796679 41668.858828 
L 304.410278 41668.858828 
L 305.023877 41668.858828 
L 305.637476 41668.858828 
L 306.251076 41668.858828 
L 306.864675 41668.858828 
L 307.478274 41668.858828 
L 308.091873 41668.858828 
L 308.705472 41668.858828 
L 309.319071 41668.858828 
L 309.93267 41668.858828 
L 310.546269 41668.858828 
L 311.159869 41668.858828 
L 311.773468 41668.858828 
L 312.387067 41668.858828 
L 313.000666 41668.858828 
L 313.614265 41668.858828 
L 314.227864 41668.858828 
L 314.841463 41668.858828 
L 315.455062 41668.858828 
L 316.068662 41668.858828 
L 316.682261 41668.858828 
L 317.29586 41668.858828 
L 317.909459 41668.858828 
L 318.523058 41668.858828 
L 319.136657 41668.858828 
L 319.750256 41668.858828 
L 320.363855 41668.858828 
L 320.977455 41668.858828 
L 321.591054 41668.858828 
L 322.204653 41668.858828 
L 322.818252 41668.858828 
L 323.431851 41668.858828 
L 324.04545 41668.858828 
L 324.659049 41668.858828 
L 325.272648 41668.858828 
L 325.886248 41668.858828 
L 326.499847 41668.858828 
L 327.113446 41668.858828 
L 327.727045 41668.858828 
L 328.340644 41668.858828 
L 328.954243 41668.858828 
L 329.567842 41668.858828 
L 330.181441 41668.858828 
L 330.79504 41668.858828 
L 331.40864 41668.858828 
L 332.022239 41668.858828 
L 332.635838 41668.858828 
L 333.249437 41668.858828 
L 333.863036 41668.858828 
L 334.476635 41668.858828 
L 335.090234 41668.858828 
L 335.703833 41668.858828 
L 336.317433 41668.858828 
L 336.931032 41668.858828 
L 337.544631 41668.858828 
L 338.15823 41668.858828 
L 338.771829 41668.858828 
L 339.385428 41668.858828 
L 339.999027 41668.858828 
L 340.612626 41668.858828 
L 341.226226 41668.858828 
L 341.839825 41668.858828 
L 342.453424 41668.858828 
L 343.067023 41668.858828 
L 343.680622 41668.858828 
L 344.294221 41668.858828 
L 344.90782 41668.858828 
L 345.521419 41668.858828 
L 346.135019 41668.858828 
L 346.748618 41668.858828 
L 347.362217 41668.858828 
L 347.975816 41668.858828 
L 348.589415 41668.858828 
L 349.203014 41668.858828 
L 349.816613 41668.858828 
L 350.430212 41668.858828 
L 351.043812 41668.858828 
L 351.657411 41668.858828 
L 352.27101 41668.858828 
L 352.884609 41668.858828 
L 353.498208 41668.858828 
L 354.111807 41668.858828 
L 354.725406 41668.858828 
L 355.339005 41668.858828 
L 355.952604 41668.858828 
L 356.566204 41668.858828 
L 357.179803 41668.858828 
L 357.793402 41668.858828 
L 358.407001 41668.858828 
L 359.0206 41668.858828 
L 359.634199 41668.858828 
L 360.247798 41668.858828 
L 360.861397 41668.858828 
L 361.474997 41668.858828 
L 362.088596 41668.858828 
L 362.702195 41668.858828 
L 363.315794 41668.858828 
L 363.929393 41668.858828 
L 364.542992 41668.858828 
L 365.156591 41668.858828 
L 365.77019 41668.858828 
L 366.38379 41668.858828 
L 366.997389 41668.858828 
L 367.610988 41668.858828 
L 368.224587 41668.858828 
L 368.838186 41668.858828 
L 369.451785 41668.858828 
L 370.065384 41668.858828 
L 370.678983 41668.858828 
L 371.292583 41668.858828 
L 371.906182 41668.858828 
L 372.519781 41668.858828 
L 373.13338 41668.858828 
L 373.746979 41668.858828 
L 374.360578 41668.858828 
L 374.974177 41668.858828 
L 375.587776 41668.858828 
L 376.201376 41668.858828 
L 376.814975 41668.858828 
L 377.428574 41668.858828 
L 378.042173 41668.858828 
L 378.655772 41668.858828 
L 379.269371 41668.858828 
L 379.88297 41668.858828 
L 380.496569 41668.858828 
L 381.110169 41668.858828 
L 381.110169 247.401647 
L 381.110169 247.401647 
L 380.496569 169.224046 
L 379.88297 150.073351 
L 379.269371 186.397608 
L 378.655772 167.1954 
L 378.042173 161.713911 
L 377.428574 161.445618 
L 376.814975 165.373459 
L 376.201376 161.783074 
L 375.587776 163.734691 
L 374.974177 157.257414 
L 374.360578 154.583598 
L 373.746979 162.46743 
L 373.13338 154.10968 
L 372.519781 152.485909 
L 371.906182 150.273625 
L 371.292583 137.024366 
L 370.678983 145.102019 
L 370.065384 136.011533 
L 369.451785 129.40741 
L 368.838186 140.144347 
L 368.224587 133.288047 
L 367.610988 127.792497 
L 366.997389 123.993179 
L 366.38379 126.8265 
L 365.77019 144.126768 
L 365.156591 130.570617 
L 364.542992 121.465742 
L 363.929393 118.863243 
L 363.315794 120.662532 
L 362.702195 123.314843 
L 362.088596 114.29379 
L 361.474997 121.070781 
L 360.861397 121.089377 
L 360.247798 116.52266 
L 359.634199 113.939996 
L 359.0206 113.239183 
L 358.407001 114.415925 
L 357.793402 115.178318 
L 357.179803 117.289322 
L 356.566204 119.42935 
L 355.952604 111.117783 
L 355.339005 115.341444 
L 354.725406 113.17466 
L 354.111807 114.449546 
L 353.498208 114.679938 
L 352.884609 112.135054 
L 352.27101 114.159322 
L 351.657411 108.306307 
L 351.043812 106.776926 
L 350.430212 108.794075 
L 349.816613 117.247672 
L 349.203014 111.82014 
L 348.589415 108.208127 
L 347.975816 106.4367 
L 347.362217 106.251165 
L 346.748618 104.725327 
L 346.135019 105.256022 
L 345.521419 105.309071 
L 344.90782 104.440395 
L 344.294221 102.684409 
L 343.680622 103.255137 
L 343.067023 103.294412 
L 342.453424 107.934696 
L 341.839825 107.355313 
L 341.226226 104.064737 
L 340.612626 105.623963 
L 339.999027 109.818352 
L 339.385428 104.945261 
L 338.771829 100.517862 
L 338.15823 97.597894 
L 337.544631 100.141301 
L 336.931032 103.910547 
L 336.317433 102.571876 
L 335.703833 97.282703 
L 335.090234 101.59381 
L 334.476635 102.607351 
L 333.863036 99.99241 
L 333.249437 103.886929 
L 332.635838 100.599933 
L 332.022239 96.521786 
L 331.40864 96.272085 
L 330.79504 97.862799 
L 330.181441 95.670688 
L 329.567842 96.289336 
L 328.954243 98.05156 
L 328.340644 101.247525 
L 327.727045 99.439877 
L 327.113446 99.666086 
L 326.499847 97.910692 
L 325.886248 98.331184 
L 325.272648 94.658807 
L 324.659049 94.673067 
L 324.04545 100.500037 
L 323.431851 95.496075 
L 322.818252 96.91906 
L 322.204653 94.56317 
L 321.591054 95.483562 
L 320.977455 97.127769 
L 320.363855 99.717185 
L 319.750256 96.352543 
L 319.136657 98.121557 
L 318.523058 93.598936 
L 317.909459 95.250599 
L 317.29586 94.78231 
L 316.682261 95.33014 
L 316.068662 93.689889 
L 315.455062 95.146309 
L 314.841463 94.890906 
L 314.227864 94.209872 
L 313.614265 94.997623 
L 313.000666 94.786797 
L 312.387067 97.408467 
L 311.773468 94.684309 
L 311.159869 95.731221 
L 310.546269 90.781389 
L 309.93267 94.642329 
L 309.319071 92.99073 
L 308.705472 91.555795 
L 308.091873 91.93632 
L 307.478274 90.844757 
L 306.864675 94.235194 
L 306.251076 91.777838 
L 305.637476 93.262514 
L 305.023877 96.462361 
L 304.410278 95.751063 
L 303.796679 96.659452 
L 303.18308 95.566424 
L 302.569481 99.373898 
L 301.955882 92.603335 
L 301.342283 88.577319 
L 300.728683 88.438559 
L 300.115084 89.899796 
L 299.501485 89.447365 
L 298.887886 86.449985 
L 298.274287 87.766613 
L 297.660688 89.571681 
L 297.047089 91.397247 
L 296.43349 90.522146 
L 295.819891 94.661909 
L 295.206291 89.486458 
L 294.592692 92.219464 
L 293.979093 97.056644 
L 293.365494 94.993189 
L 292.751895 96.566415 
L 292.138296 93.805908 
L 291.524697 91.459354 
L 290.911098 87.358425 
L 290.297498 87.738024 
L 289.683899 89.087355 
L 289.0703 86.50646 
L 288.456701 85.546191 
L 287.843102 85.650935 
L 287.229503 84.026355 
L 286.615904 85.408115 
L 286.002305 89.839419 
L 285.388705 96.61709 
L 284.775106 101.480396 
L 284.161507 96.941965 
L 283.547908 93.096418 
L 282.934309 94.615986 
L 282.32071 93.848102 
L 281.707111 89.367468 
L 281.093512 89.428729 
L 280.479912 87.367796 
L 279.866313 86.611171 
L 279.252714 86.161602 
L 278.639115 86.127256 
L 278.025516 84.185052 
L 277.411917 83.348079 
L 276.798318 86.728619 
L 276.184719 84.509088 
L 275.571119 89.484976 
L 274.95752 91.907466 
L 274.343921 98.905355 
L 273.730322 98.704491 
L 273.116723 93.821066 
L 272.503124 92.659326 
L 271.889525 93.178459 
L 271.275926 89.192269 
L 270.662326 86.569343 
L 270.048727 86.828691 
L 269.435128 85.376409 
L 268.821529 83.599875 
L 268.20793 81.879601 
L 267.594331 80.0757 
L 266.980732 78.350213 
L 266.367133 80.333795 
L 265.753534 83.213786 
L 265.139934 86.879638 
L 264.526335 86.980589 
L 263.912736 89.959824 
L 263.299137 93.934985 
L 262.685538 94.984067 
L 262.071939 99.496359 
L 261.45834 96.988718 
L 260.844741 95.864715 
L 260.231141 96.098535 
L 259.617542 90.529912 
L 259.003943 88.995417 
L 258.390344 85.253008 
L 257.776745 82.390879 
L 257.163146 81.870321 
L 256.549547 81.49271 
L 255.935948 80.499176 
L 255.322348 82.112421 
L 254.708749 81.324655 
L 254.09515 83.913613 
L 253.481551 85.921462 
L 252.867952 90.814042 
L 252.254353 90.157175 
L 251.640754 90.734876 
L 251.027155 94.443191 
L 250.413555 99.950816 
L 249.799956 100.068959 
L 249.186357 98.556176 
L 248.572758 96.971502 
L 247.959159 91.74469 
L 247.34556 87.37359 
L 246.731961 85.482007 
L 246.118362 85.416928 
L 245.504762 82.568377 
L 244.891163 81.866887 
L 244.277564 82.341011 
L 243.663965 81.022272 
L 243.050366 80.709389 
L 242.436767 81.383467 
L 241.823168 83.640285 
L 241.209569 80.391912 
L 240.59597 81.711104 
L 239.98237 86.784771 
L 239.368771 89.637879 
L 238.755172 94.282572 
L 238.141573 99.377416 
L 237.527974 99.923224 
L 236.914375 97.339006 
L 236.300776 99.05367 
L 235.687177 96.90339 
L 235.073577 97.269881 
L 234.459978 92.759577 
L 233.846379 92.779636 
L 233.23278 87.621078 
L 232.619181 84.258133 
L 232.005582 83.777506 
L 231.391983 80.433661 
L 230.778384 80.341155 
L 230.164784 77.662644 
L 229.551185 77.622887 
L 228.937586 80.391011 
L 228.323987 81.267535 
L 227.710388 82.922396 
L 227.096789 86.013048 
L 226.48319 88.446012 
L 225.869591 94.170661 
L 225.255991 93.383522 
L 224.642392 98.493662 
L 224.028793 102.856013 
L 223.415194 99.927799 
L 222.801595 98.333597 
L 222.187996 100.521916 
L 221.574397 99.619573 
L 220.960798 94.050795 
L 220.347198 88.506128 
L 219.733599 86.194333 
L 219.12 83.842409 
L 218.506401 81.587675 
L 217.892802 79.735093 
L 217.279203 79.958897 
L 216.665604 81.215776 
L 216.052005 80.596312 
L 215.438405 79.133198 
L 214.824806 82.566714 
L 214.211207 83.509999 
L 213.597608 86.858188 
L 212.984009 92.240688 
L 212.37041 95.200448 
L 211.756811 98.736578 
L 211.143212 103.381895 
L 210.529613 107.454755 
L 209.916013 105.399841 
L 209.302414 102.977436 
L 208.688815 98.901001 
L 208.075216 94.85986 
L 207.461617 92.607527 
L 206.848018 89.179235 
L 206.234419 86.178149 
L 205.62082 86.608338 
L 205.00722 82.837263 
L 204.393621 80.178271 
L 203.780022 78.122107 
L 203.166423 80.678784 
L 202.552824 80.372826 
L 201.939225 77.973363 
L 201.325626 78.697647 
L 200.712027 82.556825 
L 200.098427 84.862242 
L 199.484828 89.245359 
L 198.871229 90.126329 
L 198.25763 98.72505 
L 197.644031 100.872258 
L 197.030432 103.305159 
L 196.416833 104.999383 
L 195.803234 104.114694 
L 195.189634 103.323706 
L 194.576035 99.044685 
L 193.962436 94.476667 
L 193.348837 91.877853 
L 192.735238 86.291118 
L 192.121639 83.848971 
L 191.50804 79.760893 
L 190.894441 80.127256 
L 190.280841 79.579881 
L 189.667242 78.355531 
L 189.053643 76.425701 
L 188.440044 79.789517 
L 187.826445 83.780303 
L 187.212846 85.165733 
L 186.599247 89.279283 
L 185.985648 93.414207 
L 185.372049 99.18792 
L 184.758449 100.011341 
L 184.14485 103.790142 
L 183.531251 110.372229 
L 182.917652 108.33025 
L 182.304053 106.007876 
L 181.690454 101.352348 
L 181.076855 94.070519 
L 180.463256 92.047963 
L 179.849656 87.827122 
L 179.236057 86.024055 
L 178.622458 82.867345 
L 178.008859 78.964038 
L 177.39526 78.689573 
L 176.781661 79.212446 
L 176.168062 78.936812 
L 175.554463 79.707092 
L 174.940863 79.562121 
L 174.327264 82.129953 
L 173.713665 86.778966 
L 173.100066 89.287916 
L 172.486467 92.637093 
L 171.872868 98.839075 
L 171.259269 103.409612 
L 170.64567 107.253617 
L 170.03207 110.965145 
L 169.418471 109.011912 
L 168.804872 107.460885 
L 168.191273 100.553214 
L 167.577674 95.995771 
L 166.964075 92.438969 
L 166.350476 86.814846 
L 165.736877 81.552935 
L 165.123277 78.61548 
L 164.509678 77.021379 
L 163.896079 78.780855 
L 163.28248 77.795614 
L 162.668881 79.92061 
L 162.055282 80.960642 
L 161.441683 85.067313 
L 160.828084 86.273333 
L 160.214484 89.839766 
L 159.600885 93.083271 
L 158.987286 97.467556 
L 158.373687 106.1224 
L 157.760088 110.425716 
L 157.146489 113.087178 
L 156.53289 108.209306 
L 155.919291 105.93748 
L 155.305692 100.409865 
L 154.692092 97.743387 
L 154.078493 94.312267 
L 153.464894 89.468535 
L 152.851295 84.943249 
L 152.237696 79.878526 
L 151.624097 78.877391 
L 151.010498 77.736433 
L 150.396899 77.28299 
L 149.783299 77.497091 
L 149.1697 77.690052 
L 148.556101 78.799793 
L 147.942502 80.149209 
L 147.328903 86.540186 
L 146.715304 94.066881 
L 146.101705 100.582571 
L 145.488106 105.982925 
L 144.874506 112.034692 
L 144.260907 113.9289 
L 143.647308 112.852893 
L 143.033709 110.197949 
L 142.42011 106.791395 
L 141.806511 97.512427 
L 141.192912 87.713652 
L 140.579313 86.677008 
L 139.965713 83.365627 
L 139.352114 78.692587 
L 138.738515 77.181795 
L 138.124916 75.153371 
L 137.511317 75.669648 
L 136.897718 75.089294 
L 136.284119 77.296526 
L 135.67052 81.761252 
L 135.05692 83.88614 
L 134.443321 89.242378 
L 133.829722 94.447575 
L 133.216123 97.866441 
L 132.602524 104.54583 
L 131.988925 109.383642 
L 131.375326 113.167633 
L 130.761727 112.431789 
L 130.148127 104.102994 
L 129.534528 101.678465 
L 128.920929 95.691057 
L 128.30733 87.957373 
L 127.693731 83.157105 
L 127.080132 80.148493 
L 126.466533 76.866322 
L 125.852934 73.352918 
L 125.239335 72.847134 
L 124.625735 74.909363 
L 124.012136 74.347873 
L 123.398537 76.655097 
L 122.784938 80.824428 
L 122.171339 85.16849 
L 121.55774 93.160368 
L 120.944141 101.091786 
L 120.330542 103.764593 
L 119.716942 112.763205 
L 119.103343 112.839114 
L 118.489744 107.519288 
L 117.876145 102.745854 
L 117.262546 96.01863 
L 116.648947 88.120757 
L 116.035348 83.630769 
L 115.421749 78.710093 
L 114.808149 75.121031 
L 114.19455 73.868158 
L 113.580951 73.221109 
L 112.967352 74.008638 
L 112.353753 76.922366 
L 111.740154 80.844604 
L 111.126555 85.435027 
L 110.512956 92.193623 
L 109.899356 104.397339 
L 109.285757 104.914907 
L 108.672158 106.07663 
L 108.058559 97.162406 
L 107.44496 90.351838 
L 106.831361 84.185501 
L 106.217762 80.31059 
L 105.604163 75.039963 
L 104.990563 72.281269 
L 104.376964 71.531628 
L 103.763365 71.700188 
L 103.149766 73.010458 
L 102.536167 77.145193 
L 101.922568 84.014267 
L 101.308969 91.081816 
L 100.69537 99.146563 
L 100.081771 95.674082 
L 99.468171 88.582231 
L 98.854572 79.676961 
L 98.240973 74.435788 
L 97.627374 70.198546 
L 97.013775 67.714179 
L 96.400176 69.354654 
L 95.786577 72.116191 
L 95.172978 75.462618 
L 94.559378 83.169797 
L 93.945779 85.166208 
L 93.33218 92.636613 
L 92.718581 101.757597 
L 92.104982 90.652693 
L 91.491383 82.249625 
L 90.877784 72.88634 
L 90.264185 65.339232 
L 89.650585 62.660914 
L 89.036986 62.19158 
L 88.423387 65.883136 
L 87.809788 71.482023 
L 87.196189 82.209973 
L 86.58259 92.503203 
L 85.968991 99.537213 
L 85.355392 93.177386 
L 84.741792 75.561805 
L 84.128193 63.217028 
L 83.514594 58.319496 
L 82.900995 59.445918 
L 82.287396 68.080115 
L 81.673797 79.008501 
L 81.060198 95.167694 
L 80.446599 100.308556 
L 79.832999 83.087233 
L 79.2194 72.873375 
L 78.605801 70.661624 
L 77.992202 75.344808 
L 77.378603 85.801467 
L 76.765004 108.22168 
L 76.151405 124.159223 
L 75.537806 156.329017 
L 74.924206 242.240207 
z
" clip-path="url(#p703258f07c)" style="fill: #4c72b0; fill-opacity: 0.25; stroke: #4c72b0; stroke-width: 0.3"/>
   </g>
   <g id="patch_3">
    <path d="M 60.617188 172.018828 
L 60.617188 5.698828 
" style="fill: none"/>
   </g>
   <g id="patch_4">
    <path d="M 395.417188 172.018828 
L 395.417188 5.698828 
" style="fill: none"/>
   </g>
   <g id="patch_5">
    <path d="M 60.617188 172.018828 
L 395.417188 172.018828 
" style="fill: none"/>
   </g>
   <g id="patch_6">
    <path d="M 60.617188 5.698828 
L 395.417188 5.698828 
" style="fill: none"/>
   </g>
   <g id="text_14">
    <!-- 0 -->
    <g transform="translate(78.650781 64.985241) scale(0.1 -0.1)">
     <use xlink:href="#DejaVuSerif-30"/>
    </g>
   </g>
   <g id="text_15">
    <!-- 1 -->
    <g transform="translate(83.299909 55.196374) scale(0.1 -0.1)">
     <use xlink:href="#DejaVuSerif-31"/>
    </g>
   </g>
   <g id="text_16">
    <!-- 2 -->
    <g transform="translate(89.324195 58.476966) scale(0.1 -0.1)">
     <use xlink:href="#DejaVuSerif-32"/>
    </g>
   </g>
   <g id="text_17">
    <!-- 3 -->
    <g transform="translate(96.679409 63.47039) scale(0.1 -0.1)">
     <defs>
      <path id="DejaVuSerif-33" d="M 622 4469 
Q 988 4606 1323 4678 
Q 1659 4750 1953 4750 
Q 2638 4750 3022 4454 
Q 3406 4159 3406 3634 
Q 3406 3213 3140 2930 
Q 2875 2647 2388 2547 
Q 2963 2466 3280 2130 
Q 3597 1794 3597 1259 
Q 3597 606 3158 257 
Q 2719 -91 1894 -91 
Q 1528 -91 1179 -12 
Q 831 66 488 225 
L 488 1131 
L 838 1131 
Q 869 681 1141 450 
Q 1413 219 1906 219 
Q 2384 219 2661 495 
Q 2938 772 2938 1253 
Q 2938 1803 2653 2086 
Q 2369 2369 1819 2369 
L 1522 2369 
L 1522 2688 
L 1678 2688 
Q 2225 2688 2498 2914 
Q 2772 3141 2772 3597 
Q 2772 4006 2547 4223 
Q 2322 4441 1900 4441 
Q 1478 4441 1245 4241 
Q 1013 4041 972 3647 
L 622 3647 
L 622 4469 
z
" transform="scale(0.015625)"/>
     </defs>
     <use xlink:href="#DejaVuSerif-33"/>
    </g>
   </g>
   <g id="text_18">
    <!-- 4 -->
    <g transform="translate(104.390335 65.223197) scale(0.1 -0.1)">
     <use xlink:href="#DejaVuSerif-34"/>
    </g>
   </g>
   <g id="text_19">
    <!-- 5 -->
    <g transform="translate(113.784407 66.921867) scale(0.1 -0.1)">
     <defs>
      <path id="DejaVuSerif-35" d="M 3219 4666 
L 3219 4153 
L 1081 4153 
L 1081 2816 
Q 1244 2928 1461 2984 
Q 1678 3041 1947 3041 
Q 2703 3041 3140 2622 
Q 3578 2203 3578 1478 
Q 3578 738 3136 323 
Q 2694 -91 1894 -91 
Q 1572 -91 1234 -12 
Q 897 66 544 225 
L 544 1131 
L 897 1131 
Q 925 688 1179 453 
Q 1434 219 1894 219 
Q 2388 219 2653 544 
Q 2919 869 2919 1478 
Q 2919 2084 2655 2407 
Q 2391 2731 1894 2731 
Q 1613 2731 1398 2631 
Q 1184 2531 1019 2322 
L 750 2322 
L 750 4666 
L 3219 4666 
z
" transform="scale(0.015625)"/>
     </defs>
     <use xlink:href="#DejaVuSerif-35"/>
    </g>
   </g>
   <g id="text_20">
    <!-- 6 -->
    <g transform="translate(125.112402 67.028667) scale(0.1 -0.1)">
     <use xlink:href="#DejaVuSerif-36"/>
    </g>
   </g>
   <g id="text_21">
    <!-- 7 -->
    <g transform="translate(137.604955 68.364178) scale(0.1 -0.1)">
     <defs>
      <path id="DejaVuSerif-37" d="M 3609 4347 
L 1784 0 
L 1319 0 
L 3059 4153 
L 903 4153 
L 903 3578 
L 538 3578 
L 538 4666 
L 3609 4666 
L 3609 4347 
z
" transform="scale(0.015625)"/>
     </defs>
     <use xlink:href="#DejaVuSerif-37"/>
    </g>
   </g>
   <g id="text_22">
    <!-- 8 -->
    <g transform="translate(150.399812 69.167813) scale(0.1 -0.1)">
     <use xlink:href="#DejaVuSerif-38"/>
    </g>
   </g>
   <g id="text_23">
    <!-- 9 -->
    <g transform="translate(163.506822 70.050284) scale(0.1 -0.1)">
     <defs>
      <path id="DejaVuSerif-39" d="M 2994 2091 
Q 2784 1856 2512 1740 
Q 2241 1625 1900 1625 
Q 1206 1625 804 2044 
Q 403 2463 403 3188 
Q 403 3897 839 4323 
Q 1275 4750 2003 4750 
Q 2794 4750 3217 4161 
Q 3641 3572 3641 2478 
Q 3641 1253 3137 581 
Q 2634 -91 1722 -91 
Q 1475 -91 1203 -44 
Q 931 3 647 97 
L 647 872 
L 997 872 
Q 1038 556 1241 387 
Q 1444 219 1784 219 
Q 2391 219 2687 676 
Q 2984 1134 2994 2091 
z
M 1978 4441 
Q 1534 4441 1298 4117 
Q 1063 3794 1063 3188 
Q 1063 2581 1298 2256 
Q 1534 1931 1978 1931 
Q 2422 1931 2658 2245 
Q 2894 2559 2894 3150 
Q 2894 3772 2656 4106 
Q 2419 4441 1978 4441 
z
" transform="scale(0.015625)"/>
     </defs>
     <use xlink:href="#DejaVuSerif-39"/>
    </g>
   </g>
   <g id="text_24">
    <!-- 10 -->
    <g transform="translate(176.600701 70.220911) scale(0.1 -0.1)">
     <use xlink:href="#DejaVuSerif-31"/>
     <use xlink:href="#DejaVuSerif-30" x="63.623047"/>
    </g>
   </g>
   <g id="text_25">
    <!-- 11 -->
    <g transform="translate(189.804572 70.285896) scale(0.1 -0.1)">
     <use xlink:href="#DejaVuSerif-31"/>
     <use xlink:href="#DejaVuSerif-31" x="63.623047"/>
    </g>
   </g>
   <g id="text_26">
    <!-- 12 -->
    <g transform="translate(203.043899 70.529329) scale(0.1 -0.1)">
     <use xlink:href="#DejaVuSerif-31"/>
     <use xlink:href="#DejaVuSerif-32" x="63.623047"/>
    </g>
   </g>
   <g id="text_27">
    <!-- 13 -->
    <g transform="translate(216.781064 71.010856) scale(0.1 -0.1)">
     <use xlink:href="#DejaVuSerif-31"/>
     <use xlink:href="#DejaVuSerif-33" x="63.623047"/>
    </g>
   </g>
   <g id="text_28">
    <!-- 14 -->
    <g transform="translate(229.952482 70.877738) scale(0.1 -0.1)">
     <use xlink:href="#DejaVuSerif-31"/>
     <use xlink:href="#DejaVuSerif-34" x="63.623047"/>
    </g>
   </g>
   <g id="text_29">
    <!-- 15 -->
    <g transform="translate(243.31719 71.342198) scale(0.1 -0.1)">
     <use xlink:href="#DejaVuSerif-31"/>
     <use xlink:href="#DejaVuSerif-35" x="63.623047"/>
    </g>
   </g>
   <g id="text_30">
    <!-- 16 -->
    <g transform="translate(255.898978 72.021861) scale(0.1 -0.1)">
     <use xlink:href="#DejaVuSerif-31"/>
     <use xlink:href="#DejaVuSerif-36" x="63.623047"/>
    </g>
   </g>
   <g id="text_31">
    <!-- 17 -->
    <g transform="translate(267.56429 71.735274) scale(0.1 -0.1)">
     <use xlink:href="#DejaVuSerif-31"/>
     <use xlink:href="#DejaVuSerif-37" x="63.623047"/>
    </g>
   </g>
   <g id="text_32">
    <!-- 18 -->
    <g transform="translate(278.422137 73.875097) scale(0.1 -0.1)">
     <use xlink:href="#DejaVuSerif-31"/>
     <use xlink:href="#DejaVuSerif-38" x="63.623047"/>
    </g>
   </g>
   <g id="text_33">
    <!-- 19 -->
    <g transform="translate(288.646516 74.706182) scale(0.1 -0.1)">
     <use xlink:href="#DejaVuSerif-31"/>
     <use xlink:href="#DejaVuSerif-39" x="63.623047"/>
    </g>
   </g>
   <g id="text_34">
    <!-- 20 -->
    <g transform="translate(298.614876 75.896297) scale(0.1 -0.1)">
     <use xlink:href="#DejaVuSerif-32"/>
     <use xlink:href="#DejaVuSerif-30" x="63.623047"/>
    </g>
   </g>
   <g id="text_35">
    <!-- 21 -->
    <g transform="translate(308.616587 78.035525) scale(0.1 -0.1)">
     <use xlink:href="#DejaVuSerif-32"/>
     <use xlink:href="#DejaVuSerif-31" x="63.623047"/>
    </g>
   </g>
   <g id="text_36">
    <!-- 22 -->
    <g transform="translate(318.688699 79.2852) scale(0.1 -0.1)">
     <use xlink:href="#DejaVuSerif-32"/>
     <use xlink:href="#DejaVuSerif-32" x="63.623047"/>
    </g>
   </g>
   <g id="text_37">
    <!-- 23 -->
    <g transform="translate(329.905473 80.331346) scale(0.1 -0.1)">
     <use xlink:href="#DejaVuSerif-32"/>
     <use xlink:href="#DejaVuSerif-33" x="63.623047"/>
    </g>
   </g>
   <g id="text_38">
    <!-- 24 -->
    <g transform="translate(342.395248 82.753869) scale(0.1 -0.1)">
     <use xlink:href="#DejaVuSerif-32"/>
     <use xlink:href="#DejaVuSerif-34" x="63.623047"/>
    </g>
   </g>
   <g id="text_39">
    <!-- 25+ -->
    <g transform="translate(357.560244 84.517171) scale(0.1 -0.1)">
     <defs>
      <path id="DejaVuSerif-2b" d="M 2931 4013 
L 2931 2259 
L 4684 2259 
L 4684 1753 
L 2931 1753 
L 2931 0 
L 2431 0 
L 2431 1753 
L 678 1753 
L 678 2259 
L 2431 2259 
L 2431 4013 
L 2931 4013 
z
" transform="scale(0.015625)"/>
     </defs>
     <use xlink:href="#DejaVuSerif-32"/>
     <use xlink:href="#DejaVuSerif-35" x="63.623047"/>
     <use xlink:href="#DejaVuSerif-2b" x="127.246094"/>
    </g>
   </g>
   <g id="text_40">
    <!-- PCA 1D -->
    <g style="fill: #262626" transform="translate(304.719943 23.537308) scale(0.15 -0.15)">
     <defs>
      <path id="DejaVuSerif-50" d="M 1581 2375 
L 2406 2375 
Q 2872 2375 3115 2626 
Q 3359 2878 3359 3353 
Q 3359 3831 3115 4081 
Q 2872 4331 2406 4331 
L 1581 4331 
L 1581 2375 
z
M 353 0 
L 353 331 
L 947 331 
L 947 4331 
L 353 4331 
L 353 4666 
L 2559 4666 
Q 3259 4666 3668 4311 
Q 4078 3956 4078 3353 
Q 4078 2753 3668 2397 
Q 3259 2041 2559 2041 
L 1581 2041 
L 1581 331 
L 2303 331 
L 2303 0 
L 353 0 
z
" transform="scale(0.015625)"/>
      <path id="DejaVuSerif-43" d="M 4513 1234 
Q 4306 581 3820 245 
Q 3334 -91 2591 -91 
Q 2134 -91 1743 65 
Q 1353 222 1050 525 
Q 700 875 529 1320 
Q 359 1766 359 2328 
Q 359 3416 987 4083 
Q 1616 4750 2644 4750 
Q 3025 4750 3456 4650 
Q 3888 4550 4384 4347 
L 4384 3272 
L 4031 3272 
Q 3916 3859 3567 4137 
Q 3219 4416 2591 4416 
Q 1844 4416 1459 3886 
Q 1075 3356 1075 2328 
Q 1075 1303 1459 773 
Q 1844 244 2591 244 
Q 3113 244 3450 492 
Q 3788 741 3938 1234 
L 4513 1234 
z
" transform="scale(0.015625)"/>
      <path id="DejaVuSerif-41" d="M 1281 1691 
L 2994 1691 
L 2138 3909 
L 1281 1691 
z
M -38 0 
L -38 331 
L 372 331 
L 2034 4666 
L 2559 4666 
L 4225 331 
L 4684 331 
L 4684 0 
L 2988 0 
L 2988 331 
L 3506 331 
L 3116 1356 
L 1153 1356 
L 763 331 
L 1275 331 
L 1275 0 
L -38 0 
z
" transform="scale(0.015625)"/>
      <path id="DejaVuSerif-20" transform="scale(0.015625)"/>
     </defs>
     <use xlink:href="#DejaVuSerif-50"/>
     <use xlink:href="#DejaVuSerif-43" x="67.285156"/>
     <use xlink:href="#DejaVuSerif-41" x="143.798828"/>
     <use xlink:href="#DejaVuSerif-20" x="216.015625"/>
     <use xlink:href="#DejaVuSerif-31" x="247.802734"/>
     <use xlink:href="#DejaVuSerif-44" x="311.425781"/>
    </g>
   </g>
  </g>
 </g>
 <defs>
  <clipPath id="p703258f07c">
   <rect x="60.617188" y="5.698828" width="334.8" height="166.32"/>
  </clipPath>
 </defs>
</svg>
