<?xml version="1.0" encoding="utf-8" standalone="no"?>
<!DOCTYPE svg PUBLIC "-//W3C//DTD SVG 1.1//EN"
  "http://www.w3.org/Graphics/SVG/1.1/DTD/svg11.dtd">
<svg xmlns:xlink="http://www.w3.org/1999/xlink" width="395.417187pt" height="212.053203pt" viewBox="0 0 395.417187 212.053203" xmlns="http://www.w3.org/2000/svg" version="1.1">
 <metadata>
  <rdf:RDF xmlns:dc="http://purl.org/dc/elements/1.1/" xmlns:cc="http://creativecommons.org/ns#" xmlns:rdf="http://www.w3.org/1999/02/22-rdf-syntax-ns#">
   <cc:Work>
    <dc:type rdf:resource="http://purl.org/dc/dcmitype/StillImage"/>
    <dc:date>2024-11-11T11:56:24.673019</dc:date>
    <dc:format>image/svg+xml</dc:format>
    <dc:creator>
     <cc:Agent>
      <dc:title>Matplotlib v3.9.2, https://matplotlib.org/</dc:title>
     </cc:Agent>
    </dc:creator>
   </cc:Work>
  </rdf:RDF>
 </metadata>
 <defs>
  <style type="text/css">*{stroke-linejoin: round; stroke-linecap: butt}</style>
 </defs>
 <g id="figure_1">
  <g id="patch_1">
   <path d="M 0 212.053203 
L 395.417187 212.053203 
L 395.417187 0 
L 0 0 
z
" style="fill: #ffffff"/>
  </g>
  <g id="axes_1">
   <g id="patch_2">
    <path d="M 60.617188 172.018828 
L 395.417188 172.018828 
L 395.417188 5.698828 
L 60.617188 5.698828 
z
" style="fill: #eaeaf2"/>
   </g>
   <g id="matplotlib.axis_1">
    <g id="xtick_1">
     <g id="line2d_1">
      <path d="M 75.835369 172.018828 
L 75.835369 5.698828 
" clip-path="url(#pfa091c0014)" style="fill: none; stroke: #ffffff; stroke-linecap: round"/>
     </g>
     <g id="line2d_2"/>
     <g id="text_1">
      <!-- 0.0 -->
      <g style="fill: #262626" transform="translate(63.908026 190.416484) scale(0.15 -0.15)">
       <defs>
        <path id="DejaVuSerif-30" d="M 2034 219 
Q 2513 219 2750 744 
Q 2988 1269 2988 2328 
Q 2988 3391 2750 3916 
Q 2513 4441 2034 4441 
Q 1556 4441 1318 3916 
Q 1081 3391 1081 2328 
Q 1081 1269 1318 744 
Q 1556 219 2034 219 
z
M 2034 -91 
Q 1275 -91 848 546 
Q 422 1184 422 2328 
Q 422 3475 848 4112 
Q 1275 4750 2034 4750 
Q 2797 4750 3222 4112 
Q 3647 3475 3647 2328 
Q 3647 1184 3222 546 
Q 2797 -91 2034 -91 
z
" transform="scale(0.015625)"/>
        <path id="DejaVuSerif-2e" d="M 603 325 
Q 603 500 722 622 
Q 841 744 1019 744 
Q 1191 744 1312 622 
Q 1434 500 1434 325 
Q 1434 153 1312 31 
Q 1191 -91 1019 -91 
Q 841 -91 722 29 
Q 603 150 603 325 
z
" transform="scale(0.015625)"/>
       </defs>
       <use xlink:href="#DejaVuSerif-30"/>
       <use xlink:href="#DejaVuSerif-2e" x="63.623047"/>
       <use xlink:href="#DejaVuSerif-30" x="95.410156"/>
      </g>
     </g>
    </g>
    <g id="xtick_2">
     <g id="line2d_3">
      <path d="M 136.708097 172.018828 
L 136.708097 5.698828 
" clip-path="url(#pfa091c0014)" style="fill: none; stroke: #ffffff; stroke-linecap: round"/>
     </g>
     <g id="line2d_4"/>
     <g id="text_2">
      <!-- 0.2 -->
      <g style="fill: #262626" transform="translate(124.780753 190.416484) scale(0.15 -0.15)">
       <defs>
        <path id="DejaVuSerif-32" d="M 819 3553 
L 469 3553 
L 469 4384 
Q 803 4563 1142 4656 
Q 1481 4750 1806 4750 
Q 2534 4750 2956 4397 
Q 3378 4044 3378 3438 
Q 3378 2753 2422 1800 
Q 2347 1728 2309 1691 
L 1131 513 
L 3078 513 
L 3078 1088 
L 3444 1088 
L 3444 0 
L 434 0 
L 434 341 
L 1850 1753 
Q 2319 2222 2519 2614 
Q 2719 3006 2719 3438 
Q 2719 3909 2473 4175 
Q 2228 4441 1797 4441 
Q 1350 4441 1106 4219 
Q 863 3997 819 3553 
z
" transform="scale(0.015625)"/>
       </defs>
       <use xlink:href="#DejaVuSerif-30"/>
       <use xlink:href="#DejaVuSerif-2e" x="63.623047"/>
       <use xlink:href="#DejaVuSerif-32" x="95.410156"/>
      </g>
     </g>
    </g>
    <g id="xtick_3">
     <g id="line2d_5">
      <path d="M 197.580824 172.018828 
L 197.580824 5.698828 
" clip-path="url(#pfa091c0014)" style="fill: none; stroke: #ffffff; stroke-linecap: round"/>
     </g>
     <g id="line2d_6"/>
     <g id="text_3">
      <!-- 0.4 -->
      <g style="fill: #262626" transform="translate(185.65348 190.416484) scale(0.15 -0.15)">
       <defs>
        <path id="DejaVuSerif-34" d="M 2234 1581 
L 2234 4063 
L 641 1581 
L 2234 1581 
z
M 3609 0 
L 1484 0 
L 1484 331 
L 2234 331 
L 2234 1247 
L 197 1247 
L 197 1588 
L 2241 4750 
L 2859 4750 
L 2859 1581 
L 3750 1581 
L 3750 1247 
L 2859 1247 
L 2859 331 
L 3609 331 
L 3609 0 
z
" transform="scale(0.015625)"/>
       </defs>
       <use xlink:href="#DejaVuSerif-30"/>
       <use xlink:href="#DejaVuSerif-2e" x="63.623047"/>
       <use xlink:href="#DejaVuSerif-34" x="95.410156"/>
      </g>
     </g>
    </g>
    <g id="xtick_4">
     <g id="line2d_7">
      <path d="M 258.453551 172.018828 
L 258.453551 5.698828 
" clip-path="url(#pfa091c0014)" style="fill: none; stroke: #ffffff; stroke-linecap: round"/>
     </g>
     <g id="line2d_8"/>
     <g id="text_4">
      <!-- 0.6 -->
      <g style="fill: #262626" transform="translate(246.526207 190.416484) scale(0.15 -0.15)">
       <defs>
        <path id="DejaVuSerif-36" d="M 2094 219 
Q 2534 219 2771 542 
Q 3009 866 3009 1472 
Q 3009 2078 2771 2401 
Q 2534 2725 2094 2725 
Q 1647 2725 1412 2412 
Q 1178 2100 1178 1509 
Q 1178 888 1415 553 
Q 1653 219 2094 219 
z
M 1075 2569 
Q 1288 2803 1556 2918 
Q 1825 3034 2163 3034 
Q 2859 3034 3264 2615 
Q 3669 2197 3669 1472 
Q 3669 763 3233 336 
Q 2797 -91 2069 -91 
Q 1278 -91 853 498 
Q 428 1088 428 2181 
Q 428 3406 931 4078 
Q 1434 4750 2350 4750 
Q 2597 4750 2869 4703 
Q 3141 4656 3425 4563 
L 3425 3794 
L 3072 3794 
Q 3034 4109 2831 4275 
Q 2628 4441 2284 4441 
Q 1678 4441 1381 3981 
Q 1084 3522 1075 2569 
z
" transform="scale(0.015625)"/>
       </defs>
       <use xlink:href="#DejaVuSerif-30"/>
       <use xlink:href="#DejaVuSerif-2e" x="63.623047"/>
       <use xlink:href="#DejaVuSerif-36" x="95.410156"/>
      </g>
     </g>
    </g>
    <g id="xtick_5">
     <g id="line2d_9">
      <path d="M 319.326278 172.018828 
L 319.326278 5.698828 
" clip-path="url(#pfa091c0014)" style="fill: none; stroke: #ffffff; stroke-linecap: round"/>
     </g>
     <g id="line2d_10"/>
     <g id="text_5">
      <!-- 0.8 -->
      <g style="fill: #262626" transform="translate(307.398935 190.416484) scale(0.15 -0.15)">
       <defs>
        <path id="DejaVuSerif-38" d="M 2981 1275 
Q 2981 1775 2732 2051 
Q 2484 2328 2034 2328 
Q 1584 2328 1336 2051 
Q 1088 1775 1088 1275 
Q 1088 772 1336 495 
Q 1584 219 2034 219 
Q 2484 219 2732 495 
Q 2981 772 2981 1275 
z
M 2853 3541 
Q 2853 3966 2637 4203 
Q 2422 4441 2034 4441 
Q 1650 4441 1433 4203 
Q 1216 3966 1216 3541 
Q 1216 3113 1433 2875 
Q 1650 2638 2034 2638 
Q 2422 2638 2637 2875 
Q 2853 3113 2853 3541 
z
M 2516 2484 
Q 3047 2413 3344 2092 
Q 3641 1772 3641 1275 
Q 3641 619 3225 264 
Q 2809 -91 2034 -91 
Q 1263 -91 845 264 
Q 428 619 428 1275 
Q 428 1772 725 2092 
Q 1022 2413 1556 2484 
Q 1084 2569 832 2842 
Q 581 3116 581 3541 
Q 581 4103 968 4426 
Q 1356 4750 2034 4750 
Q 2713 4750 3100 4426 
Q 3488 4103 3488 3541 
Q 3488 3116 3236 2842 
Q 2984 2569 2516 2484 
z
" transform="scale(0.015625)"/>
       </defs>
       <use xlink:href="#DejaVuSerif-30"/>
       <use xlink:href="#DejaVuSerif-2e" x="63.623047"/>
       <use xlink:href="#DejaVuSerif-38" x="95.410156"/>
      </g>
     </g>
    </g>
    <g id="xtick_6">
     <g id="line2d_11">
      <path d="M 380.199006 172.018828 
L 380.199006 5.698828 
" clip-path="url(#pfa091c0014)" style="fill: none; stroke: #ffffff; stroke-linecap: round"/>
     </g>
     <g id="line2d_12"/>
     <g id="text_6">
      <!-- 1.0 -->
      <g style="fill: #262626" transform="translate(368.271662 190.416484) scale(0.15 -0.15)">
       <defs>
        <path id="DejaVuSerif-31" d="M 909 0 
L 909 331 
L 1722 331 
L 1722 4213 
L 781 3603 
L 781 4013 
L 1919 4750 
L 2350 4750 
L 2350 331 
L 3163 331 
L 3163 0 
L 909 0 
z
" transform="scale(0.015625)"/>
       </defs>
       <use xlink:href="#DejaVuSerif-31"/>
       <use xlink:href="#DejaVuSerif-2e" x="63.623047"/>
       <use xlink:href="#DejaVuSerif-30" x="95.410156"/>
      </g>
     </g>
    </g>
    <g id="text_7">
     <!-- $s_1$ -->
     <g style="fill: #262626" transform="translate(220.517188 208.933672) scale(0.15 -0.15)">
      <defs>
       <path id="DejaVuSans-Oblique-73" d="M 3200 3397 
L 3091 2853 
Q 2863 2978 2609 3040 
Q 2356 3103 2088 3103 
Q 1634 3103 1373 2948 
Q 1113 2794 1113 2528 
Q 1113 2219 1719 2053 
Q 1766 2041 1788 2034 
L 1972 1978 
Q 2547 1819 2739 1644 
Q 2931 1469 2931 1166 
Q 2931 609 2489 259 
Q 2047 -91 1331 -91 
Q 1053 -91 747 -37 
Q 441 16 72 128 
L 184 722 
Q 500 559 806 475 
Q 1113 391 1394 391 
Q 1816 391 2080 572 
Q 2344 753 2344 1031 
Q 2344 1331 1650 1516 
L 1591 1531 
L 1394 1581 
Q 956 1697 753 1886 
Q 550 2075 550 2369 
Q 550 2928 970 3256 
Q 1391 3584 2113 3584 
Q 2397 3584 2667 3537 
Q 2938 3491 3200 3397 
z
" transform="scale(0.015625)"/>
       <path id="DejaVuSans-31" d="M 794 531 
L 1825 531 
L 1825 4091 
L 703 3866 
L 703 4441 
L 1819 4666 
L 2450 4666 
L 2450 531 
L 3481 531 
L 3481 0 
L 794 0 
L 794 531 
z
" transform="scale(0.015625)"/>
      </defs>
      <use xlink:href="#DejaVuSans-Oblique-73"/>
      <use xlink:href="#DejaVuSans-31" transform="translate(52.099609 -16.40625) scale(0.7)"/>
     </g>
    </g>
   </g>
   <g id="matplotlib.axis_2">
    <g id="ytick_1">
     <g id="line2d_13">
      <path d="M 60.617188 172.018828 
L 395.417188 172.018828 
" clip-path="url(#pfa091c0014)" style="fill: none; stroke: #ffffff; stroke-linecap: round"/>
     </g>
     <g id="line2d_14"/>
     <g id="text_8">
      <!-- $\mathdefault{10^{-2}}$ -->
      <g style="fill: #262626" transform="translate(18.517187 177.717656) scale(0.15 -0.15)">
       <defs>
        <path id="DejaVuSerif-2212" d="M 678 2259 
L 4684 2259 
L 4684 1753 
L 678 1753 
L 678 2259 
z
" transform="scale(0.015625)"/>
       </defs>
       <use xlink:href="#DejaVuSerif-31" transform="translate(0 0.7125)"/>
       <use xlink:href="#DejaVuSerif-30" transform="translate(63.623047 0.7125)"/>
       <use xlink:href="#DejaVuSerif-2212" transform="translate(128.154453 37.046875) scale(0.7)"/>
       <use xlink:href="#DejaVuSerif-32" transform="translate(186.806797 37.046875) scale(0.7)"/>
      </g>
     </g>
    </g>
    <g id="ytick_2">
     <g id="line2d_15">
      <path d="M 60.617188 130.438828 
L 395.417188 130.438828 
" clip-path="url(#pfa091c0014)" style="fill: none; stroke: #ffffff; stroke-linecap: round"/>
     </g>
     <g id="line2d_16"/>
     <g id="text_9">
      <!-- $\mathdefault{10^{-1}}$ -->
      <g style="fill: #262626" transform="translate(18.517187 136.137656) scale(0.15 -0.15)">
       <use xlink:href="#DejaVuSerif-31" transform="translate(0 0.7125)"/>
       <use xlink:href="#DejaVuSerif-30" transform="translate(63.623047 0.7125)"/>
       <use xlink:href="#DejaVuSerif-2212" transform="translate(128.154453 37.046875) scale(0.7)"/>
       <use xlink:href="#DejaVuSerif-31" transform="translate(186.806797 37.046875) scale(0.7)"/>
      </g>
     </g>
    </g>
    <g id="ytick_3">
     <g id="line2d_17">
      <path d="M 60.617188 88.858828 
L 395.417188 88.858828 
" clip-path="url(#pfa091c0014)" style="fill: none; stroke: #ffffff; stroke-linecap: round"/>
     </g>
     <g id="line2d_18"/>
     <g id="text_10">
      <!-- $\mathdefault{10^{0}}$ -->
      <g style="fill: #262626" transform="translate(27.217188 94.557656) scale(0.15 -0.15)">
       <use xlink:href="#DejaVuSerif-31" transform="translate(0 0.7125)"/>
       <use xlink:href="#DejaVuSerif-30" transform="translate(63.623047 0.7125)"/>
       <use xlink:href="#DejaVuSerif-30" transform="translate(128.154453 37.046875) scale(0.7)"/>
      </g>
     </g>
    </g>
    <g id="ytick_4">
     <g id="line2d_19">
      <path d="M 60.617188 47.278828 
L 395.417188 47.278828 
" clip-path="url(#pfa091c0014)" style="fill: none; stroke: #ffffff; stroke-linecap: round"/>
     </g>
     <g id="line2d_20"/>
     <g id="text_11">
      <!-- $\mathdefault{10^{1}}$ -->
      <g style="fill: #262626" transform="translate(27.217188 52.977656) scale(0.15 -0.15)">
       <use xlink:href="#DejaVuSerif-31" transform="translate(0 0.7125)"/>
       <use xlink:href="#DejaVuSerif-30" transform="translate(63.623047 0.7125)"/>
       <use xlink:href="#DejaVuSerif-31" transform="translate(128.154453 37.046875) scale(0.7)"/>
      </g>
     </g>
    </g>
    <g id="ytick_5">
     <g id="line2d_21">
      <path d="M 60.617188 5.698828 
L 395.417188 5.698828 
" clip-path="url(#pfa091c0014)" style="fill: none; stroke: #ffffff; stroke-linecap: round"/>
     </g>
     <g id="line2d_22"/>
     <g id="text_12">
      <!-- $\mathdefault{10^{2}}$ -->
      <g style="fill: #262626" transform="translate(27.217188 11.397656) scale(0.15 -0.15)">
       <use xlink:href="#DejaVuSerif-31" transform="translate(0 0.7125)"/>
       <use xlink:href="#DejaVuSerif-30" transform="translate(63.623047 0.7125)"/>
       <use xlink:href="#DejaVuSerif-32" transform="translate(128.154453 37.046875) scale(0.7)"/>
      </g>
     </g>
    </g>
    <g id="ytick_6">
     <g id="line2d_23"/>
    </g>
    <g id="ytick_7">
     <g id="line2d_24"/>
    </g>
    <g id="ytick_8">
     <g id="line2d_25"/>
    </g>
    <g id="ytick_9">
     <g id="line2d_26"/>
    </g>
    <g id="ytick_10">
     <g id="line2d_27"/>
    </g>
    <g id="ytick_11">
     <g id="line2d_28"/>
    </g>
    <g id="ytick_12">
     <g id="line2d_29"/>
    </g>
    <g id="ytick_13">
     <g id="line2d_30"/>
    </g>
    <g id="ytick_14">
     <g id="line2d_31"/>
    </g>
    <g id="ytick_15">
     <g id="line2d_32"/>
    </g>
    <g id="ytick_16">
     <g id="line2d_33"/>
    </g>
    <g id="ytick_17">
     <g id="line2d_34"/>
    </g>
    <g id="ytick_18">
     <g id="line2d_35"/>
    </g>
    <g id="ytick_19">
     <g id="line2d_36"/>
    </g>
    <g id="ytick_20">
     <g id="line2d_37"/>
    </g>
    <g id="ytick_21">
     <g id="line2d_38"/>
    </g>
    <g id="ytick_22">
     <g id="line2d_39"/>
    </g>
    <g id="ytick_23">
     <g id="line2d_40"/>
    </g>
    <g id="ytick_24">
     <g id="line2d_41"/>
    </g>
    <g id="ytick_25">
     <g id="line2d_42"/>
    </g>
    <g id="ytick_26">
     <g id="line2d_43"/>
    </g>
    <g id="ytick_27">
     <g id="line2d_44"/>
    </g>
    <g id="ytick_28">
     <g id="line2d_45"/>
    </g>
    <g id="ytick_29">
     <g id="line2d_46"/>
    </g>
    <g id="ytick_30">
     <g id="line2d_47"/>
    </g>
    <g id="ytick_31">
     <g id="line2d_48"/>
    </g>
    <g id="ytick_32">
     <g id="line2d_49"/>
    </g>
    <g id="ytick_33">
     <g id="line2d_50"/>
    </g>
    <g id="ytick_34">
     <g id="line2d_51"/>
    </g>
    <g id="ytick_35">
     <g id="line2d_52"/>
    </g>
    <g id="ytick_36">
     <g id="line2d_53"/>
    </g>
    <g id="ytick_37">
     <g id="line2d_54"/>
    </g>
    <g id="text_13">
     <!-- Density -->
     <g style="fill: #262626" transform="translate(11.184375 117.640078) rotate(-90) scale(0.15 -0.15)">
      <defs>
       <path id="DejaVuSerif-44" d="M 1581 331 
L 2163 331 
Q 3072 331 3558 850 
Q 4044 1369 4044 2338 
Q 4044 3306 3559 3818 
Q 3075 4331 2163 4331 
L 1581 4331 
L 1581 331 
z
M 353 0 
L 353 331 
L 947 331 
L 947 4331 
L 353 4331 
L 353 4666 
L 2209 4666 
Q 3416 4666 4089 4050 
Q 4763 3434 4763 2338 
Q 4763 1238 4088 619 
Q 3413 0 2209 0 
L 353 0 
z
" transform="scale(0.015625)"/>
       <path id="DejaVuSerif-65" d="M 3469 1600 
L 991 1600 
L 991 1575 
Q 991 903 1244 561 
Q 1497 219 1991 219 
Q 2369 219 2611 417 
Q 2853 616 2950 1006 
L 3413 1006 
Q 3275 459 2904 184 
Q 2534 -91 1931 -91 
Q 1203 -91 761 389 
Q 319 869 319 1663 
Q 319 2450 753 2931 
Q 1188 3413 1894 3413 
Q 2647 3413 3050 2948 
Q 3453 2484 3469 1600 
z
M 2791 1931 
Q 2772 2513 2545 2808 
Q 2319 3103 1894 3103 
Q 1497 3103 1269 2806 
Q 1041 2509 991 1931 
L 2791 1931 
z
" transform="scale(0.015625)"/>
       <path id="DejaVuSerif-6e" d="M 263 0 
L 263 331 
L 781 331 
L 781 2988 
L 231 2988 
L 231 3322 
L 1356 3322 
L 1356 2731 
Q 1516 3069 1770 3241 
Q 2025 3413 2363 3413 
Q 2913 3413 3172 3097 
Q 3431 2781 3431 2113 
L 3431 331 
L 3944 331 
L 3944 0 
L 2356 0 
L 2356 331 
L 2853 331 
L 2853 1931 
Q 2853 2541 2703 2767 
Q 2553 2994 2175 2994 
Q 1775 2994 1565 2701 
Q 1356 2409 1356 1850 
L 1356 331 
L 1856 331 
L 1856 0 
L 263 0 
z
" transform="scale(0.015625)"/>
       <path id="DejaVuSerif-73" d="M 359 184 
L 359 959 
L 691 959 
Q 703 588 923 403 
Q 1144 219 1575 219 
Q 1963 219 2166 364 
Q 2369 509 2369 788 
Q 2369 1006 2220 1140 
Q 2072 1275 1594 1428 
L 1178 1569 
Q 750 1706 558 1912 
Q 366 2119 366 2438 
Q 366 2894 700 3153 
Q 1034 3413 1625 3413 
Q 1888 3413 2178 3344 
Q 2469 3275 2778 3144 
L 2778 2419 
L 2447 2419 
Q 2434 2741 2221 2922 
Q 2009 3103 1644 3103 
Q 1281 3103 1095 2975 
Q 909 2847 909 2591 
Q 909 2381 1050 2254 
Q 1191 2128 1613 1997 
L 2069 1856 
Q 2541 1709 2748 1489 
Q 2956 1269 2956 922 
Q 2956 450 2595 179 
Q 2234 -91 1600 -91 
Q 1278 -91 972 -22 
Q 666 47 359 184 
z
" transform="scale(0.015625)"/>
       <path id="DejaVuSerif-69" d="M 622 4353 
Q 622 4497 726 4603 
Q 831 4709 978 4709 
Q 1122 4709 1226 4603 
Q 1331 4497 1331 4353 
Q 1331 4206 1228 4103 
Q 1125 4000 978 4000 
Q 831 4000 726 4103 
Q 622 4206 622 4353 
z
M 1356 331 
L 1900 331 
L 1900 0 
L 231 0 
L 231 331 
L 781 331 
L 781 2988 
L 231 2988 
L 231 3322 
L 1356 3322 
L 1356 331 
z
" transform="scale(0.015625)"/>
       <path id="DejaVuSerif-74" d="M 691 2988 
L 184 2988 
L 184 3322 
L 691 3322 
L 691 4353 
L 1269 4353 
L 1269 3322 
L 2350 3322 
L 2350 2988 
L 1269 2988 
L 1269 878 
Q 1269 456 1350 337 
Q 1431 219 1650 219 
Q 1875 219 1978 351 
Q 2081 484 2088 781 
L 2522 781 
Q 2497 328 2275 118 
Q 2053 -91 1600 -91 
Q 1103 -91 897 129 
Q 691 350 691 878 
L 691 2988 
z
" transform="scale(0.015625)"/>
       <path id="DejaVuSerif-79" d="M 1381 -609 
L 1600 -56 
L 359 2988 
L -19 2988 
L -19 3322 
L 1509 3322 
L 1509 2988 
L 978 2988 
L 1913 703 
L 2847 2988 
L 2350 2988 
L 2350 3322 
L 3597 3322 
L 3597 2988 
L 3225 2988 
L 1703 -750 
Q 1547 -1138 1356 -1280 
Q 1166 -1422 819 -1422 
Q 672 -1422 517 -1397 
Q 363 -1372 206 -1325 
L 206 -691 
L 500 -691 
Q 519 -903 608 -995 
Q 697 -1088 884 -1088 
Q 1056 -1088 1161 -992 
Q 1266 -897 1381 -609 
z
" transform="scale(0.015625)"/>
      </defs>
      <use xlink:href="#DejaVuSerif-44"/>
      <use xlink:href="#DejaVuSerif-65" x="80.175781"/>
      <use xlink:href="#DejaVuSerif-6e" x="139.355469"/>
      <use xlink:href="#DejaVuSerif-73" x="203.759766"/>
      <use xlink:href="#DejaVuSerif-69" x="255.078125"/>
      <use xlink:href="#DejaVuSerif-74" x="287.060547"/>
      <use xlink:href="#DejaVuSerif-79" x="327.246094"/>
     </g>
    </g>
   </g>
   <g id="PolyCollection_1">
    <path d="M 74.886288 237.246208 
L 74.886288 41668.858828 
L 75.500039 41668.858828 
L 76.11379 41668.858828 
L 76.727541 41668.858828 
L 77.341292 41668.858828 
L 77.955043 41668.858828 
L 78.568794 41668.858828 
L 79.182545 41668.858828 
L 79.796296 41668.858828 
L 80.410048 41668.858828 
L 81.023799 41668.858828 
L 81.63755 41668.858828 
L 82.251301 41668.858828 
L 82.865052 41668.858828 
L 83.478803 41668.858828 
L 84.092554 41668.858828 
L 84.706305 41668.858828 
L 85.320056 41668.858828 
L 85.933807 41668.858828 
L 86.547559 41668.858828 
L 87.16131 41668.858828 
L 87.775061 41668.858828 
L 88.388812 41668.858828 
L 89.002563 41668.858828 
L 89.616314 41668.858828 
L 90.230065 41668.858828 
L 90.843816 41668.858828 
L 91.457567 41668.858828 
L 92.071318 41668.858828 
L 92.68507 41668.858828 
L 93.298821 41668.858828 
L 93.912572 41668.858828 
L 94.526323 41668.858828 
L 95.140074 41668.858828 
L 95.753825 41668.858828 
L 96.367576 41668.858828 
L 96.981327 41668.858828 
L 97.595078 41668.858828 
L 98.20883 41668.858828 
L 98.822581 41668.858828 
L 99.436332 41668.858828 
L 100.050083 41668.858828 
L 100.663834 41668.858828 
L 101.277585 41668.858828 
L 101.891336 41668.858828 
L 102.505087 41668.858828 
L 103.118838 41668.858828 
L 103.732589 41668.858828 
L 104.346341 41668.858828 
L 104.960092 41668.858828 
L 105.573843 41668.858828 
L 106.187594 41668.858828 
L 106.801345 41668.858828 
L 107.415096 41668.858828 
L 108.028847 41668.858828 
L 108.642598 41668.858828 
L 109.256349 41668.858828 
L 109.8701 41668.858828 
L 110.483852 41668.858828 
L 111.097603 41668.858828 
L 111.711354 41668.858828 
L 112.325105 41668.858828 
L 112.938856 41668.858828 
L 113.552607 41668.858828 
L 114.166358 41668.858828 
L 114.780109 41668.858828 
L 115.39386 41668.858828 
L 116.007611 41668.858828 
L 116.621363 41668.858828 
L 117.235114 41668.858828 
L 117.848865 41668.858828 
L 118.462616 41668.858828 
L 119.076367 41668.858828 
L 119.690118 41668.858828 
L 120.303869 41668.858828 
L 120.91762 41668.858828 
L 121.531371 41668.858828 
L 122.145122 41668.858828 
L 122.758874 41668.858828 
L 123.372625 41668.858828 
L 123.986376 41668.858828 
L 124.600127 41668.858828 
L 125.213878 41668.858828 
L 125.827629 41668.858828 
L 126.44138 41668.858828 
L 127.055131 41668.858828 
L 127.668882 41668.858828 
L 128.282633 41668.858828 
L 128.896385 41668.858828 
L 129.510136 41668.858828 
L 130.123887 41668.858828 
L 130.737638 41668.858828 
L 131.351389 41668.858828 
L 131.96514 41668.858828 
L 132.578891 41668.858828 
L 133.192642 41668.858828 
L 133.806393 41668.858828 
L 134.420145 41668.858828 
L 135.033896 41668.858828 
L 135.647647 41668.858828 
L 136.261398 41668.858828 
L 136.875149 41668.858828 
L 137.4889 41668.858828 
L 138.102651 41668.858828 
L 138.716402 41668.858828 
L 139.330153 41668.858828 
L 139.943904 41668.858828 
L 140.557656 41668.858828 
L 141.171407 41668.858828 
L 141.785158 41668.858828 
L 142.398909 41668.858828 
L 143.01266 41668.858828 
L 143.626411 41668.858828 
L 144.240162 41668.858828 
L 144.853913 41668.858828 
L 145.467664 41668.858828 
L 146.081415 41668.858828 
L 146.695167 41668.858828 
L 147.308918 41668.858828 
L 147.922669 41668.858828 
L 148.53642 41668.858828 
L 149.150171 41668.858828 
L 149.763922 41668.858828 
L 150.377673 41668.858828 
L 150.991424 41668.858828 
L 151.605175 41668.858828 
L 152.218926 41668.858828 
L 152.832678 41668.858828 
L 153.446429 41668.858828 
L 154.06018 41668.858828 
L 154.673931 41668.858828 
L 155.287682 41668.858828 
L 155.901433 41668.858828 
L 156.515184 41668.858828 
L 157.128935 41668.858828 
L 157.742686 41668.858828 
L 158.356437 41668.858828 
L 158.970189 41668.858828 
L 159.58394 41668.858828 
L 160.197691 41668.858828 
L 160.811442 41668.858828 
L 161.425193 41668.858828 
L 162.038944 41668.858828 
L 162.652695 41668.858828 
L 163.266446 41668.858828 
L 163.880197 41668.858828 
L 164.493948 41668.858828 
L 165.1077 41668.858828 
L 165.721451 41668.858828 
L 166.335202 41668.858828 
L 166.948953 41668.858828 
L 167.562704 41668.858828 
L 168.176455 41668.858828 
L 168.790206 41668.858828 
L 169.403957 41668.858828 
L 170.017708 41668.858828 
L 170.63146 41668.858828 
L 171.245211 41668.858828 
L 171.858962 41668.858828 
L 172.472713 41668.858828 
L 173.086464 41668.858828 
L 173.700215 41668.858828 
L 174.313966 41668.858828 
L 174.927717 41668.858828 
L 175.541468 41668.858828 
L 176.155219 41668.858828 
L 176.768971 41668.858828 
L 177.382722 41668.858828 
L 177.996473 41668.858828 
L 178.610224 41668.858828 
L 179.223975 41668.858828 
L 179.837726 41668.858828 
L 180.451477 41668.858828 
L 181.065228 41668.858828 
L 181.678979 41668.858828 
L 182.29273 41668.858828 
L 182.906482 41668.858828 
L 183.520233 41668.858828 
L 184.133984 41668.858828 
L 184.747735 41668.858828 
L 185.361486 41668.858828 
L 185.975237 41668.858828 
L 186.588988 41668.858828 
L 187.202739 41668.858828 
L 187.81649 41668.858828 
L 188.430241 41668.858828 
L 189.043993 41668.858828 
L 189.657744 41668.858828 
L 190.271495 41668.858828 
L 190.885246 41668.858828 
L 191.498997 41668.858828 
L 192.112748 41668.858828 
L 192.726499 41668.858828 
L 193.34025 41668.858828 
L 193.954001 41668.858828 
L 194.567752 41668.858828 
L 195.181504 41668.858828 
L 195.795255 41668.858828 
L 196.409006 41668.858828 
L 197.022757 41668.858828 
L 197.636508 41668.858828 
L 198.250259 41668.858828 
L 198.86401 41668.858828 
L 199.477761 41668.858828 
L 200.091512 41668.858828 
L 200.705263 41668.858828 
L 201.319015 41668.858828 
L 201.932766 41668.858828 
L 202.546517 41668.858828 
L 203.160268 41668.858828 
L 203.774019 41668.858828 
L 204.38777 41668.858828 
L 205.001521 41668.858828 
L 205.615272 41668.858828 
L 206.229023 41668.858828 
L 206.842774 41668.858828 
L 207.456526 41668.858828 
L 208.070277 41668.858828 
L 208.684028 41668.858828 
L 209.297779 41668.858828 
L 209.91153 41668.858828 
L 210.525281 41668.858828 
L 211.139032 41668.858828 
L 211.752783 41668.858828 
L 212.366534 41668.858828 
L 212.980286 41668.858828 
L 213.594037 41668.858828 
L 214.207788 41668.858828 
L 214.821539 41668.858828 
L 215.43529 41668.858828 
L 216.049041 41668.858828 
L 216.662792 41668.858828 
L 217.276543 41668.858828 
L 217.890294 41668.858828 
L 218.504045 41668.858828 
L 219.117797 41668.858828 
L 219.731548 41668.858828 
L 220.345299 41668.858828 
L 220.95905 41668.858828 
L 221.572801 41668.858828 
L 222.186552 41668.858828 
L 222.800303 41668.858828 
L 223.414054 41668.858828 
L 224.027805 41668.858828 
L 224.641556 41668.858828 
L 225.255308 41668.858828 
L 225.869059 41668.858828 
L 226.48281 41668.858828 
L 227.096561 41668.858828 
L 227.710312 41668.858828 
L 228.324063 41668.858828 
L 228.937814 41668.858828 
L 229.551565 41668.858828 
L 230.165316 41668.858828 
L 230.779067 41668.858828 
L 231.392819 41668.858828 
L 232.00657 41668.858828 
L 232.620321 41668.858828 
L 233.234072 41668.858828 
L 233.847823 41668.858828 
L 234.461574 41668.858828 
L 235.075325 41668.858828 
L 235.689076 41668.858828 
L 236.302827 41668.858828 
L 236.916578 41668.858828 
L 237.53033 41668.858828 
L 238.144081 41668.858828 
L 238.757832 41668.858828 
L 239.371583 41668.858828 
L 239.985334 41668.858828 
L 240.599085 41668.858828 
L 241.212836 41668.858828 
L 241.826587 41668.858828 
L 242.440338 41668.858828 
L 243.054089 41668.858828 
L 243.667841 41668.858828 
L 244.281592 41668.858828 
L 244.895343 41668.858828 
L 245.509094 41668.858828 
L 246.122845 41668.858828 
L 246.736596 41668.858828 
L 247.350347 41668.858828 
L 247.964098 41668.858828 
L 248.577849 41668.858828 
L 249.191601 41668.858828 
L 249.805352 41668.858828 
L 250.419103 41668.858828 
L 251.032854 41668.858828 
L 251.646605 41668.858828 
L 252.260356 41668.858828 
L 252.874107 41668.858828 
L 253.487858 41668.858828 
L 254.101609 41668.858828 
L 254.71536 41668.858828 
L 255.329112 41668.858828 
L 255.942863 41668.858828 
L 256.556614 41668.858828 
L 257.170365 41668.858828 
L 257.784116 41668.858828 
L 258.397867 41668.858828 
L 259.011618 41668.858828 
L 259.625369 41668.858828 
L 260.23912 41668.858828 
L 260.852871 41668.858828 
L 261.466623 41668.858828 
L 262.080374 41668.858828 
L 262.694125 41668.858828 
L 263.307876 41668.858828 
L 263.921627 41668.858828 
L 264.535378 41668.858828 
L 265.149129 41668.858828 
L 265.76288 41668.858828 
L 266.376631 41668.858828 
L 266.990382 41668.858828 
L 267.604134 41668.858828 
L 268.217885 41668.858828 
L 268.831636 41668.858828 
L 269.445387 41668.858828 
L 270.059138 41668.858828 
L 270.672889 41668.858828 
L 271.28664 41668.858828 
L 271.900391 41668.858828 
L 272.514142 41668.858828 
L 273.127893 41668.858828 
L 273.741645 41668.858828 
L 274.355396 41668.858828 
L 274.969147 41668.858828 
L 275.582898 41668.858828 
L 276.196649 41668.858828 
L 276.8104 41668.858828 
L 277.424151 41668.858828 
L 278.037902 41668.858828 
L 278.651653 41668.858828 
L 279.265404 41668.858828 
L 279.879156 41668.858828 
L 280.492907 41668.858828 
L 281.106658 41668.858828 
L 281.720409 41668.858828 
L 282.33416 41668.858828 
L 282.947911 41668.858828 
L 283.561662 41668.858828 
L 284.175413 41668.858828 
L 284.789164 41668.858828 
L 285.402915 41668.858828 
L 286.016667 41668.858828 
L 286.630418 41668.858828 
L 287.244169 41668.858828 
L 287.85792 41668.858828 
L 288.471671 41668.858828 
L 289.085422 41668.858828 
L 289.699173 41668.858828 
L 290.312924 41668.858828 
L 290.926675 41668.858828 
L 291.540427 41668.858828 
L 292.154178 41668.858828 
L 292.767929 41668.858828 
L 293.38168 41668.858828 
L 293.995431 41668.858828 
L 294.609182 41668.858828 
L 295.222933 41668.858828 
L 295.836684 41668.858828 
L 296.450435 41668.858828 
L 297.064186 41668.858828 
L 297.677938 41668.858828 
L 298.291689 41668.858828 
L 298.90544 41668.858828 
L 299.519191 41668.858828 
L 300.132942 41668.858828 
L 300.746693 41668.858828 
L 301.360444 41668.858828 
L 301.974195 41668.858828 
L 302.587946 41668.858828 
L 303.201697 41668.858828 
L 303.815449 41668.858828 
L 304.4292 41668.858828 
L 305.042951 41668.858828 
L 305.656702 41668.858828 
L 306.270453 41668.858828 
L 306.884204 41668.858828 
L 307.497955 41668.858828 
L 308.111706 41668.858828 
L 308.725457 41668.858828 
L 309.339208 41668.858828 
L 309.95296 41668.858828 
L 310.566711 41668.858828 
L 311.180462 41668.858828 
L 311.794213 41668.858828 
L 312.407964 41668.858828 
L 313.021715 41668.858828 
L 313.635466 41668.858828 
L 314.249217 41668.858828 
L 314.862968 41668.858828 
L 315.476719 41668.858828 
L 316.090471 41668.858828 
L 316.704222 41668.858828 
L 317.317973 41668.858828 
L 317.931724 41668.858828 
L 318.545475 41668.858828 
L 319.159226 41668.858828 
L 319.772977 41668.858828 
L 320.386728 41668.858828 
L 321.000479 41668.858828 
L 321.61423 41668.858828 
L 322.227982 41668.858828 
L 322.841733 41668.858828 
L 323.455484 41668.858828 
L 324.069235 41668.858828 
L 324.682986 41668.858828 
L 325.296737 41668.858828 
L 325.910488 41668.858828 
L 326.524239 41668.858828 
L 327.13799 41668.858828 
L 327.751742 41668.858828 
L 328.365493 41668.858828 
L 328.979244 41668.858828 
L 329.592995 41668.858828 
L 330.206746 41668.858828 
L 330.820497 41668.858828 
L 331.434248 41668.858828 
L 332.047999 41668.858828 
L 332.66175 41668.858828 
L 333.275501 41668.858828 
L 333.889253 41668.858828 
L 334.503004 41668.858828 
L 335.116755 41668.858828 
L 335.730506 41668.858828 
L 336.344257 41668.858828 
L 336.958008 41668.858828 
L 337.571759 41668.858828 
L 338.18551 41668.858828 
L 338.799261 41668.858828 
L 339.413012 41668.858828 
L 340.026764 41668.858828 
L 340.640515 41668.858828 
L 341.254266 41668.858828 
L 341.868017 41668.858828 
L 342.481768 41668.858828 
L 343.095519 41668.858828 
L 343.70927 41668.858828 
L 344.323021 41668.858828 
L 344.936772 41668.858828 
L 345.550523 41668.858828 
L 346.164275 41668.858828 
L 346.778026 41668.858828 
L 347.391777 41668.858828 
L 348.005528 41668.858828 
L 348.619279 41668.858828 
L 349.23303 41668.858828 
L 349.846781 41668.858828 
L 350.460532 41668.858828 
L 351.074283 41668.858828 
L 351.688034 41668.858828 
L 352.301786 41668.858828 
L 352.915537 41668.858828 
L 353.529288 41668.858828 
L 354.143039 41668.858828 
L 354.75679 41668.858828 
L 355.370541 41668.858828 
L 355.984292 41668.858828 
L 356.598043 41668.858828 
L 357.211794 41668.858828 
L 357.825545 41668.858828 
L 358.439297 41668.858828 
L 359.053048 41668.858828 
L 359.666799 41668.858828 
L 360.28055 41668.858828 
L 360.894301 41668.858828 
L 361.508052 41668.858828 
L 362.121803 41668.858828 
L 362.735554 41668.858828 
L 363.349305 41668.858828 
L 363.963057 41668.858828 
L 364.576808 41668.858828 
L 365.190559 41668.858828 
L 365.80431 41668.858828 
L 366.418061 41668.858828 
L 367.031812 41668.858828 
L 367.645563 41668.858828 
L 368.259314 41668.858828 
L 368.873065 41668.858828 
L 369.486816 41668.858828 
L 370.100568 41668.858828 
L 370.714319 41668.858828 
L 371.32807 41668.858828 
L 371.941821 41668.858828 
L 372.555572 41668.858828 
L 373.169323 41668.858828 
L 373.783074 41668.858828 
L 374.396825 41668.858828 
L 375.010576 41668.858828 
L 375.624327 41668.858828 
L 376.238079 41668.858828 
L 376.85183 41668.858828 
L 377.465581 41668.858828 
L 378.079332 41668.858828 
L 378.693083 41668.858828 
L 379.306834 41668.858828 
L 379.920585 41668.858828 
L 380.534336 41668.858828 
L 381.148087 41668.858828 
L 381.148087 242.681364 
L 381.148087 242.681364 
L 380.534336 163.572246 
L 379.920585 126.731208 
L 379.306834 100.042352 
L 378.693083 81.158383 
L 378.079332 70.254796 
L 377.465581 69.057349 
L 376.85183 77.458204 
L 376.238079 93.891636 
L 375.624327 112.931672 
L 375.010576 138.529237 
L 374.396825 143.35805 
L 373.783074 154.489113 
L 373.169323 139.703036 
L 372.555572 113.29408 
L 371.941821 88.894782 
L 371.32807 73.310988 
L 370.714319 62.535612 
L 370.100568 57.065525 
L 369.486816 60.804333 
L 368.873065 70.422975 
L 368.259314 83.12121 
L 367.645563 100.666534 
L 367.031812 118.124603 
L 366.418061 136.154892 
L 365.80431 164.502983 
L 365.190559 168.847525 
L 364.576808 168.255485 
L 363.963057 159.365721 
L 363.349305 165.891311 
L 362.735554 149.947803 
L 362.121803 142.909606 
L 361.508052 146.605036 
L 360.894301 130.467362 
L 360.28055 115.630025 
L 359.666799 99.564266 
L 359.053048 87.574789 
L 358.439297 75.683439 
L 357.825545 66.560774 
L 357.211794 62.389631 
L 356.598043 61.276954 
L 355.984292 64.594558 
L 355.370541 70.829948 
L 354.75679 81.072157 
L 354.143039 92.238262 
L 353.529288 106.68802 
L 352.915537 125.169765 
L 352.301786 136.382232 
L 351.688034 143.885581 
L 351.074283 153.603083 
L 350.460532 190.550457 
L 349.846781 169.923731 
L 349.23303 169.269096 
L 348.619279 140.761311 
L 348.005528 122.950538 
L 347.391777 113.101291 
L 346.778026 95.391262 
L 346.164275 83.44632 
L 345.550523 74.693824 
L 344.936772 71.925338 
L 344.323021 69.581352 
L 343.70927 70.088822 
L 343.095519 71.521629 
L 342.481768 72.113155 
L 341.868017 75.891267 
L 341.254266 85.557444 
L 340.640515 97.374355 
L 340.026764 101.39775 
L 339.413012 117.219739 
L 338.799261 136.506847 
L 338.18551 159.544984 
L 337.571759 149.18519 
L 336.958008 136.797192 
L 336.344257 134.741601 
L 335.730506 122.738726 
L 335.116755 111.120455 
L 334.503004 103.025436 
L 333.889253 86.971144 
L 333.275501 78.072426 
L 332.66175 73.236169 
L 332.047999 71.245885 
L 331.434248 69.708755 
L 330.820497 70.009867 
L 330.206746 73.380546 
L 329.592995 78.402347 
L 328.979244 84.399161 
L 328.365493 95.135276 
L 327.751742 108.741104 
L 327.13799 120.389022 
L 326.524239 137.843102 
L 325.910488 145.428317 
L 325.296737 145.630071 
L 324.682986 148.366064 
L 324.069235 158.603488 
L 323.455484 140.9636 
L 322.841733 129.946055 
L 322.227982 122.583213 
L 321.61423 120.637223 
L 321.000479 101.214657 
L 320.386728 92.494388 
L 319.772977 87.005256 
L 319.159226 81.772263 
L 318.545475 76.113401 
L 317.931724 74.028242 
L 317.317973 72.44658 
L 316.704222 71.521931 
L 316.090471 74.127977 
L 315.476719 78.263642 
L 314.862968 83.633389 
L 314.249217 90.798075 
L 313.635466 101.328106 
L 313.021715 111.623393 
L 312.407964 120.942707 
L 311.794213 126.661399 
L 311.180462 136.946291 
L 310.566711 145.321567 
L 309.95296 140.12651 
L 309.339208 151.275796 
L 308.725457 138.043216 
L 308.111706 113.085366 
L 307.497955 105.677918 
L 306.884204 100.515488 
L 306.270453 88.166675 
L 305.656702 79.637129 
L 305.042951 76.464816 
L 304.4292 74.903983 
L 303.815449 74.147678 
L 303.201697 74.970102 
L 302.587946 77.431202 
L 301.974195 74.782424 
L 301.360444 76.319978 
L 300.746693 81.257712 
L 300.132942 86.511597 
L 299.519191 89.448609 
L 298.90544 93.840562 
L 298.291689 106.267962 
L 297.677938 115.50178 
L 297.064186 123.644915 
L 296.450435 127.569064 
L 295.836684 136.038904 
L 295.222933 135.424494 
L 294.609182 127.422757 
L 293.995431 113.493325 
L 293.38168 106.328618 
L 292.767929 98.25587 
L 292.154178 86.813714 
L 291.540427 85.189624 
L 290.926675 80.602482 
L 290.312924 78.540899 
L 289.699173 76.854105 
L 289.085422 75.148784 
L 288.471671 77.08222 
L 287.85792 77.431795 
L 287.244169 78.718558 
L 286.630418 81.566352 
L 286.016667 85.572536 
L 285.402915 87.447331 
L 284.789164 91.645339 
L 284.175413 95.12392 
L 283.561662 103.635921 
L 282.947911 116.775673 
L 282.33416 119.352276 
L 281.720409 127.091397 
L 281.106658 137.544528 
L 280.492907 127.992134 
L 279.879156 107.26704 
L 279.265404 100.095647 
L 278.651653 92.718443 
L 278.037902 83.801868 
L 277.424151 81.102369 
L 276.8104 78.676672 
L 276.196649 78.325036 
L 275.582898 78.646746 
L 274.969147 77.492867 
L 274.355396 76.846994 
L 273.741645 78.590258 
L 273.127893 81.016166 
L 272.514142 86.273699 
L 271.900391 88.98154 
L 271.28664 90.160717 
L 270.672889 95.362773 
L 270.059138 97.652901 
L 269.445387 101.864232 
L 268.831636 106.819614 
L 268.217885 123.468165 
L 267.604134 118.588049 
L 266.990382 106.728486 
L 266.376631 101.07831 
L 265.76288 92.755897 
L 265.149129 90.889372 
L 264.535378 83.972553 
L 263.921627 80.877131 
L 263.307876 79.321654 
L 262.694125 78.685083 
L 262.080374 77.835582 
L 261.466623 79.054531 
L 260.852871 79.729487 
L 260.23912 79.360187 
L 259.625369 81.184621 
L 259.011618 86.400884 
L 258.397867 90.108704 
L 257.784116 93.791387 
L 257.170365 98.690761 
L 256.556614 100.325088 
L 255.942863 105.720966 
L 255.329112 107.045516 
L 254.71536 96.680266 
L 254.101609 94.675641 
L 253.487858 88.979535 
L 252.874107 80.55508 
L 252.260356 77.712038 
L 251.646605 76.841149 
L 251.032854 76.306238 
L 250.419103 76.787012 
L 249.805352 78.308952 
L 249.191601 81.186249 
L 248.577849 83.0303 
L 247.964098 85.401017 
L 247.350347 87.052827 
L 246.736596 89.214015 
L 246.122845 94.233629 
L 245.509094 101.719178 
L 244.895343 101.844283 
L 244.281592 107.483568 
L 243.667841 108.708648 
L 243.054089 109.969872 
L 242.440338 110.067761 
L 241.826587 105.156417 
L 241.212836 104.246147 
L 240.599085 101.325926 
L 239.985334 97.763273 
L 239.371583 96.207239 
L 238.757832 90.273453 
L 238.144081 86.906809 
L 237.53033 84.035252 
L 236.916578 80.759428 
L 236.302827 82.997569 
L 235.689076 81.304964 
L 235.075325 81.123372 
L 234.461574 80.104025 
L 233.847823 83.614623 
L 233.234072 81.606484 
L 232.620321 84.922163 
L 232.00657 88.914316 
L 231.392819 90.169552 
L 230.779067 97.125812 
L 230.165316 100.014035 
L 229.551565 102.415012 
L 228.937814 101.377373 
L 228.324063 100.917217 
L 227.710312 97.726957 
L 227.096561 92.879589 
L 226.48281 90.166472 
L 225.869059 86.506176 
L 225.255308 79.942082 
L 224.641556 76.785938 
L 224.027805 76.100285 
L 223.414054 77.584718 
L 222.800303 77.518022 
L 222.186552 78.717307 
L 221.572801 80.216827 
L 220.95905 83.094053 
L 220.345299 88.72124 
L 219.731548 91.140687 
L 219.117797 90.183051 
L 218.504045 91.417246 
L 217.890294 95.966203 
L 217.276543 100.041791 
L 216.662792 101.777582 
L 216.049041 106.360263 
L 215.43529 101.824025 
L 214.821539 95.717593 
L 214.207788 95.677278 
L 213.594037 92.931307 
L 212.980286 89.096724 
L 212.366534 86.415827 
L 211.752783 85.505461 
L 211.139032 80.88978 
L 210.525281 80.887327 
L 209.91153 80.622736 
L 209.297779 78.299646 
L 208.684028 77.777268 
L 208.070277 81.531855 
L 207.456526 84.766667 
L 206.842774 84.709557 
L 206.229023 86.932252 
L 205.615272 93.668823 
L 205.001521 96.872834 
L 204.38777 97.186126 
L 203.774019 98.276815 
L 203.160268 97.242197 
L 202.546517 98.649741 
L 201.932766 96.00497 
L 201.319015 92.148718 
L 200.705263 89.148705 
L 200.091512 87.236161 
L 199.477761 87.044332 
L 198.86401 84.859302 
L 198.250259 79.798072 
L 197.636508 79.224374 
L 197.022757 77.032542 
L 196.409006 77.491184 
L 195.795255 81.022874 
L 195.181504 80.18635 
L 194.567752 81.459135 
L 193.954001 85.332458 
L 193.34025 87.754847 
L 192.726499 92.321996 
L 192.112748 95.425487 
L 191.498997 95.105155 
L 190.885246 97.982834 
L 190.271495 98.444989 
L 189.657744 95.876301 
L 189.043993 92.396047 
L 188.430241 90.428075 
L 187.81649 85.251582 
L 187.202739 82.542673 
L 186.588988 83.434028 
L 185.975237 79.800283 
L 185.361486 78.052975 
L 184.747735 77.827888 
L 184.133984 80.371929 
L 183.520233 80.539909 
L 182.906482 84.309101 
L 182.29273 83.050198 
L 181.678979 82.5157 
L 181.065228 85.396054 
L 180.451477 90.993062 
L 179.837726 92.409001 
L 179.223975 94.949696 
L 178.610224 96.228985 
L 177.996473 93.182322 
L 177.382722 91.381532 
L 176.768971 91.288961 
L 176.155219 88.338632 
L 175.541468 85.475982 
L 174.927717 87.60681 
L 174.313966 82.222 
L 173.700215 80.837746 
L 173.086464 82.029792 
L 172.472713 80.147696 
L 171.858962 80.9724 
L 171.245211 81.336541 
L 170.63146 82.853478 
L 170.017708 86.326589 
L 169.403957 90.237042 
L 168.790206 89.18321 
L 168.176455 92.321646 
L 167.562704 95.860573 
L 166.948953 91.714002 
L 166.335202 87.555911 
L 165.721451 85.716125 
L 165.1077 89.194673 
L 164.493948 84.925921 
L 163.880197 82.173482 
L 163.266446 80.63852 
L 162.652695 78.669236 
L 162.038944 79.582581 
L 161.425193 83.595603 
L 160.811442 83.616531 
L 160.197691 84.380238 
L 159.58394 85.91279 
L 158.970189 89.865895 
L 158.356437 93.74375 
L 157.742686 93.640226 
L 157.128935 94.409398 
L 156.515184 93.399605 
L 155.901433 92.782809 
L 155.287682 91.450533 
L 154.673931 88.272108 
L 154.06018 83.807595 
L 153.446429 82.874131 
L 152.832678 85.366182 
L 152.218926 85.085915 
L 151.605175 85.378106 
L 150.991424 82.663353 
L 150.377673 84.957516 
L 149.763922 86.660051 
L 149.150171 90.600725 
L 148.53642 92.876879 
L 147.922669 92.873018 
L 147.308918 93.351101 
L 146.695167 95.01979 
L 146.081415 95.911672 
L 145.467664 95.31438 
L 144.853913 90.670302 
L 144.240162 86.374684 
L 143.626411 85.027729 
L 143.01266 83.044951 
L 142.398909 81.729997 
L 141.785158 83.19662 
L 141.171407 85.971081 
L 140.557656 89.071451 
L 139.943904 90.187621 
L 139.330153 90.464479 
L 138.716402 94.441811 
L 138.102651 91.865741 
L 137.4889 96.338631 
L 136.875149 100.295454 
L 136.261398 94.601351 
L 135.647647 91.173464 
L 135.033896 89.850725 
L 134.420145 87.964996 
L 133.806393 87.929318 
L 133.192642 84.712109 
L 132.578891 85.222491 
L 131.96514 85.629465 
L 131.351389 85.600041 
L 130.737638 87.763842 
L 130.123887 94.864752 
L 129.510136 97.255973 
L 128.896385 96.509407 
L 128.282633 94.737386 
L 127.668882 95.029175 
L 127.055131 91.920302 
L 126.44138 89.461623 
L 125.827629 88.457717 
L 125.213878 87.661323 
L 124.600127 86.594635 
L 123.986376 90.807029 
L 123.372625 92.036332 
L 122.758874 89.521866 
L 122.145122 92.011771 
L 121.531371 95.991304 
L 120.91762 95.677976 
L 120.303869 93.827844 
L 119.690118 92.792373 
L 119.076367 92.4832 
L 118.462616 91.181248 
L 117.848865 89.235326 
L 117.235114 90.084699 
L 116.621363 94.340834 
L 116.007611 94.593168 
L 115.39386 96.125402 
L 114.780109 99.014841 
L 114.166358 97.181014 
L 113.552607 95.497925 
L 112.938856 95.081241 
L 112.325105 93.591484 
L 111.711354 93.03815 
L 111.097603 90.432937 
L 110.483852 91.109983 
L 109.8701 95.632186 
L 109.256349 93.811445 
L 108.642598 92.264583 
L 108.028847 97.332644 
L 107.415096 100.221038 
L 106.801345 97.543777 
L 106.187594 92.237789 
L 105.573843 94.142679 
L 104.960092 92.631049 
L 104.346341 90.373731 
L 103.732589 91.932047 
L 103.118838 93.908644 
L 102.505087 98.698692 
L 101.891336 100.080805 
L 101.277585 97.708385 
L 100.663834 96.413568 
L 100.050083 94.375263 
L 99.436332 97.036656 
L 98.822581 100.403189 
L 98.20883 99.294547 
L 97.595078 100.645332 
L 96.981327 103.571667 
L 96.367576 98.873005 
L 95.753825 96.554941 
L 95.140074 97.72792 
L 94.526323 100.057106 
L 93.912572 102.647985 
L 93.298821 101.174156 
L 92.68507 104.611042 
L 92.071318 101.486128 
L 91.457567 99.769043 
L 90.843816 104.081253 
L 90.230065 102.591421 
L 89.616314 102.602206 
L 89.002563 97.655742 
L 88.388812 100.813048 
L 87.775061 103.376325 
L 87.16131 111.869423 
L 86.547559 104.681589 
L 85.933807 103.407712 
L 85.320056 108.022221 
L 84.706305 114.397801 
L 84.092554 113.470054 
L 83.478803 112.435389 
L 82.865052 111.838788 
L 82.251301 111.545911 
L 81.63755 111.79336 
L 81.023799 113.86306 
L 80.410048 116.552774 
L 79.796296 109.94684 
L 79.182545 114.608886 
L 78.568794 118.728768 
L 77.955043 118.088821 
L 77.341292 113.727053 
L 76.727541 118.139044 
L 76.11379 128.515833 
L 75.500039 155.53875 
L 74.886288 237.246208 
z
" clip-path="url(#pfa091c0014)" style="fill: #4c72b0; fill-opacity: 0.25; stroke: #4c72b0; stroke-width: 0.3"/>
   </g>
   <g id="patch_3">
    <path d="M 60.617188 172.018828 
L 60.617188 5.698828 
" style="fill: none"/>
   </g>
   <g id="patch_4">
    <path d="M 395.417188 172.018828 
L 395.417188 5.698828 
" style="fill: none"/>
   </g>
   <g id="patch_5">
    <path d="M 60.617188 172.018828 
L 395.417188 172.018828 
" style="fill: none"/>
   </g>
   <g id="patch_6">
    <path d="M 60.617188 5.698828 
L 395.417188 5.698828 
" style="fill: none"/>
   </g>
   <g id="text_14">
    <!-- 0 -->
    <g transform="translate(377.656375 64.00643) scale(0.1 -0.1)">
     <use xlink:href="#DejaVuSerif-30"/>
    </g>
   </g>
   <g id="text_15">
    <!-- 1 -->
    <g transform="translate(369.98146 55.697383) scale(0.1 -0.1)">
     <use xlink:href="#DejaVuSerif-31"/>
    </g>
   </g>
   <g id="text_16">
    <!-- 2 -->
    <g transform="translate(356.766709 58.987619) scale(0.1 -0.1)">
     <use xlink:href="#DejaVuSerif-32"/>
    </g>
   </g>
   <g id="text_17">
    <!-- 3 -->
    <g transform="translate(343.700242 63.367271) scale(0.1 -0.1)">
     <defs>
      <path id="DejaVuSerif-33" d="M 622 4469 
Q 988 4606 1323 4678 
Q 1659 4750 1953 4750 
Q 2638 4750 3022 4454 
Q 3406 4159 3406 3634 
Q 3406 3213 3140 2930 
Q 2875 2647 2388 2547 
Q 2963 2466 3280 2130 
Q 3597 1794 3597 1259 
Q 3597 606 3158 257 
Q 2719 -91 1894 -91 
Q 1528 -91 1179 -12 
Q 831 66 488 225 
L 488 1131 
L 838 1131 
Q 869 681 1141 450 
Q 1413 219 1906 219 
Q 2384 219 2661 495 
Q 2938 772 2938 1253 
Q 2938 1803 2653 2086 
Q 2369 2369 1819 2369 
L 1522 2369 
L 1522 2688 
L 1678 2688 
Q 2225 2688 2498 2914 
Q 2772 3141 2772 3597 
Q 2772 4006 2547 4223 
Q 2322 4441 1900 4441 
Q 1478 4441 1245 4241 
Q 1013 4041 972 3647 
L 622 3647 
L 622 4469 
z
" transform="scale(0.015625)"/>
     </defs>
     <use xlink:href="#DejaVuSerif-33"/>
    </g>
   </g>
   <g id="text_18">
    <!-- 4 -->
    <g transform="translate(331.3644 64.249129) scale(0.1 -0.1)">
     <use xlink:href="#DejaVuSerif-34"/>
    </g>
   </g>
   <g id="text_19">
    <!-- 5 -->
    <g transform="translate(317.20422 66.388009) scale(0.1 -0.1)">
     <defs>
      <path id="DejaVuSerif-35" d="M 3219 4666 
L 3219 4153 
L 1081 4153 
L 1081 2816 
Q 1244 2928 1461 2984 
Q 1678 3041 1947 3041 
Q 2703 3041 3140 2622 
Q 3578 2203 3578 1478 
Q 3578 738 3136 323 
Q 2694 -91 1894 -91 
Q 1572 -91 1234 -12 
Q 897 66 544 225 
L 544 1131 
L 897 1131 
Q 925 688 1179 453 
Q 1434 219 1894 219 
Q 2388 219 2653 544 
Q 2919 869 2919 1478 
Q 2919 2084 2655 2407 
Q 2391 2731 1894 2731 
Q 1613 2731 1398 2631 
Q 1184 2531 1019 2322 
L 750 2322 
L 750 4666 
L 3219 4666 
z
" transform="scale(0.015625)"/>
     </defs>
     <use xlink:href="#DejaVuSerif-35"/>
    </g>
   </g>
   <g id="text_20">
    <!-- 6 -->
    <g transform="translate(302.979284 66.779996) scale(0.1 -0.1)">
     <use xlink:href="#DejaVuSerif-36"/>
    </g>
   </g>
   <g id="text_21">
    <!-- 7 -->
    <g transform="translate(288.617384 68.35741) scale(0.1 -0.1)">
     <defs>
      <path id="DejaVuSerif-37" d="M 3609 4347 
L 1784 0 
L 1319 0 
L 3059 4153 
L 903 4153 
L 903 3578 
L 538 3578 
L 538 4666 
L 3609 4666 
L 3609 4347 
z
" transform="scale(0.015625)"/>
     </defs>
     <use xlink:href="#DejaVuSerif-37"/>
    </g>
   </g>
   <g id="text_22">
    <!-- 8 -->
    <g transform="translate(274.823681 69.080197) scale(0.1 -0.1)">
     <use xlink:href="#DejaVuSerif-38"/>
    </g>
   </g>
   <g id="text_23">
    <!-- 9 -->
    <g transform="translate(261.88243 69.514297) scale(0.1 -0.1)">
     <defs>
      <path id="DejaVuSerif-39" d="M 2994 2091 
Q 2784 1856 2512 1740 
Q 2241 1625 1900 1625 
Q 1206 1625 804 2044 
Q 403 2463 403 3188 
Q 403 3897 839 4323 
Q 1275 4750 2003 4750 
Q 2794 4750 3217 4161 
Q 3641 3572 3641 2478 
Q 3641 1253 3137 581 
Q 2634 -91 1722 -91 
Q 1475 -91 1203 -44 
Q 931 3 647 97 
L 647 872 
L 997 872 
Q 1038 556 1241 387 
Q 1444 219 1784 219 
Q 2391 219 2687 676 
Q 2984 1134 2994 2091 
z
M 1978 4441 
Q 1534 4441 1298 4117 
Q 1063 3794 1063 3188 
Q 1063 2581 1298 2256 
Q 1534 1931 1978 1931 
Q 2422 1931 2658 2245 
Q 2894 2559 2894 3150 
Q 2894 3772 2656 4106 
Q 2419 4441 1978 4441 
z
" transform="scale(0.015625)"/>
     </defs>
     <use xlink:href="#DejaVuSerif-39"/>
    </g>
   </g>
   <g id="text_24">
    <!-- 10 -->
    <g transform="translate(250.281464 69.704188) scale(0.1 -0.1)">
     <use xlink:href="#DejaVuSerif-31"/>
     <use xlink:href="#DejaVuSerif-30" x="63.623047"/>
    </g>
   </g>
   <g id="text_25">
    <!-- 11 -->
    <g transform="translate(235.466816 71.846306) scale(0.1 -0.1)">
     <use xlink:href="#DejaVuSerif-31"/>
     <use xlink:href="#DejaVuSerif-31" x="63.623047"/>
    </g>
   </g>
   <g id="text_26">
    <!-- 12 -->
    <g transform="translate(222.954778 69.791969) scale(0.1 -0.1)">
     <use xlink:href="#DejaVuSerif-31"/>
     <use xlink:href="#DejaVuSerif-32" x="63.623047"/>
    </g>
   </g>
   <g id="text_27">
    <!-- 13 -->
    <g transform="translate(209.618081 71.303664) scale(0.1 -0.1)">
     <use xlink:href="#DejaVuSerif-31"/>
     <use xlink:href="#DejaVuSerif-33" x="63.623047"/>
    </g>
   </g>
   <g id="text_28">
    <!-- 14 -->
    <g transform="translate(196.838065 70.568543) scale(0.1 -0.1)">
     <use xlink:href="#DejaVuSerif-31"/>
     <use xlink:href="#DejaVuSerif-34" x="63.623047"/>
    </g>
   </g>
   <g id="text_29">
    <!-- 15 -->
    <g transform="translate(184.542705 70.685529) scale(0.1 -0.1)">
     <use xlink:href="#DejaVuSerif-31"/>
     <use xlink:href="#DejaVuSerif-35" x="63.623047"/>
    </g>
   </g>
   <g id="text_30">
    <!-- 16 -->
    <g transform="translate(172.852374 71.907714) scale(0.1 -0.1)">
     <use xlink:href="#DejaVuSerif-31"/>
     <use xlink:href="#DejaVuSerif-36" x="63.623047"/>
    </g>
   </g>
   <g id="text_31">
    <!-- 17 -->
    <g transform="translate(162.4595 71.821438) scale(0.1 -0.1)">
     <use xlink:href="#DejaVuSerif-31"/>
     <use xlink:href="#DejaVuSerif-37" x="63.623047"/>
    </g>
   </g>
   <g id="text_32">
    <!-- 18 -->
    <g transform="translate(152.107058 73.38294) scale(0.1 -0.1)">
     <use xlink:href="#DejaVuSerif-31"/>
     <use xlink:href="#DejaVuSerif-38" x="63.623047"/>
    </g>
   </g>
   <g id="text_33">
    <!-- 19 -->
    <g transform="translate(142.15921 73.705076) scale(0.1 -0.1)">
     <use xlink:href="#DejaVuSerif-31"/>
     <use xlink:href="#DejaVuSerif-39" x="63.623047"/>
    </g>
   </g>
   <g id="text_34">
    <!-- 20 -->
    <g transform="translate(132.919296 74.454897) scale(0.1 -0.1)">
     <use xlink:href="#DejaVuSerif-32"/>
     <use xlink:href="#DejaVuSerif-30" x="63.623047"/>
    </g>
   </g>
   <g id="text_35">
    <!-- 21 -->
    <g transform="translate(124.92767 75.988527) scale(0.1 -0.1)">
     <use xlink:href="#DejaVuSerif-32"/>
     <use xlink:href="#DejaVuSerif-31" x="63.623047"/>
    </g>
   </g>
   <g id="text_36">
    <!-- 22 -->
    <g transform="translate(118.068663 77.692176) scale(0.1 -0.1)">
     <use xlink:href="#DejaVuSerif-32"/>
     <use xlink:href="#DejaVuSerif-32" x="63.623047"/>
    </g>
   </g>
   <g id="text_37">
    <!-- 23 -->
    <g transform="translate(111.101869 78.380754) scale(0.1 -0.1)">
     <use xlink:href="#DejaVuSerif-32"/>
     <use xlink:href="#DejaVuSerif-33" x="63.623047"/>
    </g>
   </g>
   <g id="text_38">
    <!-- 24 -->
    <g transform="translate(103.775544 78.86804) scale(0.1 -0.1)">
     <use xlink:href="#DejaVuSerif-32"/>
     <use xlink:href="#DejaVuSerif-34" x="63.623047"/>
    </g>
   </g>
   <g id="text_39">
    <!-- 25 -->
    <g transform="translate(94.968292 81.414825) scale(0.1 -0.1)">
     <use xlink:href="#DejaVuSerif-32"/>
     <use xlink:href="#DejaVuSerif-35" x="63.623047"/>
    </g>
   </g>
   <g id="text_40">
    <!-- 26+ -->
    <g transform="translate(84.847626 82.616506) scale(0.1 -0.1)">
     <defs>
      <path id="DejaVuSerif-2b" d="M 2931 4013 
L 2931 2259 
L 4684 2259 
L 4684 1753 
L 2931 1753 
L 2931 0 
L 2431 0 
L 2431 1753 
L 678 1753 
L 678 2259 
L 2431 2259 
L 2431 4013 
L 2931 4013 
z
" transform="scale(0.015625)"/>
     </defs>
     <use xlink:href="#DejaVuSerif-32"/>
     <use xlink:href="#DejaVuSerif-36" x="63.623047"/>
     <use xlink:href="#DejaVuSerif-2b" x="127.246094"/>
    </g>
   </g>
   <g id="text_41">
    <!-- PUMAP 1D -->
    <g style="fill: #262626" transform="translate(278.366818 23.537308) scale(0.15 -0.15)">
     <defs>
      <path id="DejaVuSerif-50" d="M 1581 2375 
L 2406 2375 
Q 2872 2375 3115 2626 
Q 3359 2878 3359 3353 
Q 3359 3831 3115 4081 
Q 2872 4331 2406 4331 
L 1581 4331 
L 1581 2375 
z
M 353 0 
L 353 331 
L 947 331 
L 947 4331 
L 353 4331 
L 353 4666 
L 2559 4666 
Q 3259 4666 3668 4311 
Q 4078 3956 4078 3353 
Q 4078 2753 3668 2397 
Q 3259 2041 2559 2041 
L 1581 2041 
L 1581 331 
L 2303 331 
L 2303 0 
L 353 0 
z
" transform="scale(0.015625)"/>
      <path id="DejaVuSerif-55" d="M 897 4331 
L 300 4331 
L 300 4666 
L 2125 4666 
L 2125 4331 
L 1528 4331 
L 1528 1919 
Q 1528 1025 1820 672 
Q 2113 319 2828 319 
Q 3544 319 3836 672 
Q 4128 1025 4128 1919 
L 4128 4331 
L 3531 4331 
L 3531 4666 
L 5106 4666 
L 5106 4331 
L 4513 4331 
L 4513 1856 
Q 4513 791 4103 350 
Q 3694 -91 2713 -91 
Q 1731 -91 1314 353 
Q 897 797 897 1856 
L 897 4331 
z
" transform="scale(0.015625)"/>
      <path id="DejaVuSerif-4d" d="M 353 0 
L 353 331 
L 947 331 
L 947 4331 
L 319 4331 
L 319 4666 
L 1678 4666 
L 3316 1344 
L 4953 4666 
L 6228 4666 
L 6228 4331 
L 5606 4331 
L 5606 331 
L 6203 331 
L 6203 0 
L 4378 0 
L 4378 331 
L 4972 331 
L 4972 3938 
L 3372 684 
L 2931 684 
L 1331 3938 
L 1331 331 
L 1925 331 
L 1925 0 
L 353 0 
z
" transform="scale(0.015625)"/>
      <path id="DejaVuSerif-41" d="M 1281 1691 
L 2994 1691 
L 2138 3909 
L 1281 1691 
z
M -38 0 
L -38 331 
L 372 331 
L 2034 4666 
L 2559 4666 
L 4225 331 
L 4684 331 
L 4684 0 
L 2988 0 
L 2988 331 
L 3506 331 
L 3116 1356 
L 1153 1356 
L 763 331 
L 1275 331 
L 1275 0 
L -38 0 
z
" transform="scale(0.015625)"/>
      <path id="DejaVuSerif-20" transform="scale(0.015625)"/>
     </defs>
     <use xlink:href="#DejaVuSerif-50"/>
     <use xlink:href="#DejaVuSerif-55" x="65.535156"/>
     <use xlink:href="#DejaVuSerif-4d" x="149.8125"/>
     <use xlink:href="#DejaVuSerif-41" x="252.205078"/>
     <use xlink:href="#DejaVuSerif-50" x="324.421875"/>
     <use xlink:href="#DejaVuSerif-20" x="391.707031"/>
     <use xlink:href="#DejaVuSerif-31" x="423.494141"/>
     <use xlink:href="#DejaVuSerif-44" x="487.117188"/>
    </g>
   </g>
  </g>
 </g>
 <defs>
  <clipPath id="pfa091c0014">
   <rect x="60.617188" y="5.698828" width="334.8" height="166.32"/>
  </clipPath>
 </defs>
</svg>
