<?xml version="1.0" encoding="utf-8" standalone="no"?>
<!DOCTYPE svg PUBLIC "-//W3C//DTD SVG 1.1//EN"
  "http://www.w3.org/Graphics/SVG/1.1/DTD/svg11.dtd">
<svg xmlns:xlink="http://www.w3.org/1999/xlink" width="398.853385pt" height="212.053203pt" viewBox="0 0 398.853385 212.053203" xmlns="http://www.w3.org/2000/svg" version="1.1">
 <metadata>
  <rdf:RDF xmlns:dc="http://purl.org/dc/elements/1.1/" xmlns:cc="http://creativecommons.org/ns#" xmlns:rdf="http://www.w3.org/1999/02/22-rdf-syntax-ns#">
   <cc:Work>
    <dc:type rdf:resource="http://purl.org/dc/dcmitype/StillImage"/>
    <dc:date>2024-11-11T11:53:32.715815</dc:date>
    <dc:format>image/svg+xml</dc:format>
    <dc:creator>
     <cc:Agent>
      <dc:title>Matplotlib v3.9.2, https://matplotlib.org/</dc:title>
     </cc:Agent>
    </dc:creator>
   </cc:Work>
  </rdf:RDF>
 </metadata>
 <defs>
  <style type="text/css">*{stroke-linejoin: round; stroke-linecap: butt}</style>
 </defs>
 <g id="figure_1">
  <g id="patch_1">
   <path d="M 0 212.053203 
L 398.853385 212.053203 
L 398.853385 0 
L 0 0 
z
" style="fill: #ffffff"/>
  </g>
  <g id="axes_1">
   <g id="patch_2">
    <path d="M 60.617188 172.018828 
L 395.417188 172.018828 
L 395.417188 5.698828 
L 60.617188 5.698828 
z
" style="fill: #eaeaf2"/>
   </g>
   <g id="matplotlib.axis_1">
    <g id="xtick_1">
     <g id="line2d_1">
      <path d="M 75.835369 172.018828 
L 75.835369 5.698828 
" clip-path="url(#p07e49bbb41)" style="fill: none; stroke: #ffffff; stroke-linecap: round"/>
     </g>
     <g id="line2d_2"/>
     <g id="text_1">
      <!-- 0.0 -->
      <g style="fill: #262626" transform="translate(63.908026 190.416484) scale(0.15 -0.15)">
       <defs>
        <path id="DejaVuSerif-30" d="M 2034 219 
Q 2513 219 2750 744 
Q 2988 1269 2988 2328 
Q 2988 3391 2750 3916 
Q 2513 4441 2034 4441 
Q 1556 4441 1318 3916 
Q 1081 3391 1081 2328 
Q 1081 1269 1318 744 
Q 1556 219 2034 219 
z
M 2034 -91 
Q 1275 -91 848 546 
Q 422 1184 422 2328 
Q 422 3475 848 4112 
Q 1275 4750 2034 4750 
Q 2797 4750 3222 4112 
Q 3647 3475 3647 2328 
Q 3647 1184 3222 546 
Q 2797 -91 2034 -91 
z
" transform="scale(0.015625)"/>
        <path id="DejaVuSerif-2e" d="M 603 325 
Q 603 500 722 622 
Q 841 744 1019 744 
Q 1191 744 1312 622 
Q 1434 500 1434 325 
Q 1434 153 1312 31 
Q 1191 -91 1019 -91 
Q 841 -91 722 29 
Q 603 150 603 325 
z
" transform="scale(0.015625)"/>
       </defs>
       <use xlink:href="#DejaVuSerif-30"/>
       <use xlink:href="#DejaVuSerif-2e" x="63.623047"/>
       <use xlink:href="#DejaVuSerif-30" x="95.410156"/>
      </g>
     </g>
    </g>
    <g id="xtick_2">
     <g id="line2d_3">
      <path d="M 136.708097 172.018828 
L 136.708097 5.698828 
" clip-path="url(#p07e49bbb41)" style="fill: none; stroke: #ffffff; stroke-linecap: round"/>
     </g>
     <g id="line2d_4"/>
     <g id="text_2">
      <!-- 0.2 -->
      <g style="fill: #262626" transform="translate(124.780753 190.416484) scale(0.15 -0.15)">
       <defs>
        <path id="DejaVuSerif-32" d="M 819 3553 
L 469 3553 
L 469 4384 
Q 803 4563 1142 4656 
Q 1481 4750 1806 4750 
Q 2534 4750 2956 4397 
Q 3378 4044 3378 3438 
Q 3378 2753 2422 1800 
Q 2347 1728 2309 1691 
L 1131 513 
L 3078 513 
L 3078 1088 
L 3444 1088 
L 3444 0 
L 434 0 
L 434 341 
L 1850 1753 
Q 2319 2222 2519 2614 
Q 2719 3006 2719 3438 
Q 2719 3909 2473 4175 
Q 2228 4441 1797 4441 
Q 1350 4441 1106 4219 
Q 863 3997 819 3553 
z
" transform="scale(0.015625)"/>
       </defs>
       <use xlink:href="#DejaVuSerif-30"/>
       <use xlink:href="#DejaVuSerif-2e" x="63.623047"/>
       <use xlink:href="#DejaVuSerif-32" x="95.410156"/>
      </g>
     </g>
    </g>
    <g id="xtick_3">
     <g id="line2d_5">
      <path d="M 197.580824 172.018828 
L 197.580824 5.698828 
" clip-path="url(#p07e49bbb41)" style="fill: none; stroke: #ffffff; stroke-linecap: round"/>
     </g>
     <g id="line2d_6"/>
     <g id="text_3">
      <!-- 0.4 -->
      <g style="fill: #262626" transform="translate(185.65348 190.416484) scale(0.15 -0.15)">
       <defs>
        <path id="DejaVuSerif-34" d="M 2234 1581 
L 2234 4063 
L 641 1581 
L 2234 1581 
z
M 3609 0 
L 1484 0 
L 1484 331 
L 2234 331 
L 2234 1247 
L 197 1247 
L 197 1588 
L 2241 4750 
L 2859 4750 
L 2859 1581 
L 3750 1581 
L 3750 1247 
L 2859 1247 
L 2859 331 
L 3609 331 
L 3609 0 
z
" transform="scale(0.015625)"/>
       </defs>
       <use xlink:href="#DejaVuSerif-30"/>
       <use xlink:href="#DejaVuSerif-2e" x="63.623047"/>
       <use xlink:href="#DejaVuSerif-34" x="95.410156"/>
      </g>
     </g>
    </g>
    <g id="xtick_4">
     <g id="line2d_7">
      <path d="M 258.453551 172.018828 
L 258.453551 5.698828 
" clip-path="url(#p07e49bbb41)" style="fill: none; stroke: #ffffff; stroke-linecap: round"/>
     </g>
     <g id="line2d_8"/>
     <g id="text_4">
      <!-- 0.6 -->
      <g style="fill: #262626" transform="translate(246.526207 190.416484) scale(0.15 -0.15)">
       <defs>
        <path id="DejaVuSerif-36" d="M 2094 219 
Q 2534 219 2771 542 
Q 3009 866 3009 1472 
Q 3009 2078 2771 2401 
Q 2534 2725 2094 2725 
Q 1647 2725 1412 2412 
Q 1178 2100 1178 1509 
Q 1178 888 1415 553 
Q 1653 219 2094 219 
z
M 1075 2569 
Q 1288 2803 1556 2918 
Q 1825 3034 2163 3034 
Q 2859 3034 3264 2615 
Q 3669 2197 3669 1472 
Q 3669 763 3233 336 
Q 2797 -91 2069 -91 
Q 1278 -91 853 498 
Q 428 1088 428 2181 
Q 428 3406 931 4078 
Q 1434 4750 2350 4750 
Q 2597 4750 2869 4703 
Q 3141 4656 3425 4563 
L 3425 3794 
L 3072 3794 
Q 3034 4109 2831 4275 
Q 2628 4441 2284 4441 
Q 1678 4441 1381 3981 
Q 1084 3522 1075 2569 
z
" transform="scale(0.015625)"/>
       </defs>
       <use xlink:href="#DejaVuSerif-30"/>
       <use xlink:href="#DejaVuSerif-2e" x="63.623047"/>
       <use xlink:href="#DejaVuSerif-36" x="95.410156"/>
      </g>
     </g>
    </g>
    <g id="xtick_5">
     <g id="line2d_9">
      <path d="M 319.326278 172.018828 
L 319.326278 5.698828 
" clip-path="url(#p07e49bbb41)" style="fill: none; stroke: #ffffff; stroke-linecap: round"/>
     </g>
     <g id="line2d_10"/>
     <g id="text_5">
      <!-- 0.8 -->
      <g style="fill: #262626" transform="translate(307.398935 190.416484) scale(0.15 -0.15)">
       <defs>
        <path id="DejaVuSerif-38" d="M 2981 1275 
Q 2981 1775 2732 2051 
Q 2484 2328 2034 2328 
Q 1584 2328 1336 2051 
Q 1088 1775 1088 1275 
Q 1088 772 1336 495 
Q 1584 219 2034 219 
Q 2484 219 2732 495 
Q 2981 772 2981 1275 
z
M 2853 3541 
Q 2853 3966 2637 4203 
Q 2422 4441 2034 4441 
Q 1650 4441 1433 4203 
Q 1216 3966 1216 3541 
Q 1216 3113 1433 2875 
Q 1650 2638 2034 2638 
Q 2422 2638 2637 2875 
Q 2853 3113 2853 3541 
z
M 2516 2484 
Q 3047 2413 3344 2092 
Q 3641 1772 3641 1275 
Q 3641 619 3225 264 
Q 2809 -91 2034 -91 
Q 1263 -91 845 264 
Q 428 619 428 1275 
Q 428 1772 725 2092 
Q 1022 2413 1556 2484 
Q 1084 2569 832 2842 
Q 581 3116 581 3541 
Q 581 4103 968 4426 
Q 1356 4750 2034 4750 
Q 2713 4750 3100 4426 
Q 3488 4103 3488 3541 
Q 3488 3116 3236 2842 
Q 2984 2569 2516 2484 
z
" transform="scale(0.015625)"/>
       </defs>
       <use xlink:href="#DejaVuSerif-30"/>
       <use xlink:href="#DejaVuSerif-2e" x="63.623047"/>
       <use xlink:href="#DejaVuSerif-38" x="95.410156"/>
      </g>
     </g>
    </g>
    <g id="xtick_6">
     <g id="line2d_11">
      <path d="M 380.199006 172.018828 
L 380.199006 5.698828 
" clip-path="url(#p07e49bbb41)" style="fill: none; stroke: #ffffff; stroke-linecap: round"/>
     </g>
     <g id="line2d_12"/>
     <g id="text_6">
      <!-- 1.0 -->
      <g style="fill: #262626" transform="translate(368.271662 190.416484) scale(0.15 -0.15)">
       <defs>
        <path id="DejaVuSerif-31" d="M 909 0 
L 909 331 
L 1722 331 
L 1722 4213 
L 781 3603 
L 781 4013 
L 1919 4750 
L 2350 4750 
L 2350 331 
L 3163 331 
L 3163 0 
L 909 0 
z
" transform="scale(0.015625)"/>
       </defs>
       <use xlink:href="#DejaVuSerif-31"/>
       <use xlink:href="#DejaVuSerif-2e" x="63.623047"/>
       <use xlink:href="#DejaVuSerif-30" x="95.410156"/>
      </g>
     </g>
    </g>
    <g id="text_7">
     <!-- $s_1$ -->
     <g style="fill: #262626" transform="translate(220.517188 208.933672) scale(0.15 -0.15)">
      <defs>
       <path id="DejaVuSans-Oblique-73" d="M 3200 3397 
L 3091 2853 
Q 2863 2978 2609 3040 
Q 2356 3103 2088 3103 
Q 1634 3103 1373 2948 
Q 1113 2794 1113 2528 
Q 1113 2219 1719 2053 
Q 1766 2041 1788 2034 
L 1972 1978 
Q 2547 1819 2739 1644 
Q 2931 1469 2931 1166 
Q 2931 609 2489 259 
Q 2047 -91 1331 -91 
Q 1053 -91 747 -37 
Q 441 16 72 128 
L 184 722 
Q 500 559 806 475 
Q 1113 391 1394 391 
Q 1816 391 2080 572 
Q 2344 753 2344 1031 
Q 2344 1331 1650 1516 
L 1591 1531 
L 1394 1581 
Q 956 1697 753 1886 
Q 550 2075 550 2369 
Q 550 2928 970 3256 
Q 1391 3584 2113 3584 
Q 2397 3584 2667 3537 
Q 2938 3491 3200 3397 
z
" transform="scale(0.015625)"/>
       <path id="DejaVuSans-31" d="M 794 531 
L 1825 531 
L 1825 4091 
L 703 3866 
L 703 4441 
L 1819 4666 
L 2450 4666 
L 2450 531 
L 3481 531 
L 3481 0 
L 794 0 
L 794 531 
z
" transform="scale(0.015625)"/>
      </defs>
      <use xlink:href="#DejaVuSans-Oblique-73"/>
      <use xlink:href="#DejaVuSans-31" transform="translate(52.099609 -16.40625) scale(0.7)"/>
     </g>
    </g>
   </g>
   <g id="matplotlib.axis_2">
    <g id="ytick_1">
     <g id="line2d_13">
      <path d="M 60.617188 172.018828 
L 395.417188 172.018828 
" clip-path="url(#p07e49bbb41)" style="fill: none; stroke: #ffffff; stroke-linecap: round"/>
     </g>
     <g id="line2d_14"/>
     <g id="text_8">
      <!-- $\mathdefault{10^{-2}}$ -->
      <g style="fill: #262626" transform="translate(18.517187 177.717656) scale(0.15 -0.15)">
       <defs>
        <path id="DejaVuSerif-2212" d="M 678 2259 
L 4684 2259 
L 4684 1753 
L 678 1753 
L 678 2259 
z
" transform="scale(0.015625)"/>
       </defs>
       <use xlink:href="#DejaVuSerif-31" transform="translate(0 0.7125)"/>
       <use xlink:href="#DejaVuSerif-30" transform="translate(63.623047 0.7125)"/>
       <use xlink:href="#DejaVuSerif-2212" transform="translate(128.154453 37.046875) scale(0.7)"/>
       <use xlink:href="#DejaVuSerif-32" transform="translate(186.806797 37.046875) scale(0.7)"/>
      </g>
     </g>
    </g>
    <g id="ytick_2">
     <g id="line2d_15">
      <path d="M 60.617188 130.438828 
L 395.417188 130.438828 
" clip-path="url(#p07e49bbb41)" style="fill: none; stroke: #ffffff; stroke-linecap: round"/>
     </g>
     <g id="line2d_16"/>
     <g id="text_9">
      <!-- $\mathdefault{10^{-1}}$ -->
      <g style="fill: #262626" transform="translate(18.517187 136.137656) scale(0.15 -0.15)">
       <use xlink:href="#DejaVuSerif-31" transform="translate(0 0.7125)"/>
       <use xlink:href="#DejaVuSerif-30" transform="translate(63.623047 0.7125)"/>
       <use xlink:href="#DejaVuSerif-2212" transform="translate(128.154453 37.046875) scale(0.7)"/>
       <use xlink:href="#DejaVuSerif-31" transform="translate(186.806797 37.046875) scale(0.7)"/>
      </g>
     </g>
    </g>
    <g id="ytick_3">
     <g id="line2d_17">
      <path d="M 60.617188 88.858828 
L 395.417188 88.858828 
" clip-path="url(#p07e49bbb41)" style="fill: none; stroke: #ffffff; stroke-linecap: round"/>
     </g>
     <g id="line2d_18"/>
     <g id="text_10">
      <!-- $\mathdefault{10^{0}}$ -->
      <g style="fill: #262626" transform="translate(27.217188 94.557656) scale(0.15 -0.15)">
       <use xlink:href="#DejaVuSerif-31" transform="translate(0 0.7125)"/>
       <use xlink:href="#DejaVuSerif-30" transform="translate(63.623047 0.7125)"/>
       <use xlink:href="#DejaVuSerif-30" transform="translate(128.154453 37.046875) scale(0.7)"/>
      </g>
     </g>
    </g>
    <g id="ytick_4">
     <g id="line2d_19">
      <path d="M 60.617188 47.278828 
L 395.417188 47.278828 
" clip-path="url(#p07e49bbb41)" style="fill: none; stroke: #ffffff; stroke-linecap: round"/>
     </g>
     <g id="line2d_20"/>
     <g id="text_11">
      <!-- $\mathdefault{10^{1}}$ -->
      <g style="fill: #262626" transform="translate(27.217188 52.977656) scale(0.15 -0.15)">
       <use xlink:href="#DejaVuSerif-31" transform="translate(0 0.7125)"/>
       <use xlink:href="#DejaVuSerif-30" transform="translate(63.623047 0.7125)"/>
       <use xlink:href="#DejaVuSerif-31" transform="translate(128.154453 37.046875) scale(0.7)"/>
      </g>
     </g>
    </g>
    <g id="ytick_5">
     <g id="line2d_21">
      <path d="M 60.617188 5.698828 
L 395.417188 5.698828 
" clip-path="url(#p07e49bbb41)" style="fill: none; stroke: #ffffff; stroke-linecap: round"/>
     </g>
     <g id="line2d_22"/>
     <g id="text_12">
      <!-- $\mathdefault{10^{2}}$ -->
      <g style="fill: #262626" transform="translate(27.217188 11.397656) scale(0.15 -0.15)">
       <use xlink:href="#DejaVuSerif-31" transform="translate(0 0.7125)"/>
       <use xlink:href="#DejaVuSerif-30" transform="translate(63.623047 0.7125)"/>
       <use xlink:href="#DejaVuSerif-32" transform="translate(128.154453 37.046875) scale(0.7)"/>
      </g>
     </g>
    </g>
    <g id="ytick_6">
     <g id="line2d_23"/>
    </g>
    <g id="ytick_7">
     <g id="line2d_24"/>
    </g>
    <g id="ytick_8">
     <g id="line2d_25"/>
    </g>
    <g id="ytick_9">
     <g id="line2d_26"/>
    </g>
    <g id="ytick_10">
     <g id="line2d_27"/>
    </g>
    <g id="ytick_11">
     <g id="line2d_28"/>
    </g>
    <g id="ytick_12">
     <g id="line2d_29"/>
    </g>
    <g id="ytick_13">
     <g id="line2d_30"/>
    </g>
    <g id="ytick_14">
     <g id="line2d_31"/>
    </g>
    <g id="ytick_15">
     <g id="line2d_32"/>
    </g>
    <g id="ytick_16">
     <g id="line2d_33"/>
    </g>
    <g id="ytick_17">
     <g id="line2d_34"/>
    </g>
    <g id="ytick_18">
     <g id="line2d_35"/>
    </g>
    <g id="ytick_19">
     <g id="line2d_36"/>
    </g>
    <g id="ytick_20">
     <g id="line2d_37"/>
    </g>
    <g id="ytick_21">
     <g id="line2d_38"/>
    </g>
    <g id="ytick_22">
     <g id="line2d_39"/>
    </g>
    <g id="ytick_23">
     <g id="line2d_40"/>
    </g>
    <g id="ytick_24">
     <g id="line2d_41"/>
    </g>
    <g id="ytick_25">
     <g id="line2d_42"/>
    </g>
    <g id="ytick_26">
     <g id="line2d_43"/>
    </g>
    <g id="ytick_27">
     <g id="line2d_44"/>
    </g>
    <g id="ytick_28">
     <g id="line2d_45"/>
    </g>
    <g id="ytick_29">
     <g id="line2d_46"/>
    </g>
    <g id="ytick_30">
     <g id="line2d_47"/>
    </g>
    <g id="ytick_31">
     <g id="line2d_48"/>
    </g>
    <g id="ytick_32">
     <g id="line2d_49"/>
    </g>
    <g id="ytick_33">
     <g id="line2d_50"/>
    </g>
    <g id="ytick_34">
     <g id="line2d_51"/>
    </g>
    <g id="ytick_35">
     <g id="line2d_52"/>
    </g>
    <g id="ytick_36">
     <g id="line2d_53"/>
    </g>
    <g id="ytick_37">
     <g id="line2d_54"/>
    </g>
    <g id="text_13">
     <!-- Density -->
     <g style="fill: #262626" transform="translate(11.184375 117.640078) rotate(-90) scale(0.15 -0.15)">
      <defs>
       <path id="DejaVuSerif-44" d="M 1581 331 
L 2163 331 
Q 3072 331 3558 850 
Q 4044 1369 4044 2338 
Q 4044 3306 3559 3818 
Q 3075 4331 2163 4331 
L 1581 4331 
L 1581 331 
z
M 353 0 
L 353 331 
L 947 331 
L 947 4331 
L 353 4331 
L 353 4666 
L 2209 4666 
Q 3416 4666 4089 4050 
Q 4763 3434 4763 2338 
Q 4763 1238 4088 619 
Q 3413 0 2209 0 
L 353 0 
z
" transform="scale(0.015625)"/>
       <path id="DejaVuSerif-65" d="M 3469 1600 
L 991 1600 
L 991 1575 
Q 991 903 1244 561 
Q 1497 219 1991 219 
Q 2369 219 2611 417 
Q 2853 616 2950 1006 
L 3413 1006 
Q 3275 459 2904 184 
Q 2534 -91 1931 -91 
Q 1203 -91 761 389 
Q 319 869 319 1663 
Q 319 2450 753 2931 
Q 1188 3413 1894 3413 
Q 2647 3413 3050 2948 
Q 3453 2484 3469 1600 
z
M 2791 1931 
Q 2772 2513 2545 2808 
Q 2319 3103 1894 3103 
Q 1497 3103 1269 2806 
Q 1041 2509 991 1931 
L 2791 1931 
z
" transform="scale(0.015625)"/>
       <path id="DejaVuSerif-6e" d="M 263 0 
L 263 331 
L 781 331 
L 781 2988 
L 231 2988 
L 231 3322 
L 1356 3322 
L 1356 2731 
Q 1516 3069 1770 3241 
Q 2025 3413 2363 3413 
Q 2913 3413 3172 3097 
Q 3431 2781 3431 2113 
L 3431 331 
L 3944 331 
L 3944 0 
L 2356 0 
L 2356 331 
L 2853 331 
L 2853 1931 
Q 2853 2541 2703 2767 
Q 2553 2994 2175 2994 
Q 1775 2994 1565 2701 
Q 1356 2409 1356 1850 
L 1356 331 
L 1856 331 
L 1856 0 
L 263 0 
z
" transform="scale(0.015625)"/>
       <path id="DejaVuSerif-73" d="M 359 184 
L 359 959 
L 691 959 
Q 703 588 923 403 
Q 1144 219 1575 219 
Q 1963 219 2166 364 
Q 2369 509 2369 788 
Q 2369 1006 2220 1140 
Q 2072 1275 1594 1428 
L 1178 1569 
Q 750 1706 558 1912 
Q 366 2119 366 2438 
Q 366 2894 700 3153 
Q 1034 3413 1625 3413 
Q 1888 3413 2178 3344 
Q 2469 3275 2778 3144 
L 2778 2419 
L 2447 2419 
Q 2434 2741 2221 2922 
Q 2009 3103 1644 3103 
Q 1281 3103 1095 2975 
Q 909 2847 909 2591 
Q 909 2381 1050 2254 
Q 1191 2128 1613 1997 
L 2069 1856 
Q 2541 1709 2748 1489 
Q 2956 1269 2956 922 
Q 2956 450 2595 179 
Q 2234 -91 1600 -91 
Q 1278 -91 972 -22 
Q 666 47 359 184 
z
" transform="scale(0.015625)"/>
       <path id="DejaVuSerif-69" d="M 622 4353 
Q 622 4497 726 4603 
Q 831 4709 978 4709 
Q 1122 4709 1226 4603 
Q 1331 4497 1331 4353 
Q 1331 4206 1228 4103 
Q 1125 4000 978 4000 
Q 831 4000 726 4103 
Q 622 4206 622 4353 
z
M 1356 331 
L 1900 331 
L 1900 0 
L 231 0 
L 231 331 
L 781 331 
L 781 2988 
L 231 2988 
L 231 3322 
L 1356 3322 
L 1356 331 
z
" transform="scale(0.015625)"/>
       <path id="DejaVuSerif-74" d="M 691 2988 
L 184 2988 
L 184 3322 
L 691 3322 
L 691 4353 
L 1269 4353 
L 1269 3322 
L 2350 3322 
L 2350 2988 
L 1269 2988 
L 1269 878 
Q 1269 456 1350 337 
Q 1431 219 1650 219 
Q 1875 219 1978 351 
Q 2081 484 2088 781 
L 2522 781 
Q 2497 328 2275 118 
Q 2053 -91 1600 -91 
Q 1103 -91 897 129 
Q 691 350 691 878 
L 691 2988 
z
" transform="scale(0.015625)"/>
       <path id="DejaVuSerif-79" d="M 1381 -609 
L 1600 -56 
L 359 2988 
L -19 2988 
L -19 3322 
L 1509 3322 
L 1509 2988 
L 978 2988 
L 1913 703 
L 2847 2988 
L 2350 2988 
L 2350 3322 
L 3597 3322 
L 3597 2988 
L 3225 2988 
L 1703 -750 
Q 1547 -1138 1356 -1280 
Q 1166 -1422 819 -1422 
Q 672 -1422 517 -1397 
Q 363 -1372 206 -1325 
L 206 -691 
L 500 -691 
Q 519 -903 608 -995 
Q 697 -1088 884 -1088 
Q 1056 -1088 1161 -992 
Q 1266 -897 1381 -609 
z
" transform="scale(0.015625)"/>
      </defs>
      <use xlink:href="#DejaVuSerif-44"/>
      <use xlink:href="#DejaVuSerif-65" x="80.175781"/>
      <use xlink:href="#DejaVuSerif-6e" x="139.355469"/>
      <use xlink:href="#DejaVuSerif-73" x="203.759766"/>
      <use xlink:href="#DejaVuSerif-69" x="255.078125"/>
      <use xlink:href="#DejaVuSerif-74" x="287.060547"/>
      <use xlink:href="#DejaVuSerif-79" x="327.246094"/>
     </g>
    </g>
   </g>
   <g id="PolyCollection_1">
    <path d="M 74.885487 234.201349 
L 74.885487 41668.858828 
L 75.499241 41668.858828 
L 76.112995 41668.858828 
L 76.72675 41668.858828 
L 77.340504 41668.858828 
L 77.954258 41668.858828 
L 78.568013 41668.858828 
L 79.181767 41668.858828 
L 79.795521 41668.858828 
L 80.409276 41668.858828 
L 81.02303 41668.858828 
L 81.636784 41668.858828 
L 82.250539 41668.858828 
L 82.864293 41668.858828 
L 83.478047 41668.858828 
L 84.091802 41668.858828 
L 84.705556 41668.858828 
L 85.31931 41668.858828 
L 85.933064 41668.858828 
L 86.546819 41668.858828 
L 87.160573 41668.858828 
L 87.774327 41668.858828 
L 88.388082 41668.858828 
L 89.001836 41668.858828 
L 89.61559 41668.858828 
L 90.229345 41668.858828 
L 90.843099 41668.858828 
L 91.456853 41668.858828 
L 92.070608 41668.858828 
L 92.684362 41668.858828 
L 93.298116 41668.858828 
L 93.911871 41668.858828 
L 94.525625 41668.858828 
L 95.139379 41668.858828 
L 95.753133 41668.858828 
L 96.366888 41668.858828 
L 96.980642 41668.858828 
L 97.594396 41668.858828 
L 98.208151 41668.858828 
L 98.821905 41668.858828 
L 99.435659 41668.858828 
L 100.049414 41668.858828 
L 100.663168 41668.858828 
L 101.276922 41668.858828 
L 101.890677 41668.858828 
L 102.504431 41668.858828 
L 103.118185 41668.858828 
L 103.731939 41668.858828 
L 104.345694 41668.858828 
L 104.959448 41668.858828 
L 105.573202 41668.858828 
L 106.186957 41668.858828 
L 106.800711 41668.858828 
L 107.414465 41668.858828 
L 108.02822 41668.858828 
L 108.641974 41668.858828 
L 109.255728 41668.858828 
L 109.869483 41668.858828 
L 110.483237 41668.858828 
L 111.096991 41668.858828 
L 111.710746 41668.858828 
L 112.3245 41668.858828 
L 112.938254 41668.858828 
L 113.552008 41668.858828 
L 114.165763 41668.858828 
L 114.779517 41668.858828 
L 115.393271 41668.858828 
L 116.007026 41668.858828 
L 116.62078 41668.858828 
L 117.234534 41668.858828 
L 117.848289 41668.858828 
L 118.462043 41668.858828 
L 119.075797 41668.858828 
L 119.689552 41668.858828 
L 120.303306 41668.858828 
L 120.91706 41668.858828 
L 121.530815 41668.858828 
L 122.144569 41668.858828 
L 122.758323 41668.858828 
L 123.372077 41668.858828 
L 123.985832 41668.858828 
L 124.599586 41668.858828 
L 125.21334 41668.858828 
L 125.827095 41668.858828 
L 126.440849 41668.858828 
L 127.054603 41668.858828 
L 127.668358 41668.858828 
L 128.282112 41668.858828 
L 128.895866 41668.858828 
L 129.509621 41668.858828 
L 130.123375 41668.858828 
L 130.737129 41668.858828 
L 131.350883 41668.858828 
L 131.964638 41668.858828 
L 132.578392 41668.858828 
L 133.192146 41668.858828 
L 133.805901 41668.858828 
L 134.419655 41668.858828 
L 135.033409 41668.858828 
L 135.647164 41668.858828 
L 136.260918 41668.858828 
L 136.874672 41668.858828 
L 137.488427 41668.858828 
L 138.102181 41668.858828 
L 138.715935 41668.858828 
L 139.32969 41668.858828 
L 139.943444 41668.858828 
L 140.557198 41668.858828 
L 141.170952 41668.858828 
L 141.784707 41668.858828 
L 142.398461 41668.858828 
L 143.012215 41668.858828 
L 143.62597 41668.858828 
L 144.239724 41668.858828 
L 144.853478 41668.858828 
L 145.467233 41668.858828 
L 146.080987 41668.858828 
L 146.694741 41668.858828 
L 147.308496 41668.858828 
L 147.92225 41668.858828 
L 148.536004 41668.858828 
L 149.149759 41668.858828 
L 149.763513 41668.858828 
L 150.377267 41668.858828 
L 150.991021 41668.858828 
L 151.604776 41668.858828 
L 152.21853 41668.858828 
L 152.832284 41668.858828 
L 153.446039 41668.858828 
L 154.059793 41668.858828 
L 154.673547 41668.858828 
L 155.287302 41668.858828 
L 155.901056 41668.858828 
L 156.51481 41668.858828 
L 157.128565 41668.858828 
L 157.742319 41668.858828 
L 158.356073 41668.858828 
L 158.969827 41668.858828 
L 159.583582 41668.858828 
L 160.197336 41668.858828 
L 160.81109 41668.858828 
L 161.424845 41668.858828 
L 162.038599 41668.858828 
L 162.652353 41668.858828 
L 163.266108 41668.858828 
L 163.879862 41668.858828 
L 164.493616 41668.858828 
L 165.107371 41668.858828 
L 165.721125 41668.858828 
L 166.334879 41668.858828 
L 166.948634 41668.858828 
L 167.562388 41668.858828 
L 168.176142 41668.858828 
L 168.789896 41668.858828 
L 169.403651 41668.858828 
L 170.017405 41668.858828 
L 170.631159 41668.858828 
L 171.244914 41668.858828 
L 171.858668 41668.858828 
L 172.472422 41668.858828 
L 173.086177 41668.858828 
L 173.699931 41668.858828 
L 174.313685 41668.858828 
L 174.92744 41668.858828 
L 175.541194 41668.858828 
L 176.154948 41668.858828 
L 176.768703 41668.858828 
L 177.382457 41668.858828 
L 177.996211 41668.858828 
L 178.609965 41668.858828 
L 179.22372 41668.858828 
L 179.837474 41668.858828 
L 180.451228 41668.858828 
L 181.064983 41668.858828 
L 181.678737 41668.858828 
L 182.292491 41668.858828 
L 182.906246 41668.858828 
L 183.52 41668.858828 
L 184.133754 41668.858828 
L 184.747509 41668.858828 
L 185.361263 41668.858828 
L 185.975017 41668.858828 
L 186.588771 41668.858828 
L 187.202526 41668.858828 
L 187.81628 41668.858828 
L 188.430034 41668.858828 
L 189.043789 41668.858828 
L 189.657543 41668.858828 
L 190.271297 41668.858828 
L 190.885052 41668.858828 
L 191.498806 41668.858828 
L 192.11256 41668.858828 
L 192.726315 41668.858828 
L 193.340069 41668.858828 
L 193.953823 41668.858828 
L 194.567578 41668.858828 
L 195.181332 41668.858828 
L 195.795086 41668.858828 
L 196.40884 41668.858828 
L 197.022595 41668.858828 
L 197.636349 41668.858828 
L 198.250103 41668.858828 
L 198.863858 41668.858828 
L 199.477612 41668.858828 
L 200.091366 41668.858828 
L 200.705121 41668.858828 
L 201.318875 41668.858828 
L 201.932629 41668.858828 
L 202.546384 41668.858828 
L 203.160138 41668.858828 
L 203.773892 41668.858828 
L 204.387647 41668.858828 
L 205.001401 41668.858828 
L 205.615155 41668.858828 
L 206.228909 41668.858828 
L 206.842664 41668.858828 
L 207.456418 41668.858828 
L 208.070172 41668.858828 
L 208.683927 41668.858828 
L 209.297681 41668.858828 
L 209.911435 41668.858828 
L 210.52519 41668.858828 
L 211.138944 41668.858828 
L 211.752698 41668.858828 
L 212.366453 41668.858828 
L 212.980207 41668.858828 
L 213.593961 41668.858828 
L 214.207715 41668.858828 
L 214.82147 41668.858828 
L 215.435224 41668.858828 
L 216.048978 41668.858828 
L 216.662733 41668.858828 
L 217.276487 41668.858828 
L 217.890241 41668.858828 
L 218.503996 41668.858828 
L 219.11775 41668.858828 
L 219.731504 41668.858828 
L 220.345259 41668.858828 
L 220.959013 41668.858828 
L 221.572767 41668.858828 
L 222.186522 41668.858828 
L 222.800276 41668.858828 
L 223.41403 41668.858828 
L 224.027784 41668.858828 
L 224.641539 41668.858828 
L 225.255293 41668.858828 
L 225.869047 41668.858828 
L 226.482802 41668.858828 
L 227.096556 41668.858828 
L 227.71031 41668.858828 
L 228.324065 41668.858828 
L 228.937819 41668.858828 
L 229.551573 41668.858828 
L 230.165328 41668.858828 
L 230.779082 41668.858828 
L 231.392836 41668.858828 
L 232.006591 41668.858828 
L 232.620345 41668.858828 
L 233.234099 41668.858828 
L 233.847853 41668.858828 
L 234.461608 41668.858828 
L 235.075362 41668.858828 
L 235.689116 41668.858828 
L 236.302871 41668.858828 
L 236.916625 41668.858828 
L 237.530379 41668.858828 
L 238.144134 41668.858828 
L 238.757888 41668.858828 
L 239.371642 41668.858828 
L 239.985397 41668.858828 
L 240.599151 41668.858828 
L 241.212905 41668.858828 
L 241.82666 41668.858828 
L 242.440414 41668.858828 
L 243.054168 41668.858828 
L 243.667922 41668.858828 
L 244.281677 41668.858828 
L 244.895431 41668.858828 
L 245.509185 41668.858828 
L 246.12294 41668.858828 
L 246.736694 41668.858828 
L 247.350448 41668.858828 
L 247.964203 41668.858828 
L 248.577957 41668.858828 
L 249.191711 41668.858828 
L 249.805466 41668.858828 
L 250.41922 41668.858828 
L 251.032974 41668.858828 
L 251.646728 41668.858828 
L 252.260483 41668.858828 
L 252.874237 41668.858828 
L 253.487991 41668.858828 
L 254.101746 41668.858828 
L 254.7155 41668.858828 
L 255.329254 41668.858828 
L 255.943009 41668.858828 
L 256.556763 41668.858828 
L 257.170517 41668.858828 
L 257.784272 41668.858828 
L 258.398026 41668.858828 
L 259.01178 41668.858828 
L 259.625535 41668.858828 
L 260.239289 41668.858828 
L 260.853043 41668.858828 
L 261.466797 41668.858828 
L 262.080552 41668.858828 
L 262.694306 41668.858828 
L 263.30806 41668.858828 
L 263.921815 41668.858828 
L 264.535569 41668.858828 
L 265.149323 41668.858828 
L 265.763078 41668.858828 
L 266.376832 41668.858828 
L 266.990586 41668.858828 
L 267.604341 41668.858828 
L 268.218095 41668.858828 
L 268.831849 41668.858828 
L 269.445604 41668.858828 
L 270.059358 41668.858828 
L 270.673112 41668.858828 
L 271.286866 41668.858828 
L 271.900621 41668.858828 
L 272.514375 41668.858828 
L 273.128129 41668.858828 
L 273.741884 41668.858828 
L 274.355638 41668.858828 
L 274.969392 41668.858828 
L 275.583147 41668.858828 
L 276.196901 41668.858828 
L 276.810655 41668.858828 
L 277.42441 41668.858828 
L 278.038164 41668.858828 
L 278.651918 41668.858828 
L 279.265672 41668.858828 
L 279.879427 41668.858828 
L 280.493181 41668.858828 
L 281.106935 41668.858828 
L 281.72069 41668.858828 
L 282.334444 41668.858828 
L 282.948198 41668.858828 
L 283.561953 41668.858828 
L 284.175707 41668.858828 
L 284.789461 41668.858828 
L 285.403216 41668.858828 
L 286.01697 41668.858828 
L 286.630724 41668.858828 
L 287.244479 41668.858828 
L 287.858233 41668.858828 
L 288.471987 41668.858828 
L 289.085741 41668.858828 
L 289.699496 41668.858828 
L 290.31325 41668.858828 
L 290.927004 41668.858828 
L 291.540759 41668.858828 
L 292.154513 41668.858828 
L 292.768267 41668.858828 
L 293.382022 41668.858828 
L 293.995776 41668.858828 
L 294.60953 41668.858828 
L 295.223285 41668.858828 
L 295.837039 41668.858828 
L 296.450793 41668.858828 
L 297.064548 41668.858828 
L 297.678302 41668.858828 
L 298.292056 41668.858828 
L 298.90581 41668.858828 
L 299.519565 41668.858828 
L 300.133319 41668.858828 
L 300.747073 41668.858828 
L 301.360828 41668.858828 
L 301.974582 41668.858828 
L 302.588336 41668.858828 
L 303.202091 41668.858828 
L 303.815845 41668.858828 
L 304.429599 41668.858828 
L 305.043354 41668.858828 
L 305.657108 41668.858828 
L 306.270862 41668.858828 
L 306.884616 41668.858828 
L 307.498371 41668.858828 
L 308.112125 41668.858828 
L 308.725879 41668.858828 
L 309.339634 41668.858828 
L 309.953388 41668.858828 
L 310.567142 41668.858828 
L 311.180897 41668.858828 
L 311.794651 41668.858828 
L 312.408405 41668.858828 
L 313.02216 41668.858828 
L 313.635914 41668.858828 
L 314.249668 41668.858828 
L 314.863423 41668.858828 
L 315.477177 41668.858828 
L 316.090931 41668.858828 
L 316.704685 41668.858828 
L 317.31844 41668.858828 
L 317.932194 41668.858828 
L 318.545948 41668.858828 
L 319.159703 41668.858828 
L 319.773457 41668.858828 
L 320.387211 41668.858828 
L 321.000966 41668.858828 
L 321.61472 41668.858828 
L 322.228474 41668.858828 
L 322.842229 41668.858828 
L 323.455983 41668.858828 
L 324.069737 41668.858828 
L 324.683492 41668.858828 
L 325.297246 41668.858828 
L 325.911 41668.858828 
L 326.524754 41668.858828 
L 327.138509 41668.858828 
L 327.752263 41668.858828 
L 328.366017 41668.858828 
L 328.979772 41668.858828 
L 329.593526 41668.858828 
L 330.20728 41668.858828 
L 330.821035 41668.858828 
L 331.434789 41668.858828 
L 332.048543 41668.858828 
L 332.662298 41668.858828 
L 333.276052 41668.858828 
L 333.889806 41668.858828 
L 334.50356 41668.858828 
L 335.117315 41668.858828 
L 335.731069 41668.858828 
L 336.344823 41668.858828 
L 336.958578 41668.858828 
L 337.572332 41668.858828 
L 338.186086 41668.858828 
L 338.799841 41668.858828 
L 339.413595 41668.858828 
L 340.027349 41668.858828 
L 340.641104 41668.858828 
L 341.254858 41668.858828 
L 341.868612 41668.858828 
L 342.482367 41668.858828 
L 343.096121 41668.858828 
L 343.709875 41668.858828 
L 344.323629 41668.858828 
L 344.937384 41668.858828 
L 345.551138 41668.858828 
L 346.164892 41668.858828 
L 346.778647 41668.858828 
L 347.392401 41668.858828 
L 348.006155 41668.858828 
L 348.61991 41668.858828 
L 349.233664 41668.858828 
L 349.847418 41668.858828 
L 350.461173 41668.858828 
L 351.074927 41668.858828 
L 351.688681 41668.858828 
L 352.302436 41668.858828 
L 352.91619 41668.858828 
L 353.529944 41668.858828 
L 354.143698 41668.858828 
L 354.757453 41668.858828 
L 355.371207 41668.858828 
L 355.984961 41668.858828 
L 356.598716 41668.858828 
L 357.21247 41668.858828 
L 357.826224 41668.858828 
L 358.439979 41668.858828 
L 359.053733 41668.858828 
L 359.667487 41668.858828 
L 360.281242 41668.858828 
L 360.894996 41668.858828 
L 361.50875 41668.858828 
L 362.122504 41668.858828 
L 362.736259 41668.858828 
L 363.350013 41668.858828 
L 363.963767 41668.858828 
L 364.577522 41668.858828 
L 365.191276 41668.858828 
L 365.80503 41668.858828 
L 366.418785 41668.858828 
L 367.032539 41668.858828 
L 367.646293 41668.858828 
L 368.260048 41668.858828 
L 368.873802 41668.858828 
L 369.487556 41668.858828 
L 370.101311 41668.858828 
L 370.715065 41668.858828 
L 371.328819 41668.858828 
L 371.942573 41668.858828 
L 372.556328 41668.858828 
L 373.170082 41668.858828 
L 373.783836 41668.858828 
L 374.397591 41668.858828 
L 375.011345 41668.858828 
L 375.625099 41668.858828 
L 376.238854 41668.858828 
L 376.852608 41668.858828 
L 377.466362 41668.858828 
L 378.080117 41668.858828 
L 378.693871 41668.858828 
L 379.307625 41668.858828 
L 379.92138 41668.858828 
L 380.535134 41668.858828 
L 381.148888 41668.858828 
L 381.148888 219.384205 
L 381.148888 219.384205 
L 380.535134 130.589606 
L 379.92138 90.930365 
L 379.307625 82.192395 
L 378.693871 88.091085 
L 378.080117 87.78501 
L 377.466362 88.546172 
L 376.852608 87.25866 
L 376.238854 89.464419 
L 375.625099 90.094234 
L 375.011345 91.437398 
L 374.397591 93.496581 
L 373.783836 93.483454 
L 373.170082 90.667895 
L 372.556328 89.80855 
L 371.942573 95.82831 
L 371.328819 94.255001 
L 370.715065 92.731736 
L 370.101311 88.256514 
L 369.487556 89.755121 
L 368.873802 93.950623 
L 368.260048 94.421967 
L 367.646293 88.37161 
L 367.032539 85.855072 
L 366.418785 86.989492 
L 365.80503 91.508833 
L 365.191276 90.420108 
L 364.577522 96.368499 
L 363.963767 97.939813 
L 363.350013 95.559946 
L 362.736259 89.035141 
L 362.122504 89.279008 
L 361.50875 84.31221 
L 360.894996 85.131183 
L 360.281242 87.817036 
L 359.667487 91.233573 
L 359.053733 93.133985 
L 358.439979 95.188623 
L 357.826224 93.247174 
L 357.21247 89.690264 
L 356.598716 85.724119 
L 355.984961 84.580971 
L 355.371207 85.304047 
L 354.757453 89.309062 
L 354.143698 91.033364 
L 353.529944 94.559079 
L 352.91619 95.175311 
L 352.302436 91.64377 
L 351.688681 87.472822 
L 351.074927 89.64188 
L 350.461173 85.032508 
L 349.847418 82.886652 
L 349.233664 83.861785 
L 348.61991 86.762604 
L 348.006155 91.603715 
L 347.392401 95.700739 
L 346.778647 97.625728 
L 346.164892 97.12804 
L 345.551138 95.818075 
L 344.937384 88.551033 
L 344.323629 84.247492 
L 343.709875 83.658477 
L 343.096121 83.530993 
L 342.482367 83.115325 
L 341.868612 81.59897 
L 341.254858 85.240078 
L 340.641104 88.196007 
L 340.027349 91.988967 
L 339.413595 98.830033 
L 338.799841 97.034684 
L 338.186086 93.099061 
L 337.572332 91.722704 
L 336.958578 91.710026 
L 336.344823 87.595676 
L 335.731069 83.705298 
L 335.117315 82.37825 
L 334.50356 83.664728 
L 333.889806 84.019026 
L 333.276052 84.481549 
L 332.662298 83.162103 
L 332.048543 83.545263 
L 331.434789 89.290563 
L 330.821035 98.656789 
L 330.20728 101.486092 
L 329.593526 98.09098 
L 328.979772 97.314029 
L 328.366017 92.358549 
L 327.752263 90.828111 
L 327.138509 84.455303 
L 326.524754 83.089865 
L 325.911 83.887268 
L 325.297246 82.526087 
L 324.683492 83.468505 
L 324.069737 84.558205 
L 323.455983 84.886221 
L 322.842229 83.737361 
L 322.228474 83.941877 
L 321.61472 87.138397 
L 321.000966 94.286983 
L 320.387211 97.640588 
L 319.773457 98.593876 
L 319.159703 101.933417 
L 318.545948 95.088531 
L 317.932194 89.179826 
L 317.31844 87.168039 
L 316.704685 85.300249 
L 316.090931 82.632491 
L 315.477177 84.179906 
L 314.863423 83.663273 
L 314.249668 80.29856 
L 313.635914 82.405745 
L 313.02216 84.485048 
L 312.408405 82.114971 
L 311.794651 83.39227 
L 311.180897 82.70882 
L 310.567142 84.310199 
L 309.953388 93.029184 
L 309.339634 96.948609 
L 308.725879 99.58727 
L 308.112125 100.983447 
L 307.498371 100.753796 
L 306.884616 95.391121 
L 306.270862 87.314901 
L 305.657108 84.075339 
L 305.043354 82.517855 
L 304.429599 82.339109 
L 303.815845 83.863034 
L 303.202091 82.140734 
L 302.588336 85.227588 
L 301.974582 84.165338 
L 301.360828 82.469096 
L 300.747073 83.796224 
L 300.133319 83.78003 
L 299.519565 83.31726 
L 298.90581 85.423524 
L 298.292056 90.705893 
L 297.678302 99.432492 
L 297.064548 100.461322 
L 296.450793 99.657706 
L 295.837039 98.204143 
L 295.223285 92.559944 
L 294.60953 85.515798 
L 293.995776 83.510102 
L 293.382022 80.34911 
L 292.768267 82.103132 
L 292.154513 83.824312 
L 291.540759 81.895705 
L 290.927004 83.345411 
L 290.31325 81.278522 
L 289.699496 83.890872 
L 289.085741 83.607361 
L 288.471987 82.378224 
L 287.858233 80.790156 
L 287.244479 80.483943 
L 286.630724 85.782416 
L 286.01697 94.331096 
L 285.403216 97.207433 
L 284.789461 99.447822 
L 284.175707 102.248768 
L 283.561953 102.56232 
L 282.948198 98.537404 
L 282.334444 91.180311 
L 281.72069 83.484627 
L 281.106935 83.974252 
L 280.493181 85.822785 
L 279.879427 84.223827 
L 279.265672 81.902589 
L 278.651918 80.358431 
L 278.038164 79.899166 
L 277.42441 81.636255 
L 276.810655 82.59047 
L 276.196901 82.543631 
L 275.583147 82.200334 
L 274.969392 81.728998 
L 274.355638 81.014199 
L 273.741884 89.055888 
L 273.128129 96.416944 
L 272.514375 99.43902 
L 271.900621 103.407764 
L 271.286866 102.177195 
L 270.673112 101.007282 
L 270.059358 94.750286 
L 269.445604 87.436168 
L 268.831849 82.657196 
L 268.218095 82.964519 
L 267.604341 82.649778 
L 266.990586 82.390572 
L 266.376832 82.26563 
L 265.763078 81.256757 
L 265.149323 81.007069 
L 264.535569 83.879889 
L 263.921815 84.513289 
L 263.30806 80.473615 
L 262.694306 80.459944 
L 262.080552 80.863862 
L 261.466797 85.997343 
L 260.853043 100.263217 
L 260.239289 105.658043 
L 259.625535 113.598065 
L 259.01178 109.309122 
L 258.398026 102.99299 
L 257.784272 91.167148 
L 257.170517 85.808508 
L 256.556763 83.671115 
L 255.943009 81.775476 
L 255.329254 81.493876 
L 254.7155 81.898281 
L 254.101746 81.618848 
L 253.487991 83.564865 
L 252.874237 82.406273 
L 252.260483 80.758785 
L 251.646728 79.916174 
L 251.032974 81.528557 
L 250.41922 80.453233 
L 249.805466 80.519872 
L 249.191711 82.075151 
L 248.577957 89.15944 
L 247.964203 101.302618 
L 247.350448 107.642477 
L 246.736694 115.299175 
L 246.12294 118.021801 
L 245.509185 102.783616 
L 244.895431 89.660497 
L 244.281677 84.876277 
L 243.667922 81.960731 
L 243.054168 81.485143 
L 242.440414 81.429513 
L 241.82666 82.474896 
L 241.212905 82.354361 
L 240.599151 83.182003 
L 239.985397 82.357398 
L 239.371642 80.848155 
L 238.757888 81.607464 
L 238.144134 80.296907 
L 237.530379 82.681218 
L 236.916625 84.159934 
L 236.302871 89.057958 
L 235.689116 105.311039 
L 235.075362 118.785768 
L 234.461608 118.793426 
L 233.847853 115.992344 
L 233.234099 100.546415 
L 232.620345 84.384022 
L 232.006591 81.526163 
L 231.392836 81.531595 
L 230.779082 83.616865 
L 230.165328 83.042724 
L 229.551573 80.376516 
L 228.937819 81.043863 
L 228.324065 80.703081 
L 227.71031 83.235112 
L 227.096556 83.198999 
L 226.482802 80.983036 
L 225.869047 79.151448 
L 225.255293 79.693013 
L 224.641539 84.382616 
L 224.027784 102.574031 
L 223.41403 117.487479 
L 222.800276 125.015648 
L 222.186522 118.426133 
L 221.572767 114.5171 
L 220.959013 96.327435 
L 220.345259 86.062201 
L 219.731504 81.837273 
L 219.11775 82.247943 
L 218.503996 82.401462 
L 217.890241 83.275036 
L 217.276487 81.925925 
L 216.662733 82.403199 
L 216.048978 82.357639 
L 215.435224 82.251662 
L 214.82147 82.099972 
L 214.207715 79.704895 
L 213.593961 79.233376 
L 212.980207 80.295123 
L 212.366453 89.465801 
L 211.752698 110.186932 
L 211.138944 119.097177 
L 210.52519 125.62045 
L 209.911435 125.112163 
L 209.297681 122.694249 
L 208.683927 98.434366 
L 208.070172 85.050948 
L 207.456418 84.808982 
L 206.842664 82.808118 
L 206.228909 80.231986 
L 205.615155 81.130718 
L 205.001401 82.084625 
L 204.387647 79.943111 
L 203.773892 81.605859 
L 203.160138 84.315238 
L 202.546384 83.207984 
L 201.932629 81.345065 
L 201.318875 79.615229 
L 200.705121 79.61865 
L 200.091366 82.548989 
L 199.477612 95.734791 
L 198.863858 132.146344 
L 198.250103 145.504545 
L 197.636349 134.373519 
L 197.022595 137.377851 
L 196.40884 131.327113 
L 195.795086 106.310304 
L 195.181332 85.48932 
L 194.567578 82.359304 
L 193.953823 83.814729 
L 193.340069 83.23224 
L 192.726315 80.300908 
L 192.11256 81.396828 
L 191.498806 82.083606 
L 190.885052 81.445884 
L 190.271297 79.975637 
L 189.657543 80.449641 
L 189.043789 81.973909 
L 188.430034 80.337742 
L 187.81628 81.666886 
L 187.202526 82.001015 
L 186.588771 85.921236 
L 185.975017 103.829808 
L 185.361263 130.82053 
L 184.747509 137.079956 
L 184.133754 146.428364 
L 183.52 136.007573 
L 182.906246 137.688279 
L 182.292491 123.601092 
L 181.678737 96.531961 
L 181.064983 81.904112 
L 180.451228 83.741284 
L 179.837474 82.659348 
L 179.22372 79.807108 
L 178.609965 79.981421 
L 177.996211 80.401085 
L 177.382457 82.066614 
L 176.768703 82.306683 
L 176.154948 81.94625 
L 175.541194 81.938641 
L 174.92744 81.509986 
L 174.313685 79.97349 
L 173.699931 79.71654 
L 173.086177 81.478616 
L 172.472422 85.456666 
L 171.858668 102.741819 
L 171.244914 129.19014 
L 170.631159 139.356103 
L 170.017405 143.352852 
L 169.403651 153.472527 
L 168.789896 193.194853 
L 168.176142 158.285935 
L 167.562388 118.36014 
L 166.948634 92.333536 
L 166.334879 82.495297 
L 165.721125 82.254678 
L 165.107371 81.60317 
L 164.493616 81.027146 
L 163.879862 80.713664 
L 163.266108 79.486328 
L 162.652353 80.219519 
L 162.038599 80.362139 
L 161.424845 81.471729 
L 160.81109 81.440255 
L 160.197336 80.222554 
L 159.583582 80.660784 
L 158.969827 86.484079 
L 158.356073 107.084789 
L 157.742319 139.298953 
L 157.128565 158.121206 
L 156.51481 184.267749 
L 155.901056 229.131028 
L 155.287302 172.048517 
L 154.673547 160.134122 
L 154.059793 139.429299 
L 153.446039 118.501089 
L 152.832284 92.665275 
L 152.21853 84.837325 
L 151.604776 81.993779 
L 150.991021 79.176123 
L 150.377267 77.035104 
L 149.763513 78.936226 
L 149.149759 81.010646 
L 148.536004 80.925385 
L 147.92225 78.614201 
L 147.308496 80.827162 
L 146.694741 82.468064 
L 146.080987 80.571852 
L 145.467233 80.208894 
L 144.853478 88.23834 
L 144.239724 116.095398 
L 143.62597 137.684054 
L 143.012215 151.333636 
L 142.398461 165.472582 
L 141.784707 170.991734 
L 141.170952 226.694161 
L 140.557198 194.01128 
L 139.943444 153.602048 
L 139.32969 141.607548 
L 138.715935 113.603287 
L 138.102181 88.154292 
L 137.488427 81.296569 
L 136.874672 81.778745 
L 136.260918 79.545415 
L 135.647164 77.974833 
L 135.033409 80.652933 
L 134.419655 79.899954 
L 133.805901 79.068791 
L 133.192146 80.394454 
L 132.578392 79.747684 
L 131.964638 78.451492 
L 131.350883 78.987521 
L 130.737129 80.526219 
L 130.123375 86.412106 
L 129.509621 104.607632 
L 128.895866 144.478493 
L 128.282112 168.894189 
L 127.668358 186.438132 
L 127.054603 169.331542 
L 126.440849 192.475828 
L 125.827095 161.862492 
L 125.21334 154.253798 
L 124.599586 167.661174 
L 123.985832 181.954354 
L 123.372077 241.868574 
L 122.758323 169.876151 
L 122.144569 127.668773 
L 121.530815 105.004198 
L 120.91706 95.133237 
L 120.303306 82.38667 
L 119.689552 79.429467 
L 119.075797 78.320773 
L 118.462043 77.462811 
L 117.848289 76.222087 
L 117.234534 77.670126 
L 116.62078 77.319414 
L 116.007026 77.709235 
L 115.393271 79.867935 
L 114.779517 78.363125 
L 114.165763 77.844327 
L 113.552008 77.427696 
L 112.938254 81.376761 
L 112.3245 89.266763 
L 111.710746 101.81911 
L 111.096991 118.787778 
L 110.483237 159.731578 
L 109.869483 176.925024 
L 109.255728 175.60911 
L 108.641974 241.851932 
L 108.02822 375.94639 
L 107.414465 577.892542 
L 106.800711 847.690388 
L 106.186957 1185.339927 
L 105.573202 1368.272825 
L 104.959448 997.859841 
L 104.345694 694.978905 
L 103.731939 459.476821 
L 103.118185 291.117548 
L 102.504431 189.243851 
L 101.890677 148.881178 
L 101.276922 129.199427 
L 100.663168 104.833212 
L 100.049414 96.834458 
L 99.435659 98.09085 
L 98.821905 83.081425 
L 98.208151 75.708824 
L 97.594396 74.757238 
L 96.980642 74.620694 
L 96.366888 75.346833 
L 95.753133 76.201255 
L 95.139379 73.834093 
L 94.525625 74.13505 
L 93.911871 76.331235 
L 93.298116 83.210848 
L 92.684362 95.426635 
L 92.070608 97.767813 
L 91.456853 105.592883 
L 90.843099 123.500682 
L 90.229345 175.092377 
L 89.61559 281.97981 
L 89.001836 220.61613 
L 88.388082 169.972603 
L 87.774327 187.180725 
L 87.160573 272.240541 
L 86.546819 425.152051 
L 85.933064 645.915255 
L 85.31931 934.530152 
L 84.705556 1069.031029 
L 84.091802 753.252478 
L 83.478047 505.274986 
L 82.864293 324.861783 
L 82.250539 210.569336 
L 81.636784 155.154182 
L 81.02303 143.891961 
L 80.409276 130.253414 
L 79.795521 99.972503 
L 79.181767 96.313253 
L 78.568013 77.95634 
L 77.954258 63.913276 
L 77.340504 72.348914 
L 76.72675 90.916298 
L 76.112995 105.811209 
L 75.499241 145.310395 
L 74.885487 234.201349 
z
" clip-path="url(#p07e49bbb41)" style="fill: #4c72b0; fill-opacity: 0.25; stroke: #4c72b0; stroke-width: 0.3"/>
   </g>
   <g id="patch_3">
    <path d="M 60.617188 172.018828 
L 60.617188 5.698828 
" style="fill: none"/>
   </g>
   <g id="patch_4">
    <path d="M 395.417188 172.018828 
L 395.417188 5.698828 
" style="fill: none"/>
   </g>
   <g id="patch_5">
    <path d="M 60.617188 172.018828 
L 395.417188 172.018828 
" style="fill: none"/>
   </g>
   <g id="patch_6">
    <path d="M 60.617188 5.698828 
L 395.417188 5.698828 
" style="fill: none"/>
   </g>
   <g id="text_14">
    <!-- 0 -->
    <g transform="translate(77.951578 63.714533) scale(0.1 -0.1)">
     <use xlink:href="#DejaVuSerif-30"/>
    </g>
   </g>
   <g id="text_15">
    <!-- 1 -->
    <g transform="translate(96.048971 65.701601) scale(0.1 -0.1)">
     <use xlink:href="#DejaVuSerif-31"/>
    </g>
   </g>
   <g id="text_16">
    <!-- 2 -->
    <g transform="translate(116.536965 66.663343) scale(0.1 -0.1)">
     <use xlink:href="#DejaVuSerif-32"/>
    </g>
   </g>
   <g id="text_17">
    <!-- 3 -->
    <g transform="translate(134.016426 67.652079) scale(0.1 -0.1)">
     <defs>
      <path id="DejaVuSerif-33" d="M 622 4469 
Q 988 4606 1323 4678 
Q 1659 4750 1953 4750 
Q 2638 4750 3022 4454 
Q 3406 4159 3406 3634 
Q 3406 3213 3140 2930 
Q 2875 2647 2388 2547 
Q 2963 2466 3280 2130 
Q 3597 1794 3597 1259 
Q 3597 606 3158 257 
Q 2719 -91 1894 -91 
Q 1528 -91 1179 -12 
Q 831 66 488 225 
L 488 1131 
L 838 1131 
Q 869 681 1141 450 
Q 1413 219 1906 219 
Q 2384 219 2661 495 
Q 2938 772 2938 1253 
Q 2938 1803 2653 2086 
Q 2369 2369 1819 2369 
L 1522 2369 
L 1522 2688 
L 1678 2688 
Q 2225 2688 2498 2914 
Q 2772 3141 2772 3597 
Q 2772 4006 2547 4223 
Q 2322 4441 1900 4441 
Q 1478 4441 1245 4241 
Q 1013 4041 972 3647 
L 622 3647 
L 622 4469 
z
" transform="scale(0.015625)"/>
     </defs>
     <use xlink:href="#DejaVuSerif-33"/>
    </g>
   </g>
   <g id="text_18">
    <!-- 4 -->
    <g transform="translate(148.767188 67.946096) scale(0.1 -0.1)">
     <use xlink:href="#DejaVuSerif-34"/>
    </g>
   </g>
   <g id="text_19">
    <!-- 5 -->
    <g transform="translate(162.804857 68.389701) scale(0.1 -0.1)">
     <defs>
      <path id="DejaVuSerif-35" d="M 3219 4666 
L 3219 4153 
L 1081 4153 
L 1081 2816 
Q 1244 2928 1461 2984 
Q 1678 3041 1947 3041 
Q 2703 3041 3140 2622 
Q 3578 2203 3578 1478 
Q 3578 738 3136 323 
Q 2694 -91 1894 -91 
Q 1572 -91 1234 -12 
Q 897 66 544 225 
L 544 1131 
L 897 1131 
Q 925 688 1179 453 
Q 1434 219 1894 219 
Q 2388 219 2653 544 
Q 2919 869 2919 1478 
Q 2919 2084 2655 2407 
Q 2391 2731 1894 2731 
Q 1613 2731 1398 2631 
Q 1184 2531 1019 2322 
L 750 2322 
L 750 4666 
L 3219 4666 
z
" transform="scale(0.015625)"/>
     </defs>
     <use xlink:href="#DejaVuSerif-35"/>
    </g>
   </g>
   <g id="text_20">
    <!-- 6 -->
    <g transform="translate(176.830406 68.86869) scale(0.1 -0.1)">
     <use xlink:href="#DejaVuSerif-36"/>
    </g>
   </g>
   <g id="text_21">
    <!-- 7 -->
    <g transform="translate(190.82017 69.034495) scale(0.1 -0.1)">
     <defs>
      <path id="DejaVuSerif-37" d="M 3609 4347 
L 1784 0 
L 1319 0 
L 3059 4153 
L 903 4153 
L 903 3578 
L 538 3578 
L 538 4666 
L 3609 4666 
L 3609 4347 
z
" transform="scale(0.015625)"/>
     </defs>
     <use xlink:href="#DejaVuSerif-37"/>
    </g>
   </g>
   <g id="text_22">
    <!-- 8 -->
    <g transform="translate(203.974227 69.347671) scale(0.1 -0.1)">
     <use xlink:href="#DejaVuSerif-38"/>
    </g>
   </g>
   <g id="text_23">
    <!-- 9 -->
    <g transform="translate(216.384575 69.759856) scale(0.1 -0.1)">
     <defs>
      <path id="DejaVuSerif-39" d="M 2994 2091 
Q 2784 1856 2512 1740 
Q 2241 1625 1900 1625 
Q 1206 1625 804 2044 
Q 403 2463 403 3188 
Q 403 3897 839 4323 
Q 1275 4750 2003 4750 
Q 2794 4750 3217 4161 
Q 3641 3572 3641 2478 
Q 3641 1253 3137 581 
Q 2634 -91 1722 -91 
Q 1475 -91 1203 -44 
Q 931 3 647 97 
L 647 872 
L 997 872 
Q 1038 556 1241 387 
Q 1444 219 1784 219 
Q 2391 219 2687 676 
Q 2984 1134 2994 2091 
z
M 1978 4441 
Q 1534 4441 1298 4117 
Q 1063 3794 1063 3188 
Q 1063 2581 1298 2256 
Q 1534 1931 1978 1931 
Q 2422 1931 2658 2245 
Q 2894 2559 2894 3150 
Q 2894 3772 2656 4106 
Q 2419 4441 1978 4441 
z
" transform="scale(0.015625)"/>
     </defs>
     <use xlink:href="#DejaVuSerif-39"/>
    </g>
   </g>
   <g id="text_24">
    <!-- 10 -->
    <g transform="translate(228.555735 69.718394) scale(0.1 -0.1)">
     <use xlink:href="#DejaVuSerif-31"/>
     <use xlink:href="#DejaVuSerif-30" x="63.623047"/>
    </g>
   </g>
   <g id="text_25">
    <!-- 11 -->
    <g transform="translate(240.558737 70.157961) scale(0.1 -0.1)">
     <use xlink:href="#DejaVuSerif-31"/>
     <use xlink:href="#DejaVuSerif-31" x="63.623047"/>
    </g>
   </g>
   <g id="text_26">
    <!-- 12 -->
    <g transform="translate(252.950936 70.054666) scale(0.1 -0.1)">
     <use xlink:href="#DejaVuSerif-31"/>
     <use xlink:href="#DejaVuSerif-32" x="63.623047"/>
    </g>
   </g>
   <g id="text_27">
    <!-- 13 -->
    <g transform="translate(265.464232 70.701275) scale(0.1 -0.1)">
     <use xlink:href="#DejaVuSerif-31"/>
     <use xlink:href="#DejaVuSerif-33" x="63.623047"/>
    </g>
   </g>
   <g id="text_28">
    <!-- 14 -->
    <g transform="translate(277.773162 70.863278) scale(0.1 -0.1)">
     <use xlink:href="#DejaVuSerif-31"/>
     <use xlink:href="#DejaVuSerif-34" x="63.623047"/>
    </g>
   </g>
   <g id="text_29">
    <!-- 15 -->
    <g transform="translate(290.544885 71.109013) scale(0.1 -0.1)">
     <use xlink:href="#DejaVuSerif-31"/>
     <use xlink:href="#DejaVuSerif-35" x="63.623047"/>
    </g>
   </g>
   <g id="text_30">
    <!-- 16 -->
    <g transform="translate(302.521456 71.882335) scale(0.1 -0.1)">
     <use xlink:href="#DejaVuSerif-31"/>
     <use xlink:href="#DejaVuSerif-36" x="63.623047"/>
    </g>
   </g>
   <g id="text_31">
    <!-- 17 -->
    <g transform="translate(313.9383 71.581841) scale(0.1 -0.1)">
     <use xlink:href="#DejaVuSerif-31"/>
     <use xlink:href="#DejaVuSerif-37" x="63.623047"/>
    </g>
   </g>
   <g id="text_32">
    <!-- 18 -->
    <g transform="translate(324.661183 72.341638) scale(0.1 -0.1)">
     <use xlink:href="#DejaVuSerif-31"/>
     <use xlink:href="#DejaVuSerif-38" x="63.623047"/>
    </g>
   </g>
   <g id="text_33">
    <!-- 19 -->
    <g transform="translate(334.309503 72.525945) scale(0.1 -0.1)">
     <use xlink:href="#DejaVuSerif-31"/>
     <use xlink:href="#DejaVuSerif-39" x="63.623047"/>
    </g>
   </g>
   <g id="text_34">
    <!-- 20 -->
    <g transform="translate(342.678602 72.540184) scale(0.1 -0.1)">
     <use xlink:href="#DejaVuSerif-32"/>
     <use xlink:href="#DejaVuSerif-30" x="63.623047"/>
    </g>
   </g>
   <g id="text_35">
    <!-- 21 -->
    <g transform="translate(349.920182 73.69122) scale(0.1 -0.1)">
     <use xlink:href="#DejaVuSerif-32"/>
     <use xlink:href="#DejaVuSerif-31" x="63.623047"/>
    </g>
   </g>
   <g id="text_36">
    <!-- 22 -->
    <g transform="translate(355.81515 74.592941) scale(0.1 -0.1)">
     <use xlink:href="#DejaVuSerif-32"/>
     <use xlink:href="#DejaVuSerif-32" x="63.623047"/>
    </g>
   </g>
   <g id="text_37">
    <!-- 23 -->
    <g transform="translate(361.219663 74.685644) scale(0.1 -0.1)">
     <use xlink:href="#DejaVuSerif-32"/>
     <use xlink:href="#DejaVuSerif-33" x="63.623047"/>
    </g>
   </g>
   <g id="text_38">
    <!-- 24 -->
    <g transform="translate(367.020365 75.797963) scale(0.1 -0.1)">
     <use xlink:href="#DejaVuSerif-32"/>
     <use xlink:href="#DejaVuSerif-34" x="63.623047"/>
    </g>
   </g>
   <g id="text_39">
    <!-- 25 -->
    <g transform="translate(372.465077 77.410527) scale(0.1 -0.1)">
     <use xlink:href="#DejaVuSerif-32"/>
     <use xlink:href="#DejaVuSerif-35" x="63.623047"/>
    </g>
   </g>
   <g id="text_40">
    <!-- 26+ -->
    <g transform="translate(377.748697 74.991393) scale(0.1 -0.1)">
     <defs>
      <path id="DejaVuSerif-2b" d="M 2931 4013 
L 2931 2259 
L 4684 2259 
L 4684 1753 
L 2931 1753 
L 2931 0 
L 2431 0 
L 2431 1753 
L 678 1753 
L 678 2259 
L 2431 2259 
L 2431 4013 
L 2931 4013 
z
" transform="scale(0.015625)"/>
     </defs>
     <use xlink:href="#DejaVuSerif-32"/>
     <use xlink:href="#DejaVuSerif-36" x="63.623047"/>
     <use xlink:href="#DejaVuSerif-2b" x="127.246094"/>
    </g>
   </g>
   <g id="text_41">
    <!-- tSNE 1D genGauss -->
    <g style="fill: #262626" transform="translate(217.853537 23.324027) scale(0.15 -0.15)">
     <defs>
      <path id="DejaVuSerif-53" d="M 594 225 
L 594 1288 
L 953 1284 
Q 969 753 1261 498 
Q 1553 244 2150 244 
Q 2706 244 2998 464 
Q 3291 684 3291 1106 
Q 3291 1444 3114 1625 
Q 2938 1806 2369 1978 
L 1753 2163 
Q 1084 2366 811 2669 
Q 538 2972 538 3500 
Q 538 4094 959 4422 
Q 1381 4750 2144 4750 
Q 2469 4750 2856 4679 
Q 3244 4609 3681 4475 
L 3681 3481 
L 3328 3481 
Q 3275 3975 2998 4195 
Q 2722 4416 2156 4416 
Q 1663 4416 1405 4214 
Q 1147 4013 1147 3628 
Q 1147 3294 1340 3103 
Q 1534 2913 2163 2725 
L 2741 2553 
Q 3375 2363 3645 2067 
Q 3916 1772 3916 1275 
Q 3916 597 3481 253 
Q 3047 -91 2188 -91 
Q 1803 -91 1404 -12 
Q 1006 66 594 225 
z
" transform="scale(0.015625)"/>
      <path id="DejaVuSerif-4e" d="M 313 0 
L 313 331 
L 941 331 
L 941 4331 
L 313 4331 
L 313 4666 
L 1509 4666 
L 4306 984 
L 4306 4331 
L 3681 4331 
L 3681 4666 
L 5319 4666 
L 5319 4331 
L 4691 4331 
L 4691 -91 
L 4313 -91 
L 1325 3841 
L 1325 331 
L 1953 331 
L 1953 0 
L 313 0 
z
" transform="scale(0.015625)"/>
      <path id="DejaVuSerif-45" d="M 353 0 
L 353 331 
L 947 331 
L 947 4331 
L 353 4331 
L 353 4666 
L 4109 4666 
L 4109 3628 
L 3725 3628 
L 3725 4281 
L 1581 4281 
L 1581 2719 
L 3109 2719 
L 3109 3303 
L 3494 3303 
L 3494 1753 
L 3109 1753 
L 3109 2338 
L 1581 2338 
L 1581 384 
L 3775 384 
L 3775 1038 
L 4159 1038 
L 4159 0 
L 353 0 
z
" transform="scale(0.015625)"/>
      <path id="DejaVuSerif-20" transform="scale(0.015625)"/>
      <path id="DejaVuSerif-67" d="M 3359 2988 
L 3359 72 
Q 3359 -644 2965 -1033 
Q 2572 -1422 1844 -1422 
Q 1516 -1422 1216 -1362 
Q 916 -1303 641 -1184 
L 641 -488 
L 941 -488 
Q 997 -813 1206 -963 
Q 1416 -1113 1806 -1113 
Q 2313 -1113 2548 -827 
Q 2784 -541 2784 72 
L 2784 519 
Q 2616 206 2355 57 
Q 2094 -91 1709 -91 
Q 1097 -91 708 395 
Q 319 881 319 1663 
Q 319 2444 706 2928 
Q 1094 3413 1709 3413 
Q 2094 3413 2355 3264 
Q 2616 3116 2784 2803 
L 2784 3322 
L 3909 3322 
L 3909 2988 
L 3359 2988 
z
M 2784 1825 
Q 2784 2422 2554 2737 
Q 2325 3053 1888 3053 
Q 1444 3053 1217 2703 
Q 991 2353 991 1663 
Q 991 975 1217 622 
Q 1444 269 1888 269 
Q 2325 269 2554 583 
Q 2784 897 2784 1497 
L 2784 1825 
z
" transform="scale(0.015625)"/>
      <path id="DejaVuSerif-47" d="M 4097 3272 
Q 3988 3856 3641 4136 
Q 3294 4416 2675 4416 
Q 1869 4416 1472 3897 
Q 1075 3378 1075 2328 
Q 1075 1300 1484 772 
Q 1894 244 2688 244 
Q 3041 244 3362 331 
Q 3684 419 3975 594 
L 3975 1797 
L 3097 1797 
L 3097 2131 
L 4609 2131 
L 4609 391 
Q 4194 150 3714 29 
Q 3234 -91 2688 -91 
Q 1631 -91 995 570 
Q 359 1231 359 2328 
Q 359 3434 996 4092 
Q 1634 4750 2713 4750 
Q 3113 4750 3539 4658 
Q 3966 4566 4447 4378 
L 4447 3272 
L 4097 3272 
z
" transform="scale(0.015625)"/>
      <path id="DejaVuSerif-61" d="M 2547 1044 
L 2547 1747 
L 1806 1747 
Q 1378 1747 1168 1562 
Q 959 1378 959 997 
Q 959 650 1171 447 
Q 1384 244 1747 244 
Q 2106 244 2326 466 
Q 2547 688 2547 1044 
z
M 3122 2075 
L 3122 331 
L 3634 331 
L 3634 0 
L 2547 0 
L 2547 359 
Q 2356 128 2106 18 
Q 1856 -91 1522 -91 
Q 969 -91 644 203 
Q 319 497 319 997 
Q 319 1513 691 1797 
Q 1063 2081 1741 2081 
L 2547 2081 
L 2547 2309 
Q 2547 2688 2317 2895 
Q 2088 3103 1672 3103 
Q 1328 3103 1125 2947 
Q 922 2791 872 2484 
L 575 2484 
L 575 3156 
Q 875 3284 1158 3348 
Q 1441 3413 1709 3413 
Q 2400 3413 2761 3070 
Q 3122 2728 3122 2075 
z
" transform="scale(0.015625)"/>
      <path id="DejaVuSerif-75" d="M 2266 3322 
L 3341 3322 
L 3341 331 
L 3884 331 
L 3884 0 
L 2766 0 
L 2766 588 
Q 2606 256 2353 82 
Q 2100 -91 1766 -91 
Q 1213 -91 952 223 
Q 691 538 691 1209 
L 691 2988 
L 172 2988 
L 172 3322 
L 1269 3322 
L 1269 1388 
Q 1269 781 1417 556 
Q 1566 331 1947 331 
Q 2347 331 2556 625 
Q 2766 919 2766 1478 
L 2766 2988 
L 2266 2988 
L 2266 3322 
z
" transform="scale(0.015625)"/>
     </defs>
     <use xlink:href="#DejaVuSerif-74"/>
     <use xlink:href="#DejaVuSerif-53" x="40.185547"/>
     <use xlink:href="#DejaVuSerif-4e" x="108.691406"/>
     <use xlink:href="#DejaVuSerif-45" x="196.191406"/>
     <use xlink:href="#DejaVuSerif-20" x="269.189453"/>
     <use xlink:href="#DejaVuSerif-31" x="300.976562"/>
     <use xlink:href="#DejaVuSerif-44" x="364.599609"/>
     <use xlink:href="#DejaVuSerif-20" x="444.775391"/>
     <use xlink:href="#DejaVuSerif-67" x="476.5625"/>
     <use xlink:href="#DejaVuSerif-65" x="540.576172"/>
     <use xlink:href="#DejaVuSerif-6e" x="599.755859"/>
     <use xlink:href="#DejaVuSerif-47" x="664.160156"/>
     <use xlink:href="#DejaVuSerif-61" x="744.042969"/>
     <use xlink:href="#DejaVuSerif-75" x="803.662109"/>
     <use xlink:href="#DejaVuSerif-73" x="868.066406"/>
     <use xlink:href="#DejaVuSerif-73" x="919.384766"/>
    </g>
   </g>
  </g>
 </g>
 <defs>
  <clipPath id="p07e49bbb41">
   <rect x="60.617188" y="5.698828" width="334.8" height="166.32"/>
  </clipPath>
 </defs>
</svg>
