<?xml version="1.0" encoding="utf-8" standalone="no"?>
<!DOCTYPE svg PUBLIC "-//W3C//DTD SVG 1.1//EN"
  "http://www.w3.org/Graphics/SVG/1.1/DTD/svg11.dtd">
<svg xmlns:xlink="http://www.w3.org/1999/xlink" width="397.581925pt" height="212.053203pt" viewBox="0 0 397.581925 212.053203" xmlns="http://www.w3.org/2000/svg" version="1.1">
 <metadata>
  <rdf:RDF xmlns:dc="http://purl.org/dc/elements/1.1/" xmlns:cc="http://creativecommons.org/ns#" xmlns:rdf="http://www.w3.org/1999/02/22-rdf-syntax-ns#">
   <cc:Work>
    <dc:type rdf:resource="http://purl.org/dc/dcmitype/StillImage"/>
    <dc:date>2024-11-11T11:53:35.440567</dc:date>
    <dc:format>image/svg+xml</dc:format>
    <dc:creator>
     <cc:Agent>
      <dc:title>Matplotlib v3.9.2, https://matplotlib.org/</dc:title>
     </cc:Agent>
    </dc:creator>
   </cc:Work>
  </rdf:RDF>
 </metadata>
 <defs>
  <style type="text/css">*{stroke-linejoin: round; stroke-linecap: butt}</style>
 </defs>
 <g id="figure_1">
  <g id="patch_1">
   <path d="M 0 212.053203 
L 397.581925 212.053203 
L 397.581925 0 
L 0 0 
z
" style="fill: #ffffff"/>
  </g>
  <g id="axes_1">
   <g id="patch_2">
    <path d="M 60.617188 172.018828 
L 395.417188 172.018828 
L 395.417188 5.698828 
L 60.617188 5.698828 
z
" style="fill: #eaeaf2"/>
   </g>
   <g id="matplotlib.axis_1">
    <g id="xtick_1">
     <g id="line2d_1">
      <path d="M 75.835369 172.018828 
L 75.835369 5.698828 
" clip-path="url(#p6860ca0cae)" style="fill: none; stroke: #ffffff; stroke-linecap: round"/>
     </g>
     <g id="line2d_2"/>
     <g id="text_1">
      <!-- 0.0 -->
      <g style="fill: #262626" transform="translate(63.908026 190.416484) scale(0.15 -0.15)">
       <defs>
        <path id="DejaVuSerif-30" d="M 2034 219 
Q 2513 219 2750 744 
Q 2988 1269 2988 2328 
Q 2988 3391 2750 3916 
Q 2513 4441 2034 4441 
Q 1556 4441 1318 3916 
Q 1081 3391 1081 2328 
Q 1081 1269 1318 744 
Q 1556 219 2034 219 
z
M 2034 -91 
Q 1275 -91 848 546 
Q 422 1184 422 2328 
Q 422 3475 848 4112 
Q 1275 4750 2034 4750 
Q 2797 4750 3222 4112 
Q 3647 3475 3647 2328 
Q 3647 1184 3222 546 
Q 2797 -91 2034 -91 
z
" transform="scale(0.015625)"/>
        <path id="DejaVuSerif-2e" d="M 603 325 
Q 603 500 722 622 
Q 841 744 1019 744 
Q 1191 744 1312 622 
Q 1434 500 1434 325 
Q 1434 153 1312 31 
Q 1191 -91 1019 -91 
Q 841 -91 722 29 
Q 603 150 603 325 
z
" transform="scale(0.015625)"/>
       </defs>
       <use xlink:href="#DejaVuSerif-30"/>
       <use xlink:href="#DejaVuSerif-2e" x="63.623047"/>
       <use xlink:href="#DejaVuSerif-30" x="95.410156"/>
      </g>
     </g>
    </g>
    <g id="xtick_2">
     <g id="line2d_3">
      <path d="M 136.708097 172.018828 
L 136.708097 5.698828 
" clip-path="url(#p6860ca0cae)" style="fill: none; stroke: #ffffff; stroke-linecap: round"/>
     </g>
     <g id="line2d_4"/>
     <g id="text_2">
      <!-- 0.2 -->
      <g style="fill: #262626" transform="translate(124.780753 190.416484) scale(0.15 -0.15)">
       <defs>
        <path id="DejaVuSerif-32" d="M 819 3553 
L 469 3553 
L 469 4384 
Q 803 4563 1142 4656 
Q 1481 4750 1806 4750 
Q 2534 4750 2956 4397 
Q 3378 4044 3378 3438 
Q 3378 2753 2422 1800 
Q 2347 1728 2309 1691 
L 1131 513 
L 3078 513 
L 3078 1088 
L 3444 1088 
L 3444 0 
L 434 0 
L 434 341 
L 1850 1753 
Q 2319 2222 2519 2614 
Q 2719 3006 2719 3438 
Q 2719 3909 2473 4175 
Q 2228 4441 1797 4441 
Q 1350 4441 1106 4219 
Q 863 3997 819 3553 
z
" transform="scale(0.015625)"/>
       </defs>
       <use xlink:href="#DejaVuSerif-30"/>
       <use xlink:href="#DejaVuSerif-2e" x="63.623047"/>
       <use xlink:href="#DejaVuSerif-32" x="95.410156"/>
      </g>
     </g>
    </g>
    <g id="xtick_3">
     <g id="line2d_5">
      <path d="M 197.580824 172.018828 
L 197.580824 5.698828 
" clip-path="url(#p6860ca0cae)" style="fill: none; stroke: #ffffff; stroke-linecap: round"/>
     </g>
     <g id="line2d_6"/>
     <g id="text_3">
      <!-- 0.4 -->
      <g style="fill: #262626" transform="translate(185.65348 190.416484) scale(0.15 -0.15)">
       <defs>
        <path id="DejaVuSerif-34" d="M 2234 1581 
L 2234 4063 
L 641 1581 
L 2234 1581 
z
M 3609 0 
L 1484 0 
L 1484 331 
L 2234 331 
L 2234 1247 
L 197 1247 
L 197 1588 
L 2241 4750 
L 2859 4750 
L 2859 1581 
L 3750 1581 
L 3750 1247 
L 2859 1247 
L 2859 331 
L 3609 331 
L 3609 0 
z
" transform="scale(0.015625)"/>
       </defs>
       <use xlink:href="#DejaVuSerif-30"/>
       <use xlink:href="#DejaVuSerif-2e" x="63.623047"/>
       <use xlink:href="#DejaVuSerif-34" x="95.410156"/>
      </g>
     </g>
    </g>
    <g id="xtick_4">
     <g id="line2d_7">
      <path d="M 258.453551 172.018828 
L 258.453551 5.698828 
" clip-path="url(#p6860ca0cae)" style="fill: none; stroke: #ffffff; stroke-linecap: round"/>
     </g>
     <g id="line2d_8"/>
     <g id="text_4">
      <!-- 0.6 -->
      <g style="fill: #262626" transform="translate(246.526207 190.416484) scale(0.15 -0.15)">
       <defs>
        <path id="DejaVuSerif-36" d="M 2094 219 
Q 2534 219 2771 542 
Q 3009 866 3009 1472 
Q 3009 2078 2771 2401 
Q 2534 2725 2094 2725 
Q 1647 2725 1412 2412 
Q 1178 2100 1178 1509 
Q 1178 888 1415 553 
Q 1653 219 2094 219 
z
M 1075 2569 
Q 1288 2803 1556 2918 
Q 1825 3034 2163 3034 
Q 2859 3034 3264 2615 
Q 3669 2197 3669 1472 
Q 3669 763 3233 336 
Q 2797 -91 2069 -91 
Q 1278 -91 853 498 
Q 428 1088 428 2181 
Q 428 3406 931 4078 
Q 1434 4750 2350 4750 
Q 2597 4750 2869 4703 
Q 3141 4656 3425 4563 
L 3425 3794 
L 3072 3794 
Q 3034 4109 2831 4275 
Q 2628 4441 2284 4441 
Q 1678 4441 1381 3981 
Q 1084 3522 1075 2569 
z
" transform="scale(0.015625)"/>
       </defs>
       <use xlink:href="#DejaVuSerif-30"/>
       <use xlink:href="#DejaVuSerif-2e" x="63.623047"/>
       <use xlink:href="#DejaVuSerif-36" x="95.410156"/>
      </g>
     </g>
    </g>
    <g id="xtick_5">
     <g id="line2d_9">
      <path d="M 319.326278 172.018828 
L 319.326278 5.698828 
" clip-path="url(#p6860ca0cae)" style="fill: none; stroke: #ffffff; stroke-linecap: round"/>
     </g>
     <g id="line2d_10"/>
     <g id="text_5">
      <!-- 0.8 -->
      <g style="fill: #262626" transform="translate(307.398935 190.416484) scale(0.15 -0.15)">
       <defs>
        <path id="DejaVuSerif-38" d="M 2981 1275 
Q 2981 1775 2732 2051 
Q 2484 2328 2034 2328 
Q 1584 2328 1336 2051 
Q 1088 1775 1088 1275 
Q 1088 772 1336 495 
Q 1584 219 2034 219 
Q 2484 219 2732 495 
Q 2981 772 2981 1275 
z
M 2853 3541 
Q 2853 3966 2637 4203 
Q 2422 4441 2034 4441 
Q 1650 4441 1433 4203 
Q 1216 3966 1216 3541 
Q 1216 3113 1433 2875 
Q 1650 2638 2034 2638 
Q 2422 2638 2637 2875 
Q 2853 3113 2853 3541 
z
M 2516 2484 
Q 3047 2413 3344 2092 
Q 3641 1772 3641 1275 
Q 3641 619 3225 264 
Q 2809 -91 2034 -91 
Q 1263 -91 845 264 
Q 428 619 428 1275 
Q 428 1772 725 2092 
Q 1022 2413 1556 2484 
Q 1084 2569 832 2842 
Q 581 3116 581 3541 
Q 581 4103 968 4426 
Q 1356 4750 2034 4750 
Q 2713 4750 3100 4426 
Q 3488 4103 3488 3541 
Q 3488 3116 3236 2842 
Q 2984 2569 2516 2484 
z
" transform="scale(0.015625)"/>
       </defs>
       <use xlink:href="#DejaVuSerif-30"/>
       <use xlink:href="#DejaVuSerif-2e" x="63.623047"/>
       <use xlink:href="#DejaVuSerif-38" x="95.410156"/>
      </g>
     </g>
    </g>
    <g id="xtick_6">
     <g id="line2d_11">
      <path d="M 380.199006 172.018828 
L 380.199006 5.698828 
" clip-path="url(#p6860ca0cae)" style="fill: none; stroke: #ffffff; stroke-linecap: round"/>
     </g>
     <g id="line2d_12"/>
     <g id="text_6">
      <!-- 1.0 -->
      <g style="fill: #262626" transform="translate(368.271662 190.416484) scale(0.15 -0.15)">
       <defs>
        <path id="DejaVuSerif-31" d="M 909 0 
L 909 331 
L 1722 331 
L 1722 4213 
L 781 3603 
L 781 4013 
L 1919 4750 
L 2350 4750 
L 2350 331 
L 3163 331 
L 3163 0 
L 909 0 
z
" transform="scale(0.015625)"/>
       </defs>
       <use xlink:href="#DejaVuSerif-31"/>
       <use xlink:href="#DejaVuSerif-2e" x="63.623047"/>
       <use xlink:href="#DejaVuSerif-30" x="95.410156"/>
      </g>
     </g>
    </g>
    <g id="text_7">
     <!-- $s_1$ -->
     <g style="fill: #262626" transform="translate(220.517188 208.933672) scale(0.15 -0.15)">
      <defs>
       <path id="DejaVuSans-Oblique-73" d="M 3200 3397 
L 3091 2853 
Q 2863 2978 2609 3040 
Q 2356 3103 2088 3103 
Q 1634 3103 1373 2948 
Q 1113 2794 1113 2528 
Q 1113 2219 1719 2053 
Q 1766 2041 1788 2034 
L 1972 1978 
Q 2547 1819 2739 1644 
Q 2931 1469 2931 1166 
Q 2931 609 2489 259 
Q 2047 -91 1331 -91 
Q 1053 -91 747 -37 
Q 441 16 72 128 
L 184 722 
Q 500 559 806 475 
Q 1113 391 1394 391 
Q 1816 391 2080 572 
Q 2344 753 2344 1031 
Q 2344 1331 1650 1516 
L 1591 1531 
L 1394 1581 
Q 956 1697 753 1886 
Q 550 2075 550 2369 
Q 550 2928 970 3256 
Q 1391 3584 2113 3584 
Q 2397 3584 2667 3537 
Q 2938 3491 3200 3397 
z
" transform="scale(0.015625)"/>
       <path id="DejaVuSans-31" d="M 794 531 
L 1825 531 
L 1825 4091 
L 703 3866 
L 703 4441 
L 1819 4666 
L 2450 4666 
L 2450 531 
L 3481 531 
L 3481 0 
L 794 0 
L 794 531 
z
" transform="scale(0.015625)"/>
      </defs>
      <use xlink:href="#DejaVuSans-Oblique-73"/>
      <use xlink:href="#DejaVuSans-31" transform="translate(52.099609 -16.40625) scale(0.7)"/>
     </g>
    </g>
   </g>
   <g id="matplotlib.axis_2">
    <g id="ytick_1">
     <g id="line2d_13">
      <path d="M 60.617188 172.018828 
L 395.417188 172.018828 
" clip-path="url(#p6860ca0cae)" style="fill: none; stroke: #ffffff; stroke-linecap: round"/>
     </g>
     <g id="line2d_14"/>
     <g id="text_8">
      <!-- $\mathdefault{10^{-2}}$ -->
      <g style="fill: #262626" transform="translate(18.517187 177.717656) scale(0.15 -0.15)">
       <defs>
        <path id="DejaVuSerif-2212" d="M 678 2259 
L 4684 2259 
L 4684 1753 
L 678 1753 
L 678 2259 
z
" transform="scale(0.015625)"/>
       </defs>
       <use xlink:href="#DejaVuSerif-31" transform="translate(0 0.7125)"/>
       <use xlink:href="#DejaVuSerif-30" transform="translate(63.623047 0.7125)"/>
       <use xlink:href="#DejaVuSerif-2212" transform="translate(128.154453 37.046875) scale(0.7)"/>
       <use xlink:href="#DejaVuSerif-32" transform="translate(186.806797 37.046875) scale(0.7)"/>
      </g>
     </g>
    </g>
    <g id="ytick_2">
     <g id="line2d_15">
      <path d="M 60.617188 130.438828 
L 395.417188 130.438828 
" clip-path="url(#p6860ca0cae)" style="fill: none; stroke: #ffffff; stroke-linecap: round"/>
     </g>
     <g id="line2d_16"/>
     <g id="text_9">
      <!-- $\mathdefault{10^{-1}}$ -->
      <g style="fill: #262626" transform="translate(18.517187 136.137656) scale(0.15 -0.15)">
       <use xlink:href="#DejaVuSerif-31" transform="translate(0 0.7125)"/>
       <use xlink:href="#DejaVuSerif-30" transform="translate(63.623047 0.7125)"/>
       <use xlink:href="#DejaVuSerif-2212" transform="translate(128.154453 37.046875) scale(0.7)"/>
       <use xlink:href="#DejaVuSerif-31" transform="translate(186.806797 37.046875) scale(0.7)"/>
      </g>
     </g>
    </g>
    <g id="ytick_3">
     <g id="line2d_17">
      <path d="M 60.617188 88.858828 
L 395.417188 88.858828 
" clip-path="url(#p6860ca0cae)" style="fill: none; stroke: #ffffff; stroke-linecap: round"/>
     </g>
     <g id="line2d_18"/>
     <g id="text_10">
      <!-- $\mathdefault{10^{0}}$ -->
      <g style="fill: #262626" transform="translate(27.217188 94.557656) scale(0.15 -0.15)">
       <use xlink:href="#DejaVuSerif-31" transform="translate(0 0.7125)"/>
       <use xlink:href="#DejaVuSerif-30" transform="translate(63.623047 0.7125)"/>
       <use xlink:href="#DejaVuSerif-30" transform="translate(128.154453 37.046875) scale(0.7)"/>
      </g>
     </g>
    </g>
    <g id="ytick_4">
     <g id="line2d_19">
      <path d="M 60.617188 47.278828 
L 395.417188 47.278828 
" clip-path="url(#p6860ca0cae)" style="fill: none; stroke: #ffffff; stroke-linecap: round"/>
     </g>
     <g id="line2d_20"/>
     <g id="text_11">
      <!-- $\mathdefault{10^{1}}$ -->
      <g style="fill: #262626" transform="translate(27.217188 52.977656) scale(0.15 -0.15)">
       <use xlink:href="#DejaVuSerif-31" transform="translate(0 0.7125)"/>
       <use xlink:href="#DejaVuSerif-30" transform="translate(63.623047 0.7125)"/>
       <use xlink:href="#DejaVuSerif-31" transform="translate(128.154453 37.046875) scale(0.7)"/>
      </g>
     </g>
    </g>
    <g id="ytick_5">
     <g id="line2d_21">
      <path d="M 60.617188 5.698828 
L 395.417188 5.698828 
" clip-path="url(#p6860ca0cae)" style="fill: none; stroke: #ffffff; stroke-linecap: round"/>
     </g>
     <g id="line2d_22"/>
     <g id="text_12">
      <!-- $\mathdefault{10^{2}}$ -->
      <g style="fill: #262626" transform="translate(27.217188 11.397656) scale(0.15 -0.15)">
       <use xlink:href="#DejaVuSerif-31" transform="translate(0 0.7125)"/>
       <use xlink:href="#DejaVuSerif-30" transform="translate(63.623047 0.7125)"/>
       <use xlink:href="#DejaVuSerif-32" transform="translate(128.154453 37.046875) scale(0.7)"/>
      </g>
     </g>
    </g>
    <g id="ytick_6">
     <g id="line2d_23"/>
    </g>
    <g id="ytick_7">
     <g id="line2d_24"/>
    </g>
    <g id="ytick_8">
     <g id="line2d_25"/>
    </g>
    <g id="ytick_9">
     <g id="line2d_26"/>
    </g>
    <g id="ytick_10">
     <g id="line2d_27"/>
    </g>
    <g id="ytick_11">
     <g id="line2d_28"/>
    </g>
    <g id="ytick_12">
     <g id="line2d_29"/>
    </g>
    <g id="ytick_13">
     <g id="line2d_30"/>
    </g>
    <g id="ytick_14">
     <g id="line2d_31"/>
    </g>
    <g id="ytick_15">
     <g id="line2d_32"/>
    </g>
    <g id="ytick_16">
     <g id="line2d_33"/>
    </g>
    <g id="ytick_17">
     <g id="line2d_34"/>
    </g>
    <g id="ytick_18">
     <g id="line2d_35"/>
    </g>
    <g id="ytick_19">
     <g id="line2d_36"/>
    </g>
    <g id="ytick_20">
     <g id="line2d_37"/>
    </g>
    <g id="ytick_21">
     <g id="line2d_38"/>
    </g>
    <g id="ytick_22">
     <g id="line2d_39"/>
    </g>
    <g id="ytick_23">
     <g id="line2d_40"/>
    </g>
    <g id="ytick_24">
     <g id="line2d_41"/>
    </g>
    <g id="ytick_25">
     <g id="line2d_42"/>
    </g>
    <g id="ytick_26">
     <g id="line2d_43"/>
    </g>
    <g id="ytick_27">
     <g id="line2d_44"/>
    </g>
    <g id="ytick_28">
     <g id="line2d_45"/>
    </g>
    <g id="ytick_29">
     <g id="line2d_46"/>
    </g>
    <g id="ytick_30">
     <g id="line2d_47"/>
    </g>
    <g id="ytick_31">
     <g id="line2d_48"/>
    </g>
    <g id="ytick_32">
     <g id="line2d_49"/>
    </g>
    <g id="ytick_33">
     <g id="line2d_50"/>
    </g>
    <g id="ytick_34">
     <g id="line2d_51"/>
    </g>
    <g id="ytick_35">
     <g id="line2d_52"/>
    </g>
    <g id="ytick_36">
     <g id="line2d_53"/>
    </g>
    <g id="ytick_37">
     <g id="line2d_54"/>
    </g>
    <g id="text_13">
     <!-- Density -->
     <g style="fill: #262626" transform="translate(11.184375 117.640078) rotate(-90) scale(0.15 -0.15)">
      <defs>
       <path id="DejaVuSerif-44" d="M 1581 331 
L 2163 331 
Q 3072 331 3558 850 
Q 4044 1369 4044 2338 
Q 4044 3306 3559 3818 
Q 3075 4331 2163 4331 
L 1581 4331 
L 1581 331 
z
M 353 0 
L 353 331 
L 947 331 
L 947 4331 
L 353 4331 
L 353 4666 
L 2209 4666 
Q 3416 4666 4089 4050 
Q 4763 3434 4763 2338 
Q 4763 1238 4088 619 
Q 3413 0 2209 0 
L 353 0 
z
" transform="scale(0.015625)"/>
       <path id="DejaVuSerif-65" d="M 3469 1600 
L 991 1600 
L 991 1575 
Q 991 903 1244 561 
Q 1497 219 1991 219 
Q 2369 219 2611 417 
Q 2853 616 2950 1006 
L 3413 1006 
Q 3275 459 2904 184 
Q 2534 -91 1931 -91 
Q 1203 -91 761 389 
Q 319 869 319 1663 
Q 319 2450 753 2931 
Q 1188 3413 1894 3413 
Q 2647 3413 3050 2948 
Q 3453 2484 3469 1600 
z
M 2791 1931 
Q 2772 2513 2545 2808 
Q 2319 3103 1894 3103 
Q 1497 3103 1269 2806 
Q 1041 2509 991 1931 
L 2791 1931 
z
" transform="scale(0.015625)"/>
       <path id="DejaVuSerif-6e" d="M 263 0 
L 263 331 
L 781 331 
L 781 2988 
L 231 2988 
L 231 3322 
L 1356 3322 
L 1356 2731 
Q 1516 3069 1770 3241 
Q 2025 3413 2363 3413 
Q 2913 3413 3172 3097 
Q 3431 2781 3431 2113 
L 3431 331 
L 3944 331 
L 3944 0 
L 2356 0 
L 2356 331 
L 2853 331 
L 2853 1931 
Q 2853 2541 2703 2767 
Q 2553 2994 2175 2994 
Q 1775 2994 1565 2701 
Q 1356 2409 1356 1850 
L 1356 331 
L 1856 331 
L 1856 0 
L 263 0 
z
" transform="scale(0.015625)"/>
       <path id="DejaVuSerif-73" d="M 359 184 
L 359 959 
L 691 959 
Q 703 588 923 403 
Q 1144 219 1575 219 
Q 1963 219 2166 364 
Q 2369 509 2369 788 
Q 2369 1006 2220 1140 
Q 2072 1275 1594 1428 
L 1178 1569 
Q 750 1706 558 1912 
Q 366 2119 366 2438 
Q 366 2894 700 3153 
Q 1034 3413 1625 3413 
Q 1888 3413 2178 3344 
Q 2469 3275 2778 3144 
L 2778 2419 
L 2447 2419 
Q 2434 2741 2221 2922 
Q 2009 3103 1644 3103 
Q 1281 3103 1095 2975 
Q 909 2847 909 2591 
Q 909 2381 1050 2254 
Q 1191 2128 1613 1997 
L 2069 1856 
Q 2541 1709 2748 1489 
Q 2956 1269 2956 922 
Q 2956 450 2595 179 
Q 2234 -91 1600 -91 
Q 1278 -91 972 -22 
Q 666 47 359 184 
z
" transform="scale(0.015625)"/>
       <path id="DejaVuSerif-69" d="M 622 4353 
Q 622 4497 726 4603 
Q 831 4709 978 4709 
Q 1122 4709 1226 4603 
Q 1331 4497 1331 4353 
Q 1331 4206 1228 4103 
Q 1125 4000 978 4000 
Q 831 4000 726 4103 
Q 622 4206 622 4353 
z
M 1356 331 
L 1900 331 
L 1900 0 
L 231 0 
L 231 331 
L 781 331 
L 781 2988 
L 231 2988 
L 231 3322 
L 1356 3322 
L 1356 331 
z
" transform="scale(0.015625)"/>
       <path id="DejaVuSerif-74" d="M 691 2988 
L 184 2988 
L 184 3322 
L 691 3322 
L 691 4353 
L 1269 4353 
L 1269 3322 
L 2350 3322 
L 2350 2988 
L 1269 2988 
L 1269 878 
Q 1269 456 1350 337 
Q 1431 219 1650 219 
Q 1875 219 1978 351 
Q 2081 484 2088 781 
L 2522 781 
Q 2497 328 2275 118 
Q 2053 -91 1600 -91 
Q 1103 -91 897 129 
Q 691 350 691 878 
L 691 2988 
z
" transform="scale(0.015625)"/>
       <path id="DejaVuSerif-79" d="M 1381 -609 
L 1600 -56 
L 359 2988 
L -19 2988 
L -19 3322 
L 1509 3322 
L 1509 2988 
L 978 2988 
L 1913 703 
L 2847 2988 
L 2350 2988 
L 2350 3322 
L 3597 3322 
L 3597 2988 
L 3225 2988 
L 1703 -750 
Q 1547 -1138 1356 -1280 
Q 1166 -1422 819 -1422 
Q 672 -1422 517 -1397 
Q 363 -1372 206 -1325 
L 206 -691 
L 500 -691 
Q 519 -903 608 -995 
Q 697 -1088 884 -1088 
Q 1056 -1088 1161 -992 
Q 1266 -897 1381 -609 
z
" transform="scale(0.015625)"/>
      </defs>
      <use xlink:href="#DejaVuSerif-44"/>
      <use xlink:href="#DejaVuSerif-65" x="80.175781"/>
      <use xlink:href="#DejaVuSerif-6e" x="139.355469"/>
      <use xlink:href="#DejaVuSerif-73" x="203.759766"/>
      <use xlink:href="#DejaVuSerif-69" x="255.078125"/>
      <use xlink:href="#DejaVuSerif-74" x="287.060547"/>
      <use xlink:href="#DejaVuSerif-79" x="327.246094"/>
     </g>
    </g>
   </g>
   <g id="PolyCollection_1">
    <path d="M 74.910663 246.081664 
L 74.910663 41668.858828 
L 75.524316 41668.858828 
L 76.13797 41668.858828 
L 76.751623 41668.858828 
L 77.365277 41668.858828 
L 77.97893 41668.858828 
L 78.592584 41668.858828 
L 79.206237 41668.858828 
L 79.81989 41668.858828 
L 80.433544 41668.858828 
L 81.047197 41668.858828 
L 81.660851 41668.858828 
L 82.274504 41668.858828 
L 82.888157 41668.858828 
L 83.501811 41668.858828 
L 84.115464 41668.858828 
L 84.729118 41668.858828 
L 85.342771 41668.858828 
L 85.956424 41668.858828 
L 86.570078 41668.858828 
L 87.183731 41668.858828 
L 87.797385 41668.858828 
L 88.411038 41668.858828 
L 89.024691 41668.858828 
L 89.638345 41668.858828 
L 90.251998 41668.858828 
L 90.865652 41668.858828 
L 91.479305 41668.858828 
L 92.092958 41668.858828 
L 92.706612 41668.858828 
L 93.320265 41668.858828 
L 93.933919 41668.858828 
L 94.547572 41668.858828 
L 95.161225 41668.858828 
L 95.774879 41668.858828 
L 96.388532 41668.858828 
L 97.002186 41668.858828 
L 97.615839 41668.858828 
L 98.229492 41668.858828 
L 98.843146 41668.858828 
L 99.456799 41668.858828 
L 100.070453 41668.858828 
L 100.684106 41668.858828 
L 101.297759 41668.858828 
L 101.911413 41668.858828 
L 102.525066 41668.858828 
L 103.13872 41668.858828 
L 103.752373 41668.858828 
L 104.366026 41668.858828 
L 104.97968 41668.858828 
L 105.593333 41668.858828 
L 106.206987 41668.858828 
L 106.82064 41668.858828 
L 107.434294 41668.858828 
L 108.047947 41668.858828 
L 108.6616 41668.858828 
L 109.275254 41668.858828 
L 109.888907 41668.858828 
L 110.502561 41668.858828 
L 111.116214 41668.858828 
L 111.729867 41668.858828 
L 112.343521 41668.858828 
L 112.957174 41668.858828 
L 113.570828 41668.858828 
L 114.184481 41668.858828 
L 114.798134 41668.858828 
L 115.411788 41668.858828 
L 116.025441 41668.858828 
L 116.639095 41668.858828 
L 117.252748 41668.858828 
L 117.866401 41668.858828 
L 118.480055 41668.858828 
L 119.093708 41668.858828 
L 119.707362 41668.858828 
L 120.321015 41668.858828 
L 120.934668 41668.858828 
L 121.548322 41668.858828 
L 122.161975 41668.858828 
L 122.775629 41668.858828 
L 123.389282 41668.858828 
L 124.002935 41668.858828 
L 124.616589 41668.858828 
L 125.230242 41668.858828 
L 125.843896 41668.858828 
L 126.457549 41668.858828 
L 127.071202 41668.858828 
L 127.684856 41668.858828 
L 128.298509 41668.858828 
L 128.912163 41668.858828 
L 129.525816 41668.858828 
L 130.139469 41668.858828 
L 130.753123 41668.858828 
L 131.366776 41668.858828 
L 131.98043 41668.858828 
L 132.594083 41668.858828 
L 133.207737 41668.858828 
L 133.82139 41668.858828 
L 134.435043 41668.858828 
L 135.048697 41668.858828 
L 135.66235 41668.858828 
L 136.276004 41668.858828 
L 136.889657 41668.858828 
L 137.50331 41668.858828 
L 138.116964 41668.858828 
L 138.730617 41668.858828 
L 139.344271 41668.858828 
L 139.957924 41668.858828 
L 140.571577 41668.858828 
L 141.185231 41668.858828 
L 141.798884 41668.858828 
L 142.412538 41668.858828 
L 143.026191 41668.858828 
L 143.639844 41668.858828 
L 144.253498 41668.858828 
L 144.867151 41668.858828 
L 145.480805 41668.858828 
L 146.094458 41668.858828 
L 146.708111 41668.858828 
L 147.321765 41668.858828 
L 147.935418 41668.858828 
L 148.549072 41668.858828 
L 149.162725 41668.858828 
L 149.776378 41668.858828 
L 150.390032 41668.858828 
L 151.003685 41668.858828 
L 151.617339 41668.858828 
L 152.230992 41668.858828 
L 152.844645 41668.858828 
L 153.458299 41668.858828 
L 154.071952 41668.858828 
L 154.685606 41668.858828 
L 155.299259 41668.858828 
L 155.912912 41668.858828 
L 156.526566 41668.858828 
L 157.140219 41668.858828 
L 157.753873 41668.858828 
L 158.367526 41668.858828 
L 158.981179 41668.858828 
L 159.594833 41668.858828 
L 160.208486 41668.858828 
L 160.82214 41668.858828 
L 161.435793 41668.858828 
L 162.049447 41668.858828 
L 162.6631 41668.858828 
L 163.276753 41668.858828 
L 163.890407 41668.858828 
L 164.50406 41668.858828 
L 165.117714 41668.858828 
L 165.731367 41668.858828 
L 166.34502 41668.858828 
L 166.958674 41668.858828 
L 167.572327 41668.858828 
L 168.185981 41668.858828 
L 168.799634 41668.858828 
L 169.413287 41668.858828 
L 170.026941 41668.858828 
L 170.640594 41668.858828 
L 171.254248 41668.858828 
L 171.867901 41668.858828 
L 172.481554 41668.858828 
L 173.095208 41668.858828 
L 173.708861 41668.858828 
L 174.322515 41668.858828 
L 174.936168 41668.858828 
L 175.549821 41668.858828 
L 176.163475 41668.858828 
L 176.777128 41668.858828 
L 177.390782 41668.858828 
L 178.004435 41668.858828 
L 178.618088 41668.858828 
L 179.231742 41668.858828 
L 179.845395 41668.858828 
L 180.459049 41668.858828 
L 181.072702 41668.858828 
L 181.686355 41668.858828 
L 182.300009 41668.858828 
L 182.913662 41668.858828 
L 183.527316 41668.858828 
L 184.140969 41668.858828 
L 184.754622 41668.858828 
L 185.368276 41668.858828 
L 185.981929 41668.858828 
L 186.595583 41668.858828 
L 187.209236 41668.858828 
L 187.82289 41668.858828 
L 188.436543 41668.858828 
L 189.050196 41668.858828 
L 189.66385 41668.858828 
L 190.277503 41668.858828 
L 190.891157 41668.858828 
L 191.50481 41668.858828 
L 192.118463 41668.858828 
L 192.732117 41668.858828 
L 193.34577 41668.858828 
L 193.959424 41668.858828 
L 194.573077 41668.858828 
L 195.18673 41668.858828 
L 195.800384 41668.858828 
L 196.414037 41668.858828 
L 197.027691 41668.858828 
L 197.641344 41668.858828 
L 198.254997 41668.858828 
L 198.868651 41668.858828 
L 199.482304 41668.858828 
L 200.095958 41668.858828 
L 200.709611 41668.858828 
L 201.323264 41668.858828 
L 201.936918 41668.858828 
L 202.550571 41668.858828 
L 203.164225 41668.858828 
L 203.777878 41668.858828 
L 204.391531 41668.858828 
L 205.005185 41668.858828 
L 205.618838 41668.858828 
L 206.232492 41668.858828 
L 206.846145 41668.858828 
L 207.459798 41668.858828 
L 208.073452 41668.858828 
L 208.687105 41668.858828 
L 209.300759 41668.858828 
L 209.914412 41668.858828 
L 210.528065 41668.858828 
L 211.141719 41668.858828 
L 211.755372 41668.858828 
L 212.369026 41668.858828 
L 212.982679 41668.858828 
L 213.596332 41668.858828 
L 214.209986 41668.858828 
L 214.823639 41668.858828 
L 215.437293 41668.858828 
L 216.050946 41668.858828 
L 216.6646 41668.858828 
L 217.278253 41668.858828 
L 217.891906 41668.858828 
L 218.50556 41668.858828 
L 219.119213 41668.858828 
L 219.732867 41668.858828 
L 220.34652 41668.858828 
L 220.960173 41668.858828 
L 221.573827 41668.858828 
L 222.18748 41668.858828 
L 222.801134 41668.858828 
L 223.414787 41668.858828 
L 224.02844 41668.858828 
L 224.642094 41668.858828 
L 225.255747 41668.858828 
L 225.869401 41668.858828 
L 226.483054 41668.858828 
L 227.096707 41668.858828 
L 227.710361 41668.858828 
L 228.324014 41668.858828 
L 228.937668 41668.858828 
L 229.551321 41668.858828 
L 230.164974 41668.858828 
L 230.778628 41668.858828 
L 231.392281 41668.858828 
L 232.005935 41668.858828 
L 232.619588 41668.858828 
L 233.233241 41668.858828 
L 233.846895 41668.858828 
L 234.460548 41668.858828 
L 235.074202 41668.858828 
L 235.687855 41668.858828 
L 236.301508 41668.858828 
L 236.915162 41668.858828 
L 237.528815 41668.858828 
L 238.142469 41668.858828 
L 238.756122 41668.858828 
L 239.369775 41668.858828 
L 239.983429 41668.858828 
L 240.597082 41668.858828 
L 241.210736 41668.858828 
L 241.824389 41668.858828 
L 242.438043 41668.858828 
L 243.051696 41668.858828 
L 243.665349 41668.858828 
L 244.279003 41668.858828 
L 244.892656 41668.858828 
L 245.50631 41668.858828 
L 246.119963 41668.858828 
L 246.733616 41668.858828 
L 247.34727 41668.858828 
L 247.960923 41668.858828 
L 248.574577 41668.858828 
L 249.18823 41668.858828 
L 249.801883 41668.858828 
L 250.415537 41668.858828 
L 251.02919 41668.858828 
L 251.642844 41668.858828 
L 252.256497 41668.858828 
L 252.87015 41668.858828 
L 253.483804 41668.858828 
L 254.097457 41668.858828 
L 254.711111 41668.858828 
L 255.324764 41668.858828 
L 255.938417 41668.858828 
L 256.552071 41668.858828 
L 257.165724 41668.858828 
L 257.779378 41668.858828 
L 258.393031 41668.858828 
L 259.006684 41668.858828 
L 259.620338 41668.858828 
L 260.233991 41668.858828 
L 260.847645 41668.858828 
L 261.461298 41668.858828 
L 262.074951 41668.858828 
L 262.688605 41668.858828 
L 263.302258 41668.858828 
L 263.915912 41668.858828 
L 264.529565 41668.858828 
L 265.143218 41668.858828 
L 265.756872 41668.858828 
L 266.370525 41668.858828 
L 266.984179 41668.858828 
L 267.597832 41668.858828 
L 268.211485 41668.858828 
L 268.825139 41668.858828 
L 269.438792 41668.858828 
L 270.052446 41668.858828 
L 270.666099 41668.858828 
L 271.279753 41668.858828 
L 271.893406 41668.858828 
L 272.507059 41668.858828 
L 273.120713 41668.858828 
L 273.734366 41668.858828 
L 274.34802 41668.858828 
L 274.961673 41668.858828 
L 275.575326 41668.858828 
L 276.18898 41668.858828 
L 276.802633 41668.858828 
L 277.416287 41668.858828 
L 278.02994 41668.858828 
L 278.643593 41668.858828 
L 279.257247 41668.858828 
L 279.8709 41668.858828 
L 280.484554 41668.858828 
L 281.098207 41668.858828 
L 281.71186 41668.858828 
L 282.325514 41668.858828 
L 282.939167 41668.858828 
L 283.552821 41668.858828 
L 284.166474 41668.858828 
L 284.780127 41668.858828 
L 285.393781 41668.858828 
L 286.007434 41668.858828 
L 286.621088 41668.858828 
L 287.234741 41668.858828 
L 287.848394 41668.858828 
L 288.462048 41668.858828 
L 289.075701 41668.858828 
L 289.689355 41668.858828 
L 290.303008 41668.858828 
L 290.916661 41668.858828 
L 291.530315 41668.858828 
L 292.143968 41668.858828 
L 292.757622 41668.858828 
L 293.371275 41668.858828 
L 293.984928 41668.858828 
L 294.598582 41668.858828 
L 295.212235 41668.858828 
L 295.825889 41668.858828 
L 296.439542 41668.858828 
L 297.053196 41668.858828 
L 297.666849 41668.858828 
L 298.280502 41668.858828 
L 298.894156 41668.858828 
L 299.507809 41668.858828 
L 300.121463 41668.858828 
L 300.735116 41668.858828 
L 301.348769 41668.858828 
L 301.962423 41668.858828 
L 302.576076 41668.858828 
L 303.18973 41668.858828 
L 303.803383 41668.858828 
L 304.417036 41668.858828 
L 305.03069 41668.858828 
L 305.644343 41668.858828 
L 306.257997 41668.858828 
L 306.87165 41668.858828 
L 307.485303 41668.858828 
L 308.098957 41668.858828 
L 308.71261 41668.858828 
L 309.326264 41668.858828 
L 309.939917 41668.858828 
L 310.55357 41668.858828 
L 311.167224 41668.858828 
L 311.780877 41668.858828 
L 312.394531 41668.858828 
L 313.008184 41668.858828 
L 313.621837 41668.858828 
L 314.235491 41668.858828 
L 314.849144 41668.858828 
L 315.462798 41668.858828 
L 316.076451 41668.858828 
L 316.690104 41668.858828 
L 317.303758 41668.858828 
L 317.917411 41668.858828 
L 318.531065 41668.858828 
L 319.144718 41668.858828 
L 319.758371 41668.858828 
L 320.372025 41668.858828 
L 320.985678 41668.858828 
L 321.599332 41668.858828 
L 322.212985 41668.858828 
L 322.826638 41668.858828 
L 323.440292 41668.858828 
L 324.053945 41668.858828 
L 324.667599 41668.858828 
L 325.281252 41668.858828 
L 325.894906 41668.858828 
L 326.508559 41668.858828 
L 327.122212 41668.858828 
L 327.735866 41668.858828 
L 328.349519 41668.858828 
L 328.963173 41668.858828 
L 329.576826 41668.858828 
L 330.190479 41668.858828 
L 330.804133 41668.858828 
L 331.417786 41668.858828 
L 332.03144 41668.858828 
L 332.645093 41668.858828 
L 333.258746 41668.858828 
L 333.8724 41668.858828 
L 334.486053 41668.858828 
L 335.099707 41668.858828 
L 335.71336 41668.858828 
L 336.327013 41668.858828 
L 336.940667 41668.858828 
L 337.55432 41668.858828 
L 338.167974 41668.858828 
L 338.781627 41668.858828 
L 339.39528 41668.858828 
L 340.008934 41668.858828 
L 340.622587 41668.858828 
L 341.236241 41668.858828 
L 341.849894 41668.858828 
L 342.463547 41668.858828 
L 343.077201 41668.858828 
L 343.690854 41668.858828 
L 344.304508 41668.858828 
L 344.918161 41668.858828 
L 345.531814 41668.858828 
L 346.145468 41668.858828 
L 346.759121 41668.858828 
L 347.372775 41668.858828 
L 347.986428 41668.858828 
L 348.600081 41668.858828 
L 349.213735 41668.858828 
L 349.827388 41668.858828 
L 350.441042 41668.858828 
L 351.054695 41668.858828 
L 351.668349 41668.858828 
L 352.282002 41668.858828 
L 352.895655 41668.858828 
L 353.509309 41668.858828 
L 354.122962 41668.858828 
L 354.736616 41668.858828 
L 355.350269 41668.858828 
L 355.963922 41668.858828 
L 356.577576 41668.858828 
L 357.191229 41668.858828 
L 357.804883 41668.858828 
L 358.418536 41668.858828 
L 359.032189 41668.858828 
L 359.645843 41668.858828 
L 360.259496 41668.858828 
L 360.87315 41668.858828 
L 361.486803 41668.858828 
L 362.100456 41668.858828 
L 362.71411 41668.858828 
L 363.327763 41668.858828 
L 363.941417 41668.858828 
L 364.55507 41668.858828 
L 365.168723 41668.858828 
L 365.782377 41668.858828 
L 366.39603 41668.858828 
L 367.009684 41668.858828 
L 367.623337 41668.858828 
L 368.23699 41668.858828 
L 368.850644 41668.858828 
L 369.464297 41668.858828 
L 370.077951 41668.858828 
L 370.691604 41668.858828 
L 371.305257 41668.858828 
L 371.918911 41668.858828 
L 372.532564 41668.858828 
L 373.146218 41668.858828 
L 373.759871 41668.858828 
L 374.373524 41668.858828 
L 374.987178 41668.858828 
L 375.600831 41668.858828 
L 376.214485 41668.858828 
L 376.828138 41668.858828 
L 377.441791 41668.858828 
L 378.055445 41668.858828 
L 378.669098 41668.858828 
L 379.282752 41668.858828 
L 379.896405 41668.858828 
L 380.510059 41668.858828 
L 381.123712 41668.858828 
L 381.123712 231.901226 
L 381.123712 231.901226 
L 380.510059 143.737624 
L 379.896405 109.640229 
L 379.282752 109.75396 
L 378.669098 103.063533 
L 378.055445 106.179073 
L 377.441791 107.235029 
L 376.828138 105.312346 
L 376.214485 105.197272 
L 375.600831 102.52803 
L 374.987178 105.399314 
L 374.373524 103.553909 
L 373.759871 101.085743 
L 373.146218 102.565532 
L 372.532564 102.488251 
L 371.918911 100.310593 
L 371.305257 97.372629 
L 370.691604 96.002339 
L 370.077951 95.572391 
L 369.464297 96.953686 
L 368.850644 98.628361 
L 368.23699 105.036077 
L 367.623337 104.829488 
L 367.009684 97.550299 
L 366.39603 96.799247 
L 365.782377 96.655596 
L 365.168723 93.847685 
L 364.55507 101.474962 
L 363.941417 100.60615 
L 363.327763 102.098907 
L 362.71411 96.782844 
L 362.100456 92.593427 
L 361.486803 91.606439 
L 360.87315 93.403298 
L 360.259496 98.328354 
L 359.645843 98.245763 
L 359.032189 95.501267 
L 358.418536 89.736773 
L 357.804883 85.288061 
L 357.191229 86.82939 
L 356.577576 91.16298 
L 355.963922 95.632105 
L 355.350269 99.37971 
L 354.736616 103.610986 
L 354.122962 101.483356 
L 353.509309 96.521689 
L 352.895655 87.830392 
L 352.282002 84.232254 
L 351.668349 83.922754 
L 351.054695 87.094395 
L 350.441042 92.187589 
L 349.827388 95.740115 
L 349.213735 97.825217 
L 348.600081 99.745987 
L 347.986428 95.987276 
L 347.372775 90.615095 
L 346.759121 88.636089 
L 346.145468 85.125014 
L 345.531814 84.480035 
L 344.918161 88.331812 
L 344.304508 94.572655 
L 343.690854 94.682011 
L 343.077201 101.878978 
L 342.463547 100.835855 
L 341.849894 95.485856 
L 341.236241 89.500761 
L 340.622587 89.475818 
L 340.008934 84.602918 
L 339.39528 81.766006 
L 338.781627 83.928723 
L 338.167974 84.597234 
L 337.55432 91.979162 
L 336.940667 96.451064 
L 336.327013 99.63575 
L 335.71336 101.907003 
L 335.099707 102.191899 
L 334.486053 97.108757 
L 333.8724 88.329988 
L 333.258746 81.678816 
L 332.645093 80.469997 
L 332.03144 81.051722 
L 331.417786 81.969579 
L 330.804133 82.785491 
L 330.190479 86.047002 
L 329.576826 90.417123 
L 328.963173 98.725946 
L 328.349519 101.461212 
L 327.735866 100.793109 
L 327.122212 95.868647 
L 326.508559 92.822592 
L 325.894906 87.627807 
L 325.281252 85.141629 
L 324.667599 81.730489 
L 324.053945 79.414497 
L 323.440292 79.434226 
L 322.826638 80.276631 
L 322.212985 82.259289 
L 321.599332 83.785669 
L 320.985678 90.241229 
L 320.372025 103.505444 
L 319.758371 106.593191 
L 319.144718 104.757376 
L 318.531065 101.197768 
L 317.917411 95.982265 
L 317.303758 91.905084 
L 316.690104 83.79033 
L 316.076451 82.009039 
L 315.462798 80.522394 
L 314.849144 81.205033 
L 314.235491 82.195407 
L 313.621837 81.984078 
L 313.008184 80.560568 
L 312.394531 81.863576 
L 311.780877 82.159945 
L 311.167224 89.516092 
L 310.55357 98.508366 
L 309.939917 99.792301 
L 309.326264 106.894147 
L 308.71261 103.952211 
L 308.098957 96.345604 
L 307.485303 89.710527 
L 306.87165 84.277552 
L 306.257997 81.909489 
L 305.644343 79.381974 
L 305.03069 78.916301 
L 304.417036 80.932715 
L 303.803383 79.851655 
L 303.18973 76.714346 
L 302.576076 77.220672 
L 301.962423 80.077686 
L 301.348769 84.520414 
L 300.735116 94.388432 
L 300.121463 104.679304 
L 299.507809 106.409399 
L 298.894156 103.046814 
L 298.280502 102.395482 
L 297.666849 99.506617 
L 297.053196 89.944669 
L 296.439542 82.387756 
L 295.825889 80.83364 
L 295.212235 79.785386 
L 294.598582 77.258347 
L 293.984928 79.137394 
L 293.371275 78.999514 
L 292.757622 79.765935 
L 292.143968 82.502353 
L 291.530315 82.399826 
L 290.916661 80.444498 
L 290.303008 84.956853 
L 289.689355 93.596332 
L 289.075701 101.936799 
L 288.462048 108.225298 
L 287.848394 105.771634 
L 287.234741 104.287862 
L 286.621088 95.325449 
L 286.007434 84.447427 
L 285.393781 78.377143 
L 284.780127 76.677975 
L 284.166474 75.93199 
L 283.552821 78.254786 
L 282.939167 79.022697 
L 282.325514 78.202173 
L 281.71186 78.119492 
L 281.098207 78.451277 
L 280.484554 77.567439 
L 279.8709 77.351532 
L 279.257247 87.869846 
L 278.643593 99.253727 
L 278.02994 109.20574 
L 277.416287 119.465901 
L 276.802633 124.947324 
L 276.18898 122.931691 
L 275.575326 120.987117 
L 274.961673 113.276228 
L 274.34802 101.692494 
L 273.734366 85.968983 
L 273.120713 80.084868 
L 272.507059 79.800602 
L 271.893406 80.649128 
L 271.279753 76.824668 
L 270.666099 74.15751 
L 270.052446 76.952586 
L 269.438792 78.358036 
L 268.825139 79.819491 
L 268.211485 79.233498 
L 267.597832 76.530052 
L 266.984179 82.465847 
L 266.370525 93.562723 
L 265.756872 106.414682 
L 265.143218 108.016795 
L 264.529565 109.699316 
L 263.915912 114.056336 
L 263.302258 108.343618 
L 262.688605 96.673736 
L 262.074951 86.596417 
L 261.461298 80.961982 
L 260.847645 78.649637 
L 260.233991 77.924123 
L 259.620338 78.393069 
L 259.006684 77.522542 
L 258.393031 77.682358 
L 257.779378 77.025919 
L 257.165724 77.037726 
L 256.552071 77.622866 
L 255.938417 79.438006 
L 255.324764 84.249157 
L 254.711111 101.912036 
L 254.097457 118.925066 
L 253.483804 126.774354 
L 252.87015 127.990439 
L 252.256497 114.831029 
L 251.642844 111.996247 
L 251.02919 95.717454 
L 250.415537 83.5766 
L 249.801883 80.74778 
L 249.18823 80.143603 
L 248.574577 80.479646 
L 247.960923 78.147303 
L 247.34727 76.605803 
L 246.733616 76.159875 
L 246.119963 75.176209 
L 245.50631 76.007548 
L 244.892656 77.125495 
L 244.279003 78.177385 
L 243.665349 81.496093 
L 243.051696 92.446219 
L 242.438043 108.039305 
L 241.824389 118.151181 
L 241.210736 133.586753 
L 240.597082 130.057979 
L 239.983429 134.546211 
L 239.369775 112.33514 
L 238.756122 95.989724 
L 238.142469 85.112947 
L 237.528815 80.452068 
L 236.915162 77.812242 
L 236.301508 77.892778 
L 235.687855 77.819771 
L 235.074202 77.903663 
L 234.460548 78.252155 
L 233.846895 79.171189 
L 233.233241 78.22446 
L 232.619588 78.399562 
L 232.005935 78.39103 
L 231.392281 82.693658 
L 230.778628 103.671537 
L 230.164974 126.279467 
L 229.551321 140.59043 
L 228.937668 139.406308 
L 228.324014 133.51523 
L 227.710361 146.591521 
L 227.096707 129.418738 
L 226.483054 99.564192 
L 225.869401 83.834934 
L 225.255747 79.126021 
L 224.642094 78.253429 
L 224.02844 80.136681 
L 223.414787 80.313359 
L 222.801134 76.621583 
L 222.18748 76.563451 
L 221.573827 78.156814 
L 220.960173 78.788066 
L 220.34652 75.929583 
L 219.732867 77.272717 
L 219.119213 83.235513 
L 218.50556 101.132974 
L 217.891906 126.541965 
L 217.278253 142.46138 
L 216.6646 152.480652 
L 216.050946 148.426703 
L 215.437293 145.137917 
L 214.823639 127.801732 
L 214.209986 101.165164 
L 213.596332 87.284869 
L 212.982679 79.945834 
L 212.369026 78.321018 
L 211.755372 78.971989 
L 211.141719 79.41012 
L 210.528065 78.950366 
L 209.914412 80.933118 
L 209.300759 78.829371 
L 208.687105 78.368863 
L 208.073452 75.30792 
L 207.459798 75.614148 
L 206.846145 81.786493 
L 206.232492 103.015872 
L 205.618838 129.92943 
L 205.005185 158.35681 
L 204.391531 150.403737 
L 203.777878 193.602684 
L 203.164225 279.886843 
L 202.550571 191.773471 
L 201.936918 168.525567 
L 201.323264 206.33791 
L 200.709611 156.950087 
L 200.095958 110.862006 
L 199.482304 84.059638 
L 198.868651 79.10481 
L 198.254997 79.425709 
L 197.641344 78.141463 
L 197.027691 75.57848 
L 196.414037 75.912649 
L 195.800384 74.603943 
L 195.18673 74.992041 
L 194.573077 74.802665 
L 193.959424 75.167823 
L 193.34577 76.464962 
L 192.732117 87.103532 
L 192.118463 117.518857 
L 191.50481 152.933594 
L 190.891157 171.645962 
L 190.277503 151.827319 
L 189.66385 144.848174 
L 189.050196 142.697814 
L 188.436543 122.494059 
L 187.82289 91.297705 
L 187.209236 77.615646 
L 186.595583 75.773468 
L 185.981929 75.032275 
L 185.368276 75.86943 
L 184.754622 77.677397 
L 184.140969 78.767586 
L 183.527316 80.837842 
L 182.913662 77.326636 
L 182.300009 75.387481 
L 181.686355 75.721498 
L 181.072702 81.957685 
L 180.459049 105.400786 
L 179.845395 151.113291 
L 179.231742 162.148169 
L 178.618088 154.423013 
L 178.004435 173.065138 
L 177.390782 154.172057 
L 176.777128 154.299404 
L 176.163475 149.055395 
L 175.549821 175.664882 
L 174.936168 147.39869 
L 174.322515 131.32764 
L 173.708861 91.277701 
L 173.095208 74.419005 
L 172.481554 75.432178 
L 171.867901 75.43448 
L 171.254248 72.864731 
L 170.640594 75.533805 
L 170.026941 74.529589 
L 169.413287 73.822755 
L 168.799634 73.560068 
L 168.185981 76.241654 
L 167.572327 100.21356 
L 166.958674 143.25795 
L 166.34502 178.19558 
L 165.731367 158.863512 
L 165.117714 168.082343 
L 164.50406 150.096484 
L 163.890407 147.520531 
L 163.276753 196.619281 
L 162.6631 158.908087 
L 162.049447 107.340721 
L 161.435793 80.647145 
L 160.82214 71.844586 
L 160.208486 71.977574 
L 159.594833 74.507575 
L 158.981179 74.451176 
L 158.367526 75.852575 
L 157.753873 74.760184 
L 157.140219 74.74817 
L 156.526566 76.240597 
L 155.912912 78.061777 
L 155.299259 81.270465 
L 154.685606 106.15222 
L 154.071952 150.943954 
L 153.458299 229.559022 
L 152.844645 352.845384 
L 152.230992 232.402746 
L 151.617339 171.748192 
L 151.003685 182.663625 
L 150.390032 216.764011 
L 149.776378 168.690388 
L 149.162725 175.464941 
L 148.549072 148.030435 
L 147.935418 136.227981 
L 147.321765 92.520551 
L 146.708111 78.03541 
L 146.094458 74.07172 
L 145.480805 73.05259 
L 144.867151 74.404309 
L 144.253498 73.778807 
L 143.639844 72.763584 
L 143.026191 72.035575 
L 142.412538 73.112391 
L 141.798884 78.437477 
L 141.185231 106.169489 
L 140.571577 159.219705 
L 139.957924 171.664231 
L 139.344271 161.422965 
L 138.730617 176.342543 
L 138.116964 249.972028 
L 137.50331 394.500163 
L 136.889657 418.326153 
L 136.276004 264.597272 
L 135.66235 182.276997 
L 135.048697 162.267842 
L 134.435043 134.413933 
L 133.82139 96.094178 
L 133.207737 74.638467 
L 132.594083 72.810682 
L 131.98043 73.391646 
L 131.366776 74.089864 
L 130.753123 72.822007 
L 130.139469 73.823811 
L 129.525816 71.752918 
L 128.912163 71.968158 
L 128.298509 76.020117 
L 127.684856 93.200045 
L 127.071202 125.970216 
L 126.457549 151.951621 
L 125.843896 163.511306 
L 125.230242 163.609547 
L 124.616589 214.780246 
L 124.002935 333.633607 
L 123.389282 523.710729 
L 122.775629 785.333421 
L 122.161975 1118.527096 
L 121.548322 1142.32395 
L 120.934668 804.542841 
L 120.321015 538.33331 
L 119.707362 343.676085 
L 119.093708 220.315522 
L 118.480055 165.184221 
L 117.866401 151.215342 
L 117.252748 106.281711 
L 116.639095 78.421388 
L 116.025441 69.439244 
L 115.411788 68.897494 
L 114.798134 69.944938 
L 114.184481 70.656928 
L 113.570828 70.64475 
L 112.957174 72.081909 
L 112.343521 68.672233 
L 111.729867 71.094156 
L 111.116214 86.463164 
L 110.502561 125.848098 
L 109.888907 190.116473 
L 109.275254 303.194442 
L 108.6616 238.647717 
L 108.047947 173.457257 
L 107.434294 175.826144 
L 106.82064 167.326501 
L 106.206987 201.575526 
L 105.593333 307.277368 
L 104.97968 414.41998 
L 104.366026 262.407256 
L 103.752373 181.592265 
L 103.13872 172.350407 
L 102.525066 234.681683 
L 101.911413 368.586092 
L 101.297759 574.063634 
L 100.684106 734.316895 
L 100.070453 485.259542 
L 99.456799 307.747267 
L 98.843146 201.808125 
L 98.229492 167.442113 
L 97.615839 204.369855 
L 97.002186 172.107709 
L 96.388532 114.20452 
L 95.774879 80.711124 
L 95.161225 64.820997 
L 94.547572 65.648276 
L 93.933919 70.364822 
L 93.320265 69.59679 
L 92.706612 63.782833 
L 92.092958 66.565588 
L 91.479305 87.73278 
L 90.865652 127.073313 
L 90.251998 195.90008 
L 89.638345 310.840733 
L 89.024691 491.520186 
L 88.411038 433.792352 
L 87.797385 274.312281 
L 87.183731 186.405307 
L 86.570078 169.987353 
L 85.956424 178.39986 
L 85.342771 156.83124 
L 84.729118 194.908843 
L 84.115464 298.637784 
L 83.501811 280.149295 
L 82.888157 180.810764 
L 82.274504 148.960963 
L 81.660851 164.796354 
L 81.047197 175.034465 
L 80.433544 167.109193 
L 79.81989 150.667857 
L 79.206237 141.799221 
L 78.592584 111.768288 
L 77.97893 76.008436 
L 77.365277 59.531571 
L 76.751623 69.680486 
L 76.13797 103.149753 
L 75.524316 157.714247 
L 74.910663 246.081664 
z
" clip-path="url(#p6860ca0cae)" style="fill: #4c72b0; fill-opacity: 0.25; stroke: #4c72b0; stroke-width: 0.3"/>
   </g>
   <g id="patch_3">
    <path d="M 60.617188 172.018828 
L 60.617188 5.698828 
" style="fill: none"/>
   </g>
   <g id="patch_4">
    <path d="M 395.417188 172.018828 
L 395.417188 5.698828 
" style="fill: none"/>
   </g>
   <g id="patch_5">
    <path d="M 60.617188 172.018828 
L 395.417188 172.018828 
" style="fill: none"/>
   </g>
   <g id="patch_6">
    <path d="M 60.617188 5.698828 
L 395.417188 5.698828 
" style="fill: none"/>
   </g>
   <g id="text_14">
    <!-- 0 -->
    <g transform="translate(77.342464 59.875906) scale(0.1 -0.1)">
     <use xlink:href="#DejaVuSerif-30"/>
    </g>
   </g>
   <g id="text_15">
    <!-- 1 -->
    <g transform="translate(93.68246 58.661055) scale(0.1 -0.1)">
     <use xlink:href="#DejaVuSerif-31"/>
    </g>
   </g>
   <g id="text_16">
    <!-- 2 -->
    <g transform="translate(114.000371 60.847876) scale(0.1 -0.1)">
     <use xlink:href="#DejaVuSerif-32"/>
    </g>
   </g>
   <g id="text_17">
    <!-- 3 -->
    <g transform="translate(130.716199 62.914576) scale(0.1 -0.1)">
     <defs>
      <path id="DejaVuSerif-33" d="M 622 4469 
Q 988 4606 1323 4678 
Q 1659 4750 1953 4750 
Q 2638 4750 3022 4454 
Q 3406 4159 3406 3634 
Q 3406 3213 3140 2930 
Q 2875 2647 2388 2547 
Q 2963 2466 3280 2130 
Q 3597 1794 3597 1259 
Q 3597 606 3158 257 
Q 2719 -91 1894 -91 
Q 1528 -91 1179 -12 
Q 831 66 488 225 
L 488 1131 
L 838 1131 
Q 869 681 1141 450 
Q 1413 219 1906 219 
Q 2384 219 2661 495 
Q 2938 772 2938 1253 
Q 2938 1803 2653 2086 
Q 2369 2369 1819 2369 
L 1522 2369 
L 1522 2688 
L 1678 2688 
Q 2225 2688 2498 2914 
Q 2772 3141 2772 3597 
Q 2772 4006 2547 4223 
Q 2322 4441 1900 4441 
Q 1478 4441 1245 4241 
Q 1013 4041 972 3647 
L 622 3647 
L 622 4469 
z
" transform="scale(0.015625)"/>
     </defs>
     <use xlink:href="#DejaVuSerif-33"/>
    </g>
   </g>
   <g id="text_18">
    <!-- 4 -->
    <g transform="translate(144.308185 63.251062) scale(0.1 -0.1)">
     <use xlink:href="#DejaVuSerif-34"/>
    </g>
   </g>
   <g id="text_19">
    <!-- 5 -->
    <g transform="translate(170.711767 64.000447) scale(0.1 -0.1)">
     <defs>
      <path id="DejaVuSerif-35" d="M 3219 4666 
L 3219 4153 
L 1081 4153 
L 1081 2816 
Q 1244 2928 1461 2984 
Q 1678 3041 1947 3041 
Q 2703 3041 3140 2622 
Q 3578 2203 3578 1478 
Q 3578 738 3136 323 
Q 2694 -91 1894 -91 
Q 1572 -91 1234 -12 
Q 897 66 544 225 
L 544 1131 
L 897 1131 
Q 925 688 1179 453 
Q 1434 219 1894 219 
Q 2388 219 2653 544 
Q 2919 869 2919 1478 
Q 2919 2084 2655 2407 
Q 2391 2731 1894 2731 
Q 1613 2731 1398 2631 
Q 1184 2531 1019 2322 
L 750 2322 
L 750 4666 
L 3219 4666 
z
" transform="scale(0.015625)"/>
     </defs>
     <use xlink:href="#DejaVuSerif-35"/>
    </g>
   </g>
   <g id="text_20">
    <!-- 6 -->
    <g transform="translate(158.503406 64.097745) scale(0.1 -0.1)">
     <use xlink:href="#DejaVuSerif-36"/>
    </g>
   </g>
   <g id="text_21">
    <!-- 7 -->
    <g transform="translate(196.044512 65.044001) scale(0.1 -0.1)">
     <defs>
      <path id="DejaVuSerif-37" d="M 3609 4347 
L 1784 0 
L 1319 0 
L 3059 4153 
L 903 4153 
L 903 3578 
L 538 3578 
L 538 4666 
L 3609 4666 
L 3609 4347 
z
" transform="scale(0.015625)"/>
     </defs>
     <use xlink:href="#DejaVuSerif-37"/>
    </g>
   </g>
   <g id="text_22">
    <!-- 8 -->
    <g transform="translate(184.318363 65.959164) scale(0.1 -0.1)">
     <use xlink:href="#DejaVuSerif-38"/>
    </g>
   </g>
   <g id="text_23">
    <!-- 9 -->
    <g transform="translate(210.083395 67.015885) scale(0.1 -0.1)">
     <defs>
      <path id="DejaVuSerif-39" d="M 2994 2091 
Q 2784 1856 2512 1740 
Q 2241 1625 1900 1625 
Q 1206 1625 804 2044 
Q 403 2463 403 3188 
Q 403 3897 839 4323 
Q 1275 4750 2003 4750 
Q 2794 4750 3217 4161 
Q 3641 3572 3641 2478 
Q 3641 1253 3137 581 
Q 2634 -91 1722 -91 
Q 1475 -91 1203 -44 
Q 931 3 647 97 
L 647 872 
L 997 872 
Q 1038 556 1241 387 
Q 1444 219 1784 219 
Q 2391 219 2687 676 
Q 2984 1134 2994 2091 
z
M 1978 4441 
Q 1534 4441 1298 4117 
Q 1063 3794 1063 3188 
Q 1063 2581 1298 2256 
Q 1534 1931 1978 1931 
Q 2422 1931 2658 2245 
Q 2894 2559 2894 3150 
Q 2894 3772 2656 4106 
Q 2419 4441 1978 4441 
z
" transform="scale(0.015625)"/>
     </defs>
     <use xlink:href="#DejaVuSerif-39"/>
    </g>
   </g>
   <g id="text_24">
    <!-- 10 -->
    <g transform="translate(222.433463 66.762949) scale(0.1 -0.1)">
     <use xlink:href="#DejaVuSerif-31"/>
     <use xlink:href="#DejaVuSerif-30" x="63.623047"/>
    </g>
   </g>
   <g id="text_25">
    <!-- 11 -->
    <g transform="translate(234.8066 67.124027) scale(0.1 -0.1)">
     <use xlink:href="#DejaVuSerif-31"/>
     <use xlink:href="#DejaVuSerif-31" x="63.623047"/>
    </g>
   </g>
   <g id="text_26">
    <!-- 12 -->
    <g transform="translate(246.87139 66.789084) scale(0.1 -0.1)">
     <use xlink:href="#DejaVuSerif-31"/>
     <use xlink:href="#DejaVuSerif-32" x="63.623047"/>
    </g>
   </g>
   <g id="text_27">
    <!-- 13 -->
    <g transform="translate(258.721941 67.331502) scale(0.1 -0.1)">
     <use xlink:href="#DejaVuSerif-31"/>
     <use xlink:href="#DejaVuSerif-33" x="63.623047"/>
    </g>
   </g>
   <g id="text_28">
    <!-- 14 -->
    <g transform="translate(270.129842 67.44377) scale(0.1 -0.1)">
     <use xlink:href="#DejaVuSerif-31"/>
     <use xlink:href="#DejaVuSerif-34" x="63.623047"/>
    </g>
   </g>
   <g id="text_29">
    <!-- 15 -->
    <g transform="translate(282.74835 67.480264) scale(0.1 -0.1)">
     <use xlink:href="#DejaVuSerif-31"/>
     <use xlink:href="#DejaVuSerif-35" x="63.623047"/>
    </g>
   </g>
   <g id="text_30">
    <!-- 16 -->
    <g transform="translate(293.602678 69.234436) scale(0.1 -0.1)">
     <use xlink:href="#DejaVuSerif-31"/>
     <use xlink:href="#DejaVuSerif-36" x="63.623047"/>
    </g>
   </g>
   <g id="text_31">
    <!-- 17 -->
    <g transform="translate(304.16455 69.054026) scale(0.1 -0.1)">
     <use xlink:href="#DejaVuSerif-31"/>
     <use xlink:href="#DejaVuSerif-37" x="63.623047"/>
    </g>
   </g>
   <g id="text_32">
    <!-- 18 -->
    <g transform="translate(314.21152 70.579011) scale(0.1 -0.1)">
     <use xlink:href="#DejaVuSerif-31"/>
     <use xlink:href="#DejaVuSerif-38" x="63.623047"/>
    </g>
   </g>
   <g id="text_33">
    <!-- 19 -->
    <g transform="translate(323.712788 70.711473) scale(0.1 -0.1)">
     <use xlink:href="#DejaVuSerif-31"/>
     <use xlink:href="#DejaVuSerif-39" x="63.623047"/>
    </g>
   </g>
   <g id="text_34">
    <!-- 20 -->
    <g transform="translate(331.871922 71.43773) scale(0.1 -0.1)">
     <use xlink:href="#DejaVuSerif-32"/>
     <use xlink:href="#DejaVuSerif-30" x="63.623047"/>
    </g>
   </g>
   <g id="text_35">
    <!-- 21 -->
    <g transform="translate(339.330847 73.167348) scale(0.1 -0.1)">
     <use xlink:href="#DejaVuSerif-32"/>
     <use xlink:href="#DejaVuSerif-31" x="63.623047"/>
    </g>
   </g>
   <g id="text_36">
    <!-- 22 -->
    <g transform="translate(345.902618 74.605884) scale(0.1 -0.1)">
     <use xlink:href="#DejaVuSerif-32"/>
     <use xlink:href="#DejaVuSerif-32" x="63.623047"/>
    </g>
   </g>
   <g id="text_37">
    <!-- 23 -->
    <g transform="translate(351.735541 74.267168) scale(0.1 -0.1)">
     <use xlink:href="#DejaVuSerif-32"/>
     <use xlink:href="#DejaVuSerif-33" x="63.623047"/>
    </g>
   </g>
   <g id="text_38">
    <!-- 24 -->
    <g transform="translate(357.579755 76.169056) scale(0.1 -0.1)">
     <use xlink:href="#DejaVuSerif-32"/>
     <use xlink:href="#DejaVuSerif-34" x="63.623047"/>
    </g>
   </g>
   <g id="text_39">
    <!-- 25 -->
    <g transform="translate(363.33448 79.093604) scale(0.1 -0.1)">
     <use xlink:href="#DejaVuSerif-32"/>
     <use xlink:href="#DejaVuSerif-35" x="63.623047"/>
    </g>
   </g>
   <g id="text_40">
    <!-- 26 -->
    <g transform="translate(370.128537 79.963023) scale(0.1 -0.1)">
     <use xlink:href="#DejaVuSerif-32"/>
     <use xlink:href="#DejaVuSerif-36" x="63.623047"/>
    </g>
   </g>
   <g id="text_41">
    <!-- 27+ -->
    <g transform="translate(376.477237 79.787345) scale(0.1 -0.1)">
     <defs>
      <path id="DejaVuSerif-2b" d="M 2931 4013 
L 2931 2259 
L 4684 2259 
L 4684 1753 
L 2931 1753 
L 2931 0 
L 2431 0 
L 2431 1753 
L 678 1753 
L 678 2259 
L 2431 2259 
L 2431 4013 
L 2931 4013 
z
" transform="scale(0.015625)"/>
     </defs>
     <use xlink:href="#DejaVuSerif-32"/>
     <use xlink:href="#DejaVuSerif-37" x="63.623047"/>
     <use xlink:href="#DejaVuSerif-2b" x="127.246094"/>
    </g>
   </g>
   <g id="text_42">
    <!-- UMAP 1D -->
    <g style="fill: #262626" transform="translate(288.196506 23.537308) scale(0.15 -0.15)">
     <defs>
      <path id="DejaVuSerif-55" d="M 897 4331 
L 300 4331 
L 300 4666 
L 2125 4666 
L 2125 4331 
L 1528 4331 
L 1528 1919 
Q 1528 1025 1820 672 
Q 2113 319 2828 319 
Q 3544 319 3836 672 
Q 4128 1025 4128 1919 
L 4128 4331 
L 3531 4331 
L 3531 4666 
L 5106 4666 
L 5106 4331 
L 4513 4331 
L 4513 1856 
Q 4513 791 4103 350 
Q 3694 -91 2713 -91 
Q 1731 -91 1314 353 
Q 897 797 897 1856 
L 897 4331 
z
" transform="scale(0.015625)"/>
      <path id="DejaVuSerif-4d" d="M 353 0 
L 353 331 
L 947 331 
L 947 4331 
L 319 4331 
L 319 4666 
L 1678 4666 
L 3316 1344 
L 4953 4666 
L 6228 4666 
L 6228 4331 
L 5606 4331 
L 5606 331 
L 6203 331 
L 6203 0 
L 4378 0 
L 4378 331 
L 4972 331 
L 4972 3938 
L 3372 684 
L 2931 684 
L 1331 3938 
L 1331 331 
L 1925 331 
L 1925 0 
L 353 0 
z
" transform="scale(0.015625)"/>
      <path id="DejaVuSerif-41" d="M 1281 1691 
L 2994 1691 
L 2138 3909 
L 1281 1691 
z
M -38 0 
L -38 331 
L 372 331 
L 2034 4666 
L 2559 4666 
L 4225 331 
L 4684 331 
L 4684 0 
L 2988 0 
L 2988 331 
L 3506 331 
L 3116 1356 
L 1153 1356 
L 763 331 
L 1275 331 
L 1275 0 
L -38 0 
z
" transform="scale(0.015625)"/>
      <path id="DejaVuSerif-50" d="M 1581 2375 
L 2406 2375 
Q 2872 2375 3115 2626 
Q 3359 2878 3359 3353 
Q 3359 3831 3115 4081 
Q 2872 4331 2406 4331 
L 1581 4331 
L 1581 2375 
z
M 353 0 
L 353 331 
L 947 331 
L 947 4331 
L 353 4331 
L 353 4666 
L 2559 4666 
Q 3259 4666 3668 4311 
Q 4078 3956 4078 3353 
Q 4078 2753 3668 2397 
Q 3259 2041 2559 2041 
L 1581 2041 
L 1581 331 
L 2303 331 
L 2303 0 
L 353 0 
z
" transform="scale(0.015625)"/>
      <path id="DejaVuSerif-20" transform="scale(0.015625)"/>
     </defs>
     <use xlink:href="#DejaVuSerif-55"/>
     <use xlink:href="#DejaVuSerif-4d" x="84.277344"/>
     <use xlink:href="#DejaVuSerif-41" x="186.669922"/>
     <use xlink:href="#DejaVuSerif-50" x="258.886719"/>
     <use xlink:href="#DejaVuSerif-20" x="326.171875"/>
     <use xlink:href="#DejaVuSerif-31" x="357.958984"/>
     <use xlink:href="#DejaVuSerif-44" x="421.582031"/>
    </g>
   </g>
  </g>
 </g>
 <defs>
  <clipPath id="p6860ca0cae">
   <rect x="60.617188" y="5.698828" width="334.8" height="166.32"/>
  </clipPath>
 </defs>
</svg>
